<?xml version="1.0" encoding="UTF-8" standalone="no"?>
<!DOCTYPE svg PUBLIC "-//W3C//DTD SVG 1.1//EN" "http://www.w3.org/Graphics/SVG/1.1/DTD/svg11.dtd">
<!-- Generated by Microsoft Visio, SVG Export F7B_transport_flow_Truck_dtd_A_y_dtd_A_y.svg F7B_picture_1 -->
<svg xmlns="http://www.w3.org/2000/svg" xmlns:xlink="http://www.w3.org/1999/xlink" xmlns:ev="http://www.w3.org/2001/xml-events"
		xmlns:v="http://schemas.microsoft.com/visio/2003/SVGExtensions/" width="6.375in" height="0.71875in" viewBox="0 0 459 51.75"
		xml:space="preserve" color-interpolation-filters="sRGB" class="st12">
	<v:documentProperties v:langID="1033" v:viewMarkup="false">
		<v:custProps>
			<v:cp v:nameU="BpmnElementType" v:lbl="BPMN Element Type" v:prompt="" v:type="1"
					v:format="Sub-Process;Event;Gateway;Process Diagram;Pool;Lane;Artifact;Connecting Object" v:sortKey=""
					v:invis="true" v:ask="false" v:langID="1033" v:cal="0" v:val="VT4(Process Diagram)"/>
			<v:cp v:nameU="BpmnId" v:lbl="Id" v:prompt="" v:type="0" v:format="" v:sortKey="" v:invis="true" v:ask="false"
					v:langID="1033" v:cal="0" v:val="VT0(0):26"/>
			<v:cp v:nameU="BpmnName" v:lbl="Name" v:prompt="" v:type="0" v:format="" v:sortKey="" v:invis="true" v:ask="false"
					v:langID="1033" v:cal="0" v:val="VT4()"/>
			<v:cp v:nameU="BpmnVersion" v:lbl="Version" v:prompt="" v:type="0" v:format="" v:sortKey="" v:invis="false"
					v:ask="false" v:langID="1033" v:cal="0" v:val="VT4()"/>
			<v:cp v:nameU="BpmnAuthor" v:lbl="Author" v:prompt="" v:type="0" v:format="" v:sortKey="" v:invis="false" v:ask="false"
					v:langID="1033" v:cal="0" v:val="VT4()"/>
			<v:cp v:nameU="BpmnLanguage" v:lbl="Language" v:prompt="" v:type="0" v:format="" v:sortKey="" v:invis="false"
					v:ask="false" v:langID="1033" v:cal="0" v:val="VT4()"/>
			<v:cp v:nameU="BpmnQueryLanguage" v:lbl="Query Language" v:prompt="" v:type="0" v:format="" v:sortKey=""
					v:invis="false" v:ask="false" v:langID="1033" v:cal="0" v:val="VT4()"/>
			<v:cp v:nameU="BpmnCreationDate" v:lbl="Creation Date" v:prompt="" v:type="0" v:format="" v:sortKey="" v:invis="false"
					v:ask="false" v:langID="1033" v:cal="0" v:val="VT4()"/>
			<v:cp v:nameU="BpmnModificationDate" v:lbl="Modification Date" v:prompt="" v:type="0" v:format="" v:sortKey=""
					v:invis="false" v:ask="false" v:langID="1033" v:cal="0" v:val="VT4()"/>
			<v:cp v:nameU="BpmnDocumentation" v:lbl="Documentation" v:prompt="" v:type="0" v:format="" v:sortKey="" v:invis="false"
					v:ask="false" v:langID="1033" v:cal="0" v:val="VT4()"/>
		</v:custProps>
		<v:userDefs>
			<v:ud v:nameU="msvSubprocessMaster" v:prompt="" v:val="VT4(Collapsed Sub-Process)"/>
			<v:ud v:nameU="msvNoAutoConnect" v:val="VT0(0):26"/>
			<v:ud v:nameU="visV14CFF" v:prompt="" v:val="VT0(1):26"/>
			<v:ud v:nameU="visFlowchartType" v:prompt="" v:val="VT4(CrossFunctional)"/>
		</v:userDefs>
	</v:documentProperties>

	<style type="text/css">
	<![CDATA[
		.st1 {fill:#fee599;stroke:#000000;stroke-linecap:round;stroke-linejoin:round;stroke-width:0.75}
		.st2 {fill:#dbeef3;stroke:#000000;stroke-linecap:round;stroke-linejoin:round;stroke-width:0.75}
		.st3 {fill:none;stroke:none;stroke-linecap:round;stroke-linejoin:round;stroke-width:0.75}
		.st4 {fill:#000000;font-family:Calibri;font-size:1.16666em;font-weight:bold}
		.st5 {font-size:1em}
		.st6 {font-size:0.714294em}
		.st7 {font-size:0.642863em}
		.st8 {fill:#000000;font-family:Calibri;font-size:0.75em;font-weight:bold}
		.st9 {font-size:1.55554em}
		.st10 {fill:#e5b9b5;stroke:#000000;stroke-linecap:round;stroke-linejoin:round;stroke-width:0.75}
		.st11 {fill:#1f1f1f;stroke:none;stroke-linecap:butt;stroke-width:0.01875}
		.st12 {fill:none;fill-rule:evenodd;font-size:12px;overflow:visible;stroke-linecap:square;stroke-miterlimit:3}
	]]>
	</style>

	<g v:mID="85" v:index="34" v:groupContext="foregroundPage">
		<v:userDefs>
			<v:ud v:nameU="msvThemeOrder" v:val="VT0(0):26"/>
			<v:ud v:nameU="visNavType" v:val="VT0(1):26"/>
		</v:userDefs>
		<title>F7B_picture_1</title>
		<v:pageProperties v:drawingScale="1" v:pageScale="1" v:drawingUnits="0" v:shadowOffsetX="9" v:shadowOffsetY="-9"/>
		<v:layer v:name="Flowchart" v:index="0"/>
		<v:layer v:name="Callout" v:index="1"/>
		<v:layer v:name="Connector" v:index="2"/>
		<g id="group1000-1" transform="translate(-4.50003,-15.75)" v:mID="1000" v:groupContext="group">
			<v:userDefs>
				<v:ud v:nameU="visNavOrder" v:val="VT0(1000):26"/>
			</v:userDefs>
			<title>Sheet.1000</title>
			<g id="shape1001-2" v:mID="1001" v:groupContext="shape" v:layerMember="0" transform="translate(37.125,-1.69711E-05)">
				<title>Process.1599</title>
				<v:custProps>
					<v:cp v:nameU="Cost" v:lbl="Cost" v:type="7" v:format="@" v:langID="1033"/>
					<v:cp v:nameU="Duration" v:lbl="Duration" v:type="2" v:langID="1033"/>
					<v:cp v:nameU="Resources" v:lbl="Resources" v:langID="1033"/>
				</v:custProps>
				<v:userDefs>
					<v:ud v:nameU="visVersion" v:val="VT0(12):26"/>
					<v:ud v:nameU="visNavOrder" v:val="VT0(93000):26"/>
				</v:userDefs>
				<rect x="0" y="42.75" width="49.5" height="9" class="st1"/>
			</g>
			<g id="shape1002-4" v:mID="1002" v:groupContext="shape" v:layerMember="0" transform="translate(85.5,-1.69711E-05)">
				<title>Process.1600</title>
				<v:custProps>
					<v:cp v:nameU="Cost" v:lbl="Cost" v:type="7" v:format="@" v:langID="1033"/>
					<v:cp v:nameU="Duration" v:lbl="Duration" v:type="2" v:langID="1033"/>
					<v:cp v:nameU="Resources" v:lbl="Resources" v:langID="1033"/>
				</v:custProps>
				<v:userDefs>
					<v:ud v:nameU="visVersion" v:val="VT0(12):26"/>
					<v:ud v:nameU="visNavOrder" v:val="VT0(92000):26"/>
				</v:userDefs>
				<rect x="0" y="42.75" width="306" height="9" class="st2"/>
			</g>
			<g id="shape1003-6" v:mID="1003" v:groupContext="shape" transform="translate(74.25,-12.5156)">
				<title>Sheet.1003</title>
				<desc>A (From)</desc>
				<v:userDefs>
					<v:ud v:nameU="visNavOrder" v:val="VT0(95000):26"/>
				</v:userDefs>
				<v:textBlock v:margins="rect(4,4,4,4)"/>
				<v:textRect cx="24.75" cy="46.2656" width="49.5" height="10.9688"/>
				<rect x="0" y="40.7812" width="49.5" height="10.9688" class="st3"/>
				<text x="4.98" y="50.47" class="st4" v:langID="1033"><v:paragraph v:horizAlign="1"/><v:tabList/>A<tspan class="st5"
							v:langID="1029"> </tspan><tspan class="st6" v:langID="1029">(From)</tspan></text>			</g>
			<g id="shape1004-11" v:mID="1004" v:groupContext="shape" transform="translate(366.75,-11.25)">
				<title>Sheet.1004</title>
				<desc>B (To)</desc>
				<v:userDefs>
					<v:ud v:nameU="visNavOrder" v:val="VT0(96000):26"/>
				</v:userDefs>
				<v:textBlock v:margins="rect(4,4,4,4)"/>
				<v:textRect cx="20.25" cy="45" width="40.5" height="13.5"/>
				<rect x="0" y="38.25" width="40.5" height="13.5" class="st3"/>
				<text x="7.29" y="49.2" class="st4" v:langID="1033"><v:paragraph v:horizAlign="1"/><v:tabList/>B<tspan class="st5"
							v:langID="1029"> </tspan><tspan class="st7" v:langID="1029">(To)</tspan></text>			</g>
			<g id="shape1005-16" v:mID="1005" v:groupContext="shape" transform="translate(0,-10.9688)">
				<title>Sheet.1005</title>
				<desc>DTD A</desc>
				<v:userDefs>
					<v:ud v:nameU="visNavOrder" v:val="VT0(97000):26"/>
				</v:userDefs>
				<v:textBlock v:margins="rect(4,4,4,4)"/>
				<v:textRect cx="24.75" cy="45" width="49.5" height="13.5"/>
				<rect x="0" y="38.25" width="49.5" height="13.5" class="st3"/>
				<text x="11.59" y="49.2" class="st8" v:langID="1033"><v:paragraph v:horizAlign="1"/><v:tabList/>DTD <tspan
							class="st9">A</tspan></text>			</g>
			<g id="shape1006-20" v:mID="1006" v:groupContext="shape" transform="translate(423,-11.25)">
				<title>Sheet.1006</title>
				<desc>DTD B</desc>
				<v:userDefs>
					<v:ud v:nameU="visNavOrder" v:val="VT0(98000):26"/>
				</v:userDefs>
				<v:textBlock v:margins="rect(4,4,4,4)"/>
				<v:textRect cx="24.75" cy="45" width="49.5" height="13.5"/>
				<rect x="0" y="38.25" width="49.5" height="13.5" class="st3"/>
				<text x="11.91" y="49.2" class="st8" v:langID="1033"><v:paragraph v:horizAlign="1"/><v:tabList/>DTD <tspan
							class="st9">B</tspan></text>			</g>
			<g id="shape1007-24" v:mID="1007" v:groupContext="shape" v:layerMember="0" transform="translate(391.5,1.42109E-14)">
				<title>Process.1605</title>
				<v:custProps>
					<v:cp v:nameU="Cost" v:lbl="Cost" v:type="7" v:format="@" v:langID="1033"/>
					<v:cp v:nameU="Duration" v:lbl="Duration" v:type="2" v:langID="1033"/>
					<v:cp v:nameU="Resources" v:lbl="Resources" v:langID="1033"/>
				</v:custProps>
				<v:userDefs>
					<v:ud v:nameU="visVersion" v:val="VT0(12):26"/>
					<v:ud v:nameU="visNavOrder" v:val="VT0(94000):26"/>
				</v:userDefs>
				<rect x="0" y="42.75" width="49.5" height="9" class="st10"/>
			</g>
			<g id="group1008-26" transform="translate(231,-14.2501)" v:mID="1008" v:groupContext="group">
				<v:userDefs>
					<v:ud v:nameU="visNavOrder" v:val="VT0(99000):26"/>
				</v:userDefs>
				<title>Sheet.1008</title>
				<g id="shape1009-27" v:mID="1009" v:groupContext="shape">
					<title>Sheet.1009</title>
					<path d="M3.75 51.75 C3.13 51.75 2.59 51.53 2.16 51.09 C1.72 50.66 1.5 50.12 1.5 49.5 L0 49.5 L0 41.25 C0 40.84
								 0.15 40.48 0.44 40.19 C0.73 39.9 1.09 39.75 1.5 39.75 L12 39.75 L12 42.75 L14.25 42.75 L16.5 45.75
								 L16.5 49.5 L15 49.5 C15 50.12 14.78 50.66 14.34 51.09 C13.91 51.53 13.38 51.75 12.75 51.75 C12.13
								 51.75 11.59 51.53 11.16 51.09 C10.72 50.66 10.5 50.12 10.5 49.5 L6 49.5 C6 50.12 5.78 50.66 5.34
								 51.09 C4.91 51.53 4.38 51.75 3.75 51.75 ZM3.75 50.25 C3.96 50.25 4.14 50.18 4.28 50.03 C4.43 49.89
								 4.5 49.71 4.5 49.5 C4.5 49.29 4.43 49.11 4.28 48.97 C4.14 48.82 3.96 48.75 3.75 48.75 C3.54 48.75
								 3.36 48.82 3.22 48.97 C3.07 49.11 3 49.29 3 49.5 C3 49.71 3.07 49.89 3.22 50.03 C3.36 50.18 3.54
								 50.25 3.75 50.25 ZM1.5 48 L2.1 48 C2.31 47.77 2.56 47.59 2.83 47.46 C3.11 47.32 3.41 47.25 3.75
								 47.25 C4.09 47.25 4.39 47.32 4.67 47.46 C4.94 47.59 5.19 47.77 5.4 48 L10.5 48 L10.5 41.25 L1.5
								 41.25 L1.5 48 ZM12.75 50.25 C12.96 50.25 13.14 50.18 13.28 50.03 C13.43 49.89 13.5 49.71 13.5 49.5
								 C13.5 49.29 13.43 49.11 13.28 48.97 C13.14 48.82 12.96 48.75 12.75 48.75 C12.54 48.75 12.36 48.82
								 12.22 48.97 C12.07 49.11 12 49.29 12 49.5 C12 49.71 12.07 49.89 12.22 50.03 C12.36 50.18 12.54 50.25
								 12.75 50.25 ZM12 46.5 L15.19 46.5 L13.5 44.25 L12 44.25 L12 46.5 Z" class="st11"/>
				</g>
			</g>
			<g id="group1010-29" transform="translate(54,-15.0001)" v:mID="1010" v:groupContext="group">
				<v:userDefs>
					<v:ud v:nameU="visNavOrder" v:val="VT0(100000):26"/>
				</v:userDefs>
				<title>Sheet.1010</title>
				<g id="shape1011-30" v:mID="1011" v:groupContext="shape">
					<title>Sheet.1011</title>
					<path d="M3.75 51.75 C3.13 51.75 2.59 51.53 2.16 51.09 C1.72 50.66 1.5 50.12 1.5 49.5 L0 49.5 L0 41.25 C0 40.84
								 0.15 40.48 0.44 40.19 C0.73 39.9 1.09 39.75 1.5 39.75 L12 39.75 L12 42.75 L14.25 42.75 L16.5 45.75
								 L16.5 49.5 L15 49.5 C15 50.12 14.78 50.66 14.34 51.09 C13.91 51.53 13.38 51.75 12.75 51.75 C12.13
								 51.75 11.59 51.53 11.16 51.09 C10.72 50.66 10.5 50.12 10.5 49.5 L6 49.5 C6 50.12 5.78 50.66 5.34
								 51.09 C4.91 51.53 4.38 51.75 3.75 51.75 ZM3.75 50.25 C3.96 50.25 4.14 50.18 4.28 50.03 C4.43 49.89
								 4.5 49.71 4.5 49.5 C4.5 49.29 4.43 49.11 4.28 48.97 C4.14 48.82 3.96 48.75 3.75 48.75 C3.54 48.75
								 3.36 48.82 3.22 48.97 C3.07 49.11 3 49.29 3 49.5 C3 49.71 3.07 49.89 3.22 50.03 C3.36 50.18 3.54
								 50.25 3.75 50.25 ZM1.5 48 L2.1 48 C2.31 47.77 2.56 47.59 2.83 47.46 C3.11 47.32 3.41 47.25 3.75
								 47.25 C4.09 47.25 4.39 47.32 4.67 47.46 C4.94 47.59 5.19 47.77 5.4 48 L10.5 48 L10.5 41.25 L1.5
								 41.25 L1.5 48 ZM12.75 50.25 C12.96 50.25 13.14 50.18 13.28 50.03 C13.43 49.89 13.5 49.71 13.5 49.5
								 C13.5 49.29 13.43 49.11 13.28 48.97 C13.14 48.82 12.96 48.75 12.75 48.75 C12.54 48.75 12.36 48.82
								 12.22 48.97 C12.07 49.11 12 49.29 12 49.5 C12 49.71 12.07 49.89 12.22 50.03 C12.36 50.18 12.54 50.25
								 12.75 50.25 ZM12 46.5 L15.19 46.5 L13.5 44.25 L12 44.25 L12 46.5 Z" class="st11"/>
				</g>
			</g>
			<g id="group1012-32" transform="translate(410.25,-14.2501)" v:mID="1012" v:groupContext="group">
				<v:userDefs>
					<v:ud v:nameU="visNavOrder" v:val="VT0(101000):26"/>
				</v:userDefs>
				<title>Sheet.1012</title>
				<g id="shape1013-33" v:mID="1013" v:groupContext="shape">
					<title>Sheet.1013</title>
					<path d="M3.75 51.75 C3.13 51.75 2.59 51.53 2.16 51.09 C1.72 50.66 1.5 50.12 1.5 49.5 L0 49.5 L0 41.25 C0 40.84
								 0.15 40.48 0.44 40.19 C0.73 39.9 1.09 39.75 1.5 39.75 L12 39.75 L12 42.75 L14.25 42.75 L16.5 45.75
								 L16.5 49.5 L15 49.5 C15 50.12 14.78 50.66 14.34 51.09 C13.91 51.53 13.38 51.75 12.75 51.75 C12.13
								 51.75 11.59 51.53 11.16 51.09 C10.72 50.66 10.5 50.12 10.5 49.5 L6 49.5 C6 50.12 5.78 50.66 5.34
								 51.09 C4.91 51.53 4.38 51.75 3.75 51.75 ZM3.75 50.25 C3.96 50.25 4.14 50.18 4.28 50.03 C4.43 49.89
								 4.5 49.71 4.5 49.5 C4.5 49.29 4.43 49.11 4.28 48.97 C4.14 48.82 3.96 48.75 3.75 48.75 C3.54 48.75
								 3.36 48.82 3.22 48.97 C3.07 49.11 3 49.29 3 49.5 C3 49.71 3.07 49.89 3.22 50.03 C3.36 50.18 3.54
								 50.25 3.75 50.25 ZM1.5 48 L2.1 48 C2.31 47.77 2.56 47.59 2.83 47.46 C3.11 47.32 3.41 47.25 3.75
								 47.25 C4.09 47.25 4.39 47.32 4.67 47.46 C4.94 47.59 5.19 47.77 5.4 48 L10.5 48 L10.5 41.25 L1.5
								 41.25 L1.5 48 ZM12.75 50.25 C12.96 50.25 13.14 50.18 13.28 50.03 C13.43 49.89 13.5 49.71 13.5 49.5
								 C13.5 49.29 13.43 49.11 13.28 48.97 C13.14 48.82 12.96 48.75 12.75 48.75 C12.54 48.75 12.36 48.82
								 12.22 48.97 C12.07 49.11 12 49.29 12 49.5 C12 49.71 12.07 49.89 12.22 50.03 C12.36 50.18 12.54 50.25
								 12.75 50.25 ZM12 46.5 L15.19 46.5 L13.5 44.25 L12 44.25 L12 46.5 Z" class="st11"/>
				</g>
			</g>
		</g>
	</g>
</svg>
