<?xml version="1.0" encoding="UTF-8" standalone="no"?>
<!DOCTYPE svg PUBLIC "-//W3C//DTD SVG 1.1//EN" "http://www.w3.org/Graphics/SVG/1.1/DTD/svg11.dtd">
<!-- Generated by Microsoft Visio, SVG Export F7B_transport_flow_Train_dtd_A_n_dtd_B_y.svg Page-51 -->
<svg xmlns="http://www.w3.org/2000/svg" xmlns:xlink="http://www.w3.org/1999/xlink" xmlns:ev="http://www.w3.org/2001/xml-events"
		xmlns:v="http://schemas.microsoft.com/visio/2003/SVGExtensions/" width="6.375in" height="0.71875in" viewBox="0 0 459 51.75"
		xml:space="preserve" color-interpolation-filters="sRGB" class="st12">
	<v:documentProperties v:langID="1033" v:viewMarkup="false">
		<v:custProps>
			<v:cp v:nameU="BpmnElementType" v:lbl="BPMN Element Type" v:prompt="" v:type="1"
					v:format="Sub-Process;Event;Gateway;Process Diagram;Pool;Lane;Artifact;Connecting Object" v:sortKey=""
					v:invis="true" v:ask="false" v:langID="1033" v:cal="0" v:val="VT4(Process Diagram)"/>
			<v:cp v:nameU="BpmnId" v:lbl="Id" v:prompt="" v:type="0" v:format="" v:sortKey="" v:invis="true" v:ask="false"
					v:langID="1033" v:cal="0" v:val="VT0(0):26"/>
			<v:cp v:nameU="BpmnName" v:lbl="Name" v:prompt="" v:type="0" v:format="" v:sortKey="" v:invis="true" v:ask="false"
					v:langID="1033" v:cal="0" v:val="VT4()"/>
			<v:cp v:nameU="BpmnVersion" v:lbl="Version" v:prompt="" v:type="0" v:format="" v:sortKey="" v:invis="false"
					v:ask="false" v:langID="1033" v:cal="0" v:val="VT4()"/>
			<v:cp v:nameU="BpmnAuthor" v:lbl="Author" v:prompt="" v:type="0" v:format="" v:sortKey="" v:invis="false" v:ask="false"
					v:langID="1033" v:cal="0" v:val="VT4()"/>
			<v:cp v:nameU="BpmnLanguage" v:lbl="Language" v:prompt="" v:type="0" v:format="" v:sortKey="" v:invis="false"
					v:ask="false" v:langID="1033" v:cal="0" v:val="VT4()"/>
			<v:cp v:nameU="BpmnQueryLanguage" v:lbl="Query Language" v:prompt="" v:type="0" v:format="" v:sortKey=""
					v:invis="false" v:ask="false" v:langID="1033" v:cal="0" v:val="VT4()"/>
			<v:cp v:nameU="BpmnCreationDate" v:lbl="Creation Date" v:prompt="" v:type="0" v:format="" v:sortKey="" v:invis="false"
					v:ask="false" v:langID="1033" v:cal="0" v:val="VT4()"/>
			<v:cp v:nameU="BpmnModificationDate" v:lbl="Modification Date" v:prompt="" v:type="0" v:format="" v:sortKey=""
					v:invis="false" v:ask="false" v:langID="1033" v:cal="0" v:val="VT4()"/>
			<v:cp v:nameU="BpmnDocumentation" v:lbl="Documentation" v:prompt="" v:type="0" v:format="" v:sortKey="" v:invis="false"
					v:ask="false" v:langID="1033" v:cal="0" v:val="VT4()"/>
		</v:custProps>
		<v:userDefs>
			<v:ud v:nameU="msvSubprocessMaster" v:prompt="" v:val="VT4(Collapsed Sub-Process)"/>
			<v:ud v:nameU="msvNoAutoConnect" v:val="VT0(0):26"/>
			<v:ud v:nameU="visV14CFF" v:prompt="" v:val="VT0(1):26"/>
			<v:ud v:nameU="visFlowchartType" v:prompt="" v:val="VT4(CrossFunctional)"/>
		</v:userDefs>
	</v:documentProperties>

	<style type="text/css">
	<![CDATA[
		.st1 {fill:#ebf1df;stroke:#000000;stroke-linecap:round;stroke-linejoin:round;stroke-width:0.75}
		.st2 {fill:#dbeef3;stroke:#000000;stroke-linecap:round;stroke-linejoin:round;stroke-width:0.75}
		.st3 {fill:none;stroke:none;stroke-linecap:round;stroke-linejoin:round;stroke-width:0.75}
		.st4 {fill:#000000;font-family:Calibri;font-size:1.16666em;font-weight:bold}
		.st5 {font-size:1em}
		.st6 {font-size:0.714294em}
		.st7 {font-size:0.642863em}
		.st8 {fill:#000000;font-family:Calibri;font-size:0.75em;font-weight:bold}
		.st9 {font-size:1.55554em}
		.st10 {fill:#1f1f1f;stroke:none;stroke-linecap:butt;stroke-width:0.01875}
		.st11 {fill:#e5b9b5;stroke:#000000;stroke-linecap:round;stroke-linejoin:round;stroke-width:0.75}
		.st12 {fill:none;fill-rule:evenodd;font-size:12px;overflow:visible;stroke-linecap:square;stroke-miterlimit:3}
	]]>
	</style>

	<g v:mID="94" v:index="39" v:groupContext="foregroundPage">
		<v:userDefs>
			<v:ud v:nameU="msvThemeOrder" v:val="VT0(0):26"/>
			<v:ud v:nameU="visNavType" v:val="VT0(1):26"/>
		</v:userDefs>
		<title>Page-51</title>
		<v:pageProperties v:drawingScale="1" v:pageScale="1" v:drawingUnits="0" v:shadowOffsetX="9" v:shadowOffsetY="-9"/>
		<v:layer v:name="Flowchart" v:index="0"/>
		<v:layer v:name="Callout" v:index="1"/>
		<v:layer v:name="Connector" v:index="2"/>
		<g id="shape1010-1" v:mID="1010" v:groupContext="shape" v:layerMember="0" transform="translate(287.989,-16.4062)">
			<title>Process.1054</title>
			<v:custProps>
				<v:cp v:nameU="Cost" v:lbl="Cost" v:type="7" v:format="@" v:langID="1033"/>
				<v:cp v:nameU="Duration" v:lbl="Duration" v:type="2" v:langID="1033"/>
				<v:cp v:nameU="Resources" v:lbl="Resources" v:langID="1033"/>
			</v:custProps>
			<v:userDefs>
				<v:ud v:nameU="visVersion" v:val="VT0(12):26"/>
				<v:ud v:nameU="visNavOrder" v:val="VT0(14000):26"/>
			</v:userDefs>
			<rect x="0" y="42.75" width="24.7725" height="9" class="st1"/>
		</g>
		<g id="shape1011-3" v:mID="1011" v:groupContext="shape" v:layerMember="0" transform="translate(32.0625,-16.4062)">
			<title>Process.1613</title>
			<v:custProps>
				<v:cp v:nameU="Cost" v:lbl="Cost" v:type="7" v:format="@" v:langID="1033"/>
				<v:cp v:nameU="Duration" v:lbl="Duration" v:type="2" v:langID="1033"/>
				<v:cp v:nameU="Resources" v:lbl="Resources" v:langID="1033"/>
			</v:custProps>
			<v:userDefs>
				<v:ud v:nameU="visVersion" v:val="VT0(12):26"/>
				<v:ud v:nameU="visNavOrder" v:val="VT0(2000):26"/>
			</v:userDefs>
			<rect x="0" y="42.75" width="255.937" height="9" class="st2"/>
		</g>
		<g id="shape1013-5" v:mID="1013" v:groupContext="shape" transform="translate(27,-28.9219)">
			<title>Sheet.1013</title>
			<desc>A (From)</desc>
			<v:userDefs>
				<v:ud v:nameU="visNavOrder" v:val="VT0(5000):26"/>
			</v:userDefs>
			<v:textBlock v:margins="rect(4,4,4,4)"/>
			<v:textRect cx="24.75" cy="46.2656" width="49.5" height="10.9688"/>
			<rect x="0" y="40.7812" width="49.5" height="10.9688" class="st3"/>
			<text x="4.98" y="50.47" class="st4" v:langID="1033"><v:paragraph v:horizAlign="1"/><v:tabList/>A<tspan class="st5"
						v:langID="1029"> </tspan><tspan class="st6" v:langID="1029">(From)</tspan></text>		</g>
		<g id="shape1014-10" v:mID="1014" v:groupContext="shape" transform="translate(263.25,-27.6563)">
			<title>Sheet.1014</title>
			<desc>B (To)</desc>
			<v:userDefs>
				<v:ud v:nameU="visNavOrder" v:val="VT0(6000):26"/>
			</v:userDefs>
			<v:textBlock v:margins="rect(4,4,4,4)"/>
			<v:textRect cx="20.25" cy="45" width="40.5" height="13.5"/>
			<rect x="0" y="38.25" width="40.5" height="13.5" class="st3"/>
			<text x="7.29" y="49.2" class="st4" v:langID="1033"><v:paragraph v:horizAlign="1"/><v:tabList/>B<tspan class="st5"
						v:langID="1029"> </tspan><tspan class="st7" v:langID="1029">(To)</tspan></text>		</g>
		<g id="shape1016-15" v:mID="1016" v:groupContext="shape" transform="translate(344.25,-27.6563)">
			<title>Sheet.1016</title>
			<desc>DTD B</desc>
			<v:userDefs>
				<v:ud v:nameU="visNavOrder" v:val="VT0(8000):26"/>
			</v:userDefs>
			<v:textBlock v:margins="rect(4,4,4,4)"/>
			<v:textRect cx="24.75" cy="45" width="49.5" height="13.5"/>
			<rect x="0" y="38.25" width="49.5" height="13.5" class="st3"/>
			<text x="11.91" y="49.2" class="st8" v:langID="1033"><v:paragraph v:horizAlign="1"/><v:tabList/>DTD <tspan class="st9">B</tspan></text>		</g>
		<g id="group1019-19" transform="translate(331.5,-31.125)" v:mID="1019" v:groupContext="group">
			<v:userDefs>
				<v:ud v:nameU="visNavOrder" v:val="VT0(10000):26"/>
			</v:userDefs>
			<title>Sheet.1019</title>
			<g id="shape1020-20" v:mID="1020" v:groupContext="shape">
				<title>Sheet.1020</title>
				<path d="M3.75 51.75 C3.13 51.75 2.59 51.53 2.16 51.09 C1.72 50.66 1.5 50.12 1.5 49.5 L0 49.5 L0 41.25 C0 40.84 0.15
							 40.48 0.44 40.19 C0.73 39.9 1.09 39.75 1.5 39.75 L12 39.75 L12 42.75 L14.25 42.75 L16.5 45.75 L16.5
							 49.5 L15 49.5 C15 50.12 14.78 50.66 14.34 51.09 C13.91 51.53 13.38 51.75 12.75 51.75 C12.13 51.75 11.59
							 51.53 11.16 51.09 C10.72 50.66 10.5 50.12 10.5 49.5 L6 49.5 C6 50.12 5.78 50.66 5.34 51.09 C4.91 51.53
							 4.38 51.75 3.75 51.75 ZM3.75 50.25 C3.96 50.25 4.14 50.18 4.28 50.03 C4.43 49.89 4.5 49.71 4.5 49.5
							 C4.5 49.29 4.43 49.11 4.28 48.97 C4.14 48.82 3.96 48.75 3.75 48.75 C3.54 48.75 3.36 48.82 3.22 48.97
							 C3.07 49.11 3 49.29 3 49.5 C3 49.71 3.07 49.89 3.22 50.03 C3.36 50.18 3.54 50.25 3.75 50.25 ZM1.5 48
							 L2.1 48 C2.31 47.77 2.56 47.59 2.83 47.46 C3.11 47.32 3.41 47.25 3.75 47.25 C4.09 47.25 4.39 47.32 4.67
							 47.46 C4.94 47.59 5.19 47.77 5.4 48 L10.5 48 L10.5 41.25 L1.5 41.25 L1.5 48 ZM12.75 50.25 C12.96 50.25
							 13.14 50.18 13.28 50.03 C13.43 49.89 13.5 49.71 13.5 49.5 C13.5 49.29 13.43 49.11 13.28 48.97 C13.14
							 48.82 12.96 48.75 12.75 48.75 C12.54 48.75 12.36 48.82 12.22 48.97 C12.07 49.11 12 49.29 12 49.5 C12
							 49.71 12.07 49.89 12.22 50.03 C12.36 50.18 12.54 50.25 12.75 50.25 ZM12 46.5 L15.19 46.5 L13.5 44.25
							 L12 44.25 L12 46.5 Z" class="st10"/>
			</g>
		</g>
		<g id="group1021-22" transform="translate(159,-30.75)" v:mID="1021" v:groupContext="group">
			<v:userDefs>
				<v:ud v:nameU="visNavOrder" v:val="VT0(12000):26"/>
			</v:userDefs>
			<title>Sheet.1021</title>
			<g id="shape1022-23" v:mID="1022" v:groupContext="shape">
				<title>Sheet.1022</title>
				<path d="M0 47.62 L0 40.5 C0 39.84 0.17 39.31 0.52 38.92 C0.86 38.52 1.31 38.22 1.88 38.02 C2.44 37.81 3.08 37.67
							 3.8 37.6 C4.52 37.53 5.25 37.5 6 37.5 C6.83 37.5 7.6 37.53 8.33 37.6 C9.07 37.67 9.7 37.81 10.25 38.02
							 C10.79 38.22 11.22 38.52 11.53 38.92 C11.84 39.31 12 39.84 12 40.5 L12 47.62 C12 48.36 11.75 48.98 11.24
							 49.49 C10.73 50 10.11 50.25 9.38 50.25 L10.5 51.37 L10.5 51.75 L9 51.75 L7.5 50.25 L4.5 50.25 L3 51.75
							 L1.5 51.75 L1.5 51.37 L2.63 50.25 C1.89 50.25 1.27 50 0.76 49.49 C0.25 48.98 0 48.36 0 47.62 ZM6 39
							 C4.68 39 3.71 39.08 3.09 39.23 C2.48 39.39 2.06 39.56 1.84 39.75 L10.24 39.75 C10.05 39.54 9.65 39.36
							 9.03 39.22 C8.41 39.07 7.4 39 6 39 ZM1.5 43.5 L5.25 43.5 L5.25 41.25 L1.5 41.25 L1.5 43.5 ZM9.38 45
							 L1.5 45 L10.5 45 L9.38 45 ZM6.75 43.5 L10.5 43.5 L10.5 41.25 L6.75 41.25 L6.75 43.5 ZM3.38 48 C3.7 48
							 3.97 47.89 4.18 47.68 C4.39 47.47 4.5 47.2 4.5 46.87 C4.5 46.55 4.39 46.28 4.18 46.07 C3.97 45.86 3.7
							 45.75 3.38 45.75 C3.05 45.75 2.78 45.86 2.57 46.07 C2.36 46.28 2.25 46.55 2.25 46.87 C2.25 47.2 2.36
							 47.47 2.57 47.68 C2.78 47.89 3.05 48 3.38 48 ZM8.63 48 C8.95 48 9.22 47.89 9.43 47.68 C9.64 47.47 9.75
							 47.2 9.75 46.87 C9.75 46.55 9.64 46.28 9.43 46.07 C9.22 45.86 8.95 45.75 8.63 45.75 C8.3 45.75 8.03
							 45.86 7.82 46.07 C7.61 46.28 7.5 46.55 7.5 46.87 C7.5 47.2 7.61 47.47 7.82 47.68 C8.03 47.89 8.3 48
							 8.63 48 ZM2.63 48.75 L9.38 48.75 C9.7 48.75 9.97 48.64 10.18 48.43 C10.39 48.22 10.5 47.95 10.5 47.62
							 L10.5 45 L1.5 45 L1.5 47.62 C1.5 47.95 1.61 48.22 1.82 48.43 C2.03 48.64 2.3 48.75 2.63 48.75 ZM6 39.75
							 L10.24 39.75 L1.84 39.75 L6 39.75 Z" class="st10"/>
			</g>
		</g>
		<g id="shape1026-25" v:mID="1026" v:groupContext="shape" v:layerMember="0" transform="translate(312.75,-16.4062)">
			<title>Process.1618</title>
			<v:custProps>
				<v:cp v:nameU="Cost" v:lbl="Cost" v:type="7" v:format="@" v:langID="1033"/>
				<v:cp v:nameU="Duration" v:lbl="Duration" v:type="2" v:langID="1033"/>
				<v:cp v:nameU="Resources" v:lbl="Resources" v:langID="1033"/>
			</v:custProps>
			<v:userDefs>
				<v:ud v:nameU="visVersion" v:val="VT0(12):26"/>
				<v:ud v:nameU="visNavOrder" v:val="VT0(4000):26"/>
			</v:userDefs>
			<rect x="0" y="42.75" width="49.5" height="9" class="st11"/>
		</g>
	</g>
</svg>
