<?xml version="1.0" encoding="UTF-8" standalone="no"?>
<!DOCTYPE svg PUBLIC "-//W3C//DTD SVG 1.1//EN" "http://www.w3.org/Graphics/SVG/1.1/DTD/svg11.dtd">
<!-- Generated by Microsoft Visio, SVG Export F7_metrics_UC3_advanced_legend.svg UC3 Advanced lengend -->
<svg xmlns="http://www.w3.org/2000/svg" xmlns:xlink="http://www.w3.org/1999/xlink" xmlns:ev="http://www.w3.org/2001/xml-events"
		xmlns:v="http://schemas.microsoft.com/visio/2003/SVGExtensions/" width="6.99512in" height="1.625in"
		viewBox="0 0 503.648 117" xml:space="preserve" color-interpolation-filters="sRGB" class="st16">
	<v:documentProperties v:langID="1033" v:viewMarkup="false">
		<v:userDefs>
			<v:ud v:nameU="msvNoAutoConnect" v:val="VT0(1):26"/>
		</v:userDefs>
	</v:documentProperties>

	<style type="text/css">
	<![CDATA[
		.st1 {fill:#fee599;stroke:#000000;stroke-linecap:round;stroke-linejoin:round;stroke-width:0.75}
		.st2 {fill:#dbeef3;stroke:#000000;stroke-linecap:round;stroke-linejoin:round;stroke-width:0.75}
		.st3 {fill:none;stroke:none;stroke-linecap:round;stroke-linejoin:round;stroke-width:0.75}
		.st4 {fill:#000000;font-family:Calibri;font-size:1.16666em;font-weight:bold}
		.st5 {font-size:1em}
		.st6 {font-size:0.714294em}
		.st7 {font-size:0.642863em}
		.st8 {fill:#000000;font-family:Calibri;font-size:0.75em;font-weight:bold}
		.st9 {font-size:1.55554em}
		.st10 {fill:#e5b9b5;stroke:#000000;stroke-linecap:round;stroke-linejoin:round;stroke-width:0.75}
		.st11 {fill:#1f1f1f;stroke:none;stroke-linecap:butt;stroke-width:0.01875}
		.st12 {fill:#ebf1df;stroke:#000000;stroke-linecap:round;stroke-linejoin:round;stroke-width:0.75}
		.st13 {stroke:#000000;stroke-dasharray:0,3.6;stroke-linecap:round;stroke-linejoin:round;stroke-width:0.72}
		.st14 {stroke:#000000;stroke-linecap:round;stroke-linejoin:round;stroke-width:0.72}
		.st15 {fill:#000000;font-family:Calibri;font-size:0.833336em}
		.st16 {fill:none;fill-rule:evenodd;font-size:12px;overflow:visible;stroke-linecap:square;stroke-miterlimit:3}
	]]>
	</style>

	<g v:mID="17" v:index="11" v:groupContext="foregroundPage">
		<v:userDefs>
			<v:ud v:nameU="visNavType" v:val="VT0(1):26"/>
		</v:userDefs>
		<title>UC3 Advanced lengend</title>
		<v:pageProperties v:drawingScale="1" v:pageScale="1" v:drawingUnits="19" v:shadowOffsetX="9" v:shadowOffsetY="-9"/>
		<v:layer v:name="Flowchart" v:index="0"/>
		<v:layer v:name="Callout" v:index="1"/>
		<g id="group1-1" transform="translate(-9.35157,-81)" v:mID="1" v:groupContext="group">
			<v:userDefs>
				<v:ud v:nameU="visNavOrder" v:val="VT0(1000):26"/>
			</v:userDefs>
			<title>Sheet.1</title>
			<g id="shape2-2" v:mID="2" v:groupContext="shape" v:layerMember="0" transform="translate(37.125,-1.69711E-05)">
				<title>Process.1599</title>
				<v:custProps>
					<v:cp v:nameU="Cost" v:lbl="Cost" v:type="7" v:format="@" v:langID="1033"/>
					<v:cp v:nameU="Duration" v:lbl="Duration" v:type="2" v:langID="1033"/>
					<v:cp v:nameU="Resources" v:lbl="Resources" v:langID="1033"/>
				</v:custProps>
				<v:userDefs>
					<v:ud v:nameU="visVersion" v:val="VT0(12):26"/>
					<v:ud v:nameU="visNavOrder" v:val="VT0(93000):26"/>
				</v:userDefs>
				<rect x="0" y="108" width="49.5" height="9" class="st1"/>
			</g>
			<g id="shape3-4" v:mID="3" v:groupContext="shape" v:layerMember="0" transform="translate(85.5,-1.69711E-05)">
				<title>Process.1600</title>
				<v:custProps>
					<v:cp v:nameU="Cost" v:lbl="Cost" v:type="7" v:format="@" v:langID="1033"/>
					<v:cp v:nameU="Duration" v:lbl="Duration" v:type="2" v:langID="1033"/>
					<v:cp v:nameU="Resources" v:lbl="Resources" v:langID="1033"/>
				</v:custProps>
				<v:userDefs>
					<v:ud v:nameU="visVersion" v:val="VT0(12):26"/>
					<v:ud v:nameU="visNavOrder" v:val="VT0(92000):26"/>
				</v:userDefs>
				<rect x="0" y="108" width="306" height="9" class="st2"/>
			</g>
			<g id="shape4-6" v:mID="4" v:groupContext="shape" transform="translate(74.25,-12.5156)">
				<title>Sheet.4</title>
				<desc>A (From)</desc>
				<v:userDefs>
					<v:ud v:nameU="visNavOrder" v:val="VT0(95000):26"/>
				</v:userDefs>
				<v:textBlock v:margins="rect(4,4,4,4)"/>
				<v:textRect cx="24.75" cy="111.516" width="49.5" height="10.9688"/>
				<rect x="0" y="106.031" width="49.5" height="10.9688" class="st3"/>
				<text x="4.98" y="115.72" class="st4" v:langID="1033"><v:paragraph v:horizAlign="1"/><v:tabList/>A<tspan
							class="st5" v:langID="1029"> </tspan><tspan class="st6" v:langID="1029">(From)</tspan></text>			</g>
			<g id="shape5-11" v:mID="5" v:groupContext="shape" transform="translate(366.75,-11.25)">
				<title>Sheet.5</title>
				<desc>B (To)</desc>
				<v:userDefs>
					<v:ud v:nameU="visNavOrder" v:val="VT0(96000):26"/>
				</v:userDefs>
				<v:textBlock v:margins="rect(4,4,4,4)"/>
				<v:textRect cx="20.25" cy="110.25" width="40.5" height="13.5"/>
				<rect x="0" y="103.5" width="40.5" height="13.5" class="st3"/>
				<text x="7.29" y="114.45" class="st4" v:langID="1033"><v:paragraph v:horizAlign="1"/><v:tabList/>B<tspan
							class="st5" v:langID="1029"> </tspan><tspan class="st7" v:langID="1029">(To)</tspan></text>			</g>
			<g id="shape6-16" v:mID="6" v:groupContext="shape" transform="translate(0,-11.25)">
				<title>Sheet.6</title>
				<desc>DTD A</desc>
				<v:userDefs>
					<v:ud v:nameU="visNavOrder" v:val="VT0(97000):26"/>
				</v:userDefs>
				<v:textBlock v:margins="rect(4,4,4,4)"/>
				<v:textRect cx="24.75" cy="110.25" width="49.5" height="13.5"/>
				<rect x="0" y="103.5" width="49.5" height="13.5" class="st3"/>
				<text x="11.59" y="114.45" class="st8" v:langID="1033"><v:paragraph v:horizAlign="1"/><v:tabList/>DTD <tspan
							class="st9">A</tspan></text>			</g>
			<g id="shape7-20" v:mID="7" v:groupContext="shape" transform="translate(423,-11.25)">
				<title>Sheet.7</title>
				<desc>DTD B</desc>
				<v:userDefs>
					<v:ud v:nameU="visNavOrder" v:val="VT0(98000):26"/>
				</v:userDefs>
				<v:textBlock v:margins="rect(4,4,4,4)"/>
				<v:textRect cx="24.75" cy="110.25" width="49.5" height="13.5"/>
				<rect x="0" y="103.5" width="49.5" height="13.5" class="st3"/>
				<text x="11.91" y="114.45" class="st8" v:langID="1033"><v:paragraph v:horizAlign="1"/><v:tabList/>DTD <tspan
							class="st9">B</tspan></text>			</g>
			<g id="shape8-24" v:mID="8" v:groupContext="shape" v:layerMember="0" transform="translate(391.5,2.84217E-14)">
				<title>Process.1605</title>
				<v:custProps>
					<v:cp v:nameU="Cost" v:lbl="Cost" v:type="7" v:format="@" v:langID="1033"/>
					<v:cp v:nameU="Duration" v:lbl="Duration" v:type="2" v:langID="1033"/>
					<v:cp v:nameU="Resources" v:lbl="Resources" v:langID="1033"/>
				</v:custProps>
				<v:userDefs>
					<v:ud v:nameU="visVersion" v:val="VT0(12):26"/>
					<v:ud v:nameU="visNavOrder" v:val="VT0(94000):26"/>
				</v:userDefs>
				<rect x="0" y="108" width="49.5" height="9" class="st10"/>
			</g>
			<g id="group9-26" transform="translate(232.5,-21.375)" v:mID="9" v:groupContext="group">
				<v:userDefs>
					<v:ud v:nameU="visNavOrder" v:val="VT0(99000):26"/>
				</v:userDefs>
				<title>Sheet.9</title>
				<g id="shape10-27" v:mID="10" v:groupContext="shape">
					<title>Sheet.10</title>
					<path d="M3.75 117 C3.13 117 2.59 116.78 2.16 116.34 C1.72 115.91 1.5 115.38 1.5 114.75 L0 114.75 L0 106.5 C0
								 106.09 0.15 105.73 0.44 105.44 C0.73 105.15 1.09 105 1.5 105 L12 105 L12 108 L14.25 108 L16.5 111
								 L16.5 114.75 L15 114.75 C15 115.38 14.78 115.91 14.34 116.34 C13.91 116.78 13.38 117 12.75 117 C12.13
								 117 11.59 116.78 11.16 116.34 C10.72 115.91 10.5 115.38 10.5 114.75 L6 114.75 C6 115.38 5.78 115.91
								 5.34 116.34 C4.91 116.78 4.38 117 3.75 117 ZM3.75 115.5 C3.96 115.5 4.14 115.43 4.28 115.28 C4.43
								 115.14 4.5 114.96 4.5 114.75 C4.5 114.54 4.43 114.36 4.28 114.22 C4.14 114.07 3.96 114 3.75 114
								 C3.54 114 3.36 114.07 3.22 114.22 C3.07 114.36 3 114.54 3 114.75 C3 114.96 3.07 115.14 3.22 115.28
								 C3.36 115.43 3.54 115.5 3.75 115.5 ZM1.5 113.25 L2.1 113.25 C2.31 113.03 2.56 112.84 2.83 112.71
								 C3.11 112.57 3.41 112.5 3.75 112.5 C4.09 112.5 4.39 112.57 4.67 112.71 C4.94 112.84 5.19 113.03
								 5.4 113.25 L10.5 113.25 L10.5 106.5 L1.5 106.5 L1.5 113.25 ZM12.75 115.5 C12.96 115.5 13.14 115.43
								 13.28 115.28 C13.43 115.14 13.5 114.96 13.5 114.75 C13.5 114.54 13.43 114.36 13.28 114.22 C13.14
								 114.07 12.96 114 12.75 114 C12.54 114 12.36 114.07 12.22 114.22 C12.07 114.36 12 114.54 12 114.75
								 C12 114.96 12.07 115.14 12.22 115.28 C12.36 115.43 12.54 115.5 12.75 115.5 ZM12 111.75 L15.19 111.75
								 L13.5 109.5 L12 109.5 L12 111.75 Z" class="st11"/>
				</g>
			</g>
			<g id="group11-29" transform="translate(54,-22.125)" v:mID="11" v:groupContext="group">
				<v:userDefs>
					<v:ud v:nameU="visNavOrder" v:val="VT0(100000):26"/>
				</v:userDefs>
				<title>Sheet.11</title>
				<g id="shape12-30" v:mID="12" v:groupContext="shape">
					<title>Sheet.12</title>
					<path d="M3.75 117 C3.13 117 2.59 116.78 2.16 116.34 C1.72 115.91 1.5 115.38 1.5 114.75 L0 114.75 L0 106.5 C0
								 106.09 0.15 105.73 0.44 105.44 C0.73 105.15 1.09 105 1.5 105 L12 105 L12 108 L14.25 108 L16.5 111
								 L16.5 114.75 L15 114.75 C15 115.38 14.78 115.91 14.34 116.34 C13.91 116.78 13.38 117 12.75 117 C12.13
								 117 11.59 116.78 11.16 116.34 C10.72 115.91 10.5 115.38 10.5 114.75 L6 114.75 C6 115.38 5.78 115.91
								 5.34 116.34 C4.91 116.78 4.38 117 3.75 117 ZM3.75 115.5 C3.96 115.5 4.14 115.43 4.28 115.28 C4.43
								 115.14 4.5 114.96 4.5 114.75 C4.5 114.54 4.43 114.36 4.28 114.22 C4.14 114.07 3.96 114 3.75 114
								 C3.54 114 3.36 114.07 3.22 114.22 C3.07 114.36 3 114.54 3 114.75 C3 114.96 3.07 115.14 3.22 115.28
								 C3.36 115.43 3.54 115.5 3.75 115.5 ZM1.5 113.25 L2.1 113.25 C2.31 113.03 2.56 112.84 2.83 112.71
								 C3.11 112.57 3.41 112.5 3.75 112.5 C4.09 112.5 4.39 112.57 4.67 112.71 C4.94 112.84 5.19 113.03
								 5.4 113.25 L10.5 113.25 L10.5 106.5 L1.5 106.5 L1.5 113.25 ZM12.75 115.5 C12.96 115.5 13.14 115.43
								 13.28 115.28 C13.43 115.14 13.5 114.96 13.5 114.75 C13.5 114.54 13.43 114.36 13.28 114.22 C13.14
								 114.07 12.96 114 12.75 114 C12.54 114 12.36 114.07 12.22 114.22 C12.07 114.36 12 114.54 12 114.75
								 C12 114.96 12.07 115.14 12.22 115.28 C12.36 115.43 12.54 115.5 12.75 115.5 ZM12 111.75 L15.19 111.75
								 L13.5 109.5 L12 109.5 L12 111.75 Z" class="st11"/>
				</g>
			</g>
			<g id="group13-32" transform="translate(410.25,-21.375)" v:mID="13" v:groupContext="group">
				<v:userDefs>
					<v:ud v:nameU="visNavOrder" v:val="VT0(101000):26"/>
				</v:userDefs>
				<title>Sheet.13</title>
				<g id="shape14-33" v:mID="14" v:groupContext="shape">
					<title>Sheet.14</title>
					<path d="M3.75 117 C3.13 117 2.59 116.78 2.16 116.34 C1.72 115.91 1.5 115.38 1.5 114.75 L0 114.75 L0 106.5 C0
								 106.09 0.15 105.73 0.44 105.44 C0.73 105.15 1.09 105 1.5 105 L12 105 L12 108 L14.25 108 L16.5 111
								 L16.5 114.75 L15 114.75 C15 115.38 14.78 115.91 14.34 116.34 C13.91 116.78 13.38 117 12.75 117 C12.13
								 117 11.59 116.78 11.16 116.34 C10.72 115.91 10.5 115.38 10.5 114.75 L6 114.75 C6 115.38 5.78 115.91
								 5.34 116.34 C4.91 116.78 4.38 117 3.75 117 ZM3.75 115.5 C3.96 115.5 4.14 115.43 4.28 115.28 C4.43
								 115.14 4.5 114.96 4.5 114.75 C4.5 114.54 4.43 114.36 4.28 114.22 C4.14 114.07 3.96 114 3.75 114
								 C3.54 114 3.36 114.07 3.22 114.22 C3.07 114.36 3 114.54 3 114.75 C3 114.96 3.07 115.14 3.22 115.28
								 C3.36 115.43 3.54 115.5 3.75 115.5 ZM1.5 113.25 L2.1 113.25 C2.31 113.03 2.56 112.84 2.83 112.71
								 C3.11 112.57 3.41 112.5 3.75 112.5 C4.09 112.5 4.39 112.57 4.67 112.71 C4.94 112.84 5.19 113.03
								 5.4 113.25 L10.5 113.25 L10.5 106.5 L1.5 106.5 L1.5 113.25 ZM12.75 115.5 C12.96 115.5 13.14 115.43
								 13.28 115.28 C13.43 115.14 13.5 114.96 13.5 114.75 C13.5 114.54 13.43 114.36 13.28 114.22 C13.14
								 114.07 12.96 114 12.75 114 C12.54 114 12.36 114.07 12.22 114.22 C12.07 114.36 12 114.54 12 114.75
								 C12 114.96 12.07 115.14 12.22 115.28 C12.36 115.43 12.54 115.5 12.75 115.5 ZM12 111.75 L15.19 111.75
								 L13.5 109.5 L12 109.5 L12 111.75 Z" class="st11"/>
				</g>
			</g>
		</g>
		<g id="shape31-35" v:mID="31" v:groupContext="shape" v:layerMember="0" transform="translate(408.023,-37.6875)">
			<title>Process.1626</title>
			<v:custProps>
				<v:cp v:nameU="Cost" v:lbl="Cost" v:type="7" v:format="@" v:langID="1033"/>
				<v:cp v:nameU="Duration" v:lbl="Duration" v:type="2" v:langID="1033"/>
				<v:cp v:nameU="Resources" v:lbl="Resources" v:langID="1033"/>
			</v:custProps>
			<v:userDefs>
				<v:ud v:nameU="visVersion" v:val="VT0(12):26"/>
				<v:ud v:nameU="visNavOrder" v:val="VT0(12000):26"/>
			</v:userDefs>
			<rect x="0" y="108" width="24.7725" height="9" class="st12"/>
		</g>
		<g id="shape32-37" v:mID="32" v:groupContext="shape" v:layerMember="0" transform="translate(102.023,-37.875)">
			<title>Process.1613</title>
			<v:custProps>
				<v:cp v:nameU="Cost" v:lbl="Cost" v:type="7" v:format="@" v:langID="1033"/>
				<v:cp v:nameU="Duration" v:lbl="Duration" v:type="2" v:langID="1033"/>
				<v:cp v:nameU="Resources" v:lbl="Resources" v:langID="1033"/>
			</v:custProps>
			<v:userDefs>
				<v:ud v:nameU="visVersion" v:val="VT0(12):26"/>
				<v:ud v:nameU="visNavOrder" v:val="VT0(2000):26"/>
			</v:userDefs>
			<rect x="0" y="108" width="306" height="9" class="st2"/>
		</g>
		<g id="shape33-39" v:mID="33" v:groupContext="shape" v:layerMember="0" transform="translate(77.251,-37.875)">
			<title>Process.1625</title>
			<v:custProps>
				<v:cp v:nameU="Cost" v:lbl="Cost" v:type="7" v:format="@" v:langID="1033"/>
				<v:cp v:nameU="Duration" v:lbl="Duration" v:type="2" v:langID="1033"/>
				<v:cp v:nameU="Resources" v:lbl="Resources" v:langID="1033"/>
			</v:custProps>
			<v:userDefs>
				<v:ud v:nameU="visVersion" v:val="VT0(12):26"/>
				<v:ud v:nameU="visNavOrder" v:val="VT0(11000):26"/>
			</v:userDefs>
			<rect x="0" y="108" width="24.7725" height="9" class="st12"/>
		</g>
		<g id="shape34-41" v:mID="34" v:groupContext="shape" transform="translate(90.7735,-50.3906)">
			<title>Sheet.34</title>
			<desc>A (From)</desc>
			<v:userDefs>
				<v:ud v:nameU="visNavOrder" v:val="VT0(5000):26"/>
			</v:userDefs>
			<v:textBlock v:margins="rect(4,4,4,4)"/>
			<v:textRect cx="24.75" cy="111.516" width="49.5" height="10.9688"/>
			<rect x="0" y="106.031" width="49.5" height="10.9688" class="st3"/>
			<text x="4.98" y="115.72" class="st4" v:langID="1033"><v:paragraph v:horizAlign="1"/><v:tabList/>A<tspan class="st5"
						v:langID="1029"> </tspan><tspan class="st6" v:langID="1029">(From)</tspan></text>		</g>
		<g id="shape35-46" v:mID="35" v:groupContext="shape" transform="translate(383.273,-49.125)">
			<title>Sheet.35</title>
			<desc>B (To)</desc>
			<v:userDefs>
				<v:ud v:nameU="visNavOrder" v:val="VT0(6000):26"/>
			</v:userDefs>
			<v:textBlock v:margins="rect(4,4,4,4)"/>
			<v:textRect cx="20.25" cy="110.25" width="40.5" height="13.5"/>
			<rect x="0" y="103.5" width="40.5" height="13.5" class="st3"/>
			<text x="7.29" y="114.45" class="st4" v:langID="1033"><v:paragraph v:horizAlign="1"/><v:tabList/>B<tspan class="st5"
						v:langID="1029"> </tspan><tspan class="st7" v:langID="1029">(To)</tspan></text>		</g>
		<g id="shape36-51" v:mID="36" v:groupContext="shape" transform="translate(-9.35155,-49.125)">
			<title>Sheet.36</title>
			<desc>DTD A</desc>
			<v:userDefs>
				<v:ud v:nameU="visNavOrder" v:val="VT0(7000):26"/>
			</v:userDefs>
			<v:textBlock v:margins="rect(4,4,4,4)"/>
			<v:textRect cx="24.75" cy="110.25" width="49.5" height="13.5"/>
			<rect x="0" y="103.5" width="49.5" height="13.5" class="st3"/>
			<text x="11.59" y="114.45" class="st8" v:langID="1033"><v:paragraph v:horizAlign="1"/><v:tabList/>DTD <tspan
						class="st9">A</tspan></text>		</g>
		<g id="shape37-55" v:mID="37" v:groupContext="shape" transform="translate(464.273,-49.125)">
			<title>Sheet.37</title>
			<desc>DTD B</desc>
			<v:userDefs>
				<v:ud v:nameU="visNavOrder" v:val="VT0(8000):26"/>
			</v:userDefs>
			<v:textBlock v:margins="rect(4,4,4,4)"/>
			<v:textRect cx="24.75" cy="110.25" width="49.5" height="13.5"/>
			<rect x="0" y="103.5" width="49.5" height="13.5" class="st3"/>
			<text x="11.91" y="114.45" class="st8" v:langID="1033"><v:paragraph v:horizAlign="1"/><v:tabList/>DTD <tspan
						class="st9">B</tspan></text>		</g>
		<g id="group38-59" transform="translate(44.6485,-60)" v:mID="38" v:groupContext="group">
			<v:userDefs>
				<v:ud v:nameU="visNavOrder" v:val="VT0(9000):26"/>
			</v:userDefs>
			<title>Sheet.38</title>
			<g id="shape39-60" v:mID="39" v:groupContext="shape">
				<title>Sheet.39</title>
				<path d="M3.75 117 C3.13 117 2.59 116.78 2.16 116.34 C1.72 115.91 1.5 115.38 1.5 114.75 L0 114.75 L0 106.5 C0 106.09
							 0.15 105.73 0.44 105.44 C0.73 105.15 1.09 105 1.5 105 L12 105 L12 108 L14.25 108 L16.5 111 L16.5 114.75
							 L15 114.75 C15 115.38 14.78 115.91 14.34 116.34 C13.91 116.78 13.38 117 12.75 117 C12.13 117 11.59 116.78
							 11.16 116.34 C10.72 115.91 10.5 115.38 10.5 114.75 L6 114.75 C6 115.38 5.78 115.91 5.34 116.34 C4.91
							 116.78 4.38 117 3.75 117 ZM3.75 115.5 C3.96 115.5 4.14 115.43 4.28 115.28 C4.43 115.14 4.5 114.96 4.5
							 114.75 C4.5 114.54 4.43 114.36 4.28 114.22 C4.14 114.07 3.96 114 3.75 114 C3.54 114 3.36 114.07 3.22
							 114.22 C3.07 114.36 3 114.54 3 114.75 C3 114.96 3.07 115.14 3.22 115.28 C3.36 115.43 3.54 115.5 3.75
							 115.5 ZM1.5 113.25 L2.1 113.25 C2.31 113.03 2.56 112.84 2.83 112.71 C3.11 112.57 3.41 112.5 3.75 112.5
							 C4.09 112.5 4.39 112.57 4.67 112.71 C4.94 112.84 5.19 113.03 5.4 113.25 L10.5 113.25 L10.5 106.5 L1.5
							 106.5 L1.5 113.25 ZM12.75 115.5 C12.96 115.5 13.14 115.43 13.28 115.28 C13.43 115.14 13.5 114.96 13.5
							 114.75 C13.5 114.54 13.43 114.36 13.28 114.22 C13.14 114.07 12.96 114 12.75 114 C12.54 114 12.36 114.07
							 12.22 114.22 C12.07 114.36 12 114.54 12 114.75 C12 114.96 12.07 115.14 12.22 115.28 C12.36 115.43 12.54
							 115.5 12.75 115.5 ZM12 111.75 L15.19 111.75 L13.5 109.5 L12 109.5 L12 111.75 Z" class="st11"/>
			</g>
		</g>
		<g id="group40-62" transform="translate(451.523,-59.25)" v:mID="40" v:groupContext="group">
			<v:userDefs>
				<v:ud v:nameU="visNavOrder" v:val="VT0(10000):26"/>
			</v:userDefs>
			<title>Sheet.40</title>
			<g id="shape41-63" v:mID="41" v:groupContext="shape">
				<title>Sheet.41</title>
				<path d="M3.75 117 C3.13 117 2.59 116.78 2.16 116.34 C1.72 115.91 1.5 115.38 1.5 114.75 L0 114.75 L0 106.5 C0 106.09
							 0.15 105.73 0.44 105.44 C0.73 105.15 1.09 105 1.5 105 L12 105 L12 108 L14.25 108 L16.5 111 L16.5 114.75
							 L15 114.75 C15 115.38 14.78 115.91 14.34 116.34 C13.91 116.78 13.38 117 12.75 117 C12.13 117 11.59 116.78
							 11.16 116.34 C10.72 115.91 10.5 115.38 10.5 114.75 L6 114.75 C6 115.38 5.78 115.91 5.34 116.34 C4.91
							 116.78 4.38 117 3.75 117 ZM3.75 115.5 C3.96 115.5 4.14 115.43 4.28 115.28 C4.43 115.14 4.5 114.96 4.5
							 114.75 C4.5 114.54 4.43 114.36 4.28 114.22 C4.14 114.07 3.96 114 3.75 114 C3.54 114 3.36 114.07 3.22
							 114.22 C3.07 114.36 3 114.54 3 114.75 C3 114.96 3.07 115.14 3.22 115.28 C3.36 115.43 3.54 115.5 3.75
							 115.5 ZM1.5 113.25 L2.1 113.25 C2.31 113.03 2.56 112.84 2.83 112.71 C3.11 112.57 3.41 112.5 3.75 112.5
							 C4.09 112.5 4.39 112.57 4.67 112.71 C4.94 112.84 5.19 113.03 5.4 113.25 L10.5 113.25 L10.5 106.5 L1.5
							 106.5 L1.5 113.25 ZM12.75 115.5 C12.96 115.5 13.14 115.43 13.28 115.28 C13.43 115.14 13.5 114.96 13.5
							 114.75 C13.5 114.54 13.43 114.36 13.28 114.22 C13.14 114.07 12.96 114 12.75 114 C12.54 114 12.36 114.07
							 12.22 114.22 C12.07 114.36 12 114.54 12 114.75 C12 114.96 12.07 115.14 12.22 115.28 C12.36 115.43 12.54
							 115.5 12.75 115.5 ZM12 111.75 L15.19 111.75 L13.5 109.5 L12 109.5 L12 111.75 Z" class="st11"/>
			</g>
		</g>
		<g id="group42-65" transform="translate(254.648,-54.1875)" v:mID="42" v:groupContext="group">
			<v:userDefs>
				<v:ud v:nameU="visNavOrder" v:val="VT0(13000):26"/>
			</v:userDefs>
			<title>Sheet.42</title>
			<g id="shape43-66" v:mID="43" v:groupContext="shape">
				<title>Sheet.43</title>
				<path d="M0 112.88 L0 105.75 C0 105.09 0.17 104.56 0.52 104.17 C0.86 103.77 1.31 103.47 1.88 103.27 C2.44 103.06
							 3.08 102.92 3.8 102.85 C4.52 102.78 5.25 102.75 6 102.75 C6.83 102.75 7.6 102.78 8.33 102.85 C9.07 102.92
							 9.7 103.06 10.25 103.27 C10.79 103.47 11.22 103.77 11.53 104.17 C11.84 104.56 12 105.09 12 105.75 L12
							 112.88 C12 113.61 11.75 114.23 11.24 114.74 C10.73 115.25 10.11 115.5 9.38 115.5 L10.5 116.63 L10.5
							 117 L9 117 L7.5 115.5 L4.5 115.5 L3 117 L1.5 117 L1.5 116.63 L2.63 115.5 C1.89 115.5 1.27 115.25 0.76
							 114.74 C0.25 114.23 0 113.61 0 112.88 ZM6 104.25 C4.68 104.25 3.71 104.33 3.09 104.48 C2.48 104.64 2.06
							 104.81 1.84 105 L10.24 105 C10.05 104.79 9.65 104.61 9.03 104.47 C8.41 104.32 7.4 104.25 6 104.25 ZM1.5
							 108.75 L5.25 108.75 L5.25 106.5 L1.5 106.5 L1.5 108.75 ZM9.38 110.25 L1.5 110.25 L10.5 110.25 L9.38
							 110.25 ZM6.75 108.75 L10.5 108.75 L10.5 106.5 L6.75 106.5 L6.75 108.75 ZM3.38 113.25 C3.7 113.25 3.97
							 113.14 4.18 112.93 C4.39 112.72 4.5 112.45 4.5 112.13 C4.5 111.8 4.39 111.53 4.18 111.32 C3.97 111.11
							 3.7 111 3.38 111 C3.05 111 2.78 111.11 2.57 111.32 C2.36 111.53 2.25 111.8 2.25 112.13 C2.25 112.45
							 2.36 112.72 2.57 112.93 C2.78 113.14 3.05 113.25 3.38 113.25 ZM8.63 113.25 C8.95 113.25 9.22 113.14
							 9.43 112.93 C9.64 112.72 9.75 112.45 9.75 112.13 C9.75 111.8 9.64 111.53 9.43 111.32 C9.22 111.11 8.95
							 111 8.63 111 C8.3 111 8.03 111.11 7.82 111.32 C7.61 111.53 7.5 111.8 7.5 112.13 C7.5 112.45 7.61 112.72
							 7.82 112.93 C8.03 113.14 8.3 113.25 8.63 113.25 ZM2.63 114 L9.38 114 C9.7 114 9.97 113.89 10.18 113.68
							 C10.39 113.47 10.5 113.2 10.5 112.88 L10.5 110.25 L1.5 110.25 L1.5 112.88 C1.5 113.2 1.61 113.47 1.82
							 113.68 C2.03 113.89 2.3 114 2.63 114 ZM6 105 L10.24 105 L1.84 105 L6 105 Z" class="st11"/>
			</g>
		</g>
		<g id="shape46-68" v:mID="46" v:groupContext="shape" v:layerMember="0" transform="translate(432.773,-37.875)">
			<title>Process.1618</title>
			<v:custProps>
				<v:cp v:nameU="Cost" v:lbl="Cost" v:type="7" v:format="@" v:langID="1033"/>
				<v:cp v:nameU="Duration" v:lbl="Duration" v:type="2" v:langID="1033"/>
				<v:cp v:nameU="Resources" v:lbl="Resources" v:langID="1033"/>
			</v:custProps>
			<v:userDefs>
				<v:ud v:nameU="visVersion" v:val="VT0(12):26"/>
				<v:ud v:nameU="visNavOrder" v:val="VT0(4000):26"/>
			</v:userDefs>
			<rect x="0" y="108" width="49.5" height="9" class="st10"/>
		</g>
		<g id="shape47-70" v:mID="47" v:groupContext="shape" v:layerMember="0" transform="translate(27.7735,-37.875)">
			<title>Process.1612</title>
			<v:custProps>
				<v:cp v:nameU="Cost" v:lbl="Cost" v:type="7" v:format="@" v:langID="1033"/>
				<v:cp v:nameU="Duration" v:lbl="Duration" v:type="2" v:langID="1033"/>
				<v:cp v:nameU="Resources" v:lbl="Resources" v:langID="1033"/>
			</v:custProps>
			<v:userDefs>
				<v:ud v:nameU="visVersion" v:val="VT0(12):26"/>
				<v:ud v:nameU="visNavOrder" v:val="VT0(3000):26"/>
			</v:userDefs>
			<rect x="0" y="108" width="49.5" height="9" class="st1"/>
		</g>
		<g id="group52-72" transform="translate(217.898,-4.5)" v:mID="52" v:groupContext="group" v:layerMember="1">
			<v:custProps>
				<v:cp v:nameU="BpmnId" v:lbl="Id" v:prompt="" v:type="0" v:format="" v:sortKey="" v:invis="true" v:ask="false"
						v:langID="1033" v:cal="0" v:val="VT4()"/>
				<v:cp v:nameU="BpmnCategories" v:lbl="Categories" v:prompt="" v:type="0" v:format="" v:sortKey="" v:invis="false"
						v:ask="false" v:langID="1033" v:cal="0" v:val="VT4()"/>
				<v:cp v:nameU="BpmnDocumentation" v:lbl="Documentation" v:prompt="" v:type="0" v:format="" v:sortKey=""
						v:invis="false" v:ask="false" v:langID="1033" v:cal="0" v:val="VT4()"/>
				<v:cp v:nameU="BpmnArtifactType" v:lbl="ArtifactType" v:prompt="" v:type="1" v:format="DataObject;Group;Annotation"
						v:sortKey="" v:invis="true" v:ask="false" v:langID="1033" v:cal="0" v:val="VT4(Annotation)"/>
				<v:cp v:nameU="BpmnName" v:lbl="Name" v:prompt="" v:type="0" v:format="" v:sortKey="" v:invis="true" v:ask="false"
						v:langID="1033" v:cal="0" v:val="VT4(Text)"/>
				<v:cp v:nameU="BpmnState" v:lbl="State" v:prompt="" v:type="0" v:format="" v:sortKey="" v:invis="true"
						v:ask="false" v:langID="1033" v:cal="0" v:val="VT4()"/>
				<v:cp v:nameU="BpmnProperties" v:lbl="Properties" v:prompt="" v:type="1" v:format="Shown;Hidden" v:sortKey=""
						v:invis="true" v:ask="false" v:langID="1033" v:cal="0" v:val="VT4(Hidden)"/>
				<v:cp v:nameU="BpmnProperties_Name" v:lbl="    Name" v:prompt="" v:type="0" v:format="" v:sortKey="" v:invis="true"
						v:ask="false" v:langID="1033" v:cal="0" v:val="VT4()"/>
				<v:cp v:nameU="BpmnProperties_Type" v:lbl="    Type" v:prompt="" v:type="0" v:format="" v:sortKey="" v:invis="true"
						v:ask="false" v:langID="1033" v:cal="0" v:val="VT4()"/>
				<v:cp v:nameU="BpmnProperties_Value" v:lbl="    Value" v:prompt="" v:type="1" v:format="Shown;Hidden" v:sortKey=""
						v:invis="true" v:ask="false" v:langID="1033" v:cal="0" v:val="VT4(Shown)"/>
				<v:cp v:nameU="BpmnProperties_Value_ExpressionBody" v:lbl="        ExpressionBody" v:prompt="" v:type="0"
						v:format="" v:sortKey="" v:invis="true" v:ask="false" v:langID="1033" v:cal="0" v:val="VT4()"/>
				<v:cp v:nameU="BpmnProperties_Value_ExpressionLanguage" v:lbl="        ExpressionLanguage" v:prompt="" v:type="0"
						v:format="" v:sortKey="" v:invis="true" v:ask="false" v:langID="1033" v:cal="0" v:val="VT4()"/>
				<v:cp v:nameU="BpmnProperties_Correlation" v:lbl="    Correlation" v:prompt="" v:type="3" v:format="" v:sortKey=""
						v:invis="true" v:ask="false" v:langID="1033" v:cal="0" v:val="VT0(0):5"/>
				<v:cp v:nameU="BpmnText" v:lbl="Text" v:prompt="" v:type="0" v:format="" v:sortKey="" v:invis="true" v:ask="false"
						v:langID="1033" v:cal="0" v:val="VT4(Text)"/>
				<v:cp v:nameU="BpmnCategoryRef" v:lbl="CategoryRef" v:prompt="" v:type="0" v:format="" v:sortKey="" v:invis="true"
						v:ask="false" v:langID="1033" v:cal="0" v:val="VT4(Text)"/>
				<v:cp v:nameU="BpmnElementType" v:lbl="ElementType" v:prompt="" v:type="1"
						v:format="Sub-Process;Event;Gateway;Process Diagram;Pool;Lane;Artifact;Connecting Object" v:sortKey=""
						v:invis="true" v:ask="false" v:langID="1033" v:cal="0" v:val="VT4(Artifact)"/>
				<v:cp v:nameU="BpmnName" v:lbl="" v:prompt="" v:type="0" v:format="" v:sortKey="" v:invis="false" v:ask="false"
						v:langID="0" v:cal="0" v:val="VT4(Shipment transfer)"/>
				<v:cp v:nameU="BpmnText" v:lbl="" v:prompt="" v:type="0" v:format="" v:sortKey="" v:invis="false" v:ask="false"
						v:langID="0" v:cal="0" v:val="VT4(Shipment transfer)"/>
				<v:cp v:nameU="BpmnCategoryRef" v:lbl="" v:prompt="" v:type="0" v:format="" v:sortKey="" v:invis="false"
						v:ask="false" v:langID="0" v:cal="0" v:val="VT4(Shipment transfer)"/>
			</v:custProps>
			<v:userDefs>
				<v:ud v:nameU="visVersion" v:prompt="" v:val="VT0(15):26"/>
				<v:ud v:nameU="msvStructureType" v:prompt="" v:val="VT4(Callout)"/>
				<v:ud v:nameU="msvSDTargetIntersection" v:prompt=""/>
				<v:ud v:nameU="msvSDCalloutNoHighlight" v:prompt="" v:val="VT0(0):5"/>
				<v:ud v:nameU="msvSDCalloutStyle" v:prompt="" v:val="VT0(8):26"/>
				<v:ud v:nameU="msvSDCalloutStyleCount" v:prompt="" v:val="VT0(20):26"/>
				<v:ud v:nameU="msvShapeCategories" v:prompt="" v:val="VT4(Text Annotation)"/>
				<v:ud v:nameU="Orientation" v:prompt="" v:val="VT0(0):26"/>
				<v:ud v:nameU="HideLeader" v:prompt="" v:val="VT0(0):5"/>
				<v:ud v:nameU="AttachToSide" v:prompt="" v:val="VT0(1):5"/>
				<v:ud v:nameU="ResizeWithText" v:prompt="" v:val="VT0(1):5"/>
				<v:ud v:nameU="Side" v:prompt="" v:val="VT0(3):26"/>
				<v:ud v:nameU="LeaderBegin" v:prompt="" v:val="VT4(Unused)"/>
				<v:ud v:nameU="LeaderEnd" v:prompt="" v:val="VT7(PNT(-0.375IN,-0.16IN)):40"/>
				<v:ud v:nameU="WHBoxIntersection" v:prompt="" v:val="VT7(PNT(0,0.15625)):40"/>
				<v:ud v:nameU="IsEndInterior" v:prompt="" v:val="VT0(0):5"/>
				<v:ud v:nameU="Extension" v:prompt="" v:val="VT0(0.0625):0"/>
				<v:ud v:nameU="Inset" v:prompt="" v:val="VT0(0.0625):0"/>
				<v:ud v:nameU="SideMidpoint" v:prompt="" v:val="VT7(PNT(0,0.15625)):40"/>
				<v:ud v:nameU="fnMidpointOffset" v:prompt="" v:val="VT7(PNT(0,0.15625)):40"/>
				<v:ud v:nameU="msvSDTargetIntersection" v:prompt="" v:val="VT7(PNT(-1.6093747363985,0.50114158149512)):40"/>
				<v:ud v:nameU="LeaderEnd" v:prompt="" v:val="VT7(PNT(-1.6093747363985,0.50114158149512)):40"/>
				<v:ud v:nameU="fnMidpointOffset" v:prompt="" v:val="VT7(PNT(0,0.15625)):40"/>
				<v:ud v:nameU="visNavOrder" v:val="VT0(14000):26"/>
			</v:userDefs>
			<title>Text Annotation</title>
			<desc>Shipment transfer</desc>
			<g id="shape53-73" v:mID="53" v:groupContext="shape" v:layerMember="1" transform="translate(0,-11.25)">
				<title>Sheet.53</title>
				<v:custProps>
					<v:cp v:nameU="BpmnId" v:lbl="Id" v:prompt="" v:type="0" v:format="" v:sortKey="" v:invis="true" v:ask="false"
							v:langID="1033" v:cal="0" v:val="VT4()"/>
					<v:cp v:nameU="BpmnCategories" v:lbl="Categories" v:prompt="" v:type="0" v:format="" v:sortKey=""
							v:invis="false" v:ask="false" v:langID="1033" v:cal="0" v:val="VT4()"/>
					<v:cp v:nameU="BpmnDocumentation" v:lbl="Documentation" v:prompt="" v:type="0" v:format="" v:sortKey=""
							v:invis="false" v:ask="false" v:langID="1033" v:cal="0" v:val="VT4()"/>
					<v:cp v:nameU="BpmnName" v:lbl="Name" v:prompt="" v:type="0" v:format="" v:sortKey="" v:invis="true"
							v:ask="false" v:langID="1033" v:cal="0" v:val="VT4()"/>
					<v:cp v:nameU="BpmnConnectingObjectType" v:lbl="ConnectingObjectType" v:prompt="" v:type="1"
							v:format="Sequence Flow;Message Flow;Association" v:sortKey="" v:invis="false" v:ask="false"
							v:langID="1033" v:cal="0" v:val="VT4(Association)"/>
					<v:cp v:nameU="BpmnConditionType" v:lbl="ConditionType" v:prompt="" v:type="1"
							v:format="None;Expression;Default" v:sortKey="" v:invis="true" v:ask="false" v:langID="1033" v:cal="0"
							v:val="VT4(None)"/>
					<v:cp v:nameU="BpmnConditionExpression" v:lbl="ConditionExpression" v:prompt="" v:type="1"
							v:format="Shown;Hidden" v:sortKey="" v:invis="true" v:ask="false" v:langID="1033" v:cal="0"
							v:val="VT4(Hidden)"/>
					<v:cp v:nameU="BpmnConditionExpression_ExpressionBody" v:lbl="    ExpressionBody" v:prompt="" v:type="0"
							v:format="" v:sortKey="" v:invis="true" v:ask="false" v:langID="1033" v:cal="0" v:val="VT4()"/>
					<v:cp v:nameU="BpmnConditionExpression_ExpressionLanguage" v:lbl="    ExpressionLanguage" v:prompt=""
							v:type="0" v:format="" v:sortKey="" v:invis="true" v:ask="false" v:langID="1033" v:cal="0"
							v:val="VT4()"/>
					<v:cp v:nameU="BpmnMessageRef" v:lbl="MessageRef" v:prompt="" v:type="1" v:format="Shown;Hidden" v:sortKey=""
							v:invis="true" v:ask="false" v:langID="1033" v:cal="0" v:val="VT4(Hidden)"/>
					<v:cp v:nameU="BpmnMessageRef_Name" v:lbl="    Name" v:prompt="" v:type="0" v:format="" v:sortKey=""
							v:invis="true" v:ask="false" v:langID="1033" v:cal="0" v:val="VT4()"/>
					<v:cp v:nameU="BpmnMessageRef_Properties" v:lbl="    Properties" v:prompt="" v:type="1" v:format="Shown;Hidden"
							v:sortKey="" v:invis="true" v:ask="false" v:langID="1033" v:cal="0" v:val="VT4(Shown)"/>
					<v:cp v:nameU="BpmnMessageRef_Properties_Name" v:lbl="        Name" v:prompt="" v:type="0" v:format=""
							v:sortKey="" v:invis="true" v:ask="false" v:langID="1033" v:cal="0" v:val="VT4()"/>
					<v:cp v:nameU="BpmnMessageRef_Properties_Type" v:lbl="        Type" v:prompt="" v:type="0" v:format=""
							v:sortKey="" v:invis="true" v:ask="false" v:langID="1033" v:cal="0" v:val="VT4()"/>
					<v:cp v:nameU="BpmnMessageRef_Properties_Value" v:lbl="        Value" v:prompt="" v:type="1"
							v:format="Shown;Hidden" v:sortKey="" v:invis="true" v:ask="false" v:langID="1033" v:cal="0"
							v:val="VT4(Shown)"/>
					<v:cp v:nameU="BpmnMessageRef_Properties_Value_ExpressionBody" v:lbl="            ExpressionBody" v:prompt=""
							v:type="0" v:format="" v:sortKey="" v:invis="true" v:ask="false" v:langID="1033" v:cal="0"
							v:val="VT4()"/>
					<v:cp v:nameU="BpmnMessageRef_Properties_Value_ExpressionLanguage" v:lbl="            ExpressionLanguage"
							v:prompt="" v:type="0" v:format="" v:sortKey="" v:invis="true" v:ask="false" v:langID="1033" v:cal="0"
							v:val="VT4()"/>
					<v:cp v:nameU="BpmnMessageRef_Properties_Correlation" v:lbl="        Correlation" v:prompt="" v:type="3"
							v:format="" v:sortKey="" v:invis="true" v:ask="false" v:langID="1033" v:cal="0" v:val="VT0(0):5"/>
					<v:cp v:nameU="BpmnMessageRef_FromRef" v:lbl="    FromRef" v:prompt="" v:type="1" v:format="Shown;Hidden"
							v:sortKey="" v:invis="true" v:ask="false" v:langID="1033" v:cal="0" v:val="VT4(Shown)"/>
					<v:cp v:nameU="BpmnMessageRef_FromRef_ParticipantType" v:lbl="        ParticipantType" v:prompt="" v:type="1"
							v:format="Role;Entity" v:sortKey="" v:invis="true" v:ask="false" v:langID="1033" v:cal="0"
							v:val="VT4(Role)"/>
					<v:cp v:nameU="BpmnMessageRef_FromRef_RoleRef" v:lbl="        RoleRef" v:prompt="" v:type="0" v:format=""
							v:sortKey="" v:invis="true" v:ask="false" v:langID="1033" v:cal="0" v:val="VT4()"/>
					<v:cp v:nameU="BpmnMessageRef_FromRef_EntityRef" v:lbl="        EntityRef" v:prompt="" v:type="0" v:format=""
							v:sortKey="" v:invis="true" v:ask="false" v:langID="1033" v:cal="0" v:val="VT4()"/>
					<v:cp v:nameU="BpmnMessageRef_ToRef" v:lbl="    ToRef" v:prompt="" v:type="1" v:format="Shown;Hidden"
							v:sortKey="" v:invis="true" v:ask="false" v:langID="1033" v:cal="0" v:val="VT4(Shown)"/>
					<v:cp v:nameU="BpmnMessageRef_ToRef_ParticipantType" v:lbl="        ParticipantType" v:prompt="" v:type="1"
							v:format="Role;Entity" v:sortKey="" v:invis="true" v:ask="false" v:langID="1033" v:cal="0"
							v:val="VT4(Role)"/>
					<v:cp v:nameU="BpmnMessageRef_ToRef_RoleRef" v:lbl="        RoleRef" v:prompt="" v:type="0" v:format=""
							v:sortKey="" v:invis="true" v:ask="false" v:langID="1033" v:cal="0" v:val="VT4()"/>
					<v:cp v:nameU="BpmnMessageRef_ToRef_EntityRef" v:lbl="        EntityRef" v:prompt="" v:type="0" v:format=""
							v:sortKey="" v:invis="true" v:ask="false" v:langID="1033" v:cal="0" v:val="VT4()"/>
					<v:cp v:nameU="BpmnDirection" v:lbl="Direction" v:prompt="" v:type="1" v:format="None;One;Both" v:sortKey=""
							v:invis="false" v:ask="false" v:langID="1033" v:cal="0" v:val="VT4(None)"/>
					<v:cp v:nameU="BpmnElementType" v:lbl="ElementType" v:prompt="" v:type="1"
							v:format="Sub-Process;Event;Gateway;Process Diagram;Pool;Lane;Artifact;Connecting Object" v:sortKey=""
							v:invis="true" v:ask="false" v:langID="1033" v:cal="0" v:val="VT4(Connecting Object)"/>
				</v:custProps>
				<v:userDefs>
					<v:ud v:nameU="msvShapeCategories" v:prompt="" v:val="VT4(Connecting Object)"/>
					<v:ud v:nameU="visVersion" v:prompt="" v:val="VT0(15):26"/>
				</v:userDefs>
				<path d="M0 117 L-115.87 92.17" class="st13"/>
			</g>
			<g id="shape52-76" v:mID="52" v:groupContext="groupContent" v:layerMember="1">
				<v:textBlock v:margins="rect(4,6,4,6)"/>
				<v:textRect cx="55.6875" cy="105.75" width="111.38" height="20.0036"/>
				<path d="M4.5 94.5 L0 94.5 L0 117 L4.5 117" class="st14"/>
				<text x="6" y="108.75" class="st15" v:langID="1029"><v:paragraph/><v:tabList/>Shipment transfer</text>			</g>
		</g>
		<g id="group54-80" transform="translate(232.523,-4.5)" v:mID="54" v:groupContext="group" v:layerMember="1">
			<v:custProps>
				<v:cp v:nameU="BpmnId" v:lbl="Id" v:prompt="" v:type="0" v:format="" v:sortKey="" v:invis="true" v:ask="false"
						v:langID="1033" v:cal="0" v:val="VT4()"/>
				<v:cp v:nameU="BpmnCategories" v:lbl="Categories" v:prompt="" v:type="0" v:format="" v:sortKey="" v:invis="false"
						v:ask="false" v:langID="1033" v:cal="0" v:val="VT4()"/>
				<v:cp v:nameU="BpmnDocumentation" v:lbl="Documentation" v:prompt="" v:type="0" v:format="" v:sortKey=""
						v:invis="false" v:ask="false" v:langID="1033" v:cal="0" v:val="VT4()"/>
				<v:cp v:nameU="BpmnArtifactType" v:lbl="ArtifactType" v:prompt="" v:type="1" v:format="DataObject;Group;Annotation"
						v:sortKey="" v:invis="true" v:ask="false" v:langID="1033" v:cal="0" v:val="VT4(Annotation)"/>
				<v:cp v:nameU="BpmnName" v:lbl="Name" v:prompt="" v:type="0" v:format="" v:sortKey="" v:invis="true" v:ask="false"
						v:langID="1033" v:cal="0" v:val="VT4(Text)"/>
				<v:cp v:nameU="BpmnState" v:lbl="State" v:prompt="" v:type="0" v:format="" v:sortKey="" v:invis="true"
						v:ask="false" v:langID="1033" v:cal="0" v:val="VT4()"/>
				<v:cp v:nameU="BpmnProperties" v:lbl="Properties" v:prompt="" v:type="1" v:format="Shown;Hidden" v:sortKey=""
						v:invis="true" v:ask="false" v:langID="1033" v:cal="0" v:val="VT4(Hidden)"/>
				<v:cp v:nameU="BpmnProperties_Name" v:lbl="    Name" v:prompt="" v:type="0" v:format="" v:sortKey="" v:invis="true"
						v:ask="false" v:langID="1033" v:cal="0" v:val="VT4()"/>
				<v:cp v:nameU="BpmnProperties_Type" v:lbl="    Type" v:prompt="" v:type="0" v:format="" v:sortKey="" v:invis="true"
						v:ask="false" v:langID="1033" v:cal="0" v:val="VT4()"/>
				<v:cp v:nameU="BpmnProperties_Value" v:lbl="    Value" v:prompt="" v:type="1" v:format="Shown;Hidden" v:sortKey=""
						v:invis="true" v:ask="false" v:langID="1033" v:cal="0" v:val="VT4(Shown)"/>
				<v:cp v:nameU="BpmnProperties_Value_ExpressionBody" v:lbl="        ExpressionBody" v:prompt="" v:type="0"
						v:format="" v:sortKey="" v:invis="true" v:ask="false" v:langID="1033" v:cal="0" v:val="VT4()"/>
				<v:cp v:nameU="BpmnProperties_Value_ExpressionLanguage" v:lbl="        ExpressionLanguage" v:prompt="" v:type="0"
						v:format="" v:sortKey="" v:invis="true" v:ask="false" v:langID="1033" v:cal="0" v:val="VT4()"/>
				<v:cp v:nameU="BpmnProperties_Correlation" v:lbl="    Correlation" v:prompt="" v:type="3" v:format="" v:sortKey=""
						v:invis="true" v:ask="false" v:langID="1033" v:cal="0" v:val="VT0(0):5"/>
				<v:cp v:nameU="BpmnText" v:lbl="Text" v:prompt="" v:type="0" v:format="" v:sortKey="" v:invis="true" v:ask="false"
						v:langID="1033" v:cal="0" v:val="VT4(Text)"/>
				<v:cp v:nameU="BpmnCategoryRef" v:lbl="CategoryRef" v:prompt="" v:type="0" v:format="" v:sortKey="" v:invis="true"
						v:ask="false" v:langID="1033" v:cal="0" v:val="VT4(Text)"/>
				<v:cp v:nameU="BpmnElementType" v:lbl="ElementType" v:prompt="" v:type="1"
						v:format="Sub-Process;Event;Gateway;Process Diagram;Pool;Lane;Artifact;Connecting Object" v:sortKey=""
						v:invis="true" v:ask="false" v:langID="1033" v:cal="0" v:val="VT4(Artifact)"/>
				<v:cp v:nameU="BpmnName" v:lbl="" v:prompt="" v:type="0" v:format="" v:sortKey="" v:invis="false" v:ask="false"
						v:langID="0" v:cal="0" v:val="VT4()"/>
				<v:cp v:nameU="BpmnText" v:lbl="" v:prompt="" v:type="0" v:format="" v:sortKey="" v:invis="false" v:ask="false"
						v:langID="0" v:cal="0" v:val="VT4()"/>
				<v:cp v:nameU="BpmnCategoryRef" v:lbl="" v:prompt="" v:type="0" v:format="" v:sortKey="" v:invis="false"
						v:ask="false" v:langID="0" v:cal="0" v:val="VT4()"/>
			</v:custProps>
			<v:userDefs>
				<v:ud v:nameU="visVersion" v:prompt="" v:val="VT0(15):26"/>
				<v:ud v:nameU="msvStructureType" v:prompt="" v:val="VT4(Callout)"/>
				<v:ud v:nameU="msvSDTargetIntersection" v:prompt=""/>
				<v:ud v:nameU="msvSDCalloutNoHighlight" v:prompt="" v:val="VT0(0):5"/>
				<v:ud v:nameU="msvSDCalloutStyle" v:prompt="" v:val="VT0(8):26"/>
				<v:ud v:nameU="msvSDCalloutStyleCount" v:prompt="" v:val="VT0(20):26"/>
				<v:ud v:nameU="msvShapeCategories" v:prompt="" v:val="VT4(Text Annotation)"/>
				<v:ud v:nameU="Orientation" v:prompt="" v:val="VT0(0):26"/>
				<v:ud v:nameU="HideLeader" v:prompt="" v:val="VT0(0):5"/>
				<v:ud v:nameU="AttachToSide" v:prompt="" v:val="VT0(1):5"/>
				<v:ud v:nameU="ResizeWithText" v:prompt="" v:val="VT0(1):5"/>
				<v:ud v:nameU="Side" v:prompt="" v:val="VT0(3):26"/>
				<v:ud v:nameU="LeaderBegin" v:prompt="" v:val="VT4(Unused)"/>
				<v:ud v:nameU="LeaderEnd" v:prompt="" v:val="VT7(PNT(-0.375IN,-0.16IN)):40"/>
				<v:ud v:nameU="WHBoxIntersection" v:prompt="" v:val="VT7(PNT(0,0.15625)):40"/>
				<v:ud v:nameU="IsEndInterior" v:prompt="" v:val="VT0(0):5"/>
				<v:ud v:nameU="Extension" v:prompt="" v:val="VT0(0.0625):0"/>
				<v:ud v:nameU="Inset" v:prompt="" v:val="VT0(0.0625):0"/>
				<v:ud v:nameU="SideMidpoint" v:prompt="" v:val="VT7(PNT(0,0.15625)):40"/>
				<v:ud v:nameU="fnMidpointOffset" v:prompt="" v:val="VT7(PNT(0,0.15625)):40"/>
				<v:ud v:nameU="msvSDTargetIntersection" v:prompt="" v:val="VT7(PNT(2.4375007355586,0.49349375126434)):40"/>
				<v:ud v:nameU="Side" v:prompt="" v:val="VT0(1):26"/>
				<v:ud v:nameU="LeaderEnd" v:prompt="" v:val="VT7(PNT(2.4375007355586,0.49349375126434)):40"/>
				<v:ud v:nameU="WHBoxIntersection" v:prompt="" v:val="VT7(PNT(1,0.15625)):40"/>
				<v:ud v:nameU="SideMidpoint" v:prompt="" v:val="VT7(PNT(1,0.15625)):40"/>
				<v:ud v:nameU="fnMidpointOffset" v:prompt="" v:val="VT7(PNT(1,0.15625)):40"/>
				<v:ud v:nameU="visNavOrder" v:val="VT0(15000):26"/>
			</v:userDefs>
			<title>Text Annotation.54</title>
			<g id="shape55-81" v:mID="55" v:groupContext="shape" v:layerMember="1" transform="translate(72,-11.25)">
				<title>Sheet.55</title>
				<v:custProps>
					<v:cp v:nameU="BpmnId" v:lbl="Id" v:prompt="" v:type="0" v:format="" v:sortKey="" v:invis="true" v:ask="false"
							v:langID="1033" v:cal="0" v:val="VT4()"/>
					<v:cp v:nameU="BpmnCategories" v:lbl="Categories" v:prompt="" v:type="0" v:format="" v:sortKey=""
							v:invis="false" v:ask="false" v:langID="1033" v:cal="0" v:val="VT4()"/>
					<v:cp v:nameU="BpmnDocumentation" v:lbl="Documentation" v:prompt="" v:type="0" v:format="" v:sortKey=""
							v:invis="false" v:ask="false" v:langID="1033" v:cal="0" v:val="VT4()"/>
					<v:cp v:nameU="BpmnName" v:lbl="Name" v:prompt="" v:type="0" v:format="" v:sortKey="" v:invis="true"
							v:ask="false" v:langID="1033" v:cal="0" v:val="VT4()"/>
					<v:cp v:nameU="BpmnConnectingObjectType" v:lbl="ConnectingObjectType" v:prompt="" v:type="1"
							v:format="Sequence Flow;Message Flow;Association" v:sortKey="" v:invis="false" v:ask="false"
							v:langID="1033" v:cal="0" v:val="VT4(Association)"/>
					<v:cp v:nameU="BpmnConditionType" v:lbl="ConditionType" v:prompt="" v:type="1"
							v:format="None;Expression;Default" v:sortKey="" v:invis="true" v:ask="false" v:langID="1033" v:cal="0"
							v:val="VT4(None)"/>
					<v:cp v:nameU="BpmnConditionExpression" v:lbl="ConditionExpression" v:prompt="" v:type="1"
							v:format="Shown;Hidden" v:sortKey="" v:invis="true" v:ask="false" v:langID="1033" v:cal="0"
							v:val="VT4(Hidden)"/>
					<v:cp v:nameU="BpmnConditionExpression_ExpressionBody" v:lbl="    ExpressionBody" v:prompt="" v:type="0"
							v:format="" v:sortKey="" v:invis="true" v:ask="false" v:langID="1033" v:cal="0" v:val="VT4()"/>
					<v:cp v:nameU="BpmnConditionExpression_ExpressionLanguage" v:lbl="    ExpressionLanguage" v:prompt=""
							v:type="0" v:format="" v:sortKey="" v:invis="true" v:ask="false" v:langID="1033" v:cal="0"
							v:val="VT4()"/>
					<v:cp v:nameU="BpmnMessageRef" v:lbl="MessageRef" v:prompt="" v:type="1" v:format="Shown;Hidden" v:sortKey=""
							v:invis="true" v:ask="false" v:langID="1033" v:cal="0" v:val="VT4(Hidden)"/>
					<v:cp v:nameU="BpmnMessageRef_Name" v:lbl="    Name" v:prompt="" v:type="0" v:format="" v:sortKey=""
							v:invis="true" v:ask="false" v:langID="1033" v:cal="0" v:val="VT4()"/>
					<v:cp v:nameU="BpmnMessageRef_Properties" v:lbl="    Properties" v:prompt="" v:type="1" v:format="Shown;Hidden"
							v:sortKey="" v:invis="true" v:ask="false" v:langID="1033" v:cal="0" v:val="VT4(Shown)"/>
					<v:cp v:nameU="BpmnMessageRef_Properties_Name" v:lbl="        Name" v:prompt="" v:type="0" v:format=""
							v:sortKey="" v:invis="true" v:ask="false" v:langID="1033" v:cal="0" v:val="VT4()"/>
					<v:cp v:nameU="BpmnMessageRef_Properties_Type" v:lbl="        Type" v:prompt="" v:type="0" v:format=""
							v:sortKey="" v:invis="true" v:ask="false" v:langID="1033" v:cal="0" v:val="VT4()"/>
					<v:cp v:nameU="BpmnMessageRef_Properties_Value" v:lbl="        Value" v:prompt="" v:type="1"
							v:format="Shown;Hidden" v:sortKey="" v:invis="true" v:ask="false" v:langID="1033" v:cal="0"
							v:val="VT4(Shown)"/>
					<v:cp v:nameU="BpmnMessageRef_Properties_Value_ExpressionBody" v:lbl="            ExpressionBody" v:prompt=""
							v:type="0" v:format="" v:sortKey="" v:invis="true" v:ask="false" v:langID="1033" v:cal="0"
							v:val="VT4()"/>
					<v:cp v:nameU="BpmnMessageRef_Properties_Value_ExpressionLanguage" v:lbl="            ExpressionLanguage"
							v:prompt="" v:type="0" v:format="" v:sortKey="" v:invis="true" v:ask="false" v:langID="1033" v:cal="0"
							v:val="VT4()"/>
					<v:cp v:nameU="BpmnMessageRef_Properties_Correlation" v:lbl="        Correlation" v:prompt="" v:type="3"
							v:format="" v:sortKey="" v:invis="true" v:ask="false" v:langID="1033" v:cal="0" v:val="VT0(0):5"/>
					<v:cp v:nameU="BpmnMessageRef_FromRef" v:lbl="    FromRef" v:prompt="" v:type="1" v:format="Shown;Hidden"
							v:sortKey="" v:invis="true" v:ask="false" v:langID="1033" v:cal="0" v:val="VT4(Shown)"/>
					<v:cp v:nameU="BpmnMessageRef_FromRef_ParticipantType" v:lbl="        ParticipantType" v:prompt="" v:type="1"
							v:format="Role;Entity" v:sortKey="" v:invis="true" v:ask="false" v:langID="1033" v:cal="0"
							v:val="VT4(Role)"/>
					<v:cp v:nameU="BpmnMessageRef_FromRef_RoleRef" v:lbl="        RoleRef" v:prompt="" v:type="0" v:format=""
							v:sortKey="" v:invis="true" v:ask="false" v:langID="1033" v:cal="0" v:val="VT4()"/>
					<v:cp v:nameU="BpmnMessageRef_FromRef_EntityRef" v:lbl="        EntityRef" v:prompt="" v:type="0" v:format=""
							v:sortKey="" v:invis="true" v:ask="false" v:langID="1033" v:cal="0" v:val="VT4()"/>
					<v:cp v:nameU="BpmnMessageRef_ToRef" v:lbl="    ToRef" v:prompt="" v:type="1" v:format="Shown;Hidden"
							v:sortKey="" v:invis="true" v:ask="false" v:langID="1033" v:cal="0" v:val="VT4(Shown)"/>
					<v:cp v:nameU="BpmnMessageRef_ToRef_ParticipantType" v:lbl="        ParticipantType" v:prompt="" v:type="1"
							v:format="Role;Entity" v:sortKey="" v:invis="true" v:ask="false" v:langID="1033" v:cal="0"
							v:val="VT4(Role)"/>
					<v:cp v:nameU="BpmnMessageRef_ToRef_RoleRef" v:lbl="        RoleRef" v:prompt="" v:type="0" v:format=""
							v:sortKey="" v:invis="true" v:ask="false" v:langID="1033" v:cal="0" v:val="VT4()"/>
					<v:cp v:nameU="BpmnMessageRef_ToRef_EntityRef" v:lbl="        EntityRef" v:prompt="" v:type="0" v:format=""
							v:sortKey="" v:invis="true" v:ask="false" v:langID="1033" v:cal="0" v:val="VT4()"/>
					<v:cp v:nameU="BpmnDirection" v:lbl="Direction" v:prompt="" v:type="1" v:format="None;One;Both" v:sortKey=""
							v:invis="false" v:ask="false" v:langID="1033" v:cal="0" v:val="VT4(None)"/>
					<v:cp v:nameU="BpmnElementType" v:lbl="ElementType" v:prompt="" v:type="1"
							v:format="Sub-Process;Event;Gateway;Process Diagram;Pool;Lane;Artifact;Connecting Object" v:sortKey=""
							v:invis="true" v:ask="false" v:langID="1033" v:cal="0" v:val="VT4(Connecting Object)"/>
				</v:custProps>
				<v:userDefs>
					<v:ud v:nameU="msvShapeCategories" v:prompt="" v:val="VT4(Connecting Object)"/>
					<v:ud v:nameU="visVersion" v:prompt="" v:val="VT0(15):26"/>
				</v:userDefs>
				<path d="M0 117 L103.5 92.72" class="st13"/>
			</g>
			<g id="shape54-84" v:mID="54" v:groupContext="groupContent" v:layerMember="1">
				<path d="M67.5 117 L72 117 L72 94.5 L67.5 94.5" class="st14"/>
			</g>
		</g>
	</g>
</svg>
