<?xml version="1.0" encoding="UTF-8" standalone="no"?>
<!DOCTYPE svg PUBLIC "-//W3C//DTD SVG 1.1//EN" "http://www.w3.org/Graphics/SVG/1.1/DTD/svg11.dtd">
<!-- Generated by Microsoft Visio, SVG Export F7_metrics_UC2_medium.svg Page-2 -->
<svg xmlns="http://www.w3.org/2000/svg" xmlns:xlink="http://www.w3.org/1999/xlink" xmlns:ev="http://www.w3.org/2001/xml-events"
		xmlns:v="http://schemas.microsoft.com/visio/2003/SVGExtensions/" width="10.5in" height="1.625in" viewBox="0 0 756 117"
		xml:space="preserve" color-interpolation-filters="sRGB" class="st11">
	<v:documentProperties v:langID="1033" v:viewMarkup="false">
		<v:userDefs>
			<v:ud v:nameU="msvNoAutoConnect" v:val="VT0(1):26"/>
		</v:userDefs>
	</v:documentProperties>

	<style type="text/css">
	<![CDATA[
		.st1 {fill:none;stroke:#000000;stroke-linecap:round;stroke-linejoin:round;stroke-width:0.25}
		.st2 {fill:#000000;font-family:Calibri;font-size:0.75em}
		.st3 {fill:#000000;font-family:Calibri;font-size:0.499992em}
		.st4 {font-size:1em}
		.st5 {fill:none;stroke:none;stroke-linecap:round;stroke-linejoin:round;stroke-width:0.25}
		.st6 {fill:#1f1f1f;stroke:none;stroke-linecap:butt;stroke-width:0.01875}
		.st7 {fill:#dbeef3;stroke:#000000;stroke-linecap:round;stroke-linejoin:round;stroke-width:0.25}
		.st8 {fill:url(#grad1-94);stroke:#000000;stroke-linecap:round;stroke-linejoin:round;stroke-width:0.25}
		.st9 {fill:#d8d8d8;stroke:#000000;stroke-linecap:round;stroke-linejoin:round;stroke-width:0.25}
		.st10 {fill:#ebf1df;stroke:#000000;stroke-linecap:round;stroke-linejoin:round;stroke-width:0.25}
		.st11 {fill:none;fill-rule:evenodd;font-size:12px;overflow:visible;stroke-linecap:square;stroke-miterlimit:3}
	]]>
	</style>

	<defs id="Patterns_And_Gradients">
		<radialGradient id="grad1-94" cx="1" cy="1" r="1.4">
			<stop offset="0" stop-color="#fee599" stop-opacity="1"/>
			<stop offset="0.93" stop-color="#e5b9b5" stop-opacity="1"/>
		</radialGradient>
	</defs>
	<g v:mID="4" v:index="4" v:groupContext="foregroundPage">
		<v:userDefs>
			<v:ud v:nameU="visNavType" v:val="VT0(1):26"/>
		</v:userDefs>
		<title>UC2 MEDIUM</title>
		<v:pageProperties v:drawingScale="1" v:pageScale="1" v:drawingUnits="19" v:shadowOffsetX="9" v:shadowOffsetY="-9"/>
		<g id="shape1049-1" v:mID="1049" v:groupContext="shape" transform="translate(346.384,-76.2803)">
			<title>Sheet.1049</title>
			<desc>Express</desc>
			<v:userDefs>
				<v:ud v:nameU="visNavOrder" v:val="VT0(47000):26"/>
			</v:userDefs>
			<v:textBlock v:margins="rect(4,4,4,4)"/>
			<v:textRect cx="65.3081" cy="107.982" width="130.62" height="18.0366"/>
			<rect x="0" y="98.9634" width="130.616" height="18.0366" class="st1"/>
			<text x="4" y="110.68" class="st2" v:langID="1029"><v:paragraph/><v:tabList/>Express</text>		</g>
		<g id="shape1034-4" v:mID="1034" v:groupContext="shape" transform="translate(346.384,-58.2437)">
			<title>Sheet.1034</title>
			<desc>Admin (hours)</desc>
			<v:userDefs>
				<v:ud v:nameU="visNavOrder" v:val="VT0(32000):26"/>
			</v:userDefs>
			<v:textBlock v:margins="rect(4,4,4,4)"/>
			<v:textRect cx="21.2819" cy="107.982" width="42.57" height="18.0366"/>
			<rect x="0" y="98.9634" width="42.5638" height="18.0366" class="st1"/>
			<text x="4" y="106.18" class="st3" v:langID="1029"><v:paragraph/><v:tabList/>Admin <tspan x="4" dy="1.2em" class="st4">(hours)</tspan></text>		</g>
		<g id="shape1035-8" v:mID="1035" v:groupContext="shape" transform="translate(346.384,-40.207)">
			<title>Sheet.1035</title>
			<desc>6</desc>
			<v:userDefs>
				<v:ud v:nameU="visNavOrder" v:val="VT0(33000):26"/>
			</v:userDefs>
			<v:textBlock v:margins="rect(4,4,4,4)"/>
			<v:textRect cx="21.2819" cy="107.982" width="42.57" height="18.0366"/>
			<rect x="0" y="98.9634" width="42.5638" height="18.0366" class="st1"/>
			<text x="34" y="110.68" class="st2" v:langID="1029"><v:paragraph v:horizAlign="2"/><v:tabList/>6</text>		</g>
		<g id="shape1036-11" v:mID="1036" v:groupContext="shape" transform="translate(346.384,-22.1704)">
			<title>Sheet.1036</title>
			<desc>10</desc>
			<v:userDefs>
				<v:ud v:nameU="visNavOrder" v:val="VT0(34000):26"/>
			</v:userDefs>
			<v:textBlock v:margins="rect(4,4,4,4)"/>
			<v:textRect cx="21.2819" cy="107.982" width="42.57" height="18.0366"/>
			<rect x="0" y="98.9634" width="42.5638" height="18.0366" class="st1"/>
			<text x="29.44" y="110.68" class="st2" v:langID="1029"><v:paragraph v:horizAlign="2"/><v:tabList/>10</text>		</g>
		<g id="shape1037-14" v:mID="1037" v:groupContext="shape" transform="translate(346.384,-4.13382)">
			<title>Sheet.1037</title>
			<v:userDefs>
				<v:ud v:nameU="visNavOrder" v:val="VT0(35000):26"/>
			</v:userDefs>
			<rect x="0" y="98.9634" width="42.5638" height="18.0366" class="st1"/>
		</g>
		<g id="shape1038-16" v:mID="1038" v:groupContext="shape" transform="translate(345.54,-4.26198)">
			<title>Sheet.1038</title>
			<desc>2</desc>
			<v:userDefs>
				<v:ud v:nameU="visNavOrder" v:val="VT0(36000):26"/>
			</v:userDefs>
			<v:textBlock v:margins="rect(4,4,4,4)"/>
			<v:textRect cx="21.2819" cy="107.982" width="42.57" height="18.0366"/>
			<rect x="0" y="98.9634" width="42.5638" height="18.0366" class="st5"/>
			<text x="34" y="110.68" class="st2" v:langID="1029"><v:paragraph v:horizAlign="2"/><v:tabList/>2</text>		</g>
		<g id="shape1039-19" v:mID="1039" v:groupContext="shape" transform="translate(388.805,-58.2803)">
			<title>Sheet.1039</title>
			<desc>Time (hours)</desc>
			<v:userDefs>
				<v:ud v:nameU="visNavOrder" v:val="VT0(37000):26"/>
			</v:userDefs>
			<v:textBlock v:margins="rect(4,4,4,4)"/>
			<v:textRect cx="21.2819" cy="107.982" width="42.57" height="18.0366"/>
			<rect x="0" y="98.9634" width="42.5638" height="18.0366" class="st1"/>
			<text x="4" y="109.78" class="st3" v:langID="1029"><v:paragraph/><v:tabList/>Time (hours)</text>		</g>
		<g id="shape1040-22" v:mID="1040" v:groupContext="shape" transform="translate(388.805,-40.2437)">
			<title>Sheet.1040</title>
			<desc>9.31</desc>
			<v:userDefs>
				<v:ud v:nameU="visNavOrder" v:val="VT0(38000):26"/>
			</v:userDefs>
			<v:textBlock v:margins="rect(4,4,4,4)"/>
			<v:textRect cx="21.2819" cy="107.982" width="42.57" height="18.0366"/>
			<rect x="0" y="98.9634" width="42.5638" height="18.0366" class="st1"/>
			<text x="22.61" y="110.68" class="st2" v:langID="1029"><v:paragraph v:horizAlign="2"/><v:tabList/>9.31</text>		</g>
		<g id="shape1041-25" v:mID="1041" v:groupContext="shape" transform="translate(388.805,-22.207)">
			<title>Sheet.1041</title>
			<desc>12.89</desc>
			<v:userDefs>
				<v:ud v:nameU="visNavOrder" v:val="VT0(39000):26"/>
			</v:userDefs>
			<v:textBlock v:margins="rect(4,4,4,4)"/>
			<v:textRect cx="21.2819" cy="107.982" width="42.57" height="18.0366"/>
			<rect x="0" y="98.9634" width="42.5638" height="18.0366" class="st1"/>
			<text x="18.05" y="110.68" class="st2" v:langID="1029"><v:paragraph v:horizAlign="2"/><v:tabList/>12.89</text>		</g>
		<g id="shape1042-28" v:mID="1042" v:groupContext="shape" transform="translate(388.805,-4.17045)">
			<title>Sheet.1042</title>
			<v:userDefs>
				<v:ud v:nameU="visNavOrder" v:val="VT0(40000):26"/>
			</v:userDefs>
			<v:textBlock v:margins="rect(4,4,4,4)"/>
			<rect x="0" y="98.9634" width="42.5638" height="18.0366" class="st1"/>
		</g>
		<g id="shape1043-30" v:mID="1043" v:groupContext="shape" transform="translate(387.961,-4.29861)">
			<title>Sheet.1043</title>
			<desc>2.31</desc>
			<v:userDefs>
				<v:ud v:nameU="visNavOrder" v:val="VT0(41000):26"/>
			</v:userDefs>
			<v:textBlock v:margins="rect(4,4,4,4)"/>
			<v:textRect cx="21.2819" cy="107.982" width="42.57" height="18.0366"/>
			<rect x="0" y="98.9634" width="42.5638" height="18.0366" class="st5"/>
			<text x="22.61" y="110.68" class="st2" v:langID="1029"><v:paragraph v:horizAlign="2"/><v:tabList/>2.31</text>		</g>
		<g id="shape1044-33" v:mID="1044" v:groupContext="shape" transform="translate(431.459,-58.2803)">
			<title>Sheet.1044</title>
			<desc>Final price (euro)</desc>
			<v:userDefs>
				<v:ud v:nameU="visNavOrder" v:val="VT0(42000):26"/>
			</v:userDefs>
			<v:textBlock v:margins="rect(4,4,4,4)"/>
			<v:textRect cx="22.7706" cy="107.982" width="45.55" height="18.0366"/>
			<rect x="0" y="98.9634" width="45.5413" height="18.0366" class="st1"/>
			<text x="4" y="106.18" class="st3" v:langID="1029"><v:paragraph/><v:tabList/>Final price <tspan x="4" dy="1.2em"
						class="st4">(euro)</tspan></text>		</g>
		<g id="shape1045-37" v:mID="1045" v:groupContext="shape" transform="translate(431.459,-40.2437)">
			<title>Sheet.1045</title>
			<desc>648.37</desc>
			<v:userDefs>
				<v:ud v:nameU="visNavOrder" v:val="VT0(43000):26"/>
			</v:userDefs>
			<v:textBlock v:margins="rect(4,4,4,4)"/>
			<v:textRect cx="22.7706" cy="107.982" width="45.55" height="18.0366"/>
			<rect x="0" y="98.9634" width="45.5413" height="18.0366" class="st1"/>
			<text x="16.46" y="110.68" class="st2" v:langID="1029"><v:paragraph v:horizAlign="2"/><v:tabList/>648.37</text>		</g>
		<g id="shape1046-40" v:mID="1046" v:groupContext="shape" transform="translate(431.459,-22.2071)">
			<title>Sheet.1046</title>
			<desc>555.74</desc>
			<v:userDefs>
				<v:ud v:nameU="visNavOrder" v:val="VT0(44000):26"/>
			</v:userDefs>
			<v:textBlock v:margins="rect(4,4,4,4)"/>
			<v:textRect cx="22.7706" cy="107.982" width="45.55" height="18.0366"/>
			<rect x="0" y="98.9634" width="45.5413" height="18.0366" class="st1"/>
			<text x="16.46" y="110.68" class="st2" v:langID="1029"><v:paragraph v:horizAlign="2"/><v:tabList/>555.74</text>		</g>
		<g id="shape1047-43" v:mID="1047" v:groupContext="shape" transform="translate(431.459,-4.17049)">
			<title>Sheet.1047</title>
			<desc>7 400.06</desc>
			<v:userDefs>
				<v:ud v:nameU="visNavOrder" v:val="VT0(45000):26"/>
			</v:userDefs>
			<v:textBlock v:margins="rect(4,4,4,4)"/>
			<v:textRect cx="22.7706" cy="107.982" width="45.55" height="18.0366"/>
			<rect x="0" y="98.9634" width="45.5413" height="18.0366" class="st1"/>
			<text x="9.87" y="110.68" class="st2" v:langID="1029"><v:paragraph v:horizAlign="2"/><v:tabList/>7 400.06</text>		</g>
		<g id="shape1000-46" v:mID="1000" v:groupContext="shape" transform="translate(4.5,-40.2437)">
			<title>Sheet.1000</title>
			<desc>Truck</desc>
			<v:userDefs>
				<v:ud v:nameU="visNavOrder" v:val="VT0(1000):26"/>
			</v:userDefs>
			<v:textBlock v:margins="rect(4,4,4,4)"/>
			<v:textRect cx="33.2849" cy="107.982" width="66.57" height="18.0366"/>
			<rect x="0" y="98.9634" width="66.5698" height="18.0366" class="st1"/>
			<text x="4" y="110.68" class="st2" v:langID="1029"><v:paragraph/><v:tabList/>Truck</text>		</g>
		<g id="shape1001-49" v:mID="1001" v:groupContext="shape" transform="translate(71.0698,-40.2437)">
			<title>Sheet.1001</title>
			<desc>231.56</desc>
			<v:userDefs>
				<v:ud v:nameU="visNavOrder" v:val="VT0(2000):26"/>
			</v:userDefs>
			<v:textBlock v:margins="rect(4,4,4,4)"/>
			<v:textRect cx="30.9144" cy="107.982" width="61.83" height="18.0366"/>
			<rect x="0" y="98.9634" width="61.8287" height="18.0366" class="st1"/>
			<text x="32.75" y="110.68" class="st2" v:langID="1029"><v:paragraph v:horizAlign="2"/><v:tabList/>231.56</text>		</g>
		<g id="shape1002-52" v:mID="1002" v:groupContext="shape" transform="translate(132.899,-40.2437)">
			<title>Sheet.1002</title>
			<desc>3.31</desc>
			<v:userDefs>
				<v:ud v:nameU="visNavOrder" v:val="VT0(3000):26"/>
			</v:userDefs>
			<v:textBlock v:margins="rect(4,4,4,4)"/>
			<v:textRect cx="30.9144" cy="107.982" width="61.83" height="18.0366"/>
			<rect x="0" y="98.9634" width="61.8287" height="18.0366" class="st1"/>
			<text x="41.87" y="110.68" class="st2" v:langID="1029"><v:paragraph v:horizAlign="2"/><v:tabList/>3.31</text>		</g>
		<g id="shape1003-55" v:mID="1003" v:groupContext="shape" transform="translate(4.5,-22.2071)">
			<title>Sheet.1003</title>
			<desc>Train</desc>
			<v:userDefs>
				<v:ud v:nameU="visNavOrder" v:val="VT0(4000):26"/>
			</v:userDefs>
			<v:textBlock v:margins="rect(4,4,4,4)"/>
			<v:textRect cx="33.2849" cy="107.982" width="66.57" height="18.0366"/>
			<rect x="0" y="98.9634" width="66.5698" height="18.0366" class="st1"/>
			<text x="4" y="110.68" class="st2" v:langID="1029"><v:paragraph/><v:tabList/>Train</text>		</g>
		<g id="shape1004-58" v:mID="1004" v:groupContext="shape" transform="translate(4.5,-4.17045)">
			<title>Sheet.1004</title>
			<desc>Airplane</desc>
			<v:userDefs>
				<v:ud v:nameU="visNavOrder" v:val="VT0(5000):26"/>
			</v:userDefs>
			<v:textBlock v:margins="rect(4,4,4,4)"/>
			<v:textRect cx="33.2849" cy="107.982" width="66.57" height="18.0366"/>
			<rect x="0" y="98.9634" width="66.5698" height="18.0366" class="st1"/>
			<text x="4" y="110.68" class="st2" v:langID="1029"><v:paragraph/><v:tabList/>Airplane</text>		</g>
		<g id="shape1005-61" v:mID="1005" v:groupContext="shape" transform="translate(71.0698,-22.2071)">
			<title>Sheet.1005</title>
			<desc>231.56</desc>
			<v:userDefs>
				<v:ud v:nameU="visNavOrder" v:val="VT0(6000):26"/>
			</v:userDefs>
			<v:textBlock v:margins="rect(4,4,4,4)"/>
			<v:textRect cx="30.9144" cy="107.982" width="61.83" height="18.0366"/>
			<rect x="0" y="98.9634" width="61.8287" height="18.0366" class="st1"/>
			<text x="32.75" y="110.68" class="st2" v:langID="1029"><v:paragraph v:horizAlign="2"/><v:tabList/>231.56</text>		</g>
		<g id="shape1006-64" v:mID="1006" v:groupContext="shape" transform="translate(71.0698,-4.17045)">
			<title>Sheet.1006</title>
			<desc>217.65</desc>
			<v:userDefs>
				<v:ud v:nameU="visNavOrder" v:val="VT0(7000):26"/>
			</v:userDefs>
			<v:textBlock v:margins="rect(4,4,4,4)"/>
			<v:textRect cx="30.9144" cy="107.982" width="61.83" height="18.0366"/>
			<rect x="0" y="98.9634" width="61.8287" height="18.0366" class="st1"/>
			<text x="32.75" y="110.68" class="st2" v:langID="1029"><v:paragraph v:horizAlign="2"/><v:tabList/>217.65</text>		</g>
		<g id="shape1007-67" v:mID="1007" v:groupContext="shape" transform="translate(132.899,-22.2071)">
			<title>Sheet.1007</title>
			<desc>2.89</desc>
			<v:userDefs>
				<v:ud v:nameU="visNavOrder" v:val="VT0(8000):26"/>
			</v:userDefs>
			<v:textBlock v:margins="rect(4,4,4,4)"/>
			<v:textRect cx="30.9144" cy="107.982" width="61.83" height="18.0366"/>
			<rect x="0" y="98.9634" width="61.8287" height="18.0366" class="st1"/>
			<text x="41.87" y="110.68" class="st2" v:langID="1029"><v:paragraph v:horizAlign="2"/><v:tabList/>2.89</text>		</g>
		<g id="shape1008-70" v:mID="1008" v:groupContext="shape" transform="translate(132.899,-4.17045)">
			<title>Sheet.1008</title>
			<desc>0.31</desc>
			<v:userDefs>
				<v:ud v:nameU="visNavOrder" v:val="VT0(9000):26"/>
			</v:userDefs>
			<v:textBlock v:margins="rect(4,4,4,4)"/>
			<v:textRect cx="30.9144" cy="107.982" width="61.83" height="18.0366"/>
			<rect x="0" y="98.9634" width="61.8287" height="18.0366" class="st1"/>
			<text x="41.87" y="110.68" class="st2" v:langID="1029"><v:paragraph v:horizAlign="2"/><v:tabList/>0.31</text>		</g>
		<g id="shape1012-73" v:mID="1012" v:groupContext="shape" transform="translate(71.0698,-58.2803)">
			<title>Sheet.1012</title>
			<desc>Distance (km)</desc>
			<v:userDefs>
				<v:ud v:nameU="visNavOrder" v:val="VT0(13000):26"/>
			</v:userDefs>
			<v:textBlock v:margins="rect(4,4,4,4)"/>
			<v:textRect cx="30.9144" cy="107.982" width="61.83" height="18.0366"/>
			<rect x="0" y="98.9634" width="61.8287" height="18.0366" class="st1"/>
			<text x="4" y="110.68" class="st2" v:langID="1029"><v:paragraph/><v:tabList/>Distance (km)</text>		</g>
		<g id="shape1013-76" v:mID="1013" v:groupContext="shape" transform="translate(132.899,-58.2803)">
			<title>Sheet.1013</title>
			<desc>Time (hours)</desc>
			<v:userDefs>
				<v:ud v:nameU="visNavOrder" v:val="VT0(14000):26"/>
			</v:userDefs>
			<v:textBlock v:margins="rect(4,4,4,4)"/>
			<v:textRect cx="30.9144" cy="107.982" width="61.83" height="18.0366"/>
			<rect x="0" y="98.9634" width="61.8287" height="18.0366" class="st1"/>
			<text x="4" y="110.68" class="st2" v:langID="1029"><v:paragraph/><v:tabList/>Time (hours)</text>		</g>
		<g id="group1015-79" transform="translate(46.5,-42.5303)" v:mID="1015" v:groupContext="group">
			<v:userDefs>
				<v:ud v:nameU="visNavOrder" v:val="VT0(16000):26"/>
			</v:userDefs>
			<title>Sheet.1015</title>
			<g id="shape1016-80" v:mID="1016" v:groupContext="shape">
				<title>Sheet.1016</title>
				<path d="M3.75 117 C3.13 117 2.59 116.78 2.16 116.34 C1.72 115.91 1.5 115.37 1.5 114.75 L0 114.75 L0 106.5 C0 106.09
							 0.15 105.73 0.44 105.44 C0.73 105.15 1.09 105 1.5 105 L12 105 L12 108 L14.25 108 L16.5 111 L16.5 114.75
							 L15 114.75 C15 115.37 14.78 115.91 14.34 116.34 C13.91 116.78 13.38 117 12.75 117 C12.13 117 11.59 116.78
							 11.16 116.34 C10.72 115.91 10.5 115.37 10.5 114.75 L6 114.75 C6 115.37 5.78 115.91 5.34 116.34 C4.91
							 116.78 4.38 117 3.75 117 ZM3.75 115.5 C3.96 115.5 4.14 115.43 4.28 115.28 C4.43 115.14 4.5 114.96 4.5
							 114.75 C4.5 114.54 4.43 114.36 4.28 114.22 C4.14 114.07 3.96 114 3.75 114 C3.54 114 3.36 114.07 3.22
							 114.22 C3.07 114.36 3 114.54 3 114.75 C3 114.96 3.07 115.14 3.22 115.28 C3.36 115.43 3.54 115.5 3.75
							 115.5 ZM1.5 113.25 L2.1 113.25 C2.31 113.02 2.56 112.84 2.83 112.71 C3.11 112.57 3.41 112.5 3.75 112.5
							 C4.09 112.5 4.39 112.57 4.67 112.71 C4.94 112.84 5.19 113.02 5.4 113.25 L10.5 113.25 L10.5 106.5 L1.5
							 106.5 L1.5 113.25 ZM12.75 115.5 C12.96 115.5 13.14 115.43 13.28 115.28 C13.43 115.14 13.5 114.96 13.5
							 114.75 C13.5 114.54 13.43 114.36 13.28 114.22 C13.14 114.07 12.96 114 12.75 114 C12.54 114 12.36 114.07
							 12.22 114.22 C12.07 114.36 12 114.54 12 114.75 C12 114.96 12.07 115.14 12.22 115.28 C12.36 115.43 12.54
							 115.5 12.75 115.5 ZM12 111.75 L15.19 111.75 L13.5 109.5 L12 109.5 L12 111.75 Z" class="st6"/>
			</g>
		</g>
		<g id="group1017-82" transform="translate(48,-24.1553)" v:mID="1017" v:groupContext="group">
			<v:userDefs>
				<v:ud v:nameU="visNavOrder" v:val="VT0(17000):26"/>
			</v:userDefs>
			<title>Sheet.1017</title>
			<g id="shape1018-83" v:mID="1018" v:groupContext="shape">
				<title>Sheet.1018</title>
				<path d="M0 112.87 L0 105.75 C0 105.09 0.17 104.56 0.52 104.17 C0.86 103.77 1.31 103.47 1.88 103.27 C2.44 103.06
							 3.08 102.92 3.8 102.85 C4.52 102.78 5.25 102.75 6 102.75 C6.83 102.75 7.6 102.78 8.33 102.85 C9.07 102.92
							 9.7 103.06 10.25 103.27 C10.79 103.47 11.22 103.77 11.53 104.17 C11.84 104.56 12 105.09 12 105.75 L12
							 112.87 C12 113.61 11.75 114.23 11.24 114.74 C10.73 115.25 10.11 115.5 9.38 115.5 L10.5 116.62 L10.5
							 117 L9 117 L7.5 115.5 L4.5 115.5 L3 117 L1.5 117 L1.5 116.62 L2.63 115.5 C1.89 115.5 1.27 115.25 0.76
							 114.74 C0.25 114.23 0 113.61 0 112.87 ZM6 104.25 C4.68 104.25 3.71 104.33 3.09 104.48 C2.48 104.64 2.06
							 104.81 1.84 105 L10.24 105 C10.05 104.79 9.65 104.61 9.03 104.47 C8.41 104.32 7.4 104.25 6 104.25 ZM1.5
							 108.75 L5.25 108.75 L5.25 106.5 L1.5 106.5 L1.5 108.75 ZM9.38 110.25 L1.5 110.25 L10.5 110.25 L9.38
							 110.25 ZM6.75 108.75 L10.5 108.75 L10.5 106.5 L6.75 106.5 L6.75 108.75 ZM3.38 113.25 C3.7 113.25 3.97
							 113.14 4.18 112.93 C4.39 112.72 4.5 112.45 4.5 112.12 C4.5 111.8 4.39 111.53 4.18 111.32 C3.97 111.11
							 3.7 111 3.38 111 C3.05 111 2.78 111.11 2.57 111.32 C2.36 111.53 2.25 111.8 2.25 112.12 C2.25 112.45
							 2.36 112.72 2.57 112.93 C2.78 113.14 3.05 113.25 3.38 113.25 ZM8.63 113.25 C8.95 113.25 9.22 113.14
							 9.43 112.93 C9.64 112.72 9.75 112.45 9.75 112.12 C9.75 111.8 9.64 111.53 9.43 111.32 C9.22 111.11 8.95
							 111 8.63 111 C8.3 111 8.03 111.11 7.82 111.32 C7.61 111.53 7.5 111.8 7.5 112.12 C7.5 112.45 7.61 112.72
							 7.82 112.93 C8.03 113.14 8.3 113.25 8.63 113.25 ZM2.63 114 L9.38 114 C9.7 114 9.97 113.89 10.18 113.68
							 C10.39 113.47 10.5 113.2 10.5 112.87 L10.5 110.25 L1.5 110.25 L1.5 112.87 C1.5 113.2 1.61 113.47 1.82
							 113.68 C2.03 113.89 2.3 114 2.63 114 ZM6 105 L10.24 105 L1.84 105 L6 105 Z" class="st6"/>
			</g>
		</g>
		<g id="group1019-85" transform="translate(47.1469,-5.68655)" v:mID="1019" v:groupContext="group">
			<v:userDefs>
				<v:ud v:nameU="visNavOrder" v:val="VT0(18000):26"/>
			</v:userDefs>
			<title>Sheet.1019</title>
			<g id="shape1020-86" v:mID="1020" v:groupContext="shape">
				<title>Sheet.1020</title>
				<path d="M5.31 117 L3.45 113.55 L0 111.69 L1.33 110.38 L4.05 110.85 L5.96 108.94 L0.02 106.41 L1.59 104.79 L8.81
							 106.07 L11.14 103.74 C11.42 103.46 11.78 103.31 12.21 103.31 C12.63 103.31 12.99 103.46 13.27 103.74
							 C13.56 104.03 13.71 104.38 13.71 104.8 C13.71 105.22 13.56 105.57 13.27 105.86 L10.93 108.21 L12.21
							 115.41 L10.61 117 L8.06 111.06 L6.15 112.97 L6.64 115.67 L5.31 117 Z" class="st6"/>
			</g>
		</g>
		<g id="shape1021-88" v:mID="1021" v:groupContext="shape" transform="translate(71.0698,-76.4634)">
			<title>Sheet.1021</title>
			<desc>Transport A to B</desc>
			<v:userDefs>
				<v:ud v:nameU="visNavOrder" v:val="VT0(19000):26"/>
			</v:userDefs>
			<v:textBlock v:margins="rect(4,4,4,4)"/>
			<v:textRect cx="61.7776" cy="107.982" width="123.56" height="18.0366"/>
			<rect x="0" y="98.9634" width="123.555" height="18.0366" class="st7"/>
			<text x="4" y="110.68" class="st2" v:langID="1029"><v:paragraph/><v:tabList/>Transport A to B</text>		</g>
		<g id="shape1022-91" v:mID="1022" v:groupContext="shape" transform="translate(200.531,-76.3169)">
			<title>Sheet.1022</title>
			<desc>Door-to-Door</desc>
			<v:userDefs>
				<v:ud v:nameU="visNavOrder" v:val="VT0(20000):26"/>
			</v:userDefs>
			<v:textBlock v:margins="rect(4,4,4,4)"/>
			<v:textRect cx="33.2849" cy="107.982" width="66.57" height="18.0366"/>
			<rect x="0" y="98.9634" width="66.5698" height="18.0366" class="st8"/>
			<text x="4" y="110.68" class="st2" v:langID="1029"><v:paragraph/><v:tabList/>Door-to-Door</text>		</g>
		<g id="shape1023-96" v:mID="1023" v:groupContext="shape" transform="translate(200.531,-58.2803)">
			<title>Sheet.1023</title>
			<desc>DTD</desc>
			<v:userDefs>
				<v:ud v:nameU="visNavOrder" v:val="VT0(21000):26"/>
			</v:userDefs>
			<v:textBlock v:margins="rect(4,4,4,4)"/>
			<v:textRect cx="33.2849" cy="107.982" width="66.57" height="18.0366"/>
			<rect x="0" y="98.9634" width="66.5698" height="18.0366" class="st1"/>
			<text x="4" y="110.68" class="st2" v:langID="1029"><v:paragraph/><v:tabList/>DTD</text>		</g>
		<g id="shape1024-99" v:mID="1024" v:groupContext="shape" transform="translate(200.531,-40.2437)">
			<title>Sheet.1024</title>
			<desc>-</desc>
			<v:userDefs>
				<v:ud v:nameU="visNavOrder" v:val="VT0(22000):26"/>
			</v:userDefs>
			<v:textBlock v:margins="rect(4,4,4,4)"/>
			<v:textRect cx="33.2849" cy="107.982" width="66.57" height="18.0366"/>
			<rect x="0" y="98.9634" width="66.5698" height="18.0366" class="st1"/>
			<text x="12.14" y="110.68" class="st2" v:langID="1029"><v:paragraph/><v:tabList/>-</text>		</g>
		<g id="shape1025-102" v:mID="1025" v:groupContext="shape" transform="translate(200.531,-22.207)">
			<title>Sheet.1025</title>
			<desc>-</desc>
			<v:userDefs>
				<v:ud v:nameU="visNavOrder" v:val="VT0(23000):26"/>
			</v:userDefs>
			<v:textBlock v:margins="rect(4,4,4,4)"/>
			<v:textRect cx="33.2849" cy="107.982" width="66.57" height="18.0366"/>
			<rect x="0" y="98.9634" width="66.5698" height="18.0366" class="st1"/>
			<text x="12.14" y="110.68" class="st2" v:langID="1029"><v:paragraph/><v:tabList/>-</text>		</g>
		<g id="shape1026-105" v:mID="1026" v:groupContext="shape" transform="translate(200.531,-4.17045)">
			<title>Sheet.1026</title>
			<desc>-</desc>
			<v:userDefs>
				<v:ud v:nameU="visNavOrder" v:val="VT0(24000):26"/>
			</v:userDefs>
			<v:textBlock v:margins="rect(4,4,4,4)"/>
			<v:textRect cx="33.2849" cy="107.982" width="66.57" height="18.0366"/>
			<rect x="0" y="98.9634" width="66.5698" height="18.0366" class="st1"/>
			<text x="12.14" y="110.68" class="st2" v:langID="1029"><v:paragraph/><v:tabList/>-</text>		</g>
		<g id="shape1027-108" v:mID="1027" v:groupContext="shape" transform="translate(199.211,-4.29861)">
			<title>Sheet.1027</title>
			<desc>-</desc>
			<v:userDefs>
				<v:ud v:nameU="visNavOrder" v:val="VT0(25000):26"/>
			</v:userDefs>
			<v:textBlock v:margins="rect(4,4,4,4)"/>
			<v:textRect cx="33.2849" cy="107.982" width="66.57" height="18.0366"/>
			<rect x="0" y="98.9634" width="66.5698" height="18.0366" class="st5"/>
			<text x="12.14" y="110.68" class="st2" v:langID="1029"><v:paragraph/><v:tabList/>-</text>		</g>
		<g id="shape1028-111" v:mID="1028" v:groupContext="shape" transform="translate(271.969,-76.4634)">
			<title>Sheet.1028</title>
			<desc>Extra time</desc>
			<v:userDefs>
				<v:ud v:nameU="visNavOrder" v:val="VT0(26000):26"/>
			</v:userDefs>
			<v:textBlock v:margins="rect(4,4,4,4)"/>
			<v:textRect cx="33.2849" cy="107.982" width="66.57" height="18.0366"/>
			<rect x="0" y="98.9634" width="66.5698" height="18.0366" class="st9"/>
			<text x="4" y="110.68" class="st2" v:langID="1029"><v:paragraph/><v:tabList/>Extra time</text>		</g>
		<g id="shape1029-114" v:mID="1029" v:groupContext="shape" transform="translate(271.969,-58.4268)">
			<title>Sheet.1029</title>
			<desc>Breaks (hours)</desc>
			<v:userDefs>
				<v:ud v:nameU="visNavOrder" v:val="VT0(27000):26"/>
			</v:userDefs>
			<v:textBlock v:margins="rect(4,4,4,4)"/>
			<v:textRect cx="33.2849" cy="107.982" width="66.57" height="18.0366"/>
			<rect x="0" y="98.9634" width="66.5698" height="18.0366" class="st1"/>
			<text x="4" y="110.68" class="st2" v:langID="1029"><v:paragraph/><v:tabList/>Breaks (hours)</text>		</g>
		<g id="shape1030-117" v:mID="1030" v:groupContext="shape" transform="translate(271.969,-40.3901)">
			<title>Sheet.1030</title>
			<desc>-</desc>
			<v:userDefs>
				<v:ud v:nameU="visNavOrder" v:val="VT0(28000):26"/>
			</v:userDefs>
			<v:textBlock v:margins="rect(4,4,4,4)"/>
			<v:textRect cx="33.2849" cy="107.982" width="66.57" height="18.0366"/>
			<rect x="0" y="98.9634" width="66.5698" height="18.0366" class="st1"/>
			<text x="12.14" y="110.68" class="st2" v:langID="1029"><v:paragraph/><v:tabList/>-</text>		</g>
		<g id="shape1031-120" v:mID="1031" v:groupContext="shape" transform="translate(271.969,-22.3535)">
			<title>Sheet.1031</title>
			<desc>-</desc>
			<v:userDefs>
				<v:ud v:nameU="visNavOrder" v:val="VT0(29000):26"/>
			</v:userDefs>
			<v:textBlock v:margins="rect(4,4,4,4)"/>
			<v:textRect cx="33.2849" cy="107.982" width="66.57" height="18.0366"/>
			<rect x="0" y="98.9634" width="66.5698" height="18.0366" class="st1"/>
			<text x="12.14" y="110.68" class="st2" v:langID="1029"><v:paragraph/><v:tabList/>-</text>		</g>
		<g id="shape1032-123" v:mID="1032" v:groupContext="shape" transform="translate(271.969,-4.31691)">
			<title>Sheet.1032</title>
			<desc>-</desc>
			<v:userDefs>
				<v:ud v:nameU="visNavOrder" v:val="VT0(30000):26"/>
			</v:userDefs>
			<v:textBlock v:margins="rect(4,4,4,4)"/>
			<v:textRect cx="33.2849" cy="107.982" width="66.57" height="18.0366"/>
			<rect x="0" y="98.9634" width="66.5698" height="18.0366" class="st1"/>
			<text x="12.14" y="110.68" class="st2" v:langID="1029"><v:paragraph/><v:tabList/>-</text>		</g>
		<g id="shape1033-126" v:mID="1033" v:groupContext="shape" transform="translate(270.649,-4.44507)">
			<title>Sheet.1033</title>
			<desc>-</desc>
			<v:userDefs>
				<v:ud v:nameU="visNavOrder" v:val="VT0(31000):26"/>
			</v:userDefs>
			<v:textBlock v:margins="rect(4,4,4,4)"/>
			<v:textRect cx="33.2849" cy="107.982" width="66.57" height="18.0366"/>
			<rect x="0" y="98.9634" width="66.5698" height="18.0366" class="st5"/>
			<text x="12.14" y="110.68" class="st2" v:langID="1029"><v:paragraph/><v:tabList/>-</text>		</g>
		<g id="shape1050-129" v:mID="1050" v:groupContext="shape" transform="translate(346.384,-94.3536)">
			<title>Sheet.1050</title>
			<desc>Selected service</desc>
			<v:userDefs>
				<v:ud v:nameU="visNavOrder" v:val="VT0(48000):26"/>
			</v:userDefs>
			<v:textBlock v:margins="rect(4,4,4,4)"/>
			<v:textRect cx="202.558" cy="107.982" width="405.12" height="18.0366"/>
			<rect x="0" y="98.9634" width="405.116" height="18.0366" class="st1"/>
			<text x="4" y="110.68" class="st2" v:langID="1029"><v:paragraph/><v:tabList/>Selected service</text>		</g>
		<g id="shape1051-132" v:mID="1051" v:groupContext="shape" transform="translate(482.451,-76.4634)">
			<title>Sheet.1051</title>
			<desc>Standard</desc>
			<v:userDefs>
				<v:ud v:nameU="visNavOrder" v:val="VT0(63000):26"/>
			</v:userDefs>
			<v:textBlock v:margins="rect(4,4,4,4)"/>
			<v:textRect cx="65.8997" cy="107.982" width="131.8" height="18.0366"/>
			<rect x="0" y="98.9634" width="131.799" height="18.0366" class="st1"/>
			<text x="4" y="110.68" class="st2" v:langID="1029"><v:paragraph/><v:tabList/>Standard</text>		</g>
		<g id="shape1052-135" v:mID="1052" v:groupContext="shape" transform="translate(482.451,-58.4267)">
			<title>Sheet.1052</title>
			<desc>Admin (hours)</desc>
			<v:userDefs>
				<v:ud v:nameU="visNavOrder" v:val="VT0(49000):26"/>
			</v:userDefs>
			<v:textBlock v:margins="rect(4,4,4,4)"/>
			<v:textRect cx="21.2819" cy="107.982" width="42.57" height="18.0366"/>
			<rect x="0" y="98.9634" width="42.5638" height="18.0366" class="st1"/>
			<text x="4" y="106.18" class="st3" v:langID="1029"><v:paragraph/><v:tabList/>Admin <tspan x="4" dy="1.2em" class="st4">(hours)</tspan></text>		</g>
		<g id="shape1053-139" v:mID="1053" v:groupContext="shape" transform="translate(482.451,-40.3901)">
			<title>Sheet.1053</title>
			<desc>32</desc>
			<v:userDefs>
				<v:ud v:nameU="visNavOrder" v:val="VT0(50000):26"/>
			</v:userDefs>
			<v:textBlock v:margins="rect(4,4,4,4)"/>
			<v:textRect cx="21.2819" cy="107.982" width="42.57" height="18.0366"/>
			<rect x="0" y="98.9634" width="42.5638" height="18.0366" class="st1"/>
			<text x="29.44" y="110.68" class="st2" v:langID="1029"><v:paragraph v:horizAlign="2"/><v:tabList/>32</text>		</g>
		<g id="shape1054-142" v:mID="1054" v:groupContext="shape" transform="translate(482.451,-22.3535)">
			<title>Sheet.1054</title>
			<desc>48</desc>
			<v:userDefs>
				<v:ud v:nameU="visNavOrder" v:val="VT0(51000):26"/>
			</v:userDefs>
			<v:textBlock v:margins="rect(4,4,4,4)"/>
			<v:textRect cx="21.2819" cy="107.982" width="42.57" height="18.0366"/>
			<rect x="0" y="98.9634" width="42.5638" height="18.0366" class="st1"/>
			<text x="29.44" y="110.68" class="st2" v:langID="1029"><v:paragraph v:horizAlign="2"/><v:tabList/>48</text>		</g>
		<g id="shape1055-145" v:mID="1055" v:groupContext="shape" transform="translate(482.451,-4.3169)">
			<title>Sheet.1055</title>
			<v:userDefs>
				<v:ud v:nameU="visNavOrder" v:val="VT0(52000):26"/>
			</v:userDefs>
			<rect x="0" y="98.9634" width="42.5638" height="18.0366" class="st1"/>
		</g>
		<g id="shape1056-147" v:mID="1056" v:groupContext="shape" transform="translate(481.607,-4.44505)">
			<title>Sheet.1056</title>
			<desc>72</desc>
			<v:userDefs>
				<v:ud v:nameU="visNavOrder" v:val="VT0(53000):26"/>
			</v:userDefs>
			<v:textBlock v:margins="rect(4,4,4,4)"/>
			<v:textRect cx="21.2819" cy="107.982" width="42.57" height="18.0366"/>
			<rect x="0" y="98.9634" width="42.5638" height="18.0366" class="st5"/>
			<text x="29.44" y="110.68" class="st2" v:langID="1029"><v:paragraph v:horizAlign="2"/><v:tabList/>72</text>		</g>
		<g id="shape1057-150" v:mID="1057" v:groupContext="shape" transform="translate(524.872,-58.4634)">
			<title>Sheet.1057</title>
			<desc>Time (hours)</desc>
			<v:userDefs>
				<v:ud v:nameU="visNavOrder" v:val="VT0(54000):26"/>
			</v:userDefs>
			<v:textBlock v:margins="rect(4,4,4,4)"/>
			<v:textRect cx="21.2819" cy="107.982" width="42.57" height="18.0366"/>
			<rect x="0" y="98.9634" width="42.5638" height="18.0366" class="st1"/>
			<text x="4" y="109.78" class="st3" v:langID="1029"><v:paragraph/><v:tabList/>Time (hours)</text>		</g>
		<g id="shape1058-153" v:mID="1058" v:groupContext="shape" transform="translate(524.872,-40.4267)">
			<title>Sheet.1058</title>
			<desc>35.31</desc>
			<v:userDefs>
				<v:ud v:nameU="visNavOrder" v:val="VT0(55000):26"/>
			</v:userDefs>
			<v:textBlock v:margins="rect(4,4,4,4)"/>
			<v:textRect cx="21.2819" cy="107.982" width="42.57" height="18.0366"/>
			<rect x="0" y="98.9634" width="42.5638" height="18.0366" class="st1"/>
			<text x="18.05" y="110.68" class="st2" v:langID="1029"><v:paragraph v:horizAlign="2"/><v:tabList/>35.31</text>		</g>
		<g id="shape1059-156" v:mID="1059" v:groupContext="shape" transform="translate(524.872,-22.3901)">
			<title>Sheet.1059</title>
			<desc>50.89</desc>
			<v:userDefs>
				<v:ud v:nameU="visNavOrder" v:val="VT0(56000):26"/>
			</v:userDefs>
			<v:textBlock v:margins="rect(4,4,4,4)"/>
			<v:textRect cx="21.2819" cy="107.982" width="42.57" height="18.0366"/>
			<rect x="0" y="98.9634" width="42.5638" height="18.0366" class="st1"/>
			<text x="18.05" y="110.68" class="st2" v:langID="1029"><v:paragraph v:horizAlign="2"/><v:tabList/>50.89</text>		</g>
		<g id="shape1060-159" v:mID="1060" v:groupContext="shape" transform="translate(524.872,-4.35352)">
			<title>Sheet.1060</title>
			<v:userDefs>
				<v:ud v:nameU="visNavOrder" v:val="VT0(57000):26"/>
			</v:userDefs>
			<v:textBlock v:margins="rect(4,4,4,4)"/>
			<rect x="0" y="98.9634" width="42.5638" height="18.0366" class="st1"/>
		</g>
		<g id="shape1061-161" v:mID="1061" v:groupContext="shape" transform="translate(524.028,-4.48168)">
			<title>Sheet.1061</title>
			<desc>72.31</desc>
			<v:userDefs>
				<v:ud v:nameU="visNavOrder" v:val="VT0(58000):26"/>
			</v:userDefs>
			<v:textBlock v:margins="rect(4,4,4,4)"/>
			<v:textRect cx="21.2819" cy="107.982" width="42.57" height="18.0366"/>
			<rect x="0" y="98.9634" width="42.5638" height="18.0366" class="st5"/>
			<text x="18.05" y="110.68" class="st2" v:langID="1029"><v:paragraph v:horizAlign="2"/><v:tabList/>72.31</text>		</g>
		<g id="shape1062-164" v:mID="1062" v:groupContext="shape" transform="translate(567.526,-58.4634)">
			<title>Sheet.1062</title>
			<desc>Final price (euro)</desc>
			<v:userDefs>
				<v:ud v:nameU="visNavOrder" v:val="VT0(59000):26"/>
			</v:userDefs>
			<v:textBlock v:margins="rect(4,4,4,4)"/>
			<v:textRect cx="23.3622" cy="107.982" width="46.73" height="18.0366"/>
			<rect x="0" y="98.9634" width="46.7244" height="18.0366" class="st1"/>
			<text x="4" y="106.18" class="st3" v:langID="1029"><v:paragraph/><v:tabList/>Final price <tspan x="4" dy="1.2em"
						class="st4">(euro)</tspan></text>		</g>
		<g id="shape1063-168" v:mID="1063" v:groupContext="shape" transform="translate(567.526,-40.4268)">
			<title>Sheet.1063</title>
			<desc>463.12</desc>
			<v:userDefs>
				<v:ud v:nameU="visNavOrder" v:val="VT0(60000):26"/>
			</v:userDefs>
			<v:textBlock v:margins="rect(4,4,4,4)"/>
			<v:textRect cx="23.3622" cy="107.982" width="46.73" height="18.0366"/>
			<rect x="0" y="98.9634" width="46.7244" height="18.0366" class="st1"/>
			<text x="17.64" y="110.68" class="st2" v:langID="1029"><v:paragraph v:horizAlign="2"/><v:tabList/>463.12</text>		</g>
		<g id="shape1064-171" v:mID="1064" v:groupContext="shape" transform="translate(567.526,-22.3902)">
			<title>Sheet.1064</title>
			<desc>370.50</desc>
			<v:userDefs>
				<v:ud v:nameU="visNavOrder" v:val="VT0(61000):26"/>
			</v:userDefs>
			<v:textBlock v:margins="rect(4,4,4,4)"/>
			<v:textRect cx="23.3622" cy="107.982" width="46.73" height="18.0366"/>
			<rect x="0" y="98.9634" width="46.7244" height="18.0366" class="st1"/>
			<text x="17.64" y="110.68" class="st2" v:langID="1029"><v:paragraph v:horizAlign="2"/><v:tabList/>370.50</text>		</g>
		<g id="shape1065-174" v:mID="1065" v:groupContext="shape" transform="translate(567.526,-4.35356)">
			<title>Sheet.1065</title>
			<desc>4 352.97</desc>
			<v:userDefs>
				<v:ud v:nameU="visNavOrder" v:val="VT0(62000):26"/>
			</v:userDefs>
			<v:textBlock v:margins="rect(4,4,4,4)"/>
			<v:textRect cx="23.3622" cy="107.982" width="46.73" height="18.0366"/>
			<rect x="0" y="98.9634" width="46.7244" height="18.0366" class="st1"/>
			<text x="11.05" y="110.68" class="st2" v:langID="1029"><v:paragraph v:horizAlign="2"/><v:tabList/>4 352.97</text>		</g>
		<g id="shape1066-177" v:mID="1066" v:groupContext="shape" transform="translate(620.321,-76.4634)">
			<title>Sheet.1066</title>
			<desc>Slow</desc>
			<v:userDefs>
				<v:ud v:nameU="visNavOrder" v:val="VT0(78000):26"/>
			</v:userDefs>
			<v:textBlock v:margins="rect(4,4,4,4)"/>
			<v:textRect cx="65.5893" cy="107.982" width="131.18" height="18.0366"/>
			<rect x="0" y="98.9634" width="131.179" height="18.0366" class="st1"/>
			<text x="4" y="110.68" class="st2" v:langID="1029"><v:paragraph/><v:tabList/>Slow</text>		</g>
		<g id="shape1067-180" v:mID="1067" v:groupContext="shape" transform="translate(620.321,-58.4267)">
			<title>Sheet.1067</title>
			<desc>Admin (hours)</desc>
			<v:userDefs>
				<v:ud v:nameU="visNavOrder" v:val="VT0(64000):26"/>
			</v:userDefs>
			<v:textBlock v:margins="rect(4,4,4,4)"/>
			<v:textRect cx="21.2819" cy="107.982" width="42.57" height="18.0366"/>
			<rect x="0" y="98.9634" width="42.5638" height="18.0366" class="st1"/>
			<text x="4" y="106.18" class="st3" v:langID="1029"><v:paragraph/><v:tabList/>Admin <tspan x="4" dy="1.2em" class="st4">(hours)</tspan></text>		</g>
		<g id="shape1068-184" v:mID="1068" v:groupContext="shape" transform="translate(620.321,-40.3901)">
			<title>Sheet.1068</title>
			<desc>120</desc>
			<v:userDefs>
				<v:ud v:nameU="visNavOrder" v:val="VT0(65000):26"/>
			</v:userDefs>
			<v:textBlock v:margins="rect(4,4,4,4)"/>
			<v:textRect cx="21.2819" cy="107.982" width="42.57" height="18.0366"/>
			<rect x="0" y="98.9634" width="42.5638" height="18.0366" class="st1"/>
			<text x="24.88" y="110.68" class="st2" v:langID="1029"><v:paragraph v:horizAlign="2"/><v:tabList/>120</text>		</g>
		<g id="shape1069-187" v:mID="1069" v:groupContext="shape" transform="translate(620.321,-22.3535)">
			<title>Sheet.1069</title>
			<desc>120</desc>
			<v:userDefs>
				<v:ud v:nameU="visNavOrder" v:val="VT0(66000):26"/>
			</v:userDefs>
			<v:textBlock v:margins="rect(4,4,4,4)"/>
			<v:textRect cx="21.2819" cy="107.982" width="42.57" height="18.0366"/>
			<rect x="0" y="98.9634" width="42.5638" height="18.0366" class="st1"/>
			<text x="24.88" y="110.68" class="st2" v:langID="1029"><v:paragraph v:horizAlign="2"/><v:tabList/>120</text>		</g>
		<g id="shape1070-190" v:mID="1070" v:groupContext="shape" transform="translate(620.321,-4.3169)">
			<title>Sheet.1070</title>
			<v:userDefs>
				<v:ud v:nameU="visNavOrder" v:val="VT0(67000):26"/>
			</v:userDefs>
			<rect x="0" y="98.9634" width="42.5638" height="18.0366" class="st1"/>
		</g>
		<g id="shape1071-192" v:mID="1071" v:groupContext="shape" transform="translate(619.477,-4.44505)">
			<title>Sheet.1071</title>
			<desc>240</desc>
			<v:userDefs>
				<v:ud v:nameU="visNavOrder" v:val="VT0(68000):26"/>
			</v:userDefs>
			<v:textBlock v:margins="rect(4,4,4,4)"/>
			<v:textRect cx="21.2819" cy="107.982" width="42.57" height="18.0366"/>
			<rect x="0" y="98.9634" width="42.5638" height="18.0366" class="st5"/>
			<text x="24.88" y="110.68" class="st2" v:langID="1029"><v:paragraph v:horizAlign="2"/><v:tabList/>240</text>		</g>
		<g id="shape1072-195" v:mID="1072" v:groupContext="shape" transform="translate(662.742,-58.4634)">
			<title>Sheet.1072</title>
			<desc>Time (hours)</desc>
			<v:userDefs>
				<v:ud v:nameU="visNavOrder" v:val="VT0(69000):26"/>
			</v:userDefs>
			<v:textBlock v:margins="rect(4,4,4,4)"/>
			<v:textRect cx="21.2819" cy="107.982" width="42.57" height="18.0366"/>
			<rect x="0" y="98.9634" width="42.5638" height="18.0366" class="st1"/>
			<text x="4" y="109.78" class="st3" v:langID="1029"><v:paragraph/><v:tabList/>Time (hours)</text>		</g>
		<g id="shape1073-198" v:mID="1073" v:groupContext="shape" transform="translate(662.742,-40.4267)">
			<title>Sheet.1073</title>
			<desc>123.31</desc>
			<v:userDefs>
				<v:ud v:nameU="visNavOrder" v:val="VT0(70000):26"/>
			</v:userDefs>
			<v:textBlock v:margins="rect(4,4,4,4)"/>
			<v:textRect cx="21.2819" cy="107.982" width="42.57" height="18.0366"/>
			<rect x="0" y="98.9634" width="42.5638" height="18.0366" class="st1"/>
			<text x="13.48" y="110.68" class="st2" v:langID="1029"><v:paragraph v:horizAlign="2"/><v:tabList/>123.31</text>		</g>
		<g id="shape1074-201" v:mID="1074" v:groupContext="shape" transform="translate(662.742,-22.3901)">
			<title>Sheet.1074</title>
			<desc>122.89</desc>
			<v:userDefs>
				<v:ud v:nameU="visNavOrder" v:val="VT0(71000):26"/>
			</v:userDefs>
			<v:textBlock v:margins="rect(4,4,4,4)"/>
			<v:textRect cx="21.2819" cy="107.982" width="42.57" height="18.0366"/>
			<rect x="0" y="98.9634" width="42.5638" height="18.0366" class="st1"/>
			<text x="13.48" y="110.68" class="st2" v:langID="1029"><v:paragraph v:horizAlign="2"/><v:tabList/>122.89</text>		</g>
		<g id="shape1075-204" v:mID="1075" v:groupContext="shape" transform="translate(662.742,-4.35352)">
			<title>Sheet.1075</title>
			<v:userDefs>
				<v:ud v:nameU="visNavOrder" v:val="VT0(72000):26"/>
			</v:userDefs>
			<v:textBlock v:margins="rect(4,4,4,4)"/>
			<rect x="0" y="98.9634" width="42.5638" height="18.0366" class="st1"/>
		</g>
		<g id="shape1076-206" v:mID="1076" v:groupContext="shape" transform="translate(661.899,-4.48168)">
			<title>Sheet.1076</title>
			<desc>240.31</desc>
			<v:userDefs>
				<v:ud v:nameU="visNavOrder" v:val="VT0(73000):26"/>
			</v:userDefs>
			<v:textBlock v:margins="rect(4,4,4,4)"/>
			<v:textRect cx="21.2819" cy="107.982" width="42.57" height="18.0366"/>
			<rect x="0" y="98.9634" width="42.5638" height="18.0366" class="st5"/>
			<text x="13.48" y="110.68" class="st2" v:langID="1029"><v:paragraph v:horizAlign="2"/><v:tabList/>240.31</text>		</g>
		<g id="shape1077-209" v:mID="1077" v:groupContext="shape" transform="translate(705.396,-58.4634)">
			<title>Sheet.1077</title>
			<desc>Final price (euro)</desc>
			<v:userDefs>
				<v:ud v:nameU="visNavOrder" v:val="VT0(74000):26"/>
			</v:userDefs>
			<v:textBlock v:margins="rect(4,4,4,4)"/>
			<v:textRect cx="23.0519" cy="107.982" width="46.11" height="18.0366"/>
			<rect x="0" y="98.9634" width="46.1038" height="18.0366" class="st1"/>
			<text x="4" y="106.18" class="st3" v:langID="1029"><v:paragraph/><v:tabList/>Final price <tspan x="4" dy="1.2em"
						class="st4">(euro)</tspan></text>		</g>
		<g id="shape1078-213" v:mID="1078" v:groupContext="shape" transform="translate(705.396,-40.4268)">
			<title>Sheet.1078</title>
			<desc>277.87</desc>
			<v:userDefs>
				<v:ud v:nameU="visNavOrder" v:val="VT0(75000):26"/>
			</v:userDefs>
			<v:textBlock v:margins="rect(4,4,4,4)"/>
			<v:textRect cx="23.0519" cy="107.982" width="46.11" height="18.0366"/>
			<rect x="0" y="98.9634" width="46.1038" height="18.0366" class="st10"/>
			<text x="17.02" y="110.68" class="st2" v:langID="1029"><v:paragraph v:horizAlign="2"/><v:tabList/>277.87</text>		</g>
		<g id="shape1079-216" v:mID="1079" v:groupContext="shape" transform="translate(705.396,-22.3902)">
			<title>Sheet.1079</title>
			<desc>185.25</desc>
			<v:userDefs>
				<v:ud v:nameU="visNavOrder" v:val="VT0(76000):26"/>
			</v:userDefs>
			<v:textBlock v:margins="rect(4,4,4,4)"/>
			<v:textRect cx="23.0519" cy="107.982" width="46.11" height="18.0366"/>
			<rect x="0" y="98.9634" width="46.1038" height="18.0366" class="st10"/>
			<text x="17.02" y="110.68" class="st2" v:langID="1029"><v:paragraph v:horizAlign="2"/><v:tabList/>185.25</text>		</g>
		<g id="shape1080-219" v:mID="1080" v:groupContext="shape" transform="translate(705.396,-4.35356)">
			<title>Sheet.1080</title>
			<desc>3 917.68</desc>
			<v:userDefs>
				<v:ud v:nameU="visNavOrder" v:val="VT0(77000):26"/>
			</v:userDefs>
			<v:textBlock v:margins="rect(4,4,4,4)"/>
			<v:textRect cx="23.0519" cy="107.982" width="46.11" height="18.0366"/>
			<rect x="0" y="98.9634" width="46.1038" height="18.0366" class="st10"/>
			<text x="10.43" y="110.68" class="st2" v:langID="1029"><v:paragraph v:horizAlign="2"/><v:tabList/>3 917.68</text>		</g>
	</g>
</svg>
