<?xml version="1.0" encoding="UTF-8" standalone="no"?>
<!DOCTYPE svg PUBLIC "-//W3C//DTD SVG 1.1//EN" "http://www.w3.org/Graphics/SVG/1.1/DTD/svg11.dtd">
<!-- Generated by Microsoft Visio, SVG Export F7_metrics_UC1_advanced.svg Page-4 -->
<svg xmlns="http://www.w3.org/2000/svg" xmlns:xlink="http://www.w3.org/1999/xlink" xmlns:ev="http://www.w3.org/2001/xml-events"
		xmlns:v="http://schemas.microsoft.com/visio/2003/SVGExtensions/" width="9.21875in" height="1.375in" viewBox="0 0 663.75 99"
		xml:space="preserve" color-interpolation-filters="sRGB" class="st10">
	<v:documentProperties v:langID="1033" v:viewMarkup="false">
		<v:userDefs>
			<v:ud v:nameU="msvNoAutoConnect" v:val="VT0(1):26"/>
		</v:userDefs>
	</v:documentProperties>

	<style type="text/css">
	<![CDATA[
		.st1 {fill:none;stroke:#000000;stroke-linecap:round;stroke-linejoin:round;stroke-width:0.25}
		.st2 {fill:#000000;font-family:Calibri;font-size:0.75em}
		.st3 {fill:#1f1f1f;stroke:none;stroke-linecap:butt;stroke-width:0.01875}
		.st4 {fill:#dbeef3;stroke:#000000;stroke-linecap:round;stroke-linejoin:round;stroke-width:0.25}
		.st5 {fill:url(#grad1-61);stroke:#000000;stroke-linecap:round;stroke-linejoin:round;stroke-width:0.25}
		.st6 {fill:none;stroke:none;stroke-linecap:round;stroke-linejoin:round;stroke-width:0.25}
		.st7 {fill:#d8d8d8;stroke:#000000;stroke-linecap:round;stroke-linejoin:round;stroke-width:0.25}
		.st8 {fill:#92d050;stroke:#000000;stroke-linecap:round;stroke-linejoin:round;stroke-width:0.25}
		.st9 {fill:#000000;font-family:Calibri;font-size:0.75em;font-weight:bold}
		.st10 {fill:none;fill-rule:evenodd;font-size:12px;overflow:visible;stroke-linecap:square;stroke-miterlimit:3}
	]]>
	</style>

	<defs id="Patterns_And_Gradients">
		<radialGradient id="grad1-61" cx="1" cy="1" r="1.4">
			<stop offset="0" stop-color="#fee599" stop-opacity="1"/>
			<stop offset="0.93" stop-color="#e5b9b5" stop-opacity="1"/>
		</radialGradient>
	</defs>
	<g v:mID="6" v:index="3" v:groupContext="foregroundPage">
		<v:userDefs>
			<v:ud v:nameU="visNavType" v:val="VT0(1):26"/>
		</v:userDefs>
		<title>UC1 ADVANCED</title>
		<v:pageProperties v:drawingScale="1" v:pageScale="1" v:drawingUnits="19" v:shadowOffsetX="9" v:shadowOffsetY="-9"/>
		<v:layer v:name="Flowchart" v:index="0"/>
		<g id="shape1000-1" v:mID="1000" v:groupContext="shape" transform="translate(4.5,-40.4268)">
			<title>Sheet.1000</title>
			<desc>Truck</desc>
			<v:userDefs>
				<v:ud v:nameU="visNavOrder" v:val="VT0(1000):26"/>
			</v:userDefs>
			<v:textBlock v:margins="rect(4,4,4,4)"/>
			<v:textRect cx="33.2849" cy="89.9817" width="66.57" height="18.0366"/>
			<rect x="0" y="80.9634" width="66.5698" height="18.0366" class="st1"/>
			<text x="4" y="92.68" class="st2" v:langID="1029"><v:paragraph/><v:tabList/>Truck</text>		</g>
		<g id="shape1001-4" v:mID="1001" v:groupContext="shape" transform="translate(71.0698,-40.4268)">
			<title>Sheet.1001</title>
			<desc>1 411.89</desc>
			<v:userDefs>
				<v:ud v:nameU="visNavOrder" v:val="VT0(2000):26"/>
			</v:userDefs>
			<v:textBlock v:margins="rect(4,4,4,4)"/>
			<v:textRect cx="30.9144" cy="89.9817" width="61.83" height="18.0366"/>
			<rect x="0" y="80.9634" width="61.8287" height="18.0366" class="st1"/>
			<text x="26.15" y="92.68" class="st2" v:langID="1029"><v:paragraph v:horizAlign="2"/><v:tabList/>1 411.89</text>		</g>
		<g id="shape1002-7" v:mID="1002" v:groupContext="shape" transform="translate(132.899,-40.4268)">
			<title>Sheet.1002</title>
			<desc>705.94</desc>
			<v:userDefs>
				<v:ud v:nameU="visNavOrder" v:val="VT0(3000):26"/>
			</v:userDefs>
			<v:textBlock v:margins="rect(4,4,4,4)"/>
			<v:textRect cx="30.9144" cy="89.9817" width="61.83" height="18.0366"/>
			<rect x="0" y="80.9634" width="61.8287" height="18.0366" class="st1"/>
			<text x="32.75" y="92.68" class="st2" v:langID="1029"><v:paragraph v:horizAlign="2"/><v:tabList/>705.94</text>		</g>
		<g id="shape1003-10" v:mID="1003" v:groupContext="shape" transform="translate(4.5,-22.3901)">
			<title>Sheet.1003</title>
			<desc>Train</desc>
			<v:userDefs>
				<v:ud v:nameU="visNavOrder" v:val="VT0(4000):26"/>
			</v:userDefs>
			<v:textBlock v:margins="rect(4,4,4,4)"/>
			<v:textRect cx="33.2849" cy="89.9817" width="66.57" height="18.0366"/>
			<rect x="0" y="80.9634" width="66.5698" height="18.0366" class="st1"/>
			<text x="4" y="92.68" class="st2" v:langID="1029"><v:paragraph/><v:tabList/>Train</text>		</g>
		<g id="shape1004-13" v:mID="1004" v:groupContext="shape" transform="translate(4.5,-4.35354)">
			<title>Sheet.1004</title>
			<desc>Airplane</desc>
			<v:userDefs>
				<v:ud v:nameU="visNavOrder" v:val="VT0(5000):26"/>
			</v:userDefs>
			<v:textBlock v:margins="rect(4,4,4,4)"/>
			<v:textRect cx="33.2849" cy="89.9817" width="66.57" height="18.0366"/>
			<rect x="0" y="80.9634" width="66.5698" height="18.0366" class="st1"/>
			<text x="4" y="92.68" class="st2" v:langID="1029"><v:paragraph/><v:tabList/>Airplane</text>		</g>
		<g id="shape1005-16" v:mID="1005" v:groupContext="shape" transform="translate(71.0698,-22.3901)">
			<title>Sheet.1005</title>
			<desc>1 129.51</desc>
			<v:userDefs>
				<v:ud v:nameU="visNavOrder" v:val="VT0(6000):26"/>
			</v:userDefs>
			<v:textBlock v:margins="rect(4,4,4,4)"/>
			<v:textRect cx="30.9144" cy="89.9817" width="61.83" height="18.0366"/>
			<rect x="0" y="80.9634" width="61.8287" height="18.0366" class="st1"/>
			<text x="26.15" y="92.68" class="st2" v:langID="1029"><v:paragraph v:horizAlign="2"/><v:tabList/>1 129.51</text>		</g>
		<g id="shape1006-19" v:mID="1006" v:groupContext="shape" transform="translate(71.0698,-4.35354)">
			<title>Sheet.1006</title>
			<desc>10 371.52</desc>
			<v:userDefs>
				<v:ud v:nameU="visNavOrder" v:val="VT0(7000):26"/>
			</v:userDefs>
			<v:textBlock v:margins="rect(4,4,4,4)"/>
			<v:textRect cx="30.9144" cy="89.9817" width="61.83" height="18.0366"/>
			<rect x="0" y="80.9634" width="61.8287" height="18.0366" class="st1"/>
			<text x="21.59" y="92.68" class="st2" v:langID="1029"><v:paragraph v:horizAlign="2"/><v:tabList/>10 371.52</text>		</g>
		<g id="shape1007-22" v:mID="1007" v:groupContext="shape" transform="translate(132.899,-22.3901)">
			<title>Sheet.1007</title>
			<desc>705.94</desc>
			<v:userDefs>
				<v:ud v:nameU="visNavOrder" v:val="VT0(8000):26"/>
			</v:userDefs>
			<v:textBlock v:margins="rect(4,4,4,4)"/>
			<v:textRect cx="30.9144" cy="89.9817" width="61.83" height="18.0366"/>
			<rect x="0" y="80.9634" width="61.8287" height="18.0366" class="st1"/>
			<text x="32.75" y="92.68" class="st2" v:langID="1029"><v:paragraph v:horizAlign="2"/><v:tabList/>705.94</text>		</g>
		<g id="shape1008-25" v:mID="1008" v:groupContext="shape" transform="translate(132.899,-4.35354)">
			<title>Sheet.1008</title>
			<desc>518.58</desc>
			<v:userDefs>
				<v:ud v:nameU="visNavOrder" v:val="VT0(9000):26"/>
			</v:userDefs>
			<v:textBlock v:margins="rect(4,4,4,4)"/>
			<v:textRect cx="30.9144" cy="89.9817" width="61.83" height="18.0366"/>
			<rect x="0" y="80.9634" width="61.8287" height="18.0366" class="st1"/>
			<text x="32.75" y="92.68" class="st2" v:langID="1029"><v:paragraph v:horizAlign="2"/><v:tabList/>518.58</text>		</g>
		<g id="shape1009-28" v:mID="1009" v:groupContext="shape" transform="translate(194.671,-40.4268)">
			<title>Sheet.1009</title>
			<desc>10.08</desc>
			<v:userDefs>
				<v:ud v:nameU="visNavOrder" v:val="VT0(10000):26"/>
			</v:userDefs>
			<v:textBlock v:margins="rect(4,4,4,4)"/>
			<v:textRect cx="30.9144" cy="89.9817" width="61.83" height="18.0366"/>
			<rect x="0" y="80.9634" width="61.8287" height="18.0366" class="st1"/>
			<text x="37.31" y="92.68" class="st2" v:langID="1029"><v:paragraph v:horizAlign="2"/><v:tabList/>10.08</text>		</g>
		<g id="shape1010-31" v:mID="1010" v:groupContext="shape" transform="translate(194.671,-22.3901)">
			<title>Sheet.1010</title>
			<desc>8.82</desc>
			<v:userDefs>
				<v:ud v:nameU="visNavOrder" v:val="VT0(11000):26"/>
			</v:userDefs>
			<v:textBlock v:margins="rect(4,4,4,4)"/>
			<v:textRect cx="30.9144" cy="89.9817" width="61.83" height="18.0366"/>
			<rect x="0" y="80.9634" width="61.8287" height="18.0366" class="st1"/>
			<text x="41.87" y="92.68" class="st2" v:langID="1029"><v:paragraph v:horizAlign="2"/><v:tabList/>8.82</text>		</g>
		<g id="shape1011-34" v:mID="1011" v:groupContext="shape" transform="translate(194.671,-4.35354)">
			<title>Sheet.1011</title>
			<desc>0.74</desc>
			<v:userDefs>
				<v:ud v:nameU="visNavOrder" v:val="VT0(12000):26"/>
			</v:userDefs>
			<v:textBlock v:margins="rect(4,4,4,4)"/>
			<v:textRect cx="30.9144" cy="89.9817" width="61.83" height="18.0366"/>
			<rect x="0" y="80.9634" width="61.8287" height="18.0366" class="st1"/>
			<text x="41.87" y="92.68" class="st2" v:langID="1029"><v:paragraph v:horizAlign="2"/><v:tabList/>0.74</text>		</g>
		<g id="shape1013-37" v:mID="1013" v:groupContext="shape" transform="translate(71.0698,-58.4634)">
			<title>Sheet.1013</title>
			<desc>Cost (euro)</desc>
			<v:userDefs>
				<v:ud v:nameU="visNavOrder" v:val="VT0(14000):26"/>
			</v:userDefs>
			<v:textBlock v:margins="rect(4,4,4,4)"/>
			<v:textRect cx="30.9144" cy="89.9817" width="61.83" height="18.0366"/>
			<rect x="0" y="80.9634" width="61.8287" height="18.0366" class="st1"/>
			<text x="4" y="92.68" class="st2" v:langID="1029"><v:paragraph/><v:tabList/>Cost (euro)</text>		</g>
		<g id="shape1014-40" v:mID="1014" v:groupContext="shape" transform="translate(132.899,-58.4634)">
			<title>Sheet.1014</title>
			<desc>Distance (km)</desc>
			<v:userDefs>
				<v:ud v:nameU="visNavOrder" v:val="VT0(15000):26"/>
			</v:userDefs>
			<v:textBlock v:margins="rect(4,4,4,4)"/>
			<v:textRect cx="30.9144" cy="89.9817" width="61.83" height="18.0366"/>
			<rect x="0" y="80.9634" width="61.8287" height="18.0366" class="st1"/>
			<text x="4" y="92.68" class="st2" v:langID="1029"><v:paragraph/><v:tabList/>Distance (km)</text>		</g>
		<g id="shape1015-43" v:mID="1015" v:groupContext="shape" transform="translate(194.671,-58.4634)">
			<title>Sheet.1015</title>
			<desc>Time (hours)</desc>
			<v:userDefs>
				<v:ud v:nameU="visNavOrder" v:val="VT0(16000):26"/>
			</v:userDefs>
			<v:textBlock v:margins="rect(4,4,4,4)"/>
			<v:textRect cx="30.9144" cy="89.9817" width="61.83" height="18.0366"/>
			<rect x="0" y="80.9634" width="61.8287" height="18.0366" class="st1"/>
			<text x="4" y="92.68" class="st2" v:langID="1029"><v:paragraph/><v:tabList/>Time (hours)</text>		</g>
		<g id="group1016-46" transform="translate(46.5,-42.7134)" v:mID="1016" v:groupContext="group">
			<v:userDefs>
				<v:ud v:nameU="visNavOrder" v:val="VT0(17000):26"/>
			</v:userDefs>
			<title>Sheet.1016</title>
			<g id="shape1017-47" v:mID="1017" v:groupContext="shape">
				<title>Sheet.1017</title>
				<path d="M3.75 99 C3.13 99 2.59 98.78 2.16 98.34 C1.72 97.91 1.5 97.38 1.5 96.75 L0 96.75 L0 88.5 C0 88.09 0.15 87.73
							 0.44 87.44 C0.73 87.15 1.09 87 1.5 87 L12 87 L12 90 L14.25 90 L16.5 93 L16.5 96.75 L15 96.75 C15 97.38
							 14.78 97.91 14.34 98.34 C13.91 98.78 13.38 99 12.75 99 C12.13 99 11.59 98.78 11.16 98.34 C10.72 97.91
							 10.5 97.38 10.5 96.75 L6 96.75 C6 97.38 5.78 97.91 5.34 98.34 C4.91 98.78 4.38 99 3.75 99 ZM3.75 97.5
							 C3.96 97.5 4.14 97.43 4.28 97.28 C4.43 97.14 4.5 96.96 4.5 96.75 C4.5 96.54 4.43 96.36 4.28 96.22 C4.14
							 96.07 3.96 96 3.75 96 C3.54 96 3.36 96.07 3.22 96.22 C3.07 96.36 3 96.54 3 96.75 C3 96.96 3.07 97.14
							 3.22 97.28 C3.36 97.43 3.54 97.5 3.75 97.5 ZM1.5 95.25 L2.1 95.25 C2.31 95.03 2.56 94.84 2.83 94.71
							 C3.11 94.57 3.41 94.5 3.75 94.5 C4.09 94.5 4.39 94.57 4.67 94.71 C4.94 94.84 5.19 95.03 5.4 95.25 L10.5
							 95.25 L10.5 88.5 L1.5 88.5 L1.5 95.25 ZM12.75 97.5 C12.96 97.5 13.14 97.43 13.28 97.28 C13.43 97.14
							 13.5 96.96 13.5 96.75 C13.5 96.54 13.43 96.36 13.28 96.22 C13.14 96.07 12.96 96 12.75 96 C12.54 96 12.36
							 96.07 12.22 96.22 C12.07 96.36 12 96.54 12 96.75 C12 96.96 12.07 97.14 12.22 97.28 C12.36 97.43 12.54
							 97.5 12.75 97.5 ZM12 93.75 L15.19 93.75 L13.5 91.5 L12 91.5 L12 93.75 Z" class="st3"/>
			</g>
		</g>
		<g id="group1018-49" transform="translate(48,-24.3384)" v:mID="1018" v:groupContext="group">
			<v:userDefs>
				<v:ud v:nameU="visNavOrder" v:val="VT0(18000):26"/>
			</v:userDefs>
			<title>Sheet.1018</title>
			<g id="shape1019-50" v:mID="1019" v:groupContext="shape">
				<title>Sheet.1019</title>
				<path d="M0 94.88 L0 87.75 C0 87.09 0.17 86.56 0.52 86.17 C0.86 85.77 1.31 85.47 1.88 85.27 C2.44 85.06 3.08 84.92
							 3.8 84.85 C4.52 84.78 5.25 84.75 6 84.75 C6.83 84.75 7.6 84.78 8.33 84.85 C9.07 84.92 9.7 85.06 10.25
							 85.27 C10.79 85.47 11.22 85.77 11.53 86.17 C11.84 86.56 12 87.09 12 87.75 L12 94.88 C12 95.61 11.75
							 96.23 11.24 96.74 C10.73 97.25 10.11 97.5 9.38 97.5 L10.5 98.63 L10.5 99 L9 99 L7.5 97.5 L4.5 97.5 L3
							 99 L1.5 99 L1.5 98.63 L2.63 97.5 C1.89 97.5 1.27 97.25 0.76 96.74 C0.25 96.23 0 95.61 0 94.88 ZM6 86.25
							 C4.68 86.25 3.71 86.33 3.09 86.48 C2.48 86.64 2.06 86.81 1.84 87 L10.24 87 C10.05 86.79 9.65 86.61 9.03
							 86.47 C8.41 86.32 7.4 86.25 6 86.25 ZM1.5 90.75 L5.25 90.75 L5.25 88.5 L1.5 88.5 L1.5 90.75 ZM9.38 92.25
							 L1.5 92.25 L10.5 92.25 L9.38 92.25 ZM6.75 90.75 L10.5 90.75 L10.5 88.5 L6.75 88.5 L6.75 90.75 ZM3.38
							 95.25 C3.7 95.25 3.97 95.14 4.18 94.93 C4.39 94.72 4.5 94.45 4.5 94.13 C4.5 93.8 4.39 93.53 4.18 93.32
							 C3.97 93.11 3.7 93 3.38 93 C3.05 93 2.78 93.11 2.57 93.32 C2.36 93.53 2.25 93.8 2.25 94.13 C2.25 94.45
							 2.36 94.72 2.57 94.93 C2.78 95.14 3.05 95.25 3.38 95.25 ZM8.63 95.25 C8.95 95.25 9.22 95.14 9.43 94.93
							 C9.64 94.72 9.75 94.45 9.75 94.13 C9.75 93.8 9.64 93.53 9.43 93.32 C9.22 93.11 8.95 93 8.63 93 C8.3
							 93 8.03 93.11 7.82 93.32 C7.61 93.53 7.5 93.8 7.5 94.13 C7.5 94.45 7.61 94.72 7.82 94.93 C8.03 95.14
							 8.3 95.25 8.63 95.25 ZM2.63 96 L9.38 96 C9.7 96 9.97 95.89 10.18 95.68 C10.39 95.47 10.5 95.2 10.5 94.88
							 L10.5 92.25 L1.5 92.25 L1.5 94.88 C1.5 95.2 1.61 95.47 1.82 95.68 C2.03 95.89 2.3 96 2.63 96 ZM6 87
							 L10.24 87 L1.84 87 L6 87 Z" class="st3"/>
			</g>
		</g>
		<g id="group1020-52" transform="translate(47.1469,-5.86964)" v:mID="1020" v:groupContext="group">
			<v:userDefs>
				<v:ud v:nameU="visNavOrder" v:val="VT0(19000):26"/>
			</v:userDefs>
			<title>Sheet.1020</title>
			<g id="shape1021-53" v:mID="1021" v:groupContext="shape">
				<title>Sheet.1021</title>
				<path d="M5.31 99 L3.45 95.55 L0 93.69 L1.33 92.38 L4.05 92.85 L5.96 90.94 L0.02 88.41 L1.59 86.79 L8.81 88.07 L11.14
							 85.74 C11.42 85.46 11.78 85.31 12.21 85.31 C12.63 85.31 12.99 85.46 13.27 85.74 C13.56 86.03 13.71 86.38
							 13.71 86.8 C13.71 87.22 13.56 87.58 13.27 87.86 L10.93 90.21 L12.21 97.41 L10.61 99 L8.06 93.06 L6.15
							 94.97 L6.64 97.67 L5.31 99 Z" class="st3"/>
			</g>
		</g>
		<g id="shape1022-55" v:mID="1022" v:groupContext="shape" transform="translate(71.0698,-76.5)">
			<title>Sheet.1022</title>
			<desc>Transport A to B</desc>
			<v:userDefs>
				<v:ud v:nameU="visNavOrder" v:val="VT0(20000):26"/>
			</v:userDefs>
			<v:textBlock v:margins="rect(4,4,4,4)"/>
			<v:textRect cx="92.7151" cy="89.9817" width="185.44" height="18.0366"/>
			<rect x="0" y="80.9634" width="185.43" height="18.0366" class="st4"/>
			<text x="4" y="92.68" class="st2" v:langID="1029"><v:paragraph/><v:tabList/>Transport A to B</text>		</g>
		<g id="shape1023-58" v:mID="1023" v:groupContext="shape" transform="translate(261.427,-76.5)">
			<title>Sheet.1023</title>
			<desc>Door-to-Door</desc>
			<v:userDefs>
				<v:ud v:nameU="visNavOrder" v:val="VT0(21000):26"/>
			</v:userDefs>
			<v:textBlock v:margins="rect(4,4,4,4)"/>
			<v:textRect cx="33.2849" cy="89.9817" width="66.57" height="18.0366"/>
			<rect x="0" y="80.9634" width="66.5698" height="18.0366" class="st5"/>
			<text x="4" y="92.68" class="st2" v:langID="1029"><v:paragraph/><v:tabList/>Door-to-Door</text>		</g>
		<g id="shape1024-63" v:mID="1024" v:groupContext="shape" transform="translate(261.427,-58.4634)">
			<title>Sheet.1024</title>
			<desc>DTD</desc>
			<v:userDefs>
				<v:ud v:nameU="visNavOrder" v:val="VT0(22000):26"/>
			</v:userDefs>
			<v:textBlock v:margins="rect(4,4,4,4)"/>
			<v:textRect cx="33.2849" cy="89.9817" width="66.57" height="18.0366"/>
			<rect x="0" y="80.9634" width="66.5698" height="18.0366" class="st1"/>
			<text x="4" y="92.68" class="st2" v:langID="1029"><v:paragraph/><v:tabList/>DTD</text>		</g>
		<g id="shape1025-66" v:mID="1025" v:groupContext="shape" transform="translate(261.427,-40.4268)">
			<title>Sheet.1025</title>
			<desc>-</desc>
			<v:userDefs>
				<v:ud v:nameU="visNavOrder" v:val="VT0(23000):26"/>
			</v:userDefs>
			<v:textBlock v:margins="rect(4,4,4,4)"/>
			<v:textRect cx="33.2849" cy="89.9817" width="66.57" height="18.0366"/>
			<rect x="0" y="80.9634" width="66.5698" height="18.0366" class="st1"/>
			<text x="12.14" y="92.68" class="st2" v:langID="1029"><v:paragraph/><v:tabList/>-</text>		</g>
		<g id="shape1026-69" v:mID="1026" v:groupContext="shape" transform="translate(261.427,-22.3901)">
			<title>Sheet.1026</title>
			<desc>-</desc>
			<v:userDefs>
				<v:ud v:nameU="visNavOrder" v:val="VT0(24000):26"/>
			</v:userDefs>
			<v:textBlock v:margins="rect(4,4,4,4)"/>
			<v:textRect cx="33.2849" cy="89.9817" width="66.57" height="18.0366"/>
			<rect x="0" y="80.9634" width="66.5698" height="18.0366" class="st1"/>
			<text x="12.14" y="92.68" class="st2" v:langID="1029"><v:paragraph/><v:tabList/>-</text>		</g>
		<g id="shape1027-72" v:mID="1027" v:groupContext="shape" transform="translate(261.427,-4.35354)">
			<title>Sheet.1027</title>
			<desc>-</desc>
			<v:userDefs>
				<v:ud v:nameU="visNavOrder" v:val="VT0(25000):26"/>
			</v:userDefs>
			<v:textBlock v:margins="rect(4,4,4,4)"/>
			<v:textRect cx="33.2849" cy="89.9817" width="66.57" height="18.0366"/>
			<rect x="0" y="80.9634" width="66.5698" height="18.0366" class="st1"/>
			<text x="12.14" y="92.68" class="st2" v:langID="1029"><v:paragraph/><v:tabList/>-</text>		</g>
		<g id="shape1028-75" v:mID="1028" v:groupContext="shape" transform="translate(260.108,-4.48169)">
			<title>Sheet.1028</title>
			<desc>-</desc>
			<v:userDefs>
				<v:ud v:nameU="visNavOrder" v:val="VT0(26000):26"/>
			</v:userDefs>
			<v:textBlock v:margins="rect(4,4,4,4)"/>
			<v:textRect cx="33.2849" cy="89.9817" width="66.57" height="18.0366"/>
			<rect x="0" y="80.9634" width="66.5698" height="18.0366" class="st6"/>
			<text x="12.14" y="92.68" class="st2" v:langID="1029"><v:paragraph/><v:tabList/>-</text>		</g>
		<g id="shape1029-78" v:mID="1029" v:groupContext="shape" transform="translate(332.865,-76.6465)">
			<title>Sheet.1029</title>
			<desc>Extra time</desc>
			<v:userDefs>
				<v:ud v:nameU="visNavOrder" v:val="VT0(27000):26"/>
			</v:userDefs>
			<v:textBlock v:margins="rect(4,4,4,4)"/>
			<v:textRect cx="33.2849" cy="89.9817" width="66.57" height="18.0366"/>
			<rect x="0" y="80.9634" width="66.5698" height="18.0366" class="st7"/>
			<text x="4" y="92.68" class="st2" v:langID="1029"><v:paragraph/><v:tabList/>Extra time</text>		</g>
		<g id="shape1030-81" v:mID="1030" v:groupContext="shape" transform="translate(332.865,-58.6098)">
			<title>Sheet.1030</title>
			<desc>Breaks (hours)</desc>
			<v:userDefs>
				<v:ud v:nameU="visNavOrder" v:val="VT0(28000):26"/>
			</v:userDefs>
			<v:textBlock v:margins="rect(4,4,4,4)"/>
			<v:textRect cx="33.2849" cy="89.9817" width="66.57" height="18.0366"/>
			<rect x="0" y="80.9634" width="66.5698" height="18.0366" class="st1"/>
			<text x="4" y="92.68" class="st2" v:langID="1029"><v:paragraph/><v:tabList/>Breaks (hours)</text>		</g>
		<g id="shape1031-84" v:mID="1031" v:groupContext="shape" transform="translate(332.865,-40.5732)">
			<title>Sheet.1031</title>
			<desc>10.75</desc>
			<v:userDefs>
				<v:ud v:nameU="visNavOrder" v:val="VT0(29000):26"/>
			</v:userDefs>
			<v:textBlock v:margins="rect(4,4,4,4)"/>
			<v:textRect cx="33.2849" cy="89.9817" width="66.57" height="18.0366"/>
			<rect x="0" y="80.9634" width="66.5698" height="18.0366" class="st1"/>
			<text x="42.05" y="92.68" class="st2" v:langID="1029"><v:paragraph v:horizAlign="2"/><v:tabList/>10.75</text>		</g>
		<g id="shape1032-87" v:mID="1032" v:groupContext="shape" transform="translate(332.865,-22.5366)">
			<title>Sheet.1032</title>
			<desc>-</desc>
			<v:userDefs>
				<v:ud v:nameU="visNavOrder" v:val="VT0(30000):26"/>
			</v:userDefs>
			<v:textBlock v:margins="rect(4,4,4,4)"/>
			<v:textRect cx="33.2849" cy="89.9817" width="66.57" height="18.0366"/>
			<rect x="0" y="80.9634" width="66.5698" height="18.0366" class="st1"/>
			<text x="12.14" y="92.68" class="st2" v:langID="1029"><v:paragraph/><v:tabList/>-</text>		</g>
		<g id="shape1033-90" v:mID="1033" v:groupContext="shape" transform="translate(332.865,-4.5)">
			<title>Sheet.1033</title>
			<desc>-</desc>
			<v:userDefs>
				<v:ud v:nameU="visNavOrder" v:val="VT0(31000):26"/>
			</v:userDefs>
			<v:textBlock v:margins="rect(4,4,4,4)"/>
			<v:textRect cx="33.2849" cy="89.9817" width="66.57" height="18.0366"/>
			<rect x="0" y="80.9634" width="66.5698" height="18.0366" class="st1"/>
			<text x="12.14" y="92.68" class="st2" v:langID="1029"><v:paragraph/><v:tabList/>-</text>		</g>
		<g id="shape1034-93" v:mID="1034" v:groupContext="shape" transform="translate(331.545,-4.62816)">
			<title>Sheet.1034</title>
			<desc>-</desc>
			<v:userDefs>
				<v:ud v:nameU="visNavOrder" v:val="VT0(32000):26"/>
			</v:userDefs>
			<v:textBlock v:margins="rect(4,4,4,4)"/>
			<v:textRect cx="33.2849" cy="89.9817" width="66.57" height="18.0366"/>
			<rect x="0" y="80.9634" width="66.5698" height="18.0366" class="st6"/>
			<text x="12.14" y="92.68" class="st2" v:langID="1029"><v:paragraph/><v:tabList/>-</text>		</g>
		<g id="shape1051-96" v:mID="1051" v:groupContext="shape" transform="translate(537.535,-76.4634)">
			<title>Sheet.1051</title>
			<desc>Overall</desc>
			<v:userDefs>
				<v:ud v:nameU="visNavOrder" v:val="VT0(49000):26"/>
			</v:userDefs>
			<v:textBlock v:margins="rect(4,4,4,4)"/>
			<v:textRect cx="60.179" cy="89.9817" width="120.36" height="18.0366"/>
			<rect x="0" y="80.9634" width="120.358" height="18.0366" class="st8"/>
			<text x="4" y="92.68" class="st2" v:langID="1029"><v:paragraph/><v:tabList/>Overall</text>		</g>
		<g id="shape1052-99" v:mID="1052" v:groupContext="shape" transform="translate(537.587,-58.4268)">
			<title>Sheet.1052</title>
			<desc>Time (hours)</desc>
			<v:userDefs>
				<v:ud v:nameU="visNavOrder" v:val="VT0(50000):26"/>
			</v:userDefs>
			<v:textBlock v:margins="rect(4,4,4,4)"/>
			<v:textRect cx="30.1268" cy="89.9817" width="60.26" height="18.0366"/>
			<rect x="0" y="80.9634" width="60.2537" height="18.0366" class="st1"/>
			<text x="4" y="92.68" class="st2" v:langID="1029"><v:paragraph/><v:tabList/>Time (hours)</text>		</g>
		<g id="shape1053-102" v:mID="1053" v:groupContext="shape" transform="translate(537.587,-40.3901)">
			<title>Sheet.1053</title>
			<desc>52.83</desc>
			<v:userDefs>
				<v:ud v:nameU="visNavOrder" v:val="VT0(51000):26"/>
			</v:userDefs>
			<v:textBlock v:margins="rect(4,4,4,4)"/>
			<v:textRect cx="30.1268" cy="89.9817" width="60.26" height="18.0366"/>
			<rect x="0" y="80.9634" width="60.2537" height="18.0366" class="st1"/>
			<text x="35.6" y="92.68" class="st9" v:langID="1029"><v:paragraph v:horizAlign="2"/><v:tabList/>52.83</text>		</g>
		<g id="shape1054-105" v:mID="1054" v:groupContext="shape" transform="translate(537.587,-22.3535)">
			<title>Sheet.1054</title>
			<desc>56.82</desc>
			<v:userDefs>
				<v:ud v:nameU="visNavOrder" v:val="VT0(52000):26"/>
			</v:userDefs>
			<v:textBlock v:margins="rect(4,4,4,4)"/>
			<v:textRect cx="30.1268" cy="89.9817" width="60.26" height="18.0366"/>
			<rect x="0" y="80.9634" width="60.2537" height="18.0366" class="st1"/>
			<text x="35.6" y="92.68" class="st9" v:langID="1029"><v:paragraph v:horizAlign="2"/><v:tabList/>56.82</text>		</g>
		<g id="shape1055-108" v:mID="1055" v:groupContext="shape" transform="translate(537.587,-4.31691)">
			<title>Sheet.1055</title>
			<desc>-</desc>
			<v:userDefs>
				<v:ud v:nameU="visNavOrder" v:val="VT0(53000):26"/>
			</v:userDefs>
			<v:textBlock v:margins="rect(4,4,4,4)"/>
			<v:textRect cx="30.1268" cy="89.9817" width="60.26" height="18.0366"/>
			<rect x="0" y="80.9634" width="60.2537" height="18.0366" class="st1"/>
			<text x="53.5" y="92.68" class="st9" v:langID="1029"><v:paragraph v:horizAlign="2"/><v:tabList/>-</text>		</g>
		<g id="shape1056-111" v:mID="1056" v:groupContext="shape" transform="translate(536.392,-4.44507)">
			<title>Sheet.1056</title>
			<desc>72.74</desc>
			<v:userDefs>
				<v:ud v:nameU="visNavOrder" v:val="VT0(54000):26"/>
			</v:userDefs>
			<v:textBlock v:margins="rect(4,4,4,4)"/>
			<v:textRect cx="30.1268" cy="89.9817" width="60.26" height="18.0366"/>
			<rect x="0" y="80.9634" width="60.2537" height="18.0366" class="st6"/>
			<text x="35.6" y="92.68" class="st9" v:langID="1029"><v:paragraph v:horizAlign="2"/><v:tabList/>72.74</text>		</g>
		<g id="shape1057-114" v:mID="1057" v:groupContext="shape" transform="translate(597.639,-58.4634)">
			<title>Sheet.1057</title>
			<desc>Price (euro)</desc>
			<v:userDefs>
				<v:ud v:nameU="visNavOrder" v:val="VT0(55000):26"/>
			</v:userDefs>
			<v:textBlock v:margins="rect(4,4,4,4)"/>
			<v:textRect cx="30.1268" cy="89.9817" width="60.26" height="18.0366"/>
			<rect x="0" y="80.9634" width="60.2537" height="18.0366" class="st1"/>
			<text x="4" y="92.68" class="st2" v:langID="1029"><v:paragraph/><v:tabList/>Price (euro)</text>		</g>
		<g id="shape1058-117" v:mID="1058" v:groupContext="shape" transform="translate(597.639,-40.4268)">
			<title>Sheet.1058</title>
			<desc>1 411.89</desc>
			<v:userDefs>
				<v:ud v:nameU="visNavOrder" v:val="VT0(56000):26"/>
			</v:userDefs>
			<v:textBlock v:margins="rect(4,4,4,4)"/>
			<v:textRect cx="30.1268" cy="89.9817" width="60.26" height="18.0366"/>
			<rect x="0" y="80.9634" width="60.2537" height="18.0366" class="st1"/>
			<text x="24.45" y="92.68" class="st9" v:langID="1029"><v:paragraph v:horizAlign="2"/><v:tabList/>1 411.89</text>		</g>
		<g id="shape1059-120" v:mID="1059" v:groupContext="shape" transform="translate(597.639,-22.3901)">
			<title>Sheet.1059</title>
			<desc>1 129.51</desc>
			<v:userDefs>
				<v:ud v:nameU="visNavOrder" v:val="VT0(57000):26"/>
			</v:userDefs>
			<v:textBlock v:margins="rect(4,4,4,4)"/>
			<v:textRect cx="30.1268" cy="89.9817" width="60.26" height="18.0366"/>
			<rect x="0" y="80.9634" width="60.2537" height="18.0366" class="st1"/>
			<text x="24.45" y="92.68" class="st9" v:langID="1029"><v:paragraph v:horizAlign="2"/><v:tabList/>1 129.51</text>		</g>
		<g id="shape1060-123" v:mID="1060" v:groupContext="shape" transform="translate(597.639,-4.35354)">
			<title>Sheet.1060</title>
			<desc>10 371.52</desc>
			<v:userDefs>
				<v:ud v:nameU="visNavOrder" v:val="VT0(58000):26"/>
			</v:userDefs>
			<v:textBlock v:margins="rect(4,4,4,4)"/>
			<v:textRect cx="30.1268" cy="89.9817" width="60.26" height="18.0366"/>
			<rect x="0" y="80.9634" width="60.2537" height="18.0366" class="st1"/>
			<text x="19.88" y="92.68" class="st9" v:langID="1029"><v:paragraph v:horizAlign="2"/><v:tabList/>10 371.52</text>		</g>
		<g id="shape1061-126" v:mID="1061" v:groupContext="shape" transform="translate(596.444,-4.48169)">
			<title>Sheet.1061</title>
			<v:userDefs>
				<v:ud v:nameU="visNavOrder" v:val="VT0(59000):26"/>
			</v:userDefs>
			<v:textBlock v:margins="rect(4,4,4,4)"/>
			<rect x="0" y="80.9634" width="60.2537" height="18.0366" class="st6"/>
		</g>
		<g id="shape1036-128" v:mID="1036" v:groupContext="shape" transform="translate(404.486,-58.4268)">
			<title>Sheet.1036</title>
			<desc>Express</desc>
			<v:userDefs>
				<v:ud v:nameU="visNavOrder" v:val="VT0(34000):26"/>
			</v:userDefs>
			<v:textBlock v:margins="rect(4,4,4,4)"/>
			<v:textRect cx="21.2819" cy="89.9817" width="42.57" height="18.0366"/>
			<rect x="0" y="80.9634" width="42.5638" height="18.0366" class="st1"/>
			<text x="4" y="92.68" class="st2" v:langID="1029"><v:paragraph/><v:tabList/>Express</text>		</g>
		<g id="shape1037-131" v:mID="1037" v:groupContext="shape" transform="translate(404.486,-40.3901)">
			<title>Sheet.1037</title>
			<desc>-</desc>
			<v:userDefs>
				<v:ud v:nameU="visNavOrder" v:val="VT0(35000):26"/>
			</v:userDefs>
			<v:textBlock v:margins="rect(4,4,4,4)"/>
			<v:textRect cx="21.2819" cy="89.9817" width="42.57" height="18.0366"/>
			<rect x="0" y="80.9634" width="42.5638" height="18.0366" class="st1"/>
			<text x="12.14" y="92.68" class="st2" v:langID="1029"><v:paragraph/><v:tabList/>-</text>		</g>
		<g id="shape1038-134" v:mID="1038" v:groupContext="shape" transform="translate(404.486,-22.3535)">
			<title>Sheet.1038</title>
			<desc>-</desc>
			<v:userDefs>
				<v:ud v:nameU="visNavOrder" v:val="VT0(36000):26"/>
			</v:userDefs>
			<v:textBlock v:margins="rect(4,4,4,4)"/>
			<v:textRect cx="21.2819" cy="89.9817" width="42.57" height="18.0366"/>
			<rect x="0" y="80.9634" width="42.5638" height="18.0366" class="st1"/>
			<text x="12.14" y="92.68" class="st2" v:langID="1029"><v:paragraph/><v:tabList/>-</text>		</g>
		<g id="shape1039-137" v:mID="1039" v:groupContext="shape" transform="translate(404.486,-4.31691)">
			<title>Sheet.1039</title>
			<v:userDefs>
				<v:ud v:nameU="visNavOrder" v:val="VT0(37000):26"/>
			</v:userDefs>
			<rect x="0" y="80.9634" width="42.5638" height="18.0366" class="st1"/>
		</g>
		<g id="shape1040-139" v:mID="1040" v:groupContext="shape" transform="translate(403.642,-4.44507)">
			<title>Sheet.1040</title>
			<desc>-</desc>
			<v:userDefs>
				<v:ud v:nameU="visNavOrder" v:val="VT0(38000):26"/>
			</v:userDefs>
			<v:textBlock v:margins="rect(4,4,4,4)"/>
			<v:textRect cx="21.2819" cy="89.9817" width="42.57" height="18.0366"/>
			<rect x="0" y="80.9634" width="42.5638" height="18.0366" class="st6"/>
			<text x="12.14" y="92.68" class="st2" v:langID="1029"><v:paragraph/><v:tabList/>-</text>		</g>
		<g id="shape1041-142" v:mID="1041" v:groupContext="shape" transform="translate(446.907,-58.4634)">
			<title>Sheet.1041</title>
			<desc>Standard</desc>
			<v:userDefs>
				<v:ud v:nameU="visNavOrder" v:val="VT0(39000):26"/>
			</v:userDefs>
			<v:textBlock v:margins="rect(4,4,4,4)"/>
			<v:textRect cx="21.2819" cy="89.9817" width="42.57" height="18.0366"/>
			<rect x="0" y="80.9634" width="42.5638" height="18.0366" class="st1"/>
			<text x="4" y="92.68" class="st2" v:langID="1029"><v:paragraph/><v:tabList/>Standard</text>		</g>
		<g id="shape1042-145" v:mID="1042" v:groupContext="shape" transform="translate(446.907,-40.4268)">
			<title>Sheet.1042</title>
			<desc>32</desc>
			<v:userDefs>
				<v:ud v:nameU="visNavOrder" v:val="VT0(40000):26"/>
			</v:userDefs>
			<v:textBlock v:margins="rect(4,4,4,4)"/>
			<v:textRect cx="21.2819" cy="89.9817" width="42.57" height="18.0366"/>
			<rect x="0" y="80.9634" width="42.5638" height="18.0366" class="st1"/>
			<text x="29.44" y="92.68" class="st2" v:langID="1029"><v:paragraph v:horizAlign="2"/><v:tabList/>32</text>		</g>
		<g id="shape1043-148" v:mID="1043" v:groupContext="shape" transform="translate(446.907,-22.3901)">
			<title>Sheet.1043</title>
			<desc>48</desc>
			<v:userDefs>
				<v:ud v:nameU="visNavOrder" v:val="VT0(41000):26"/>
			</v:userDefs>
			<v:textBlock v:margins="rect(4,4,4,4)"/>
			<v:textRect cx="21.2819" cy="89.9817" width="42.57" height="18.0366"/>
			<rect x="0" y="80.9634" width="42.5638" height="18.0366" class="st1"/>
			<text x="29.44" y="92.68" class="st2" v:langID="1029"><v:paragraph v:horizAlign="2"/><v:tabList/>48</text>		</g>
		<g id="shape1044-151" v:mID="1044" v:groupContext="shape" transform="translate(446.907,-4.35354)">
			<title>Sheet.1044</title>
			<v:userDefs>
				<v:ud v:nameU="visNavOrder" v:val="VT0(42000):26"/>
			</v:userDefs>
			<v:textBlock v:margins="rect(4,4,4,4)"/>
			<rect x="0" y="80.9634" width="42.5638" height="18.0366" class="st1"/>
		</g>
		<g id="shape1045-153" v:mID="1045" v:groupContext="shape" transform="translate(446.064,-4.48169)">
			<title>Sheet.1045</title>
			<desc>72</desc>
			<v:userDefs>
				<v:ud v:nameU="visNavOrder" v:val="VT0(43000):26"/>
			</v:userDefs>
			<v:textBlock v:margins="rect(4,4,4,4)"/>
			<v:textRect cx="21.2819" cy="89.9817" width="42.57" height="18.0366"/>
			<rect x="0" y="80.9634" width="42.5638" height="18.0366" class="st6"/>
			<text x="29.44" y="92.68" class="st2" v:langID="1029"><v:paragraph v:horizAlign="2"/><v:tabList/>72</text>		</g>
		<g id="shape1046-156" v:mID="1046" v:groupContext="shape" transform="translate(489.329,-58.4634)">
			<title>Sheet.1046</title>
			<desc>Slow</desc>
			<v:userDefs>
				<v:ud v:nameU="visNavOrder" v:val="VT0(44000):26"/>
			</v:userDefs>
			<v:textBlock v:margins="rect(4,4,4,4)"/>
			<v:textRect cx="21.2819" cy="89.9817" width="42.57" height="18.0366"/>
			<rect x="0" y="80.9634" width="42.5638" height="18.0366" class="st1"/>
			<text x="4" y="92.68" class="st2" v:langID="1029"><v:paragraph/><v:tabList/>Slow</text>		</g>
		<g id="shape1047-159" v:mID="1047" v:groupContext="shape" transform="translate(489.329,-40.4268)">
			<title>Sheet.1047</title>
			<desc>-</desc>
			<v:userDefs>
				<v:ud v:nameU="visNavOrder" v:val="VT0(45000):26"/>
			</v:userDefs>
			<v:textBlock v:margins="rect(4,4,4,4)"/>
			<v:textRect cx="21.2819" cy="89.9817" width="42.57" height="18.0366"/>
			<rect x="0" y="80.9634" width="42.5638" height="18.0366" class="st1"/>
			<text x="12.14" y="92.68" class="st2" v:langID="1029"><v:paragraph/><v:tabList/>-</text>		</g>
		<g id="shape1048-162" v:mID="1048" v:groupContext="shape" transform="translate(489.329,-22.3902)">
			<title>Sheet.1048</title>
			<desc>-</desc>
			<v:userDefs>
				<v:ud v:nameU="visNavOrder" v:val="VT0(46000):26"/>
			</v:userDefs>
			<v:textBlock v:margins="rect(4,4,4,4)"/>
			<v:textRect cx="21.2819" cy="89.9817" width="42.57" height="18.0366"/>
			<rect x="0" y="80.9634" width="42.5638" height="18.0366" class="st1"/>
			<text x="12.14" y="92.68" class="st2" v:langID="1029"><v:paragraph/><v:tabList/>-</text>		</g>
		<g id="shape1049-165" v:mID="1049" v:groupContext="shape" transform="translate(489.329,-4.35358)">
			<title>Sheet.1049</title>
			<desc>-</desc>
			<v:userDefs>
				<v:ud v:nameU="visNavOrder" v:val="VT0(47000):26"/>
			</v:userDefs>
			<v:textBlock v:margins="rect(4,4,4,4)"/>
			<v:textRect cx="21.2819" cy="89.9817" width="42.57" height="18.0366"/>
			<rect x="0" y="80.9634" width="42.5638" height="18.0366" class="st1"/>
			<text x="12.14" y="92.68" class="st2" v:langID="1029"><v:paragraph/><v:tabList/>-</text>		</g>
		<g id="shape1050-168" v:mID="1050" v:groupContext="shape" transform="translate(488.485,-4.48173)">
			<title>Sheet.1050</title>
			<desc>-</desc>
			<v:userDefs>
				<v:ud v:nameU="visNavOrder" v:val="VT0(48000):26"/>
			</v:userDefs>
			<v:textBlock v:margins="rect(4,4,4,4)"/>
			<v:textRect cx="21.2819" cy="89.9817" width="42.57" height="18.0366"/>
			<rect x="0" y="80.9634" width="42.5638" height="18.0366" class="st6"/>
			<text x="12.14" y="92.68" class="st2" v:langID="1029"><v:paragraph/><v:tabList/>-</text>		</g>
		<g id="shape1063-171" v:mID="1063" v:groupContext="shape" transform="translate(404.486,-76.4634)">
			<title>Sheet.1063</title>
			<desc>Selected service (hours)</desc>
			<v:userDefs>
				<v:ud v:nameU="visNavOrder" v:val="VT0(61000):26"/>
			</v:userDefs>
			<v:textBlock v:margins="rect(4,4,4,4)"/>
			<v:textRect cx="63.7031" cy="89.9817" width="127.41" height="18.0366"/>
			<rect x="0" y="80.9634" width="127.406" height="18.0366" class="st1"/>
			<text x="4" y="92.68" class="st2" v:langID="1029"><v:paragraph/><v:tabList/>Selected service (hours)</text>		</g>
	</g>
</svg>
