<?xml version="1.0" encoding="UTF-8" standalone="no"?>
<!DOCTYPE svg PUBLIC "-//W3C//DTD SVG 1.1//EN" "http://www.w3.org/Graphics/SVG/1.1/DTD/svg11.dtd">
<!-- Generated by Microsoft Visio, SVG Export F7_metrics_UC3_advanced.svg Page-10 -->
<svg xmlns="http://www.w3.org/2000/svg" xmlns:xlink="http://www.w3.org/1999/xlink" xmlns:ev="http://www.w3.org/2001/xml-events"
		xmlns:v="http://schemas.microsoft.com/visio/2003/SVGExtensions/" width="8.5in" height="3in" viewBox="0 0 612 216"
		xml:space="preserve" color-interpolation-filters="sRGB" class="st17">
	<v:documentProperties v:langID="1033" v:viewMarkup="false">
		<v:userDefs>
			<v:ud v:nameU="msvNoAutoConnect" v:val="VT0(1):26"/>
		</v:userDefs>
	</v:documentProperties>

	<style type="text/css">
	<![CDATA[
		.st1 {fill:none;stroke:#000000;stroke-linecap:round;stroke-linejoin:round;stroke-width:0.25}
		.st2 {fill:#000000;font-family:Calibri;font-size:0.75em}
		.st3 {fill:#1f1f1f;stroke:none;stroke-linecap:butt;stroke-width:0.01875}
		.st4 {fill:#dbeef3;stroke:#000000;stroke-linecap:round;stroke-linejoin:round;stroke-width:0.25}
		.st5 {fill:#fee599;stroke:#000000;stroke-linecap:round;stroke-linejoin:round;stroke-width:0.25}
		.st6 {fill:#d8d8d8;stroke:#000000;stroke-linecap:round;stroke-linejoin:round;stroke-width:0.25}
		.st7 {fill:#92d050;stroke:#000000;stroke-linecap:round;stroke-linejoin:round;stroke-width:0.25}
		.st8 {fill:#000000;font-family:Calibri;font-size:0.75em;font-weight:bold}
		.st9 {fill:none;stroke:none;stroke-linecap:round;stroke-linejoin:round;stroke-width:0.25}
		.st10 {fill:#e5b9b5;stroke:#000000;stroke-linecap:round;stroke-linejoin:round;stroke-width:0.25}
		.st11 {fill:#ebf1df;stroke:#000000;stroke-linecap:round;stroke-linejoin:round;stroke-width:0.25}
		.st12 {fill:#000000;font-family:Calibri;font-size:0.666664em}
		.st13 {font-size:1em}
		.st14 {fill:url(#grad1-187);stroke:#000000;stroke-linecap:round;stroke-linejoin:round;stroke-width:0.25}
		.st15 {fill:none;stroke:#000000;stroke-linecap:round;stroke-linejoin:round;stroke-width:1}
		.st16 {fill:#ffffff;font-size:1em}
		.st17 {fill:none;fill-rule:evenodd;font-size:12px;overflow:visible;stroke-linecap:square;stroke-miterlimit:3}
	]]>
	</style>

	<defs id="Patterns_And_Gradients">
		<radialGradient id="grad1-187" cx="1" cy="1" r="1.4">
			<stop offset="0.37" stop-color="#e5b9b5" stop-opacity="1"/>
			<stop offset="0.76" stop-color="#fee599" stop-opacity="1"/>
		</radialGradient>
	</defs>
	<g v:mID="16" v:index="10" v:groupContext="foregroundPage">
		<v:userDefs>
			<v:ud v:nameU="visNavType" v:val="VT0(1):26"/>
		</v:userDefs>
		<title>UC3 Advanced</title>
		<v:pageProperties v:drawingScale="1" v:pageScale="1" v:drawingUnits="19" v:shadowOffsetX="9" v:shadowOffsetY="-9"/>
		<g id="shape1-1" v:mID="1" v:groupContext="shape" transform="translate(4.50001,-157.244)">
			<title>Sheet.1</title>
			<desc>Truck</desc>
			<v:userDefs>
				<v:ud v:nameU="visNavOrder" v:val="VT0(1000):26"/>
			</v:userDefs>
			<v:textBlock v:margins="rect(4,4,4,4)"/>
			<v:textRect cx="31.5018" cy="206.982" width="63.01" height="18.0366"/>
			<rect x="0" y="197.963" width="63.0036" height="18.0366" class="st1"/>
			<text x="4" y="209.68" class="st2" v:langID="1029"><v:paragraph/><v:tabList/>Truck</text>		</g>
		<g id="shape2-4" v:mID="2" v:groupContext="shape" transform="translate(67.5036,-157.244)">
			<title>Sheet.2</title>
			<desc>2 235.42</desc>
			<v:userDefs>
				<v:ud v:nameU="visNavOrder" v:val="VT0(2000):26"/>
			</v:userDefs>
			<v:textBlock v:margins="rect(4,4,4,4)"/>
			<v:textRect cx="29.2582" cy="206.982" width="58.52" height="18.0366"/>
			<rect x="0" y="197.963" width="58.5165" height="18.0366" class="st1"/>
			<text x="22.84" y="209.68" class="st2" v:langID="1029"><v:paragraph v:horizAlign="2"/><v:tabList/>2 235.42</text>		</g>
		<g id="shape3-7" v:mID="3" v:groupContext="shape" transform="translate(126.02,-157.244)">
			<title>Sheet.3</title>
			<desc>1 117.71</desc>
			<v:userDefs>
				<v:ud v:nameU="visNavOrder" v:val="VT0(3000):26"/>
			</v:userDefs>
			<v:textBlock v:margins="rect(4,4,4,4)"/>
			<v:textRect cx="29.2582" cy="206.982" width="58.52" height="18.0366"/>
			<rect x="0" y="197.963" width="58.5165" height="18.0366" class="st1"/>
			<text x="22.84" y="209.68" class="st2" v:langID="1029"><v:paragraph v:horizAlign="2"/><v:tabList/>1 117.71</text>		</g>
		<g id="shape4-10" v:mID="4" v:groupContext="shape" transform="translate(4.50001,-139.207)">
			<title>Sheet.4</title>
			<desc>Train</desc>
			<v:userDefs>
				<v:ud v:nameU="visNavOrder" v:val="VT0(4000):26"/>
			</v:userDefs>
			<v:textBlock v:margins="rect(4,4,4,4)"/>
			<v:textRect cx="31.5018" cy="206.982" width="63.01" height="18.0366"/>
			<rect x="0" y="197.963" width="63.0036" height="18.0366" class="st1"/>
			<text x="4" y="209.68" class="st2" v:langID="1029"><v:paragraph/><v:tabList/>Train</text>		</g>
		<g id="shape6-13" v:mID="6" v:groupContext="shape" transform="translate(67.5036,-139.207)">
			<title>Sheet.6</title>
			<desc>1 788.33</desc>
			<v:userDefs>
				<v:ud v:nameU="visNavOrder" v:val="VT0(6000):26"/>
			</v:userDefs>
			<v:textBlock v:margins="rect(4,4,4,4)"/>
			<v:textRect cx="29.2582" cy="206.982" width="58.52" height="18.0366"/>
			<rect x="0" y="197.963" width="58.5165" height="18.0366" class="st1"/>
			<text x="22.84" y="209.68" class="st2" v:langID="1029"><v:paragraph v:horizAlign="2"/><v:tabList/>1 788.33</text>		</g>
		<g id="shape8-16" v:mID="8" v:groupContext="shape" transform="translate(126.02,-139.207)">
			<title>Sheet.8</title>
			<desc>1 117.71</desc>
			<v:userDefs>
				<v:ud v:nameU="visNavOrder" v:val="VT0(8000):26"/>
			</v:userDefs>
			<v:textBlock v:margins="rect(4,4,4,4)"/>
			<v:textRect cx="29.2582" cy="206.982" width="58.52" height="18.0366"/>
			<rect x="0" y="197.963" width="58.5165" height="18.0366" class="st1"/>
			<text x="22.84" y="209.68" class="st2" v:langID="1029"><v:paragraph v:horizAlign="2"/><v:tabList/>1 117.71</text>		</g>
		<g id="shape10-19" v:mID="10" v:groupContext="shape" transform="translate(184.484,-157.244)">
			<title>Sheet.10</title>
			<desc>15.97</desc>
			<v:userDefs>
				<v:ud v:nameU="visNavOrder" v:val="VT0(10000):26"/>
			</v:userDefs>
			<v:textBlock v:margins="rect(4,4,4,4)"/>
			<v:textRect cx="29.2582" cy="206.982" width="58.52" height="18.0366"/>
			<rect x="0" y="197.963" width="58.5165" height="18.0366" class="st1"/>
			<text x="34" y="209.68" class="st2" v:langID="1029"><v:paragraph v:horizAlign="2"/><v:tabList/>15.97</text>		</g>
		<g id="shape11-22" v:mID="11" v:groupContext="shape" transform="translate(184.484,-139.207)">
			<title>Sheet.11</title>
			<desc>13.97</desc>
			<v:userDefs>
				<v:ud v:nameU="visNavOrder" v:val="VT0(11000):26"/>
			</v:userDefs>
			<v:textBlock v:margins="rect(4,4,4,4)"/>
			<v:textRect cx="29.2582" cy="206.982" width="58.52" height="18.0366"/>
			<rect x="0" y="197.963" width="58.5165" height="18.0366" class="st1"/>
			<text x="34" y="209.68" class="st2" v:langID="1029"><v:paragraph v:horizAlign="2"/><v:tabList/>13.97</text>		</g>
		<g id="shape13-25" v:mID="13" v:groupContext="shape" transform="translate(67.5036,-175.28)">
			<title>Sheet.13</title>
			<desc>Cost (euro)</desc>
			<v:userDefs>
				<v:ud v:nameU="visNavOrder" v:val="VT0(13000):26"/>
			</v:userDefs>
			<v:textBlock v:margins="rect(4,4,4,4)"/>
			<v:textRect cx="29.2582" cy="206.982" width="58.52" height="18.0366"/>
			<rect x="0" y="197.963" width="58.5165" height="18.0366" class="st1"/>
			<text x="4" y="209.68" class="st2" v:langID="1029"><v:paragraph/><v:tabList/>Cost (euro)</text>		</g>
		<g id="shape14-28" v:mID="14" v:groupContext="shape" transform="translate(126.02,-175.28)">
			<title>Sheet.14</title>
			<desc>Distance (km)</desc>
			<v:userDefs>
				<v:ud v:nameU="visNavOrder" v:val="VT0(14000):26"/>
			</v:userDefs>
			<v:textBlock v:margins="rect(4,4,4,4)"/>
			<v:textRect cx="29.2582" cy="206.982" width="58.52" height="18.0366"/>
			<rect x="0" y="197.963" width="58.5165" height="18.0366" class="st1"/>
			<text x="4" y="209.68" class="st2" v:langID="1029"><v:paragraph/><v:tabList/>Distance (km)</text>		</g>
		<g id="shape15-31" v:mID="15" v:groupContext="shape" transform="translate(184.484,-175.28)">
			<title>Sheet.15</title>
			<desc>Time (hours)</desc>
			<v:userDefs>
				<v:ud v:nameU="visNavOrder" v:val="VT0(15000):26"/>
			</v:userDefs>
			<v:textBlock v:margins="rect(4,4,4,4)"/>
			<v:textRect cx="29.2582" cy="206.982" width="58.52" height="18.0366"/>
			<rect x="0" y="197.963" width="58.5165" height="18.0366" class="st1"/>
			<text x="4" y="209.68" class="st2" v:langID="1029"><v:paragraph/><v:tabList/>Time (hours)</text>		</g>
		<g id="group16-34" transform="translate(44.25,-159.53)" v:mID="16" v:groupContext="group">
			<v:userDefs>
				<v:ud v:nameU="visNavOrder" v:val="VT0(16000):26"/>
			</v:userDefs>
			<title>Sheet.16</title>
			<g id="shape17-35" v:mID="17" v:groupContext="shape">
				<title>Sheet.17</title>
				<path d="M3.55 216 C2.96 216 2.45 215.78 2.04 215.34 C1.63 214.91 1.42 214.38 1.42 213.75 L0 213.75 L0 205.5 C0 205.09
							 0.14 204.73 0.42 204.44 C0.7 204.15 1.03 204 1.42 204 L11.36 204 L11.36 207 L13.49 207 L15.62 210 L15.62
							 213.75 L14.2 213.75 C14.2 214.38 13.99 214.91 13.58 215.34 C13.16 215.78 12.66 216 12.07 216 C11.48
							 216 10.97 215.78 10.56 215.34 C10.14 214.91 9.94 214.38 9.94 213.75 L5.68 213.75 C5.68 214.38 5.47 214.91
							 5.06 215.34 C4.64 215.78 4.14 216 3.55 216 ZM3.55 214.5 C3.75 214.5 3.92 214.43 4.05 214.28 C4.19 214.14
							 4.26 213.96 4.26 213.75 C4.26 213.54 4.19 213.36 4.05 213.22 C3.92 213.07 3.75 213 3.55 213 C3.35 213
							 3.18 213.07 3.04 213.22 C2.91 213.36 2.84 213.54 2.84 213.75 C2.84 213.96 2.91 214.14 3.04 214.28 C3.18
							 214.43 3.35 214.5 3.55 214.5 ZM1.42 212.25 L1.99 212.25 C2.19 212.03 2.42 211.84 2.68 211.71 C2.94 211.57
							 3.23 211.5 3.55 211.5 C3.87 211.5 4.16 211.57 4.42 211.71 C4.68 211.84 4.91 212.03 5.11 212.25 L9.94
							 212.25 L9.94 205.5 L1.42 205.5 L1.42 212.25 ZM12.07 214.5 C12.27 214.5 12.44 214.43 12.57 214.28 C12.71
							 214.14 12.78 213.96 12.78 213.75 C12.78 213.54 12.71 213.36 12.57 213.22 C12.44 213.07 12.27 213 12.07
							 213 C11.87 213 11.7 213.07 11.56 213.22 C11.43 213.36 11.36 213.54 11.36 213.75 C11.36 213.96 11.43
							 214.14 11.56 214.28 C11.7 214.43 11.87 214.5 12.07 214.5 ZM11.36 210.75 L14.37 210.75 L12.78 208.5 L11.36
							 208.5 L11.36 210.75 Z" class="st3"/>
			</g>
		</g>
		<g id="group18-37" transform="translate(45.6697,-141.155)" v:mID="18" v:groupContext="group">
			<v:userDefs>
				<v:ud v:nameU="visNavOrder" v:val="VT0(17000):26"/>
			</v:userDefs>
			<title>Sheet.18</title>
			<g id="shape19-38" v:mID="19" v:groupContext="shape">
				<title>Sheet.19</title>
				<path d="M0 211.88 L0 204.75 C0 204.09 0.16 203.56 0.49 203.17 C0.81 202.77 1.24 202.47 1.77 202.27 C2.31 202.06
							 2.91 201.92 3.59 201.85 C4.27 201.78 4.97 201.75 5.68 201.75 C6.46 201.75 7.2 201.78 7.89 201.85 C8.58
							 201.92 9.18 202.06 9.7 202.27 C10.21 202.47 10.62 202.77 10.91 203.17 C11.21 203.56 11.36 204.09 11.36
							 204.75 L11.36 211.88 C11.36 212.61 11.12 213.23 10.64 213.74 C10.16 214.25 9.57 214.5 8.87 214.5 L9.94
							 215.63 L9.94 216 L8.52 216 L7.1 214.5 L4.26 214.5 L2.84 216 L1.42 216 L1.42 215.63 L2.48 214.5 C1.79
							 214.5 1.2 214.25 0.72 213.74 C0.24 213.23 0 212.61 0 211.88 ZM5.68 203.25 C4.42 203.25 3.51 203.33 2.93
							 203.48 C2.35 203.64 1.95 203.81 1.74 204 L9.69 204 C9.51 203.79 9.13 203.61 8.54 203.47 C7.96 203.32
							 7 203.25 5.68 203.25 ZM1.42 207.75 L4.97 207.75 L4.97 205.5 L1.42 205.5 L1.42 207.75 ZM8.87 209.25 L1.42
							 209.25 L9.94 209.25 L8.87 209.25 ZM6.39 207.75 L9.94 207.75 L9.94 205.5 L6.39 205.5 L6.39 207.75 ZM3.19
							 212.25 C3.5 212.25 3.76 212.14 3.96 211.93 C4.16 211.72 4.26 211.45 4.26 211.13 C4.26 210.8 4.16 210.53
							 3.96 210.32 C3.76 210.11 3.5 210 3.19 210 C2.89 210 2.63 210.11 2.43 210.32 C2.23 210.53 2.13 210.8
							 2.13 211.13 C2.13 211.45 2.23 211.72 2.43 211.93 C2.63 212.14 2.89 212.25 3.19 212.25 ZM8.16 212.25
							 C8.47 212.25 8.72 212.14 8.93 211.93 C9.13 211.72 9.23 211.45 9.23 211.13 C9.23 210.8 9.13 210.53 8.93
							 210.32 C8.72 210.11 8.47 210 8.16 210 C7.86 210 7.6 210.11 7.4 210.32 C7.2 210.53 7.1 210.8 7.1 211.13
							 C7.1 211.45 7.2 211.72 7.4 211.93 C7.6 212.14 7.86 212.25 8.16 212.25 ZM2.48 213 L8.87 213 C9.18 213
							 9.43 212.89 9.64 212.68 C9.84 212.47 9.94 212.2 9.94 211.88 L9.94 209.25 L1.42 209.25 L1.42 211.88 C1.42
							 212.2 1.52 212.47 1.72 212.68 C1.92 212.89 2.18 213 2.48 213 ZM5.68 204 L9.69 204 L1.74 204 L5.68 204
							 Z" class="st3"/>
			</g>
		</g>
		<g id="shape22-40" v:mID="22" v:groupContext="shape" transform="translate(67.5036,-193.317)">
			<title>Sheet.22</title>
			<desc>Transport A to B</desc>
			<v:userDefs>
				<v:ud v:nameU="visNavOrder" v:val="VT0(19000):26"/>
			</v:userDefs>
			<v:textBlock v:margins="rect(4,4,4,4)"/>
			<v:textRect cx="87.7482" cy="206.982" width="175.5" height="18.0366"/>
			<rect x="0" y="197.963" width="175.496" height="18.0366" class="st4"/>
			<text x="4" y="209.68" class="st2" v:langID="1029"><v:paragraph/><v:tabList/>Transport A to B</text>		</g>
		<g id="shape24-43" v:mID="24" v:groupContext="shape" transform="translate(248.244,-175.247)">
			<title>Sheet.24</title>
			<desc>DTD A</desc>
			<v:userDefs>
				<v:ud v:nameU="visNavOrder" v:val="VT0(21000):26"/>
			</v:userDefs>
			<v:textBlock v:margins="rect(4,4,4,4)"/>
			<v:textRect cx="18.7532" cy="206.972" width="37.51" height="18.0562"/>
			<rect x="0" y="197.944" width="37.5064" height="18.0562" class="st5"/>
			<text x="4" y="209.67" class="st2" v:langID="1029"><v:paragraph/><v:tabList/>DTD A</text>		</g>
		<g id="shape25-46" v:mID="25" v:groupContext="shape" transform="translate(248.244,-157.191)">
			<title>Sheet.25</title>
			<desc>10 km</desc>
			<v:userDefs>
				<v:ud v:nameU="visNavOrder" v:val="VT0(22000):26"/>
			</v:userDefs>
			<v:textBlock v:margins="rect(4,4,4,4)"/>
			<v:textRect cx="18.7532" cy="206.972" width="37.51" height="18.0562"/>
			<rect x="0" y="197.944" width="37.5064" height="18.0562" class="st1"/>
			<text x="4" y="209.67" class="st2" v:langID="1029"><v:paragraph/><v:tabList/>10 km</text>		</g>
		<g id="shape26-49" v:mID="26" v:groupContext="shape" transform="translate(248.244,-139.134)">
			<title>Sheet.26</title>
			<desc>10 km</desc>
			<v:userDefs>
				<v:ud v:nameU="visNavOrder" v:val="VT0(23000):26"/>
			</v:userDefs>
			<v:textBlock v:margins="rect(4,4,4,4)"/>
			<v:textRect cx="18.7532" cy="206.972" width="37.51" height="18.0562"/>
			<rect x="0" y="197.944" width="37.5064" height="18.0562" class="st1"/>
			<text x="4" y="209.67" class="st2" v:langID="1029"><v:paragraph/><v:tabList/>10 km</text>		</g>
		<g id="shape29-52" v:mID="29" v:groupContext="shape" transform="translate(68.625,-103.665)">
			<title>Sheet.29</title>
			<desc>Extra time</desc>
			<v:userDefs>
				<v:ud v:nameU="visNavOrder" v:val="VT0(26000):26"/>
			</v:userDefs>
			<v:textBlock v:margins="rect(4,4,4,4)"/>
			<v:textRect cx="33.2849" cy="206.982" width="66.57" height="18.0366"/>
			<rect x="0" y="197.963" width="66.5698" height="18.0366" class="st6"/>
			<text x="4" y="209.68" class="st2" v:langID="1029"><v:paragraph/><v:tabList/>Extra time</text>		</g>
		<g id="shape30-55" v:mID="30" v:groupContext="shape" transform="translate(68.625,-85.6282)">
			<title>Sheet.30</title>
			<desc>Breaks (hours)</desc>
			<v:userDefs>
				<v:ud v:nameU="visNavOrder" v:val="VT0(27000):26"/>
			</v:userDefs>
			<v:textBlock v:margins="rect(4,4,4,4)"/>
			<v:textRect cx="33.2849" cy="206.982" width="66.57" height="18.0366"/>
			<rect x="0" y="197.963" width="66.5698" height="18.0366" class="st1"/>
			<text x="4" y="209.68" class="st2" v:langID="1029"><v:paragraph/><v:tabList/>Breaks (hours)</text>		</g>
		<g id="shape31-58" v:mID="31" v:groupContext="shape" transform="translate(68.625,-67.5915)">
			<title>Sheet.31</title>
			<desc>11.5</desc>
			<v:userDefs>
				<v:ud v:nameU="visNavOrder" v:val="VT0(28000):26"/>
			</v:userDefs>
			<v:textBlock v:margins="rect(4,4,4,4)"/>
			<v:textRect cx="33.2849" cy="206.982" width="66.57" height="18.0366"/>
			<rect x="0" y="197.963" width="66.5698" height="18.0366" class="st1"/>
			<text x="46.61" y="209.68" class="st2" v:langID="1029"><v:paragraph v:horizAlign="2"/><v:tabList/>11.5</text>		</g>
		<g id="shape32-61" v:mID="32" v:groupContext="shape" transform="translate(68.625,-49.5549)">
			<title>Sheet.32</title>
			<desc>-</desc>
			<v:userDefs>
				<v:ud v:nameU="visNavOrder" v:val="VT0(29000):26"/>
			</v:userDefs>
			<v:textBlock v:margins="rect(4,4,4,4)"/>
			<v:textRect cx="33.2849" cy="206.982" width="66.57" height="18.0366"/>
			<rect x="0" y="197.963" width="66.5698" height="18.0366" class="st1"/>
			<text x="12.14" y="209.68" class="st2" v:langID="1029"><v:paragraph/><v:tabList/>-</text>		</g>
		<g id="shape35-64" v:mID="35" v:groupContext="shape" transform="translate(291.392,-103.482)">
			<title>Sheet.35</title>
			<desc>Overall</desc>
			<v:userDefs>
				<v:ud v:nameU="visNavOrder" v:val="VT0(47000):26"/>
			</v:userDefs>
			<v:textBlock v:margins="rect(4,4,4,4)"/>
			<v:textRect cx="60.179" cy="206.982" width="120.36" height="18.0366"/>
			<rect x="0" y="197.963" width="120.358" height="18.0366" class="st7"/>
			<text x="4" y="209.68" class="st2" v:langID="1029"><v:paragraph/><v:tabList/>Overall</text>		</g>
		<g id="shape36-67" v:mID="36" v:groupContext="shape" transform="translate(291.445,-85.4451)">
			<title>Sheet.36</title>
			<desc>Time (hours)</desc>
			<v:userDefs>
				<v:ud v:nameU="visNavOrder" v:val="VT0(48000):26"/>
			</v:userDefs>
			<v:textBlock v:margins="rect(4,4,4,4)"/>
			<v:textRect cx="30.1268" cy="206.982" width="60.26" height="18.0366"/>
			<rect x="0" y="197.963" width="60.2537" height="18.0366" class="st1"/>
			<text x="4" y="209.68" class="st2" v:langID="1029"><v:paragraph/><v:tabList/>Time (hours)</text>		</g>
		<g id="shape37-70" v:mID="37" v:groupContext="shape" transform="translate(291.445,-67.4085)">
			<title>Sheet.37</title>
			<desc>60.64</desc>
			<v:userDefs>
				<v:ud v:nameU="visNavOrder" v:val="VT0(49000):26"/>
			</v:userDefs>
			<v:textBlock v:margins="rect(4,4,4,4)"/>
			<v:textRect cx="30.1268" cy="206.982" width="60.26" height="18.0366"/>
			<rect x="0" y="197.963" width="60.2537" height="18.0366" class="st1"/>
			<text x="35.6" y="209.68" class="st8" v:langID="1029"><v:paragraph v:horizAlign="2"/><v:tabList/>60.64</text>		</g>
		<g id="shape38-73" v:mID="38" v:groupContext="shape" transform="translate(291.445,-49.3718)">
			<title>Sheet.38</title>
			<desc>65.14</desc>
			<v:userDefs>
				<v:ud v:nameU="visNavOrder" v:val="VT0(50000):26"/>
			</v:userDefs>
			<v:textBlock v:margins="rect(4,4,4,4)"/>
			<v:textRect cx="30.1268" cy="206.982" width="60.26" height="18.0366"/>
			<rect x="0" y="197.963" width="60.2537" height="18.0366" class="st1"/>
			<text x="35.6" y="209.68" class="st8" v:langID="1029"><v:paragraph v:horizAlign="2"/><v:tabList/>65.14</text>		</g>
		<g id="shape40-76" v:mID="40" v:groupContext="shape" transform="translate(351.496,-85.4817)">
			<title>Sheet.40</title>
			<desc>Price (euro)</desc>
			<v:userDefs>
				<v:ud v:nameU="visNavOrder" v:val="VT0(52000):26"/>
			</v:userDefs>
			<v:textBlock v:margins="rect(4,4,4,4)"/>
			<v:textRect cx="30.1268" cy="206.982" width="60.26" height="18.0366"/>
			<rect x="0" y="197.963" width="60.2537" height="18.0366" class="st1"/>
			<text x="4" y="209.68" class="st2" v:langID="1029"><v:paragraph/><v:tabList/>Price (euro)</text>		</g>
		<g id="shape41-79" v:mID="41" v:groupContext="shape" transform="translate(351.496,-67.4451)">
			<title>Sheet.41</title>
			<desc>2 295.42</desc>
			<v:userDefs>
				<v:ud v:nameU="visNavOrder" v:val="VT0(53000):26"/>
			</v:userDefs>
			<v:textBlock v:margins="rect(4,4,4,4)"/>
			<v:textRect cx="30.1268" cy="206.982" width="60.26" height="18.0366"/>
			<rect x="0" y="197.963" width="60.2537" height="18.0366" class="st1"/>
			<text x="24.45" y="209.68" class="st8" v:langID="1029"><v:paragraph v:horizAlign="2"/><v:tabList/>2 295.42</text>		</g>
		<g id="shape42-82" v:mID="42" v:groupContext="shape" transform="translate(351.496,-49.4085)">
			<title>Sheet.42</title>
			<desc>1 888.33</desc>
			<v:userDefs>
				<v:ud v:nameU="visNavOrder" v:val="VT0(54000):26"/>
			</v:userDefs>
			<v:textBlock v:margins="rect(4,4,4,4)"/>
			<v:textRect cx="30.1268" cy="206.982" width="60.26" height="18.0366"/>
			<rect x="0" y="197.963" width="60.2537" height="18.0366" class="st1"/>
			<text x="24.45" y="209.68" class="st8" v:langID="1029"><v:paragraph v:horizAlign="2"/><v:tabList/>1 888.33</text>		</g>
		<g id="shape44-85" v:mID="44" v:groupContext="shape" transform="translate(350.302,-31.5)">
			<title>Sheet.44</title>
			<v:userDefs>
				<v:ud v:nameU="visNavOrder" v:val="VT0(56000):26"/>
			</v:userDefs>
			<v:textBlock v:margins="rect(4,4,4,4)"/>
			<rect x="0" y="197.963" width="60.2537" height="18.0366" class="st9"/>
		</g>
		<g id="shape45-87" v:mID="45" v:groupContext="shape" transform="translate(139.219,-85.504)">
			<title>Sheet.45</title>
			<desc>Express</desc>
			<v:userDefs>
				<v:ud v:nameU="visNavOrder" v:val="VT0(32000):26"/>
			</v:userDefs>
			<v:textBlock v:margins="rect(4,4,4,4)"/>
			<v:textRect cx="21.2819" cy="206.972" width="42.57" height="18.0562"/>
			<rect x="0" y="197.944" width="42.5638" height="18.0562" class="st1"/>
			<text x="4" y="209.67" class="st2" v:langID="1029"><v:paragraph/><v:tabList/>Express</text>		</g>
		<g id="shape46-90" v:mID="46" v:groupContext="shape" transform="translate(139.219,-67.4477)">
			<title>Sheet.46</title>
			<desc>-</desc>
			<v:userDefs>
				<v:ud v:nameU="visNavOrder" v:val="VT0(33000):26"/>
			</v:userDefs>
			<v:textBlock v:margins="rect(4,4,4,4)"/>
			<v:textRect cx="21.2819" cy="206.972" width="42.57" height="18.0562"/>
			<rect x="0" y="197.944" width="42.5638" height="18.0562" class="st1"/>
			<text x="12.14" y="209.67" class="st2" v:langID="1029"><v:paragraph/><v:tabList/>-</text>		</g>
		<g id="shape47-93" v:mID="47" v:groupContext="shape" transform="translate(139.219,-49.3915)">
			<title>Sheet.47</title>
			<desc>-</desc>
			<v:userDefs>
				<v:ud v:nameU="visNavOrder" v:val="VT0(34000):26"/>
			</v:userDefs>
			<v:textBlock v:margins="rect(4,4,4,4)"/>
			<v:textRect cx="21.2819" cy="206.972" width="42.57" height="18.0562"/>
			<rect x="0" y="197.944" width="42.5638" height="18.0562" class="st1"/>
			<text x="12.14" y="209.67" class="st2" v:langID="1029"><v:paragraph/><v:tabList/>-</text>		</g>
		<g id="shape50-96" v:mID="50" v:groupContext="shape" transform="translate(181.64,-85.5406)">
			<title>Sheet.50</title>
			<desc>Standard</desc>
			<v:userDefs>
				<v:ud v:nameU="visNavOrder" v:val="VT0(37000):26"/>
			</v:userDefs>
			<v:textBlock v:margins="rect(4,4,4,4)"/>
			<v:textRect cx="21.2819" cy="206.972" width="42.57" height="18.0562"/>
			<rect x="0" y="197.944" width="42.5638" height="18.0562" class="st1"/>
			<text x="4" y="209.67" class="st2" v:langID="1029"><v:paragraph/><v:tabList/>Standard</text>		</g>
		<g id="shape51-99" v:mID="51" v:groupContext="shape" transform="translate(181.64,-67.4844)">
			<title>Sheet.51</title>
			<desc>32</desc>
			<v:userDefs>
				<v:ud v:nameU="visNavOrder" v:val="VT0(38000):26"/>
			</v:userDefs>
			<v:textBlock v:margins="rect(4,4,4,4)"/>
			<v:textRect cx="21.2819" cy="206.972" width="42.57" height="18.0562"/>
			<rect x="0" y="197.944" width="42.5638" height="18.0562" class="st1"/>
			<text x="29.44" y="209.67" class="st2" v:langID="1029"><v:paragraph v:horizAlign="2"/><v:tabList/>32</text>		</g>
		<g id="shape52-102" v:mID="52" v:groupContext="shape" transform="translate(181.64,-49.4281)">
			<title>Sheet.52</title>
			<desc>48</desc>
			<v:userDefs>
				<v:ud v:nameU="visNavOrder" v:val="VT0(39000):26"/>
			</v:userDefs>
			<v:textBlock v:margins="rect(4,4,4,4)"/>
			<v:textRect cx="21.2819" cy="206.972" width="42.57" height="18.0562"/>
			<rect x="0" y="197.944" width="42.5638" height="18.0562" class="st1"/>
			<text x="29.44" y="209.67" class="st2" v:langID="1029"><v:paragraph v:horizAlign="2"/><v:tabList/>48</text>		</g>
		<g id="shape55-105" v:mID="55" v:groupContext="shape" transform="translate(224.061,-85.5407)">
			<title>Sheet.55</title>
			<desc>Slow</desc>
			<v:userDefs>
				<v:ud v:nameU="visNavOrder" v:val="VT0(42000):26"/>
			</v:userDefs>
			<v:textBlock v:margins="rect(4,4,4,4)"/>
			<v:textRect cx="21.2819" cy="206.972" width="42.57" height="18.0562"/>
			<rect x="0" y="197.944" width="42.5638" height="18.0562" class="st1"/>
			<text x="4" y="209.67" class="st2" v:langID="1029"><v:paragraph/><v:tabList/>Slow</text>		</g>
		<g id="shape56-108" v:mID="56" v:groupContext="shape" transform="translate(224.061,-67.4844)">
			<title>Sheet.56</title>
			<desc>-</desc>
			<v:userDefs>
				<v:ud v:nameU="visNavOrder" v:val="VT0(43000):26"/>
			</v:userDefs>
			<v:textBlock v:margins="rect(4,4,4,4)"/>
			<v:textRect cx="21.2819" cy="206.972" width="42.57" height="18.0562"/>
			<rect x="0" y="197.944" width="42.5638" height="18.0562" class="st1"/>
			<text x="12.14" y="209.67" class="st2" v:langID="1029"><v:paragraph/><v:tabList/>-</text>		</g>
		<g id="shape57-111" v:mID="57" v:groupContext="shape" transform="translate(224.061,-49.4282)">
			<title>Sheet.57</title>
			<desc>-</desc>
			<v:userDefs>
				<v:ud v:nameU="visNavOrder" v:val="VT0(44000):26"/>
			</v:userDefs>
			<v:textBlock v:margins="rect(4,4,4,4)"/>
			<v:textRect cx="21.2819" cy="206.972" width="42.57" height="18.0562"/>
			<rect x="0" y="197.944" width="42.5638" height="18.0562" class="st1"/>
			<text x="12.14" y="209.67" class="st2" v:langID="1029"><v:paragraph/><v:tabList/>-</text>		</g>
		<g id="shape60-114" v:mID="60" v:groupContext="shape" transform="translate(139.219,-103.56)">
			<title>Sheet.60</title>
			<desc>Selected service (hours)</desc>
			<v:userDefs>
				<v:ud v:nameU="visNavOrder" v:val="VT0(57000):26"/>
			</v:userDefs>
			<v:textBlock v:margins="rect(4,4,4,4)"/>
			<v:textRect cx="63.7031" cy="206.972" width="127.41" height="18.0562"/>
			<rect x="0" y="197.944" width="127.406" height="18.0562" class="st1"/>
			<text x="4" y="209.67" class="st2" v:langID="1029"><v:paragraph/><v:tabList/>Selected service (hours)</text>		</g>
		<g id="shape61-117" v:mID="61" v:groupContext="shape" transform="translate(285.75,-175.284)">
			<title>Sheet.61</title>
			<desc>Time (hours)</desc>
			<v:userDefs>
				<v:ud v:nameU="visNavOrder" v:val="VT0(58000):26"/>
			</v:userDefs>
			<v:textBlock v:margins="rect(4,4,4,4)"/>
			<v:textRect cx="27.2411" cy="206.972" width="54.49" height="18.0562"/>
			<rect x="0" y="197.944" width="54.4823" height="18.0562" class="st5"/>
			<text x="4" y="209.67" class="st2" v:langID="1029"><v:paragraph/><v:tabList/>Time (hours)</text>		</g>
		<g id="shape62-120" v:mID="62" v:groupContext="shape" transform="translate(285.75,-157.227)">
			<title>Sheet.62</title>
			<desc>0.42</desc>
			<v:userDefs>
				<v:ud v:nameU="visNavOrder" v:val="VT0(59000):26"/>
			</v:userDefs>
			<v:textBlock v:margins="rect(4,4,4,4)"/>
			<v:textRect cx="27.2411" cy="206.972" width="54.49" height="18.0562"/>
			<rect x="0" y="197.944" width="54.4823" height="18.0562" class="st1"/>
			<text x="34.53" y="209.67" class="st2" v:langID="1029"><v:paragraph v:horizAlign="2"/><v:tabList/>0.42</text>		</g>
		<g id="shape63-123" v:mID="63" v:groupContext="shape" transform="translate(285.75,-139.171)">
			<title>Sheet.63</title>
			<desc>0.42</desc>
			<v:userDefs>
				<v:ud v:nameU="visNavOrder" v:val="VT0(60000):26"/>
			</v:userDefs>
			<v:textBlock v:margins="rect(4,4,4,4)"/>
			<v:textRect cx="27.2411" cy="206.972" width="54.49" height="18.0562"/>
			<rect x="0" y="197.944" width="54.4823" height="18.0562" class="st1"/>
			<text x="34.53" y="209.67" class="st2" v:langID="1029"><v:paragraph v:horizAlign="2"/><v:tabList/>0.42</text>		</g>
		<g id="shape66-126" v:mID="66" v:groupContext="shape" transform="translate(340.232,-175.284)">
			<title>Sheet.66</title>
			<desc>Price (euro)</desc>
			<v:userDefs>
				<v:ud v:nameU="visNavOrder" v:val="VT0(62000):26"/>
			</v:userDefs>
			<v:textBlock v:margins="rect(4,4,4,4)"/>
			<v:textRect cx="27.2411" cy="206.972" width="54.49" height="18.0562"/>
			<rect x="0" y="197.944" width="54.4823" height="18.0562" class="st5"/>
			<text x="4" y="209.67" class="st2" v:langID="1029"><v:paragraph/><v:tabList/>Price (euro)</text>		</g>
		<g id="shape67-129" v:mID="67" v:groupContext="shape" transform="translate(340.232,-157.227)">
			<title>Sheet.67</title>
			<desc>20</desc>
			<v:userDefs>
				<v:ud v:nameU="visNavOrder" v:val="VT0(63000):26"/>
			</v:userDefs>
			<v:textBlock v:margins="rect(4,4,4,4)"/>
			<v:textRect cx="27.2411" cy="206.972" width="54.49" height="18.0562"/>
			<rect x="0" y="197.944" width="54.4823" height="18.0562" class="st1"/>
			<text x="41.36" y="209.67" class="st2" v:langID="1029"><v:paragraph v:horizAlign="2"/><v:tabList/>20</text>		</g>
		<g id="shape68-132" v:mID="68" v:groupContext="shape" transform="translate(340.232,-139.171)">
			<title>Sheet.68</title>
			<desc>40</desc>
			<v:userDefs>
				<v:ud v:nameU="visNavOrder" v:val="VT0(64000):26"/>
			</v:userDefs>
			<v:textBlock v:margins="rect(4,4,4,4)"/>
			<v:textRect cx="27.2411" cy="206.972" width="54.49" height="18.0562"/>
			<rect x="0" y="197.944" width="54.4823" height="18.0562" class="st1"/>
			<text x="41.36" y="209.67" class="st2" v:langID="1029"><v:paragraph v:horizAlign="2"/><v:tabList/>40</text>		</g>
		<g id="shape83-135" v:mID="83" v:groupContext="shape" transform="translate(399.636,-175.386)">
			<title>Sheet.83</title>
			<desc>DTD B</desc>
			<v:userDefs>
				<v:ud v:nameU="visNavOrder" v:val="VT0(66000):26"/>
			</v:userDefs>
			<v:textBlock v:margins="rect(4,4,4,4)"/>
			<v:textRect cx="18.7532" cy="206.95" width="37.51" height="18.1005"/>
			<rect x="0" y="197.9" width="37.5064" height="18.1005" class="st10"/>
			<text x="4" y="209.65" class="st2" v:langID="1029"><v:paragraph/><v:tabList/>DTD B</text>		</g>
		<g id="shape84-138" v:mID="84" v:groupContext="shape" transform="translate(399.636,-157.285)">
			<title>Sheet.84</title>
			<desc>20 km</desc>
			<v:userDefs>
				<v:ud v:nameU="visNavOrder" v:val="VT0(67000):26"/>
			</v:userDefs>
			<v:textBlock v:margins="rect(4,4,4,4)"/>
			<v:textRect cx="18.7532" cy="206.95" width="37.51" height="18.1005"/>
			<rect x="0" y="197.9" width="37.5064" height="18.1005" class="st1"/>
			<text x="4" y="209.65" class="st2" v:langID="1029"><v:paragraph/><v:tabList/>20 km</text>		</g>
		<g id="shape85-141" v:mID="85" v:groupContext="shape" transform="translate(399.636,-139.185)">
			<title>Sheet.85</title>
			<desc>20 km</desc>
			<v:userDefs>
				<v:ud v:nameU="visNavOrder" v:val="VT0(68000):26"/>
			</v:userDefs>
			<v:textBlock v:margins="rect(4,4,4,4)"/>
			<v:textRect cx="18.7532" cy="206.95" width="37.51" height="18.1005"/>
			<rect x="0" y="197.9" width="37.5064" height="18.1005" class="st1"/>
			<text x="4" y="209.65" class="st2" v:langID="1029"><v:paragraph/><v:tabList/>20 km</text>		</g>
		<g id="shape88-144" v:mID="88" v:groupContext="shape" transform="translate(437.143,-175.423)">
			<title>Sheet.88</title>
			<desc>Time (hours)</desc>
			<v:userDefs>
				<v:ud v:nameU="visNavOrder" v:val="VT0(71000):26"/>
			</v:userDefs>
			<v:textBlock v:margins="rect(4,4,4,4)"/>
			<v:textRect cx="27.2411" cy="206.95" width="54.49" height="18.1005"/>
			<rect x="0" y="197.9" width="54.4823" height="18.1005" class="st10"/>
			<text x="4" y="209.65" class="st2" v:langID="1029"><v:paragraph/><v:tabList/>Time (hours)</text>		</g>
		<g id="shape89-147" v:mID="89" v:groupContext="shape" transform="translate(437.143,-157.322)">
			<title>Sheet.89</title>
			<desc>0.75</desc>
			<v:userDefs>
				<v:ud v:nameU="visNavOrder" v:val="VT0(72000):26"/>
			</v:userDefs>
			<v:textBlock v:margins="rect(4,4,4,4)"/>
			<v:textRect cx="27.2411" cy="206.95" width="54.49" height="18.1005"/>
			<rect x="0" y="197.9" width="54.4823" height="18.1005" class="st1"/>
			<text x="34.53" y="209.65" class="st2" v:langID="1029"><v:paragraph v:horizAlign="2"/><v:tabList/>0.75</text>		</g>
		<g id="shape90-150" v:mID="90" v:groupContext="shape" transform="translate(437.143,-139.222)">
			<title>Sheet.90</title>
			<desc>0.75</desc>
			<v:userDefs>
				<v:ud v:nameU="visNavOrder" v:val="VT0(73000):26"/>
			</v:userDefs>
			<v:textBlock v:margins="rect(4,4,4,4)"/>
			<v:textRect cx="27.2411" cy="206.95" width="54.49" height="18.1005"/>
			<rect x="0" y="197.9" width="54.4823" height="18.1005" class="st1"/>
			<text x="34.53" y="209.65" class="st2" v:langID="1029"><v:paragraph v:horizAlign="2"/><v:tabList/>0.75</text>		</g>
		<g id="shape92-153" v:mID="92" v:groupContext="shape" transform="translate(491.625,-175.423)">
			<title>Sheet.92</title>
			<desc>Price (euro)</desc>
			<v:userDefs>
				<v:ud v:nameU="visNavOrder" v:val="VT0(75000):26"/>
			</v:userDefs>
			<v:textBlock v:margins="rect(4,4,4,4)"/>
			<v:textRect cx="27.2411" cy="206.95" width="54.49" height="18.1005"/>
			<rect x="0" y="197.9" width="54.4823" height="18.1005" class="st10"/>
			<text x="4" y="209.65" class="st2" v:langID="1029"><v:paragraph/><v:tabList/>Price (euro)</text>		</g>
		<g id="shape93-156" v:mID="93" v:groupContext="shape" transform="translate(491.625,-157.322)">
			<title>Sheet.93</title>
			<desc>40</desc>
			<v:userDefs>
				<v:ud v:nameU="visNavOrder" v:val="VT0(76000):26"/>
			</v:userDefs>
			<v:textBlock v:margins="rect(4,4,4,4)"/>
			<v:textRect cx="27.2411" cy="206.95" width="54.49" height="18.1005"/>
			<rect x="0" y="197.9" width="54.4823" height="18.1005" class="st1"/>
			<text x="41.36" y="209.65" class="st2" v:langID="1029"><v:paragraph v:horizAlign="2"/><v:tabList/>40</text>		</g>
		<g id="shape94-159" v:mID="94" v:groupContext="shape" transform="translate(491.625,-139.222)">
			<title>Sheet.94</title>
			<desc>60</desc>
			<v:userDefs>
				<v:ud v:nameU="visNavOrder" v:val="VT0(77000):26"/>
			</v:userDefs>
			<v:textBlock v:margins="rect(4,4,4,4)"/>
			<v:textRect cx="27.2411" cy="206.95" width="54.49" height="18.1005"/>
			<rect x="0" y="197.9" width="54.4823" height="18.1005" class="st1"/>
			<text x="41.36" y="209.65" class="st2" v:langID="1029"><v:paragraph v:horizAlign="2"/><v:tabList/>60</text>		</g>
		<g id="shape96-162" v:mID="96" v:groupContext="shape" transform="translate(5.62144,-67.5915)">
			<title>Sheet.96</title>
			<desc>Truck</desc>
			<v:userDefs>
				<v:ud v:nameU="visNavOrder" v:val="VT0(79000):26"/>
			</v:userDefs>
			<v:textBlock v:margins="rect(4,4,4,4)"/>
			<v:textRect cx="31.5018" cy="206.982" width="63.01" height="18.0366"/>
			<rect x="0" y="197.963" width="63.0036" height="18.0366" class="st1"/>
			<text x="4" y="209.68" class="st2" v:langID="1029"><v:paragraph/><v:tabList/>Truck</text>		</g>
		<g id="shape97-165" v:mID="97" v:groupContext="shape" transform="translate(5.62144,-49.5549)">
			<title>Sheet.97</title>
			<desc>Train</desc>
			<v:userDefs>
				<v:ud v:nameU="visNavOrder" v:val="VT0(80000):26"/>
			</v:userDefs>
			<v:textBlock v:margins="rect(4,4,4,4)"/>
			<v:textRect cx="31.5018" cy="206.982" width="63.01" height="18.0366"/>
			<rect x="0" y="197.963" width="63.0036" height="18.0366" class="st1"/>
			<text x="4" y="209.68" class="st2" v:langID="1029"><v:paragraph/><v:tabList/>Train</text>		</g>
		<g id="group99-168" transform="translate(45.3714,-69.8782)" v:mID="99" v:groupContext="group">
			<v:userDefs>
				<v:ud v:nameU="visNavOrder" v:val="VT0(82000):26"/>
			</v:userDefs>
			<title>Sheet.99</title>
			<g id="shape100-169" v:mID="100" v:groupContext="shape">
				<title>Sheet.100</title>
				<path d="M3.55 216 C2.96 216 2.45 215.78 2.04 215.34 C1.63 214.91 1.42 214.38 1.42 213.75 L0 213.75 L0 205.5 C0 205.09
							 0.14 204.73 0.42 204.44 C0.7 204.15 1.03 204 1.42 204 L11.36 204 L11.36 207 L13.49 207 L15.62 210 L15.62
							 213.75 L14.2 213.75 C14.2 214.38 13.99 214.91 13.58 215.34 C13.16 215.78 12.66 216 12.07 216 C11.48
							 216 10.97 215.78 10.56 215.34 C10.14 214.91 9.94 214.38 9.94 213.75 L5.68 213.75 C5.68 214.38 5.47 214.91
							 5.06 215.34 C4.64 215.78 4.14 216 3.55 216 ZM3.55 214.5 C3.75 214.5 3.92 214.43 4.05 214.28 C4.19 214.14
							 4.26 213.96 4.26 213.75 C4.26 213.54 4.19 213.36 4.05 213.22 C3.92 213.07 3.75 213 3.55 213 C3.35 213
							 3.18 213.07 3.04 213.22 C2.91 213.36 2.84 213.54 2.84 213.75 C2.84 213.96 2.91 214.14 3.04 214.28 C3.18
							 214.43 3.35 214.5 3.55 214.5 ZM1.42 212.25 L1.99 212.25 C2.19 212.03 2.42 211.84 2.68 211.71 C2.94 211.57
							 3.23 211.5 3.55 211.5 C3.87 211.5 4.16 211.57 4.42 211.71 C4.68 211.84 4.91 212.03 5.11 212.25 L9.94
							 212.25 L9.94 205.5 L1.42 205.5 L1.42 212.25 ZM12.07 214.5 C12.27 214.5 12.44 214.43 12.57 214.28 C12.71
							 214.14 12.78 213.96 12.78 213.75 C12.78 213.54 12.71 213.36 12.57 213.22 C12.44 213.07 12.27 213 12.07
							 213 C11.87 213 11.7 213.07 11.56 213.22 C11.43 213.36 11.36 213.54 11.36 213.75 C11.36 213.96 11.43
							 214.14 11.56 214.28 C11.7 214.43 11.87 214.5 12.07 214.5 ZM11.36 210.75 L14.37 210.75 L12.78 208.5 L11.36
							 208.5 L11.36 210.75 Z" class="st3"/>
			</g>
		</g>
		<g id="group101-171" transform="translate(46.7911,-51.5032)" v:mID="101" v:groupContext="group">
			<v:userDefs>
				<v:ud v:nameU="visNavOrder" v:val="VT0(83000):26"/>
			</v:userDefs>
			<title>Sheet.101</title>
			<g id="shape102-172" v:mID="102" v:groupContext="shape">
				<title>Sheet.102</title>
				<path d="M0 211.88 L0 204.75 C0 204.09 0.16 203.56 0.49 203.17 C0.81 202.77 1.24 202.47 1.77 202.27 C2.31 202.06
							 2.91 201.92 3.59 201.85 C4.27 201.78 4.97 201.75 5.68 201.75 C6.46 201.75 7.2 201.78 7.89 201.85 C8.58
							 201.92 9.18 202.06 9.7 202.27 C10.21 202.47 10.62 202.77 10.91 203.17 C11.21 203.56 11.36 204.09 11.36
							 204.75 L11.36 211.88 C11.36 212.61 11.12 213.23 10.64 213.74 C10.16 214.25 9.57 214.5 8.87 214.5 L9.94
							 215.63 L9.94 216 L8.52 216 L7.1 214.5 L4.26 214.5 L2.84 216 L1.42 216 L1.42 215.63 L2.48 214.5 C1.79
							 214.5 1.2 214.25 0.72 213.74 C0.24 213.23 0 212.61 0 211.88 ZM5.68 203.25 C4.42 203.25 3.51 203.33 2.93
							 203.48 C2.35 203.64 1.95 203.81 1.74 204 L9.69 204 C9.51 203.79 9.13 203.61 8.54 203.47 C7.96 203.32
							 7 203.25 5.68 203.25 ZM1.42 207.75 L4.97 207.75 L4.97 205.5 L1.42 205.5 L1.42 207.75 ZM8.87 209.25 L1.42
							 209.25 L9.94 209.25 L8.87 209.25 ZM6.39 207.75 L9.94 207.75 L9.94 205.5 L6.39 205.5 L6.39 207.75 ZM3.19
							 212.25 C3.5 212.25 3.76 212.14 3.96 211.93 C4.16 211.72 4.26 211.45 4.26 211.13 C4.26 210.8 4.16 210.53
							 3.96 210.32 C3.76 210.11 3.5 210 3.19 210 C2.89 210 2.63 210.11 2.43 210.32 C2.23 210.53 2.13 210.8
							 2.13 211.13 C2.13 211.45 2.23 211.72 2.43 211.93 C2.63 212.14 2.89 212.25 3.19 212.25 ZM8.16 212.25
							 C8.47 212.25 8.72 212.14 8.93 211.93 C9.13 211.72 9.23 211.45 9.23 211.13 C9.23 210.8 9.13 210.53 8.93
							 210.32 C8.72 210.11 8.47 210 8.16 210 C7.86 210 7.6 210.11 7.4 210.32 C7.2 210.53 7.1 210.8 7.1 211.13
							 C7.1 211.45 7.2 211.72 7.4 211.93 C7.6 212.14 7.86 212.25 8.16 212.25 ZM2.48 213 L8.87 213 C9.18 213
							 9.43 212.89 9.64 212.68 C9.84 212.47 9.94 212.2 9.94 211.88 L9.94 209.25 L1.42 209.25 L1.42 211.88 C1.42
							 212.2 1.52 212.47 1.72 212.68 C1.92 212.89 2.18 213 2.48 213 ZM5.68 204 L9.69 204 L1.74 204 L5.68 204
							 Z" class="st3"/>
			</g>
		</g>
		<g id="shape105-174" v:mID="105" v:groupContext="shape" transform="translate(551.055,-175.239)">
			<title>Sheet.105</title>
			<desc>Transfer Truck (hours)</desc>
			<v:userDefs>
				<v:ud v:nameU="visNavOrder" v:val="VT0(85000):26"/>
			</v:userDefs>
			<v:textBlock v:margins="rect(4,4,4,4)"/>
			<v:textRect cx="28.2224" cy="206.95" width="56.45" height="18.1005"/>
			<rect x="0" y="197.9" width="56.4448" height="18.1005" class="st11"/>
			<text x="4" y="204.55" class="st12" v:langID="1029"><v:paragraph/><v:tabList/>Transfer Truck <tspan x="4" dy="1.2em"
						class="st13">(hours)</tspan></text>		</g>
		<g id="shape106-178" v:mID="106" v:groupContext="shape" transform="translate(551.055,-157.138)">
			<title>Sheet.106</title>
			<desc>-</desc>
			<v:userDefs>
				<v:ud v:nameU="visNavOrder" v:val="VT0(86000):26"/>
			</v:userDefs>
			<v:textBlock v:margins="rect(4,4,4,4)"/>
			<v:textRect cx="28.2224" cy="206.95" width="56.45" height="18.1005"/>
			<rect x="0" y="197.9" width="56.4448" height="18.1005" class="st1"/>
			<text x="12.14" y="209.65" class="st2" v:langID="1029"><v:paragraph/><v:tabList/>-</text>		</g>
		<g id="shape107-181" v:mID="107" v:groupContext="shape" transform="translate(551.055,-139.038)">
			<title>Sheet.107</title>
			<desc>2</desc>
			<v:userDefs>
				<v:ud v:nameU="visNavOrder" v:val="VT0(87000):26"/>
			</v:userDefs>
			<v:textBlock v:margins="rect(4,4,4,4)"/>
			<v:textRect cx="28.2224" cy="206.95" width="56.45" height="18.1005"/>
			<rect x="0" y="197.9" width="56.4448" height="18.1005" class="st1"/>
			<text x="47.88" y="209.65" class="st2" v:langID="1029"><v:paragraph v:horizAlign="2"/><v:tabList/>2</text>		</g>
		<g id="shape23-184" v:mID="23" v:groupContext="shape" transform="translate(248.276,-193.303)">
			<title>Sheet.23</title>
			<desc>Door-to-Door</desc>
			<v:userDefs>
				<v:ud v:nameU="visNavOrder" v:val="VT0(20000):26"/>
			</v:userDefs>
			<v:textBlock v:margins="rect(4,4,4,4)"/>
			<v:textRect cx="179.612" cy="206.972" width="359.23" height="18.0562"/>
			<rect x="0" y="197.944" width="359.224" height="18.0562" class="st14"/>
			<text x="4" y="209.67" class="st2" v:langID="1029"><v:paragraph/><v:tabList/>Door-to-Door</text>		</g>
		<g id="group118-189" transform="translate(587.578,-178.349)" v:mID="118" v:groupContext="group">
			<v:userDefs>
				<v:ud v:nameU="visNavOrder" v:val="VT0(89000):26"/>
			</v:userDefs>
			<title>Sheet.118</title>
			<g id="shape119-190" v:mID="119" v:groupContext="shape" transform="translate(-2.01508,2.17)">
				<title>Sheet.119</title>
				<path d="M2.3 216 C1.92 216 1.59 215.87 1.32 215.6 C1.05 215.34 0.92 215.02 0.92 214.64 L0 214.64 L0 209.64 C0 209.39
							 0.09 209.18 0.27 209 C0.45 208.82 0.67 208.73 0.92 208.73 L7.36 208.73 L7.36 210.55 L8.74 210.55 L10.12
							 212.37 L10.12 214.64 L9.2 214.64 C9.2 215.02 9.07 215.34 8.8 215.6 C8.53 215.87 8.21 216 7.82 216 C7.44
							 216 7.11 215.87 6.85 215.6 C6.58 215.34 6.44 215.02 6.44 214.64 L3.68 214.64 C3.68 215.02 3.55 215.34
							 3.28 215.6 C3.01 215.87 2.68 216 2.3 216 ZM2.3 215.09 C2.43 215.09 2.54 215.05 2.63 214.96 C2.72 214.87
							 2.76 214.77 2.76 214.64 C2.76 214.51 2.72 214.4 2.63 214.31 C2.54 214.23 2.43 214.18 2.3 214.18 C2.17
							 214.18 2.06 214.23 1.97 214.31 C1.89 214.4 1.84 214.51 1.84 214.64 C1.84 214.77 1.89 214.87 1.97 214.96
							 C2.06 215.05 2.17 215.09 2.3 215.09 ZM0.92 213.73 L1.29 213.73 C1.42 213.59 1.57 213.48 1.74 213.4 C1.91
							 213.32 2.09 213.28 2.3 213.28 C2.51 213.28 2.7 213.32 2.86 213.4 C3.03 213.48 3.18 213.59 3.31 213.73
							 L6.44 213.73 L6.44 209.64 L0.92 209.64 L0.92 213.73 ZM7.82 215.09 C7.95 215.09 8.06 215.05 8.15 214.96
							 C8.24 214.87 8.28 214.77 8.28 214.64 C8.28 214.51 8.24 214.4 8.15 214.31 C8.06 214.23 7.95 214.18 7.82
							 214.18 C7.69 214.18 7.58 214.23 7.5 214.31 C7.41 214.4 7.36 214.51 7.36 214.64 C7.36 214.77 7.41 214.87
							 7.5 214.96 C7.58 215.05 7.69 215.09 7.82 215.09 ZM7.36 212.82 L9.32 212.82 L8.28 211.46 L7.36 211.46
							 L7.36 212.82 Z" class="st3"/>
			</g>
		</g>
		<g id="shape120-192" v:mID="120" v:groupContext="shape" transform="translate(286.875,-44.8352)">
			<title>Sheet.120</title>
			<v:userDefs>
				<v:ud v:nameU="visNavOrder" v:val="VT0(90000):26"/>
			</v:userDefs>
			<rect x="0" y="135" width="129.375" height="81" class="st15"/>
		</g>
		<g id="shape121-194" v:mID="121" v:groupContext="shape" transform="translate(5.0625,-6.71339)">
			<title>Sheet.121</title>
			<desc>*Airplane ahojk - not applicable for these cities</desc>
			<v:userDefs>
				<v:ud v:nameU="visNavOrder" v:val="VT0(91000):26"/>
			</v:userDefs>
			<v:textBlock v:margins="rect(4,4,4,4)"/>
			<v:textRect cx="91.9688" cy="206.982" width="183.94" height="18.0366"/>
			<rect x="0" y="197.963" width="183.938" height="18.0366" class="st1"/>
			<text x="4" y="209.68" class="st2" v:langID="1029"><v:paragraph/><v:tabList/>*Airplane <tspan class="st16">ahojk</tspan> -   not applicable for these cities</text>		</g>
		<g id="group122-198" transform="translate(47.25,-8.22949)" v:mID="122" v:groupContext="group">
			<v:userDefs>
				<v:ud v:nameU="visNavOrder" v:val="VT0(92000):26"/>
			</v:userDefs>
			<title>Sheet.122</title>
			<g id="shape123-199" v:mID="123" v:groupContext="shape">
				<title>Sheet.123</title>
				<path d="M5.02 216 L3.27 212.55 L0 210.69 L1.26 209.38 L3.83 209.85 L5.64 207.94 L0.02 205.41 L1.51 203.79 L8.34
							 205.07 L10.54 202.74 C10.81 202.46 11.15 202.31 11.55 202.31 C11.95 202.31 12.29 202.46 12.56 202.74
							 C12.84 203.03 12.97 203.38 12.97 203.8 C12.97 204.22 12.84 204.58 12.56 204.86 L10.35 207.21 L11.55
							 214.41 L10.04 216 L7.63 210.06 L5.82 211.97 L6.28 214.67 L5.02 216 Z" class="st3"/>
			</g>
		</g>
	</g>
</svg>
