<?xml version="1.0" encoding="UTF-8" standalone="no"?>
<!DOCTYPE svg PUBLIC "-//W3C//DTD SVG 1.1//EN" "http://www.w3.org/Graphics/SVG/1.1/DTD/svg11.dtd">
<!-- Generated by Microsoft Visio, SVG Export F7_metrics_UC4_legend.svg Page-13 -->
<svg xmlns="http://www.w3.org/2000/svg" xmlns:xlink="http://www.w3.org/1999/xlink" xmlns:ev="http://www.w3.org/2001/xml-events"
		xmlns:v="http://schemas.microsoft.com/visio/2003/SVGExtensions/" width="5.37012in" height="1.25in" viewBox="0 0 386.648 90"
		xml:space="preserve" color-interpolation-filters="sRGB" class="st11">
	<v:documentProperties v:langID="1033" v:viewMarkup="false">
		<v:userDefs>
			<v:ud v:nameU="msvNoAutoConnect" v:val="VT0(1):26"/>
		</v:userDefs>
	</v:documentProperties>

	<style type="text/css">
	<![CDATA[
		.st1 {fill:#dbeef3;stroke:#000000;stroke-linecap:round;stroke-linejoin:round;stroke-width:0.75}
		.st2 {fill:none;stroke:none;stroke-linecap:round;stroke-linejoin:round;stroke-width:0.75}
		.st3 {fill:#000000;font-family:Calibri;font-size:1.16666em;font-weight:bold}
		.st4 {font-size:1em}
		.st5 {font-size:0.714294em}
		.st6 {font-size:0.642863em}
		.st7 {fill:#000000;font-family:Calibri;font-size:0.75em;font-weight:bold}
		.st8 {font-size:1.55554em}
		.st9 {fill:#e5b9b5;stroke:#000000;stroke-linecap:round;stroke-linejoin:round;stroke-width:0.75}
		.st10 {fill:#1f1f1f;stroke:none;stroke-linecap:butt;stroke-width:0.01875}
		.st11 {fill:none;fill-rule:evenodd;font-size:12px;overflow:visible;stroke-linecap:square;stroke-miterlimit:3}
	]]>
	</style>

	<g v:mID="20" v:index="13" v:groupContext="foregroundPage">
		<v:userDefs>
			<v:ud v:nameU="visNavType" v:val="VT0(1):26"/>
		</v:userDefs>
		<title>UC4 legend</title>
		<v:pageProperties v:drawingScale="1" v:pageScale="1" v:drawingUnits="19" v:shadowOffsetX="9" v:shadowOffsetY="-9"/>
		<v:layer v:name="Flowchart" v:index="0"/>
		<v:layer v:name="Callout" v:index="1"/>
		<g id="shape1-1" v:mID="1" v:groupContext="shape" v:layerMember="0" transform="translate(8.64845,-4.50002)">
			<title>Process.1600</title>
			<v:custProps>
				<v:cp v:nameU="Cost" v:lbl="Cost" v:type="7" v:format="@" v:langID="1033"/>
				<v:cp v:nameU="Duration" v:lbl="Duration" v:type="2" v:langID="1033"/>
				<v:cp v:nameU="Resources" v:lbl="Resources" v:langID="1033"/>
			</v:custProps>
			<v:userDefs>
				<v:ud v:nameU="visVersion" v:val="VT0(12):26"/>
				<v:ud v:nameU="visNavOrder" v:val="VT0(1000):26"/>
			</v:userDefs>
			<rect x="0" y="81" width="306" height="9" class="st1"/>
		</g>
		<g id="shape2-3" v:mID="2" v:groupContext="shape" transform="translate(-2.60155,-17.0156)">
			<title>Sheet.2</title>
			<desc>A (From)</desc>
			<v:userDefs>
				<v:ud v:nameU="visNavOrder" v:val="VT0(3000):26"/>
			</v:userDefs>
			<v:textBlock v:margins="rect(4,4,4,4)"/>
			<v:textRect cx="24.75" cy="84.5156" width="49.5" height="10.9688"/>
			<rect x="0" y="79.0312" width="49.5" height="10.9688" class="st2"/>
			<text x="4.98" y="88.72" class="st3" v:langID="1033"><v:paragraph v:horizAlign="1"/><v:tabList/>A<tspan class="st4"
						v:langID="1029"> </tspan><tspan class="st5" v:langID="1029">(From)</tspan></text>		</g>
		<g id="shape3-8" v:mID="3" v:groupContext="shape" transform="translate(289.898,-15.75)">
			<title>Sheet.3</title>
			<desc>B (To)</desc>
			<v:userDefs>
				<v:ud v:nameU="visNavOrder" v:val="VT0(4000):26"/>
			</v:userDefs>
			<v:textBlock v:margins="rect(4,4,4,4)"/>
			<v:textRect cx="20.25" cy="83.25" width="40.5" height="13.5"/>
			<rect x="0" y="76.5" width="40.5" height="13.5" class="st2"/>
			<text x="7.29" y="87.45" class="st3" v:langID="1033"><v:paragraph v:horizAlign="1"/><v:tabList/>B<tspan class="st4"
						v:langID="1029"> </tspan><tspan class="st6" v:langID="1029">(To)</tspan></text>		</g>
		<g id="shape4-13" v:mID="4" v:groupContext="shape" transform="translate(346.148,-15.75)">
			<title>Sheet.4</title>
			<desc>DTD B</desc>
			<v:userDefs>
				<v:ud v:nameU="visNavOrder" v:val="VT0(5000):26"/>
			</v:userDefs>
			<v:textBlock v:margins="rect(4,4,4,4)"/>
			<v:textRect cx="24.75" cy="83.25" width="49.5" height="13.5"/>
			<rect x="0" y="76.5" width="49.5" height="13.5" class="st2"/>
			<text x="11.91" y="87.45" class="st7" v:langID="1033"><v:paragraph v:horizAlign="1"/><v:tabList/>DTD <tspan class="st8">B</tspan></text>		</g>
		<g id="shape5-17" v:mID="5" v:groupContext="shape" v:layerMember="0" transform="translate(314.648,-4.5)">
			<title>Process.1605</title>
			<v:custProps>
				<v:cp v:nameU="Cost" v:lbl="Cost" v:type="7" v:format="@" v:langID="1033"/>
				<v:cp v:nameU="Duration" v:lbl="Duration" v:type="2" v:langID="1033"/>
				<v:cp v:nameU="Resources" v:lbl="Resources" v:langID="1033"/>
			</v:custProps>
			<v:userDefs>
				<v:ud v:nameU="visVersion" v:val="VT0(12):26"/>
				<v:ud v:nameU="visNavOrder" v:val="VT0(2000):26"/>
			</v:userDefs>
			<rect x="0" y="81" width="49.5" height="9" class="st9"/>
		</g>
		<g id="group6-19" transform="translate(155.648,-25.875)" v:mID="6" v:groupContext="group">
			<v:userDefs>
				<v:ud v:nameU="visNavOrder" v:val="VT0(6000):26"/>
			</v:userDefs>
			<title>Sheet.6</title>
			<g id="shape7-20" v:mID="7" v:groupContext="shape">
				<title>Sheet.7</title>
				<path d="M3.75 90 C3.13 90 2.59 89.78 2.16 89.34 C1.72 88.91 1.5 88.37 1.5 87.75 L0 87.75 L0 79.5 C0 79.09 0.15 78.73
							 0.44 78.44 C0.73 78.15 1.09 78 1.5 78 L12 78 L12 81 L14.25 81 L16.5 84 L16.5 87.75 L15 87.75 C15 88.37
							 14.78 88.91 14.34 89.34 C13.91 89.78 13.38 90 12.75 90 C12.13 90 11.59 89.78 11.16 89.34 C10.72 88.91
							 10.5 88.37 10.5 87.75 L6 87.75 C6 88.37 5.78 88.91 5.34 89.34 C4.91 89.78 4.38 90 3.75 90 ZM3.75 88.5
							 C3.96 88.5 4.14 88.43 4.28 88.28 C4.43 88.14 4.5 87.96 4.5 87.75 C4.5 87.54 4.43 87.36 4.28 87.22 C4.14
							 87.07 3.96 87 3.75 87 C3.54 87 3.36 87.07 3.22 87.22 C3.07 87.36 3 87.54 3 87.75 C3 87.96 3.07 88.14
							 3.22 88.28 C3.36 88.43 3.54 88.5 3.75 88.5 ZM1.5 86.25 L2.1 86.25 C2.31 86.02 2.56 85.84 2.83 85.71
							 C3.11 85.57 3.41 85.5 3.75 85.5 C4.09 85.5 4.39 85.57 4.67 85.71 C4.94 85.84 5.19 86.02 5.4 86.25 L10.5
							 86.25 L10.5 79.5 L1.5 79.5 L1.5 86.25 ZM12.75 88.5 C12.96 88.5 13.14 88.43 13.28 88.28 C13.43 88.14
							 13.5 87.96 13.5 87.75 C13.5 87.54 13.43 87.36 13.28 87.22 C13.14 87.07 12.96 87 12.75 87 C12.54 87 12.36
							 87.07 12.22 87.22 C12.07 87.36 12 87.54 12 87.75 C12 87.96 12.07 88.14 12.22 88.28 C12.36 88.43 12.54
							 88.5 12.75 88.5 ZM12 84.75 L15.19 84.75 L13.5 82.5 L12 82.5 L12 84.75 Z" class="st10"/>
			</g>
		</g>
		<g id="group8-22" transform="translate(333.398,-25.875)" v:mID="8" v:groupContext="group">
			<v:userDefs>
				<v:ud v:nameU="visNavOrder" v:val="VT0(7000):26"/>
			</v:userDefs>
			<title>Sheet.8</title>
			<g id="shape9-23" v:mID="9" v:groupContext="shape">
				<title>Sheet.9</title>
				<path d="M3.75 90 C3.13 90 2.59 89.78 2.16 89.34 C1.72 88.91 1.5 88.37 1.5 87.75 L0 87.75 L0 79.5 C0 79.09 0.15 78.73
							 0.44 78.44 C0.73 78.15 1.09 78 1.5 78 L12 78 L12 81 L14.25 81 L16.5 84 L16.5 87.75 L15 87.75 C15 88.37
							 14.78 88.91 14.34 89.34 C13.91 89.78 13.38 90 12.75 90 C12.13 90 11.59 89.78 11.16 89.34 C10.72 88.91
							 10.5 88.37 10.5 87.75 L6 87.75 C6 88.37 5.78 88.91 5.34 89.34 C4.91 89.78 4.38 90 3.75 90 ZM3.75 88.5
							 C3.96 88.5 4.14 88.43 4.28 88.28 C4.43 88.14 4.5 87.96 4.5 87.75 C4.5 87.54 4.43 87.36 4.28 87.22 C4.14
							 87.07 3.96 87 3.75 87 C3.54 87 3.36 87.07 3.22 87.22 C3.07 87.36 3 87.54 3 87.75 C3 87.96 3.07 88.14
							 3.22 88.28 C3.36 88.43 3.54 88.5 3.75 88.5 ZM1.5 86.25 L2.1 86.25 C2.31 86.02 2.56 85.84 2.83 85.71
							 C3.11 85.57 3.41 85.5 3.75 85.5 C4.09 85.5 4.39 85.57 4.67 85.71 C4.94 85.84 5.19 86.02 5.4 86.25 L10.5
							 86.25 L10.5 79.5 L1.5 79.5 L1.5 86.25 ZM12.75 88.5 C12.96 88.5 13.14 88.43 13.28 88.28 C13.43 88.14
							 13.5 87.96 13.5 87.75 C13.5 87.54 13.43 87.36 13.28 87.22 C13.14 87.07 12.96 87 12.75 87 C12.54 87 12.36
							 87.07 12.22 87.22 C12.07 87.36 12 87.54 12 87.75 C12 87.96 12.07 88.14 12.22 88.28 C12.36 88.43 12.54
							 88.5 12.75 88.5 ZM12 84.75 L15.19 84.75 L13.5 82.5 L12 82.5 L12 84.75 Z" class="st10"/>
			</g>
		</g>
		<g id="shape10-25" v:mID="10" v:groupContext="shape" v:layerMember="0" transform="translate(8.64844,-52.125)">
			<title>Process.10</title>
			<v:custProps>
				<v:cp v:nameU="Cost" v:lbl="Cost" v:type="7" v:format="@" v:langID="1033"/>
				<v:cp v:nameU="Duration" v:lbl="Duration" v:type="2" v:langID="1033"/>
				<v:cp v:nameU="Resources" v:lbl="Resources" v:langID="1033"/>
			</v:custProps>
			<v:userDefs>
				<v:ud v:nameU="visVersion" v:val="VT0(12):26"/>
				<v:ud v:nameU="visNavOrder" v:val="VT0(8000):26"/>
			</v:userDefs>
			<rect x="0" y="81" width="306" height="9" class="st1"/>
		</g>
		<g id="shape11-27" v:mID="11" v:groupContext="shape" transform="translate(-2.60156,-64.6406)">
			<title>Sheet.11</title>
			<desc>A (From)</desc>
			<v:userDefs>
				<v:ud v:nameU="visNavOrder" v:val="VT0(10000):26"/>
			</v:userDefs>
			<v:textBlock v:margins="rect(4,4,4,4)"/>
			<v:textRect cx="24.75" cy="84.5156" width="49.5" height="10.9688"/>
			<rect x="0" y="79.0312" width="49.5" height="10.9688" class="st2"/>
			<text x="4.98" y="88.72" class="st3" v:langID="1033"><v:paragraph v:horizAlign="1"/><v:tabList/>A<tspan class="st4"
						v:langID="1029"> </tspan><tspan class="st5" v:langID="1029">(From)</tspan></text>		</g>
		<g id="shape12-32" v:mID="12" v:groupContext="shape" transform="translate(289.898,-63.375)">
			<title>Sheet.12</title>
			<desc>B (To)</desc>
			<v:userDefs>
				<v:ud v:nameU="visNavOrder" v:val="VT0(11000):26"/>
			</v:userDefs>
			<v:textBlock v:margins="rect(4,4,4,4)"/>
			<v:textRect cx="20.25" cy="83.25" width="40.5" height="13.5"/>
			<rect x="0" y="76.5" width="40.5" height="13.5" class="st2"/>
			<text x="7.29" y="87.45" class="st3" v:langID="1033"><v:paragraph v:horizAlign="1"/><v:tabList/>B<tspan class="st4"
						v:langID="1029"> </tspan><tspan class="st6" v:langID="1029">(To)</tspan></text>		</g>
		<g id="group15-37" transform="translate(155.648,-73.5)" v:mID="15" v:groupContext="group">
			<v:userDefs>
				<v:ud v:nameU="visNavOrder" v:val="VT0(13000):26"/>
			</v:userDefs>
			<title>Sheet.15</title>
			<g id="shape16-38" v:mID="16" v:groupContext="shape">
				<title>Sheet.16</title>
				<path d="M3.75 90 C3.13 90 2.59 89.78 2.16 89.34 C1.72 88.91 1.5 88.37 1.5 87.75 L0 87.75 L0 79.5 C0 79.09 0.15 78.73
							 0.44 78.44 C0.73 78.15 1.09 78 1.5 78 L12 78 L12 81 L14.25 81 L16.5 84 L16.5 87.75 L15 87.75 C15 88.37
							 14.78 88.91 14.34 89.34 C13.91 89.78 13.38 90 12.75 90 C12.13 90 11.59 89.78 11.16 89.34 C10.72 88.91
							 10.5 88.37 10.5 87.75 L6 87.75 C6 88.37 5.78 88.91 5.34 89.34 C4.91 89.78 4.38 90 3.75 90 ZM3.75 88.5
							 C3.96 88.5 4.14 88.43 4.28 88.28 C4.43 88.14 4.5 87.96 4.5 87.75 C4.5 87.54 4.43 87.36 4.28 87.22 C4.14
							 87.07 3.96 87 3.75 87 C3.54 87 3.36 87.07 3.22 87.22 C3.07 87.36 3 87.54 3 87.75 C3 87.96 3.07 88.14
							 3.22 88.28 C3.36 88.43 3.54 88.5 3.75 88.5 ZM1.5 86.25 L2.1 86.25 C2.31 86.02 2.56 85.84 2.83 85.71
							 C3.11 85.57 3.41 85.5 3.75 85.5 C4.09 85.5 4.39 85.57 4.67 85.71 C4.94 85.84 5.19 86.02 5.4 86.25 L10.5
							 86.25 L10.5 79.5 L1.5 79.5 L1.5 86.25 ZM12.75 88.5 C12.96 88.5 13.14 88.43 13.28 88.28 C13.43 88.14
							 13.5 87.96 13.5 87.75 C13.5 87.54 13.43 87.36 13.28 87.22 C13.14 87.07 12.96 87 12.75 87 C12.54 87 12.36
							 87.07 12.22 87.22 C12.07 87.36 12 87.54 12 87.75 C12 87.96 12.07 88.14 12.22 88.28 C12.36 88.43 12.54
							 88.5 12.75 88.5 ZM12 84.75 L15.19 84.75 L13.5 82.5 L12 82.5 L12 84.75 Z" class="st10"/>
			</g>
		</g>
	</g>
</svg>
