<?xml version="1.0" encoding="UTF-8" standalone="no"?>
<!DOCTYPE svg PUBLIC "-//W3C//DTD SVG 1.1//EN" "http://www.w3.org/Graphics/SVG/1.1/DTD/svg11.dtd">
<!-- Generated by Microsoft Visio, SVG Export F7_metrics_UC3_basic_legend.svg UC3 Basic Legen train air -->
<svg xmlns="http://www.w3.org/2000/svg" xmlns:xlink="http://www.w3.org/1999/xlink" xmlns:ev="http://www.w3.org/2001/xml-events"
		xmlns:v="http://schemas.microsoft.com/visio/2003/SVGExtensions/" width="5.68262in" height="1.6875in"
		viewBox="0 0 409.148 121.5" xml:space="preserve" color-interpolation-filters="sRGB" class="st15">
	<v:documentProperties v:langID="1033" v:viewMarkup="false">
		<v:userDefs>
			<v:ud v:nameU="msvNoAutoConnect" v:val="VT0(1):26"/>
		</v:userDefs>
	</v:documentProperties>

	<style type="text/css">
	<![CDATA[
		.st1 {fill:#ebf1df;stroke:#000000;stroke-linecap:round;stroke-linejoin:round;stroke-width:0.75}
		.st2 {fill:#dbeef3;stroke:#000000;stroke-linecap:round;stroke-linejoin:round;stroke-width:0.75}
		.st3 {fill:none;stroke:none;stroke-linecap:round;stroke-linejoin:round;stroke-width:0.75}
		.st4 {fill:#000000;font-family:Calibri;font-size:1.16666em;font-weight:bold}
		.st5 {font-size:1em}
		.st6 {font-size:0.714294em}
		.st7 {font-size:0.642863em}
		.st8 {fill:#000000;font-family:Calibri;font-size:0.75em;font-weight:bold}
		.st9 {font-size:1.55554em}
		.st10 {fill:#1f1f1f;stroke:none;stroke-linecap:butt;stroke-width:0.01875}
		.st11 {fill:#e5b9b5;stroke:#000000;stroke-linecap:round;stroke-linejoin:round;stroke-width:0.75}
		.st12 {stroke:#000000;stroke-dasharray:0,3.6;stroke-linecap:round;stroke-linejoin:round;stroke-width:0.72}
		.st13 {stroke:#000000;stroke-linecap:round;stroke-linejoin:round;stroke-width:0.72}
		.st14 {fill:#000000;font-family:Calibri;font-size:1.00001em}
		.st15 {fill:none;fill-rule:evenodd;font-size:12px;overflow:visible;stroke-linecap:square;stroke-miterlimit:3}
	]]>
	</style>

	<g v:mID="15" v:index="10" v:groupContext="foregroundPage">
		<v:userDefs>
			<v:ud v:nameU="visNavType" v:val="VT0(1):26"/>
		</v:userDefs>
		<title>UC3 Basic Legend train air</title>
		<v:pageProperties v:drawingScale="1" v:pageScale="1" v:drawingUnits="19" v:shadowOffsetX="9" v:shadowOffsetY="-9"/>
		<v:layer v:name="Flowchart" v:index="0"/>
		<v:layer v:name="Callout" v:index="1"/>
		<g id="shape1-1" v:mID="1" v:groupContext="shape" v:layerMember="0" transform="translate(312.387,-40.5)">
			<title>Process.1626</title>
			<v:custProps>
				<v:cp v:nameU="Cost" v:lbl="Cost" v:type="7" v:format="@" v:langID="1033"/>
				<v:cp v:nameU="Duration" v:lbl="Duration" v:type="2" v:langID="1033"/>
				<v:cp v:nameU="Resources" v:lbl="Resources" v:langID="1033"/>
			</v:custProps>
			<v:userDefs>
				<v:ud v:nameU="visVersion" v:val="VT0(12):26"/>
				<v:ud v:nameU="visNavOrder" v:val="VT0(7000):26"/>
			</v:userDefs>
			<rect x="0" y="112.5" width="24.7725" height="9" class="st1"/>
		</g>
		<g id="shape2-3" v:mID="2" v:groupContext="shape" v:layerMember="0" transform="translate(6.39845,-40.5)">
			<title>Process.1613</title>
			<v:custProps>
				<v:cp v:nameU="Cost" v:lbl="Cost" v:type="7" v:format="@" v:langID="1033"/>
				<v:cp v:nameU="Duration" v:lbl="Duration" v:type="2" v:langID="1033"/>
				<v:cp v:nameU="Resources" v:lbl="Resources" v:langID="1033"/>
			</v:custProps>
			<v:userDefs>
				<v:ud v:nameU="visVersion" v:val="VT0(12):26"/>
				<v:ud v:nameU="visNavOrder" v:val="VT0(1000):26"/>
			</v:userDefs>
			<rect x="0" y="112.5" width="306" height="9" class="st2"/>
		</g>
		<g id="shape3-5" v:mID="3" v:groupContext="shape" transform="translate(-4.85155,-53.0156)">
			<title>Sheet.3</title>
			<desc>A (From)</desc>
			<v:userDefs>
				<v:ud v:nameU="visNavOrder" v:val="VT0(3000):26"/>
			</v:userDefs>
			<v:textBlock v:margins="rect(4,4,4,4)"/>
			<v:textRect cx="24.75" cy="116.016" width="49.5" height="10.9688"/>
			<rect x="0" y="110.531" width="49.5" height="10.9688" class="st3"/>
			<text x="4.98" y="120.22" class="st4" v:langID="1033"><v:paragraph v:horizAlign="1"/><v:tabList/>A<tspan class="st5"
						v:langID="1029"> </tspan><tspan class="st6" v:langID="1029">(From)</tspan></text>		</g>
		<g id="shape4-10" v:mID="4" v:groupContext="shape" transform="translate(287.648,-51.75)">
			<title>Sheet.4</title>
			<desc>B (To)</desc>
			<v:userDefs>
				<v:ud v:nameU="visNavOrder" v:val="VT0(4000):26"/>
			</v:userDefs>
			<v:textBlock v:margins="rect(4,4,4,4)"/>
			<v:textRect cx="20.25" cy="114.75" width="40.5" height="13.5"/>
			<rect x="0" y="108" width="40.5" height="13.5" class="st3"/>
			<text x="7.29" y="118.95" class="st4" v:langID="1033"><v:paragraph v:horizAlign="1"/><v:tabList/>B<tspan class="st5"
						v:langID="1029"> </tspan><tspan class="st7" v:langID="1029">(To)</tspan></text>		</g>
		<g id="shape5-15" v:mID="5" v:groupContext="shape" transform="translate(368.648,-51.75)">
			<title>Sheet.5</title>
			<desc>DTD B</desc>
			<v:userDefs>
				<v:ud v:nameU="visNavOrder" v:val="VT0(5000):26"/>
			</v:userDefs>
			<v:textBlock v:margins="rect(4,4,4,4)"/>
			<v:textRect cx="24.75" cy="114.75" width="49.5" height="13.5"/>
			<rect x="0" y="108" width="49.5" height="13.5" class="st3"/>
			<text x="11.91" y="118.95" class="st8" v:langID="1033"><v:paragraph v:horizAlign="1"/><v:tabList/>DTD <tspan
						class="st9">B</tspan></text>		</g>
		<g id="group6-19" transform="translate(351.398,-58.5)" v:mID="6" v:groupContext="group">
			<v:userDefs>
				<v:ud v:nameU="visNavOrder" v:val="VT0(6000):26"/>
			</v:userDefs>
			<title>Sheet.6</title>
			<g id="shape7-20" v:mID="7" v:groupContext="shape">
				<title>Sheet.7</title>
				<path d="M3.75 121.5 C3.13 121.5 2.59 121.28 2.16 120.84 C1.72 120.41 1.5 119.87 1.5 119.25 L0 119.25 L0 111 C0 110.59
							 0.15 110.23 0.44 109.94 C0.73 109.65 1.09 109.5 1.5 109.5 L12 109.5 L12 112.5 L14.25 112.5 L16.5 115.5
							 L16.5 119.25 L15 119.25 C15 119.87 14.78 120.41 14.34 120.84 C13.91 121.28 13.38 121.5 12.75 121.5 C12.13
							 121.5 11.59 121.28 11.16 120.84 C10.72 120.41 10.5 119.87 10.5 119.25 L6 119.25 C6 119.87 5.78 120.41
							 5.34 120.84 C4.91 121.28 4.38 121.5 3.75 121.5 ZM3.75 120 C3.96 120 4.14 119.93 4.28 119.78 C4.43 119.64
							 4.5 119.46 4.5 119.25 C4.5 119.04 4.43 118.86 4.28 118.72 C4.14 118.57 3.96 118.5 3.75 118.5 C3.54 118.5
							 3.36 118.57 3.22 118.72 C3.07 118.86 3 119.04 3 119.25 C3 119.46 3.07 119.64 3.22 119.78 C3.36 119.93
							 3.54 120 3.75 120 ZM1.5 117.75 L2.1 117.75 C2.31 117.52 2.56 117.34 2.83 117.21 C3.11 117.07 3.41 117
							 3.75 117 C4.09 117 4.39 117.07 4.67 117.21 C4.94 117.34 5.19 117.52 5.4 117.75 L10.5 117.75 L10.5 111
							 L1.5 111 L1.5 117.75 ZM12.75 120 C12.96 120 13.14 119.93 13.28 119.78 C13.43 119.64 13.5 119.46 13.5
							 119.25 C13.5 119.04 13.43 118.86 13.28 118.72 C13.14 118.57 12.96 118.5 12.75 118.5 C12.54 118.5 12.36
							 118.57 12.22 118.72 C12.07 118.86 12 119.04 12 119.25 C12 119.46 12.07 119.64 12.22 119.78 C12.36 119.93
							 12.54 120 12.75 120 ZM12 116.25 L15.19 116.25 L13.5 114 L12 114 L12 116.25 Z" class="st10"/>
			</g>
		</g>
		<g id="group8-22" transform="translate(154.898,-56.8125)" v:mID="8" v:groupContext="group">
			<v:userDefs>
				<v:ud v:nameU="visNavOrder" v:val="VT0(8000):26"/>
			</v:userDefs>
			<title>Sheet.8</title>
			<g id="shape9-23" v:mID="9" v:groupContext="shape">
				<title>Sheet.9</title>
				<path d="M0 117.37 L0 110.25 C0 109.59 0.17 109.06 0.52 108.67 C0.86 108.27 1.31 107.97 1.88 107.77 C2.44 107.56
							 3.08 107.42 3.8 107.35 C4.52 107.28 5.25 107.25 6 107.25 C6.83 107.25 7.6 107.28 8.33 107.35 C9.07 107.42
							 9.7 107.56 10.25 107.77 C10.79 107.97 11.22 108.27 11.53 108.67 C11.84 109.06 12 109.59 12 110.25 L12
							 117.37 C12 118.11 11.75 118.73 11.24 119.24 C10.73 119.75 10.11 120 9.38 120 L10.5 121.12 L10.5 121.5
							 L9 121.5 L7.5 120 L4.5 120 L3 121.5 L1.5 121.5 L1.5 121.12 L2.63 120 C1.89 120 1.27 119.75 0.76 119.24
							 C0.25 118.73 0 118.11 0 117.37 ZM6 108.75 C4.68 108.75 3.71 108.83 3.09 108.98 C2.48 109.14 2.06 109.31
							 1.84 109.5 L10.24 109.5 C10.05 109.29 9.65 109.11 9.03 108.97 C8.41 108.82 7.4 108.75 6 108.75 ZM1.5
							 113.25 L5.25 113.25 L5.25 111 L1.5 111 L1.5 113.25 ZM9.38 114.75 L1.5 114.75 L10.5 114.75 L9.38 114.75
							 ZM6.75 113.25 L10.5 113.25 L10.5 111 L6.75 111 L6.75 113.25 ZM3.38 117.75 C3.7 117.75 3.97 117.64 4.18
							 117.43 C4.39 117.22 4.5 116.95 4.5 116.62 C4.5 116.3 4.39 116.03 4.18 115.82 C3.97 115.61 3.7 115.5
							 3.38 115.5 C3.05 115.5 2.78 115.61 2.57 115.82 C2.36 116.03 2.25 116.3 2.25 116.62 C2.25 116.95 2.36
							 117.22 2.57 117.43 C2.78 117.64 3.05 117.75 3.38 117.75 ZM8.63 117.75 C8.95 117.75 9.22 117.64 9.43
							 117.43 C9.64 117.22 9.75 116.95 9.75 116.62 C9.75 116.3 9.64 116.03 9.43 115.82 C9.22 115.61 8.95 115.5
							 8.63 115.5 C8.3 115.5 8.03 115.61 7.82 115.82 C7.61 116.03 7.5 116.3 7.5 116.62 C7.5 116.95 7.61 117.22
							 7.82 117.43 C8.03 117.64 8.3 117.75 8.63 117.75 ZM2.63 118.5 L9.38 118.5 C9.7 118.5 9.97 118.39 10.18
							 118.18 C10.39 117.97 10.5 117.7 10.5 117.37 L10.5 114.75 L1.5 114.75 L1.5 117.37 C1.5 117.7 1.61 117.97
							 1.82 118.18 C2.03 118.39 2.3 118.5 2.63 118.5 ZM6 109.5 L10.24 109.5 L1.84 109.5 L6 109.5 Z"
						class="st10"/>
			</g>
		</g>
		<g id="group10-25" transform="translate(172.045,-57.375)" v:mID="10" v:groupContext="group">
			<v:userDefs>
				<v:ud v:nameU="visNavOrder" v:val="VT0(9000):26"/>
			</v:userDefs>
			<title>Sheet.10</title>
			<g id="shape11-26" v:mID="11" v:groupContext="shape">
				<title>Sheet.11</title>
				<path d="M5.31 121.5 L3.45 118.05 L0 116.19 L1.33 114.88 L4.05 115.35 L5.96 113.44 L0.02 110.91 L1.59 109.29 L8.81
							 110.57 L11.14 108.24 C11.42 107.96 11.78 107.81 12.21 107.81 C12.63 107.81 12.99 107.96 13.27 108.24
							 C13.56 108.53 13.71 108.88 13.71 109.3 C13.71 109.72 13.56 110.07 13.27 110.36 L10.93 112.71 L12.21
							 119.91 L10.61 121.5 L8.06 115.56 L6.15 117.47 L6.64 120.17 L5.31 121.5 Z" class="st10"/>
			</g>
		</g>
		<g id="shape12-28" v:mID="12" v:groupContext="shape" v:layerMember="0" transform="translate(337.148,-40.5)">
			<title>Process.1618</title>
			<v:custProps>
				<v:cp v:nameU="Cost" v:lbl="Cost" v:type="7" v:format="@" v:langID="1033"/>
				<v:cp v:nameU="Duration" v:lbl="Duration" v:type="2" v:langID="1033"/>
				<v:cp v:nameU="Resources" v:lbl="Resources" v:langID="1033"/>
			</v:custProps>
			<v:userDefs>
				<v:ud v:nameU="visVersion" v:val="VT0(12):26"/>
				<v:ud v:nameU="visNavOrder" v:val="VT0(2000):26"/>
			</v:userDefs>
			<rect x="0" y="112.5" width="49.5" height="9" class="st11"/>
		</g>
		<g id="shape20-30" v:mID="20" v:groupContext="shape" v:layerMember="0" transform="translate(6.39845,-87.75)">
			<title>Process.1600</title>
			<v:custProps>
				<v:cp v:nameU="Cost" v:lbl="Cost" v:type="7" v:format="@" v:langID="1033"/>
				<v:cp v:nameU="Duration" v:lbl="Duration" v:type="2" v:langID="1033"/>
				<v:cp v:nameU="Resources" v:lbl="Resources" v:langID="1033"/>
			</v:custProps>
			<v:userDefs>
				<v:ud v:nameU="visVersion" v:val="VT0(12):26"/>
				<v:ud v:nameU="visNavOrder" v:val="VT0(12000):26"/>
			</v:userDefs>
			<rect x="0" y="112.5" width="306" height="9" class="st2"/>
		</g>
		<g id="shape21-32" v:mID="21" v:groupContext="shape" transform="translate(-4.85155,-100.266)">
			<title>Sheet.21</title>
			<desc>A (From)</desc>
			<v:userDefs>
				<v:ud v:nameU="visNavOrder" v:val="VT0(14000):26"/>
			</v:userDefs>
			<v:textBlock v:margins="rect(4,4,4,4)"/>
			<v:textRect cx="24.75" cy="116.016" width="49.5" height="10.9688"/>
			<rect x="0" y="110.531" width="49.5" height="10.9688" class="st3"/>
			<text x="4.98" y="120.22" class="st4" v:langID="1033"><v:paragraph v:horizAlign="1"/><v:tabList/>A<tspan class="st5"
						v:langID="1029"> </tspan><tspan class="st6" v:langID="1029">(From)</tspan></text>		</g>
		<g id="shape22-37" v:mID="22" v:groupContext="shape" transform="translate(287.648,-99)">
			<title>Sheet.22</title>
			<desc>B (To)</desc>
			<v:userDefs>
				<v:ud v:nameU="visNavOrder" v:val="VT0(15000):26"/>
			</v:userDefs>
			<v:textBlock v:margins="rect(4,4,4,4)"/>
			<v:textRect cx="20.25" cy="114.75" width="40.5" height="13.5"/>
			<rect x="0" y="108" width="40.5" height="13.5" class="st3"/>
			<text x="7.29" y="118.95" class="st4" v:langID="1033"><v:paragraph v:horizAlign="1"/><v:tabList/>B<tspan class="st5"
						v:langID="1029"> </tspan><tspan class="st7" v:langID="1029">(To)</tspan></text>		</g>
		<g id="shape23-42" v:mID="23" v:groupContext="shape" transform="translate(343.898,-99)">
			<title>Sheet.23</title>
			<desc>DTD B</desc>
			<v:userDefs>
				<v:ud v:nameU="visNavOrder" v:val="VT0(16000):26"/>
			</v:userDefs>
			<v:textBlock v:margins="rect(4,4,4,4)"/>
			<v:textRect cx="24.75" cy="114.75" width="49.5" height="13.5"/>
			<rect x="0" y="108" width="49.5" height="13.5" class="st3"/>
			<text x="11.91" y="118.95" class="st8" v:langID="1033"><v:paragraph v:horizAlign="1"/><v:tabList/>DTD <tspan
						class="st9">B</tspan></text>		</g>
		<g id="shape24-46" v:mID="24" v:groupContext="shape" v:layerMember="0" transform="translate(312.398,-87.75)">
			<title>Process.1605</title>
			<v:custProps>
				<v:cp v:nameU="Cost" v:lbl="Cost" v:type="7" v:format="@" v:langID="1033"/>
				<v:cp v:nameU="Duration" v:lbl="Duration" v:type="2" v:langID="1033"/>
				<v:cp v:nameU="Resources" v:lbl="Resources" v:langID="1033"/>
			</v:custProps>
			<v:userDefs>
				<v:ud v:nameU="visVersion" v:val="VT0(12):26"/>
				<v:ud v:nameU="visNavOrder" v:val="VT0(13000):26"/>
			</v:userDefs>
			<rect x="0" y="112.5" width="49.5" height="9" class="st11"/>
		</g>
		<g id="group25-48" transform="translate(153.398,-108.75)" v:mID="25" v:groupContext="group">
			<v:userDefs>
				<v:ud v:nameU="visNavOrder" v:val="VT0(17000):26"/>
			</v:userDefs>
			<title>Sheet.25</title>
			<g id="shape26-49" v:mID="26" v:groupContext="shape">
				<title>Sheet.26</title>
				<path d="M3.75 121.5 C3.13 121.5 2.59 121.28 2.16 120.84 C1.72 120.41 1.5 119.87 1.5 119.25 L0 119.25 L0 111 C0 110.59
							 0.15 110.23 0.44 109.94 C0.73 109.65 1.09 109.5 1.5 109.5 L12 109.5 L12 112.5 L14.25 112.5 L16.5 115.5
							 L16.5 119.25 L15 119.25 C15 119.87 14.78 120.41 14.34 120.84 C13.91 121.28 13.38 121.5 12.75 121.5 C12.13
							 121.5 11.59 121.28 11.16 120.84 C10.72 120.41 10.5 119.87 10.5 119.25 L6 119.25 C6 119.87 5.78 120.41
							 5.34 120.84 C4.91 121.28 4.38 121.5 3.75 121.5 ZM3.75 120 C3.96 120 4.14 119.93 4.28 119.78 C4.43 119.64
							 4.5 119.46 4.5 119.25 C4.5 119.04 4.43 118.86 4.28 118.72 C4.14 118.57 3.96 118.5 3.75 118.5 C3.54 118.5
							 3.36 118.57 3.22 118.72 C3.07 118.86 3 119.04 3 119.25 C3 119.46 3.07 119.64 3.22 119.78 C3.36 119.93
							 3.54 120 3.75 120 ZM1.5 117.75 L2.1 117.75 C2.31 117.52 2.56 117.34 2.83 117.21 C3.11 117.07 3.41 117
							 3.75 117 C4.09 117 4.39 117.07 4.67 117.21 C4.94 117.34 5.19 117.52 5.4 117.75 L10.5 117.75 L10.5 111
							 L1.5 111 L1.5 117.75 ZM12.75 120 C12.96 120 13.14 119.93 13.28 119.78 C13.43 119.64 13.5 119.46 13.5
							 119.25 C13.5 119.04 13.43 118.86 13.28 118.72 C13.14 118.57 12.96 118.5 12.75 118.5 C12.54 118.5 12.36
							 118.57 12.22 118.72 C12.07 118.86 12 119.04 12 119.25 C12 119.46 12.07 119.64 12.22 119.78 C12.36 119.93
							 12.54 120 12.75 120 ZM12 116.25 L15.19 116.25 L13.5 114 L12 114 L12 116.25 Z" class="st10"/>
			</g>
		</g>
		<g id="group27-51" transform="translate(331.148,-108.375)" v:mID="27" v:groupContext="group">
			<v:userDefs>
				<v:ud v:nameU="visNavOrder" v:val="VT0(18000):26"/>
			</v:userDefs>
			<title>Sheet.27</title>
			<g id="shape28-52" v:mID="28" v:groupContext="shape">
				<title>Sheet.28</title>
				<path d="M3.75 121.5 C3.13 121.5 2.59 121.28 2.16 120.84 C1.72 120.41 1.5 119.87 1.5 119.25 L0 119.25 L0 111 C0 110.59
							 0.15 110.23 0.44 109.94 C0.73 109.65 1.09 109.5 1.5 109.5 L12 109.5 L12 112.5 L14.25 112.5 L16.5 115.5
							 L16.5 119.25 L15 119.25 C15 119.87 14.78 120.41 14.34 120.84 C13.91 121.28 13.38 121.5 12.75 121.5 C12.13
							 121.5 11.59 121.28 11.16 120.84 C10.72 120.41 10.5 119.87 10.5 119.25 L6 119.25 C6 119.87 5.78 120.41
							 5.34 120.84 C4.91 121.28 4.38 121.5 3.75 121.5 ZM3.75 120 C3.96 120 4.14 119.93 4.28 119.78 C4.43 119.64
							 4.5 119.46 4.5 119.25 C4.5 119.04 4.43 118.86 4.28 118.72 C4.14 118.57 3.96 118.5 3.75 118.5 C3.54 118.5
							 3.36 118.57 3.22 118.72 C3.07 118.86 3 119.04 3 119.25 C3 119.46 3.07 119.64 3.22 119.78 C3.36 119.93
							 3.54 120 3.75 120 ZM1.5 117.75 L2.1 117.75 C2.31 117.52 2.56 117.34 2.83 117.21 C3.11 117.07 3.41 117
							 3.75 117 C4.09 117 4.39 117.07 4.67 117.21 C4.94 117.34 5.19 117.52 5.4 117.75 L10.5 117.75 L10.5 111
							 L1.5 111 L1.5 117.75 ZM12.75 120 C12.96 120 13.14 119.93 13.28 119.78 C13.43 119.64 13.5 119.46 13.5
							 119.25 C13.5 119.04 13.43 118.86 13.28 118.72 C13.14 118.57 12.96 118.5 12.75 118.5 C12.54 118.5 12.36
							 118.57 12.22 118.72 C12.07 118.86 12 119.04 12 119.25 C12 119.46 12.07 119.64 12.22 119.78 C12.36 119.93
							 12.54 120 12.75 120 ZM12 116.25 L15.19 116.25 L13.5 114 L12 114 L12 116.25 Z" class="st10"/>
			</g>
		</g>
		<g id="group18-54" transform="translate(143.648,-2.24999)" v:mID="18" v:groupContext="group" v:layerMember="1">
			<v:custProps>
				<v:cp v:nameU="BpmnId" v:lbl="Id" v:prompt="" v:type="0" v:format="" v:sortKey="" v:invis="true" v:ask="false"
						v:langID="1033" v:cal="0" v:val="VT4()"/>
				<v:cp v:nameU="BpmnCategories" v:lbl="Categories" v:prompt="" v:type="0" v:format="" v:sortKey="" v:invis="false"
						v:ask="false" v:langID="1033" v:cal="0" v:val="VT4()"/>
				<v:cp v:nameU="BpmnDocumentation" v:lbl="Documentation" v:prompt="" v:type="0" v:format="" v:sortKey=""
						v:invis="false" v:ask="false" v:langID="1033" v:cal="0" v:val="VT4()"/>
				<v:cp v:nameU="BpmnArtifactType" v:lbl="ArtifactType" v:prompt="" v:type="1" v:format="DataObject;Group;Annotation"
						v:sortKey="" v:invis="true" v:ask="false" v:langID="1033" v:cal="0" v:val="VT4(Annotation)"/>
				<v:cp v:nameU="BpmnName" v:lbl="Name" v:prompt="" v:type="0" v:format="" v:sortKey="" v:invis="true" v:ask="false"
						v:langID="1033" v:cal="0" v:val="VT4(Text)"/>
				<v:cp v:nameU="BpmnState" v:lbl="State" v:prompt="" v:type="0" v:format="" v:sortKey="" v:invis="true"
						v:ask="false" v:langID="1033" v:cal="0" v:val="VT4()"/>
				<v:cp v:nameU="BpmnProperties" v:lbl="Properties" v:prompt="" v:type="1" v:format="Shown;Hidden" v:sortKey=""
						v:invis="true" v:ask="false" v:langID="1033" v:cal="0" v:val="VT4(Hidden)"/>
				<v:cp v:nameU="BpmnProperties_Name" v:lbl="    Name" v:prompt="" v:type="0" v:format="" v:sortKey="" v:invis="true"
						v:ask="false" v:langID="1033" v:cal="0" v:val="VT4()"/>
				<v:cp v:nameU="BpmnProperties_Type" v:lbl="    Type" v:prompt="" v:type="0" v:format="" v:sortKey="" v:invis="true"
						v:ask="false" v:langID="1033" v:cal="0" v:val="VT4()"/>
				<v:cp v:nameU="BpmnProperties_Value" v:lbl="    Value" v:prompt="" v:type="1" v:format="Shown;Hidden" v:sortKey=""
						v:invis="true" v:ask="false" v:langID="1033" v:cal="0" v:val="VT4(Shown)"/>
				<v:cp v:nameU="BpmnProperties_Value_ExpressionBody" v:lbl="        ExpressionBody" v:prompt="" v:type="0"
						v:format="" v:sortKey="" v:invis="true" v:ask="false" v:langID="1033" v:cal="0" v:val="VT4()"/>
				<v:cp v:nameU="BpmnProperties_Value_ExpressionLanguage" v:lbl="        ExpressionLanguage" v:prompt="" v:type="0"
						v:format="" v:sortKey="" v:invis="true" v:ask="false" v:langID="1033" v:cal="0" v:val="VT4()"/>
				<v:cp v:nameU="BpmnProperties_Correlation" v:lbl="    Correlation" v:prompt="" v:type="3" v:format="" v:sortKey=""
						v:invis="true" v:ask="false" v:langID="1033" v:cal="0" v:val="VT0(0):5"/>
				<v:cp v:nameU="BpmnText" v:lbl="Text" v:prompt="" v:type="0" v:format="" v:sortKey="" v:invis="true" v:ask="false"
						v:langID="1033" v:cal="0" v:val="VT4(Text)"/>
				<v:cp v:nameU="BpmnCategoryRef" v:lbl="CategoryRef" v:prompt="" v:type="0" v:format="" v:sortKey="" v:invis="true"
						v:ask="false" v:langID="1033" v:cal="0" v:val="VT4(Text)"/>
				<v:cp v:nameU="BpmnElementType" v:lbl="ElementType" v:prompt="" v:type="1"
						v:format="Sub-Process;Event;Gateway;Process Diagram;Pool;Lane;Artifact;Connecting Object" v:sortKey=""
						v:invis="true" v:ask="false" v:langID="1033" v:cal="0" v:val="VT4(Artifact)"/>
				<v:cp v:nameU="BpmnName" v:lbl="" v:prompt="" v:type="0" v:format="" v:sortKey="" v:invis="false" v:ask="false"
						v:langID="0" v:cal="0" v:val="VT4(Shipment transfer)"/>
				<v:cp v:nameU="BpmnText" v:lbl="" v:prompt="" v:type="0" v:format="" v:sortKey="" v:invis="false" v:ask="false"
						v:langID="0" v:cal="0" v:val="VT4(Shipment transfer)"/>
				<v:cp v:nameU="BpmnCategoryRef" v:lbl="" v:prompt="" v:type="0" v:format="" v:sortKey="" v:invis="false"
						v:ask="false" v:langID="0" v:cal="0" v:val="VT4(Shipment transfer)"/>
			</v:custProps>
			<v:userDefs>
				<v:ud v:nameU="visVersion" v:prompt="" v:val="VT0(15):26"/>
				<v:ud v:nameU="msvStructureType" v:prompt="" v:val="VT4(Callout)"/>
				<v:ud v:nameU="msvSDTargetIntersection" v:prompt=""/>
				<v:ud v:nameU="msvSDCalloutNoHighlight" v:prompt="" v:val="VT0(0):5"/>
				<v:ud v:nameU="msvSDCalloutStyle" v:prompt="" v:val="VT0(8):26"/>
				<v:ud v:nameU="msvSDCalloutStyleCount" v:prompt="" v:val="VT0(20):26"/>
				<v:ud v:nameU="msvShapeCategories" v:prompt="" v:val="VT4(Text Annotation)"/>
				<v:ud v:nameU="Orientation" v:prompt="" v:val="VT0(0):26"/>
				<v:ud v:nameU="HideLeader" v:prompt="" v:val="VT0(0):5"/>
				<v:ud v:nameU="AttachToSide" v:prompt="" v:val="VT0(1):5"/>
				<v:ud v:nameU="ResizeWithText" v:prompt="" v:val="VT0(1):5"/>
				<v:ud v:nameU="Side" v:prompt="" v:val="VT0(3):26"/>
				<v:ud v:nameU="LeaderBegin" v:prompt="" v:val="VT4(Unused)"/>
				<v:ud v:nameU="LeaderEnd" v:prompt="" v:val="VT7(PNT(-0.375IN,-0.16IN)):40"/>
				<v:ud v:nameU="WHBoxIntersection" v:prompt="" v:val="VT7(PNT(0,0.15625)):40"/>
				<v:ud v:nameU="IsEndInterior" v:prompt="" v:val="VT0(0):5"/>
				<v:ud v:nameU="Extension" v:prompt="" v:val="VT0(0.0625):0"/>
				<v:ud v:nameU="Inset" v:prompt="" v:val="VT0(0.0625):0"/>
				<v:ud v:nameU="SideMidpoint" v:prompt="" v:val="VT7(PNT(0,0.15625)):40"/>
				<v:ud v:nameU="fnMidpointOffset" v:prompt="" v:val="VT7(PNT(0,0.15625)):40"/>
				<v:ud v:nameU="msvSDTargetIntersection" v:prompt="" v:val="VT7(PNT(2.3435938513093,0.54081731099946)):40"/>
				<v:ud v:nameU="Side" v:prompt="" v:val="VT0(1):26"/>
				<v:ud v:nameU="LeaderEnd" v:prompt="" v:val="VT7(PNT(2.3435938513093,0.54081731099946)):40"/>
				<v:ud v:nameU="WHBoxIntersection" v:prompt="" v:val="VT7(PNT(2.1875000745058,0.15625)):40"/>
				<v:ud v:nameU="SideMidpoint" v:prompt="" v:val="VT7(PNT(2.1875000745058,0.15625)):40"/>
				<v:ud v:nameU="fnMidpointOffset" v:prompt="" v:val="VT7(PNT(2.1875,0.15625)):40"/>
				<v:ud v:nameU="visNavOrder" v:val="VT0(11000):26"/>
			</v:userDefs>
			<title>Text Annotation</title>
			<desc>Shipment transfer</desc>
			<g id="shape19-55" v:mID="19" v:groupContext="shape" v:layerMember="1" transform="translate(154.119,-11.25)">
				<title>Sheet.19</title>
				<v:custProps>
					<v:cp v:nameU="BpmnId" v:lbl="Id" v:prompt="" v:type="0" v:format="" v:sortKey="" v:invis="true" v:ask="false"
							v:langID="1033" v:cal="0" v:val="VT4()"/>
					<v:cp v:nameU="BpmnCategories" v:lbl="Categories" v:prompt="" v:type="0" v:format="" v:sortKey=""
							v:invis="false" v:ask="false" v:langID="1033" v:cal="0" v:val="VT4()"/>
					<v:cp v:nameU="BpmnDocumentation" v:lbl="Documentation" v:prompt="" v:type="0" v:format="" v:sortKey=""
							v:invis="false" v:ask="false" v:langID="1033" v:cal="0" v:val="VT4()"/>
					<v:cp v:nameU="BpmnName" v:lbl="Name" v:prompt="" v:type="0" v:format="" v:sortKey="" v:invis="true"
							v:ask="false" v:langID="1033" v:cal="0" v:val="VT4()"/>
					<v:cp v:nameU="BpmnConnectingObjectType" v:lbl="ConnectingObjectType" v:prompt="" v:type="1"
							v:format="Sequence Flow;Message Flow;Association" v:sortKey="" v:invis="false" v:ask="false"
							v:langID="1033" v:cal="0" v:val="VT4(Association)"/>
					<v:cp v:nameU="BpmnConditionType" v:lbl="ConditionType" v:prompt="" v:type="1"
							v:format="None;Expression;Default" v:sortKey="" v:invis="true" v:ask="false" v:langID="1033" v:cal="0"
							v:val="VT4(None)"/>
					<v:cp v:nameU="BpmnConditionExpression" v:lbl="ConditionExpression" v:prompt="" v:type="1"
							v:format="Shown;Hidden" v:sortKey="" v:invis="true" v:ask="false" v:langID="1033" v:cal="0"
							v:val="VT4(Hidden)"/>
					<v:cp v:nameU="BpmnConditionExpression_ExpressionBody" v:lbl="    ExpressionBody" v:prompt="" v:type="0"
							v:format="" v:sortKey="" v:invis="true" v:ask="false" v:langID="1033" v:cal="0" v:val="VT4()"/>
					<v:cp v:nameU="BpmnConditionExpression_ExpressionLanguage" v:lbl="    ExpressionLanguage" v:prompt=""
							v:type="0" v:format="" v:sortKey="" v:invis="true" v:ask="false" v:langID="1033" v:cal="0"
							v:val="VT4()"/>
					<v:cp v:nameU="BpmnMessageRef" v:lbl="MessageRef" v:prompt="" v:type="1" v:format="Shown;Hidden" v:sortKey=""
							v:invis="true" v:ask="false" v:langID="1033" v:cal="0" v:val="VT4(Hidden)"/>
					<v:cp v:nameU="BpmnMessageRef_Name" v:lbl="    Name" v:prompt="" v:type="0" v:format="" v:sortKey=""
							v:invis="true" v:ask="false" v:langID="1033" v:cal="0" v:val="VT4()"/>
					<v:cp v:nameU="BpmnMessageRef_Properties" v:lbl="    Properties" v:prompt="" v:type="1" v:format="Shown;Hidden"
							v:sortKey="" v:invis="true" v:ask="false" v:langID="1033" v:cal="0" v:val="VT4(Shown)"/>
					<v:cp v:nameU="BpmnMessageRef_Properties_Name" v:lbl="        Name" v:prompt="" v:type="0" v:format=""
							v:sortKey="" v:invis="true" v:ask="false" v:langID="1033" v:cal="0" v:val="VT4()"/>
					<v:cp v:nameU="BpmnMessageRef_Properties_Type" v:lbl="        Type" v:prompt="" v:type="0" v:format=""
							v:sortKey="" v:invis="true" v:ask="false" v:langID="1033" v:cal="0" v:val="VT4()"/>
					<v:cp v:nameU="BpmnMessageRef_Properties_Value" v:lbl="        Value" v:prompt="" v:type="1"
							v:format="Shown;Hidden" v:sortKey="" v:invis="true" v:ask="false" v:langID="1033" v:cal="0"
							v:val="VT4(Shown)"/>
					<v:cp v:nameU="BpmnMessageRef_Properties_Value_ExpressionBody" v:lbl="            ExpressionBody" v:prompt=""
							v:type="0" v:format="" v:sortKey="" v:invis="true" v:ask="false" v:langID="1033" v:cal="0"
							v:val="VT4()"/>
					<v:cp v:nameU="BpmnMessageRef_Properties_Value_ExpressionLanguage" v:lbl="            ExpressionLanguage"
							v:prompt="" v:type="0" v:format="" v:sortKey="" v:invis="true" v:ask="false" v:langID="1033" v:cal="0"
							v:val="VT4()"/>
					<v:cp v:nameU="BpmnMessageRef_Properties_Correlation" v:lbl="        Correlation" v:prompt="" v:type="3"
							v:format="" v:sortKey="" v:invis="true" v:ask="false" v:langID="1033" v:cal="0" v:val="VT0(0):5"/>
					<v:cp v:nameU="BpmnMessageRef_FromRef" v:lbl="    FromRef" v:prompt="" v:type="1" v:format="Shown;Hidden"
							v:sortKey="" v:invis="true" v:ask="false" v:langID="1033" v:cal="0" v:val="VT4(Shown)"/>
					<v:cp v:nameU="BpmnMessageRef_FromRef_ParticipantType" v:lbl="        ParticipantType" v:prompt="" v:type="1"
							v:format="Role;Entity" v:sortKey="" v:invis="true" v:ask="false" v:langID="1033" v:cal="0"
							v:val="VT4(Role)"/>
					<v:cp v:nameU="BpmnMessageRef_FromRef_RoleRef" v:lbl="        RoleRef" v:prompt="" v:type="0" v:format=""
							v:sortKey="" v:invis="true" v:ask="false" v:langID="1033" v:cal="0" v:val="VT4()"/>
					<v:cp v:nameU="BpmnMessageRef_FromRef_EntityRef" v:lbl="        EntityRef" v:prompt="" v:type="0" v:format=""
							v:sortKey="" v:invis="true" v:ask="false" v:langID="1033" v:cal="0" v:val="VT4()"/>
					<v:cp v:nameU="BpmnMessageRef_ToRef" v:lbl="    ToRef" v:prompt="" v:type="1" v:format="Shown;Hidden"
							v:sortKey="" v:invis="true" v:ask="false" v:langID="1033" v:cal="0" v:val="VT4(Shown)"/>
					<v:cp v:nameU="BpmnMessageRef_ToRef_ParticipantType" v:lbl="        ParticipantType" v:prompt="" v:type="1"
							v:format="Role;Entity" v:sortKey="" v:invis="true" v:ask="false" v:langID="1033" v:cal="0"
							v:val="VT4(Role)"/>
					<v:cp v:nameU="BpmnMessageRef_ToRef_RoleRef" v:lbl="        RoleRef" v:prompt="" v:type="0" v:format=""
							v:sortKey="" v:invis="true" v:ask="false" v:langID="1033" v:cal="0" v:val="VT4()"/>
					<v:cp v:nameU="BpmnMessageRef_ToRef_EntityRef" v:lbl="        EntityRef" v:prompt="" v:type="0" v:format=""
							v:sortKey="" v:invis="true" v:ask="false" v:langID="1033" v:cal="0" v:val="VT4()"/>
					<v:cp v:nameU="BpmnDirection" v:lbl="Direction" v:prompt="" v:type="1" v:format="None;One;Both" v:sortKey=""
							v:invis="false" v:ask="false" v:langID="1033" v:cal="0" v:val="VT4(None)"/>
					<v:cp v:nameU="BpmnElementType" v:lbl="ElementType" v:prompt="" v:type="1"
							v:format="Sub-Process;Event;Gateway;Process Diagram;Pool;Lane;Artifact;Connecting Object" v:sortKey=""
							v:invis="true" v:ask="false" v:langID="1033" v:cal="0" v:val="VT4(Connecting Object)"/>
				</v:custProps>
				<v:userDefs>
					<v:ud v:nameU="msvShapeCategories" v:prompt="" v:val="VT4(Connecting Object)"/>
					<v:ud v:nameU="visVersion" v:prompt="" v:val="VT0(15):26"/>
				</v:userDefs>
				<path d="M3.38 121.5 L14.62 93.81" class="st12"/>
			</g>
			<g id="shape18-58" v:mID="18" v:groupContext="groupContent" v:layerMember="1">
				<v:textBlock v:margins="rect(4,6,4,6)"/>
				<v:textRect cx="78.75" cy="110.25" width="157.51" height="22.4037"/>
				<path d="M153 121.5 L157.5 121.5 L157.5 99 L153 99" class="st13"/>
				<text x="63.26" y="113.85" class="st14" v:langID="1029"><v:paragraph v:horizAlign="2"/><v:tabList/>Shipment transfer</text>			</g>
		</g>
	</g>
</svg>
