<?xml version="1.0" encoding="UTF-8" standalone="no"?>
<!DOCTYPE svg PUBLIC "-//W3C//DTD SVG 1.1//EN" "http://www.w3.org/Graphics/SVG/1.1/DTD/svg11.dtd">
<!-- Generated by Microsoft Visio, SVG Export F7_metrics_UC1_legend.svg Page-7 -->
<svg xmlns="http://www.w3.org/2000/svg" xmlns:xlink="http://www.w3.org/1999/xlink" xmlns:ev="http://www.w3.org/2001/xml-events"
		xmlns:v="http://schemas.microsoft.com/visio/2003/SVGExtensions/" width="4.9375in" height="0.8125in"
		viewBox="0 0 355.5 58.5" xml:space="preserve" color-interpolation-filters="sRGB" class="st8">
	<v:documentProperties v:langID="1033" v:viewMarkup="false">
		<v:userDefs>
			<v:ud v:nameU="msvNoAutoConnect" v:val="VT0(1):26"/>
		</v:userDefs>
	</v:documentProperties>

	<style type="text/css">
	<![CDATA[
		.st1 {fill:#dbeef3;stroke:#000000;stroke-linecap:round;stroke-linejoin:round;stroke-width:0.75}
		.st2 {fill:none;stroke:none;stroke-linecap:round;stroke-linejoin:round;stroke-width:0.75}
		.st3 {fill:#000000;font-family:Calibri;font-size:1.16666em;font-weight:bold}
		.st4 {font-size:1em}
		.st5 {font-size:0.714294em}
		.st6 {fill:#1f1f1f;stroke:none;stroke-linecap:butt;stroke-width:0.01875}
		.st7 {font-size:0.642863em}
		.st8 {fill:none;fill-rule:evenodd;font-size:12px;overflow:visible;stroke-linecap:square;stroke-miterlimit:3}
	]]>
	</style>

	<g v:mID="11" v:index="7" v:groupContext="foregroundPage">
		<v:userDefs>
			<v:ud v:nameU="visNavType" v:val="VT0(1):26"/>
		</v:userDefs>
		<title>Page-7</title>
		<v:pageProperties v:drawingScale="1" v:pageScale="1" v:drawingUnits="19" v:shadowOffsetX="9" v:shadowOffsetY="-9"/>
		<v:layer v:name="Flowchart" v:index="0"/>
		<g id="shape1000-1" v:mID="1000" v:groupContext="shape" v:layerMember="0" transform="translate(18,-18.9375)">
			<title>Process.1762</title>
			<v:custProps>
				<v:cp v:nameU="Cost" v:lbl="Cost" v:type="7" v:format="@" v:langID="1033"/>
				<v:cp v:nameU="Duration" v:lbl="Duration" v:type="2" v:langID="1033"/>
				<v:cp v:nameU="Resources" v:lbl="Resources" v:langID="1033"/>
			</v:custProps>
			<v:userDefs>
				<v:ud v:nameU="visVersion" v:val="VT0(12):26"/>
				<v:ud v:nameU="visNavOrder" v:val="VT0(1000):26"/>
			</v:userDefs>
			<rect x="0" y="49.5" width="306" height="9" class="st1"/>
		</g>
		<g id="shape1001-3" v:mID="1001" v:groupContext="shape" transform="translate(6.74999,-31.4531)">
			<title>Sheet.1001</title>
			<desc>A (From)</desc>
			<v:userDefs>
				<v:ud v:nameU="visNavOrder" v:val="VT0(2000):26"/>
			</v:userDefs>
			<v:textBlock v:margins="rect(4,4,4,4)"/>
			<v:textRect cx="24.75" cy="53.0156" width="49.5" height="10.9688"/>
			<rect x="0" y="47.5312" width="49.5" height="10.9688" class="st2"/>
			<text x="4.98" y="57.22" class="st3" v:langID="1033"><v:paragraph v:horizAlign="1"/><v:tabList/>A<tspan class="st4"
						v:langID="1029"> </tspan><tspan class="st5" v:langID="1029">(From)</tspan></text>		</g>
		<g id="group1002-8" transform="translate(166.5,-35.25)" v:mID="1002" v:groupContext="group">
			<v:userDefs>
				<v:ud v:nameU="visNavOrder" v:val="VT0(3000):26"/>
			</v:userDefs>
			<title>Sheet.1002</title>
			<g id="shape1003-9" v:mID="1003" v:groupContext="shape">
				<title>Sheet.1003</title>
				<path d="M0 54.37 L0 47.25 C0 46.59 0.17 46.06 0.52 45.67 C0.86 45.27 1.31 44.97 1.88 44.77 C2.44 44.56 3.08 44.42
							 3.8 44.35 C4.52 44.28 5.25 44.25 6 44.25 C6.83 44.25 7.6 44.28 8.33 44.35 C9.07 44.42 9.7 44.56 10.25
							 44.77 C10.79 44.97 11.22 45.27 11.53 45.67 C11.84 46.06 12 46.59 12 47.25 L12 54.37 C12 55.11 11.75
							 55.73 11.24 56.24 C10.73 56.75 10.11 57 9.38 57 L10.5 58.12 L10.5 58.5 L9 58.5 L7.5 57 L4.5 57 L3 58.5
							 L1.5 58.5 L1.5 58.12 L2.63 57 C1.89 57 1.27 56.75 0.76 56.24 C0.25 55.73 0 55.11 0 54.37 ZM6 45.75 C4.68
							 45.75 3.71 45.83 3.09 45.98 C2.48 46.14 2.06 46.31 1.84 46.5 L10.24 46.5 C10.05 46.29 9.65 46.11 9.03
							 45.97 C8.41 45.82 7.4 45.75 6 45.75 ZM1.5 50.25 L5.25 50.25 L5.25 48 L1.5 48 L1.5 50.25 ZM9.38 51.75
							 L1.5 51.75 L10.5 51.75 L9.38 51.75 ZM6.75 50.25 L10.5 50.25 L10.5 48 L6.75 48 L6.75 50.25 ZM3.38 54.75
							 C3.7 54.75 3.97 54.64 4.18 54.43 C4.39 54.22 4.5 53.95 4.5 53.62 C4.5 53.3 4.39 53.03 4.18 52.82 C3.97
							 52.61 3.7 52.5 3.38 52.5 C3.05 52.5 2.78 52.61 2.57 52.82 C2.36 53.03 2.25 53.3 2.25 53.62 C2.25 53.95
							 2.36 54.22 2.57 54.43 C2.78 54.64 3.05 54.75 3.38 54.75 ZM8.63 54.75 C8.95 54.75 9.22 54.64 9.43 54.43
							 C9.64 54.22 9.75 53.95 9.75 53.62 C9.75 53.3 9.64 53.03 9.43 52.82 C9.22 52.61 8.95 52.5 8.63 52.5 C8.3
							 52.5 8.03 52.61 7.82 52.82 C7.61 53.03 7.5 53.3 7.5 53.62 C7.5 53.95 7.61 54.22 7.82 54.43 C8.03 54.64
							 8.3 54.75 8.63 54.75 ZM2.63 55.5 L9.38 55.5 C9.7 55.5 9.97 55.39 10.18 55.18 C10.39 54.97 10.5 54.7
							 10.5 54.37 L10.5 51.75 L1.5 51.75 L1.5 54.37 C1.5 54.7 1.61 54.97 1.82 55.18 C2.03 55.39 2.3 55.5 2.63
							 55.5 ZM6 46.5 L10.24 46.5 L1.84 46.5 L6 46.5 Z" class="st6"/>
			</g>
		</g>
		<g id="group1004-11" transform="translate(183.647,-35.8125)" v:mID="1004" v:groupContext="group">
			<v:userDefs>
				<v:ud v:nameU="visNavOrder" v:val="VT0(4000):26"/>
			</v:userDefs>
			<title>Sheet.1004</title>
			<g id="shape1005-12" v:mID="1005" v:groupContext="shape">
				<title>Sheet.1005</title>
				<path d="M5.31 58.5 L3.45 55.05 L0 53.19 L1.33 51.88 L4.05 52.35 L5.96 50.44 L0.02 47.91 L1.59 46.29 L8.81 47.57
							 L11.14 45.24 C11.42 44.96 11.78 44.81 12.21 44.81 C12.63 44.81 12.99 44.96 13.27 45.24 C13.56 45.53
							 13.71 45.88 13.71 46.3 C13.71 46.72 13.56 47.07 13.27 47.36 L10.93 49.71 L12.21 56.91 L10.61 58.5 L8.06
							 52.56 L6.15 54.47 L6.64 57.17 L5.31 58.5 Z" class="st6"/>
			</g>
		</g>
		<g id="shape1006-14" v:mID="1006" v:groupContext="shape" transform="translate(306,-31.5)">
			<title>Sheet.1006</title>
			<desc>B (To)</desc>
			<v:userDefs>
				<v:ud v:nameU="visNavOrder" v:val="VT0(5000):26"/>
			</v:userDefs>
			<v:textBlock v:margins="rect(4,4,4,4)"/>
			<v:textRect cx="20.25" cy="51.75" width="40.5" height="13.5"/>
			<rect x="0" y="45" width="40.5" height="13.5" class="st2"/>
			<text x="7.29" y="55.95" class="st3" v:langID="1033"><v:paragraph v:horizAlign="1"/><v:tabList/>B<tspan class="st4"
						v:langID="1029"> </tspan><tspan class="st7" v:langID="1029">(To)</tspan></text>		</g>
		<g id="group1007-19" transform="translate(143.306,-35.25)" v:mID="1007" v:groupContext="group">
			<v:userDefs>
				<v:ud v:nameU="visNavOrder" v:val="VT0(6000):26"/>
			</v:userDefs>
			<title>Sheet.1007</title>
			<g id="shape1008-20" v:mID="1008" v:groupContext="shape">
				<title>Sheet.1008</title>
				<path d="M4.1 58.5 C3.42 58.5 2.84 58.26 2.36 57.78 C1.88 57.3 1.64 56.72 1.64 56.04 L0 56.04 L0 47.02 C0 46.56 0.16
							 46.18 0.48 45.86 C0.8 45.54 1.19 45.38 1.64 45.38 L13.12 45.38 L13.12 48.66 L15.59 48.66 L18.05 51.94
							 L18.05 56.04 L16.41 56.04 C16.41 56.72 16.17 57.3 15.69 57.78 C15.21 58.26 14.63 58.5 13.95 58.5 C13.26
							 58.5 12.68 58.26 12.2 57.78 C11.72 57.3 11.48 56.72 11.48 56.04 L6.56 56.04 C6.56 56.72 6.32 57.3 5.84
							 57.78 C5.37 58.26 4.79 58.5 4.1 58.5 ZM4.1 56.86 C4.33 56.86 4.53 56.78 4.69 56.62 C4.84 56.47 4.92
							 56.27 4.92 56.04 C4.92 55.81 4.84 55.61 4.69 55.45 C4.53 55.3 4.33 55.22 4.1 55.22 C3.87 55.22 3.67
							 55.3 3.52 55.45 C3.36 55.61 3.28 55.81 3.28 56.04 C3.28 56.27 3.36 56.47 3.52 56.62 C3.67 56.78 3.87
							 56.86 4.1 56.86 ZM1.64 54.4 L2.3 54.4 C2.53 54.15 2.8 53.95 3.1 53.8 C3.4 53.65 3.73 53.58 4.1 53.58
							 C4.47 53.58 4.81 53.65 5.11 53.8 C5.41 53.95 5.67 54.15 5.91 54.4 L11.48 54.4 L11.48 47.02 L1.64 47.02
							 L1.64 54.4 ZM13.95 56.86 C14.18 56.86 14.37 56.78 14.53 56.62 C14.69 56.47 14.77 56.27 14.77 56.04 C14.77
							 55.81 14.69 55.61 14.53 55.45 C14.37 55.3 14.18 55.22 13.95 55.22 C13.71 55.22 13.52 55.3 13.36 55.45
							 C13.2 55.61 13.12 55.81 13.12 56.04 C13.12 56.27 13.2 56.47 13.36 56.62 C13.52 56.78 13.71 56.86 13.95
							 56.86 ZM13.12 52.76 L16.61 52.76 L14.77 50.3 L13.12 50.3 L13.12 52.76 Z" class="st6"/>
			</g>
		</g>
	</g>
</svg>
