<?xml version="1.0" encoding="UTF-8" standalone="no"?>
<!DOCTYPE svg PUBLIC "-//W3C//DTD SVG 1.1//EN" "http://www.w3.org/Graphics/SVG/1.1/DTD/svg11.dtd">
<!-- Generated by Microsoft Visio, SVG Export F7_metrics_UC4.svg Page-12 -->
<svg xmlns="http://www.w3.org/2000/svg" xmlns:xlink="http://www.w3.org/1999/xlink" xmlns:ev="http://www.w3.org/2001/xml-events"
		xmlns:v="http://schemas.microsoft.com/visio/2003/SVGExtensions/" width="8.3125in" height="1.125in" viewBox="0 0 598.5 81"
		xml:space="preserve" color-interpolation-filters="sRGB" class="st12">
	<v:documentProperties v:langID="1033" v:viewMarkup="false">
		<v:userDefs>
			<v:ud v:nameU="msvNoAutoConnect" v:val="VT0(1):26"/>
		</v:userDefs>
	</v:documentProperties>

	<style type="text/css">
	<![CDATA[
		.st1 {fill:none;stroke:#000000;stroke-linecap:round;stroke-linejoin:round;stroke-width:0.25}
		.st2 {fill:#000000;font-family:Calibri;font-size:0.75em}
		.st3 {fill:#1f1f1f;stroke:none;stroke-linecap:butt;stroke-width:0.01875}
		.st4 {fill:#dbeef3;stroke:#000000;stroke-linecap:round;stroke-linejoin:round;stroke-width:0.25}
		.st5 {fill:#fee599;stroke:#000000;stroke-linecap:round;stroke-linejoin:round;stroke-width:0.25}
		.st6 {fill:#e5b9b5;stroke:#000000;stroke-linecap:round;stroke-linejoin:round;stroke-width:0.25}
		.st7 {fill:url(#grad1-70);stroke:#000000;stroke-linecap:round;stroke-linejoin:round;stroke-width:0.25}
		.st8 {fill:#d8d8d8;stroke:#000000;stroke-linecap:round;stroke-linejoin:round;stroke-width:0.25}
		.st9 {fill:#ffff99;stroke:#000000;stroke-linecap:round;stroke-linejoin:round;stroke-width:0.25}
		.st10 {fill:#92d050;stroke:#000000;stroke-linecap:round;stroke-linejoin:round;stroke-width:0.25}
		.st11 {fill:#000000;font-family:Calibri;font-size:0.75em;font-weight:bold}
		.st12 {fill:none;fill-rule:evenodd;font-size:12px;overflow:visible;stroke-linecap:square;stroke-miterlimit:3}
	]]>
	</style>

	<defs id="Patterns_And_Gradients">
		<radialGradient id="grad1-70" cx="1" cy="1" r="1.4">
			<stop offset="0.37" stop-color="#e5b9b5" stop-opacity="1"/>
			<stop offset="0.76" stop-color="#fee599" stop-opacity="1"/>
		</radialGradient>
	</defs>
	<g v:mID="19" v:index="12" v:groupContext="foregroundPage">
		<v:userDefs>
			<v:ud v:nameU="visNavType" v:val="VT0(1):26"/>
		</v:userDefs>
		<title>UC4</title>
		<v:pageProperties v:drawingScale="1" v:pageScale="1" v:drawingUnits="19" v:shadowOffsetX="9" v:shadowOffsetY="-9"/>
		<g id="shape1-1" v:mID="1" v:groupContext="shape" transform="translate(4.49643,-22.2437)">
			<title>Sheet.1</title>
			<desc>Truck</desc>
			<v:userDefs>
				<v:ud v:nameU="visNavOrder" v:val="VT0(1000):26"/>
			</v:userDefs>
			<v:textBlock v:margins="rect(4,4,4,4)"/>
			<v:textRect cx="31.5018" cy="71.9817" width="63.01" height="18.0366"/>
			<rect x="0" y="62.9634" width="63.0036" height="18.0366" class="st1"/>
			<text x="4" y="74.68" class="st2" v:langID="1029"><v:paragraph/><v:tabList/>Truck</text>		</g>
		<g id="shape3-4" v:mID="3" v:groupContext="shape" transform="translate(67.52,-22.2437)">
			<title>Sheet.3</title>
			<desc>662.52</desc>
			<v:userDefs>
				<v:ud v:nameU="visNavOrder" v:val="VT0(3000):26"/>
			</v:userDefs>
			<v:textBlock v:margins="rect(4,4,4,4)"/>
			<v:textRect cx="29.2582" cy="71.9817" width="58.52" height="18.0366"/>
			<rect x="0" y="62.9634" width="58.5165" height="18.0366" class="st1"/>
			<text x="29.44" y="74.68" class="st2" v:langID="1029"><v:paragraph v:horizAlign="2"/><v:tabList/>662.52</text>		</g>
		<g id="shape4-7" v:mID="4" v:groupContext="shape" transform="translate(4.49643,-4.20708)">
			<title>Sheet.4</title>
			<desc>Truck</desc>
			<v:userDefs>
				<v:ud v:nameU="visNavOrder" v:val="VT0(4000):26"/>
			</v:userDefs>
			<v:textBlock v:margins="rect(4,4,4,4)"/>
			<v:textRect cx="31.5018" cy="71.9817" width="63.01" height="18.0366"/>
			<rect x="0" y="62.9634" width="63.0036" height="18.0366" class="st1"/>
			<text x="4" y="74.68" class="st2" v:langID="1029"><v:paragraph/><v:tabList/>Truck</text>		</g>
		<g id="shape8-10" v:mID="8" v:groupContext="shape" transform="translate(67.52,-4.20708)">
			<title>Sheet.8</title>
			<desc>662.52</desc>
			<v:userDefs>
				<v:ud v:nameU="visNavOrder" v:val="VT0(8000):26"/>
			</v:userDefs>
			<v:textBlock v:margins="rect(4,4,4,4)"/>
			<v:textRect cx="29.2582" cy="71.9817" width="58.52" height="18.0366"/>
			<rect x="0" y="62.9634" width="58.5165" height="18.0366" class="st1"/>
			<text x="29.44" y="74.68" class="st2" v:langID="1029"><v:paragraph v:horizAlign="2"/><v:tabList/>662.52</text>		</g>
		<g id="shape10-13" v:mID="10" v:groupContext="shape" transform="translate(125.984,-22.2437)">
			<title>Sheet.10</title>
			<desc>9.46</desc>
			<v:userDefs>
				<v:ud v:nameU="visNavOrder" v:val="VT0(10000):26"/>
			</v:userDefs>
			<v:textBlock v:margins="rect(4,4,4,4)"/>
			<v:textRect cx="29.2582" cy="71.9817" width="58.52" height="18.0366"/>
			<rect x="0" y="62.9634" width="58.5165" height="18.0366" class="st1"/>
			<text x="38.56" y="74.68" class="st2" v:langID="1029"><v:paragraph v:horizAlign="2"/><v:tabList/>9.46</text>		</g>
		<g id="shape11-16" v:mID="11" v:groupContext="shape" transform="translate(125.984,-4.20708)">
			<title>Sheet.11</title>
			<desc>9.46</desc>
			<v:userDefs>
				<v:ud v:nameU="visNavOrder" v:val="VT0(11000):26"/>
			</v:userDefs>
			<v:textBlock v:margins="rect(4,4,4,4)"/>
			<v:textRect cx="29.2582" cy="71.9817" width="58.52" height="18.0366"/>
			<rect x="0" y="62.9634" width="58.5165" height="18.0366" class="st1"/>
			<text x="38.56" y="74.68" class="st2" v:langID="1029"><v:paragraph v:horizAlign="2"/><v:tabList/>9.46</text>		</g>
		<g id="shape14-19" v:mID="14" v:groupContext="shape" transform="translate(67.52,-40.2803)">
			<title>Sheet.14</title>
			<desc>Distance (km)</desc>
			<v:userDefs>
				<v:ud v:nameU="visNavOrder" v:val="VT0(14000):26"/>
			</v:userDefs>
			<v:textBlock v:margins="rect(4,4,4,4)"/>
			<v:textRect cx="29.2582" cy="71.9817" width="58.52" height="18.0366"/>
			<rect x="0" y="62.9634" width="58.5165" height="18.0366" class="st1"/>
			<text x="4" y="74.68" class="st2" v:langID="1029"><v:paragraph/><v:tabList/>Distance (km)</text>		</g>
		<g id="shape15-22" v:mID="15" v:groupContext="shape" transform="translate(125.984,-40.2803)">
			<title>Sheet.15</title>
			<desc>Time (hours)</desc>
			<v:userDefs>
				<v:ud v:nameU="visNavOrder" v:val="VT0(15000):26"/>
			</v:userDefs>
			<v:textBlock v:margins="rect(4,4,4,4)"/>
			<v:textRect cx="29.2582" cy="71.9817" width="58.52" height="18.0366"/>
			<rect x="0" y="62.9634" width="58.5165" height="18.0366" class="st1"/>
			<text x="4" y="74.68" class="st2" v:langID="1029"><v:paragraph/><v:tabList/>Time (hours)</text>		</g>
		<g id="group16-25" transform="translate(44.2464,-24.5303)" v:mID="16" v:groupContext="group">
			<v:userDefs>
				<v:ud v:nameU="visNavOrder" v:val="VT0(16000):26"/>
			</v:userDefs>
			<title>Sheet.16</title>
			<g id="shape17-26" v:mID="17" v:groupContext="shape">
				<title>Sheet.17</title>
				<path d="M3.55 81 C2.96 81 2.45 80.78 2.04 80.34 C1.63 79.91 1.42 79.38 1.42 78.75 L0 78.75 L0 70.5 C0 70.09 0.14
							 69.73 0.42 69.44 C0.7 69.15 1.03 69 1.42 69 L11.36 69 L11.36 72 L13.49 72 L15.62 75 L15.62 78.75 L14.2
							 78.75 C14.2 79.38 13.99 79.91 13.58 80.34 C13.16 80.78 12.66 81 12.07 81 C11.48 81 10.97 80.78 10.56
							 80.34 C10.14 79.91 9.94 79.38 9.94 78.75 L5.68 78.75 C5.68 79.38 5.47 79.91 5.06 80.34 C4.64 80.78 4.14
							 81 3.55 81 ZM3.55 79.5 C3.75 79.5 3.92 79.43 4.05 79.28 C4.19 79.14 4.26 78.96 4.26 78.75 C4.26 78.54
							 4.19 78.36 4.05 78.22 C3.92 78.07 3.75 78 3.55 78 C3.35 78 3.18 78.07 3.04 78.22 C2.91 78.36 2.84 78.54
							 2.84 78.75 C2.84 78.96 2.91 79.14 3.04 79.28 C3.18 79.43 3.35 79.5 3.55 79.5 ZM1.42 77.25 L1.99 77.25
							 C2.19 77.03 2.42 76.84 2.68 76.71 C2.94 76.57 3.23 76.5 3.55 76.5 C3.87 76.5 4.16 76.57 4.42 76.71 C4.68
							 76.84 4.91 77.03 5.11 77.25 L9.94 77.25 L9.94 70.5 L1.42 70.5 L1.42 77.25 ZM12.07 79.5 C12.27 79.5 12.44
							 79.43 12.57 79.28 C12.71 79.14 12.78 78.96 12.78 78.75 C12.78 78.54 12.71 78.36 12.57 78.22 C12.44 78.07
							 12.27 78 12.07 78 C11.87 78 11.7 78.07 11.56 78.22 C11.43 78.36 11.36 78.54 11.36 78.75 C11.36 78.96
							 11.43 79.14 11.56 79.28 C11.7 79.43 11.87 79.5 12.07 79.5 ZM11.36 75.75 L14.37 75.75 L12.78 73.5 L11.36
							 73.5 L11.36 75.75 Z" class="st3"/>
			</g>
		</g>
		<g id="shape22-28" v:mID="22" v:groupContext="shape" transform="translate(67.52,-58.3169)">
			<title>Sheet.22</title>
			<desc>Transport A to B</desc>
			<v:userDefs>
				<v:ud v:nameU="visNavOrder" v:val="VT0(19000):26"/>
			</v:userDefs>
			<v:textBlock v:margins="rect(4,4,4,4)"/>
			<v:textRect cx="58.49" cy="71.9817" width="116.98" height="18.0366"/>
			<rect x="0" y="62.9634" width="116.98" height="18.0366" class="st4"/>
			<text x="4" y="74.68" class="st2" v:langID="1029"><v:paragraph/><v:tabList/>Transport A to B</text>		</g>
		<g id="shape24-31" v:mID="24" v:groupContext="shape" transform="translate(189.744,-40.2469)">
			<title>Sheet.24</title>
			<desc>DTD A</desc>
			<v:userDefs>
				<v:ud v:nameU="visNavOrder" v:val="VT0(21000):26"/>
			</v:userDefs>
			<v:textBlock v:margins="rect(4,4,4,4)"/>
			<v:textRect cx="18.7532" cy="71.9719" width="37.51" height="18.0562"/>
			<rect x="0" y="62.9438" width="37.5064" height="18.0562" class="st5"/>
			<text x="4" y="74.67" class="st2" v:langID="1029"><v:paragraph/><v:tabList/>DTD A</text>		</g>
		<g id="shape25-34" v:mID="25" v:groupContext="shape" transform="translate(189.744,-22.1906)">
			<title>Sheet.25</title>
			<desc>-</desc>
			<v:userDefs>
				<v:ud v:nameU="visNavOrder" v:val="VT0(22000):26"/>
			</v:userDefs>
			<v:textBlock v:margins="rect(4,4,4,4)"/>
			<v:textRect cx="18.7532" cy="71.9719" width="37.51" height="18.0562"/>
			<rect x="0" y="62.9438" width="37.5064" height="18.0562" class="st1"/>
			<text x="12.14" y="74.67" class="st2" v:langID="1029"><v:paragraph/><v:tabList/>-</text>		</g>
		<g id="shape26-37" v:mID="26" v:groupContext="shape" transform="translate(189.744,-4.13435)">
			<title>Sheet.26</title>
			<desc>-</desc>
			<v:userDefs>
				<v:ud v:nameU="visNavOrder" v:val="VT0(23000):26"/>
			</v:userDefs>
			<v:textBlock v:margins="rect(4,4,4,4)"/>
			<v:textRect cx="18.7532" cy="71.9719" width="37.51" height="18.0562"/>
			<rect x="0" y="62.9438" width="37.5064" height="18.0562" class="st1"/>
			<text x="12.14" y="74.67" class="st2" v:langID="1029"><v:paragraph/><v:tabList/>-</text>		</g>
		<g id="shape61-40" v:mID="61" v:groupContext="shape" transform="translate(227.25,-40.2835)">
			<title>Sheet.61</title>
			<desc>Time (hours)</desc>
			<v:userDefs>
				<v:ud v:nameU="visNavOrder" v:val="VT0(58000):26"/>
			</v:userDefs>
			<v:textBlock v:margins="rect(4,4,4,4)"/>
			<v:textRect cx="27.2411" cy="71.9719" width="54.49" height="18.0562"/>
			<rect x="0" y="62.9438" width="54.4823" height="18.0562" class="st5"/>
			<text x="4" y="74.67" class="st2" v:langID="1029"><v:paragraph/><v:tabList/>Time (hours)</text>		</g>
		<g id="shape62-43" v:mID="62" v:groupContext="shape" transform="translate(227.25,-22.2273)">
			<title>Sheet.62</title>
			<desc>-</desc>
			<v:userDefs>
				<v:ud v:nameU="visNavOrder" v:val="VT0(59000):26"/>
			</v:userDefs>
			<v:textBlock v:margins="rect(4,4,4,4)"/>
			<v:textRect cx="27.2411" cy="71.9719" width="54.49" height="18.0562"/>
			<rect x="0" y="62.9438" width="54.4823" height="18.0562" class="st1"/>
			<text x="12.14" y="74.67" class="st2" v:langID="1029"><v:paragraph/><v:tabList/>-</text>		</g>
		<g id="shape63-46" v:mID="63" v:groupContext="shape" transform="translate(227.25,-4.171)">
			<title>Sheet.63</title>
			<desc>-</desc>
			<v:userDefs>
				<v:ud v:nameU="visNavOrder" v:val="VT0(60000):26"/>
			</v:userDefs>
			<v:textBlock v:margins="rect(4,4,4,4)"/>
			<v:textRect cx="27.2411" cy="71.9719" width="54.49" height="18.0562"/>
			<rect x="0" y="62.9438" width="54.4823" height="18.0562" class="st1"/>
			<text x="12.14" y="74.67" class="st2" v:langID="1029"><v:paragraph/><v:tabList/>-</text>		</g>
		<g id="shape83-49" v:mID="83" v:groupContext="shape" transform="translate(287.006,-40.3859)">
			<title>Sheet.83</title>
			<desc>DTD B</desc>
			<v:userDefs>
				<v:ud v:nameU="visNavOrder" v:val="VT0(66000):26"/>
			</v:userDefs>
			<v:textBlock v:margins="rect(4,4,4,4)"/>
			<v:textRect cx="18.7532" cy="71.9498" width="37.51" height="18.1005"/>
			<rect x="0" y="62.8996" width="37.5064" height="18.1005" class="st6"/>
			<text x="4" y="74.65" class="st2" v:langID="1029"><v:paragraph/><v:tabList/>DTD B</text>		</g>
		<g id="shape84-52" v:mID="84" v:groupContext="shape" transform="translate(287.006,-22.2854)">
			<title>Sheet.84</title>
			<desc>-</desc>
			<v:userDefs>
				<v:ud v:nameU="visNavOrder" v:val="VT0(67000):26"/>
			</v:userDefs>
			<v:textBlock v:margins="rect(4,4,4,4)"/>
			<v:textRect cx="18.7532" cy="71.9498" width="37.51" height="18.1005"/>
			<rect x="0" y="62.8996" width="37.5064" height="18.1005" class="st1"/>
			<text x="12.14" y="74.65" class="st2" v:langID="1029"><v:paragraph/><v:tabList/>-</text>		</g>
		<g id="shape85-55" v:mID="85" v:groupContext="shape" transform="translate(287.006,-4.18494)">
			<title>Sheet.85</title>
			<desc>20 km</desc>
			<v:userDefs>
				<v:ud v:nameU="visNavOrder" v:val="VT0(68000):26"/>
			</v:userDefs>
			<v:textBlock v:margins="rect(4,4,4,4)"/>
			<v:textRect cx="18.7532" cy="71.9498" width="37.51" height="18.1005"/>
			<rect x="0" y="62.8996" width="37.5064" height="18.1005" class="st1"/>
			<text x="4" y="74.65" class="st2" v:langID="1029"><v:paragraph/><v:tabList/>20 km</text>		</g>
		<g id="shape88-58" v:mID="88" v:groupContext="shape" transform="translate(324.512,-40.4226)">
			<title>Sheet.88</title>
			<desc>Time (hours)</desc>
			<v:userDefs>
				<v:ud v:nameU="visNavOrder" v:val="VT0(71000):26"/>
			</v:userDefs>
			<v:textBlock v:margins="rect(4,4,4,4)"/>
			<v:textRect cx="27.2411" cy="71.9498" width="54.49" height="18.1005"/>
			<rect x="0" y="62.8996" width="54.4823" height="18.1005" class="st6"/>
			<text x="4" y="74.65" class="st2" v:langID="1029"><v:paragraph/><v:tabList/>Time (hours)</text>		</g>
		<g id="shape89-61" v:mID="89" v:groupContext="shape" transform="translate(324.512,-22.3221)">
			<title>Sheet.89</title>
			<desc>-</desc>
			<v:userDefs>
				<v:ud v:nameU="visNavOrder" v:val="VT0(72000):26"/>
			</v:userDefs>
			<v:textBlock v:margins="rect(4,4,4,4)"/>
			<v:textRect cx="27.2411" cy="71.9498" width="54.49" height="18.1005"/>
			<rect x="0" y="62.8996" width="54.4823" height="18.1005" class="st1"/>
			<text x="47.73" y="74.65" class="st2" v:langID="1029"><v:paragraph v:horizAlign="2"/><v:tabList/>-</text>		</g>
		<g id="shape90-64" v:mID="90" v:groupContext="shape" transform="translate(324.512,-4.22168)">
			<title>Sheet.90</title>
			<desc>0.75</desc>
			<v:userDefs>
				<v:ud v:nameU="visNavOrder" v:val="VT0(73000):26"/>
			</v:userDefs>
			<v:textBlock v:margins="rect(4,4,4,4)"/>
			<v:textRect cx="27.2411" cy="71.9498" width="54.49" height="18.1005"/>
			<rect x="0" y="62.8996" width="54.4823" height="18.1005" class="st1"/>
			<text x="34.53" y="74.65" class="st2" v:langID="1029"><v:paragraph v:horizAlign="2"/><v:tabList/>0.75</text>		</g>
		<g id="shape23-67" v:mID="23" v:groupContext="shape" transform="translate(189.776,-58.3031)">
			<title>Sheet.23</title>
			<desc>Door-to-Door</desc>
			<v:userDefs>
				<v:ud v:nameU="visNavOrder" v:val="VT0(20000):26"/>
			</v:userDefs>
			<v:textBlock v:margins="rect(4,4,4,4)"/>
			<v:textRect cx="94.6091" cy="71.9719" width="189.22" height="18.0562"/>
			<rect x="0" y="62.9438" width="189.218" height="18.0562" class="st7"/>
			<text x="4" y="74.67" class="st2" v:langID="1029"><v:paragraph/><v:tabList/>Door-to-Door</text>		</g>
		<g id="group121-72" transform="translate(43.9384,-6.37501)" v:mID="121" v:groupContext="group">
			<v:userDefs>
				<v:ud v:nameU="visNavOrder" v:val="VT0(91000):26"/>
			</v:userDefs>
			<title>Sheet.121</title>
			<g id="shape122-73" v:mID="122" v:groupContext="shape">
				<title>Sheet.122</title>
				<path d="M3.55 81 C2.96 81 2.45 80.78 2.04 80.34 C1.63 79.91 1.42 79.38 1.42 78.75 L0 78.75 L0 70.5 C0 70.09 0.14
							 69.73 0.42 69.44 C0.7 69.15 1.03 69 1.42 69 L11.36 69 L11.36 72 L13.49 72 L15.62 75 L15.62 78.75 L14.2
							 78.75 C14.2 79.38 13.99 79.91 13.58 80.34 C13.16 80.78 12.66 81 12.07 81 C11.48 81 10.97 80.78 10.56
							 80.34 C10.14 79.91 9.94 79.38 9.94 78.75 L5.68 78.75 C5.68 79.38 5.47 79.91 5.06 80.34 C4.64 80.78 4.14
							 81 3.55 81 ZM3.55 79.5 C3.75 79.5 3.92 79.43 4.05 79.28 C4.19 79.14 4.26 78.96 4.26 78.75 C4.26 78.54
							 4.19 78.36 4.05 78.22 C3.92 78.07 3.75 78 3.55 78 C3.35 78 3.18 78.07 3.04 78.22 C2.91 78.36 2.84 78.54
							 2.84 78.75 C2.84 78.96 2.91 79.14 3.04 79.28 C3.18 79.43 3.35 79.5 3.55 79.5 ZM1.42 77.25 L1.99 77.25
							 C2.19 77.03 2.42 76.84 2.68 76.71 C2.94 76.57 3.23 76.5 3.55 76.5 C3.87 76.5 4.16 76.57 4.42 76.71 C4.68
							 76.84 4.91 77.03 5.11 77.25 L9.94 77.25 L9.94 70.5 L1.42 70.5 L1.42 77.25 ZM12.07 79.5 C12.27 79.5 12.44
							 79.43 12.57 79.28 C12.71 79.14 12.78 78.96 12.78 78.75 C12.78 78.54 12.71 78.36 12.57 78.22 C12.44 78.07
							 12.27 78 12.07 78 C11.87 78 11.7 78.07 11.56 78.22 C11.43 78.36 11.36 78.54 11.36 78.75 C11.36 78.96
							 11.43 79.14 11.56 79.28 C11.7 79.43 11.87 79.5 12.07 79.5 ZM11.36 75.75 L14.37 75.75 L12.78 73.5 L11.36
							 73.5 L11.36 75.75 Z" class="st3"/>
			</g>
		</g>
		<g id="shape123-75" v:mID="123" v:groupContext="shape" transform="translate(385.215,-58.4493)">
			<title>Sheet.123</title>
			<desc>Extra time</desc>
			<v:userDefs>
				<v:ud v:nameU="visNavOrder" v:val="VT0(92000):26"/>
			</v:userDefs>
			<v:textBlock v:margins="rect(4,4,4,4)"/>
			<v:textRect cx="33.2849" cy="71.9747" width="66.57" height="18.0506"/>
			<rect x="0" y="62.9494" width="66.5698" height="18.0506" class="st8"/>
			<text x="4" y="74.67" class="st2" v:langID="1029"><v:paragraph/><v:tabList/>Extra time</text>		</g>
		<g id="shape124-78" v:mID="124" v:groupContext="shape" transform="translate(385.215,-40.3986)">
			<title>Sheet.124</title>
			<desc>Breaks (hours)</desc>
			<v:userDefs>
				<v:ud v:nameU="visNavOrder" v:val="VT0(93000):26"/>
			</v:userDefs>
			<v:textBlock v:margins="rect(4,4,4,4)"/>
			<v:textRect cx="33.2849" cy="71.9747" width="66.57" height="18.0506"/>
			<rect x="0" y="62.9494" width="66.5698" height="18.0506" class="st1"/>
			<text x="4" y="74.67" class="st2" v:langID="1029"><v:paragraph/><v:tabList/>Breaks (hours)</text>		</g>
		<g id="shape125-81" v:mID="125" v:groupContext="shape" transform="translate(385.215,-22.348)">
			<title>Sheet.125</title>
			<desc>1.5</desc>
			<v:userDefs>
				<v:ud v:nameU="visNavOrder" v:val="VT0(94000):26"/>
			</v:userDefs>
			<v:textBlock v:margins="rect(4,4,4,4)"/>
			<v:textRect cx="33.2849" cy="71.9747" width="66.57" height="18.0506"/>
			<rect x="0" y="62.9494" width="66.5698" height="18.0506" class="st1"/>
			<text x="51.17" y="74.67" class="st2" v:langID="1029"><v:paragraph v:horizAlign="2"/><v:tabList/>1.5</text>		</g>
		<g id="shape126-84" v:mID="126" v:groupContext="shape" transform="translate(385.215,-4.29731)">
			<title>Sheet.126</title>
			<desc>10.75</desc>
			<v:userDefs>
				<v:ud v:nameU="visNavOrder" v:val="VT0(95000):26"/>
			</v:userDefs>
			<v:textBlock v:margins="rect(4,4,4,4)"/>
			<v:textRect cx="33.2849" cy="71.9747" width="66.57" height="18.0506"/>
			<rect x="0" y="62.9494" width="66.5698" height="18.0506" class="st9"/>
			<text x="42.05" y="74.67" class="st2" v:langID="1029"><v:paragraph v:horizAlign="2"/><v:tabList/>10.75</text>		</g>
		<g id="shape131-87" v:mID="131" v:groupContext="shape" transform="translate(456.609,-40.3593)">
			<title>Sheet.131</title>
			<desc>Standard (hours)</desc>
			<v:userDefs>
				<v:ud v:nameU="visNavOrder" v:val="VT0(96000):26"/>
			</v:userDefs>
			<v:textBlock v:margins="rect(4,4,4,4)"/>
			<v:textRect cx="34.9453" cy="71.9649" width="69.9" height="18.0703"/>
			<rect x="0" y="62.9297" width="69.8906" height="18.0703" class="st1"/>
			<text x="4" y="74.67" class="st2" v:langID="1029"><v:paragraph/><v:tabList/>Standard (hours)</text>		</g>
		<g id="shape132-90" v:mID="132" v:groupContext="shape" transform="translate(456.609,-22.2891)">
			<title>Sheet.132</title>
			<desc>32</desc>
			<v:userDefs>
				<v:ud v:nameU="visNavOrder" v:val="VT0(97000):26"/>
			</v:userDefs>
			<v:textBlock v:margins="rect(4,4,4,4)"/>
			<v:textRect cx="34.9453" cy="71.9649" width="69.9" height="18.0703"/>
			<rect x="0" y="62.9297" width="69.8906" height="18.0703" class="st1"/>
			<text x="56.77" y="74.67" class="st2" v:langID="1029"><v:paragraph v:horizAlign="2"/><v:tabList/>32</text>		</g>
		<g id="shape133-93" v:mID="133" v:groupContext="shape" transform="translate(456.609,-4.21875)">
			<title>Sheet.133</title>
			<desc>32</desc>
			<v:userDefs>
				<v:ud v:nameU="visNavOrder" v:val="VT0(98000):26"/>
			</v:userDefs>
			<v:textBlock v:margins="rect(4,4,4,4)"/>
			<v:textRect cx="34.9453" cy="71.9649" width="69.9" height="18.0703"/>
			<rect x="0" y="62.9297" width="69.8906" height="18.0703" class="st1"/>
			<text x="56.77" y="74.67" class="st2" v:langID="1029"><v:paragraph v:horizAlign="2"/><v:tabList/>32</text>		</g>
		<g id="shape140-96" v:mID="140" v:groupContext="shape" transform="translate(456.609,-58.4296)">
			<title>Sheet.140</title>
			<desc>Selected service</desc>
			<v:userDefs>
				<v:ud v:nameU="visNavOrder" v:val="VT0(105000):26"/>
			</v:userDefs>
			<v:textBlock v:margins="rect(4,4,4,4)"/>
			<v:textRect cx="34.9453" cy="71.9649" width="69.9" height="18.0703"/>
			<rect x="0" y="62.9297" width="69.8906" height="18.0703" class="st1"/>
			<text x="4" y="74.67" class="st2" v:langID="1029"><v:paragraph/><v:tabList/>Selected service</text>		</g>
		<g id="shape141-99" v:mID="141" v:groupContext="shape" transform="translate(532.347,-58.5959)">
			<title>Sheet.141</title>
			<desc>Overall</desc>
			<v:userDefs>
				<v:ud v:nameU="visNavOrder" v:val="VT0(106000):26"/>
			</v:userDefs>
			<v:textBlock v:margins="rect(4,4,4,4)"/>
			<v:textRect cx="30.1531" cy="71.9747" width="60.31" height="18.0506"/>
			<rect x="0" y="62.9494" width="60.3062" height="18.0506" class="st10"/>
			<text x="4" y="74.67" class="st2" v:langID="1029"><v:paragraph/><v:tabList/>Overall</text>		</g>
		<g id="shape142-102" v:mID="142" v:groupContext="shape" transform="translate(532.399,-40.5452)">
			<title>Sheet.142</title>
			<desc>Time (hours)</desc>
			<v:userDefs>
				<v:ud v:nameU="visNavOrder" v:val="VT0(107000):26"/>
			</v:userDefs>
			<v:textBlock v:margins="rect(4,4,4,4)"/>
			<v:textRect cx="30.1268" cy="71.9747" width="60.26" height="18.0506"/>
			<rect x="0" y="62.9494" width="60.2537" height="18.0506" class="st1"/>
			<text x="4" y="74.67" class="st2" v:langID="1029"><v:paragraph/><v:tabList/>Time (hours)</text>		</g>
		<g id="shape143-105" v:mID="143" v:groupContext="shape" transform="translate(532.399,-22.4946)">
			<title>Sheet.143</title>
			<desc>42.96</desc>
			<v:userDefs>
				<v:ud v:nameU="visNavOrder" v:val="VT0(108000):26"/>
			</v:userDefs>
			<v:textBlock v:margins="rect(4,4,4,4)"/>
			<v:textRect cx="30.1268" cy="71.9747" width="60.26" height="18.0506"/>
			<rect x="0" y="62.9494" width="60.2537" height="18.0506" class="st1"/>
			<text x="35.6" y="74.67" class="st11" v:langID="1029"><v:paragraph v:horizAlign="2"/><v:tabList/>42.96</text>		</g>
		<g id="shape144-108" v:mID="144" v:groupContext="shape" transform="translate(532.399,-4.44394)">
			<title>Sheet.144</title>
			<desc>52.96</desc>
			<v:userDefs>
				<v:ud v:nameU="visNavOrder" v:val="VT0(109000):26"/>
			</v:userDefs>
			<v:textBlock v:margins="rect(4,4,4,4)"/>
			<v:textRect cx="30.1268" cy="71.9747" width="60.26" height="18.0506"/>
			<rect x="0" y="62.9494" width="60.2537" height="18.0506" class="st1"/>
			<text x="35.6" y="74.67" class="st11" v:langID="1029"><v:paragraph v:horizAlign="2"/><v:tabList/>52.96</text>		</g>
	</g>
</svg>
