<?xml version="1.0" encoding="UTF-8" standalone="no"?>
<!DOCTYPE svg PUBLIC "-//W3C//DTD SVG 1.1//EN" "http://www.w3.org/Graphics/SVG/1.1/DTD/svg11.dtd">
<!-- Generated by Microsoft Visio, SVG Export F7_air_cityname_sk.svg SK air -->
<svg xmlns="http://www.w3.org/2000/svg" xmlns:xlink="http://www.w3.org/1999/xlink" xmlns:ev="http://www.w3.org/2001/xml-events"
		xmlns:v="http://schemas.microsoft.com/visio/2003/SVGExtensions/" width="16.5in" height="9.25in" viewBox="0 0 1188 666"
		xml:space="preserve" color-interpolation-filters="sRGB" class="st7">
	<v:documentProperties v:langID="1033" v:viewMarkup="false">
		<v:userDefs>
			<v:ud v:nameU="msvNoAutoConnect" v:val="VT0(1):26"/>
		</v:userDefs>
	</v:documentProperties>

	<style type="text/css">
	<![CDATA[
		.st1 {fill:#ffffff;fill-opacity:0;stroke:none;stroke-linecap:butt;stroke-width:0.75}
		.st2 {fill:#ffffff;stroke:#000000;stroke-linecap:butt;stroke-width:1.6875}
		.st3 {fill:#06bbcc;fill-opacity:0.8;stroke:#ffffff;stroke-linecap:butt;stroke-opacity:0.8;stroke-width:1.8}
		.st4 {fill:none;stroke:none;stroke-linecap:round;stroke-linejoin:round;stroke-width:0.75}
		.st5 {fill:#000000;font-family:Calibri;font-size:3em;font-weight:bold}
		.st6 {stroke:#000000;stroke-linecap:round;stroke-linejoin:round;stroke-width:0.75}
		.st7 {fill:none;fill-rule:evenodd;font-size:12px;overflow:visible;stroke-linecap:square;stroke-miterlimit:3}
	]]>
	</style>

	<g v:mID="59" v:index="25" v:groupContext="foregroundPage">
		<title>SK air</title>
		<v:pageProperties v:drawingScale="1" v:pageScale="1" v:drawingUnits="19" v:shadowOffsetX="9" v:shadowOffsetY="-9"/>
		<v:layer v:name="Connector" v:index="0"/>
		<g id="group1023-1" transform="translate(-1638,765)" v:mID="1023" v:groupContext="group">
			<v:userDefs/>
			<title>Sheet.1023</title>
			<desc>Created with Raphaël 2.1.0</desc>
			<g id="shape1024-2" v:mID="1024" v:groupContext="shape">
				<title>Sheet.1024</title>
				<rect x="0" y="-1548" width="4500" height="2214" class="st1"/>
			</g>
			<g id="shape1025-4" v:mID="1025" v:groupContext="shape" transform="translate(2275.29,-1123.29)">
				<title>Sheet.1025</title>
				<path d="M18.36 634.05 L23.31 631.89 L24.84 630.63 L26.37 629.01 L26.73 628.11 L26.37 627.66 L24.75 627.3 L24.12
							 627.03 L23.67 626.58 L23.31 625.95 L23.04 625.14 L22.41 622.98 L22.23 621.09 L21.78 620.01 L21.06 619.11
							 L20.16 618.3 L15.3 611.82 L15.12 610.92 L15.3 610.38 L15.75 610.29 L16.83 610.38 L17.64 610.38 L19.17
							 609.57 L20.16 609.48 L20.61 608.94 L20.88 607.59 L21.06 604.8 L21.78 601.65 L21.96 599.85 L21.96 597.42
							 L22.86 590.94 L22.77 589.23 L22.32 588.33 L21.6 588.42 L20.79 588.69 L18.9 589.59 L16.02 590.04 L15.48
							 590.04 L15.03 589.68 L14.58 589.14 L14.13 588.24 L13.68 588.06 L13.32 588.24 L12.96 588.6 L12.51 588.42
							 L11.97 587.61 L11.07 585.45 L10.35 584.28 L9.54 583.47 L8.64 583.29 L7.56 583.47 L7.02 583.74 L6.48
							 584.28 L6.21 584.73 L5.85 584.82 L5.4 584.55 L4.68 583.29 L4.5 581.94 L4.5 579.24 L3.96 577.17 L3.24
							 575.37 L0.18 570.24 L0 569.52 L2.79 566.64 L5.4 564.75 L9.99 564.21 L14.04 566.28 L21.42 573.3 L26.19
							 575.64 L28.98 573.48 L30.51 567.99 L31.32 560.25 L33.12 558.09 L34.11 555.66 L34.92 553.05 L37.62 546.84
							 L38.43 545.76 L38.79 546.12 L42.03 546.48 L43.38 545.13 L46.53 541.44 L48.69 540.18 L59.76 539.19 L60.48
							 538.2 L61.56 535.14 L62.28 531.99 L62.55 530.01 L63.09 528.66 L64.62 527.49 L66.33 527.49 L72.18 529.74
							 L79.56 529.47 L79.56 525.6 L81.81 525.15 L93.96 531.36 L97.11 532.08 L100.53 530.91 L102.15 529.38 L104.4
							 526.5 L105.93 525.69 L107.19 525.6 L110.34 526.05 L115.74 525.15 L117.99 525.6 L130.77 540.81 L133.02
							 542.52 L136.26 542.97 L138.69 542.88 L140.94 543.24 L143.64 545.22 L145.98 547.65 L148.32 549.36 L150.93
							 549.9 L154.35 548.64 L157.41 545.94 L162.18 539.01 L165.06 536.13 L167.31 535.68 L170.37 535.68 L173.07
							 535.14 L174.24 533.07 L172.44 529.74 L169.11 527.76 L167.4 525.78 L170.28 522.45 L172.53 521.46 L178.29
							 520.29 L180.54 520.47 L183.15 522.27 L185.22 524.52 L187.38 526.05 L190.53 525.51 L192.96 523.26 L197.46
							 516.6 L200.07 514.71 L202.05 515.25 L210.06 519.57 L224.1 523.53 L226.44 523.53 L231.75 522.27 L233.91
							 522.9 L236.52 521.91 L238.68 521.01 L248.94 519.84 L251.64 520.56 L253.08 521.46 L255.78 524.07 L257.22
							 525.15 L258.3 525.24 L260.55 524.79 L261.99 525.24 L264.42 527.67 L269.19 535.14 L271.44 536.94 L272.97
							 535.95 L274.95 533.52 L277.47 531.27 L280.35 530.73 L282.96 532.17 L288.27 537.03 L296.01 540.9 L301.14
							 545.85 L305.28 552.51 L307.08 560.34 L308.07 567.27 L312.12 570.33 L322.29 572.22 L326.97 575.28 L328.68
							 576 L330.12 576.09 L333.54 575.64 L334.71 575.91 L336.33 577.62 L336.33 579.24 L335.88 580.59 L336.24
							 582.03 L337.32 582.93 L344.07 585 L351.99 584.64 L355.05 585.9 L362.34 593.19 L367.56 594.81 L378.81
							 595.35 L383.76 597.78 L382.68 601.38 L381.69 606.42 L380.97 611.46 L381.06 614.34 L380.79 614.34 L380.07
							 614.34 L379.98 614.25 L379.62 614.07 L379.44 613.98 L379.08 613.8 L378.9 613.62 L378.63 613.62 L378.18
							 613.71 L377.55 613.89 L377.37 613.98 L377.1 614.52 L376.83 614.79 L376.74 614.88 L376.11 615.15 L375.66
							 615.15 L375.21 615.24 L375.03 615.33 L374.85 615.6 L374.85 615.78 L374.85 616.41 L374.85 616.86 L374.85
							 617.13 L374.76 617.58 L374.67 617.67 L373.32 617.85 L370.8 619.83 L367.83 628.47 L367.74 628.56 L367.56
							 628.83 L367.56 629.01 L367.29 629.1 L367.38 629.73 L365.85 632.97 L365.67 634.05 L365.76 636.84 L365.4
							 638.19 L364.14 640.08 L363.06 640.44 L362.97 640.53 L362.88 641.07 L360.63 643.05 L359.55 644.58 L359.46
							 644.58 L352.89 642.87 L352.17 642.96 L348.48 644.04 L343.71 644.31 L342.99 644.04 L342.45 643.5 L342.27
							 642.42 L342.18 640.98 L340.02 635.76 L339.75 634.68 L339.75 633.87 L339.57 633.06 L339.12 632.16 L336.6
							 630.72 L332.73 630.81 L327.33 638.19 L324.27 639.45 L323.91 639.9 L323.37 640.44 L323.37 640.89 L323.37
							 641.43 L323.46 641.97 L324.09 643.95 L324.45 646.02 L324.54 647.1 L324.36 647.73 L324.09 647.91 L323.55
							 648.09 L315.27 648.27 L310.95 648.99 L308.25 648.9 L305.28 648.09 L298.71 644.13 L297.81 643.32 L297.9
							 643.05 L297.54 642.69 L296.73 642.15 L294.75 641.25 L280.89 636.66 L275.49 636.57 L275.31 642.06 L275.4
							 642.51 L275.58 642.87 L275.67 643.5 L275.67 646.38 L275.76 647.28 L276.3 649.53 L276.39 649.98 L276.3
							 651.33 L276.39 651.87 L276.57 652.5 L277.38 654.48 L277.65 655.29 L277.65 656.1 L277.38 657.09 L276.93
							 658.26 L276.39 658.89 L275.58 659.43 L272.88 660.33 L270.54 662.4 L267.21 663.03 L266.22 663.48 L266.13
							 663.84 L265.95 664.56 L265.68 664.92 L265.32 665.19 L264.78 665.55 L263.97 665.82 L262.8 666 L261.45
							 665.91 L259.83 665.37 L257.13 663.39 L256.14 662.94 L254.97 662.76 L252.45 662.94 L248.76 662.22 L239.76
							 658.71 L235.53 651.15 L234.9 650.07 L234.09 648.45 L233.64 647.1 L233.46 644.85 L233.28 643.86 L231.57
							 639.63 L229.59 640.62 L229.23 640.98 L228.51 641.43 L227.34 641.79 L226.26 641.61 L224.46 640.62 L223.83
							 639.9 L223.38 639.18 L223.38 638.64 L223.2 638.1 L222.93 638.1 L222.66 638.46 L222.48 640.17 L222.3
							 640.98 L222.03 641.43 L221.67 641.34 L221.04 640.71 L220.05 639.81 L219.51 639.63 L218.79 639.63 L217.53
							 640.08 L216.99 640.44 L216.81 640.89 L217.26 641.79 L217.44 642.24 L217.53 642.96 L217.17 645.75 L216.72
							 647.37 L216.27 648.27 L215.82 648.81 L215.28 649.08 L214.83 649.17 L212.49 649.44 L210.78 650.07 L210.15
							 650.25 L208.08 650.25 L207.36 650.34 L206.82 650.52 L206.46 650.97 L206.19 651.33 L206.1 651.87 L206.19
							 652.32 L206.28 652.77 L206.46 653.04 L207.18 653.67 L207.45 653.85 L207.45 654.03 L207.27 654.3 L206.91
							 654.39 L205.02 654.66 L203.22 654.48 L201.69 653.67 L199.08 651.24 L197.46 648.72 L197.46 648.18 L197.37
							 647.73 L197.55 647.28 L197.82 646.83 L198.63 645.75 L198.9 645.3 L199.17 644.94 L200.07 644.13 L200.25
							 643.77 L200.25 643.41 L200.07 642.69 L199.98 642.33 L199.8 642.06 L199.35 641.97 L198.45 642.33 L197.64
							 642.42 L196.92 642.15 L196.02 641.43 L194.94 640.98 L193.59 640.89 L191.52 640.17 L188.55 640.71 L187.74
							 640.35 L186.48 639.18 L185.76 638.37 L185.31 637.74 L185.04 637.29 L184.59 636.93 L184.14 636.48 L183.42
							 636.12 L182.97 635.76 L182.43 635.58 L181.71 635.49 L179.1 636.39 L178.38 636.39 L175.68 636.03 L170.19
							 634.23 L168.21 634.41 L167.76 634.59 L167.22 634.68 L166.68 634.5 L166.14 633.96 L165.24 632.7 L164.97
							 631.98 L164.88 631.44 L164.79 631.08 L164.43 630.54 L162 628.2 L161.37 627.21 L161.1 626.22 L161.1 625.59
							 L161.1 625.14 L161.01 624.6 L160.65 623.43 L160.11 623.07 L159.3 622.98 L157.32 623.34 L156.51 623.61
							 L155.97 623.88 L155.88 624.15 L155.7 624.42 L155.07 624.33 L151.02 621.63 L148.05 621.18 L145.17 618.66
							 L140.58 619.65 L139.95 619.56 L138.96 619.38 L137.34 618.57 L136.89 618.03 L136.89 617.49 L137.43 616.86
							 L137.34 616.41 L136.53 615.96 L134.28 615.42 L130.95 613.89 L129.33 613.53 L128.88 613.62 L128.7 614.25
							 L128.88 614.61 L129.24 615.42 L129.24 615.96 L129.15 616.59 L128.97 617.4 L128.97 617.94 L128.97 618.39
							 L129.06 618.66 L129.33 618.84 L130.05 619.38 L130.32 619.65 L130.32 619.83 L130.05 620.01 L129.51 620.19
							 L120.51 618.75 L117.9 618.84 L117 619.11 L116.37 619.47 L116.28 619.74 L116.19 620.1 L116.28 620.46
							 L116.73 621.27 L116.82 621.54 L116.73 621.81 L115.92 622.62 L115.56 622.89 L114.93 623.25 L113.49 623.97
							 L111.69 624.15 L109.98 624.06 L109.17 623.7 L107.37 620.73 L107.1 620.19 L106.38 619.83 L105.21 619.56
							 L102.15 619.2 L98.73 617.13 L94.95 614.25 L94.14 613.53 L93.87 612.9 L94.23 611.28 L94.05 610.74 L93.33
							 610.47 L92.7 610.65 L91.53 611.82 L91.17 612.54 L90.99 613.26 L91.71 614.61 L91.71 614.97 L91.26 615.24
							 L87.84 616.41 L87.48 616.59 L87.39 616.95 L87.39 617.4 L87.66 618.57 L87.93 619.11 L88.2 619.47 L88.38
							 619.65 L88.56 619.83 L88.65 620.1 L88.38 619.92 L87.84 619.29 L85.59 616.05 L82.35 613.89 L81.27 613.62
							 L81.18 613.35 L80.82 612.99 L80.46 612.9 L79.83 613.17 L77.67 615.33 L76.95 615.69 L76.5 615.78 L76.14
							 615.6 L75.78 615.6 L75.42 615.87 L74.43 616.77 L68.13 619.56 L66.24 620.82 L65.52 621.54 L63.72 624.06
							 L62.01 625.68 L61.92 626.13 L62.37 626.58 L63.99 626.85 L65.88 627.48 L67.95 630.18 L63.72 632.88 L62.91
							 633.69 L61.92 635.13 L60.21 639.45 L58.14 641.43 L52.29 638.01 L51.21 637.11 L50.4 636.75 L47.61 635.85
							 L45 634.41 L44.01 634.5 L41.85 636.48 L39.06 636.66 L18.36 634.05 Z" class="st2"/>
			</g>
			<g id="shape1026-6" v:mID="1026" v:groupContext="shape" transform="translate(1914.57,-1064.97)">
				<title>Sheet.1026</title>
				<path d="M144.27 482.76 L144.99 483.75 L147.51 484.56 L147.6 486.27 L147.6 486.72 L147.69 487.17 L147.87 487.53 L156.69
							 502.29 L157.05 503.1 L157.23 503.64 L157.23 504 L156.96 504.54 L156.96 504.81 L157.05 505.17 L157.77
							 506.61 L157.95 507.06 L158.04 507.42 L157.95 507.6 L158.22 508.14 L160.02 511.38 L160.83 512.46 L161.55
							 513.27 L165.06 515.61 L165.24 515.61 L165.78 515.61 L166.14 515.7 L166.59 516.06 L168.3 517.68 L168.93
							 518.13 L169.47 518.31 L170.28 518.58 L172.98 520.2 L173.7 520.92 L174.87 522.54 L175.23 523.62 L175.32
							 525.24 L175.23 526.05 L175.41 526.95 L175.5 527.4 L177.3 530.19 L173.43 534.24 L172.89 535.05 L173.07
							 535.41 L173.34 535.5 L173.88 535.5 L175.95 536.13 L176.22 536.31 L176.58 536.67 L176.85 537.03 L177.12
							 537.39 L177.48 538.38 L177.66 538.65 L177.93 538.83 L178.47 539.1 L178.65 539.28 L178.92 539.55 L179.1
							 539.82 L179.19 540.18 L179.1 540.63 L178.92 541.44 L178.83 541.89 L178.83 542.16 L178.92 542.43 L179.01
							 542.79 L178.92 543.15 L178.65 543.78 L178.56 544.23 L178.47 544.68 L178.92 547.56 L178.65 548.82 L177.93
							 550.26 L175.95 552.96 L174.33 554.94 L172.98 556.11 L168.66 557.28 L167.76 557.82 L166.95 558.63 L165.6
							 561.06 L164.79 561.87 L164.16 562.41 L159.93 564.84 L160.74 566.64 L162 567.54 L164.61 568.08 L166.59
							 568.71 L167.13 568.8 L168.21 568.62 L172.08 566.37 L173.07 565.38 L173.52 564.66 L173.61 564.3 L173.7
							 563.94 L173.88 563.58 L175.77 561.51 L176.13 561.51 L176.49 561.87 L177.39 563.67 L177.66 564.03 L179.01
							 564.12 L183.69 562.68 L189.63 564.3 L192.42 564.57 L193.23 565.02 L193.77 565.38 L196.65 569.16 L195.93
							 569.79 L195.66 570.24 L195.3 570.6 L194.94 570.87 L194.67 571.05 L194.49 571.32 L194.4 571.59 L194.31
							 571.95 L194.13 572.4 L193.95 572.85 L193.59 573.48 L193.32 573.93 L193.41 574.74 L194.22 578.07 L194.31
							 579.24 L194.22 580.05 L193.86 581.4 L193.77 581.94 L193.77 582.57 L193.95 583.56 L194.04 584.1 L193.95
							 584.64 L193.77 585.99 L193.77 587.25 L194.13 587.97 L194.67 588.78 L197.91 591.75 L198.36 592.02 L198.63
							 592.11 L199.35 592.38 L199.71 592.56 L200.25 592.92 L200.61 593.1 L201.15 593.28 L203.49 595.44 L204.3
							 595.89 L204.75 596.25 L204.75 596.43 L204.39 596.88 L204.3 597.42 L204.39 598.14 L204.84 599.67 L205.38
							 600.75 L206.28 602.28 L211.23 608.4 L211.68 609.12 L212.04 611.19 L211.95 612.63 L211.77 613.08 L211.5
							 613.62 L210.96 614.34 L209.25 617.94 L207.27 621 L206.73 621.36 L206.1 621.54 L203.94 621.63 L203.13
							 622.08 L202.5 622.98 L199.08 629.46 L198.54 630.18 L196.47 631.98 L195.93 632.52 L195.75 632.97 L196.02
							 634.86 L196.02 635.76 L195.03 636.03 L194.22 636.03 L186.39 633.87 L182.52 639.45 L180.45 641.97 L179.73
							 642.96 L179.37 643.59 L179.19 644.22 L179.1 644.67 L179.1 645.03 L179.1 645.3 L179.1 645.66 L179.01
							 646.02 L178.56 647.46 L178.47 647.82 L178.38 648.27 L164.34 650.07 L162.72 653.58 L152.64 659.7 L148.05
							 663.75 L145.89 665.01 L145.62 665.28 L145.53 665.46 L145.53 665.73 L145.35 665.91 L144.99 666 L144 665.19
							 L143.1 663.84 L142.83 663.66 L142.56 663.84 L142.11 664.56 L141.84 665.37 L141.75 665.55 L140.76 665.46
							 L137.25 664.2 L135.63 659.34 L134.28 656.28 L133.65 655.56 L130.77 653.67 L130.05 652.86 L129.51 652.41
							 L128.97 652.14 L127.26 652.23 L126.63 652.05 L126.27 651.6 L126.18 650.61 L125.73 650.07 L125.37 649.62
							 L125.1 648.72 L125.19 647.28 L126.36 645.12 L127.62 643.32 L128.43 641.25 L128.34 639.9 L127.17 638.01
							 L125.55 636.39 L123.03 635.76 L116.82 632.16 L115.65 630.54 L114.12 627.57 L113.31 626.58 L110.16 623.25
							 L108.99 622.53 L98.82 620.37 L98.55 620.01 L98.37 619.11 L98.46 618.48 L98.37 618.03 L98.01 617.76 L97.56
							 617.49 L94.59 617.22 L93.51 618.03 L92.79 618.93 L92.7 619.56 L92.7 620.28 L92.97 621.63 L93.15 622.53
							 L93.24 623.52 L93.15 624.96 L93.33 625.59 L93.42 625.95 L93.6 626.13 L93.69 626.31 L93.87 626.67 L94.05
							 627.39 L94.68 628.74 L94.77 628.92 L94.86 629.01 L95.04 629.1 L95.13 629.19 L95.22 629.55 L95.4 629.73
							 L95.58 629.91 L95.67 630.09 L95.85 630.36 L96.12 631.8 L96.21 632.97 L96.12 633.96 L95.85 635.31 L95.67
							 635.85 L95.31 636.12 L94.77 635.85 L94.32 635.58 L93.78 635.76 L93.42 636.03 L90.63 639.09 L76.68 636.03
							 L76.41 635.58 L76.14 635.04 L75.24 634.05 L74.52 633.69 L73.71 633.6 L73.17 633.87 L72.72 634.14 L71.91
							 634.41 L71.37 634.32 L70.74 633.69 L69.57 631.8 L68.4 630.72 L67.86 630.36 L67.5 630.27 L67.32 630.36
							 L67.23 630.63 L67.32 630.99 L67.32 631.26 L67.41 631.62 L67.32 631.89 L66.51 632.07 L61.56 632.16 L58.86
							 631.8 L56.25 630.45 L55.71 630.09 L55.44 629.73 L53.91 626.85 L52.65 625.32 L50.67 624.33 L48.33 625.05
							 L43.83 626.94 L42.93 627.75 L42.48 628.02 L42.03 628.11 L40.68 628.11 L40.32 627.93 L39.33 626.85 L38.97
							 626.76 L38.7 626.85 L38.61 627.21 L38.52 627.57 L38.43 628.56 L38.52 629.19 L38.52 629.55 L38.43 629.82
							 L38.43 630.18 L38.52 630.63 L38.07 631.17 L37.62 631.98 L32.94 633.42 L30.96 632.25 L30.6 632.25 L30.24
							 632.34 L29.97 632.61 L29.7 632.88 L28.71 633.42 L25.38 636.39 L22.23 629.55 L20.61 627.21 L19.26 625.77
							 L18.63 625.05 L18.27 624.42 L17.82 621.99 L17.46 621.36 L16.65 620.64 L16.38 620.1 L16.29 619.56 L16.47
							 618.84 L16.74 618.21 L17.28 617.22 L17.55 616.68 L17.82 615.87 L18 615.42 L18.54 614.88 L18.81 614.25
							 L18.9 612.81 L18.45 611.37 L17.64 610.02 L16.47 608.4 L15.93 607.68 L15.48 607.32 L14.22 606.96 L13.95
							 606.87 L13.59 606.69 L13.41 606.42 L13.14 606.33 L11.79 604.71 L10.08 602.28 L9.27 601.47 L8.64 601.38
							 L6.21 604.44 L5.76 604.8 L5.4 604.98 L4.95 604.98 L3.15 604.53 L0 603.27 L4.5 599.04 L6.03 596.88 L7.38
							 593.73 L7.74 592.38 L10.35 590.67 L13.77 589.68 L15.93 590.67 L19.8 594.81 L20.7 596.25 L22.68 596.88
							 L24.3 596.16 L24.57 595.98 L25.56 596.16 L41.49 589.86 L53.19 585.27 L55.71 583.2 L60.66 574.65 L63
							 572.67 L66.51 572.04 L69.57 572.58 L72.27 572.4 L74.88 569.88 L75.06 569.61 L75.42 568.62 L76.14 566.82
							 L77.22 560.07 L78.12 556.83 L80.01 552.96 L82.98 551.07 L86.49 550.53 L94.23 551.07 L99 548.91 L103.23
							 544.95 L103.23 544.86 L106.2 539.91 L107.1 535.05 L106.92 525.24 L106.92 523.98 L107.46 518.04 L109.26
							 510.84 L111.96 504.18 L113.13 502.2 L115.38 498.51 L119.61 494.46 L138.96 486.9 L144.27 482.76 Z"
						class="st2"/>
			</g>
			<g id="shape1027-8" v:mID="1027" v:groupContext="shape" transform="translate(1855.35,-910.35)">
				<title>Sheet.1027</title>
				<path d="M0.54 499.86 L1.35 497.16 L0 486.99 L0.36 482.85 L2.61 480.15 L4.32 477.09 L11.52 456.12 L13.14 453.33 L13.86
							 452.88 L14.22 451.44 L15.12 450.09 L18.36 447.21 L18.99 446.85 L20.52 445.68 L21.24 445.14 L21.42 443.97
							 L21.6 442.89 L21.69 442.44 L22.5 441.18 L22.86 440.64 L22.86 440.55 L23.13 438.75 L24.21 436.95 L28.89
							 433.62 L28.98 433.53 L29.79 432.9 L31.95 431.37 L38.43 429.93 L45.27 431.73 L61.65 440.1 L64.17 439.65
							 L66.96 437.76 L66.6 439.11 L65.25 442.26 L63.72 444.42 L59.22 448.65 L62.37 449.91 L64.17 450.36 L64.62
							 450.36 L64.98 450.18 L65.43 449.82 L67.86 446.76 L68.49 446.85 L69.3 447.66 L71.01 450.09 L72.36 451.71
							 L72.63 451.8 L72.81 452.07 L73.17 452.25 L73.44 452.34 L74.7 452.7 L75.15 453.06 L75.69 453.78 L76.86
							 455.4 L77.67 456.75 L78.12 458.19 L78.03 459.63 L77.76 460.26 L77.22 460.8 L77.04 461.25 L76.77 462.06
							 L76.5 462.6 L75.96 463.59 L75.69 464.22 L75.51 464.94 L75.6 465.48 L75.87 466.02 L76.68 466.74 L77.04
							 467.37 L77.49 469.8 L77.85 470.43 L78.48 471.15 L79.83 472.59 L81.45 474.93 L84.6 481.77 L87.93 478.8
							 L88.92 478.26 L89.19 477.99 L89.46 477.72 L89.82 477.63 L90.18 477.63 L92.16 478.8 L96.84 477.36 L97.29
							 476.55 L97.74 476.01 L97.65 475.56 L97.65 475.2 L97.74 474.93 L97.74 474.57 L97.65 473.94 L97.74 472.95
							 L97.83 472.59 L97.92 472.23 L98.19 472.14 L98.55 472.23 L99.54 473.31 L99.9 473.49 L101.25 473.49 L101.7
							 473.4 L102.15 473.13 L103.05 472.32 L107.55 470.43 L109.89 469.71 L111.87 470.7 L113.13 472.23 L114.66
							 475.11 L114.93 475.47 L115.47 475.83 L118.08 477.18 L120.78 477.54 L125.73 477.45 L126.54 477.27 L126.63
							 477 L126.54 476.64 L126.54 476.37 L126.45 476.01 L126.54 475.74 L126.72 475.65 L127.08 475.74 L127.62
							 476.1 L128.79 477.18 L129.96 479.07 L130.59 479.7 L131.13 479.79 L131.94 479.52 L132.39 479.25 L132.93
							 478.98 L133.74 479.07 L134.46 479.43 L135.36 480.42 L135.63 480.96 L135.9 481.41 L149.85 484.47 L150.21
							 485.82 L150.39 486.18 L150.48 486.63 L150.21 487.08 L149.49 487.62 L142.83 490.32 L141.57 490.41 L140.67
							 490.32 L138.87 489.06 L138.42 488.88 L137.97 488.88 L137.34 489.96 L132.93 501.39 L132.66 501.84 L130.23
							 504.63 L136.53 507.96 L136.89 507.96 L137.43 508.23 L140.58 510.84 L147.06 517.41 L143.91 520.92 L133.74
							 539.28 L131.31 541.71 L130.68 544.86 L130.5 545.49 L130.41 546.39 L130.32 547.2 L129.69 550.89 L129.51
							 551.43 L129.15 551.79 L128.79 552.15 L128.97 552.78 L129.15 553.23 L132.93 556.65 L131.94 558.36 L131.31
							 559.26 L131.04 559.89 L131.13 560.43 L131.4 561.06 L131.4 561.6 L130.95 562.41 L130.59 562.77 L130.41
							 563.49 L130.59 564.21 L131.13 565.92 L131.58 566.55 L131.94 566.91 L132.3 567 L132.66 567.36 L134.1
							 568.8 L134.55 569.52 L134.82 570.33 L134.82 571.5 L134.37 573.12 L133.92 573.84 L133.29 574.38 L130.95
							 575.82 L129.33 577.08 L128.97 577.17 L128.7 576.99 L126.72 574.56 L126.27 574.38 L126 574.38 L125.46
							 574.74 L124.47 575.19 L124.47 575.82 L124.92 576.81 L126.09 579.24 L126.54 580.41 L126.45 581.67 L126.09
							 582.75 L125.82 583.11 L125.55 583.47 L125.1 583.65 L124.65 583.83 L124.29 583.83 L123.84 583.74 L122.85
							 583.11 L121.86 582.57 L121.32 582.48 L120.6 582.57 L118.26 583.56 L117.72 584.19 L117.72 584.91 L124.02
							 591.93 L124.83 593.46 L124.74 595.17 L123.57 598.14 L123.3 598.95 L123.39 599.67 L123.84 600.21 L124.83
							 601.02 L125.46 601.2 L126.18 601.2 L128.52 600.3 L129.42 600.21 L129.87 600.48 L130.14 601.2 L129.6
							 602.91 L129.51 603.45 L129.78 603.81 L130.41 604.35 L130.86 604.53 L131.85 604.62 L132.48 604.89 L132.75
							 604.89 L133.2 604.89 L133.56 604.98 L133.92 605.34 L134.28 606.15 L134.37 607.32 L133.65 612 L134.64
							 619.47 L134.28 624.96 L135.36 625.95 L135.54 626.58 L135.72 627.39 L135.63 628.2 L135.45 628.92 L135.18
							 629.64 L134.91 632.16 L135.81 633.78 L136.26 634.77 L136.08 635.58 L135.18 636.48 L132.75 638.01 L129.33
							 641.07 L127.71 643.41 L126.63 644.22 L126.09 644.58 L125.82 644.49 L125.46 644.58 L125.01 644.94 L124.2
							 645.84 L123.66 646.83 L123.21 648.27 L123.12 652.86 L122.49 653.76 L121.5 654.75 L118.8 656.91 L117.63
							 657.54 L116.73 657.72 L116.46 657.63 L116.1 657.54 L115.83 657.54 L115.56 657.54 L114.93 657.18 L114.57
							 657.09 L114.3 657.45 L113.94 658.17 L112.95 663.21 L112.41 664.74 L111.24 665.91 L111.24 666 L105.12
							 662.67 L103.59 660.96 L102.51 658.8 L99.81 656.28 L96.84 654.12 L94.68 653.04 L93.06 653.31 L91.62 653.94
							 L90.18 654.03 L88.38 652.23 L83.52 644.94 L82.26 644.04 L78.57 643.23 L77.13 642.69 L75.69 641.34 L60.93
							 621.54 L56.43 617.76 L47.07 616.32 L45.63 615.96 L45.63 615.87 L46.35 610.47 L49.05 607.23 L49.77 606.69
							 L51.3 605.79 L51.75 605.34 L51.93 604.89 L51.66 603.99 L51.48 603.18 L51.48 601.83 L51.75 601.47 L52.11
							 601.29 L52.47 601.56 L53.19 601.47 L54.18 601.02 L56.34 599.22 L57.87 598.23 L58.5 597.6 L58.59 597.42
							 L58.32 596.97 L58.14 596.79 L57.87 596.61 L57.69 596.61 L55.35 596.79 L55.08 596.7 L54.72 596.52 L54
							 595.71 L52.83 594.81 L52.65 594.54 L52.65 594.18 L52.65 593.64 L52.83 592.74 L52.92 592.2 L52.83 591.75
							 L52.02 590.4 L52.11 590.04 L52.38 589.86 L52.92 589.86 L56.25 590.67 L57.87 590.67 L58.5 590.49 L59.94
							 589.5 L61.02 588.51 L61.56 587.97 L62.19 587.7 L62.73 587.61 L63.63 587.25 L64.08 586.71 L64.26 586.35
							 L64.17 586.08 L63.99 585.72 L63.72 585.36 L63 584.55 L62.82 584.19 L62.73 583.74 L62.64 583.2 L63 581.04
							 L63.36 580.41 L63.9 580.14 L64.44 579.87 L65.34 579.33 L65.79 579.15 L66.06 579.24 L66.24 579.51 L66.24
							 579.87 L66.42 580.23 L66.69 581.04 L66.06 582.21 L65.88 582.66 L65.88 583.02 L66.06 583.2 L66.51 583.38
							 L68.4 583.56 L69.12 583.92 L70.2 584.73 L70.83 585 L71.46 585 L75.33 583.29 L79.83 579.69 L81.45 579.24
							 L82.26 579.51 L82.71 578.97 L83.25 578.07 L84.15 575.73 L84.33 574.74 L84.33 574.02 L84.15 573.75 L83.88
							 573.21 L83.7 573.12 L83.43 573.12 L82.8 573.3 L82.53 572.94 L82.17 572.13 L82.44 569.79 L82.53 568.8
							 L82.17 568.08 L79.2 566.73 L78.57 566.55 L78.21 566.19 L77.94 565.56 L77.58 563.58 L77.76 562.5 L78.48
							 561.15 L82.44 556.38 L74.61 550.08 L73.8 547.65 L73.8 547.2 L73.89 546.66 L74.97 544.86 L76.14 541.98
							 L76.5 540.81 L76.5 539.91 L76.14 539.55 L75.78 538.74 L75.33 538.02 L74.52 537.12 L74.07 536.67 L73.44
							 536.4 L72.63 536.4 L72.18 535.95 L71.64 535.23 L69.21 530.37 L68.58 529.38 L67.5 528.21 L66.51 526.68
							 L65.97 526.14 L64.62 524.97 L64.35 524.52 L64.44 524.07 L64.71 523.71 L65.07 522.81 L64.98 522.36 L64.53
							 522.09 L62.01 522 L61.38 521.91 L60.93 521.64 L60.12 520.83 L59.13 520.02 L58.68 519.57 L58.41 519.3
							 L58.05 519.12 L57.78 519.12 L55.8 519.12 L53.91 518.4 L53.46 515.97 L54.72 513.45 L56.88 510.03 L57.6
							 509.04 L58.14 508.5 L59.49 507.6 L51.66 499.77 L52.38 498.06 L52.38 496.71 L54 495.9 L54.27 495.63 L54.54
							 495.18 L55.53 492.48 L55.8 492.12 L56.34 492.03 L56.79 492.12 L57.33 492.03 L57.69 491.85 L58.14 491.4
							 L60.75 487.98 L61.47 486.45 L62.28 483.93 L62.28 481.95 L61.92 480.33 L61.38 479.34 L60.75 478.53 L60.21
							 477.81 L59.67 477.45 L59.13 477.18 L57.69 476.73 L57.42 476.46 L57.06 476.19 L56.7 475.92 L55.98 475.74
							 L55.08 476.46 L53.82 478.08 L49.77 484.65 L49.59 485.01 L49.5 485.19 L49.23 485.28 L48.96 485.37 L48.69
							 485.46 L47.79 486.09 L47.16 486.72 L46.8 487.17 L46.53 487.62 L46.26 488.52 L45.99 488.97 L45.72 489.24
							 L44.64 489.96 L43.29 490.59 L42.66 491.04 L42.12 491.67 L41.58 493.02 L40.95 493.65 L39.78 494.01 L38.07
							 494.1 L35.46 494.82 L33.48 495.99 L27.54 498.6 L26.73 498.78 L25.29 498.33 L18.99 495.36 L17.1 494.82
							 L16.2 494.82 L16.65 495.9 L16.83 496.44 L16.74 496.8 L16.29 496.89 L9.72 497.16 L1.08 499.86 L0.54 499.86
							 Z" class="st2"/>
			</g>
			<g id="shape1028-10" v:mID="1028" v:groupContext="shape" transform="translate(1966.59,-905.31)">
				<title>Sheet.1028</title>
				<path d="M0 660.96 L0 660.87 L1.17 659.7 L1.71 658.17 L2.7 653.13 L3.06 652.41 L3.33 652.05 L3.69 652.14 L4.32 652.5
							 L4.59 652.5 L4.86 652.5 L5.22 652.59 L5.49 652.68 L6.39 652.5 L7.56 651.87 L10.26 649.71 L11.25 648.72
							 L11.88 647.82 L11.97 643.23 L12.42 641.79 L12.96 640.8 L13.77 639.9 L14.22 639.54 L14.58 639.45 L14.85
							 639.54 L15.39 639.18 L16.47 638.37 L18.09 636.03 L21.51 632.97 L23.94 631.44 L24.84 630.54 L25.02 629.73
							 L24.57 628.74 L23.67 627.12 L23.94 624.6 L24.21 623.88 L24.39 623.16 L24.48 622.35 L24.3 621.54 L24.12
							 620.91 L23.04 619.92 L23.4 614.43 L22.41 606.96 L23.13 602.28 L23.04 601.11 L22.68 600.3 L22.32 599.94
							 L21.96 599.85 L21.51 599.85 L21.24 599.85 L20.61 599.58 L19.62 599.49 L19.17 599.31 L18.54 598.77 L18.27
							 598.41 L18.36 597.87 L18.9 596.16 L18.63 595.44 L18.18 595.17 L17.28 595.26 L14.94 596.16 L14.22 596.16
							 L13.59 595.98 L12.6 595.17 L12.15 594.63 L12.06 593.91 L12.33 593.1 L13.5 590.13 L13.59 588.42 L12.78
							 586.89 L6.48 579.87 L6.48 579.15 L7.02 578.52 L9.36 577.53 L10.08 577.44 L10.62 577.53 L11.61 578.07
							 L12.6 578.7 L13.05 578.79 L13.41 578.79 L13.86 578.61 L14.31 578.43 L14.58 578.07 L14.85 577.71 L15.21
							 576.63 L15.3 575.37 L14.85 574.2 L13.68 571.77 L13.23 570.78 L13.23 570.15 L14.22 569.7 L14.76 569.34
							 L15.03 569.34 L15.48 569.52 L17.46 571.95 L17.73 572.13 L18.09 572.04 L19.71 570.78 L22.05 569.34 L22.68
							 568.8 L23.13 568.08 L23.58 566.46 L23.58 565.29 L23.31 564.48 L22.86 563.76 L21.42 562.32 L21.06 561.96
							 L20.7 561.87 L20.34 561.51 L19.89 560.88 L19.35 559.17 L19.17 558.45 L19.35 557.73 L19.71 557.37 L20.16
							 556.56 L20.16 556.02 L19.89 555.39 L19.8 554.85 L20.07 554.22 L20.7 553.32 L21.69 551.61 L17.91 548.19
							 L17.73 547.74 L17.55 547.11 L17.91 546.75 L18.27 546.39 L18.45 545.85 L19.08 542.16 L19.17 541.35 L19.26
							 540.45 L19.44 539.82 L20.07 536.67 L22.5 534.24 L32.67 515.88 L35.82 512.37 L29.34 505.8 L26.19 503.19
							 L25.65 502.92 L25.29 502.92 L18.99 499.59 L21.42 496.8 L21.69 496.35 L26.1 484.92 L26.73 483.84 L27.18
							 483.84 L27.63 484.02 L29.43 485.28 L30.33 485.37 L31.59 485.28 L38.25 482.58 L38.97 482.04 L39.24 481.59
							 L39.15 481.14 L38.97 480.78 L38.61 479.43 L41.4 476.37 L41.76 476.1 L42.3 475.92 L42.75 476.19 L43.29
							 476.46 L43.65 476.19 L43.83 475.65 L44.1 474.3 L44.19 473.31 L44.1 472.14 L43.83 470.7 L43.65 470.43
							 L43.56 470.25 L43.38 470.07 L43.2 469.89 L43.11 469.53 L43.02 469.44 L42.84 469.35 L42.75 469.26 L42.66
							 469.08 L42.03 467.73 L41.85 467.01 L41.67 466.65 L41.58 466.47 L41.4 466.29 L41.31 465.93 L41.13 465.3
							 L41.22 463.86 L41.13 462.87 L40.95 461.97 L40.68 460.62 L40.68 459.9 L40.77 459.27 L41.49 458.37 L42.57
							 457.56 L45.54 457.83 L45.99 458.1 L46.35 458.37 L46.44 458.82 L46.35 459.45 L46.53 460.35 L46.8 460.71
							 L56.97 462.87 L58.14 463.59 L61.29 466.92 L62.1 467.91 L63.63 470.88 L64.8 472.5 L71.01 476.1 L73.53
							 476.73 L75.15 478.35 L76.32 480.24 L76.41 481.59 L75.6 483.66 L74.34 485.46 L73.17 487.62 L73.08 489.06
							 L73.35 489.96 L73.71 490.41 L74.16 490.95 L74.25 491.94 L74.61 492.39 L75.24 492.57 L76.95 492.48 L77.49
							 492.75 L78.03 493.2 L78.75 494.01 L81.63 495.9 L82.26 496.62 L83.61 499.68 L85.23 504.54 L88.74 505.8
							 L89.73 505.89 L89.82 505.71 L90.09 504.9 L90.54 504.18 L90.81 504 L91.08 504.18 L91.98 505.53 L92.97
							 506.34 L93.33 506.25 L93.51 506.07 L93.51 505.8 L93.6 505.62 L93.87 505.35 L96.03 504.09 L100.62 500.04
							 L110.7 493.92 L112.77 497.16 L113.76 497.79 L114.03 498.51 L113.76 499.05 L111.6 501.57 L110.7 503.28
							 L110.52 504.09 L110.88 504.36 L114.39 503.64 L115.65 503.64 L116.82 504 L117.36 504.63 L117.63 505.62
							 L117.63 506.7 L117.45 507.69 L117.27 509.04 L117.27 509.67 L117.54 509.94 L118.35 510.12 L118.44 510.39
							 L118.26 510.75 L117.09 512.37 L116.73 513 L116.55 514.44 L117 515.61 L118.26 517.77 L118.62 519.03 L118.62
							 520.29 L118.44 521.55 L118.53 522.27 L118.89 522.54 L119.25 522.63 L119.97 522.81 L120.69 523.71 L121.77
							 525.78 L122.4 528.66 L122.58 530.37 L122.4 531.81 L122.13 533.07 L121.68 534.15 L121.14 535.05 L120.69
							 535.59 L119.7 536.4 L119.43 536.85 L119.34 537.3 L119.16 537.93 L118.89 538.47 L118.53 538.92 L117.36
							 540.18 L116.64 541.17 L118.08 543.6 L118.71 543.6 L119.16 542.7 L119.61 542.25 L120.6 541.35 L120.87
							 540.99 L121.86 539.46 L123.03 538.2 L124.83 537.57 L133.83 536.13 L138.42 534.69 L138.78 534.06 L138.96
							 533.61 L138.96 532.89 L139.14 532.17 L139.77 531.54 L140.04 531 L140.22 530.55 L140.22 530.01 L140.4
							 529.56 L141.3 528.66 L141.75 527.76 L142.2 527.22 L144.27 525.15 L145.62 523.53 L146.43 522.99 L147.06
							 522.72 L148.77 523.17 L152.91 529.29 L156.6 532.44 L157.5 533.52 L163.17 546.48 L161.91 552.6 L161.64
							 553.41 L161.19 554.4 L159.48 556.2 L157.77 558.36 L157.32 559.44 L157.23 560.16 L158.49 561.6 L158.49
							 561.87 L158.31 562.23 L157.77 562.68 L157.68 563.22 L157.95 564.03 L159.12 566.19 L159.66 567.54 L159.66
							 568.26 L159.48 568.62 L158.85 568.89 L158.22 569.7 L157.32 570.6 L156.51 571.68 L156.24 572.67 L156.24
							 573.93 L156.51 575.01 L156.78 575.91 L157.23 576.54 L157.5 576.81 L157.95 576.9 L158.31 576.81 L158.67
							 576.54 L158.94 576.09 L159.3 575.37 L159.66 574.92 L160.11 574.65 L160.74 574.65 L161.46 574.74 L162.18
							 574.92 L162.81 575.28 L165.6 577.44 L166.32 577.8 L166.86 577.98 L167.31 577.98 L168.03 577.89 L168.48
							 577.89 L169.65 578.25 L170.37 578.34 L171.09 578.25 L172.44 577.8 L173.07 577.8 L173.97 577.89 L174.24
							 577.89 L174.42 577.71 L174.51 577.53 L174.51 577.08 L174.69 576.36 L175.14 575.46 L175.59 574.92 L176.13
							 574.56 L177.12 574.29 L177.66 574.02 L178.2 573.66 L179.37 573.3 L180.36 573.12 L181.08 572.85 L183.15
							 571.86 L185.49 571.23 L186.03 571.05 L186.39 570.96 L187.29 571.14 L187.74 571.14 L188.46 571.05 L189.18
							 570.69 L189.99 570.15 L192.24 567.99 L194.22 570.15 L194.4 570.51 L194.58 571.05 L194.49 571.41 L194.49
							 572.13 L194.49 572.49 L194.31 572.94 L193.68 573.84 L193.41 574.47 L193.14 575.37 L192.69 576.99 L192.78
							 578.07 L193.59 582.03 L193.5 583.56 L193.05 585 L191.97 586.44 L191.16 587.34 L190.53 587.88 L189.81
							 588.33 L189.27 588.87 L188.82 589.5 L188.37 590.58 L186.75 592.92 L186.48 593.64 L186.57 596.34 L186.75
							 598.32 L186.75 598.41 L183.51 598.23 L181.35 599.22 L174.42 600.75 L160.74 603.9 L158.31 605.88 L154.44
							 613.89 L153.09 615.15 L150.3 615.6 L148.95 616.32 L147.06 618.66 L147.24 619.47 L148.32 620.28 L148.77
							 622.8 L147.33 631.62 L146.97 636.21 L147.87 640.17 L152.1 644.31 L157.59 648.36 L157.41 648.45 L153.9
							 649.71 L150.57 650.52 L148.14 652.41 L143.37 657.9 L139.86 660.06 L135.63 660.51 L131.4 659.61 L126.18
							 657.36 L119.7 656.82 L90.27 660.24 L79.56 664.65 L74.25 665.19 L56.52 663.3 L23.58 665.46 L15.3 666
							 L3.24 662.76 L0 660.96 Z" class="st2"/>
			</g>
			<g id="shape1029-12" v:mID="1029" v:groupContext="shape" transform="translate(2058.84,-1119.78)">
				<title>Sheet.1029</title>
				<path d="M216.45 566.01 L216.63 566.73 L219.69 571.86 L220.41 573.66 L220.95 575.73 L220.95 578.43 L221.13 579.78
							 L221.85 581.04 L222.3 581.31 L222.66 581.22 L222.93 580.77 L223.47 580.23 L224.01 579.96 L225.09 579.78
							 L225.99 579.96 L226.8 580.77 L227.52 581.94 L228.42 584.1 L228.96 584.91 L229.41 585.09 L229.77 584.73
							 L230.13 584.55 L230.58 584.73 L231.03 585.63 L231.48 586.17 L231.93 586.53 L232.47 586.53 L235.35 586.08
							 L237.24 585.18 L238.05 584.91 L238.77 584.82 L239.22 585.72 L239.31 587.43 L238.41 593.91 L238.41 596.34
							 L238.23 598.14 L237.51 601.29 L237.33 604.08 L237.06 605.43 L236.61 605.97 L235.62 606.06 L234.09 606.87
							 L233.28 606.87 L232.2 606.78 L231.75 606.87 L231.57 607.41 L231.75 608.31 L236.61 614.79 L237.51 615.6
							 L238.23 616.5 L238.68 617.58 L238.86 619.47 L239.49 621.63 L239.76 622.44 L240.12 623.07 L240.57 623.52
							 L241.2 623.79 L242.82 624.15 L243.18 624.6 L242.82 625.5 L241.29 627.12 L239.76 628.38 L234.81 630.54
							 L233.01 629.1 L232.38 629.01 L231.57 629.1 L229.05 630.27 L227.34 630.45 L226.98 630.54 L213.21 630.27
							 L209.16 629.19 L207.81 629.1 L201.24 630.99 L199.53 631.98 L198.99 631.98 L198.45 631.8 L197.73 631.08
							 L197.37 630.63 L196.92 630.18 L196.38 629.91 L194.94 629.55 L194.4 629.28 L193.59 628.38 L192.51 627.48
							 L183.33 624.06 L172.44 622.71 L148.32 626.85 L143.46 632.79 L140.49 634.59 L138.96 636.57 L138.69 637.38
							 L138.51 638.82 L138.33 639.18 L138.15 639.54 L137.88 639.9 L137.07 640.53 L136.35 640.8 L130.41 641.7
							 L130.05 641.7 L129.78 641.52 L130.05 640.62 L130.23 640.35 L130.41 640.26 L130.95 640.17 L131.13 640.08
							 L131.13 639.54 L131.04 638.73 L130.86 636.93 L130.5 636.21 L130.23 635.67 L129.78 635.49 L129.51 635.22
							 L129.33 634.41 L129.06 634.05 L127.98 634.05 L104.22 637.47 L97.38 637.11 L95.76 640.89 L95.31 641.52
							 L94.59 642.24 L92.25 643.41 L91.89 643.95 L91.89 644.67 L92.7 647.37 L92.88 648.63 L92.7 649.53 L92.16
							 650.34 L91.71 650.88 L91.53 651.51 L91.71 652.5 L92.52 654.03 L94.41 655.83 L94.59 656.1 L94.68 656.82
							 L94.68 657.9 L94.14 660.42 L93.87 661.77 L91.89 665.37 L79.65 664.65 L77.22 664.11 L77.13 663.75 L76.86
							 663.21 L76.59 662.94 L76.41 662.67 L76.23 662.31 L76.05 661.86 L75.87 661.41 L75.69 661.05 L73.89 661.68
							 L67.77 666 L67.41 663.93 L66.96 663.21 L62.01 657.09 L61.11 655.56 L60.57 654.48 L60.12 652.95 L60.03
							 652.23 L60.12 651.69 L60.48 651.24 L60.48 651.06 L60.03 650.7 L59.22 650.25 L56.88 648.09 L56.34 647.91
							 L55.98 647.73 L55.44 647.37 L55.08 647.19 L54.36 646.92 L54.09 646.83 L53.64 646.56 L50.4 643.59 L49.86
							 642.78 L49.5 642.06 L49.5 640.8 L49.68 639.45 L49.77 638.91 L49.68 638.37 L49.5 637.38 L49.5 636.75
							 L49.59 636.21 L49.95 634.86 L50.04 634.05 L49.95 632.88 L49.14 629.55 L49.05 628.74 L49.32 628.29 L49.68
							 627.66 L49.86 627.21 L50.04 626.76 L50.13 626.4 L50.22 626.13 L50.4 625.86 L50.67 625.68 L51.03 625.41
							 L51.39 625.05 L51.66 624.6 L52.38 623.97 L49.5 620.19 L48.96 619.83 L48.15 619.38 L45.36 619.11 L39.42
							 617.49 L34.74 618.93 L33.39 618.84 L33.12 618.48 L32.22 616.68 L31.86 616.32 L31.5 616.32 L29.61 618.39
							 L29.43 618.75 L29.34 619.11 L29.25 619.47 L28.8 620.19 L27.81 621.18 L23.94 623.43 L22.86 623.61 L22.32
							 623.52 L20.34 622.89 L17.73 622.35 L16.47 621.45 L15.66 619.65 L19.89 617.22 L20.52 616.68 L21.33 615.87
							 L22.68 613.44 L23.49 612.63 L24.39 612.09 L28.71 610.92 L30.06 609.75 L31.68 607.77 L33.66 605.07 L34.38
							 603.63 L34.65 602.37 L34.2 599.49 L34.29 599.04 L34.38 598.59 L34.65 597.96 L34.74 597.6 L34.65 597.24
							 L34.56 596.97 L34.56 596.7 L34.65 596.25 L34.83 595.44 L34.92 594.99 L34.83 594.63 L34.65 594.36 L34.38
							 594.09 L34.2 593.91 L33.66 593.64 L33.39 593.46 L33.21 593.19 L32.85 592.2 L32.58 591.84 L32.31 591.48
							 L31.95 591.12 L31.68 590.94 L29.61 590.31 L29.07 590.31 L28.8 590.22 L28.62 589.86 L29.16 589.05 L33.03
							 585 L31.23 582.21 L31.14 581.76 L30.96 580.86 L31.05 580.05 L30.96 578.43 L30.6 577.35 L29.43 575.73
							 L28.71 575.01 L26.01 573.39 L25.2 573.12 L24.66 572.94 L24.03 572.49 L22.32 570.87 L21.87 570.51 L21.51
							 570.42 L20.97 570.42 L20.79 570.42 L17.28 568.08 L16.56 567.27 L15.75 566.19 L13.95 562.95 L13.68 562.41
							 L13.77 562.23 L13.68 561.87 L13.5 561.42 L12.78 559.98 L12.69 559.62 L12.69 559.35 L12.96 558.81 L12.96
							 558.45 L12.78 557.91 L12.42 557.1 L3.6 542.34 L3.42 541.98 L3.33 541.53 L3.33 541.08 L3.24 539.37 L0.72
							 538.56 L0 537.57 L3.42 534.87 L3.42 533.43 L3.69 527.13 L3.78 524.43 L5.58 524.88 L7.92 525.33 L11.16
							 523.26 L12.6 521.46 L17.28 515.7 L21.24 513.63 L21.33 513.54 L23.22 510.21 L24.03 508.59 L24.3 505.89
							 L25.02 504.09 L25.38 503.91 L27.99 502.2 L34.38 503.19 L38.43 501.03 L39.42 500.76 L40.41 501.03 L45.09
							 503.37 L49.32 504.63 L53.28 504.45 L59.22 498.96 L61.92 497.97 L67.77 497.79 L81.99 499.14 L86.13 501.66
							 L84.87 505.35 L85.05 508.5 L85.77 511.56 L86.13 514.8 L85.5 522.09 L86.31 524.52 L89.1 525.06 L92.79
							 524.79 L98.28 521.55 L101.43 520.83 L102.78 521.28 L105.66 523.35 L107.01 524.07 L108.45 524.16 L112.05
							 523.44 L116.55 521.64 L117.54 519.93 L117.9 517.14 L118.98 512.82 L119.34 512.73 L121.14 512.73 L121.77
							 512.19 L122.13 510.75 L121.86 509.67 L121.32 509.04 L121.14 508.77 L123.39 501.57 L125.37 498.51 L127.44
							 496.44 L129.78 495.27 L132.57 494.73 L136.98 494.73 L138.51 494.55 L140.49 493.74 L141.57 492.75 L154.08
							 478.98 L154.62 477.9 L155.43 477.54 L156.24 477.81 L157.41 478.35 L159.84 482.67 L160.92 483.75 L164.34
							 486 L166.05 490.5 L168.66 501.66 L171 508.68 L171.72 510.3 L174.15 512.19 L177.21 513 L182.97 513 L182.25
							 514.44 L182.07 515.61 L182.16 519.12 L181.8 521.73 L190.08 524.61 L193.23 524.88 L196.11 524.61 L200.97
							 522.72 L202.23 523.62 L202.23 523.71 L203.58 527.85 L204.3 531.54 L205.2 542.16 L204.93 543.06 L203.85
							 544.77 L203.76 545.67 L204.3 546.39 L206.19 547.83 L206.19 547.92 L206.46 548.37 L206.46 548.46 L207.63
							 549.63 L207.9 550.62 L207.54 551.88 L206.73 552.33 L205.83 552.6 L205.2 553.14 L199.71 562.05 L199.17
							 564.93 L201.06 567.54 L204.66 568.8 L211.23 569.34 L214.47 568.17 L216.45 566.01 Z" class="st2"/>
			</g>
			<g id="shape1030-14" v:mID="1030" v:groupContext="shape" transform="translate(1840.95,-960.03)">
				<title>Sheet.1030</title>
				<path d="M14.94 549.54 L15.48 549.54 L24.12 546.84 L30.69 546.57 L31.14 546.48 L31.23 546.12 L31.05 545.58 L30.6
							 544.5 L31.5 544.5 L33.39 545.04 L39.69 548.01 L41.13 548.46 L41.94 548.28 L47.88 545.67 L49.86 544.5
							 L52.47 543.78 L54.18 543.69 L55.35 543.33 L55.98 542.7 L56.52 541.35 L57.06 540.72 L57.69 540.27 L59.04
							 539.64 L60.12 538.92 L60.39 538.65 L60.66 538.2 L60.93 537.3 L61.2 536.85 L61.56 536.4 L62.19 535.77
							 L63.09 535.14 L63.36 535.05 L63.63 534.96 L63.9 534.87 L63.99 534.69 L64.17 534.33 L68.22 527.76 L69.48
							 526.14 L70.38 525.42 L71.1 525.6 L71.46 525.87 L71.82 526.14 L72.09 526.41 L73.53 526.86 L74.07 527.13
							 L74.61 527.49 L75.15 528.21 L75.78 529.02 L76.32 530.01 L76.68 531.63 L76.68 533.61 L75.87 536.13 L75.15
							 537.66 L72.54 541.08 L72.09 541.53 L71.73 541.71 L71.19 541.8 L70.74 541.71 L70.2 541.8 L69.93 542.16
							 L68.94 544.86 L68.67 545.31 L68.4 545.58 L66.78 546.39 L66.78 547.74 L66.06 549.45 L73.89 557.28 L72.54
							 558.18 L72 558.72 L71.28 559.71 L69.12 563.13 L67.86 565.65 L68.31 568.08 L70.2 568.8 L72.18 568.8 L72.45
							 568.8 L72.81 568.98 L73.08 569.25 L73.53 569.7 L74.52 570.51 L75.33 571.32 L75.78 571.59 L76.41 571.68
							 L78.93 571.77 L79.38 572.04 L79.47 572.49 L79.11 573.39 L78.84 573.75 L78.75 574.2 L79.02 574.65 L80.37
							 575.82 L80.91 576.36 L81.9 577.89 L82.98 579.06 L83.61 580.05 L86.04 584.91 L86.58 585.63 L87.03 586.08
							 L87.84 586.08 L88.47 586.35 L88.92 586.8 L89.73 587.7 L90.18 588.42 L90.54 589.23 L90.9 589.59 L90.9
							 590.49 L90.54 591.66 L89.37 594.54 L88.29 596.34 L88.2 596.88 L88.2 597.33 L89.01 599.76 L96.84 606.06
							 L92.88 610.83 L92.16 612.18 L91.98 613.26 L92.34 615.24 L92.61 615.87 L92.97 616.23 L93.6 616.41 L96.57
							 617.76 L96.93 618.48 L96.84 619.47 L96.57 621.81 L96.93 622.62 L97.2 622.98 L97.83 622.8 L98.1 622.8
							 L98.28 622.89 L98.55 623.43 L98.73 623.7 L98.73 624.42 L98.55 625.41 L97.65 627.75 L97.11 628.65 L96.66
							 629.19 L95.85 628.92 L94.23 629.37 L89.73 632.97 L85.86 634.68 L85.23 634.68 L84.6 634.41 L83.52 633.6
							 L82.8 633.24 L80.91 633.06 L80.46 632.88 L80.28 632.7 L80.28 632.34 L80.46 631.89 L81.09 630.72 L80.82
							 629.91 L80.64 629.55 L80.64 629.19 L80.46 628.92 L80.19 628.83 L79.74 629.01 L78.84 629.55 L78.3 629.82
							 L77.76 630.09 L77.4 630.72 L77.04 632.88 L77.13 633.42 L77.22 633.87 L77.4 634.23 L78.12 635.04 L78.39
							 635.4 L78.57 635.76 L78.66 636.03 L78.48 636.39 L78.03 636.93 L77.13 637.29 L76.59 637.38 L75.96 637.65
							 L75.42 638.19 L74.34 639.18 L72.9 640.17 L72.27 640.35 L70.65 640.35 L67.32 639.54 L66.78 639.54 L66.51
							 639.72 L66.42 640.08 L67.23 641.43 L67.32 641.88 L67.23 642.42 L67.05 643.32 L67.05 643.86 L67.05 644.22
							 L67.23 644.49 L68.4 645.39 L69.12 646.2 L69.48 646.38 L69.75 646.47 L72.09 646.29 L72.27 646.29 L72.54
							 646.47 L72.72 646.65 L72.99 647.1 L72.9 647.28 L72.27 647.91 L70.74 648.9 L68.58 650.7 L67.59 651.15
							 L66.87 651.24 L66.51 650.97 L66.15 651.15 L65.88 651.51 L65.88 652.86 L66.06 653.67 L66.33 654.57 L66.15
							 655.02 L65.7 655.47 L64.17 656.37 L63.45 656.91 L60.75 660.15 L60.03 665.55 L60.03 665.64 L54 663.93
							 L48.87 662.85 L43.65 666 L40.23 663.03 L35.64 661.32 L32.31 659.52 L33.12 656.01 L31.32 654.57 L30.78
							 654.21 L31.59 650.16 L32.4 648 L33.84 646.2 L31.95 644.22 L31.23 642.96 L29.16 639 L27.63 638.01 L25.29
							 637.65 L23.31 636.48 L19.71 632.52 L18.72 629.1 L18.63 624.51 L18 620.55 L15.75 612.81 L15.66 611.82
							 L15.84 609.3 L15.75 608.4 L15.21 607.68 L14.31 607.32 L12.69 605.88 L11.43 605.25 L10.35 604.53 L9.81
							 603.27 L9.63 602.28 L9.18 601.11 L8.73 600.03 L8.37 599.49 L7.74 599.13 L8.01 597.96 L8.55 596.7 L8.91
							 595.8 L8.19 594.09 L6.75 592.38 L5.22 591.21 L4.41 590.67 L1.53 590.4 L0.36 589.68 L0 588.42 L0.09 585.99
							 L0.27 585.09 L0.63 584.37 L0.99 583.02 L2.34 571.5 L2.88 568.35 L4.32 565.47 L8.1 560.07 L8.91 557.19
							 L9.9 555.12 L12.33 553.23 L14.67 550.71 L14.94 549.54 Z" class="st2"/>
			</g>
			<g id="shape1031-16" v:mID="1031" v:groupContext="shape" transform="translate(2320.2,-1030.77)">
				<title>Sheet.1031</title>
				<path d="M13.23 548.91 L15.3 546.93 L17.01 542.61 L18 541.17 L18.81 540.36 L23.04 537.66 L20.97 534.96 L19.08 534.33
							 L17.46 534.06 L17.01 533.61 L17.1 533.16 L18.81 531.54 L20.61 529.02 L21.33 528.3 L23.22 527.04 L29.52
							 524.25 L30.51 523.35 L30.87 523.08 L31.23 523.08 L31.59 523.26 L32.04 523.17 L32.76 522.81 L34.92 520.65
							 L35.55 520.38 L35.91 520.47 L36.27 520.83 L36.36 521.1 L37.44 521.37 L40.68 523.53 L42.93 526.77 L43.47
							 527.4 L43.74 527.58 L43.65 527.31 L43.47 527.13 L43.29 526.95 L43.02 526.59 L42.75 526.05 L42.48 524.88
							 L42.48 524.43 L42.57 524.07 L42.93 523.89 L46.35 522.72 L46.8 522.45 L46.8 522.09 L46.08 520.74 L46.26
							 520.02 L46.62 519.3 L47.79 518.13 L48.42 517.95 L49.14 518.22 L49.32 518.76 L48.96 520.38 L49.23 521.01
							 L50.04 521.73 L53.82 524.61 L57.24 526.68 L60.3 527.04 L61.47 527.31 L62.19 527.67 L62.46 528.21 L64.26
							 531.18 L65.07 531.54 L66.78 531.63 L68.58 531.45 L70.02 530.73 L70.65 530.37 L71.01 530.1 L71.82 529.29
							 L71.91 529.02 L71.82 528.75 L71.37 527.94 L71.28 527.58 L71.37 527.22 L71.46 526.95 L72.09 526.59 L72.99
							 526.32 L75.6 526.23 L84.6 527.67 L85.14 527.49 L85.41 527.31 L85.41 527.13 L85.14 526.86 L84.42 526.32
							 L84.15 526.14 L84.06 525.87 L84.06 525.42 L84.06 524.88 L84.24 524.07 L84.33 523.44 L84.33 522.9 L83.97
							 522.09 L83.79 521.73 L83.97 521.1 L84.42 521.01 L86.04 521.37 L89.37 522.9 L91.62 523.44 L92.43 523.89
							 L92.52 524.34 L91.98 524.97 L91.98 525.51 L92.43 526.05 L94.05 526.86 L95.04 527.04 L95.67 527.13 L100.26
							 526.14 L103.14 528.66 L106.11 529.11 L110.16 531.81 L110.79 531.9 L110.97 531.63 L111.06 531.36 L111.6
							 531.09 L112.41 530.82 L114.39 530.46 L115.2 530.55 L115.74 530.91 L116.1 532.08 L116.19 532.62 L116.19
							 533.07 L116.19 533.7 L116.46 534.69 L117.09 535.68 L119.52 538.02 L119.88 538.56 L119.97 538.92 L120.06
							 539.46 L120.33 540.18 L121.23 541.44 L121.77 541.98 L122.31 542.16 L122.85 542.07 L123.3 541.89 L125.28
							 541.71 L130.77 543.51 L133.47 543.87 L134.19 543.87 L136.8 542.97 L137.52 543.06 L138.06 543.24 L138.51
							 543.6 L139.23 543.96 L139.68 544.41 L140.13 544.77 L140.4 545.22 L140.85 545.85 L141.57 546.66 L142.83
							 547.83 L143.64 548.19 L146.61 547.65 L148.68 548.37 L150.03 548.46 L151.11 548.91 L152.01 549.63 L152.73
							 549.9 L153.54 549.81 L154.44 549.45 L154.89 549.54 L155.07 549.81 L155.16 550.17 L155.34 550.89 L155.34
							 551.25 L155.16 551.61 L154.26 552.42 L153.99 552.78 L153.72 553.23 L152.91 554.31 L152.64 554.76 L152.46
							 555.21 L152.55 555.66 L152.55 556.2 L154.17 558.72 L156.78 561.15 L158.31 561.96 L160.11 562.14 L162
							 561.87 L162.36 561.78 L162.54 561.51 L162.54 561.33 L162.27 561.15 L161.55 560.52 L161.37 560.25 L161.28
							 559.8 L161.19 559.35 L161.28 558.81 L161.55 558.45 L161.91 558 L162.45 557.82 L163.17 557.73 L165.24
							 557.73 L165.87 557.55 L167.58 556.92 L169.92 556.65 L170.37 556.56 L170.91 556.29 L171.36 555.75 L171.81
							 554.85 L172.26 553.23 L172.62 550.44 L172.53 549.72 L172.35 549.27 L171.9 548.37 L172.08 547.92 L172.62
							 547.56 L173.88 547.11 L174.6 547.11 L175.14 547.29 L176.13 548.19 L176.76 548.82 L177.12 548.91 L177.39
							 548.46 L177.57 547.65 L177.75 545.94 L178.02 545.58 L178.29 545.58 L178.47 546.12 L178.47 546.66 L178.92
							 547.38 L179.55 548.1 L181.35 549.09 L182.43 549.27 L183.6 548.91 L184.32 548.46 L184.68 548.1 L186.66
							 547.11 L188.37 551.34 L188.55 552.33 L188.73 554.58 L189.18 555.93 L189.99 557.55 L190.62 558.63 L194.85
							 566.19 L203.85 569.7 L207.54 570.42 L210.06 570.24 L211.23 570.42 L212.22 570.87 L214.92 572.85 L216.54
							 573.39 L217.89 573.48 L219.06 573.3 L219.87 573.03 L220.41 572.67 L220.77 572.4 L221.04 572.04 L221.22
							 571.32 L221.31 570.96 L222.3 570.51 L225.63 569.88 L227.97 567.81 L230.67 566.91 L231.48 566.37 L232.02
							 565.74 L232.47 564.57 L232.74 563.58 L232.74 562.77 L232.47 561.96 L231.66 559.98 L231.48 559.35 L231.39
							 558.81 L231.48 557.46 L231.39 557.01 L230.85 554.76 L230.76 553.86 L230.76 550.98 L230.67 550.35 L230.49
							 549.99 L230.4 549.54 L230.58 544.05 L235.98 544.14 L249.84 548.73 L251.82 549.63 L252.63 550.17 L252.99
							 550.53 L252.9 550.8 L253.8 551.61 L260.37 555.57 L263.34 556.38 L266.04 556.47 L270.36 555.75 L278.64
							 555.57 L279.18 555.39 L279.45 555.21 L279.63 554.58 L279.54 553.5 L279.18 551.43 L278.55 549.45 L278.46
							 548.91 L278.46 548.37 L278.46 547.92 L279 547.38 L279.36 546.93 L282.42 545.67 L287.82 538.29 L291.69
							 538.2 L294.21 539.64 L294.66 540.54 L294.84 541.35 L294.84 542.16 L295.11 543.24 L297.27 548.46 L297.36
							 549.9 L297.54 550.98 L298.08 551.52 L298.8 551.79 L303.57 551.52 L307.26 550.44 L307.98 550.35 L314.55
							 552.06 L314.64 552.06 L314.37 552.51 L313.38 555.12 L313.29 556.83 L313.56 558.63 L313.92 566.01 L313.56
							 567.54 L312.57 569.97 L312.03 570.87 L311.94 570.87 L311.76 570.96 L311.67 571.05 L311.58 571.23 L311.31
							 571.68 L311.22 571.86 L309.96 572.85 L308.88 574.29 L308.43 577.26 L308.61 581.94 L307.71 586.53 L305.91
							 590.58 L305.1 591.75 L304.92 591.75 L304.83 591.75 L304.83 592.11 L304.47 592.56 L304.29 592.65 L304.11
							 592.74 L303.84 593.01 L303.48 593.19 L303.12 593.28 L303.03 593.46 L302.85 593.55 L302.85 593.73 L302.94
							 593.91 L302.49 594.36 L302.4 594.45 L301.86 594.81 L298.08 595.98 L296.28 597.24 L295.2 598.77 L293.76
							 602.19 L292.86 603.72 L292.77 603.72 L292.32 603.72 L291.51 604.44 L291.33 604.53 L290.88 605.43 L289.71
							 606.33 L289.62 606.33 L289.44 606.42 L289.35 606.33 L289.17 606.33 L289.08 606.24 L288.9 606.24 L288.81
							 606.15 L288.72 606.15 L288.54 606.15 L288.54 606.24 L288.45 606.24 L288.45 606.33 L288.45 606.42 L288.45
							 606.51 L288.45 606.6 L288.54 606.6 L288.54 606.69 L288.54 606.78 L288.54 606.96 L288.54 607.05 L288.45
							 607.05 L288.45 607.14 L288.45 607.23 L288.45 607.32 L288.36 607.32 L288.36 607.41 L287.82 607.86 L287.73
							 607.86 L287.73 607.95 L283.41 611.37 L281.34 614.97 L280.98 619.38 L282.69 628.11 L282.15 631.53 L280.62
							 635.04 L280.44 650.7 L277.74 654.12 L275.22 656.19 L272.52 656.91 L263.97 656.1 L261.36 656.28 L258.75
							 657.18 L251.19 657.54 L249.12 658.35 L244.71 660.87 L238.59 661.86 L231.12 665.64 L226.71 666 L222.21
							 664.47 L218.43 661.68 L215.01 657.72 L207 645.3 L205.83 642.96 L203.94 634.05 L202.68 631.53 L200.25
							 630.99 L194.94 631.08 L192.69 630 L191.7 628.47 L190.44 624.33 L189.45 622.44 L188.19 621.27 L185.58
							 620.28 L180.81 617.4 L178.74 616.77 L171.27 619.11 L166.32 619.2 L163.98 619.74 L161.1 621.36 L159.93
							 623.43 L159.12 625.68 L157.41 628.11 L155.34 629.37 L153.72 628.65 L151.92 627.12 L149.31 625.95 L144.54
							 627.03 L133.38 632.43 L129.78 631.53 L126.9 628.65 L122.85 626.85 L118.62 626.13 L115.02 626.4 L109.89
							 625.95 L102.06 621.09 L97.56 620.64 L95.49 620.1 L91.26 616.23 L89.01 615.06 L86.67 615.06 L56.25 622.08
							 L47.34 622.71 L43.2 624.42 L43.11 626.04 L43.02 627.84 L43.29 631.62 L43.38 632.34 L43.38 633.15 L43.38
							 633.87 L43.2 634.68 L41.31 637.56 L40.95 637.92 L40.86 637.83 L38.52 636.03 L35.37 636.12 L34.29 636.48
							 L31.77 637.83 L30.6 637.92 L28.35 637.65 L22.32 638.1 L21.69 638.01 L21.6 637.83 L21.69 637.47 L21.87
							 637.11 L22.14 636.66 L22.32 636.3 L21.96 635.94 L19.44 634.32 L18.72 633.69 L18.36 632.97 L18.45 632.43
							 L18.54 631.89 L18.54 631.26 L18.36 630.63 L17.91 629.64 L17.73 628.83 L17.64 628.02 L17.91 626.58 L18.27
							 625.59 L18.81 624.51 L19.62 623.25 L19.98 622.35 L21.06 617.22 L21.42 616.05 L21.78 615.24 L22.14 614.52
							 L22.5 613.98 L22.77 613.44 L23.04 612.81 L23.58 609.93 L23.94 608.49 L23.94 608.13 L23.58 607.86 L22.32
							 607.41 L21.15 606.69 L20.61 606.6 L19.08 606.33 L18.09 606.06 L16.74 605.34 L16.2 604.89 L16.02 604.44
							 L15.93 603.99 L16.02 603.54 L16.2 603.09 L16.29 602.73 L15.3 598.68 L12.33 589.95 L11.52 588.42 L4.14
							 582.3 L3.87 582.03 L2.25 581.76 L1.08 580.59 L0.54 579.33 L0 576.72 L0 575.46 L0.09 574.47 L0.45 573.93
							 L0.9 573.3 L1.62 572.58 L2.34 571.68 L2.97 570.78 L2.88 569.61 L2.43 567.45 L2.52 565.74 L2.61 563.67
							 L2.7 563.13 L2.7 562.41 L2.61 561.33 L3.24 560.07 L9.99 549.9 L13.23 548.91 Z" class="st2"/>
			</g>
			<g id="shape1032-18" v:mID="1032" v:groupContext="shape" transform="translate(2077.11,-971.91)">
				<title>Sheet.1032</title>
				<path d="M49.5 518.13 L55.62 513.81 L57.42 513.18 L57.6 513.54 L57.78 513.99 L57.96 514.44 L58.14 514.8 L58.32 515.07
							 L58.59 515.34 L58.86 515.88 L58.95 516.24 L61.38 516.78 L73.62 517.5 L75.6 513.9 L75.87 512.55 L76.41
							 510.03 L76.41 508.95 L76.32 508.23 L76.14 507.96 L74.25 506.16 L73.44 504.63 L73.26 503.64 L73.44 503.01
							 L73.89 502.47 L74.43 501.66 L74.61 500.76 L74.43 499.5 L73.62 496.8 L73.62 496.08 L73.98 495.54 L76.32
							 494.37 L77.04 493.65 L77.49 493.02 L79.11 489.24 L85.95 489.6 L109.71 486.18 L110.79 486.18 L111.06
							 486.54 L111.24 487.35 L111.51 487.62 L111.96 487.8 L112.23 488.34 L112.59 489.06 L112.77 490.86 L112.86
							 491.67 L112.86 492.21 L112.68 492.3 L112.14 492.39 L111.96 492.48 L111.78 492.75 L111.51 493.65 L111.78
							 493.83 L112.14 493.83 L118.08 492.93 L118.8 492.66 L119.61 492.03 L119.88 491.67 L120.06 491.31 L120.24
							 490.95 L120.42 489.51 L120.69 488.7 L122.22 486.72 L125.19 484.92 L130.05 478.98 L154.17 474.84 L165.06
							 476.19 L174.24 479.61 L175.32 480.51 L176.13 481.41 L176.67 481.68 L178.11 482.04 L178.65 482.31 L179.1
							 482.76 L179.46 483.21 L180.18 483.93 L180.72 484.11 L181.26 484.11 L182.97 483.12 L189.54 481.23 L190.89
							 481.32 L194.94 482.4 L208.71 482.67 L209.07 482.58 L210.78 482.4 L213.3 481.23 L214.11 481.14 L214.74
							 481.23 L216.54 482.67 L237.24 485.28 L240.03 485.1 L242.19 483.12 L243.18 483.03 L245.79 484.47 L248.58
							 485.37 L249.39 485.73 L250.47 486.63 L256.32 490.05 L253.08 491.04 L246.33 501.21 L245.7 502.47 L245.79
							 503.55 L245.79 504.27 L245.7 504.81 L245.61 506.88 L245.52 508.59 L245.97 510.75 L246.06 511.92 L245.43
							 512.82 L244.71 513.72 L243.99 514.44 L243.54 515.07 L243.18 515.61 L243.09 516.6 L243.09 517.86 L243.63
							 520.47 L244.17 521.73 L245.34 522.9 L246.96 523.17 L247.23 523.44 L254.61 529.56 L255.42 531.09 L258.39
							 539.82 L259.38 543.87 L259.29 544.23 L259.11 544.68 L259.02 545.13 L259.11 545.58 L259.29 546.03 L259.83
							 546.48 L261.18 547.2 L262.17 547.47 L263.7 547.74 L264.24 547.83 L265.41 548.55 L266.67 549 L267.03
							 549.27 L267.03 549.63 L266.67 551.07 L266.13 553.95 L265.86 554.58 L265.59 555.12 L265.23 555.66 L264.87
							 556.38 L264.51 557.19 L264.15 558.36 L263.07 563.49 L262.71 564.39 L261.9 565.65 L261.36 566.73 L261
							 567.72 L260.73 569.16 L260.82 569.97 L261 570.78 L261.45 571.77 L261.63 572.4 L261.63 573.03 L261.54
							 573.57 L261.45 574.11 L261.81 574.83 L262.53 575.46 L265.05 577.08 L265.41 577.44 L265.23 577.8 L264.96
							 578.25 L264.78 578.61 L264.69 578.97 L264.78 579.15 L265.41 579.24 L271.44 578.79 L273.69 579.06 L274.86
							 578.97 L277.38 577.62 L278.46 577.26 L281.61 577.17 L283.95 578.97 L284.04 579.06 L279.72 583.65 L277.56
							 586.53 L275.85 589.86 L270.27 607.05 L267.3 613.26 L263.7 618.75 L259.56 622.98 L256.23 624.69 L254.52
							 623.97 L252.9 622.17 L250.02 620.73 L248.4 621.45 L244.08 625.5 L241.65 626.58 L239.13 626.31 L237.69
							 625.77 L236.43 625.95 L234.63 628.11 L234.09 629.64 L233.28 633.51 L232.29 635.4 L231.03 636.39 L228.33
							 637.47 L222.66 640.98 L222.12 641.25 L216.72 642.96 L213.39 645.03 L206.91 651.06 L203.49 652.32 L200.52
							 651.15 L195.03 646.2 L191.52 645.12 L186.3 647.1 L184.95 646.92 L183.6 644.85 L183.96 643.05 L184.77
							 641.16 L184.68 639.09 L182.16 635.94 L178.74 635.4 L172.17 636.66 L170.73 635.94 L167.58 632.07 L165.96
							 630.72 L164.52 630.27 L162.99 630.18 L149.76 633.78 L147.33 635.22 L145.71 638.28 L144.36 646.65 L142.65
							 650.07 L142.65 650.16 L142.56 650.25 L142.65 650.43 L142.65 650.52 L142.92 651.69 L143.01 652.86 L142.92
							 654.03 L142.65 655.11 L135 660.6 L115.56 660.24 L107.01 665.73 L105.48 666 L87.66 663.84 L79.02 665.1
							 L76.23 665.01 L76.23 664.92 L76.05 662.94 L75.96 660.24 L76.23 659.52 L77.85 657.18 L78.3 656.1 L78.75
							 655.47 L79.29 654.93 L80.01 654.48 L80.64 653.94 L81.45 653.04 L82.53 651.6 L82.98 650.16 L83.07 648.63
							 L82.26 644.67 L82.17 643.59 L82.62 641.97 L82.89 641.07 L83.16 640.44 L83.79 639.54 L83.97 639.09 L83.97
							 638.73 L83.97 638.01 L84.06 637.65 L83.88 637.11 L83.7 636.75 L81.72 634.59 L79.47 636.75 L78.66 637.29
							 L77.94 637.65 L77.22 637.74 L76.77 637.74 L75.87 637.56 L75.51 637.65 L74.97 637.83 L72.63 638.46 L70.56
							 639.45 L69.84 639.72 L68.85 639.9 L67.68 640.26 L67.14 640.62 L66.6 640.89 L65.61 641.16 L65.07 641.52
							 L64.62 642.06 L64.17 642.96 L63.99 643.68 L63.99 644.13 L63.9 644.31 L63.72 644.49 L63.45 644.49 L62.55
							 644.4 L61.92 644.4 L60.57 644.85 L59.85 644.94 L59.13 644.85 L57.96 644.49 L57.51 644.49 L56.79 644.58
							 L56.34 644.58 L55.8 644.4 L55.08 644.04 L52.29 641.88 L51.66 641.52 L50.94 641.34 L50.22 641.25 L49.59
							 641.25 L49.14 641.52 L48.78 641.97 L48.42 642.69 L48.15 643.14 L47.79 643.41 L47.43 643.5 L46.98 643.41
							 L46.71 643.14 L46.26 642.51 L45.99 641.61 L45.72 640.53 L45.72 639.27 L45.99 638.28 L46.8 637.2 L47.7
							 636.3 L48.33 635.49 L48.96 635.22 L49.14 634.86 L49.14 634.14 L48.6 632.79 L47.43 630.63 L47.16 629.82
							 L47.25 629.28 L47.79 628.83 L47.97 628.47 L47.97 628.2 L46.71 626.76 L46.8 626.04 L47.25 624.96 L48.96
							 622.8 L50.67 621 L51.12 620.01 L51.39 619.2 L52.65 613.08 L46.98 600.12 L46.08 599.04 L42.39 595.89
							 L38.25 589.77 L36.54 589.32 L35.91 589.59 L35.1 590.13 L33.75 591.75 L31.68 593.82 L31.23 594.36 L30.78
							 595.26 L29.88 596.16 L29.7 596.61 L29.7 597.15 L29.52 597.6 L29.25 598.14 L28.62 598.77 L28.44 599.49
							 L28.44 600.21 L28.26 600.66 L27.9 601.29 L23.31 602.73 L14.31 604.17 L12.51 604.8 L11.34 606.06 L10.35
							 607.59 L10.08 607.95 L9.09 608.85 L8.64 609.3 L8.19 610.2 L7.56 610.2 L6.12 607.77 L6.84 606.78 L8.01
							 605.52 L8.37 605.07 L8.64 604.53 L8.82 603.9 L8.91 603.45 L9.18 603 L10.17 602.19 L10.62 601.65 L11.16
							 600.75 L11.61 599.67 L11.88 598.41 L12.06 596.97 L11.88 595.26 L11.25 592.38 L10.17 590.31 L9.45 589.41
							 L8.73 589.23 L8.37 589.14 L8.01 588.87 L7.92 588.15 L8.1 586.89 L8.1 585.63 L7.74 584.37 L6.48 582.21
							 L6.03 581.04 L6.21 579.6 L6.57 578.97 L7.74 577.35 L7.92 576.99 L7.83 576.72 L7.02 576.54 L6.75 576.27
							 L6.75 575.64 L6.93 574.29 L7.11 573.3 L7.11 572.22 L6.84 571.23 L6.3 570.6 L5.13 570.24 L3.87 570.24
							 L0.36 570.96 L0 570.69 L0.18 569.88 L1.08 568.17 L3.24 565.65 L3.51 565.11 L3.24 564.39 L2.25 563.76
							 L0.18 560.52 L1.8 557.01 L15.84 555.21 L15.93 554.76 L16.02 554.4 L16.47 552.96 L16.56 552.6 L16.56
							 552.24 L16.56 551.97 L16.56 551.61 L16.65 551.16 L16.83 550.53 L17.19 549.9 L17.91 548.91 L19.98 546.39
							 L23.85 540.81 L31.68 542.97 L32.49 542.97 L33.48 542.7 L33.48 541.8 L33.21 539.91 L33.39 539.46 L33.93
							 538.92 L36 537.12 L36.54 536.4 L39.96 529.92 L40.59 529.02 L41.4 528.57 L43.56 528.48 L44.19 528.3 L44.73
							 527.94 L46.71 524.88 L48.42 521.28 L48.96 520.56 L49.23 520.02 L49.41 519.57 L49.5 518.13 Z"
						class="st2"/>
			</g>
			<g id="shape1033-20" v:mID="1033" v:groupContext="shape" transform="translate(1864.26,-975.361)">
				<title>Sheet.1033</title>
				<ellipse cx="15.75" cy="650.25" rx="15.75" ry="15.75" class="st3"/>
			</g>
			<g id="shape1034-22" v:mID="1034" v:groupContext="shape" transform="translate(2465.12,-1103.34)">
				<title>Sheet.1034</title>
				<ellipse cx="10.35" cy="655.65" rx="10.35" ry="10.35" class="st3"/>
			</g>
		</g>
		<g id="shape1005-24" v:mID="1005" v:groupContext="shape" transform="translate(-4.5,-139.5)">
			<title>Sheet.1005</title>
			<desc>Bratislava</desc>
			<v:textBlock v:margins="rect(4,4,4,4)"/>
			<v:textRect cx="112.5" cy="641.25" width="225" height="49.5"/>
			<rect x="0" y="616.5" width="225" height="49.5" class="st4"/>
			<text x="38.58" y="652.05" class="st5" v:langID="1029"><v:paragraph v:horizAlign="1"/><v:tabList/>Bratislava</text>		</g>
		<g id="shape1006-27" v:mID="1006" v:groupContext="shape" transform="translate(823.5,-184.5)">
			<title>Sheet.1006</title>
			<desc>Kosice</desc>
			<v:textBlock v:margins="rect(4,4,4,4)"/>
			<v:textRect cx="112.5" cy="641.25" width="225" height="49.5"/>
			<rect x="0" y="616.5" width="225" height="49.5" class="st4"/>
			<text x="64.78" y="652.05" class="st5" v:langID="1029"><v:paragraph v:horizAlign="1"/><v:tabList/>Kosice</text>		</g>
		<g id="shape1014-30" v:mID="1014" v:groupContext="shape" v:layerMember="0" transform="translate(184.5,-175.5)">
			<title>Dynamic connector.54</title>
			<path d="M0 666 L54 616.5" class="st6"/>
		</g>
		<g id="shape1018-33" v:mID="1018" v:groupContext="shape" v:layerMember="0" transform="translate(882,-227.25)">
			<title>Dynamic connector.58</title>
			<path d="M0 666 L-45 544.5" class="st6"/>
		</g>
	</g>
</svg>
