<?xml version="1.0" encoding="UTF-8" standalone="no"?>
<!DOCTYPE svg PUBLIC "-//W3C//DTD SVG 1.1//EN" "http://www.w3.org/Graphics/SVG/1.1/DTD/svg11.dtd">
<!-- Generated by Microsoft Visio, SVG Export F7_desc_bpmn_time_table.svg Page-19 -->
<svg xmlns="http://www.w3.org/2000/svg" xmlns:xlink="http://www.w3.org/1999/xlink" xmlns:ev="http://www.w3.org/2001/xml-events"
		xmlns:v="http://schemas.microsoft.com/visio/2003/SVGExtensions/" width="6.0625in" height="1.75in" viewBox="0 0 436.5 126"
		xml:space="preserve" color-interpolation-filters="sRGB" class="st13">
	<v:documentProperties v:langID="1033" v:viewMarkup="false">
		<v:custProps>
			<v:cp v:nameU="BpmnElementType" v:lbl="BPMN Element Type" v:prompt="" v:type="1"
					v:format="Sub-Process;Event;Gateway;Process Diagram;Pool;Lane;Artifact;Connecting Object" v:sortKey=""
					v:invis="true" v:ask="false" v:langID="1033" v:cal="0" v:val="VT4(Process Diagram)"/>
			<v:cp v:nameU="BpmnId" v:lbl="Id" v:prompt="" v:type="0" v:format="" v:sortKey="" v:invis="true" v:ask="false"
					v:langID="1033" v:cal="0" v:val="VT0(0):26"/>
			<v:cp v:nameU="BpmnName" v:lbl="Name" v:prompt="" v:type="0" v:format="" v:sortKey="" v:invis="true" v:ask="false"
					v:langID="1033" v:cal="0" v:val="VT4()"/>
			<v:cp v:nameU="BpmnVersion" v:lbl="Version" v:prompt="" v:type="0" v:format="" v:sortKey="" v:invis="false"
					v:ask="false" v:langID="1033" v:cal="0" v:val="VT4()"/>
			<v:cp v:nameU="BpmnAuthor" v:lbl="Author" v:prompt="" v:type="0" v:format="" v:sortKey="" v:invis="false" v:ask="false"
					v:langID="1033" v:cal="0" v:val="VT4()"/>
			<v:cp v:nameU="BpmnLanguage" v:lbl="Language" v:prompt="" v:type="0" v:format="" v:sortKey="" v:invis="false"
					v:ask="false" v:langID="1033" v:cal="0" v:val="VT4()"/>
			<v:cp v:nameU="BpmnQueryLanguage" v:lbl="Query Language" v:prompt="" v:type="0" v:format="" v:sortKey=""
					v:invis="false" v:ask="false" v:langID="1033" v:cal="0" v:val="VT4()"/>
			<v:cp v:nameU="BpmnCreationDate" v:lbl="Creation Date" v:prompt="" v:type="0" v:format="" v:sortKey="" v:invis="false"
					v:ask="false" v:langID="1033" v:cal="0" v:val="VT4()"/>
			<v:cp v:nameU="BpmnModificationDate" v:lbl="Modification Date" v:prompt="" v:type="0" v:format="" v:sortKey=""
					v:invis="false" v:ask="false" v:langID="1033" v:cal="0" v:val="VT4()"/>
			<v:cp v:nameU="BpmnDocumentation" v:lbl="Documentation" v:prompt="" v:type="0" v:format="" v:sortKey="" v:invis="false"
					v:ask="false" v:langID="1033" v:cal="0" v:val="VT4()"/>
		</v:custProps>
		<v:userDefs>
			<v:ud v:nameU="msvSubprocessMaster" v:prompt="" v:val="VT4(Collapsed Sub-Process)"/>
			<v:ud v:nameU="msvNoAutoConnect" v:val="VT0(0):26"/>
			<v:ud v:nameU="visV14CFF" v:prompt="" v:val="VT0(1):26"/>
			<v:ud v:nameU="visFlowchartType" v:prompt="" v:val="VT4(CrossFunctional)"/>
		</v:userDefs>
	</v:documentProperties>

	<style type="text/css">
	<![CDATA[
		.st1 {fill:none;stroke:#000000;stroke-linecap:round;stroke-linejoin:round;stroke-width:0.25}
		.st2 {fill:#000000;font-family:Calibri;font-size:1.00001em}
		.st3 {fill:#1f1f1f;stroke:none;stroke-linecap:butt;stroke-width:0.01875}
		.st4 {fill:#ffffff;stroke:#000000;stroke-linecap:round;stroke-linejoin:round;stroke-width:0.24}
		.st5 {fill:#ffffff;stroke:#000000;stroke-linecap:round;stroke-linejoin:round;stroke-width:0.24;visibility:hidden}
		.st6 {fill:#ffffff;stroke:#000000;stroke-linecap:round;stroke-linejoin:round;stroke-width:0.72;visibility:hidden}
		.st7 {fill:#000000;fill-opacity:1;stroke:#000000;stroke-opacity:1;stroke-width:0.35714285714286}
		.st8 {fill:#000000;stroke:#cccccc;stroke-linecap:round;stroke-linejoin:round;stroke-width:0.72;visibility:hidden}
		.st9 {fill:#c8c8c8}
		.st10 {stroke:#000000;stroke-linecap:round;stroke-linejoin:round;stroke-width:0.72}
		.st11 {fill:#000000;font-family:Calibri;font-size:0.666664em}
		.st12 {font-size:1em}
		.st13 {fill:none;fill-rule:evenodd;font-size:12px;overflow:visible;stroke-linecap:square;stroke-miterlimit:3}
	]]>
	</style>

	<defs id="Markers">
		<g id="lend1">
			<path d="M 1 -1 L 0 0 L 1 1 " style="stroke-linecap:round;stroke-linejoin:round;fill:none"/>
		</g>
		<marker id="mrkr1-81" class="st7" v:arrowType="1" v:arrowSize="1" orient="auto" markerUnits="strokeWidth"
				overflow="visible">
			<use xlink:href="#lend1" transform="scale(-2.8,-2.8) "/>
		</marker>
	</defs>
	<g v:mID="39" v:index="19" v:groupContext="foregroundPage">
		<v:userDefs>
			<v:ud v:nameU="msvThemeOrder" v:val="VT0(0):26"/>
			<v:ud v:nameU="visNavType" v:val="VT0(1):26"/>
		</v:userDefs>
		<title>Page-19</title>
		<v:pageProperties v:drawingScale="1" v:pageScale="1" v:drawingUnits="0" v:shadowOffsetX="9" v:shadowOffsetY="-9"/>
		<v:layer v:name="Flowchart" v:index="0"/>
		<g id="shape1000-1" v:mID="1000" v:groupContext="shape" transform="translate(4.50008,-40.4634)">
			<title>Sheet.1000</title>
			<desc>Truck</desc>
			<v:userDefs>
				<v:ud v:nameU="visNavOrder" v:val="VT0(1000):26"/>
			</v:userDefs>
			<v:textBlock v:margins="rect(4,4,4,4)"/>
			<v:textRect cx="53.4212" cy="116.982" width="106.85" height="18.0366"/>
			<rect x="0" y="107.963" width="106.842" height="18.0366" class="st1"/>
			<text x="4" y="120.58" class="st2" v:langID="1029"><v:paragraph/><v:tabList/>Truck</text>		</g>
		<g id="shape1001-4" v:mID="1001" v:groupContext="shape" transform="translate(111.342,-40.4634)">
			<title>Sheet.1001</title>
			<desc>6 hours</desc>
			<v:userDefs>
				<v:ud v:nameU="visNavOrder" v:val="VT0(2000):26"/>
			</v:userDefs>
			<v:textBlock v:margins="rect(4,4,4,4)"/>
			<v:textRect cx="53.4212" cy="116.982" width="106.85" height="18.0366"/>
			<rect x="0" y="107.963" width="106.842" height="18.0366" class="st1"/>
			<text x="35.12" y="120.58" class="st2" v:langID="1029"><v:paragraph v:horizAlign="1"/><v:tabList/>6 hours</text>		</g>
		<g id="shape1002-7" v:mID="1002" v:groupContext="shape" transform="translate(218.185,-40.4634)">
			<title>Sheet.1002</title>
			<desc>32 hours</desc>
			<v:userDefs>
				<v:ud v:nameU="visNavOrder" v:val="VT0(3000):26"/>
			</v:userDefs>
			<v:textBlock v:margins="rect(4,4,4,4)"/>
			<v:textRect cx="53.4212" cy="116.982" width="106.85" height="18.0366"/>
			<rect x="0" y="107.963" width="106.842" height="18.0366" class="st1"/>
			<text x="4" y="120.58" class="st2" v:langID="1029"><v:paragraph/><v:tabList/>32 hours</text>		</g>
		<g id="shape1003-10" v:mID="1003" v:groupContext="shape" transform="translate(4.50008,-22.4267)">
			<title>Sheet.1003</title>
			<desc>Train</desc>
			<v:userDefs>
				<v:ud v:nameU="visNavOrder" v:val="VT0(4000):26"/>
			</v:userDefs>
			<v:textBlock v:margins="rect(4,4,4,4)"/>
			<v:textRect cx="53.4212" cy="116.982" width="106.85" height="18.0366"/>
			<rect x="0" y="107.963" width="106.842" height="18.0366" class="st1"/>
			<text x="4" y="120.58" class="st2" v:langID="1029"><v:paragraph/><v:tabList/>Train</text>		</g>
		<g id="shape1004-13" v:mID="1004" v:groupContext="shape" transform="translate(4.50008,-4.39013)">
			<title>Sheet.1004</title>
			<desc>Airplane</desc>
			<v:userDefs>
				<v:ud v:nameU="visNavOrder" v:val="VT0(5000):26"/>
			</v:userDefs>
			<v:textBlock v:margins="rect(4,4,4,4)"/>
			<v:textRect cx="53.4212" cy="116.982" width="106.85" height="18.0366"/>
			<rect x="0" y="107.963" width="106.842" height="18.0366" class="st1"/>
			<text x="4" y="120.58" class="st2" v:langID="1029"><v:paragraph/><v:tabList/>Airplane</text>		</g>
		<g id="shape1005-16" v:mID="1005" v:groupContext="shape" transform="translate(111.342,-22.4267)">
			<title>Sheet.1005</title>
			<desc>10 hours</desc>
			<v:userDefs>
				<v:ud v:nameU="visNavOrder" v:val="VT0(6000):26"/>
			</v:userDefs>
			<v:textBlock v:margins="rect(4,4,4,4)"/>
			<v:textRect cx="53.4212" cy="116.982" width="106.85" height="18.0366"/>
			<rect x="0" y="107.963" width="106.842" height="18.0366" class="st1"/>
			<text x="32.08" y="120.58" class="st2" v:langID="1029"><v:paragraph v:horizAlign="1"/><v:tabList/>10 hours</text>		</g>
		<g id="shape1006-19" v:mID="1006" v:groupContext="shape" transform="translate(111.342,-4.39013)">
			<title>Sheet.1006</title>
			<desc>2 hours</desc>
			<v:userDefs>
				<v:ud v:nameU="visNavOrder" v:val="VT0(7000):26"/>
			</v:userDefs>
			<v:textBlock v:margins="rect(4,4,4,4)"/>
			<v:textRect cx="53.4212" cy="116.982" width="106.85" height="18.0366"/>
			<rect x="0" y="107.963" width="106.842" height="18.0366" class="st1"/>
			<text x="35.12" y="120.58" class="st2" v:langID="1029"><v:paragraph v:horizAlign="1"/><v:tabList/>2 hours</text>		</g>
		<g id="shape1007-22" v:mID="1007" v:groupContext="shape" transform="translate(218.185,-22.4267)">
			<title>Sheet.1007</title>
			<desc>48 hours</desc>
			<v:userDefs>
				<v:ud v:nameU="visNavOrder" v:val="VT0(8000):26"/>
			</v:userDefs>
			<v:textBlock v:margins="rect(4,4,4,4)"/>
			<v:textRect cx="53.4212" cy="116.982" width="106.85" height="18.0366"/>
			<rect x="0" y="107.963" width="106.842" height="18.0366" class="st1"/>
			<text x="4" y="120.58" class="st2" v:langID="1029"><v:paragraph/><v:tabList/>48 hours</text>		</g>
		<g id="shape1008-25" v:mID="1008" v:groupContext="shape" transform="translate(218.185,-4.39013)">
			<title>Sheet.1008</title>
			<desc>72 hours</desc>
			<v:userDefs>
				<v:ud v:nameU="visNavOrder" v:val="VT0(9000):26"/>
			</v:userDefs>
			<v:textBlock v:margins="rect(4,4,4,4)"/>
			<v:textRect cx="53.4212" cy="116.982" width="106.85" height="18.0366"/>
			<rect x="0" y="107.963" width="106.842" height="18.0366" class="st1"/>
			<text x="4" y="120.58" class="st2" v:langID="1029"><v:paragraph/><v:tabList/>72 hours</text>		</g>
		<g id="shape1009-28" v:mID="1009" v:groupContext="shape" transform="translate(324.93,-40.4634)">
			<title>Sheet.1009</title>
			<desc>120 hours</desc>
			<v:userDefs>
				<v:ud v:nameU="visNavOrder" v:val="VT0(10000):26"/>
			</v:userDefs>
			<v:textBlock v:margins="rect(4,4,4,4)"/>
			<v:textRect cx="53.4212" cy="116.982" width="106.85" height="18.0366"/>
			<rect x="0" y="107.963" width="106.842" height="18.0366" class="st1"/>
			<text x="4" y="120.58" class="st2" v:langID="1029"><v:paragraph/><v:tabList/>120 hours</text>		</g>
		<g id="shape1010-31" v:mID="1010" v:groupContext="shape" transform="translate(324.93,-22.4267)">
			<title>Sheet.1010</title>
			<desc>120 hours</desc>
			<v:userDefs>
				<v:ud v:nameU="visNavOrder" v:val="VT0(11000):26"/>
			</v:userDefs>
			<v:textBlock v:margins="rect(4,4,4,4)"/>
			<v:textRect cx="53.4212" cy="116.982" width="106.85" height="18.0366"/>
			<rect x="0" y="107.963" width="106.842" height="18.0366" class="st1"/>
			<text x="4" y="120.58" class="st2" v:langID="1029"><v:paragraph/><v:tabList/>120 hours</text>		</g>
		<g id="shape1011-34" v:mID="1011" v:groupContext="shape" transform="translate(324.93,-4.39013)">
			<title>Sheet.1011</title>
			<desc>140 hours</desc>
			<v:userDefs>
				<v:ud v:nameU="visNavOrder" v:val="VT0(12000):26"/>
			</v:userDefs>
			<v:textBlock v:margins="rect(4,4,4,4)"/>
			<v:textRect cx="53.4212" cy="116.982" width="106.85" height="18.0366"/>
			<rect x="0" y="107.963" width="106.842" height="18.0366" class="st1"/>
			<text x="4" y="120.58" class="st2" v:langID="1029"><v:paragraph/><v:tabList/>140 hours</text>		</g>
		<g id="shape1012-37" v:mID="1012" v:groupContext="shape" transform="translate(4.50005,-58.5)">
			<title>Sheet.1012</title>
			<desc>Transport</desc>
			<v:userDefs>
				<v:ud v:nameU="visNavOrder" v:val="VT0(13000):26"/>
			</v:userDefs>
			<v:textBlock v:margins="rect(4,4,4,4)"/>
			<v:textRect cx="53.4212" cy="116.982" width="106.85" height="18.0366"/>
			<rect x="0" y="107.963" width="106.842" height="18.0366" class="st1"/>
			<text x="4" y="120.58" class="st2" v:langID="1029"><v:paragraph/><v:tabList/>Transport</text>		</g>
		<g id="shape1013-40" v:mID="1013" v:groupContext="shape" transform="translate(111.342,-58.5)">
			<title>Sheet.1013</title>
			<desc>Express</desc>
			<v:userDefs>
				<v:ud v:nameU="visNavOrder" v:val="VT0(14000):26"/>
			</v:userDefs>
			<v:textBlock v:margins="rect(4,4,4,4)"/>
			<v:textRect cx="53.4212" cy="116.982" width="106.85" height="18.0366"/>
			<rect x="0" y="107.963" width="106.842" height="18.0366" class="st1"/>
			<text x="4" y="120.58" class="st2" v:langID="1029"><v:paragraph/><v:tabList/>Express</text>		</g>
		<g id="shape1014-43" v:mID="1014" v:groupContext="shape" transform="translate(218.185,-58.5)">
			<title>Sheet.1014</title>
			<desc>Standard</desc>
			<v:userDefs>
				<v:ud v:nameU="visNavOrder" v:val="VT0(15000):26"/>
			</v:userDefs>
			<v:textBlock v:margins="rect(4,4,4,4)"/>
			<v:textRect cx="53.4212" cy="116.982" width="106.85" height="18.0366"/>
			<rect x="0" y="107.963" width="106.842" height="18.0366" class="st1"/>
			<text x="4" y="120.58" class="st2" v:langID="1029"><v:paragraph/><v:tabList/>Standard</text>		</g>
		<g id="shape1015-46" v:mID="1015" v:groupContext="shape" transform="translate(324.93,-58.5)">
			<title>Sheet.1015</title>
			<desc>Slow</desc>
			<v:userDefs>
				<v:ud v:nameU="visNavOrder" v:val="VT0(16000):26"/>
			</v:userDefs>
			<v:textBlock v:margins="rect(4,4,4,4)"/>
			<v:textRect cx="53.4212" cy="116.982" width="106.85" height="18.0366"/>
			<rect x="0" y="107.963" width="106.842" height="18.0366" class="st1"/>
			<text x="4" y="120.58" class="st2" v:langID="1029"><v:paragraph/><v:tabList/>Slow</text>		</g>
		<g id="group1016-49" transform="translate(63.7501,-42.75)" v:mID="1016" v:groupContext="group">
			<v:userDefs>
				<v:ud v:nameU="visNavOrder" v:val="VT0(17000):26"/>
			</v:userDefs>
			<title>Sheet.1016</title>
			<g id="shape1017-50" v:mID="1017" v:groupContext="shape">
				<title>Sheet.1017</title>
				<path d="M3.75 126 C3.13 126 2.59 125.78 2.16 125.34 C1.72 124.91 1.5 124.38 1.5 123.75 L0 123.75 L0 115.5 C0 115.09
							 0.15 114.73 0.44 114.44 C0.73 114.15 1.09 114 1.5 114 L12 114 L12 117 L14.25 117 L16.5 120 L16.5 123.75
							 L15 123.75 C15 124.38 14.78 124.91 14.34 125.34 C13.91 125.78 13.38 126 12.75 126 C12.13 126 11.59 125.78
							 11.16 125.34 C10.72 124.91 10.5 124.38 10.5 123.75 L6 123.75 C6 124.38 5.78 124.91 5.34 125.34 C4.91
							 125.78 4.38 126 3.75 126 ZM3.75 124.5 C3.96 124.5 4.14 124.43 4.28 124.28 C4.43 124.14 4.5 123.96 4.5
							 123.75 C4.5 123.54 4.43 123.36 4.28 123.22 C4.14 123.07 3.96 123 3.75 123 C3.54 123 3.36 123.07 3.22
							 123.22 C3.07 123.36 3 123.54 3 123.75 C3 123.96 3.07 124.14 3.22 124.28 C3.36 124.43 3.54 124.5 3.75
							 124.5 ZM1.5 122.25 L2.1 122.25 C2.31 122.03 2.56 121.84 2.83 121.71 C3.11 121.57 3.41 121.5 3.75 121.5
							 C4.09 121.5 4.39 121.57 4.67 121.71 C4.94 121.84 5.19 122.03 5.4 122.25 L10.5 122.25 L10.5 115.5 L1.5
							 115.5 L1.5 122.25 ZM12.75 124.5 C12.96 124.5 13.14 124.43 13.28 124.28 C13.43 124.14 13.5 123.96 13.5
							 123.75 C13.5 123.54 13.43 123.36 13.28 123.22 C13.14 123.07 12.96 123 12.75 123 C12.54 123 12.36 123.07
							 12.22 123.22 C12.07 123.36 12 123.54 12 123.75 C12 123.96 12.07 124.14 12.22 124.28 C12.36 124.43 12.54
							 124.5 12.75 124.5 ZM12 120.75 L15.19 120.75 L13.5 118.5 L12 118.5 L12 120.75 Z" class="st3"/>
			</g>
		</g>
		<g id="group1018-52" transform="translate(65.2501,-24.375)" v:mID="1018" v:groupContext="group">
			<v:userDefs>
				<v:ud v:nameU="visNavOrder" v:val="VT0(18000):26"/>
			</v:userDefs>
			<title>Sheet.1018</title>
			<g id="shape1019-53" v:mID="1019" v:groupContext="shape">
				<title>Sheet.1019</title>
				<path d="M0 121.88 L0 114.75 C0 114.09 0.17 113.56 0.52 113.17 C0.86 112.77 1.31 112.47 1.88 112.27 C2.44 112.06
							 3.08 111.92 3.8 111.85 C4.52 111.78 5.25 111.75 6 111.75 C6.83 111.75 7.6 111.78 8.33 111.85 C9.07 111.92
							 9.7 112.06 10.25 112.27 C10.79 112.47 11.22 112.77 11.53 113.17 C11.84 113.56 12 114.09 12 114.75 L12
							 121.88 C12 122.61 11.75 123.23 11.24 123.74 C10.73 124.25 10.11 124.5 9.38 124.5 L10.5 125.63 L10.5
							 126 L9 126 L7.5 124.5 L4.5 124.5 L3 126 L1.5 126 L1.5 125.63 L2.63 124.5 C1.89 124.5 1.27 124.25 0.76
							 123.74 C0.25 123.23 0 122.61 0 121.88 ZM6 113.25 C4.68 113.25 3.71 113.33 3.09 113.48 C2.48 113.64 2.06
							 113.81 1.84 114 L10.24 114 C10.05 113.79 9.65 113.61 9.03 113.47 C8.41 113.32 7.4 113.25 6 113.25 ZM1.5
							 117.75 L5.25 117.75 L5.25 115.5 L1.5 115.5 L1.5 117.75 ZM9.38 119.25 L1.5 119.25 L10.5 119.25 L9.38
							 119.25 ZM6.75 117.75 L10.5 117.75 L10.5 115.5 L6.75 115.5 L6.75 117.75 ZM3.38 122.25 C3.7 122.25 3.97
							 122.14 4.18 121.93 C4.39 121.72 4.5 121.45 4.5 121.13 C4.5 120.8 4.39 120.53 4.18 120.32 C3.97 120.11
							 3.7 120 3.38 120 C3.05 120 2.78 120.11 2.57 120.32 C2.36 120.53 2.25 120.8 2.25 121.13 C2.25 121.45
							 2.36 121.72 2.57 121.93 C2.78 122.14 3.05 122.25 3.38 122.25 ZM8.63 122.25 C8.95 122.25 9.22 122.14
							 9.43 121.93 C9.64 121.72 9.75 121.45 9.75 121.13 C9.75 120.8 9.64 120.53 9.43 120.32 C9.22 120.11 8.95
							 120 8.63 120 C8.3 120 8.03 120.11 7.82 120.32 C7.61 120.53 7.5 120.8 7.5 121.13 C7.5 121.45 7.61 121.72
							 7.82 121.93 C8.03 122.14 8.3 122.25 8.63 122.25 ZM2.63 123 L9.38 123 C9.7 123 9.97 122.89 10.18 122.68
							 C10.39 122.47 10.5 122.2 10.5 121.88 L10.5 119.25 L1.5 119.25 L1.5 121.88 C1.5 122.2 1.61 122.47 1.82
							 122.68 C2.03 122.89 2.3 123 2.63 123 ZM6 114 L10.24 114 L1.84 114 L6 114 Z" class="st3"/>
			</g>
		</g>
		<g id="group1020-55" transform="translate(64.397,-5.90623)" v:mID="1020" v:groupContext="group">
			<v:userDefs>
				<v:ud v:nameU="visNavOrder" v:val="VT0(19000):26"/>
			</v:userDefs>
			<title>Sheet.1020</title>
			<g id="shape1021-56" v:mID="1021" v:groupContext="shape">
				<title>Sheet.1021</title>
				<path d="M5.31 126 L3.45 122.55 L0 120.69 L1.33 119.38 L4.05 119.85 L5.96 117.94 L0.02 115.41 L1.59 113.79 L8.81
							 115.07 L11.14 112.74 C11.42 112.46 11.78 112.31 12.21 112.31 C12.63 112.31 12.99 112.46 13.27 112.74
							 C13.56 113.03 13.71 113.38 13.71 113.8 C13.71 114.22 13.56 114.58 13.27 114.86 L10.93 117.21 L12.21
							 124.41 L10.61 126 L8.06 120.06 L6.15 121.97 L6.64 124.67 L5.31 126 Z" class="st3"/>
			</g>
		</g>
		<g id="group1022-58" transform="translate(4.50005,-85.5)" v:mID="1022" v:groupContext="group" v:layerMember="0">
			<v:custProps>
				<v:cp v:nameU="BpmnId" v:lbl="Id" v:prompt="" v:type="0" v:format="" v:sortKey="" v:invis="true" v:ask="false"
						v:langID="1033" v:cal="0" v:val="VT4()"/>
				<v:cp v:nameU="BpmnCategories" v:lbl="Categories" v:prompt="" v:type="0" v:format="" v:sortKey="" v:invis="false"
						v:ask="false" v:langID="1033" v:cal="0" v:val="VT4()"/>
				<v:cp v:nameU="BpmnDocumentation" v:lbl="Documentation" v:prompt="" v:type="0" v:format="" v:sortKey=""
						v:invis="false" v:ask="false" v:langID="1033" v:cal="0" v:val="VT4()"/>
				<v:cp v:nameU="BpmnName" v:lbl="Name" v:prompt="" v:type="0" v:format="" v:sortKey="" v:invis="true" v:ask="false"
						v:langID="1033" v:cal="0" v:val="VT4()"/>
				<v:cp v:nameU="BpmnActivityType" v:lbl="ActivityType" v:prompt="" v:type="1" v:format="Task;Sub-Process"
						v:sortKey="" v:invis="true" v:ask="false" v:langID="1033" v:cal="0" v:val="VT4(Task)"/>
				<v:cp v:nameU="BpmnLoopType" v:lbl="LoopType" v:prompt="" v:type="1"
						v:format="None;Standard;Parallel MultiInstance;Sequential MultiInstance" v:sortKey="" v:invis="false"
						v:ask="false" v:langID="1033" v:cal="0" v:val="VT4(None)"/>
				<v:cp v:nameU="BpmnTaskType" v:lbl="TaskType" v:prompt="" v:type="1"
						v:format="None;Service;Receive;Send;User;Script;Abstract;Manual;Instantiating Receive;Business Rule"
						v:sortKey="" v:invis="false" v:ask="false" v:langID="1033" v:cal="0" v:val="VT4(None)"/>
				<v:cp v:nameU="BpmnScript" v:lbl="Script" v:prompt="" v:type="0" v:format="" v:sortKey="" v:invis="true"
						v:ask="false" v:langID="1033" v:cal="0" v:val="VT4()"/>
				<v:cp v:nameU="BpmnInstantiate" v:lbl="Instantiate" v:prompt="" v:type="3" v:format="" v:sortKey="" v:invis="true"
						v:ask="false" v:langID="1033" v:cal="0" v:val="VT0(0):5"/>
				<v:cp v:nameU="BpmnSubProcessType" v:lbl="SubProcessType" v:prompt="" v:type="1"
						v:format="Embedded;Reusable;Reference" v:sortKey="" v:invis="true" v:ask="false" v:langID="1033" v:cal="0"
						v:val="VT4(Embedded)"/>
				<v:cp v:nameU="BpmnIsCollapsed" v:lbl="IsCollapsed" v:prompt="" v:type="3" v:format="" v:sortKey="" v:invis="true"
						v:ask="false" v:langID="1033" v:cal="0" v:val="VT0(0):5"/>
				<v:cp v:nameU="BpmnIsATransaction" v:lbl="IsATransaction" v:prompt="" v:type="3" v:format="" v:sortKey=""
						v:invis="true" v:ask="false" v:langID="1033" v:cal="0" v:val="VT0(0):5"/>
				<v:cp v:nameU="BpmnIsForCompensation" v:lbl="IsForCompensation" v:prompt="" v:type="3" v:format="" v:sortKey=""
						v:invis="false" v:ask="false" v:langID="1033" v:cal="0" v:val="VT0(0):5"/>
				<v:cp v:nameU="BpmnElementType" v:lbl="ElementType" v:prompt="" v:type="1"
						v:format="Sub-Process;Event;Gateway;Process Diagram;Pool;Lane;Artifact;Connecting Object" v:sortKey=""
						v:invis="true" v:ask="false" v:langID="1033" v:cal="0" v:val="VT4(Sub-Process)"/>
				<v:cp v:nameU="BpmnAdHoc" v:lbl="AdHoc" v:prompt="" v:type="3" v:format="" v:sortKey="" v:invis="true"
						v:ask="false" v:langID="1033" v:cal="0" v:val="VT0(0):5"/>
				<v:cp v:nameU="BpmnAdHocOrdering" v:lbl="AdHocOrdering" v:prompt="" v:type="1" v:format="Sequential;Parallel"
						v:sortKey="" v:invis="true" v:ask="false" v:langID="1033" v:cal="0" v:val="VT4(Parallel)"/>
				<v:cp v:nameU="BpmnBoundaryType" v:lbl="BoundaryType" v:prompt="" v:type="1" v:format="Default;Call" v:sortKey=""
						v:invis="false" v:ask="false" v:langID="1033" v:cal="0" v:val="VT4(Default)"/>
				<v:cp v:nameU="BpmnName" v:lbl="" v:prompt="" v:type="0" v:format="" v:sortKey="" v:invis="false" v:ask="false"
						v:langID="0" v:cal="0" v:val="VT4(Time for administration &#38; load, etc.)"/>
				<v:cp v:nameU="BpmnTaskType" v:lbl="" v:prompt="" v:type="0" v:format="" v:sortKey="" v:invis="false" v:ask="false"
						v:langID="0" v:cal="0" v:val="VT4(Business Rule)"/>
			</v:custProps>
			<v:userDefs>
				<v:ud v:nameU="BpmnNumIconsVisible" v:prompt="" v:val="VT0(0):26"/>
				<v:ud v:nameU="BpmnIsExtendedSubProcess" v:prompt="" v:val="VT0(0):5"/>
				<v:ud v:nameU="msvStructureType" v:prompt="" v:val="VT0(0):26"/>
				<v:ud v:nameU="msvSDContainerResize" v:prompt="" v:val="VT0(0):26"/>
				<v:ud v:nameU="visVersion" v:prompt="" v:val="VT0(15):26"/>
				<v:ud v:nameU="msvShapeCategories" v:prompt="" v:val="VT4(Task)"/>
				<v:ud v:nameU="BpmnIconHeight" v:prompt="" v:val="VT0(0.16):0"/>
				<v:ud v:nameU="BpmnIconPinY" v:prompt="" v:val="VT0(0.125):0"/>
				<v:ud v:nameU="BpmnBoundaryType" v:prompt="" v:val="VT0(0):26"/>
				<v:ud v:nameU="DefaultWidth" v:prompt="" v:val="VT0(1):0"/>
				<v:ud v:nameU="DefaultHeight" v:prompt="" v:val="VT0(0.75):0"/>
				<v:ud v:nameU="ResizeTxtHeight" v:prompt="" v:val="VT0(0.75):0"/>
				<v:ud v:nameU="IsInstance" v:prompt="" v:val="VT0(0):5"/>
				<v:ud v:nameU="BpmnBoundaryType" v:prompt="" v:val="VT0(0):26"/>
				<v:ud v:nameU="IsInstance" v:prompt="" v:val="VT0(1):5"/>
				<v:ud v:nameU="visNavOrder" v:val="VT0(20000):26"/>
			</v:userDefs>
			<title>Task.1576</title>
			<desc>Time for administration &#38; load, etc.</desc>
			<g id="shape1023-59" v:mID="1023" v:groupContext="shape" v:layerMember="0">
				<title>Sheet.1023</title>
				<rect x="0" y="90" width="162" height="36" rx="5.76" ry="5.76" class="st4"/>
			</g>
			<g id="group1024-61" v:mID="1024" v:groupContext="group" v:layerMember="0">
				<title>Sheet.1024</title>
				<g id="shape1025-62" v:mID="1025" v:groupContext="shape" v:layerMember="0">
					<title>Sheet.1025</title>
					<rect x="0" y="90" width="162" height="36" rx="2.16" ry="2.16" class="st5"/>
				</g>
				<g id="shape1026-64" v:mID="1026" v:groupContext="shape" v:layerMember="0" transform="translate(1.8,-1.8)">
					<title>Sheet.1026</title>
					<rect x="0" y="93.6" width="158.4" height="32.4" rx="2.16" ry="2.16" class="st5"/>
				</g>
			</g>
			<g id="shape1027-66" v:mID="1027" v:groupContext="shape" v:layerMember="0" transform="translate(81.72,-2.52)">
				<title>Sheet.1027</title>
				<v:userDefs>
					<v:ud v:nameU="BpmnIconPosition" v:prompt="" v:val="VT0(1):26"/>
					<v:ud v:nameU="BpmnIconWidth" v:prompt="" v:val="VT0(0.18):26"/>
				</v:userDefs>
			</g>
			<g id="group1028-68" transform="translate(82.08,-3.24)" v:mID="1028" v:groupContext="group" v:layerMember="0">
				<v:userDefs>
					<v:ud v:nameU="BpmnIconPosition" v:prompt="" v:val="VT0(1):26"/>
					<v:ud v:nameU="BpmnIconWidth" v:prompt="" v:val="VT0(0.19):26"/>
				</v:userDefs>
				<title>Sheet.1028</title>
				<g id="shape1029-69" v:mID="1029" v:groupContext="shape" v:layerMember="0">
					<title>Sheet.1029</title>
					<rect x="0" y="114.48" width="11.52" height="11.52" class="st6"/>
				</g>
				<g id="shape1030-71" v:mID="1030" v:groupContext="shape" v:layerMember="0" transform="translate(2.88,-2.88)">
					<title>Sheet.1030</title>
				</g>
			</g>
			<g id="shape1031-73" v:mID="1031" v:groupContext="shape" v:layerMember="0" transform="translate(82.08,-4.104)">
				<title>Sheet.1031</title>
				<v:userDefs>
					<v:ud v:nameU="BpmnIconPosition" v:prompt="" v:val="VT0(1):26"/>
					<v:ud v:nameU="BpmnIconWidth" v:prompt="" v:val="VT0(0.19):26"/>
				</v:userDefs>
			</g>
			<g id="shape1032-75" v:mID="1032" v:groupContext="shape" v:layerMember="0" transform="translate(83.2176,-4.104)">
				<title>Sheet.1032</title>
				<v:userDefs>
					<v:ud v:nameU="BpmnIconPosition" v:prompt="" v:val="VT0(1):26"/>
					<v:ud v:nameU="BpmnIconWidth" v:prompt="" v:val="VT0(0.18):26"/>
				</v:userDefs>
			</g>
			<g id="group1033-77" transform="translate(81.72,-3.24)" v:mID="1033" v:groupContext="group" v:layerMember="0">
				<v:userDefs>
					<v:ud v:nameU="BpmnIconPosition" v:prompt="" v:val="VT0(1):26"/>
					<v:ud v:nameU="BpmnIconWidth" v:prompt="" v:val="VT0(0.18):26"/>
				</v:userDefs>
				<title>Sheet.1033</title>
				<g id="shape1034-78" v:mID="1034" v:groupContext="shape" v:layerMember="0"
						transform="translate(8.02652,241.5) rotate(179.753)">
					<title>Sheet.1034</title>
				</g>
			</g>
			<g id="shape1035-82" v:mID="1035" v:groupContext="shape" v:layerMember="0" transform="translate(4,-22)">
				<title>Sheet.1035</title>
			</g>
			<g id="shape1036-84" v:mID="1036" v:groupContext="shape" v:layerMember="0" transform="translate(3.5,-21.5)">
				<title>Sheet.1036</title>
			</g>
			<g id="group1037-86" transform="translate(3,-23)" v:mID="1037" v:groupContext="group" v:layerMember="0">
				<title>Sheet.1037</title>
				<g id="shape1038-87" v:mID="1038" v:groupContext="shape" v:layerMember="0">
					<title>Sheet.1038</title>
					<rect x="0" y="118" width="12" height="8" class="st8"/>
				</g>
				<g id="shape1039-89" v:mID="1039" v:groupContext="shape" v:layerMember="0"
						transform="translate(-1.9984E-15,-4.20339)">
					<title>Sheet.1039</title>
				</g>
			</g>
			<g id="shape1040-91" v:mID="1040" v:groupContext="shape" v:layerMember="0" transform="translate(3,-23)">
				<title>Sheet.1040</title>
			</g>
			<g id="shape1041-93" v:mID="1041" v:groupContext="shape" v:layerMember="0" transform="translate(4,-22)">
				<title>Sheet.1041</title>
			</g>
			<g id="shape1042-95" v:mID="1042" v:groupContext="shape" v:layerMember="0" transform="translate(3.5,-23)">
				<title>Sheet.1042</title>
			</g>
			<g id="shape1043-97" v:mID="1043" v:groupContext="shape" v:layerMember="0" transform="translate(3.5,-23)">
				<title>Sheet.1043</title>
				<path d="M0 120.64 L0 118 L11 118 L11 120.64 L0 120.64 Z" class="st9"/>
				<path d="M3.3 126 L3.3 120.64" class="st10"/>
				<path d="M11 123.36 L0 123.36" class="st10"/>
				<path d="M0 126 L0 120.64 L11 120.64 L11 126 L0 126" class="st10"/>
				<path d="M0 120.64 L0 118 L11 118 L11 120.64 L0 120.64" class="st10"/>
			</g>
			<g id="shape1044-103" v:mID="1044" v:groupContext="shape" v:layerMember="0"
					transform="translate(-33.624,121.262) rotate(-90)">
				<title>Sheet.1044</title>
				<v:userDefs>
					<v:ud v:nameU="BpmnIconPosition" v:prompt="" v:val="VT0(1):26"/>
					<v:ud v:nameU="BpmnIconWidth" v:prompt="" v:val="VT0(0.18):26"/>
				</v:userDefs>
			</g>
			<g id="shape1022-105" v:mID="1022" v:groupContext="groupContent" v:layerMember="0">
				<v:textBlock v:margins="rect(2,2,2,2)"/>
				<v:textRect cx="81" cy="108" width="162" height="36"/>
				<text x="23.06" y="110.4" class="st11" v:langID="1029"><v:paragraph v:horizAlign="1"/><v:tabList/>Time for administration <tspan
							class="st12" v:langID="1033">&#38; load, etc.</tspan></text>			</g>
		</g>
	</g>
</svg>
