<?xml version="1.0" encoding="UTF-8" standalone="no"?>
<!DOCTYPE svg PUBLIC "-//W3C//DTD SVG 1.1//EN" "http://www.w3.org/Graphics/SVG/1.1/DTD/svg11.dtd">
<!-- Generated by Microsoft Visio, SVG Export F7_desc_bpmn_correction_list_L0.svg Page-23 -->
<svg xmlns="http://www.w3.org/2000/svg" xmlns:xlink="http://www.w3.org/1999/xlink" xmlns:ev="http://www.w3.org/2001/xml-events"
		xmlns:v="http://schemas.microsoft.com/visio/2003/SVGExtensions/" width="2.4375in" height="0.875in" viewBox="0 0 175.5 63"
		xml:space="preserve" color-interpolation-filters="sRGB" class="st9">
	<v:documentProperties v:langID="1033" v:viewMarkup="false">
		<v:custProps>
			<v:cp v:nameU="BpmnElementType" v:lbl="BPMN Element Type" v:prompt="" v:type="1"
					v:format="Sub-Process;Event;Gateway;Process Diagram;Pool;Lane;Artifact;Connecting Object" v:sortKey=""
					v:invis="true" v:ask="false" v:langID="1033" v:cal="0" v:val="VT4(Process Diagram)"/>
			<v:cp v:nameU="BpmnId" v:lbl="Id" v:prompt="" v:type="0" v:format="" v:sortKey="" v:invis="true" v:ask="false"
					v:langID="1033" v:cal="0" v:val="VT0(0):26"/>
			<v:cp v:nameU="BpmnName" v:lbl="Name" v:prompt="" v:type="0" v:format="" v:sortKey="" v:invis="true" v:ask="false"
					v:langID="1033" v:cal="0" v:val="VT4()"/>
			<v:cp v:nameU="BpmnVersion" v:lbl="Version" v:prompt="" v:type="0" v:format="" v:sortKey="" v:invis="false"
					v:ask="false" v:langID="1033" v:cal="0" v:val="VT4()"/>
			<v:cp v:nameU="BpmnAuthor" v:lbl="Author" v:prompt="" v:type="0" v:format="" v:sortKey="" v:invis="false" v:ask="false"
					v:langID="1033" v:cal="0" v:val="VT4()"/>
			<v:cp v:nameU="BpmnLanguage" v:lbl="Language" v:prompt="" v:type="0" v:format="" v:sortKey="" v:invis="false"
					v:ask="false" v:langID="1033" v:cal="0" v:val="VT4()"/>
			<v:cp v:nameU="BpmnQueryLanguage" v:lbl="Query Language" v:prompt="" v:type="0" v:format="" v:sortKey=""
					v:invis="false" v:ask="false" v:langID="1033" v:cal="0" v:val="VT4()"/>
			<v:cp v:nameU="BpmnCreationDate" v:lbl="Creation Date" v:prompt="" v:type="0" v:format="" v:sortKey="" v:invis="false"
					v:ask="false" v:langID="1033" v:cal="0" v:val="VT4()"/>
			<v:cp v:nameU="BpmnModificationDate" v:lbl="Modification Date" v:prompt="" v:type="0" v:format="" v:sortKey=""
					v:invis="false" v:ask="false" v:langID="1033" v:cal="0" v:val="VT4()"/>
			<v:cp v:nameU="BpmnDocumentation" v:lbl="Documentation" v:prompt="" v:type="0" v:format="" v:sortKey="" v:invis="false"
					v:ask="false" v:langID="1033" v:cal="0" v:val="VT4()"/>
		</v:custProps>
		<v:userDefs>
			<v:ud v:nameU="msvSubprocessMaster" v:prompt="" v:val="VT4(Collapsed Sub-Process)"/>
			<v:ud v:nameU="msvNoAutoConnect" v:val="VT0(0):26"/>
			<v:ud v:nameU="visV14CFF" v:prompt="" v:val="VT0(1):26"/>
			<v:ud v:nameU="visFlowchartType" v:prompt="" v:val="VT4(CrossFunctional)"/>
		</v:userDefs>
	</v:documentProperties>

	<style type="text/css">
	<![CDATA[
		.st1 {fill:#eeeaf2;stroke:#000000;stroke-linecap:round;stroke-linejoin:round;stroke-width:0.24}
		.st2 {fill:#eeeaf2;stroke:#000000;stroke-linecap:round;stroke-linejoin:round;stroke-width:0.24;visibility:hidden}
		.st3 {fill:#ffffff;stroke:#000000;stroke-linecap:round;stroke-linejoin:round;stroke-width:0.72;visibility:hidden}
		.st4 {fill:#000000;fill-opacity:1;stroke:#000000;stroke-opacity:1;stroke-width:0.35714285714286}
		.st5 {stroke:#000000;stroke-linecap:round;stroke-linejoin:round;stroke-width:0.25}
		.st6 {fill:#000000;stroke:#cccccc;stroke-linecap:round;stroke-linejoin:round;stroke-width:0.72;visibility:hidden}
		.st7 {fill:#000000;font-family:Calibri;font-size:0.666664em}
		.st8 {font-size:1em}
		.st9 {fill:none;fill-rule:evenodd;font-size:12px;overflow:visible;stroke-linecap:square;stroke-miterlimit:3}
	]]>
	</style>

	<defs id="Markers">
		<g id="lend1">
			<path d="M 1 -1 L 0 0 L 1 1 " style="stroke-linecap:round;stroke-linejoin:round;fill:none"/>
		</g>
		<marker id="mrkr1-24" class="st4" v:arrowType="1" v:arrowSize="1" orient="auto" markerUnits="strokeWidth"
				overflow="visible">
			<use xlink:href="#lend1" transform="scale(-2.8,-2.8) "/>
		</marker>
	</defs>
	<g v:mID="47" v:index="23" v:groupContext="foregroundPage">
		<v:userDefs>
			<v:ud v:nameU="msvThemeOrder" v:val="VT0(0):26"/>
		</v:userDefs>
		<title>Page-23</title>
		<v:pageProperties v:drawingScale="1" v:pageScale="1" v:drawingUnits="0" v:shadowOffsetX="9" v:shadowOffsetY="-9"/>
		<v:layer v:name="Flowchart" v:index="0"/>
		<v:layer v:name="Callout" v:index="1"/>
		<g id="group1000-1" transform="translate(9,-4.49998)" v:mID="1000" v:groupContext="group" v:layerMember="0">
			<v:custProps>
				<v:cp v:nameU="BpmnId" v:lbl="Id" v:prompt="" v:type="0" v:format="" v:sortKey="" v:invis="true" v:ask="false"
						v:langID="1033" v:cal="0" v:val="VT4()"/>
				<v:cp v:nameU="BpmnCategories" v:lbl="Categories" v:prompt="" v:type="0" v:format="" v:sortKey="" v:invis="false"
						v:ask="false" v:langID="1033" v:cal="0" v:val="VT4()"/>
				<v:cp v:nameU="BpmnDocumentation" v:lbl="Documentation" v:prompt="" v:type="0" v:format="" v:sortKey=""
						v:invis="false" v:ask="false" v:langID="1033" v:cal="0" v:val="VT4()"/>
				<v:cp v:nameU="BpmnName" v:lbl="Name" v:prompt="" v:type="0" v:format="" v:sortKey="" v:invis="true" v:ask="false"
						v:langID="1033" v:cal="0" v:val="VT4()"/>
				<v:cp v:nameU="BpmnActivityType" v:lbl="ActivityType" v:prompt="" v:type="1" v:format="Task;Sub-Process"
						v:sortKey="" v:invis="true" v:ask="false" v:langID="1033" v:cal="0" v:val="VT4(Task)"/>
				<v:cp v:nameU="BpmnLoopType" v:lbl="LoopType" v:prompt="" v:type="1"
						v:format="None;Standard;Parallel MultiInstance;Sequential MultiInstance" v:sortKey="" v:invis="false"
						v:ask="false" v:langID="1033" v:cal="0" v:val="VT4(None)"/>
				<v:cp v:nameU="BpmnTaskType" v:lbl="TaskType" v:prompt="" v:type="1"
						v:format="None;Service;Receive;Send;User;Script;Abstract;Manual;Instantiating Receive;Business Rule"
						v:sortKey="" v:invis="false" v:ask="false" v:langID="1033" v:cal="0" v:val="VT4(None)"/>
				<v:cp v:nameU="BpmnScript" v:lbl="Script" v:prompt="" v:type="0" v:format="" v:sortKey="" v:invis="true"
						v:ask="false" v:langID="1033" v:cal="0" v:val="VT4()"/>
				<v:cp v:nameU="BpmnInstantiate" v:lbl="Instantiate" v:prompt="" v:type="3" v:format="" v:sortKey="" v:invis="true"
						v:ask="false" v:langID="1033" v:cal="0" v:val="VT0(0):5"/>
				<v:cp v:nameU="BpmnSubProcessType" v:lbl="SubProcessType" v:prompt="" v:type="1"
						v:format="Embedded;Reusable;Reference" v:sortKey="" v:invis="true" v:ask="false" v:langID="1033" v:cal="0"
						v:val="VT4(Embedded)"/>
				<v:cp v:nameU="BpmnIsCollapsed" v:lbl="IsCollapsed" v:prompt="" v:type="3" v:format="" v:sortKey="" v:invis="true"
						v:ask="false" v:langID="1033" v:cal="0" v:val="VT0(0):5"/>
				<v:cp v:nameU="BpmnIsATransaction" v:lbl="IsATransaction" v:prompt="" v:type="3" v:format="" v:sortKey=""
						v:invis="true" v:ask="false" v:langID="1033" v:cal="0" v:val="VT0(0):5"/>
				<v:cp v:nameU="BpmnIsForCompensation" v:lbl="IsForCompensation" v:prompt="" v:type="3" v:format="" v:sortKey=""
						v:invis="false" v:ask="false" v:langID="1033" v:cal="0" v:val="VT0(0):5"/>
				<v:cp v:nameU="BpmnElementType" v:lbl="ElementType" v:prompt="" v:type="1"
						v:format="Sub-Process;Event;Gateway;Process Diagram;Pool;Lane;Artifact;Connecting Object" v:sortKey=""
						v:invis="true" v:ask="false" v:langID="1033" v:cal="0" v:val="VT4(Sub-Process)"/>
				<v:cp v:nameU="BpmnAdHoc" v:lbl="AdHoc" v:prompt="" v:type="3" v:format="" v:sortKey="" v:invis="true"
						v:ask="false" v:langID="1033" v:cal="0" v:val="VT0(0):5"/>
				<v:cp v:nameU="BpmnAdHocOrdering" v:lbl="AdHocOrdering" v:prompt="" v:type="1" v:format="Sequential;Parallel"
						v:sortKey="" v:invis="true" v:ask="false" v:langID="1033" v:cal="0" v:val="VT4(Parallel)"/>
				<v:cp v:nameU="BpmnBoundaryType" v:lbl="BoundaryType" v:prompt="" v:type="1" v:format="Default;Call" v:sortKey=""
						v:invis="false" v:ask="false" v:langID="1033" v:cal="0" v:val="VT4(Default)"/>
				<v:cp v:nameU="BpmnName" v:lbl="" v:prompt="" v:type="0" v:format="" v:sortKey="" v:invis="false" v:ask="false"
						v:langID="0" v:cal="0" v:val="VT4(L0: Check against &#10;Correction list)"/>
				<v:cp v:nameU="BpmnTaskType" v:lbl="" v:prompt="" v:type="0" v:format="" v:sortKey="" v:invis="false" v:ask="false"
						v:langID="0" v:cal="0" v:val="VT4(Service)"/>
			</v:custProps>
			<v:userDefs>
				<v:ud v:nameU="BpmnNumIconsVisible" v:prompt="" v:val="VT0(0):26"/>
				<v:ud v:nameU="BpmnIsExtendedSubProcess" v:prompt="" v:val="VT0(0):5"/>
				<v:ud v:nameU="msvStructureType" v:prompt="" v:val="VT0(0):26"/>
				<v:ud v:nameU="msvSDContainerResize" v:prompt="" v:val="VT0(0):26"/>
				<v:ud v:nameU="visVersion" v:prompt="" v:val="VT0(15):26"/>
				<v:ud v:nameU="msvShapeCategories" v:prompt="" v:val="VT4(Task)"/>
				<v:ud v:nameU="BpmnIconHeight" v:prompt="" v:val="VT0(0.16):0"/>
				<v:ud v:nameU="BpmnIconPinY" v:prompt="" v:val="VT0(0.125):0"/>
				<v:ud v:nameU="BpmnBoundaryType" v:prompt="" v:val="VT0(0):26"/>
				<v:ud v:nameU="DefaultWidth" v:prompt="" v:val="VT0(1):0"/>
				<v:ud v:nameU="DefaultHeight" v:prompt="" v:val="VT0(0.75):0"/>
				<v:ud v:nameU="ResizeTxtHeight" v:prompt="" v:val="VT0(0.75):0"/>
				<v:ud v:nameU="IsInstance" v:prompt="" v:val="VT0(0):5"/>
				<v:ud v:nameU="IsInstance" v:prompt="" v:val="VT0(1):5"/>
			</v:userDefs>
			<title>Task.1562</title>
			<desc>L0: Check against Correction list</desc>
			<g id="shape1001-2" v:mID="1001" v:groupContext="shape" v:layerMember="0">
				<title>Sheet.1001</title>
				<rect x="0" y="9" width="72" height="54" rx="5.76" ry="5.76" class="st1"/>
			</g>
			<g id="group1002-4" v:mID="1002" v:groupContext="group" v:layerMember="0">
				<title>Sheet.1002</title>
				<g id="shape1003-5" v:mID="1003" v:groupContext="shape" v:layerMember="0">
					<title>Sheet.1003</title>
					<rect x="0" y="9" width="72" height="54" rx="2.16" ry="2.16" class="st2"/>
				</g>
				<g id="shape1004-7" v:mID="1004" v:groupContext="shape" v:layerMember="0" transform="translate(1.8,-1.8)">
					<title>Sheet.1004</title>
					<rect x="0" y="12.6" width="68.4" height="50.4" rx="2.16" ry="2.16" class="st2"/>
				</g>
			</g>
			<g id="shape1005-9" v:mID="1005" v:groupContext="shape" v:layerMember="0" transform="translate(36.72,-2.52)">
				<title>Sheet.1005</title>
				<v:userDefs>
					<v:ud v:nameU="BpmnIconPosition" v:prompt="" v:val="VT0(1):26"/>
					<v:ud v:nameU="BpmnIconWidth" v:prompt="" v:val="VT0(0.18):26"/>
				</v:userDefs>
			</g>
			<g id="group1006-11" transform="translate(37.08,-3.24)" v:mID="1006" v:groupContext="group" v:layerMember="0">
				<v:userDefs>
					<v:ud v:nameU="BpmnIconPosition" v:prompt="" v:val="VT0(1):26"/>
					<v:ud v:nameU="BpmnIconWidth" v:prompt="" v:val="VT0(0.19):26"/>
				</v:userDefs>
				<title>Sheet.1006</title>
				<g id="shape1007-12" v:mID="1007" v:groupContext="shape" v:layerMember="0">
					<title>Sheet.1007</title>
					<rect x="0" y="51.48" width="11.52" height="11.52" class="st3"/>
				</g>
				<g id="shape1008-14" v:mID="1008" v:groupContext="shape" v:layerMember="0" transform="translate(2.88,-2.88)">
					<title>Sheet.1008</title>
				</g>
			</g>
			<g id="shape1009-16" v:mID="1009" v:groupContext="shape" v:layerMember="0" transform="translate(37.08,-4.104)">
				<title>Sheet.1009</title>
				<v:userDefs>
					<v:ud v:nameU="BpmnIconPosition" v:prompt="" v:val="VT0(1):26"/>
					<v:ud v:nameU="BpmnIconWidth" v:prompt="" v:val="VT0(0.19):26"/>
				</v:userDefs>
			</g>
			<g id="shape1010-18" v:mID="1010" v:groupContext="shape" v:layerMember="0" transform="translate(38.2176,-4.104)">
				<title>Sheet.1010</title>
				<v:userDefs>
					<v:ud v:nameU="BpmnIconPosition" v:prompt="" v:val="VT0(1):26"/>
					<v:ud v:nameU="BpmnIconWidth" v:prompt="" v:val="VT0(0.18):26"/>
				</v:userDefs>
			</g>
			<g id="group1011-20" transform="translate(36.72,-3.24)" v:mID="1011" v:groupContext="group" v:layerMember="0">
				<v:userDefs>
					<v:ud v:nameU="BpmnIconPosition" v:prompt="" v:val="VT0(1):26"/>
					<v:ud v:nameU="BpmnIconWidth" v:prompt="" v:val="VT0(0.18):26"/>
				</v:userDefs>
				<title>Sheet.1011</title>
				<g id="shape1012-21" v:mID="1012" v:groupContext="shape" v:layerMember="0"
						transform="translate(7.75464,115.501) rotate(179.753)">
					<title>Sheet.1012</title>
				</g>
			</g>
			<g id="shape1013-25" v:mID="1013" v:groupContext="shape" v:layerMember="0" transform="translate(4,-40)">
				<title>Sheet.1013</title>
			</g>
			<g id="shape1014-27" v:mID="1014" v:groupContext="shape" v:layerMember="0" transform="translate(3.5,-39.5)">
				<title>Sheet.1014</title>
				<path d="M7.19 54.66 L7.1 55.33 A3.28243 3.26721 0 0 1 7.53 55.42 A3.3556 3.34005 -180 0 0 7.19 54.66" class="st5"/>
				<path d="M3.47 59.58 A3.36678 3.35118 0 0 1 3.36 59.08 L2.59 59.19 A3.29396 3.2787 -180 0 0 3.47 59.58" class="st5"/>
				<path d="M2.31 59.12 A4.44263 4.42203 0 0 1 2.32 58.01 L3.36 58.16 A3.36597 3.35037 0 0 1 3.51 57.53 L3.5 57.53 L3.23
							 57.89 A1.89129 1.88252 90 0 1 2.86 57.52 L3.22 57.25 A1.43505 1.4284 90 0 1 2.95 56.58 L2.5 56.64 A1.89129
							 1.88252 90 0 1 2.5 56.12 L2.95 56.18 A1.43505 1.4284 90 0 1 3.22 55.52 L2.86 55.24 A1.88251 1.89128
							 0.02 0 1 3.23 54.87 L3.5 55.24 A1.43505 1.4284 90 0 1 4.16 54.96 L4.1 54.51 A1.89129 1.88252 90 0 1
							 4.62 54.51 L4.56 54.96 A1.43505 1.4284 90 0 1 5.22 55.24 L5.49 54.87 A1.89129 1.88252 90 0 1 5.86 55.24
							 L5.56 55.48 A3.28371 3.26849 0 0 1 6.18 55.33 L6.03 54.28 A4.32119 4.30116 0 0 1 7.15 54.27 L7.84 53.74
							 A4.38176 4.36145 -180 0 0 6.99 52.88 L6.35 53.73 A3.29272 3.27746 -180 0 0 4.82 53.09 L4.97 52.04 A4.32123
							 4.3012 -180 0 0 3.75 52.04 L3.9 53.09 A3.29272 3.27746 -180 0 0 2.37 53.73 L1.74 52.88 A4.38176 4.36145
							 -180 0 0 0.88 53.74 L1.72 54.38 A3.35686 3.3413 -180 0 0 1.08 55.92 L0.04 55.77 A4.44258 4.42199 -180
							 0 0 0.04 56.99 L1.08 56.84 A3.35686 3.3413 -180 0 0 1.72 58.38 L0.88 59.02 A4.38176 4.36145 -180 0 0
							 1.74 59.88 L2.31 59.12" class="st5"/>
				<path d="M4.01 62.12 A4.38176 4.36145 0 0 1 3.16 61.26 L4 60.62 A3.35686 3.3413 0 0 1 3.36 59.08 L2.32 59.23 A4.44258
							 4.42199 0 0 1 2.32 58.01 L3.36 58.16 A3.35686 3.3413 0 0 1 4 56.62 L3.16 55.98 A4.38176 4.36145 0 0
							 1 4.01 55.12 L4.65 55.96 A3.29272 3.27746 0 0 1 6.18 55.33 L6.03 54.28 A4.32123 4.3012 0 0 1 7.25 54.28
							 L7.1 55.33 A3.29272 3.27746 0 0 1 8.63 55.96 L9.26 55.12 A4.38176 4.36145 0 0 1 10.12 55.98 L9.28 56.62
							 A3.35686 3.3413 0 0 1 9.92 58.16 L10.96 58.01 A4.44258 4.42199 0 0 1 10.96 59.23 L9.92 59.08 A3.35686
							 3.3413 0 0 1 9.28 60.62 L10.12 61.26 A4.38176 4.36145 0 0 1 9.26 62.12 L8.63 61.27 A3.29272 3.27746
							 0 0 1 7.1 61.91 L7.25 62.96 A4.36117 4.38148 0 0 1 6.03 62.96 L6.18 61.91 A3.29272 3.27746 0 0 1 4.65
							 61.27 L4.01 62.12" class="st5"/>
				<path d="M5.51 60.13 A1.89129 1.88252 90 0 1 5.14 59.76 L5.5 59.48 A1.43505 1.4284 90 0 1 5.22 58.82 L4.77 58.88
							 A1.89129 1.88252 90 0 1 4.77 58.36 L5.22 58.42 A1.43505 1.4284 90 0 1 5.5 57.75 L5.14 57.48 A1.88251
							 1.89128 0.02 0 1 5.51 57.11 L5.78 57.47 A1.43505 1.4284 90 0 1 6.44 57.2 L6.38 56.75 A1.89129 1.88252
							 90 0 1 6.9 56.75 L6.84 57.2 A1.43505 1.4284 90 0 1 7.5 57.47 L7.77 57.11 A1.89129 1.88252 90 0 1 8.14
							 57.48 L7.78 57.75 A1.43505 1.4284 90 0 1 8.05 58.42 L8.5 58.36 A1.89129 1.88252 90 0 1 8.5 58.88 L8.05
							 58.82 A1.43505 1.4284 90 0 1 7.78 59.48 L8.14 59.76 A1.89129 1.88252 90 0 1 7.77 60.13 L7.5 59.76 A1.43505
							 1.4284 90 0 1 6.84 60.04 L6.9 60.49 A1.88252 1.89129 0 0 1 6.38 60.49 L6.44 60.04 A1.43505 1.4284 90
							 0 1 5.78 59.76 L5.51 60.13" class="st5"/>
			</g>
			<g id="group1015-34" transform="translate(3,-41)" v:mID="1015" v:groupContext="group" v:layerMember="0">
				<title>Sheet.1015</title>
				<g id="shape1016-35" v:mID="1016" v:groupContext="shape" v:layerMember="0">
					<title>Sheet.1016</title>
					<rect x="0" y="55" width="12" height="8" class="st6"/>
				</g>
				<g id="shape1017-37" v:mID="1017" v:groupContext="shape" v:layerMember="0"
						transform="translate(-1.9984E-15,-4.20339)">
					<title>Sheet.1017</title>
				</g>
			</g>
			<g id="shape1018-39" v:mID="1018" v:groupContext="shape" v:layerMember="0" transform="translate(3,-41)">
				<title>Sheet.1018</title>
			</g>
			<g id="shape1019-41" v:mID="1019" v:groupContext="shape" v:layerMember="0" transform="translate(4,-40)">
				<title>Sheet.1019</title>
			</g>
			<g id="shape1020-43" v:mID="1020" v:groupContext="shape" v:layerMember="0" transform="translate(3.5,-41)">
				<title>Sheet.1020</title>
			</g>
			<g id="shape1021-45" v:mID="1021" v:groupContext="shape" v:layerMember="0" transform="translate(3.5,-41)">
				<title>Sheet.1021</title>
			</g>
			<g id="shape1022-47" v:mID="1022" v:groupContext="shape" v:layerMember="0"
					transform="translate(-15.624,58.2624) rotate(-90)">
				<title>Sheet.1022</title>
				<v:userDefs>
					<v:ud v:nameU="BpmnIconPosition" v:prompt="" v:val="VT0(1):26"/>
					<v:ud v:nameU="BpmnIconWidth" v:prompt="" v:val="VT0(0.18):26"/>
				</v:userDefs>
			</g>
			<g id="shape1000-49" v:mID="1000" v:groupContext="groupContent" v:layerMember="0">
				<v:textBlock v:margins="rect(2,2,2,2)"/>
				<v:textRect cx="36" cy="36" width="72" height="54"/>
				<text x="8.04" y="33.6" class="st7" v:langID="1029"><v:paragraph v:horizAlign="1"/><v:tabList/>L0: Check against <v:newlineChar/><tspan
							x="13.17" dy="1.2em" class="st8">Correction list</tspan></text>			</g>
		</g>
		<g id="group1023-52" transform="translate(94.5,-4.49998)" v:mID="1023" v:groupContext="group" v:layerMember="0">
			<v:custProps>
				<v:cp v:nameU="BpmnId" v:lbl="Id" v:prompt="" v:type="0" v:format="" v:sortKey="" v:invis="true" v:ask="false"
						v:langID="1033" v:cal="0" v:val="VT4()"/>
				<v:cp v:nameU="BpmnCategories" v:lbl="Categories" v:prompt="" v:type="0" v:format="" v:sortKey="" v:invis="false"
						v:ask="false" v:langID="1033" v:cal="0" v:val="VT4()"/>
				<v:cp v:nameU="BpmnDocumentation" v:lbl="Documentation" v:prompt="" v:type="0" v:format="" v:sortKey=""
						v:invis="false" v:ask="false" v:langID="1033" v:cal="0" v:val="VT4()"/>
				<v:cp v:nameU="BpmnName" v:lbl="Name" v:prompt="" v:type="0" v:format="" v:sortKey="" v:invis="true" v:ask="false"
						v:langID="1033" v:cal="0" v:val="VT4()"/>
				<v:cp v:nameU="BpmnActivityType" v:lbl="ActivityType" v:prompt="" v:type="1" v:format="Task;Sub-Process"
						v:sortKey="" v:invis="true" v:ask="false" v:langID="1033" v:cal="0" v:val="VT4(Task)"/>
				<v:cp v:nameU="BpmnLoopType" v:lbl="LoopType" v:prompt="" v:type="1"
						v:format="None;Standard;Parallel MultiInstance;Sequential MultiInstance" v:sortKey="" v:invis="false"
						v:ask="false" v:langID="1033" v:cal="0" v:val="VT4(None)"/>
				<v:cp v:nameU="BpmnTaskType" v:lbl="TaskType" v:prompt="" v:type="1"
						v:format="None;Service;Receive;Send;User;Script;Abstract;Manual;Instantiating Receive;Business Rule"
						v:sortKey="" v:invis="false" v:ask="false" v:langID="1033" v:cal="0" v:val="VT4(None)"/>
				<v:cp v:nameU="BpmnScript" v:lbl="Script" v:prompt="" v:type="0" v:format="" v:sortKey="" v:invis="true"
						v:ask="false" v:langID="1033" v:cal="0" v:val="VT4()"/>
				<v:cp v:nameU="BpmnInstantiate" v:lbl="Instantiate" v:prompt="" v:type="3" v:format="" v:sortKey="" v:invis="true"
						v:ask="false" v:langID="1033" v:cal="0" v:val="VT0(0):5"/>
				<v:cp v:nameU="BpmnSubProcessType" v:lbl="SubProcessType" v:prompt="" v:type="1"
						v:format="Embedded;Reusable;Reference" v:sortKey="" v:invis="true" v:ask="false" v:langID="1033" v:cal="0"
						v:val="VT4(Embedded)"/>
				<v:cp v:nameU="BpmnIsCollapsed" v:lbl="IsCollapsed" v:prompt="" v:type="3" v:format="" v:sortKey="" v:invis="true"
						v:ask="false" v:langID="1033" v:cal="0" v:val="VT0(0):5"/>
				<v:cp v:nameU="BpmnIsATransaction" v:lbl="IsATransaction" v:prompt="" v:type="3" v:format="" v:sortKey=""
						v:invis="true" v:ask="false" v:langID="1033" v:cal="0" v:val="VT0(0):5"/>
				<v:cp v:nameU="BpmnIsForCompensation" v:lbl="IsForCompensation" v:prompt="" v:type="3" v:format="" v:sortKey=""
						v:invis="false" v:ask="false" v:langID="1033" v:cal="0" v:val="VT0(0):5"/>
				<v:cp v:nameU="BpmnElementType" v:lbl="ElementType" v:prompt="" v:type="1"
						v:format="Sub-Process;Event;Gateway;Process Diagram;Pool;Lane;Artifact;Connecting Object" v:sortKey=""
						v:invis="true" v:ask="false" v:langID="1033" v:cal="0" v:val="VT4(Sub-Process)"/>
				<v:cp v:nameU="BpmnAdHoc" v:lbl="AdHoc" v:prompt="" v:type="3" v:format="" v:sortKey="" v:invis="true"
						v:ask="false" v:langID="1033" v:cal="0" v:val="VT0(0):5"/>
				<v:cp v:nameU="BpmnAdHocOrdering" v:lbl="AdHocOrdering" v:prompt="" v:type="1" v:format="Sequential;Parallel"
						v:sortKey="" v:invis="true" v:ask="false" v:langID="1033" v:cal="0" v:val="VT4(Parallel)"/>
				<v:cp v:nameU="BpmnBoundaryType" v:lbl="BoundaryType" v:prompt="" v:type="1" v:format="Default;Call" v:sortKey=""
						v:invis="false" v:ask="false" v:langID="1033" v:cal="0" v:val="VT4(Default)"/>
				<v:cp v:nameU="BpmnName" v:lbl="" v:prompt="" v:type="0" v:format="" v:sortKey="" v:invis="false" v:ask="false"
						v:langID="0" v:cal="0" v:val="VT4(L0: Take the distance + calculate price)"/>
				<v:cp v:nameU="BpmnTaskType" v:lbl="" v:prompt="" v:type="0" v:format="" v:sortKey="" v:invis="false" v:ask="false"
						v:langID="0" v:cal="0" v:val="VT4(Service)"/>
			</v:custProps>
			<v:userDefs>
				<v:ud v:nameU="BpmnNumIconsVisible" v:prompt="" v:val="VT0(0):26"/>
				<v:ud v:nameU="BpmnIsExtendedSubProcess" v:prompt="" v:val="VT0(0):5"/>
				<v:ud v:nameU="msvStructureType" v:prompt="" v:val="VT0(0):26"/>
				<v:ud v:nameU="msvSDContainerResize" v:prompt="" v:val="VT0(0):26"/>
				<v:ud v:nameU="visVersion" v:prompt="" v:val="VT0(15):26"/>
				<v:ud v:nameU="msvShapeCategories" v:prompt="" v:val="VT4(Task)"/>
				<v:ud v:nameU="BpmnIconHeight" v:prompt="" v:val="VT0(0.16):0"/>
				<v:ud v:nameU="BpmnIconPinY" v:prompt="" v:val="VT0(0.125):0"/>
				<v:ud v:nameU="BpmnBoundaryType" v:prompt="" v:val="VT0(0):26"/>
				<v:ud v:nameU="DefaultWidth" v:prompt="" v:val="VT0(1):0"/>
				<v:ud v:nameU="DefaultHeight" v:prompt="" v:val="VT0(0.75):0"/>
				<v:ud v:nameU="ResizeTxtHeight" v:prompt="" v:val="VT0(0.75):0"/>
				<v:ud v:nameU="IsInstance" v:prompt="" v:val="VT0(0):5"/>
				<v:ud v:nameU="IsInstance" v:prompt="" v:val="VT0(1):5"/>
			</v:userDefs>
			<title>Task.1604</title>
			<desc>L0: Take the distance + calculate price</desc>
			<g id="shape1024-53" v:mID="1024" v:groupContext="shape" v:layerMember="0">
				<title>Sheet.1024</title>
				<rect x="0" y="9" width="72" height="54" rx="5.76" ry="5.76" class="st1"/>
			</g>
			<g id="group1025-55" v:mID="1025" v:groupContext="group" v:layerMember="0">
				<title>Sheet.1025</title>
				<g id="shape1026-56" v:mID="1026" v:groupContext="shape" v:layerMember="0">
					<title>Sheet.1026</title>
					<rect x="0" y="9" width="72" height="54" rx="2.16" ry="2.16" class="st2"/>
				</g>
				<g id="shape1027-58" v:mID="1027" v:groupContext="shape" v:layerMember="0" transform="translate(1.8,-1.8)">
					<title>Sheet.1027</title>
					<rect x="0" y="12.6" width="68.4" height="50.4" rx="2.16" ry="2.16" class="st2"/>
				</g>
			</g>
			<g id="shape1028-60" v:mID="1028" v:groupContext="shape" v:layerMember="0" transform="translate(36.72,-2.52)">
				<title>Sheet.1028</title>
				<v:userDefs>
					<v:ud v:nameU="BpmnIconPosition" v:prompt="" v:val="VT0(1):26"/>
					<v:ud v:nameU="BpmnIconWidth" v:prompt="" v:val="VT0(0.18):26"/>
				</v:userDefs>
			</g>
			<g id="group1029-62" transform="translate(37.08,-3.24)" v:mID="1029" v:groupContext="group" v:layerMember="0">
				<v:userDefs>
					<v:ud v:nameU="BpmnIconPosition" v:prompt="" v:val="VT0(1):26"/>
					<v:ud v:nameU="BpmnIconWidth" v:prompt="" v:val="VT0(0.19):26"/>
				</v:userDefs>
				<title>Sheet.1029</title>
				<g id="shape1030-63" v:mID="1030" v:groupContext="shape" v:layerMember="0">
					<title>Sheet.1030</title>
					<rect x="0" y="51.48" width="11.52" height="11.52" class="st3"/>
				</g>
				<g id="shape1031-65" v:mID="1031" v:groupContext="shape" v:layerMember="0" transform="translate(2.88,-2.88)">
					<title>Sheet.1031</title>
				</g>
			</g>
			<g id="shape1032-67" v:mID="1032" v:groupContext="shape" v:layerMember="0" transform="translate(37.08,-4.104)">
				<title>Sheet.1032</title>
				<v:userDefs>
					<v:ud v:nameU="BpmnIconPosition" v:prompt="" v:val="VT0(1):26"/>
					<v:ud v:nameU="BpmnIconWidth" v:prompt="" v:val="VT0(0.19):26"/>
				</v:userDefs>
			</g>
			<g id="shape1033-69" v:mID="1033" v:groupContext="shape" v:layerMember="0" transform="translate(38.2176,-4.104)">
				<title>Sheet.1033</title>
				<v:userDefs>
					<v:ud v:nameU="BpmnIconPosition" v:prompt="" v:val="VT0(1):26"/>
					<v:ud v:nameU="BpmnIconWidth" v:prompt="" v:val="VT0(0.18):26"/>
				</v:userDefs>
			</g>
			<g id="group1034-71" transform="translate(36.72,-3.24)" v:mID="1034" v:groupContext="group" v:layerMember="0">
				<v:userDefs>
					<v:ud v:nameU="BpmnIconPosition" v:prompt="" v:val="VT0(1):26"/>
					<v:ud v:nameU="BpmnIconWidth" v:prompt="" v:val="VT0(0.18):26"/>
				</v:userDefs>
				<title>Sheet.1034</title>
				<g id="shape1035-72" v:mID="1035" v:groupContext="shape" v:layerMember="0"
						transform="translate(7.75464,115.501) rotate(179.753)">
					<title>Sheet.1035</title>
				</g>
			</g>
			<g id="shape1036-75" v:mID="1036" v:groupContext="shape" v:layerMember="0" transform="translate(4,-40)">
				<title>Sheet.1036</title>
			</g>
			<g id="shape1037-77" v:mID="1037" v:groupContext="shape" v:layerMember="0" transform="translate(3.5,-39.5)">
				<title>Sheet.1037</title>
				<path d="M7.19 54.66 L7.1 55.33 A3.28243 3.26721 0 0 1 7.53 55.42 A3.3556 3.34005 -180 0 0 7.19 54.66" class="st5"/>
				<path d="M3.47 59.58 A3.36678 3.35118 0 0 1 3.36 59.08 L2.59 59.19 A3.29396 3.2787 -180 0 0 3.47 59.58" class="st5"/>
				<path d="M2.31 59.12 A4.44263 4.42203 0 0 1 2.32 58.01 L3.36 58.16 A3.36597 3.35037 0 0 1 3.51 57.53 L3.5 57.53 L3.23
							 57.89 A1.89129 1.88252 90 0 1 2.86 57.52 L3.22 57.25 A1.43505 1.4284 90 0 1 2.95 56.58 L2.5 56.64 A1.89129
							 1.88252 90 0 1 2.5 56.12 L2.95 56.18 A1.43505 1.4284 90 0 1 3.22 55.52 L2.86 55.24 A1.88251 1.89128
							 0.02 0 1 3.23 54.87 L3.5 55.24 A1.43505 1.4284 90 0 1 4.16 54.96 L4.1 54.51 A1.89129 1.88252 90 0 1
							 4.62 54.51 L4.56 54.96 A1.43505 1.4284 90 0 1 5.22 55.24 L5.49 54.87 A1.89129 1.88252 90 0 1 5.86 55.24
							 L5.56 55.48 A3.28371 3.26849 0 0 1 6.18 55.33 L6.03 54.28 A4.32119 4.30116 0 0 1 7.15 54.27 L7.84 53.74
							 A4.38176 4.36145 -180 0 0 6.99 52.88 L6.35 53.73 A3.29272 3.27746 -180 0 0 4.82 53.09 L4.97 52.04 A4.32123
							 4.3012 -180 0 0 3.75 52.04 L3.9 53.09 A3.29272 3.27746 -180 0 0 2.37 53.73 L1.74 52.88 A4.38176 4.36145
							 -180 0 0 0.88 53.74 L1.72 54.38 A3.35686 3.3413 -180 0 0 1.08 55.92 L0.04 55.77 A4.44258 4.42199 -180
							 0 0 0.04 56.99 L1.08 56.84 A3.35686 3.3413 -180 0 0 1.72 58.38 L0.88 59.02 A4.38176 4.36145 -180 0 0
							 1.74 59.88 L2.31 59.12" class="st5"/>
				<path d="M4.01 62.12 A4.38176 4.36145 0 0 1 3.16 61.26 L4 60.62 A3.35686 3.3413 0 0 1 3.36 59.08 L2.32 59.23 A4.44258
							 4.42199 0 0 1 2.32 58.01 L3.36 58.16 A3.35686 3.3413 0 0 1 4 56.62 L3.16 55.98 A4.38176 4.36145 0 0
							 1 4.01 55.12 L4.65 55.96 A3.29272 3.27746 0 0 1 6.18 55.33 L6.03 54.28 A4.32123 4.3012 0 0 1 7.25 54.28
							 L7.1 55.33 A3.29272 3.27746 0 0 1 8.63 55.96 L9.26 55.12 A4.38176 4.36145 0 0 1 10.12 55.98 L9.28 56.62
							 A3.35686 3.3413 0 0 1 9.92 58.16 L10.96 58.01 A4.44258 4.42199 0 0 1 10.96 59.23 L9.92 59.08 A3.35686
							 3.3413 0 0 1 9.28 60.62 L10.12 61.26 A4.38176 4.36145 0 0 1 9.26 62.12 L8.63 61.27 A3.29272 3.27746
							 0 0 1 7.1 61.91 L7.25 62.96 A4.36117 4.38148 0 0 1 6.03 62.96 L6.18 61.91 A3.29272 3.27746 0 0 1 4.65
							 61.27 L4.01 62.12" class="st5"/>
				<path d="M5.51 60.13 A1.89129 1.88252 90 0 1 5.14 59.76 L5.5 59.48 A1.43505 1.4284 90 0 1 5.22 58.82 L4.77 58.88
							 A1.89129 1.88252 90 0 1 4.77 58.36 L5.22 58.42 A1.43505 1.4284 90 0 1 5.5 57.75 L5.14 57.48 A1.88251
							 1.89128 0.02 0 1 5.51 57.11 L5.78 57.47 A1.43505 1.4284 90 0 1 6.44 57.2 L6.38 56.75 A1.89129 1.88252
							 90 0 1 6.9 56.75 L6.84 57.2 A1.43505 1.4284 90 0 1 7.5 57.47 L7.77 57.11 A1.89129 1.88252 90 0 1 8.14
							 57.48 L7.78 57.75 A1.43505 1.4284 90 0 1 8.05 58.42 L8.5 58.36 A1.89129 1.88252 90 0 1 8.5 58.88 L8.05
							 58.82 A1.43505 1.4284 90 0 1 7.78 59.48 L8.14 59.76 A1.89129 1.88252 90 0 1 7.77 60.13 L7.5 59.76 A1.43505
							 1.4284 90 0 1 6.84 60.04 L6.9 60.49 A1.88252 1.89129 0 0 1 6.38 60.49 L6.44 60.04 A1.43505 1.4284 90
							 0 1 5.78 59.76 L5.51 60.13" class="st5"/>
			</g>
			<g id="group1038-84" transform="translate(3,-41)" v:mID="1038" v:groupContext="group" v:layerMember="0">
				<title>Sheet.1038</title>
				<g id="shape1039-85" v:mID="1039" v:groupContext="shape" v:layerMember="0">
					<title>Sheet.1039</title>
					<rect x="0" y="55" width="12" height="8" class="st6"/>
				</g>
				<g id="shape1040-87" v:mID="1040" v:groupContext="shape" v:layerMember="0"
						transform="translate(-1.9984E-15,-4.20339)">
					<title>Sheet.1040</title>
				</g>
			</g>
			<g id="shape1041-89" v:mID="1041" v:groupContext="shape" v:layerMember="0" transform="translate(3,-41)">
				<title>Sheet.1041</title>
			</g>
			<g id="shape1042-91" v:mID="1042" v:groupContext="shape" v:layerMember="0" transform="translate(4,-40)">
				<title>Sheet.1042</title>
			</g>
			<g id="shape1043-93" v:mID="1043" v:groupContext="shape" v:layerMember="0" transform="translate(3.5,-41)">
				<title>Sheet.1043</title>
			</g>
			<g id="shape1044-95" v:mID="1044" v:groupContext="shape" v:layerMember="0" transform="translate(3.5,-41)">
				<title>Sheet.1044</title>
			</g>
			<g id="shape1045-97" v:mID="1045" v:groupContext="shape" v:layerMember="0"
					transform="translate(-15.624,58.2624) rotate(-90)">
				<title>Sheet.1045</title>
				<v:userDefs>
					<v:ud v:nameU="BpmnIconPosition" v:prompt="" v:val="VT0(1):26"/>
					<v:ud v:nameU="BpmnIconWidth" v:prompt="" v:val="VT0(0.18):26"/>
				</v:userDefs>
			</g>
			<g id="shape1023-99" v:mID="1023" v:groupContext="groupContent" v:layerMember="0">
				<v:textBlock v:margins="rect(2,2,2,2)"/>
				<v:textRect cx="36" cy="36" width="72" height="54"/>
				<text x="16.31" y="28.8" class="st7" v:langID="1029"><v:paragraph v:horizAlign="1"/><v:tabList/>L0: Take the <tspan
							x="4.09" dy="1.2em" class="st8">distance + calculate </tspan><tspan x="27.9" dy="1.2em" class="st8">price</tspan></text>			</g>
		</g>
	</g>
</svg>
