<?xml version="1.0" encoding="UTF-8" standalone="no"?>
<!DOCTYPE svg PUBLIC "-//W3C//DTD SVG 1.1//EN" "http://www.w3.org/Graphics/SVG/1.1/DTD/svg11.dtd">
<!-- Generated by Microsoft Visio, SVG Export F7_tab2_colorcoding.svg Analytics color coding -->
<svg xmlns="http://www.w3.org/2000/svg" xmlns:xlink="http://www.w3.org/1999/xlink" xmlns:ev="http://www.w3.org/2001/xml-events"
		xmlns:v="http://schemas.microsoft.com/visio/2003/SVGExtensions/" width="7.15625in" height="4.09375in"
		viewBox="0 0 515.25 294.75" xml:space="preserve" color-interpolation-filters="sRGB" class="st17">
	<v:documentProperties v:langID="1033" v:viewMarkup="false">
		<v:custProps>
			<v:cp v:nameU="BpmnElementType" v:lbl="BPMN Element Type" v:prompt="" v:type="1"
					v:format="Sub-Process;Event;Gateway;Process Diagram;Pool;Lane;Artifact;Connecting Object" v:sortKey=""
					v:invis="true" v:ask="false" v:langID="1033" v:cal="0" v:val="VT4(Process Diagram)"/>
			<v:cp v:nameU="BpmnId" v:lbl="Id" v:prompt="" v:type="0" v:format="" v:sortKey="" v:invis="true" v:ask="false"
					v:langID="1033" v:cal="0" v:val="VT0(0):26"/>
			<v:cp v:nameU="BpmnName" v:lbl="Name" v:prompt="" v:type="0" v:format="" v:sortKey="" v:invis="true" v:ask="false"
					v:langID="1033" v:cal="0" v:val="VT4()"/>
			<v:cp v:nameU="BpmnVersion" v:lbl="Version" v:prompt="" v:type="0" v:format="" v:sortKey="" v:invis="false"
					v:ask="false" v:langID="1033" v:cal="0" v:val="VT4()"/>
			<v:cp v:nameU="BpmnAuthor" v:lbl="Author" v:prompt="" v:type="0" v:format="" v:sortKey="" v:invis="false" v:ask="false"
					v:langID="1033" v:cal="0" v:val="VT4()"/>
			<v:cp v:nameU="BpmnLanguage" v:lbl="Language" v:prompt="" v:type="0" v:format="" v:sortKey="" v:invis="false"
					v:ask="false" v:langID="1033" v:cal="0" v:val="VT4()"/>
			<v:cp v:nameU="BpmnQueryLanguage" v:lbl="Query Language" v:prompt="" v:type="0" v:format="" v:sortKey=""
					v:invis="false" v:ask="false" v:langID="1033" v:cal="0" v:val="VT4()"/>
			<v:cp v:nameU="BpmnCreationDate" v:lbl="Creation Date" v:prompt="" v:type="0" v:format="" v:sortKey="" v:invis="false"
					v:ask="false" v:langID="1033" v:cal="0" v:val="VT4()"/>
			<v:cp v:nameU="BpmnModificationDate" v:lbl="Modification Date" v:prompt="" v:type="0" v:format="" v:sortKey=""
					v:invis="false" v:ask="false" v:langID="1033" v:cal="0" v:val="VT4()"/>
			<v:cp v:nameU="BpmnDocumentation" v:lbl="Documentation" v:prompt="" v:type="0" v:format="" v:sortKey="" v:invis="false"
					v:ask="false" v:langID="1033" v:cal="0" v:val="VT4()"/>
		</v:custProps>
		<v:userDefs>
			<v:ud v:nameU="msvSubprocessMaster" v:prompt="" v:val="VT4(Collapsed Sub-Process)"/>
			<v:ud v:nameU="msvNoAutoConnect" v:val="VT0(0):26"/>
			<v:ud v:nameU="visV14CFF" v:prompt="" v:val="VT0(1):26"/>
			<v:ud v:nameU="visFlowchartType" v:prompt="" v:val="VT4(CrossFunctional)"/>
		</v:userDefs>
	</v:documentProperties>

	<style type="text/css">
	<![CDATA[
		.st1 {fill:#ebf1df;stroke:#000000;stroke-linecap:round;stroke-linejoin:round;stroke-width:0.75}
		.st2 {fill:#fee599;stroke:#000000;stroke-linecap:round;stroke-linejoin:round;stroke-width:0.75}
		.st3 {fill:#dbeef3;stroke:#000000;stroke-linecap:round;stroke-linejoin:round;stroke-width:0.75}
		.st4 {fill:none;stroke:none;stroke-linecap:round;stroke-linejoin:round;stroke-width:0.75}
		.st5 {fill:#000000;font-family:Calibri;font-size:1.16666em;font-weight:bold}
		.st6 {font-size:1em}
		.st7 {font-size:0.714294em}
		.st8 {font-size:0.642863em}
		.st9 {fill:#000000;font-family:Calibri;font-size:0.75em;font-weight:bold}
		.st10 {font-size:1.55554em}
		.st11 {fill:#e5b9b5;stroke:#000000;stroke-linecap:round;stroke-linejoin:round;stroke-width:0.75}
		.st12 {fill:#1f1f1f;stroke:none;stroke-linecap:butt;stroke-width:0.01875}
		.st13 {fill:#0070c0;fill-opacity:0.96;stroke:#000000;stroke-linecap:round;stroke-linejoin:round;stroke-width:0.75}
		.st14 {fill:#bfbfbf;stroke:#000000;stroke-linecap:round;stroke-linejoin:round;stroke-width:0.75}
		.st15 {fill:#f8f1eb;stroke:#000000;stroke-dasharray:5.25,3.75;stroke-linecap:round;stroke-linejoin:round;stroke-width:0.75}
		.st16 {fill:#000000;font-family:Calibri;font-size:0.75em}
		.st17 {fill:none;fill-rule:evenodd;font-size:12px;overflow:visible;stroke-linecap:square;stroke-miterlimit:3}
	]]>
	</style>

	<g v:mID="55" v:index="29" v:groupContext="foregroundPage">
		<v:userDefs>
			<v:ud v:nameU="msvThemeOrder" v:val="VT0(0):26"/>
			<v:ud v:nameU="visNavType" v:val="VT0(1):26"/>
		</v:userDefs>
		<title>Analytics color coding</title>
		<v:pageProperties v:drawingScale="1" v:pageScale="1" v:drawingUnits="0" v:shadowOffsetX="9" v:shadowOffsetY="-9"/>
		<v:layer v:name="Flowchart" v:index="0"/>
		<v:layer v:name="Callout" v:index="1"/>
		<v:layer v:name="Connector" v:index="2"/>
		<g id="shape1054-1" v:mID="1054" v:groupContext="shape" v:layerMember="0" transform="translate(418.489,-257.531)">
			<title>Process.1054</title>
			<v:custProps>
				<v:cp v:nameU="Cost" v:lbl="Cost" v:type="7" v:format="@" v:langID="1033"/>
				<v:cp v:nameU="Duration" v:lbl="Duration" v:type="2" v:langID="1033"/>
				<v:cp v:nameU="Resources" v:lbl="Resources" v:langID="1033"/>
			</v:custProps>
			<v:userDefs>
				<v:ud v:nameU="visVersion" v:val="VT0(12):26"/>
				<v:ud v:nameU="visNavOrder" v:val="VT0(36000):26"/>
			</v:userDefs>
			<rect x="0" y="285.75" width="24.7725" height="9" class="st1"/>
		</g>
		<g id="group1000-3" transform="translate(51.75,-213.75)" v:mID="1000" v:groupContext="group">
			<v:userDefs>
				<v:ud v:nameU="visNavOrder" v:val="VT0(1000):26"/>
			</v:userDefs>
			<title>Sheet.1000</title>
			<g id="shape1001-4" v:mID="1001" v:groupContext="shape" v:layerMember="0" transform="translate(37.125,-1.69711E-05)">
				<title>Process.1599</title>
				<v:custProps>
					<v:cp v:nameU="Cost" v:lbl="Cost" v:type="7" v:format="@" v:langID="1033"/>
					<v:cp v:nameU="Duration" v:lbl="Duration" v:type="2" v:langID="1033"/>
					<v:cp v:nameU="Resources" v:lbl="Resources" v:langID="1033"/>
				</v:custProps>
				<v:userDefs>
					<v:ud v:nameU="visVersion" v:val="VT0(12):26"/>
					<v:ud v:nameU="visNavOrder" v:val="VT0(93000):26"/>
				</v:userDefs>
				<rect x="0" y="285.75" width="49.5" height="9" class="st2"/>
			</g>
			<g id="shape1002-6" v:mID="1002" v:groupContext="shape" v:layerMember="0" transform="translate(85.5,-1.69711E-05)">
				<title>Process.1600</title>
				<v:custProps>
					<v:cp v:nameU="Cost" v:lbl="Cost" v:type="7" v:format="@" v:langID="1033"/>
					<v:cp v:nameU="Duration" v:lbl="Duration" v:type="2" v:langID="1033"/>
					<v:cp v:nameU="Resources" v:lbl="Resources" v:langID="1033"/>
				</v:custProps>
				<v:userDefs>
					<v:ud v:nameU="visVersion" v:val="VT0(12):26"/>
					<v:ud v:nameU="visNavOrder" v:val="VT0(92000):26"/>
				</v:userDefs>
				<rect x="0" y="285.75" width="306" height="9" class="st3"/>
			</g>
			<g id="shape1003-8" v:mID="1003" v:groupContext="shape" transform="translate(74.25,-12.5156)">
				<title>Sheet.1003</title>
				<desc>A (From)</desc>
				<v:userDefs>
					<v:ud v:nameU="visNavOrder" v:val="VT0(95000):26"/>
				</v:userDefs>
				<v:textBlock v:margins="rect(4,4,4,4)"/>
				<v:textRect cx="24.75" cy="289.266" width="49.5" height="10.9688"/>
				<rect x="0" y="283.781" width="49.5" height="10.9688" class="st4"/>
				<text x="4.98" y="293.47" class="st5" v:langID="1033"><v:paragraph v:horizAlign="1"/><v:tabList/>A<tspan
							class="st6" v:langID="1029"> </tspan><tspan class="st7" v:langID="1029">(From)</tspan></text>			</g>
			<g id="shape1004-13" v:mID="1004" v:groupContext="shape" transform="translate(366.75,-11.25)">
				<title>Sheet.1004</title>
				<desc>B (To)</desc>
				<v:userDefs>
					<v:ud v:nameU="visNavOrder" v:val="VT0(96000):26"/>
				</v:userDefs>
				<v:textBlock v:margins="rect(4,4,4,4)"/>
				<v:textRect cx="20.25" cy="288" width="40.5" height="13.5"/>
				<rect x="0" y="281.25" width="40.5" height="13.5" class="st4"/>
				<text x="7.29" y="292.2" class="st5" v:langID="1033"><v:paragraph v:horizAlign="1"/><v:tabList/>B<tspan class="st6"
							v:langID="1029"> </tspan><tspan class="st8" v:langID="1029">(To)</tspan></text>			</g>
			<g id="shape1005-18" v:mID="1005" v:groupContext="shape" transform="translate(0,-10.9688)">
				<title>Sheet.1005</title>
				<desc>DTD A</desc>
				<v:userDefs>
					<v:ud v:nameU="visNavOrder" v:val="VT0(97000):26"/>
				</v:userDefs>
				<v:textBlock v:margins="rect(4,4,4,4)"/>
				<v:textRect cx="24.75" cy="288" width="49.5" height="13.5"/>
				<rect x="0" y="281.25" width="49.5" height="13.5" class="st4"/>
				<text x="11.59" y="292.2" class="st9" v:langID="1033"><v:paragraph v:horizAlign="1"/><v:tabList/>DTD <tspan
							class="st10">A</tspan></text>			</g>
			<g id="shape1006-22" v:mID="1006" v:groupContext="shape" transform="translate(423,-11.25)">
				<title>Sheet.1006</title>
				<desc>DTD B</desc>
				<v:userDefs>
					<v:ud v:nameU="visNavOrder" v:val="VT0(98000):26"/>
				</v:userDefs>
				<v:textBlock v:margins="rect(4,4,4,4)"/>
				<v:textRect cx="24.75" cy="288" width="49.5" height="13.5"/>
				<rect x="0" y="281.25" width="49.5" height="13.5" class="st4"/>
				<text x="11.91" y="292.2" class="st9" v:langID="1033"><v:paragraph v:horizAlign="1"/><v:tabList/>DTD <tspan
							class="st10">B</tspan></text>			</g>
			<g id="shape1007-26" v:mID="1007" v:groupContext="shape" v:layerMember="0" transform="translate(391.5,5.68434E-14)">
				<title>Process.1605</title>
				<v:custProps>
					<v:cp v:nameU="Cost" v:lbl="Cost" v:type="7" v:format="@" v:langID="1033"/>
					<v:cp v:nameU="Duration" v:lbl="Duration" v:type="2" v:langID="1033"/>
					<v:cp v:nameU="Resources" v:lbl="Resources" v:langID="1033"/>
				</v:custProps>
				<v:userDefs>
					<v:ud v:nameU="visVersion" v:val="VT0(12):26"/>
					<v:ud v:nameU="visNavOrder" v:val="VT0(94000):26"/>
				</v:userDefs>
				<rect x="0" y="285.75" width="49.5" height="9" class="st11"/>
			</g>
			<g id="group1008-28" transform="translate(231,-14.2501)" v:mID="1008" v:groupContext="group">
				<v:userDefs>
					<v:ud v:nameU="visNavOrder" v:val="VT0(99000):26"/>
				</v:userDefs>
				<title>Sheet.1008</title>
				<g id="shape1009-29" v:mID="1009" v:groupContext="shape">
					<title>Sheet.1009</title>
					<path d="M3.75 294.75 C3.13 294.75 2.59 294.53 2.16 294.09 C1.72 293.66 1.5 293.12 1.5 292.5 L0 292.5 L0 284.25
								 C0 283.84 0.15 283.48 0.44 283.19 C0.73 282.9 1.09 282.75 1.5 282.75 L12 282.75 L12 285.75 L14.25
								 285.75 L16.5 288.75 L16.5 292.5 L15 292.5 C15 293.12 14.78 293.66 14.34 294.09 C13.91 294.53 13.38
								 294.75 12.75 294.75 C12.13 294.75 11.59 294.53 11.16 294.09 C10.72 293.66 10.5 293.12 10.5 292.5
								 L6 292.5 C6 293.12 5.78 293.66 5.34 294.09 C4.91 294.53 4.38 294.75 3.75 294.75 ZM3.75 293.25 C3.96
								 293.25 4.14 293.18 4.28 293.03 C4.43 292.89 4.5 292.71 4.5 292.5 C4.5 292.29 4.43 292.11 4.28 291.97
								 C4.14 291.82 3.96 291.75 3.75 291.75 C3.54 291.75 3.36 291.82 3.22 291.97 C3.07 292.11 3 292.29
								 3 292.5 C3 292.71 3.07 292.89 3.22 293.03 C3.36 293.18 3.54 293.25 3.75 293.25 ZM1.5 291 L2.1 291
								 C2.31 290.77 2.56 290.59 2.83 290.46 C3.11 290.32 3.41 290.25 3.75 290.25 C4.09 290.25 4.39 290.32
								 4.67 290.46 C4.94 290.59 5.19 290.77 5.4 291 L10.5 291 L10.5 284.25 L1.5 284.25 L1.5 291 ZM12.75
								 293.25 C12.96 293.25 13.14 293.18 13.28 293.03 C13.43 292.89 13.5 292.71 13.5 292.5 C13.5 292.29
								 13.43 292.11 13.28 291.97 C13.14 291.82 12.96 291.75 12.75 291.75 C12.54 291.75 12.36 291.82 12.22
								 291.97 C12.07 292.11 12 292.29 12 292.5 C12 292.71 12.07 292.89 12.22 293.03 C12.36 293.18 12.54
								 293.25 12.75 293.25 ZM12 289.5 L15.19 289.5 L13.5 287.25 L12 287.25 L12 289.5 Z" class="st12"/>
				</g>
			</g>
			<g id="group1010-31" transform="translate(54,-15.0001)" v:mID="1010" v:groupContext="group">
				<v:userDefs>
					<v:ud v:nameU="visNavOrder" v:val="VT0(100000):26"/>
				</v:userDefs>
				<title>Sheet.1010</title>
				<g id="shape1011-32" v:mID="1011" v:groupContext="shape">
					<title>Sheet.1011</title>
					<path d="M3.75 294.75 C3.13 294.75 2.59 294.53 2.16 294.09 C1.72 293.66 1.5 293.12 1.5 292.5 L0 292.5 L0 284.25
								 C0 283.84 0.15 283.48 0.44 283.19 C0.73 282.9 1.09 282.75 1.5 282.75 L12 282.75 L12 285.75 L14.25
								 285.75 L16.5 288.75 L16.5 292.5 L15 292.5 C15 293.12 14.78 293.66 14.34 294.09 C13.91 294.53 13.38
								 294.75 12.75 294.75 C12.13 294.75 11.59 294.53 11.16 294.09 C10.72 293.66 10.5 293.12 10.5 292.5
								 L6 292.5 C6 293.12 5.78 293.66 5.34 294.09 C4.91 294.53 4.38 294.75 3.75 294.75 ZM3.75 293.25 C3.96
								 293.25 4.14 293.18 4.28 293.03 C4.43 292.89 4.5 292.71 4.5 292.5 C4.5 292.29 4.43 292.11 4.28 291.97
								 C4.14 291.82 3.96 291.75 3.75 291.75 C3.54 291.75 3.36 291.82 3.22 291.97 C3.07 292.11 3 292.29
								 3 292.5 C3 292.71 3.07 292.89 3.22 293.03 C3.36 293.18 3.54 293.25 3.75 293.25 ZM1.5 291 L2.1 291
								 C2.31 290.77 2.56 290.59 2.83 290.46 C3.11 290.32 3.41 290.25 3.75 290.25 C4.09 290.25 4.39 290.32
								 4.67 290.46 C4.94 290.59 5.19 290.77 5.4 291 L10.5 291 L10.5 284.25 L1.5 284.25 L1.5 291 ZM12.75
								 293.25 C12.96 293.25 13.14 293.18 13.28 293.03 C13.43 292.89 13.5 292.71 13.5 292.5 C13.5 292.29
								 13.43 292.11 13.28 291.97 C13.14 291.82 12.96 291.75 12.75 291.75 C12.54 291.75 12.36 291.82 12.22
								 291.97 C12.07 292.11 12 292.29 12 292.5 C12 292.71 12.07 292.89 12.22 293.03 C12.36 293.18 12.54
								 293.25 12.75 293.25 ZM12 289.5 L15.19 289.5 L13.5 287.25 L12 287.25 L12 289.5 Z" class="st12"/>
				</g>
			</g>
			<g id="group1012-34" transform="translate(410.25,-14.2501)" v:mID="1012" v:groupContext="group">
				<v:userDefs>
					<v:ud v:nameU="visNavOrder" v:val="VT0(101000):26"/>
				</v:userDefs>
				<title>Sheet.1012</title>
				<g id="shape1013-35" v:mID="1013" v:groupContext="shape">
					<title>Sheet.1013</title>
					<path d="M3.75 294.75 C3.13 294.75 2.59 294.53 2.16 294.09 C1.72 293.66 1.5 293.12 1.5 292.5 L0 292.5 L0 284.25
								 C0 283.84 0.15 283.48 0.44 283.19 C0.73 282.9 1.09 282.75 1.5 282.75 L12 282.75 L12 285.75 L14.25
								 285.75 L16.5 288.75 L16.5 292.5 L15 292.5 C15 293.12 14.78 293.66 14.34 294.09 C13.91 294.53 13.38
								 294.75 12.75 294.75 C12.13 294.75 11.59 294.53 11.16 294.09 C10.72 293.66 10.5 293.12 10.5 292.5
								 L6 292.5 C6 293.12 5.78 293.66 5.34 294.09 C4.91 294.53 4.38 294.75 3.75 294.75 ZM3.75 293.25 C3.96
								 293.25 4.14 293.18 4.28 293.03 C4.43 292.89 4.5 292.71 4.5 292.5 C4.5 292.29 4.43 292.11 4.28 291.97
								 C4.14 291.82 3.96 291.75 3.75 291.75 C3.54 291.75 3.36 291.82 3.22 291.97 C3.07 292.11 3 292.29
								 3 292.5 C3 292.71 3.07 292.89 3.22 293.03 C3.36 293.18 3.54 293.25 3.75 293.25 ZM1.5 291 L2.1 291
								 C2.31 290.77 2.56 290.59 2.83 290.46 C3.11 290.32 3.41 290.25 3.75 290.25 C4.09 290.25 4.39 290.32
								 4.67 290.46 C4.94 290.59 5.19 290.77 5.4 291 L10.5 291 L10.5 284.25 L1.5 284.25 L1.5 291 ZM12.75
								 293.25 C12.96 293.25 13.14 293.18 13.28 293.03 C13.43 292.89 13.5 292.71 13.5 292.5 C13.5 292.29
								 13.43 292.11 13.28 291.97 C13.14 291.82 12.96 291.75 12.75 291.75 C12.54 291.75 12.36 291.82 12.22
								 291.97 C12.07 292.11 12 292.29 12 292.5 C12 292.71 12.07 292.89 12.22 293.03 C12.36 293.18 12.54
								 293.25 12.75 293.25 ZM12 289.5 L15.19 289.5 L13.5 287.25 L12 287.25 L12 289.5 Z" class="st12"/>
				</g>
			</g>
		</g>
		<g id="shape1014-37" v:mID="1014" v:groupContext="shape" v:layerMember="0" transform="translate(87.75,-165.375)">
			<title>Process.1600</title>
			<v:custProps>
				<v:cp v:nameU="Cost" v:lbl="Cost" v:type="7" v:format="@" v:langID="1033"/>
				<v:cp v:nameU="Duration" v:lbl="Duration" v:type="2" v:langID="1033"/>
				<v:cp v:nameU="Resources" v:lbl="Resources" v:langID="1033"/>
			</v:custProps>
			<v:userDefs>
				<v:ud v:nameU="visVersion" v:val="VT0(12):26"/>
				<v:ud v:nameU="visNavOrder" v:val="VT0(2000):26"/>
			</v:userDefs>
			<rect x="0" y="285.75" width="405" height="9" class="st13"/>
		</g>
		<g id="shape1015-39" v:mID="1015" v:groupContext="shape" v:layerMember="0" transform="translate(6.74997,-165.375)">
			<title>Process.1015</title>
			<v:custProps>
				<v:cp v:nameU="Cost" v:lbl="Cost" v:type="7" v:format="@" v:langID="1033"/>
				<v:cp v:nameU="Duration" v:lbl="Duration" v:type="2" v:langID="1033"/>
				<v:cp v:nameU="Resources" v:lbl="Resources" v:langID="1033"/>
			</v:custProps>
			<v:userDefs>
				<v:ud v:nameU="visVersion" v:val="VT0(12):26"/>
				<v:ud v:nameU="visNavOrder" v:val="VT0(3000):26"/>
			</v:userDefs>
			<rect x="0" y="285.75" width="81" height="9" class="st14"/>
		</g>
		<g id="shape1016-41" v:mID="1016" v:groupContext="shape" transform="translate(6.74997,-149.625)">
			<title>Sheet.1016</title>
			<desc>Administration</desc>
			<v:userDefs>
				<v:ud v:nameU="visNavOrder" v:val="VT0(4000):26"/>
			</v:userDefs>
			<v:textBlock v:margins="rect(4,4,4,4)"/>
			<v:textRect cx="40.5" cy="288" width="81" height="13.5"/>
			<rect x="0" y="281.25" width="81" height="13.5" class="st4"/>
			<text x="12.4" y="292.2" class="st9" v:langID="1029"><v:paragraph v:horizAlign="1"/><v:tabList/>Administration</text>		</g>
		<g id="shape1017-44" v:mID="1017" v:groupContext="shape" transform="translate(87.75,-149.625)">
			<title>Sheet.1017</title>
			<desc>Transport</desc>
			<v:userDefs>
				<v:ud v:nameU="visNavOrder" v:val="VT0(5000):26"/>
			</v:userDefs>
			<v:textBlock v:margins="rect(4,4,4,4)"/>
			<v:textRect cx="202.5" cy="288" width="405" height="13.5"/>
			<rect x="0" y="281.25" width="405" height="13.5" class="st4"/>
			<text x="184.25" y="292.2" class="st9" v:langID="1029"><v:paragraph v:horizAlign="1"/><v:tabList/>Transport</text>		</g>
		<g id="shape1023-47" v:mID="1023" v:groupContext="shape" v:layerMember="0" transform="translate(162.563,-257.531)">
			<title>Process.1613</title>
			<v:custProps>
				<v:cp v:nameU="Cost" v:lbl="Cost" v:type="7" v:format="@" v:langID="1033"/>
				<v:cp v:nameU="Duration" v:lbl="Duration" v:type="2" v:langID="1033"/>
				<v:cp v:nameU="Resources" v:lbl="Resources" v:langID="1033"/>
			</v:custProps>
			<v:userDefs>
				<v:ud v:nameU="visVersion" v:val="VT0(12):26"/>
				<v:ud v:nameU="visNavOrder" v:val="VT0(8000):26"/>
			</v:userDefs>
			<rect x="0" y="285.75" width="255.937" height="9" class="st3"/>
		</g>
		<g id="shape1024-49" v:mID="1024" v:groupContext="shape" v:layerMember="0" transform="translate(137.79,-257.531)">
			<title>Process.1625</title>
			<v:custProps>
				<v:cp v:nameU="Cost" v:lbl="Cost" v:type="7" v:format="@" v:langID="1033"/>
				<v:cp v:nameU="Duration" v:lbl="Duration" v:type="2" v:langID="1033"/>
				<v:cp v:nameU="Resources" v:lbl="Resources" v:langID="1033"/>
			</v:custProps>
			<v:userDefs>
				<v:ud v:nameU="visVersion" v:val="VT0(12):26"/>
				<v:ud v:nameU="visNavOrder" v:val="VT0(17000):26"/>
			</v:userDefs>
			<rect x="0" y="285.75" width="24.7725" height="9" class="st1"/>
		</g>
		<g id="shape1025-51" v:mID="1025" v:groupContext="shape" transform="translate(151.313,-270.047)">
			<title>Sheet.1025</title>
			<desc>A (From)</desc>
			<v:userDefs>
				<v:ud v:nameU="visNavOrder" v:val="VT0(11000):26"/>
			</v:userDefs>
			<v:textBlock v:margins="rect(4,4,4,4)"/>
			<v:textRect cx="24.75" cy="289.266" width="49.5" height="10.9688"/>
			<rect x="0" y="283.781" width="49.5" height="10.9688" class="st4"/>
			<text x="4.98" y="293.47" class="st5" v:langID="1033"><v:paragraph v:horizAlign="1"/><v:tabList/>A<tspan class="st6"
						v:langID="1029"> </tspan><tspan class="st7" v:langID="1029">(From)</tspan></text>		</g>
		<g id="shape1026-56" v:mID="1026" v:groupContext="shape" transform="translate(393.75,-268.781)">
			<title>Sheet.1026</title>
			<desc>B (To)</desc>
			<v:userDefs>
				<v:ud v:nameU="visNavOrder" v:val="VT0(12000):26"/>
			</v:userDefs>
			<v:textBlock v:margins="rect(4,4,4,4)"/>
			<v:textRect cx="20.25" cy="288" width="40.5" height="13.5"/>
			<rect x="0" y="281.25" width="40.5" height="13.5" class="st4"/>
			<text x="7.29" y="292.2" class="st5" v:langID="1033"><v:paragraph v:horizAlign="1"/><v:tabList/>B<tspan class="st6"
						v:langID="1029"> </tspan><tspan class="st8" v:langID="1029">(To)</tspan></text>		</g>
		<g id="shape1027-61" v:mID="1027" v:groupContext="shape" transform="translate(51.1875,-267.75)">
			<title>Sheet.1027</title>
			<desc>DTD A</desc>
			<v:userDefs>
				<v:ud v:nameU="visNavOrder" v:val="VT0(13000):26"/>
			</v:userDefs>
			<v:textBlock v:margins="rect(4,4,4,4)"/>
			<v:textRect cx="24.75" cy="288" width="49.5" height="13.5"/>
			<rect x="0" y="281.25" width="49.5" height="13.5" class="st4"/>
			<text x="11.59" y="292.2" class="st9" v:langID="1033"><v:paragraph v:horizAlign="1"/><v:tabList/>DTD <tspan
						class="st10">A</tspan></text>		</g>
		<g id="shape1028-65" v:mID="1028" v:groupContext="shape" transform="translate(474.75,-268.781)">
			<title>Sheet.1028</title>
			<desc>DTD B</desc>
			<v:userDefs>
				<v:ud v:nameU="visNavOrder" v:val="VT0(14000):26"/>
			</v:userDefs>
			<v:textBlock v:margins="rect(4,4,4,4)"/>
			<v:textRect cx="24.75" cy="288" width="49.5" height="13.5"/>
			<rect x="0" y="281.25" width="49.5" height="13.5" class="st4"/>
			<text x="11.91" y="292.2" class="st9" v:langID="1033"><v:paragraph v:horizAlign="1"/><v:tabList/>DTD <tspan
						class="st10">B</tspan></text>		</g>
		<g id="group1029-69" transform="translate(105.188,-273)" v:mID="1029" v:groupContext="group">
			<v:userDefs>
				<v:ud v:nameU="visNavOrder" v:val="VT0(15000):26"/>
			</v:userDefs>
			<title>Sheet.1029</title>
			<g id="shape1030-70" v:mID="1030" v:groupContext="shape">
				<title>Sheet.1030</title>
				<path d="M3.75 294.75 C3.13 294.75 2.59 294.53 2.16 294.09 C1.72 293.66 1.5 293.12 1.5 292.5 L0 292.5 L0 284.25 C0
							 283.84 0.15 283.48 0.44 283.19 C0.73 282.9 1.09 282.75 1.5 282.75 L12 282.75 L12 285.75 L14.25 285.75
							 L16.5 288.75 L16.5 292.5 L15 292.5 C15 293.12 14.78 293.66 14.34 294.09 C13.91 294.53 13.38 294.75 12.75
							 294.75 C12.13 294.75 11.59 294.53 11.16 294.09 C10.72 293.66 10.5 293.12 10.5 292.5 L6 292.5 C6 293.12
							 5.78 293.66 5.34 294.09 C4.91 294.53 4.38 294.75 3.75 294.75 ZM3.75 293.25 C3.96 293.25 4.14 293.18
							 4.28 293.03 C4.43 292.89 4.5 292.71 4.5 292.5 C4.5 292.29 4.43 292.11 4.28 291.97 C4.14 291.82 3.96
							 291.75 3.75 291.75 C3.54 291.75 3.36 291.82 3.22 291.97 C3.07 292.11 3 292.29 3 292.5 C3 292.71 3.07
							 292.89 3.22 293.03 C3.36 293.18 3.54 293.25 3.75 293.25 ZM1.5 291 L2.1 291 C2.31 290.77 2.56 290.59
							 2.83 290.46 C3.11 290.32 3.41 290.25 3.75 290.25 C4.09 290.25 4.39 290.32 4.67 290.46 C4.94 290.59 5.19
							 290.77 5.4 291 L10.5 291 L10.5 284.25 L1.5 284.25 L1.5 291 ZM12.75 293.25 C12.96 293.25 13.14 293.18
							 13.28 293.03 C13.43 292.89 13.5 292.71 13.5 292.5 C13.5 292.29 13.43 292.11 13.28 291.97 C13.14 291.82
							 12.96 291.75 12.75 291.75 C12.54 291.75 12.36 291.82 12.22 291.97 C12.07 292.11 12 292.29 12 292.5 C12
							 292.71 12.07 292.89 12.22 293.03 C12.36 293.18 12.54 293.25 12.75 293.25 ZM12 289.5 L15.19 289.5 L13.5
							 287.25 L12 287.25 L12 289.5 Z" class="st12"/>
			</g>
		</g>
		<g id="group1031-72" transform="translate(462,-272.25)" v:mID="1031" v:groupContext="group">
			<v:userDefs>
				<v:ud v:nameU="visNavOrder" v:val="VT0(16000):26"/>
			</v:userDefs>
			<title>Sheet.1031</title>
			<g id="shape1032-73" v:mID="1032" v:groupContext="shape">
				<title>Sheet.1032</title>
				<path d="M3.75 294.75 C3.13 294.75 2.59 294.53 2.16 294.09 C1.72 293.66 1.5 293.12 1.5 292.5 L0 292.5 L0 284.25 C0
							 283.84 0.15 283.48 0.44 283.19 C0.73 282.9 1.09 282.75 1.5 282.75 L12 282.75 L12 285.75 L14.25 285.75
							 L16.5 288.75 L16.5 292.5 L15 292.5 C15 293.12 14.78 293.66 14.34 294.09 C13.91 294.53 13.38 294.75 12.75
							 294.75 C12.13 294.75 11.59 294.53 11.16 294.09 C10.72 293.66 10.5 293.12 10.5 292.5 L6 292.5 C6 293.12
							 5.78 293.66 5.34 294.09 C4.91 294.53 4.38 294.75 3.75 294.75 ZM3.75 293.25 C3.96 293.25 4.14 293.18
							 4.28 293.03 C4.43 292.89 4.5 292.71 4.5 292.5 C4.5 292.29 4.43 292.11 4.28 291.97 C4.14 291.82 3.96
							 291.75 3.75 291.75 C3.54 291.75 3.36 291.82 3.22 291.97 C3.07 292.11 3 292.29 3 292.5 C3 292.71 3.07
							 292.89 3.22 293.03 C3.36 293.18 3.54 293.25 3.75 293.25 ZM1.5 291 L2.1 291 C2.31 290.77 2.56 290.59
							 2.83 290.46 C3.11 290.32 3.41 290.25 3.75 290.25 C4.09 290.25 4.39 290.32 4.67 290.46 C4.94 290.59 5.19
							 290.77 5.4 291 L10.5 291 L10.5 284.25 L1.5 284.25 L1.5 291 ZM12.75 293.25 C12.96 293.25 13.14 293.18
							 13.28 293.03 C13.43 292.89 13.5 292.71 13.5 292.5 C13.5 292.29 13.43 292.11 13.28 291.97 C13.14 291.82
							 12.96 291.75 12.75 291.75 C12.54 291.75 12.36 291.82 12.22 291.97 C12.07 292.11 12 292.29 12 292.5 C12
							 292.71 12.07 292.89 12.22 293.03 C12.36 293.18 12.54 293.25 12.75 293.25 ZM12 289.5 L15.19 289.5 L13.5
							 287.25 L12 287.25 L12 289.5 Z" class="st12"/>
			</g>
		</g>
		<g id="group1033-75" transform="translate(272.897,-271.875)" v:mID="1033" v:groupContext="group">
			<v:userDefs>
				<v:ud v:nameU="visNavOrder" v:val="VT0(19000):26"/>
			</v:userDefs>
			<title>Sheet.1033</title>
			<g id="shape1034-76" v:mID="1034" v:groupContext="shape">
				<title>Sheet.1034</title>
				<path d="M0 290.62 L0 283.5 C0 282.84 0.17 282.31 0.52 281.92 C0.86 281.52 1.31 281.22 1.88 281.02 C2.44 280.81 3.08
							 280.67 3.8 280.6 C4.52 280.53 5.25 280.5 6 280.5 C6.83 280.5 7.6 280.53 8.33 280.6 C9.07 280.67 9.7
							 280.81 10.25 281.02 C10.79 281.22 11.22 281.52 11.53 281.92 C11.84 282.31 12 282.84 12 283.5 L12 290.62
							 C12 291.36 11.75 291.98 11.24 292.49 C10.73 293 10.11 293.25 9.38 293.25 L10.5 294.37 L10.5 294.75 L9
							 294.75 L7.5 293.25 L4.5 293.25 L3 294.75 L1.5 294.75 L1.5 294.37 L2.63 293.25 C1.89 293.25 1.27 293
							 0.76 292.49 C0.25 291.98 0 291.36 0 290.62 ZM6 282 C4.68 282 3.71 282.08 3.09 282.23 C2.48 282.39 2.06
							 282.56 1.84 282.75 L10.24 282.75 C10.05 282.54 9.65 282.36 9.03 282.22 C8.41 282.07 7.4 282 6 282 ZM1.5
							 286.5 L5.25 286.5 L5.25 284.25 L1.5 284.25 L1.5 286.5 ZM9.38 288 L1.5 288 L10.5 288 L9.38 288 ZM6.75
							 286.5 L10.5 286.5 L10.5 284.25 L6.75 284.25 L6.75 286.5 ZM3.38 291 C3.7 291 3.97 290.89 4.18 290.68
							 C4.39 290.47 4.5 290.2 4.5 289.87 C4.5 289.55 4.39 289.28 4.18 289.07 C3.97 288.86 3.7 288.75 3.38 288.75
							 C3.05 288.75 2.78 288.86 2.57 289.07 C2.36 289.28 2.25 289.55 2.25 289.87 C2.25 290.2 2.36 290.47 2.57
							 290.68 C2.78 290.89 3.05 291 3.38 291 ZM8.63 291 C8.95 291 9.22 290.89 9.43 290.68 C9.64 290.47 9.75
							 290.2 9.75 289.87 C9.75 289.55 9.64 289.28 9.43 289.07 C9.22 288.86 8.95 288.75 8.63 288.75 C8.3 288.75
							 8.03 288.86 7.82 289.07 C7.61 289.28 7.5 289.55 7.5 289.87 C7.5 290.2 7.61 290.47 7.82 290.68 C8.03
							 290.89 8.3 291 8.63 291 ZM2.63 291.75 L9.38 291.75 C9.7 291.75 9.97 291.64 10.18 291.43 C10.39 291.22
							 10.5 290.95 10.5 290.62 L10.5 288 L1.5 288 L1.5 290.62 C1.5 290.95 1.61 291.22 1.82 291.43 C2.03 291.64
							 2.3 291.75 2.63 291.75 ZM6 282.75 L10.24 282.75 L1.84 282.75 L6 282.75 Z" class="st12"/>
			</g>
		</g>
		<g id="group1035-78" transform="translate(290.044,-272.438)" v:mID="1035" v:groupContext="group">
			<v:userDefs>
				<v:ud v:nameU="visNavOrder" v:val="VT0(20000):26"/>
			</v:userDefs>
			<title>Sheet.1035</title>
			<g id="shape1036-79" v:mID="1036" v:groupContext="shape">
				<title>Sheet.1036</title>
				<path d="M5.31 294.75 L3.45 291.3 L0 289.44 L1.33 288.13 L4.05 288.6 L5.96 286.69 L0.02 284.16 L1.59 282.54 L8.81
							 283.82 L11.14 281.49 C11.42 281.21 11.78 281.06 12.21 281.06 C12.63 281.06 12.99 281.21 13.27 281.49
							 C13.56 281.78 13.71 282.13 13.71 282.55 C13.71 282.97 13.56 283.32 13.27 283.61 L10.93 285.96 L12.21
							 293.16 L10.61 294.75 L8.06 288.81 L6.15 290.72 L6.64 293.42 L5.31 294.75 Z" class="st12"/>
			</g>
		</g>
		<g id="shape1038-81" v:mID="1038" v:groupContext="shape" v:layerMember="0" transform="translate(88.3125,-257.531)">
			<title>Process.1612</title>
			<v:custProps>
				<v:cp v:nameU="Cost" v:lbl="Cost" v:type="7" v:format="@" v:langID="1033"/>
				<v:cp v:nameU="Duration" v:lbl="Duration" v:type="2" v:langID="1033"/>
				<v:cp v:nameU="Resources" v:lbl="Resources" v:langID="1033"/>
			</v:custProps>
			<v:userDefs>
				<v:ud v:nameU="visVersion" v:val="VT0(12):26"/>
				<v:ud v:nameU="visNavOrder" v:val="VT0(9000):26"/>
			</v:userDefs>
			<rect x="0" y="285.75" width="49.5" height="9" class="st2"/>
		</g>
		<g id="shape1039-83" v:mID="1039" v:groupContext="shape" v:layerMember="0" transform="translate(186.75,-202.5)">
			<title>Process.1039</title>
			<v:custProps>
				<v:cp v:nameU="Cost" v:lbl="Cost" v:type="7" v:format="@" v:langID="1033"/>
				<v:cp v:nameU="Duration" v:lbl="Duration" v:type="2" v:langID="1033"/>
				<v:cp v:nameU="Resources" v:lbl="Resources" v:langID="1033"/>
			</v:custProps>
			<v:userDefs>
				<v:ud v:nameU="visVersion" v:val="VT0(12):26"/>
				<v:ud v:nameU="visNavOrder" v:val="VT0(21000):26"/>
			</v:userDefs>
			<path d="M0 294.75 L24.77 294.75 L24.77 285.75 L0 285.75 L0 294.75 Z" class="st15"/>
		</g>
		<g id="shape1040-85" v:mID="1040" v:groupContext="shape" v:layerMember="0" transform="translate(321.75,-202.5)">
			<title>Process.1040</title>
			<v:custProps>
				<v:cp v:nameU="Cost" v:lbl="Cost" v:type="7" v:format="@" v:langID="1033"/>
				<v:cp v:nameU="Duration" v:lbl="Duration" v:type="2" v:langID="1033"/>
				<v:cp v:nameU="Resources" v:lbl="Resources" v:langID="1033"/>
			</v:custProps>
			<v:userDefs>
				<v:ud v:nameU="visVersion" v:val="VT0(12):26"/>
				<v:ud v:nameU="visNavOrder" v:val="VT0(22000):26"/>
			</v:userDefs>
			<path d="M0 294.75 L40.5 294.75 L40.5 285.75 L0 285.75 L0 294.75 Z" class="st15"/>
		</g>
		<g id="shape1041-87" v:mID="1041" v:groupContext="shape" v:layerMember="0" transform="translate(6.75,-102.375)">
			<title>Process.1041</title>
			<v:custProps>
				<v:cp v:nameU="Cost" v:lbl="Cost" v:type="7" v:format="@" v:langID="1033"/>
				<v:cp v:nameU="Duration" v:lbl="Duration" v:type="2" v:langID="1033"/>
				<v:cp v:nameU="Resources" v:lbl="Resources" v:langID="1033"/>
			</v:custProps>
			<v:userDefs>
				<v:ud v:nameU="visVersion" v:val="VT0(12):26"/>
				<v:ud v:nameU="visNavOrder" v:val="VT0(23000):26"/>
			</v:userDefs>
			<rect x="0" y="285.75" width="24.7725" height="9" class="st1"/>
		</g>
		<g id="shape1042-89" v:mID="1042" v:groupContext="shape" v:layerMember="0" transform="translate(6.75,-84.375)">
			<title>Process.1042</title>
			<v:custProps>
				<v:cp v:nameU="Cost" v:lbl="Cost" v:type="7" v:format="@" v:langID="1033"/>
				<v:cp v:nameU="Duration" v:lbl="Duration" v:type="2" v:langID="1033"/>
				<v:cp v:nameU="Resources" v:lbl="Resources" v:langID="1033"/>
			</v:custProps>
			<v:userDefs>
				<v:ud v:nameU="visVersion" v:val="VT0(12):26"/>
				<v:ud v:nameU="visNavOrder" v:val="VT0(24000):26"/>
			</v:userDefs>
			<path d="M0 294.75 L24.77 294.75 L24.77 285.75 L0 285.75 L0 294.75 Z" class="st15"/>
		</g>
		<g id="shape1043-91" v:mID="1043" v:groupContext="shape" transform="translate(36,-101.25)">
			<title>Sheet.1043</title>
			<desc>Shipment transfer Truck &#60;-&#62; Train/Airplane for DTD</desc>
			<v:userDefs>
				<v:ud v:nameU="visNavOrder" v:val="VT0(25000):26"/>
			</v:userDefs>
			<v:textBlock v:margins="rect(4,4,4,4)"/>
			<v:textRect cx="99" cy="288" width="198" height="13.5"/>
			<rect x="0" y="281.25" width="198" height="13.5" class="st4"/>
			<text x="5.43" y="292.2" class="st16" v:langID="1029"><v:paragraph v:horizAlign="1"/><v:tabList/>Shipment transfer Truck &#60;-&#62; Train/Airplane for DTD</text>		</g>
		<g id="shape1044-94" v:mID="1044" v:groupContext="shape" transform="translate(37.125,-83.8125)">
			<title>Sheet.1044</title>
			<desc>Mandatory breaks for Truck driver (when longer distance)</desc>
			<v:userDefs>
				<v:ud v:nameU="visNavOrder" v:val="VT0(26000):26"/>
			</v:userDefs>
			<v:textBlock v:margins="rect(4,4,4,4)"/>
			<v:textRect cx="115.313" cy="288" width="230.63" height="13.5"/>
			<rect x="0" y="281.25" width="230.625" height="13.5" class="st4"/>
			<text x="4" y="292.2" class="st16" v:langID="1029"><v:paragraph/><v:tabList/>Mandatory breaks for Truck driver (when longer distance)</text>		</g>
		<g id="shape1045-97" v:mID="1045" v:groupContext="shape" v:layerMember="0" transform="translate(6.75,-67.5)">
			<title>Process.1045</title>
			<v:custProps>
				<v:cp v:nameU="Cost" v:lbl="Cost" v:type="7" v:format="@" v:langID="1033"/>
				<v:cp v:nameU="Duration" v:lbl="Duration" v:type="2" v:langID="1033"/>
				<v:cp v:nameU="Resources" v:lbl="Resources" v:langID="1033"/>
			</v:custProps>
			<v:userDefs>
				<v:ud v:nameU="visVersion" v:val="VT0(12):26"/>
				<v:ud v:nameU="visNavOrder" v:val="VT0(27000):26"/>
			</v:userDefs>
			<rect x="0" y="285.75" width="24.7725" height="9" class="st14"/>
		</g>
		<g id="shape1046-99" v:mID="1046" v:groupContext="shape" transform="translate(37.125,-66.375)">
			<title>Sheet.1046</title>
			<desc>Administration – Time to get shipment on its way – Service (E...</desc>
			<v:userDefs>
				<v:ud v:nameU="visNavOrder" v:val="VT0(28000):26"/>
			</v:userDefs>
			<v:textBlock v:margins="rect(4,4,4,4)"/>
			<v:textRect cx="176.625" cy="288" width="353.26" height="13.5"/>
			<rect x="0" y="281.25" width="353.25" height="13.5" class="st4"/>
			<text x="4" y="292.2" class="st16" v:langID="1029"><v:paragraph/><v:tabList/>Administration – Time to get shipment on its way – Service (Express, Standard, Slow)</text>		</g>
		<g id="shape1047-102" v:mID="1047" v:groupContext="shape" v:layerMember="0" transform="translate(6.75,-18)">
			<title>Process.1047</title>
			<v:custProps>
				<v:cp v:nameU="Cost" v:lbl="Cost" v:type="7" v:format="@" v:langID="1033"/>
				<v:cp v:nameU="Duration" v:lbl="Duration" v:type="2" v:langID="1033"/>
				<v:cp v:nameU="Resources" v:lbl="Resources" v:langID="1033"/>
			</v:custProps>
			<v:userDefs>
				<v:ud v:nameU="visVersion" v:val="VT0(12):26"/>
				<v:ud v:nameU="visNavOrder" v:val="VT0(29000):26"/>
			</v:userDefs>
			<rect x="0" y="285.75" width="24.7725" height="9" class="st2"/>
		</g>
		<g id="shape1048-104" v:mID="1048" v:groupContext="shape" v:layerMember="0" transform="translate(6.75,-6.74996)">
			<title>Process.1048</title>
			<v:custProps>
				<v:cp v:nameU="Cost" v:lbl="Cost" v:type="7" v:format="@" v:langID="1033"/>
				<v:cp v:nameU="Duration" v:lbl="Duration" v:type="2" v:langID="1033"/>
				<v:cp v:nameU="Resources" v:lbl="Resources" v:langID="1033"/>
			</v:custProps>
			<v:userDefs>
				<v:ud v:nameU="visVersion" v:val="VT0(12):26"/>
				<v:ud v:nameU="visNavOrder" v:val="VT0(30000):26"/>
			</v:userDefs>
			<rect x="0" y="285.75" width="24.7725" height="9" class="st11"/>
		</g>
		<g id="shape1049-106" v:mID="1049" v:groupContext="shape" transform="translate(37.125,-11.8125)">
			<title>Sheet.1049</title>
			<desc>Door-to-Door pick up/delivery (if customer orders the service)</desc>
			<v:userDefs>
				<v:ud v:nameU="visNavOrder" v:val="VT0(31000):26"/>
			</v:userDefs>
			<v:textBlock v:margins="rect(4,4,4,4)"/>
			<v:textRect cx="123.188" cy="288" width="246.38" height="13.5"/>
			<rect x="0" y="281.25" width="246.375" height="13.5" class="st4"/>
			<text x="4" y="292.2" class="st16" v:langID="1029"><v:paragraph/><v:tabList/>Door-to-Door pick up/delivery (if customer orders the service)</text>		</g>
		<g id="shape1050-109" v:mID="1050" v:groupContext="shape" v:layerMember="0" transform="translate(6.75,-34.875)">
			<title>Process.1050</title>
			<v:custProps>
				<v:cp v:nameU="Cost" v:lbl="Cost" v:type="7" v:format="@" v:langID="1033"/>
				<v:cp v:nameU="Duration" v:lbl="Duration" v:type="2" v:langID="1033"/>
				<v:cp v:nameU="Resources" v:lbl="Resources" v:langID="1033"/>
			</v:custProps>
			<v:userDefs>
				<v:ud v:nameU="visVersion" v:val="VT0(12):26"/>
				<v:ud v:nameU="visNavOrder" v:val="VT0(32000):26"/>
			</v:userDefs>
			<rect x="0" y="285.75" width="24.7725" height="9" class="st3"/>
		</g>
		<g id="shape1051-111" v:mID="1051" v:groupContext="shape" transform="translate(37.125,-33.75)">
			<title>Sheet.1051</title>
			<desc>Main route between cities &#38; Selected transport type</desc>
			<v:userDefs>
				<v:ud v:nameU="visNavOrder" v:val="VT0(33000):26"/>
			</v:userDefs>
			<v:textBlock v:margins="rect(4,4,4,4)"/>
			<v:textRect cx="115.313" cy="288" width="230.63" height="13.5"/>
			<rect x="0" y="281.25" width="230.625" height="13.5" class="st4"/>
			<text x="4" y="292.2" class="st16" v:langID="1029"><v:paragraph/><v:tabList/>Main route<tspan class="st6"
						v:langID="1033"> </tspan><tspan class="st6" v:langID="1033">between cities</tspan> <tspan class="st6"
						v:langID="1033">&#38; Selected transpor</tspan>t<tspan class="st6" v:langID="1033"> </tspan><tspan
						class="st6" v:langID="1033">t</tspan>ype</text>		</g>
		<g id="shape1052-119" v:mID="1052" v:groupContext="shape" v:layerMember="0" transform="translate(6.75,-50.625)">
			<title>Process.1052</title>
			<v:custProps>
				<v:cp v:nameU="Cost" v:lbl="Cost" v:type="7" v:format="@" v:langID="1033"/>
				<v:cp v:nameU="Duration" v:lbl="Duration" v:type="2" v:langID="1033"/>
				<v:cp v:nameU="Resources" v:lbl="Resources" v:langID="1033"/>
			</v:custProps>
			<v:userDefs>
				<v:ud v:nameU="visVersion" v:val="VT0(12):26"/>
				<v:ud v:nameU="visNavOrder" v:val="VT0(34000):26"/>
			</v:userDefs>
			<rect x="0" y="285.75" width="24.7725" height="9" class="st13"/>
		</g>
		<g id="shape1053-121" v:mID="1053" v:groupContext="shape" transform="translate(37.125,-47.8125)">
			<title>Sheet.1053</title>
			<desc>Physical move of the shipment</desc>
			<v:userDefs>
				<v:ud v:nameU="visNavOrder" v:val="VT0(35000):26"/>
			</v:userDefs>
			<v:textBlock v:margins="rect(4,4,4,4)"/>
			<v:textRect cx="115.313" cy="288" width="230.63" height="13.5"/>
			<rect x="0" y="281.25" width="230.625" height="13.5" class="st4"/>
			<text x="4" y="290.7" class="st16" v:langID="1029"><v:paragraph/><v:tabList/>Physical move of the shipment</text>		</g>
		<g id="shape1037-124" v:mID="1037" v:groupContext="shape" v:layerMember="0" transform="translate(443.25,-257.531)">
			<title>Process.1618</title>
			<v:custProps>
				<v:cp v:nameU="Cost" v:lbl="Cost" v:type="7" v:format="@" v:langID="1033"/>
				<v:cp v:nameU="Duration" v:lbl="Duration" v:type="2" v:langID="1033"/>
				<v:cp v:nameU="Resources" v:lbl="Resources" v:langID="1033"/>
			</v:custProps>
			<v:userDefs>
				<v:ud v:nameU="visVersion" v:val="VT0(12):26"/>
				<v:ud v:nameU="visNavOrder" v:val="VT0(10000):26"/>
			</v:userDefs>
			<rect x="0" y="285.75" width="49.5" height="9" class="st11"/>
		</g>
	</g>
</svg>
