<?xml version="1.0" encoding="UTF-8" standalone="no"?>
<!DOCTYPE svg PUBLIC "-//W3C//DTD SVG 1.1//EN" "http://www.w3.org/Graphics/SVG/1.1/DTD/svg11.dtd">
<!-- Generated by Microsoft Visio, SVG Export F7_train_cityname_at.svg AT train -->
<svg xmlns="http://www.w3.org/2000/svg" xmlns:xlink="http://www.w3.org/1999/xlink" xmlns:ev="http://www.w3.org/2001/xml-events"
		xmlns:v="http://schemas.microsoft.com/visio/2003/SVGExtensions/" width="14.5in" height="8.5in" viewBox="0 0 1044 612"
		xml:space="preserve" color-interpolation-filters="sRGB" class="st7">
	<v:documentProperties v:langID="1033" v:viewMarkup="false">
		<v:userDefs>
			<v:ud v:nameU="msvNoAutoConnect" v:val="VT0(1):26"/>
		</v:userDefs>
	</v:documentProperties>

	<style type="text/css">
	<![CDATA[
		.st1 {fill:#ffffff;fill-opacity:0;stroke:none;stroke-linecap:butt;stroke-width:0.75}
		.st2 {fill:#ffffff;stroke:#000000;stroke-linecap:butt;stroke-width:1.6875}
		.st3 {fill:#000000;fill-opacity:0.8;stroke:#ffffff;stroke-linecap:butt;stroke-opacity:0.8;stroke-width:1.8}
		.st4 {fill:none;stroke:none;stroke-linecap:round;stroke-linejoin:round;stroke-width:0.75}
		.st5 {fill:#000000;font-family:Calibri;font-size:3em;font-weight:bold}
		.st6 {stroke:#000000;stroke-linecap:round;stroke-linejoin:round;stroke-width:0.75}
		.st7 {fill:none;fill-rule:evenodd;font-size:12px;overflow:visible;stroke-linecap:square;stroke-miterlimit:3}
	]]>
	</style>

	<g v:mID="60" v:index="29" v:groupContext="foregroundPage">
		<title>AT train</title>
		<v:pageProperties v:drawingScale="1" v:pageScale="1" v:drawingUnits="19" v:shadowOffsetX="9" v:shadowOffsetY="-9"/>
		<v:layer v:name="Connector" v:index="0"/>
		<g id="group1016-1" transform="translate(-1818,832.5)" v:mID="1016" v:groupContext="group">
			<v:userDefs/>
			<title>Sheet.1016</title>
			<desc>Created with Raphaël 2.1.0</desc>
			<g id="shape1017-2" v:mID="1017" v:groupContext="shape">
				<title>Sheet.1017</title>
				<rect x="0" y="-1696.5" width="4500" height="2308.5" class="st1"/>
			</g>
			<g id="shape1018-4" v:mID="1018" v:groupContext="shape" transform="translate(2274.75,-981.45)">
				<title>Sheet.1018</title>
				<path d="M121.59 429.75 L125.37 432.81 L136.53 432.72 L137.16 433.08 L138.15 434.16 L141.39 436.86 L143.64 437.13
							 L146.34 436.5 L148.95 434.88 L153.27 432.99 L155.43 432.45 L157.05 432.36 L158.85 432.72 L159.93 432.72
							 L163.17 431.73 L168.66 429.57 L172.8 428.67 L173.97 427.95 L174.96 426.69 L175.59 425.52 L178.56 421.74
							 L182.97 422.46 L183.69 422.37 L190.26 420.75 L192.42 420.93 L194.13 421.65 L198.63 425.88 L207.54 430.2
							 L211.68 433.17 L218.88 433.8 L221.13 436.23 L222.39 438.03 L223.92 439.02 L225.99 440.1 L227.16 440.37
							 L228.24 440.37 L229.14 440.19 L230.49 440.46 L231.3 441.18 L231.75 442.35 L232.38 446.94 L232.83 448.74
							 L233.64 450.81 L234.63 451.53 L235.8 451.44 L239.4 449.46 L240.75 449.19 L241.56 449.73 L242.1 450.36
							 L242.82 451.62 L242.91 452.07 L243.09 452.97 L243.18 454.05 L243 455.22 L242.55 456.75 L242.46 457.47
							 L242.73 458.46 L243.36 458.82 L244.17 459 L246.78 459 L249.57 461.16 L250.92 463.68 L252.18 467.28 L261
							 468.81 L263.61 470.25 L264.6 471.24 L265.41 471.6 L266.22 471.6 L267.3 471.24 L269.82 469.98 L270.27
							 470.16 L270.63 470.61 L270.99 471.42 L271.26 472.59 L271.35 473.67 L271.53 474.39 L272.16 476.1 L273.33
							 478.44 L277.02 481.59 L270.81 488.16 L268.83 489.24 L268.47 488.61 L268.11 487.53 L267.57 486.63 L266.22
							 486.81 L265.14 487.89 L263.52 490.14 L263.16 491.49 L263.34 492.84 L265.23 497.34 L266.4 501.3 L267.39
							 505.71 L268.29 511.65 L268.38 514.17 L271.35 525.6 L271.35 529.83 L270.18 534.78 L270.36 536.4 L270.72
							 538.56 L271.71 540.36 L275.58 545.31 L275.85 546.66 L275.76 547.65 L275.04 549.36 L272.16 553.5 L267.03
							 560.34 L263.16 563.76 L262.35 565.2 L261.99 566.73 L261.9 568.35 L261.45 570.96 L261.54 571.95 L262.08
							 572.67 L263.43 573.75 L263.88 574.38 L264.06 574.74 L264.15 576.54 L264.24 577.17 L264.24 577.26 L259.83
							 578.34 L259.2 578.7 L258.12 579.78 L258.21 580.14 L258.75 580.5 L258.84 581.58 L258.03 586.44 L258.03
							 586.89 L257.94 589.23 L258.03 591.93 L259.2 595.8 L261.54 597.24 L262.08 598.41 L262.62 599.49 L262.71
							 599.67 L262.98 603.27 L260.91 600.75 L259.74 599.85 L257.67 599.49 L255.42 599.13 L248.13 595.44 L245.16
							 594.81 L242.19 595.08 L238.05 596.79 L234.9 598.05 L232.02 598.23 L223.83 596.97 L222.12 595.89 L221.76
							 598.32 L221.76 600.3 L221.13 601.65 L220.59 602.1 L220.05 602.46 L218.61 602.91 L216.99 602.46 L214.74
							 602.46 L212.49 603.09 L210.78 604.35 L209.79 606.51 L209.7 606.87 L209.43 608.31 L208.98 609.21 L208.71
							 609.84 L206.73 611.46 L203.49 612 L201.06 610.47 L200.61 610.02 L198.72 608.4 L195.48 607.14 L189.54
							 607.5 L175.86 608.22 L172.44 607.86 L165.24 607.05 L165.15 606.96 L164.25 605.88 L157.59 598.14 L156.33
							 594.45 L156.06 589.23 L154.8 583.65 L153.18 579.87 L152.64 577.8 L152.46 576.36 L152.64 575.46 L153.18
							 573.57 L153.9 572.22 L154.53 570.24 L154.8 565.56 L146.34 552.6 L142.11 547.38 L140.49 546.12 L139.41
							 545.4 L137.79 545.13 L125.91 547.92 L112.68 549 L109.8 547.74 L102.78 548.28 L99.9 548.01 L88.92 551.88
							 L87.03 551.79 L86.04 551.61 L85.77 551.16 L84.69 550.26 L82.89 549.45 L75.24 547.02 L70.92 543.96 L68.13
							 542.7 L64.35 542.61 L61.2 543.24 L49.5 548.82 L47.79 550.08 L46.89 551.16 L46.44 551.97 L45.99 553.05
							 L44.37 555.84 L40.32 557.82 L33.75 562.95 L31.86 563.58 L29.88 563.76 L28.89 563.31 L27.36 562.23 L23.22
							 558.81 L27.36 553.5 L32.04 544.95 L33.21 541.89 L33.75 540.18 L33.57 537.03 L33.75 535.05 L34.65 533.61
							 L37.8 530.55 L39.87 527.85 L40.14 526.23 L39.24 524.88 L36.09 522.63 L32.49 518.04 L31.68 516.6 L31.14
							 514.98 L30.87 513.63 L30.33 512.1 L27.99 508.41 L26.19 504.9 L24.84 503.91 L23.22 504.45 L21.6 505.53
							 L18.54 505.89 L16.74 506.61 L15.3 507.78 L13.77 508.32 L12.24 507.87 L10.35 506.61 L7.02 503.37 L4.14
							 497.52 L0.99 486.9 L0 481.23 L0.09 480.06 L0.9 477.09 L1.71 474.75 L11.7 476.73 L12.69 476.19 L14.04
							 475.83 L14.31 475.2 L17.01 472.86 L17.46 472.41 L17.82 471.69 L18.27 469.98 L18.18 467.91 L17.64 465.3
							 L16.65 463.14 L15.84 461.79 L14.49 460.26 L13.32 458.73 L12.42 457.11 L12.06 455.4 L11.97 453.87 L12.15
							 450.72 L12.42 448.74 L13.05 446.49 L14.4 444.69 L16.2 443.25 L27.63 437.49 L28.8 437.31 L29.79 437.4
							 L32.4 439.02 L33.84 439.56 L37.08 440.19 L39.87 441.27 L41.58 441.63 L46.26 441 L51.12 446.76 L52.29
							 449.82 L52.47 450.99 L53.01 452.52 L53.73 452.52 L55.89 450.99 L61.11 449.55 L65.07 447.66 L66.51 447.3
							 L67.5 447.48 L73.62 451.71 L75.87 452.79 L78.12 453.42 L81.27 453.42 L83.88 452.61 L88.65 448.92 L91.35
							 447.3 L94.77 446.31 L96.57 445.41 L97.74 444.24 L98.19 443.16 L99.36 441.54 L114.75 435.33 L121.59 429.75
							 Z" class="st2"/>
			</g>
			<g id="shape1019-6" v:mID="1019" v:groupContext="shape" transform="translate(1900.98,-987.12)">
				<title>Sheet.1019</title>
				<path d="M10.08 514.35 L17.01 513.45 L19.35 512.55 L24.12 509.58 L26.19 507.69 L28.17 505.08 L30.51 500.31 L31.14
							 499.32 L32.31 498.51 L34.56 497.79 L35.46 497.16 L37.26 494.73 L38.79 491.58 L39.78 487.98 L39.78 484.56
							 L39.33 482.58 L38.7 481.23 L37.8 480.15 L36.27 479.34 L37.35 473.04 L37.53 471.6 L36.81 469.8 L35.91
							 468 L35.73 466.65 L37.35 466.02 L39.15 465.66 L39.96 465.39 L40.32 465.66 L40.77 467.19 L40.68 467.82
							 L40.14 468.54 L39.78 469.53 L39.96 470.88 L40.5 471.69 L41.4 472.23 L43.02 473.04 L47.61 473.76 L48.87
							 473.49 L50.22 472.41 L52.47 469.35 L53.91 468.36 L56.52 468.36 L70.65 473.76 L71.1 474.21 L71.46 475.02
							 L72 475.83 L72.9 476.1 L76.05 475.74 L80.37 473.76 L81.9 473.31 L83.43 473.4 L84.51 474.03 L87.03 475.92
							 L86.13 477 L82.62 479.34 L83.34 480.6 L88.92 483.21 L94.23 488.97 L94.59 489.69 L94.59 490.77 L94.41
							 491.85 L94.05 492.57 L93.78 492.57 L94.86 494.73 L96.39 495.63 L107.55 495.81 L109.62 495.18 L116.64
							 490.32 L119.34 489.51 L121.68 490.5 L121.41 494.82 L124.02 495.09 L126.36 494.01 L127.89 492.39 L129.24
							 490.41 L131.31 488.52 L133.38 487.89 L137.97 487.8 L139.77 486.99 L140.67 485.46 L140.22 484.29 L139.05
							 483.48 L137.79 483.12 L142.83 477.27 L145.26 476.73 L147.87 477.09 L150.3 477.81 L155.34 477 L157.68
							 476.1 L159.66 473.94 L160.2 472.41 L161.01 468.72 L161.73 467.1 L164.79 464.49 L165.15 464.04 L167.13
							 464.04 L171.81 465.03 L180.54 465.03 L186.57 466.29 L187.65 465.93 L188.73 463.23 L189.99 462.51 L198.99
							 460.62 L223.65 461.7 L224.46 461.52 L227.52 457.65 L227.88 456.57 L228.06 455.13 L227.88 450.9 L227.52
							 450 L226.98 449.64 L226.17 448.74 L225.36 447.66 L225 446.85 L224.82 445.5 L226.44 444.78 L229.05 442.71
							 L229.95 442.08 L231.57 441.36 L231.84 441.36 L231.48 442.08 L231.21 443.79 L230.85 445.05 L230.13 445.95
							 L229.77 447.12 L230.4 448.83 L231.48 449.82 L232.65 449.64 L234.99 448.38 L237.33 448.02 L243.54 449.37
							 L245.34 449.1 L249.57 447.48 L251.37 447.75 L251.82 448.74 L252.99 452.07 L253.53 453.42 L254.43 454.41
							 L257.58 457.02 L259.11 457.74 L261.27 457.83 L263.61 457.38 L265.23 456.66 L266.31 455.76 L269.01 460.53
							 L271.26 462.6 L275.04 465.12 L276.03 466.2 L276.39 467.01 L276.3 467.73 L275.76 468.99 L275.94 470.25
							 L276.3 472.14 L278.37 477.45 L278.64 478.44 L278.46 479.07 L277.92 480.24 L277.2 481.5 L275.04 484.2
							 L273.96 486.09 L271.71 491.04 L270.9 492.21 L270.09 493.2 L269.1 494.01 L268.02 494.73 L266.85 495.27
							 L261.54 495.81 L260.46 496.08 L259.65 496.44 L259.02 497.25 L258.3 498.69 L257.31 501.66 L256.23 503.37
							 L254.88 504.63 L253.53 505.44 L251.46 506.16 L247.95 506.7 L246.33 506.61 L244.89 506.16 L242.55 504.81
							 L241.2 504.54 L239.67 504.72 L235.89 507.06 L223.92 511.38 L220.59 511.29 L219.15 511.56 L216.18 513.18
							 L216.36 516.33 L214.92 522.54 L214.65 524.88 L214.65 527.76 L214.92 529.47 L215.46 531.09 L216.09 532.08
							 L217.89 533.61 L218.7 534.42 L219.51 536.58 L219.96 538.2 L220.23 544.14 L220.14 544.77 L220.14 544.86
							 L218.34 545.22 L207.45 550.89 L199.8 551.25 L195.03 552.96 L190.53 555.39 L186.84 558.36 L181.89 559.08
							 L180.72 559.89 L178.65 561.6 L177.39 561.87 L175.41 561.15 L171.9 558.54 L169.92 558.36 L169.11 558.45
							 L168.3 558.36 L168.12 558.36 L168.03 558.36 L162.54 557.19 L160.02 557.46 L156.87 558.36 L155.79 558.9
							 L154.8 559.08 L153.81 558.9 L152.91 558.36 L152.37 557.64 L151.74 557.01 L151.11 556.65 L149.22 556.2
							 L148.14 556.38 L147.15 557.1 L146.34 558.36 L142.65 561.96 L139.41 561.78 L136.08 560.16 L132.21 559.26
							 L124.74 560.52 L117.27 562.95 L115.38 564.12 L108.45 571.05 L107.55 572.94 L106.38 578.52 L104.4 583.29
							 L104.31 583.92 L104.4 585.54 L104.22 586.35 L103.77 586.89 L102.6 587.34 L102.15 587.79 L99.72 591.93
							 L98.28 593.55 L96.75 593.73 L94.86 593.1 L91.17 592.74 L89.28 593.01 L85.77 594.18 L84.69 594.27 L83.61
							 593.82 L81.72 592.29 L80.82 591.75 L79.65 591.75 L77.67 592.38 L76.59 592.29 L73.53 590.58 L72.27 590.13
							 L70.02 590.85 L68.85 590.76 L68.22 589.41 L68.67 588.69 L71.1 586.71 L71.64 585.63 L70.56 584.01 L62.37
							 579.15 L60.75 578.7 L58.77 578.88 L47.88 581.94 L43.47 581.4 L39.96 578.61 L39.69 575.19 L41.04 569.88
							 L40.5 567.27 L39.51 566.1 L35.91 563.22 L33.66 559.53 L32.49 558.36 L31.95 558 L31.32 557.91 L30.78
							 558 L27.63 559.8 L24.93 562.86 L23.04 566.46 L23.04 569.43 L20.34 569.52 L18.27 568.98 L16.56 569.34
							 L14.85 572.13 L14.4 574.11 L14.31 575.37 L14.04 576.63 L12.87 578.16 L8.19 580.59 L5.49 581.4 L4.68
							 581.31 L4.59 580.86 L2.7 575.73 L0.27 571.77 L0 570.15 L0.36 568.89 L1.71 567.09 L3.06 565.92 L4.23
							 564.3 L4.86 562.41 L5.22 559.62 L5.13 557.91 L4.77 555.75 L4.68 553.86 L4.86 551.43 L6.12 545.13 L7.2
							 542.16 L11.34 535.86 L12.96 531.9 L13.23 527.49 L13.14 525.96 L11.79 518.85 L10.08 514.35 ZM227.7 546.75
							 L230.67 545.13 L240.21 540.81 L246.6 534.6 L248.4 533.79 L250.65 533.43 L253.17 533.43 L256.95 532.71
							 L259.74 532.8 L262.89 533.88 L265.77 534.06 L267.84 534.6 L269.64 535.59 L273.87 539.64 L274.14 542.7
							 L275.04 543.87 L276.39 545.04 L285.66 548.19 L286.56 549.36 L286.47 551.07 L285.12 554.31 L284.85 555.48
							 L284.67 556.65 L284.67 557.28 L284.76 558 L285.12 559.53 L285.84 560.88 L286.92 562.32 L287.82 564.12
							 L289.98 566.1 L291.06 566.91 L292.41 568.35 L293.22 570.06 L293.76 572.22 L294.03 574.29 L294.75 576.72
							 L295.83 578.34 L300.78 583.56 L307.26 592.56 L307.89 593.82 L307.8 594.36 L307.71 594.63 L307.53 595.08
							 L307.17 595.44 L306.81 595.53 L305.91 595.35 L302.13 592.47 L300.96 592.02 L299.7 592.2 L295.38 594.09
							 L285.84 595.53 L283.5 596.7 L283.23 599.4 L282.69 601.29 L281.88 603.54 L278.37 610.56 L277.83 611.73
							 L277.65 611.64 L272.34 611.1 L266.13 612 L264.51 611.82 L262.8 610.92 L259.47 608.67 L256.23 608.13
							 L253.62 607.68 L249.3 605.88 L245.61 602.55 L243.54 597.6 L242.64 594.18 L240.84 593.01 L238.59 592.65
							 L236.34 591.84 L235.35 591.12 L234.72 590.49 L234.45 589.41 L234.45 587.34 L234.72 585.54 L235.17 584.46
							 L235.44 583.38 L235.44 581.4 L234.45 577.98 L232.74 576.81 L228.24 576.63 L226.8 576.09 L226.08 575.37
							 L225.54 574.38 L224.28 573.12 L223.11 572.49 L220.59 572.04 L219.42 571.59 L221.04 570.06 L221.04 568.62
							 L220.32 567.09 L219.6 565.38 L218.97 561.78 L218.52 559.98 L217.8 558.36 L218.88 555.66 L225.36 551.97
							 L227.7 548.91 L227.7 546.75 Z" class="st2"/>
			</g>
			<g id="shape1020-8" v:mID="1020" v:groupContext="shape" transform="translate(2185.92,-1116.72)">
				<title>Sheet.1020</title>
				<path d="M11.88 530.91 L11.61 529.2 L9.99 525.6 L2.43 517.68 L1.44 516.06 L0.54 514.17 L0 512.01 L0.18 509.85 L0.81
							 508.77 L1.53 508.5 L2.25 508.5 L2.88 508.23 L4.41 505.8 L4.86 505.26 L9.09 502.29 L10.53 500.67 L12.42
							 497.61 L13.41 496.53 L15.03 495.63 L20.97 494.46 L20.88 494.1 L22.5 492.75 L26.01 490.77 L29.97 486.99
							 L31.68 485.73 L42.84 481.32 L57.6 478.71 L61.2 476.73 L71.64 467.46 L73.17 464.94 L73.8 461.52 L73.98
							 460.71 L74.52 459.9 L74.97 458.73 L75.15 457.11 L74.97 452.52 L75.15 450.99 L75.69 449.55 L77.13 446.49
							 L77.4 444.87 L77.22 443.43 L76.23 441.9 L75.78 439.02 L75.42 438.21 L75.42 437.67 L75.96 436.5 L76.95
							 435.6 L80.46 434.34 L84.06 433.8 L95.13 436.95 L97.02 437.94 L98.73 439.29 L100.44 441.81 L104.76 443.79
							 L105.03 444.06 L106.02 439.74 L106.92 437.85 L107.28 437.94 L109.53 437.58 L110.34 437.22 L111.24 436.32
							 L111.78 435.6 L113.58 431.55 L114.21 429.39 L114.57 427.05 L114.66 424.35 L114.12 419.13 L114.39 417.15
							 L115.83 415.8 L114.48 415.17 L113.94 414.63 L112.77 412.38 L112.23 412.65 L112.5 411.03 L115.65 404.28
							 L119.97 405.45 L122.04 406.53 L124.02 408.06 L126.36 410.04 L128.43 411.21 L128.79 411.39 L130.68 412.47
							 L131.04 412.65 L133.56 414 L134.46 415.08 L136.26 417.78 L136.98 419.13 L137.52 419.67 L138.24 419.94
							 L138.87 420.39 L139.14 421.38 L138.96 422.28 L138.96 422.46 L138.51 422.55 L138.06 422.46 L137.97 422.46
							 L137.61 422.73 L136.89 424.26 L136.8 424.26 L136.35 424.44 L136.08 424.89 L136.62 427.14 L137.07 428.04
							 L138.96 430.38 L139.86 431.1 L143.46 432.72 L158.67 434.43 L166.95 437.31 L167.31 437.4 L167.67 437.58
							 L168.93 438.03 L169.2 438.12 L169.29 438.12 L170.37 438.03 L171.18 437.67 L173.34 435.96 L173.61 435.87
							 L174.78 435.33 L177.3 434.25 L178.92 433.53 L179.73 432.72 L180.63 431.82 L183.06 425.43 L183.42 425.16
							 L184.59 424.35 L187.2 427.32 L191.43 429.57 L192.69 429.93 L194.31 429.57 L194.67 429.39 L197.55 428.04
							 L198.9 427.86 L199.17 427.86 L199.89 428.49 L199.98 429.48 L199.98 430.56 L200.34 431.28 L201.15 431.37
							 L202.86 430.83 L203.49 430.92 L204.66 432.45 L205.29 433.98 L206.19 435.06 L207.9 435.15 L209.61 433.53
							 L209.79 433.98 L211.77 435.87 L218.52 437.4 L222.03 438.93 L225.45 440.73 L229.41 441.27 L231.12 441.9
							 L232.65 443.16 L233.73 444.96 L233.91 446.58 L233.82 447.3 L233.46 447.57 L231.03 447.39 L230.58 447.48
							 L230.4 447.75 L230.31 448.38 L230.31 449.82 L230.13 450.81 L230.13 452.16 L230.58 453.87 L233.01 457.29
							 L235.71 458.19 L236.25 463.41 L238.32 465.03 L238.86 466.47 L240.12 474.39 L239.31 488.34 L239.31 491.94
							 L237.69 489.96 L236.34 489.24 L235.17 488.88 L229.86 489.15 L227.88 490.05 L226.35 491.58 L224.73 493.83
							 L223.29 495.09 L207.9 498.78 L205.65 498.15 L203.85 496.44 L200.88 492.21 L199.53 490.59 L197.91 489.51
							 L196.02 488.88 L191.25 488.79 L189.81 489.96 L189.09 490.32 L188.37 490.95 L188.01 491.31 L187.83 491.67
							 L187.65 492.03 L187.47 493.02 L186.84 499.41 L186.57 500.85 L186.03 502.2 L185.76 503.1 L186.3 507.6
							 L186.48 508.23 L186.75 508.68 L186.93 509.13 L186.93 509.76 L186.3 510.75 L185.04 512.19 L184.95 512.55
							 L184.86 512.91 L184.86 513.72 L184.77 514.26 L183.24 517.14 L182.7 517.59 L182.25 517.95 L181.44 518.13
							 L181.26 518.85 L183.24 521.19 L200.52 534.33 L206.1 537.12 L209.52 538.11 L211.86 539.46 L214.11 541.26
							 L215.19 542.61 L216 543.78 L215.91 546.84 L214.02 549.54 L212.58 555.48 L212.49 559.17 L212.31 561.15
							 L210.42 565.02 L203.58 570.6 L188.19 576.81 L187.02 578.43 L186.57 579.51 L185.4 580.68 L183.6 581.58
							 L180.18 582.57 L177.48 584.19 L172.71 587.88 L170.1 588.69 L166.95 588.69 L164.7 588.06 L162.45 586.98
							 L156.33 582.75 L155.34 582.57 L153.9 582.93 L149.94 584.82 L144.72 586.26 L142.56 587.79 L141.84 587.79
							 L141.3 586.26 L141.12 585.09 L139.95 582.03 L135.09 576.27 L130.41 576.9 L128.7 576.54 L125.91 575.46
							 L122.67 574.83 L121.23 574.29 L118.62 572.67 L117.63 572.58 L116.46 572.76 L105.03 578.52 L103.23 579.96
							 L101.88 581.76 L101.25 584.01 L100.98 585.99 L100.8 589.14 L100.89 590.67 L101.25 592.38 L102.15 594
							 L103.32 595.53 L104.67 597.06 L105.48 598.41 L106.47 600.57 L107.01 603.18 L107.1 605.25 L106.65 606.96
							 L106.29 607.68 L105.84 608.13 L103.14 610.47 L102.87 611.1 L101.52 611.46 L100.53 612 L90.54 610.02
							 L84.42 606.06 L80.64 602.19 L79.74 600.03 L79.56 597.6 L80.19 595.53 L81.81 592.74 L82.44 591.48 L82.71
							 589.86 L82.44 588.51 L80.64 585.36 L84.51 573.21 L84.06 571.86 L83.25 570.42 L80.55 570.06 L78.3 569.07
							 L77.31 568.53 L76.77 567.99 L76.41 567.45 L75.87 566.19 L76.05 565.47 L76.77 564.93 L81 564.66 L82.71
							 564.39 L84.06 562.68 L81.54 560.43 L62.19 556.11 L60.48 554.94 L59.49 553.59 L59.04 552.15 L57.69 546.3
							 L57.42 544.23 L57.24 542.16 L57.51 537.66 L57.78 535.77 L58.14 534.42 L58.5 533.61 L59.13 533.16 L59.85
							 532.98 L62.73 533.88 L64.26 533.97 L65.79 533.61 L66.78 532.44 L66.87 531.18 L65.97 530.1 L64.98 529.38
							 L63.9 528.84 L60.66 526.5 L53.37 529.92 L47.16 530.64 L43.11 530.1 L38.88 528.66 L38.34 528.39 L37.8
							 528.03 L34.65 524.7 L32.04 523.17 L29.34 522.72 L24.75 522.99 L22.77 523.62 L21.51 524.7 L20.7 527.13
							 L20.34 527.76 L19.08 528.66 L14.04 530.01 L11.88 530.91 Z" class="st2"/>
			</g>
			<g id="shape1021-10" v:mID="1021" v:groupContext="shape" transform="translate(2115.63,-1034.64)">
				<title>Sheet.1021</title>
				<path d="M51.66 503.28 L55.35 499.86 L57.42 498.87 L61.2 497.97 L65.07 497.97 L71.1 499.5 L72.9 499.23 L71.82 502.02
							 L73.53 504.09 L76.32 505.98 L78.39 508.05 L75.51 509.49 L74.16 513.18 L74.79 517.05 L77.4 519.21 L79.02
							 519.48 L80.1 519.84 L81 520.56 L85.86 526.05 L91.08 530.01 L92.34 530.46 L93.24 530.19 L94.05 529.65
							 L95.22 529.65 L96.21 530.19 L96.84 530.82 L97.47 531.27 L98.64 531.18 L99.36 530.55 L102.42 526.86 L102.42
							 525.6 L102.15 524.61 L101.79 523.8 L101.61 522.9 L101.52 521.91 L101.52 519.21 L101.7 518.76 L102.78
							 516.15 L102.87 515.97 L102.69 516.06 L102.6 512.46 L102.87 512.55 L104.58 510.3 L104.67 509.85 L105.93
							 506.7 L106.2 506.34 L106.38 504.36 L106.47 502.47 L106.2 500.4 L105.3 498.15 L103.23 494.55 L101.88
							 492.93 L100.62 491.94 L98.91 491.67 L96.21 492.84 L94.59 493.11 L88.65 492.03 L86.85 490.23 L88.83 487.08
							 L88.92 487.08 L89.55 486 L89.73 484.92 L89.82 483.93 L90 482.85 L90.63 481.59 L97.56 470.52 L97.02 469.98
							 L94.68 466.47 L91.08 458.01 L89.28 456.3 L88.38 455.76 L86.22 453.6 L83.7 451.98 L82.8 450.72 L82.26
							 449.1 L82.17 448.83 L84.33 447.93 L89.37 446.58 L90.63 445.68 L90.99 445.05 L91.8 442.62 L93.06 441.54
							 L95.04 440.91 L99.63 440.64 L102.33 441.09 L104.94 442.62 L108.09 445.95 L108.63 446.31 L109.17 446.58
							 L113.4 448.02 L117.45 448.56 L123.66 447.84 L130.95 444.42 L134.19 446.76 L135.27 447.3 L136.26 448.02
							 L137.16 449.1 L137.07 450.36 L136.08 451.53 L134.55 451.89 L133.02 451.8 L130.14 450.9 L129.42 451.08
							 L128.79 451.53 L128.43 452.34 L128.07 453.69 L127.8 455.58 L127.53 460.08 L127.71 462.15 L127.98 464.22
							 L129.33 470.07 L129.78 471.51 L130.77 472.86 L132.48 474.03 L151.83 478.35 L154.35 480.6 L153 482.31
							 L151.29 482.58 L147.06 482.85 L146.34 483.39 L146.16 484.11 L146.7 485.37 L147.06 485.91 L147.6 486.45
							 L148.59 486.99 L150.84 487.98 L153.54 488.34 L154.35 489.78 L154.8 491.13 L150.93 503.28 L152.73 506.43
							 L153 507.78 L152.73 509.4 L152.1 510.66 L150.48 513.45 L149.85 515.52 L150.03 517.95 L150.93 520.11
							 L154.71 523.98 L160.83 527.94 L160.02 530.28 L159.21 533.25 L159.12 534.42 L160.11 540.09 L163.26 550.71
							 L166.14 556.56 L169.47 559.8 L171.36 561.06 L172.89 561.51 L174.42 560.97 L175.86 559.8 L177.66 559.08
							 L180.72 558.72 L182.34 557.64 L183.96 557.1 L185.31 558.09 L187.11 561.6 L189.45 565.29 L189.99 566.82
							 L190.26 568.17 L190.8 569.79 L191.61 571.23 L195.21 575.82 L198.36 578.07 L199.26 579.42 L198.99 581.04
							 L196.92 583.74 L193.77 586.8 L192.87 588.24 L192.69 590.22 L192.87 593.37 L192.33 595.08 L191.16 598.14
							 L186.48 606.69 L182.34 612 L179.28 607.86 L170.01 600.66 L166.23 598.68 L163.53 597.87 L158.76 597.42
							 L147.96 595.17 L145.62 594.99 L135.72 592.38 L131.49 591.03 L129.51 591.21 L127.89 591.57 L125.19 594.18
							 L122.76 596.16 L117.09 598.86 L112.86 599.85 L104.85 600.3 L101.61 599.94 L99.63 599.4 L97.83 598.41
							 L89.28 592.83 L84.06 591.21 L80.64 590.76 L74.07 589.14 L69.12 586.71 L64.89 584.01 L63.54 583.38 L62.55
							 583.29 L62.01 583.56 L61.74 584.01 L61.56 584.37 L61.47 584.91 L61.29 585.36 L60.93 585.9 L60.57 586.26
							 L59.22 587.16 L54.99 583.11 L53.19 582.12 L51.12 581.58 L48.24 581.4 L45.09 580.32 L42.3 580.23 L38.52
							 580.95 L36 580.95 L33.75 581.31 L31.95 582.12 L25.56 588.33 L16.02 592.65 L13.05 594.27 L13.05 592.29
							 L10.53 591.39 L5.49 592.38 L5.49 592.29 L5.58 591.66 L5.31 585.72 L4.86 584.1 L4.05 581.94 L3.24 581.13
							 L1.44 579.6 L0.81 578.61 L0.27 576.99 L0 575.28 L0 572.4 L0.27 570.06 L1.71 563.85 L1.53 560.7 L4.5
							 559.08 L5.94 558.81 L9.27 558.9 L21.24 554.58 L25.02 552.24 L26.55 552.06 L27.9 552.33 L30.24 553.68
							 L31.68 554.13 L33.3 554.22 L36.81 553.68 L38.88 552.96 L40.23 552.15 L41.58 550.89 L42.66 549.18 L43.65
							 546.21 L44.37 544.77 L45 543.96 L45.81 543.6 L46.89 543.33 L52.2 542.79 L53.37 542.25 L54.45 541.53
							 L55.44 540.72 L56.25 539.73 L57.06 538.56 L59.31 533.61 L60.39 531.72 L62.55 529.02 L63.27 527.76 L63.81
							 526.59 L63.99 525.96 L63.72 524.97 L61.65 519.66 L61.29 517.77 L61.11 516.51 L61.65 515.25 L61.74 514.53
							 L61.38 513.72 L60.39 512.64 L56.61 510.12 L54.36 508.05 L51.66 503.28 Z" class="st2"/>
			</g>
			<g id="shape1022-12" v:mID="1022" v:groupContext="shape" transform="translate(2174.85,-944.64)">
				<title>Sheet.1022</title>
				<path d="M3.96 569.25 L4.5 568.08 L8.01 561.06 L8.82 558.81 L9.36 556.92 L9.63 554.22 L11.97 553.05 L21.51 551.61
							 L25.83 549.72 L27.09 549.54 L28.26 549.99 L32.04 552.87 L32.94 553.05 L33.3 552.96 L33.66 552.6 L33.84
							 552.15 L33.93 551.88 L34.02 551.34 L33.39 550.08 L26.91 541.08 L21.96 535.86 L20.88 534.24 L20.16 531.81
							 L19.89 529.74 L19.35 527.58 L18.54 525.87 L17.19 524.43 L16.11 523.62 L13.95 521.64 L13.05 519.84 L11.97
							 518.4 L11.25 517.05 L10.89 515.52 L10.8 514.8 L10.8 514.17 L10.98 513 L11.25 511.83 L12.6 508.59 L12.69
							 506.88 L11.79 505.71 L2.52 502.56 L1.17 501.39 L0.27 500.22 L0 497.16 L1.35 496.26 L1.71 495.9 L2.07
							 495.36 L2.25 494.91 L2.34 494.37 L2.52 494.01 L2.79 493.56 L3.33 493.29 L4.32 493.38 L5.67 494.01 L9.9
							 496.71 L14.85 499.14 L21.42 500.76 L24.84 501.21 L30.06 502.83 L38.61 508.41 L40.41 509.4 L42.39 509.94
							 L45.63 510.3 L53.64 509.85 L57.87 508.86 L63.54 506.16 L65.97 504.18 L68.67 501.57 L70.29 501.21 L72.27
							 501.03 L76.5 502.38 L86.4 504.99 L88.74 505.17 L99.54 507.42 L104.31 507.87 L107.01 508.68 L110.79 510.66
							 L120.06 517.86 L123.12 522 L127.26 525.42 L128.79 526.5 L129.78 526.95 L131.76 526.77 L133.65 526.14
							 L140.22 521.01 L144.27 519.03 L145.89 516.24 L146.34 515.16 L146.79 514.35 L147.69 513.27 L149.4 512.01
							 L161.1 506.43 L164.25 505.8 L168.03 505.89 L170.82 507.15 L175.14 510.21 L182.79 512.64 L184.59 513.45
							 L185.67 514.35 L185.94 514.8 L186.93 514.98 L188.82 515.07 L199.8 511.2 L202.68 511.47 L209.7 510.93
							 L212.58 512.19 L225.81 511.11 L237.69 508.32 L239.31 508.59 L240.39 509.31 L242.01 510.57 L246.24 515.79
							 L254.7 528.75 L254.43 533.43 L253.8 535.41 L253.08 536.76 L252.54 538.65 L252.36 539.55 L252.54 540.99
							 L253.08 543.06 L254.7 546.84 L255.96 552.42 L256.23 557.64 L257.49 561.33 L264.15 569.07 L265.05 570.15
							 L265.14 570.24 L262.98 570.06 L260.46 569.7 L254.25 571.77 L250.29 577.44 L248.22 574.47 L246.69 574.2
							 L245.16 575.1 L242.82 576.63 L242.46 576.63 L240.57 576.9 L239.13 576.72 L237.78 577.26 L235.98 579.96
							 L234.72 582.57 L233.91 585.09 L233.1 587.43 L231.93 590.04 L231.12 592.02 L230.49 592.56 L228.15 593.64
							 L225.36 594.09 L224.46 593.46 L222.66 594.27 L222.03 594.99 L221.49 596.07 L220.23 597.6 L219.42 599.49
							 L218.7 599.31 L217.98 599.22 L217.53 599.4 L215.37 601.65 L214.29 602.37 L213.21 602.64 L210.87 602.82
							 L209.79 603.27 L208.26 605.61 L207.36 608.58 L206.82 609.93 L206.37 611.19 L204.48 612 L203.04 610.47
							 L201.87 607.77 L200.34 605.79 L196.65 606.69 L194.85 606.42 L193.41 605.7 L191.61 604.89 L190.98 604.17
							 L190.62 603.27 L190.08 602.55 L189 602.28 L185.4 603.09 L172.53 602.73 L162.63 602.37 L162.36 602.37
							 L161.28 602.01 L155.25 596.79 L153.63 596.07 L151.92 595.53 L150.03 595.44 L148.14 595.8 L146.34 596.07
							 L144.63 595.89 L134.82 591.21 L131.58 590.67 L124.65 591.84 L123.12 591.84 L116.1 590.13 L114.39 590.04
							 L112.77 590.31 L111.15 590.13 L98.19 585.9 L93.6 585.72 L92.79 585.18 L91.26 583.47 L90.54 583.2 L83.97
							 583.65 L79.29 582.84 L68.4 585.18 L63.99 584.91 L61.74 584.01 L54.99 579.87 L46.17 577.8 L21.06 576
							 L14.94 571.95 L12.24 571.05 L11.34 570.78 L10.53 570.87 L8.82 571.59 L7.74 571.59 L6.75 571.14 L4.86
							 569.7 L3.96 569.25 Z" class="st2"/>
			</g>
			<g id="shape1023-14" v:mID="1023" v:groupContext="shape" transform="translate(2367.18,-1111.68)">
				<title>Sheet.1023</title>
				<path d="M28.35 428.49 L28.44 428.4 L28.8 427.95 L29.34 423.81 L29.34 418.77 L29.7 414.45 L31.68 411.12 L33.12 409.86
							 L33.21 409.77 L37.35 406.17 L37.89 403.02 L38.97 401.13 L39.42 399.15 L40.05 397.62 L41.04 397.17 L41.58
							 396.99 L41.67 396.99 L41.85 396.99 L47.25 397.8 L52.83 400.05 L54.99 399.87 L55.08 399.69 L56.16 396.99
							 L55.98 396.72 L55.53 395.64 L54.99 394.38 L54.81 393.3 L54.99 392.22 L55.8 390.15 L58.05 379.89 L58.05
							 375.39 L57.6 370.44 L57.69 365.76 L59.13 362.34 L59.04 361.44 L59.04 360.72 L59.22 360.09 L59.49 359.82
							 L61.38 359.64 L61.92 359.55 L67.86 361.62 L68.85 361.71 L69.39 361.71 L76.23 362.25 L76.95 364.59 L77.4
							 366.84 L77.4 369 L76.68 371.34 L78.84 371.43 L87.03 369.18 L87.57 368.82 L88.65 367.56 L89.01 367.02
							 L89.37 366.21 L89.64 363.96 L90.09 363.33 L90.9 363.33 L91.44 363.96 L91.53 364.05 L91.89 364.77 L92.43
							 365.22 L97.47 365.22 L99.81 365.94 L105.03 368.55 L106.65 369.09 L107.46 369.36 L109.8 370.17 L112.05
							 371.52 L115.83 374.76 L116.55 375.39 L117.36 376.11 L119.79 377.1 L126.18 379.53 L134.55 384.3 L136.98
							 384.84 L139.41 384.84 L140.85 384.39 L141.21 384.3 L144.09 382.77 L144.63 382.5 L144.81 382.41 L145.08
							 382.23 L145.98 382.05 L148.23 381.96 L149.22 381.96 L149.85 382.5 L149.94 382.59 L150.3 384.48 L150.84
							 385.29 L151.56 385.65 L153.63 385.74 L154.8 386.64 L155.61 387 L156.51 386.91 L155.43 388.44 L156.78
							 388.08 L157.95 388.17 L158.76 388.89 L158.85 390.6 L160.65 390.15 L161.28 390.78 L161.28 391.95 L161.37
							 392.76 L172.17 400.59 L173.52 401.22 L173.79 401.31 L175.05 401.85 L175.23 401.94 L177.84 403.11 L178.74
							 403.02 L186.84 402.57 L187.83 402.48 L192.69 403.2 L198.72 404.1 L202.77 404.73 L202.95 404.64 L205.11
							 404.28 L206.55 405.45 L207.18 405.63 L208.89 405.09 L210.06 404.01 L210.06 403.92 L215.46 394.65 L217.35
							 393.39 L218.79 393.66 L220.41 393.93 L221.49 393.84 L223.29 393.12 L223.47 393.03 L224.46 392.85 L224.82
							 393.03 L225.45 393.21 L227.25 394.38 L229.32 395.01 L233.64 396.27 L235.71 396.45 L237.24 397.17 L237.69
							 397.35 L238.59 399.33 L238.95 401.58 L239.76 403.56 L241.11 404.55 L241.92 404.64 L242.73 404.82 L242.82
							 404.82 L246.96 404.64 L248.58 405.27 L249.48 405.81 L252.45 407.79 L254.43 408.6 L256.14 408.33 L256.5
							 408.33 L260.64 406.8 L262.35 406.98 L262.44 406.98 L264.87 410.58 L266.4 421.29 L267.66 422.82 L267.75
							 422.82 L270.09 425.61 L271.08 433.17 L270.54 435.24 L270.27 436.05 L268.56 437.94 L266.76 439.38 L265.95
							 440.91 L265.41 443.07 L262.62 447.12 L261.54 449.28 L261.09 451.62 L260.1 460.26 L259.83 461.25 L259.56
							 461.7 L259.38 462.42 L259.29 464.22 L259.65 465.21 L260.46 465.75 L262.62 465.93 L263.25 466.29 L264.42
							 467.19 L265.5 468.45 L265.95 469.71 L265.68 470.43 L265.32 471.42 L265.14 472.23 L265.59 472.5 L265.86
							 472.86 L266.22 473.67 L266.58 474.57 L266.67 475.38 L267.03 476.28 L267.84 476.82 L268.83 477.27 L270
							 478.35 L270.72 478.62 L271.08 479.16 L271.17 479.88 L271.08 481.68 L271.08 482.49 L272.79 488.25 L273.33
							 491.13 L273.33 494.64 L274.05 497.16 L276.75 500.13 L278.28 501.03 L279.99 501.3 L281.07 502.02 L282.69
							 504.99 L281.34 506.34 L280.62 506.7 L279.72 506.97 L278.46 506.7 L277.47 506.07 L276.39 505.53 L275.58
							 505.89 L274.14 507.33 L273.78 509.76 L273.87 510.84 L274.14 512.1 L274.05 513.45 L273.24 514.89 L271.98
							 515.7 L270.27 514.8 L266.94 512.28 L265.32 511.47 L263.07 511.74 L260.64 512.91 L256.23 516.15 L251.73
							 518.22 L250.47 518.04 L249.21 518.31 L246.96 519.39 L244.26 521.55 L242.82 525.6 L241.74 527.58 L240.21
							 529.02 L236.52 531.63 L234.45 533.79 L230.22 535.86 L222.66 533.43 L218.97 533.61 L215.82 534.6 L210.69
							 538.65 L208.98 540.45 L207.36 543.6 L207.09 549.81 L206.73 551.61 L206.1 553.05 L204.75 554.58 L203.49
							 555.66 L199.8 556.11 L199.8 565.83 L200.61 567.81 L202.23 570.6 L205.92 574.92 L209.07 579.78 L205.47
							 586.71 L204.84 587.7 L203.76 589.59 L203.22 591.39 L202.86 594.9 L203.22 597.15 L203.76 599.04 L203.76
							 601.02 L203.49 602.64 L197.91 608.67 L196.2 610.02 L193.5 611.46 L190.8 612 L184.59 611.82 L180.9 608.67
							 L179.73 606.33 L179.1 604.62 L178.92 603.9 L178.83 602.82 L178.56 601.65 L178.2 600.84 L177.84 600.39
							 L177.39 600.21 L174.87 601.47 L173.79 601.83 L172.98 601.83 L172.17 601.47 L171.18 600.48 L168.57 599.04
							 L159.75 597.51 L158.49 593.91 L157.14 591.39 L154.35 589.23 L151.74 589.23 L150.93 589.05 L150.3 588.69
							 L150.03 587.7 L150.12 586.98 L150.57 585.45 L150.75 584.28 L150.66 583.2 L150.48 582.3 L150.39 581.85
							 L149.67 580.59 L149.13 579.96 L148.32 579.42 L146.97 579.69 L143.37 581.67 L142.2 581.76 L141.21 581.04
							 L140.4 578.97 L139.95 577.17 L139.32 572.58 L138.87 571.41 L138.06 570.69 L136.71 570.42 L135.81 570.6
							 L134.73 570.6 L133.56 570.33 L131.49 569.25 L129.96 568.26 L128.7 566.46 L126.45 564.03 L119.25 563.4
							 L115.11 560.43 L106.2 556.11 L101.7 551.88 L99.99 551.16 L97.83 550.98 L91.26 552.6 L90.54 552.69 L86.13
							 551.97 L83.16 555.75 L82.53 556.92 L81.54 558.18 L80.37 558.9 L76.23 559.8 L70.74 561.96 L67.5 562.95
							 L66.42 562.95 L64.62 562.59 L63 562.68 L60.84 563.22 L56.52 565.11 L53.91 566.73 L51.21 567.36 L48.96
							 567.09 L45.72 564.39 L44.73 563.31 L44.1 562.95 L32.94 563.04 L29.16 559.98 L31.05 556.11 L31.23 554.13
							 L31.32 550.44 L32.76 544.5 L34.65 541.8 L34.74 538.74 L33.93 537.57 L32.85 536.22 L30.6 534.42 L28.26
							 533.07 L24.84 532.08 L19.26 529.29 L1.98 516.15 L0 513.81 L0.18 513.09 L0.99 512.91 L1.44 512.55 L1.98
							 512.1 L3.51 509.22 L3.6 508.68 L3.6 507.87 L3.69 507.51 L3.78 507.15 L5.04 505.71 L5.67 504.72 L5.67
							 504.09 L5.49 503.64 L5.22 503.19 L5.04 502.56 L4.5 498.06 L4.77 497.16 L5.31 495.81 L5.58 494.37 L6.21
							 487.98 L6.39 486.99 L6.57 486.63 L6.75 486.27 L7.11 485.91 L7.83 485.28 L8.55 484.92 L9.99 483.75 L14.76
							 483.84 L16.65 484.47 L18.27 485.55 L19.62 487.17 L22.59 491.4 L24.39 493.11 L26.64 493.74 L42.03 490.05
							 L43.47 488.79 L45.09 486.54 L46.62 485.01 L48.6 484.11 L53.91 483.84 L55.08 484.2 L56.43 484.92 L58.05
							 486.9 L58.05 483.3 L58.86 469.35 L57.6 461.43 L57.06 459.99 L54.99 458.37 L54.45 453.15 L51.75 452.25
							 L49.32 448.83 L48.87 447.12 L48.87 445.77 L49.05 444.78 L49.05 443.34 L49.14 442.71 L49.32 442.44 L49.77
							 442.35 L52.2 442.53 L52.56 442.26 L52.65 441.54 L52.47 439.92 L51.39 438.12 L49.86 436.86 L48.15 436.23
							 L44.19 435.69 L40.77 433.89 L37.26 432.36 L30.51 430.83 L28.53 428.94 L28.35 428.49 ZM220.5 476.64 L220.14
							 476.19 L217.26 471.06 L216.63 470.25 L213.3 469.98 L212.94 471.24 L212.04 471.96 L210.24 472.5 L206.37
							 474.3 L199.17 478.98 L198.63 479.88 L197.37 481.05 L196.47 481.68 L195.12 482.04 L193.68 482.22 L191.07
							 480.96 L190.26 481.77 L189.54 482.85 L189.27 483.39 L188.91 484.65 L188.91 486.09 L189.81 487.53 L190.62
							 488.43 L191.07 489.51 L191.34 490.5 L190.44 495.09 L191.34 496.62 L191.97 497.34 L192.42 498.42 L193.68
							 499.14 L200.25 499.68 L203.13 499.14 L205.92 499.14 L207.36 500.13 L209.34 501.03 L210.33 501.3 L212.76
							 501.3 L213.84 500.58 L214.38 499.95 L214.74 499.14 L215.1 498.6 L216 497.79 L217.53 497.34 L222.57 497.07
							 L230.04 498.51 L227.7 493.56 L226.98 491.31 L227.52 486.9 L228.33 483.57 L228.42 483.03 L228.24 482.67
							 L227.97 482.04 L227.16 481.23 L226.71 479.16 L226.44 477.99 L225.27 476.73 L224.73 475.38 L223.56 474.39
							 L221.58 474.75 L220.86 475.92 L220.59 476.64 L220.5 476.64 Z" class="st2"/>
			</g>
			<g id="shape1024-16" v:mID="1024" v:groupContext="shape" transform="translate(2536.2,-1016.19)">
				<title>Sheet.1024</title>
				<path d="M15.57 516.33 L21.78 516.51 L24.48 515.97 L27.18 514.53 L28.89 513.18 L34.47 507.15 L34.74 505.53 L34.74
							 503.55 L34.2 501.66 L33.84 499.41 L34.2 495.9 L34.74 494.1 L35.82 492.21 L36.45 491.22 L40.05 484.29
							 L36.9 479.43 L33.21 475.11 L31.59 472.32 L30.78 470.34 L30.78 460.62 L34.47 460.17 L35.73 459.09 L37.08
							 457.56 L37.71 456.12 L38.07 454.32 L38.34 448.11 L39.96 444.96 L41.67 443.16 L46.8 439.11 L49.95 438.12
							 L53.64 437.94 L61.2 440.37 L65.43 438.3 L67.5 436.14 L71.19 433.53 L72.72 432.09 L73.8 430.11 L75.24
							 426.06 L77.94 423.9 L80.19 422.82 L81.45 422.55 L82.71 422.73 L87.21 420.66 L91.62 417.42 L94.05 416.25
							 L96.3 415.98 L97.92 416.79 L101.25 419.31 L102.96 420.21 L104.22 419.4 L105.03 417.96 L105.12 416.61
							 L104.85 415.35 L104.76 414.27 L105.12 411.84 L106.56 410.4 L107.37 410.04 L108.45 410.58 L109.44 411.21
							 L110.7 411.48 L111.6 411.21 L112.32 410.85 L113.67 409.5 L114.21 410.4 L115.56 411.93 L114.48 413.28
							 L113.94 414.9 L113.31 417.87 L113.76 418.14 L115.02 419.22 L114.48 421.83 L116.91 423.18 L120.42 424.44
							 L122.85 426.69 L116.19 432.36 L117.27 433.62 L117.27 434.61 L116.73 435.69 L116.46 437.04 L116.19 437.31
							 L115.2 437.94 L114.93 438.39 L115.02 439.11 L115.56 439.47 L116.1 439.65 L116.37 439.92 L115.92 442.8
							 L115.29 444.87 L114.21 446.49 L112.5 447.93 L108.72 448.74 L107.37 449.46 L107.46 451.17 L108.09 451.89
							 L110.34 452.97 L111.24 453.6 L112.23 456.57 L112.95 457.56 L111.33 459.36 L111.51 462.15 L112.23 465.39
							 L112.41 470.61 L112.95 472.14 L113.85 473.4 L115.02 474.12 L112.86 475.2 L105.03 476.28 L96.57 478.35
							 L92.43 477.63 L90.9 473.49 L89.46 474.66 L87.39 477.99 L86.22 479.16 L85.23 479.43 L79.2 478.44 L78.03
							 477.72 L76.86 476.55 L76.59 476.01 L76.05 474.84 L75.6 473.22 L75.06 471.78 L73.71 470.79 L65.16 467.46
							 L60.66 466.83 L56.7 468.63 L56.07 470.16 L56.25 472.32 L55.62 473.67 L54.72 474.57 L50.49 476.82 L49.14
							 477.99 L48.42 478.44 L47.97 478.35 L47.43 477.81 L46.8 477 L45.99 477.81 L44.37 480.51 L43.47 481.68
							 L45.36 482.76 L51.39 485.28 L54.36 484.56 L59.58 486.72 L61.47 487.44 L64.98 486.9 L67.32 487.98 L69.21
							 490.5 L70.11 493.65 L69.48 496.8 L71.28 497.79 L72.81 499.32 L73.62 501.3 L73.53 503.73 L72.36 505.8
							 L69.21 507.06 L68.04 508.41 L68.49 514.8 L66.96 515.97 L62.91 519.12 L51.39 524.43 L50.13 522.36 L48.69
							 521.28 L47.34 521.73 L46.26 523.71 L46.53 529.74 L46.26 530.19 L45.72 530.55 L45.27 530.91 L45.27 531.9
							 L45.54 532.44 L45.99 532.71 L46.53 532.89 L46.8 533.25 L50.04 540.09 L50.49 542.7 L49.77 544.77 L48.24
							 546.21 L44.91 548.01 L45.27 550.8 L43.65 554.22 L44.01 556.83 L44.64 557.37 L45.45 557.37 L46.35 557.46
							 L47.07 558.45 L47.16 559.8 L46.26 562.5 L46.26 563.4 L47.7 564.3 L51.3 562.59 L53.01 562.77 L54.36 564.66
							 L53.82 566.55 L51.39 569.79 L49.14 571.23 L48.42 573.48 L49.23 575.55 L51.39 576.27 L52.65 576.9 L53.01
							 577.71 L52.65 578.61 L51.39 579.42 L46.62 581.31 L45.27 582.57 L48.33 582.93 L49.86 583.47 L51.39 584.91
							 L51.84 586.62 L49.86 587.07 L47.07 587.07 L45.27 587.43 L44.82 587.88 L44.28 587.97 L43.74 587.88 L43.11
							 587.43 L41.31 585.99 L39.06 585.72 L34.65 586.26 L30.69 585.45 L29.16 585.63 L28.17 587.43 L27.72 589.77
							 L26.82 590.49 L25.74 590.76 L24.66 591.66 L24.39 592.65 L24.48 593.55 L24.48 594.45 L23.76 595.62 L22.95
							 596.16 L20.79 597.15 L18 599.13 L16.74 600.48 L12.87 605.79 L11.52 607.14 L9.81 607.86 L5.4 610.56 L3.15
							 611.82 L2.79 612 L2.79 611.91 L2.7 611.28 L2.61 609.48 L2.43 609.12 L1.98 608.49 L0.63 607.41 L0.09
							 606.69 L0 605.7 L0.45 603.09 L0.54 601.47 L0.9 599.94 L1.71 598.5 L5.58 595.08 L10.71 588.24 L13.59
							 584.1 L14.31 582.39 L14.4 581.4 L14.13 580.05 L10.26 575.1 L9.27 573.3 L8.91 571.14 L8.73 569.52 L9.9
							 564.57 L9.9 560.34 L6.93 548.91 L6.84 546.39 L5.94 540.45 L4.95 536.04 L3.78 532.08 L1.89 527.58 L1.71
							 526.23 L2.07 524.88 L3.69 522.63 L4.77 521.55 L6.12 521.37 L6.66 522.27 L7.02 523.35 L7.38 523.98 L9.36
							 522.9 L15.57 516.33 Z" class="st2"/>
			</g>
			<g id="shape1025-18" v:mID="1025" v:groupContext="shape" transform="translate(1840.95,-1017.81)">
				<title>Sheet.1025</title>
				<path d="M70.11 545.04 L71.82 549.54 L73.17 556.65 L73.26 558.18 L72.99 562.59 L71.37 566.55 L67.23 572.85 L66.15
							 575.82 L64.89 582.12 L64.71 584.55 L64.8 586.44 L65.16 588.6 L65.25 590.31 L64.89 593.1 L64.26 594.99
							 L63.09 596.61 L61.74 597.78 L60.39 599.58 L60.03 600.84 L60.3 602.46 L62.73 606.42 L64.62 611.55 L64.71
							 612 L63.27 612 L58.59 610.47 L56.25 609.12 L52.11 605.16 L40.59 601.38 L37.89 599.4 L36.54 597.42 L36.36
							 595.98 L36.72 594.27 L36.99 590.58 L37.44 589.05 L37.44 588.15 L36.99 587.7 L36.36 587.7 L35.91 587.34
							 L36.09 585.54 L15.84 579.15 L14.04 578.88 L8.37 579.51 L6.39 579.06 L7.2 578.07 L9 575.73 L9.36 575.28
							 L10.08 571.14 L9.9 570.51 L9.45 568.71 L9 567.18 L6.48 563.58 L4.86 562.59 L3.24 561.69 L3.24 560.34
							 L4.32 557.91 L4.41 556.83 L3.51 554.58 L2.52 553.23 L1.98 551.88 L2.34 550.98 L2.7 549.63 L1.35 548.37
							 L0.9 548.01 L0 546.57 L3.42 540.63 L7.11 536.22 L7.47 535.14 L8.01 532.35 L8.55 530.91 L12.69 525.69
							 L13.77 523.26 L13.86 516.6 L10.71 513.81 L6.75 512.01 L3.6 507.24 L3.42 506.25 L2.79 503.46 L3.06 503.64
							 L3.51 503.73 L9.81 505.44 L16.65 505.35 L19.53 504 L21.15 501.57 L22.41 498.6 L24.75 495.9 L26.37 495.09
							 L27.99 494.91 L29.43 495.45 L30.69 496.8 L31.05 498.69 L30.87 500.67 L31.32 502.29 L33.48 503.46 L34.29
							 503.37 L35.64 502.56 L36.18 502.38 L39.42 503.55 L42.57 503.82 L44.19 503.55 L45.54 502.47 L45.81 505.08
							 L46.98 506.61 L48.33 507.96 L49.23 510.03 L49.23 510.57 L49.32 511.02 L49.5 511.92 L50.67 512.64 L51.57
							 512.28 L52.56 511.38 L53.73 510.84 L59.04 518.58 L59.94 520.47 L59.49 522.18 L57.06 524.07 L58.23 525.42
							 L58.5 527.04 L58.59 528.75 L59.13 530.28 L60.21 531.27 L60.93 531.27 L61.74 530.64 L63.18 530.01 L63.72
							 530.01 L64.8 530.73 L65.34 530.73 L65.79 530.37 L67.05 528.93 L71.82 528.12 L73.8 529.2 L73.71 531.99
							 L71.73 537.84 L72 538.92 L72.09 539.91 L71.82 540.9 L71.28 541.44 L69.84 541.89 L69.39 542.16 L68.4
							 543.96 L68.04 544.95 L68.49 545.22 L70.11 545.04 Z" class="st2"/>
			</g>
			<g id="shape1026-20" v:mID="1026" v:groupContext="shape" transform="translate(2556.09,-1222.38)">
				<title>Sheet.1026</title>
				<path d="M31.59 587.34 L31.68 587.34 L31.95 586.62 L32.67 585.45 L34.65 585.09 L35.82 586.08 L36.36 587.43 L37.53
							 588.69 L37.8 589.86 L38.25 591.93 L39.06 592.74 L39.33 593.37 L39.51 593.73 L39.42 594.27 L38.61 597.6
							 L38.07 602.01 L38.79 604.26 L41.13 609.21 L33.66 607.77 L28.62 608.04 L27.09 608.49 L26.19 609.3 L25.83
							 609.84 L25.47 610.65 L24.93 611.28 L23.85 612 L21.42 612 L20.43 611.73 L18.45 610.83 L17.01 609.84 L14.22
							 609.84 L11.34 610.38 L4.77 609.84 L3.51 609.12 L3.06 608.04 L2.43 607.32 L1.53 605.79 L2.43 601.2 L2.16
							 600.21 L1.71 599.13 L0.9 598.23 L0 596.79 L0 595.35 L0.36 594.09 L0.63 593.55 L1.35 592.47 L2.16 591.66
							 L4.77 592.92 L6.21 592.74 L7.56 592.38 L8.46 591.75 L9.72 590.58 L10.26 589.68 L17.46 585 L21.33 583.2
							 L23.13 582.66 L24.03 581.94 L24.39 580.68 L27.72 580.95 L28.35 581.76 L31.23 586.89 L31.59 587.34 Z"
						class="st2"/>
			</g>
			<g id="shape1027-22" v:mID="1027" v:groupContext="shape" transform="translate(2559.56,-1217.06)">
				<title>Sheet.1027</title>
				<ellipse cx="15.75" cy="596.25" rx="15.75" ry="15.75" class="st3"/>
			</g>
			<g id="shape1028-24" v:mID="1028" v:groupContext="shape" transform="translate(2341.73,-1239.68)">
				<title>Sheet.1028</title>
				<ellipse cx="10.35" cy="601.65" rx="10.35" ry="10.35" class="st3"/>
			</g>
			<g id="shape1029-26" v:mID="1029" v:groupContext="shape" transform="translate(2031.15,-1073.7)">
				<title>Sheet.1029</title>
				<ellipse cx="10.35" cy="601.65" rx="10.35" ry="10.35" class="st3"/>
			</g>
			<g id="shape1030-28" v:mID="1030" v:groupContext="shape" transform="translate(2208.58,-1158.54)">
				<title>Sheet.1030</title>
				<ellipse cx="10.35" cy="601.65" rx="10.35" ry="10.35" class="st3"/>
			</g>
			<g id="shape1031-30" v:mID="1031" v:groupContext="shape" transform="translate(2465.73,-1042.21)">
				<title>Sheet.1031</title>
				<ellipse cx="10.35" cy="601.65" rx="10.35" ry="10.35" class="st3"/>
			</g>
			<g id="shape1032-32" v:mID="1032" v:groupContext="shape" transform="translate(2344.72,-972.843)">
				<title>Sheet.1032</title>
				<ellipse cx="10.35" cy="601.65" rx="10.35" ry="10.35" class="st3"/>
			</g>
			<g id="shape1033-34" v:mID="1033" v:groupContext="shape" transform="translate(2295.03,-970.155)">
				<title>Sheet.1033</title>
				<ellipse cx="10.35" cy="601.65" rx="10.35" ry="10.35" class="st3"/>
			</g>
		</g>
		<g id="shape1000-36" v:mID="1000" v:groupContext="shape" transform="translate(391.5,-542.25)">
			<title>Sheet.1000</title>
			<desc>Linz</desc>
			<v:textBlock v:margins="rect(4,4,4,4)"/>
			<v:textRect cx="112.5" cy="587.25" width="225" height="49.5"/>
			<rect x="0" y="562.5" width="225" height="49.5" class="st4"/>
			<text x="83.65" y="598.05" class="st5" v:langID="1029"><v:paragraph v:horizAlign="1"/><v:tabList/>Linz</text>		</g>
		<g id="shape1001-39" v:mID="1001" v:groupContext="shape" transform="translate(58.5,-65.25)">
			<title>Sheet.1001</title>
			<desc>Innsbruck</desc>
			<v:textBlock v:margins="rect(4,4,4,4)"/>
			<v:textRect cx="112.5" cy="587.25" width="225" height="49.5"/>
			<rect x="0" y="562.5" width="225" height="49.5" class="st4"/>
			<text x="39.31" y="598.05" class="st5" v:langID="1029"><v:paragraph v:horizAlign="1"/><v:tabList/>Innsbruck</text>		</g>
		<g id="shape1002-42" v:mID="1002" v:groupContext="shape" transform="translate(720,-108)">
			<title>Sheet.1002</title>
			<desc>Graz</desc>
			<v:textBlock v:margins="rect(4,4,4,4)"/>
			<v:textRect cx="112.5" cy="587.25" width="225" height="49.5"/>
			<rect x="0" y="562.5" width="225" height="49.5" class="st4"/>
			<text x="78.59" y="598.05" class="st5" v:langID="1029"><v:paragraph v:horizAlign="1"/><v:tabList/>Graz</text>		</g>
		<g id="shape1003-45" v:mID="1003" v:groupContext="shape" transform="translate(837,-432)">
			<title>Sheet.1003</title>
			<desc>Vienna</desc>
			<v:textBlock v:margins="rect(4,4,4,4)"/>
			<v:textRect cx="112.5" cy="587.25" width="225" height="49.5"/>
			<rect x="0" y="562.5" width="225" height="49.5" class="st4"/>
			<text x="60.17" y="598.05" class="st5" v:langID="1029"><v:paragraph v:horizAlign="1"/><v:tabList/>Vienna</text>		</g>
		<g id="shape1004-48" v:mID="1004" v:groupContext="shape" transform="translate(103.5,-420.75)">
			<title>Sheet.1004</title>
			<desc>Salzburg</desc>
			<v:textBlock v:margins="rect(4,4,4,4)"/>
			<v:textRect cx="112.5" cy="587.25" width="225" height="49.5"/>
			<rect x="0" y="562.5" width="225" height="49.5" class="st4"/>
			<text x="49.28" y="598.05" class="st5" v:langID="1029"><v:paragraph v:horizAlign="1"/><v:tabList/>Salzburg</text>		</g>
		<g id="shape1007-51" v:mID="1007" v:groupContext="shape" v:layerMember="0" transform="translate(400.5,-335.25)">
			<title>Dynamic connector.63</title>
			<path d="M0 612 L-130.5 526.5" class="st6"/>
		</g>
		<g id="shape1008-54" v:mID="1008" v:groupContext="shape" transform="translate(513,-11.25)">
			<title>Sheet.1008</title>
			<desc>Klagenfurt</desc>
			<v:textBlock v:margins="rect(4,4,4,4)"/>
			<v:textRect cx="112.5" cy="587.25" width="225" height="49.5"/>
			<rect x="0" y="562.5" width="225" height="49.5" class="st4"/>
			<text x="34.1" y="598.05" class="st5" v:langID="1029"><v:paragraph v:horizAlign="1"/><v:tabList/>Klagenfurt</text>		</g>
		<g id="shape1009-57" v:mID="1009" v:groupContext="shape" transform="translate(279,-11.25)">
			<title>Sheet.1009</title>
			<desc>Villach</desc>
			<v:textBlock v:margins="rect(4,4,4,4)"/>
			<v:textRect cx="112.5" cy="587.25" width="225" height="49.5"/>
			<rect x="0" y="562.5" width="225" height="49.5" class="st4"/>
			<text x="62.52" y="598.05" class="st5" v:langID="1029"><v:paragraph v:horizAlign="1"/><v:tabList/>Villach</text>		</g>
		<g id="shape1010-60" v:mID="1010" v:groupContext="shape" v:layerMember="0" transform="translate(534.375,-416.25)">
			<title>Dynamic connector.1010</title>
			<path d="M0 612 L-39.37 479.25" class="st6"/>
		</g>
		<g id="shape1011-63" v:mID="1011" v:groupContext="shape" v:layerMember="0" transform="translate(792,-139.5)">
			<title>Dynamic connector.1011</title>
			<path d="M0 612 L-133.88 532.12" class="st6"/>
		</g>
		<g id="shape1012-66" v:mID="1012" v:groupContext="shape" v:layerMember="0" transform="translate(891,-445.5)">
			<title>Dynamic connector.1012</title>
			<path d="M0 612 L-135 657" class="st6"/>
		</g>
		<g id="shape1013-69" v:mID="1013" v:groupContext="shape" v:layerMember="0" transform="translate(567,-60.75)">
			<title>Dynamic connector.1013</title>
			<path d="M0 612 L-30.38 523.13" class="st6"/>
		</g>
		<g id="shape1014-72" v:mID="1014" v:groupContext="shape" v:layerMember="0" transform="translate(445.5,-60.75)">
			<title>Dynamic connector.1014</title>
			<path d="M0 612 L41.63 525.38" class="st6"/>
		</g>
		<g id="shape1015-75" v:mID="1015" v:groupContext="shape" v:layerMember="0" transform="translate(222.75,-249.75)">
			<title>Dynamic connector.1015</title>
			<path d="M0 612 L-38.25 756" class="st6"/>
		</g>
	</g>
</svg>
