<svg height="513" version="1.1" width="1000" xmlns="http://www.w3.org/2000/svg" style="overflow: hidden; position: relative; left: -0.5px;" viewBox="0 0 1000 513" preserveAspectRatio="xMinYMin"><rect x="-2000" y="-1026" width="5000" height="2565" r="0" rx="0" ry="0" fill="#ffffff" stroke="none" transform="matrix(1,0,0,1,0,0)" style="-webkit-tap-highlight-color: rgba(0, 0, 0, 0); fill-opacity: 0;" fill-opacity="0" stroke-width="1"/><path fill="#ffffff" stroke="#000000" d="M662.6,246L666.8000000000001,249.4L679.2,249.3L679.9000000000001,249.70000000000002L681.0000000000001,250.9L684.6000000000001,253.9L687.1000000000001,254.20000000000002L690.1000000000001,253.50000000000003L693.0000000000001,251.70000000000002L697.8000000000001,249.60000000000002L700.2,249.00000000000003L702,248.90000000000003L704,249.30000000000004L705.2,249.30000000000004L708.8000000000001,248.20000000000005L714.9000000000001,245.80000000000004L719.5000000000001,244.80000000000004L720.8000000000001,244.00000000000003L721.9000000000001,242.60000000000002L722.6000000000001,241.3L725.9000000000001,237.10000000000002L730.8000000000001,237.90000000000003L731.6,237.80000000000004L738.9,236.00000000000003L741.3,236.20000000000002L743.1999999999999,237.00000000000003L748.1999999999999,241.70000000000002L758.0999999999999,246.50000000000003L762.6999999999999,249.80000000000004L770.6999999999999,250.50000000000003L773.1999999999999,253.20000000000002L774.5999999999999,255.20000000000002L776.3,256.3L778.5999999999999,257.5L779.8999999999999,257.8L781.0999999999999,257.8L782.0999999999999,257.6L783.5999999999999,257.90000000000003L784.4999999999999,258.70000000000005L784.9999999999999,260.00000000000006L785.6999999999999,265.1000000000001L786.1999999999999,267.1000000000001L787.0999999999999,269.4000000000001L788.1999999999999,270.2000000000001L789.4999999999999,270.1000000000001L793.4999999999999,267.9000000000001L794.9999999999999,267.6000000000001L795.8999999999999,268.2000000000001L796.4999999999999,268.9000000000001L797.2999999999998,270.30000000000007L797.3999999999999,270.80000000000007L797.5999999999999,271.80000000000007L797.6999999999999,273.00000000000006L797.4999999999999,274.30000000000007L796.9999999999999,276.00000000000006L796.8999999999999,276.80000000000007L797.1999999999998,277.9000000000001L797.8999999999999,278.30000000000007L798.7999999999998,278.50000000000006L801.6999999999998,278.50000000000006L804.7999999999998,280.90000000000003L806.2999999999998,283.70000000000005L807.6999999999998,287.70000000000005L817.4999999999998,289.40000000000003L820.3999999999997,291.00000000000006L821.4999999999998,292.1000000000001L822.3999999999997,292.50000000000006L823.2999999999997,292.50000000000006L824.4999999999998,292.1000000000001L827.2999999999997,290.7000000000001L827.7999999999997,290.9000000000001L828.1999999999997,291.4000000000001L828.5999999999997,292.30000000000007L828.8999999999996,293.6000000000001L828.9999999999997,294.80000000000007L829.1999999999997,295.6000000000001L829.8999999999997,297.50000000000006L831.1999999999997,300.1000000000001L835.2999999999997,303.6000000000001L828.3999999999997,310.9000000000001L826.1999999999997,312.1000000000001L825.7999999999997,311.4000000000001L825.3999999999997,310.2000000000001L824.7999999999997,309.2000000000001L823.2999999999997,309.4000000000001L822.0999999999997,310.6000000000001L820.2999999999997,313.1000000000001L819.8999999999997,314.6000000000001L820.0999999999998,316.1000000000001L822.1999999999998,321.1000000000001L823.4999999999998,325.50000000000006L824.5999999999998,330.40000000000003L825.5999999999998,337.00000000000006L825.6999999999998,339.80000000000007L828.9999999999998,352.50000000000006L828.9999999999998,357.20000000000005L827.6999999999998,362.70000000000005L827.8999999999999,364.50000000000006L828.2999999999998,366.90000000000003L829.3999999999999,368.90000000000003L833.6999999999998,374.40000000000003L833.9999999999998,375.90000000000003L833.8999999999997,377.00000000000006L833.0999999999998,378.90000000000003L829.8999999999997,383.50000000000006L824.1999999999997,391.1000000000001L819.8999999999997,394.9000000000001L818.9999999999998,396.5000000000001L818.5999999999998,398.2000000000001L818.4999999999998,400.0000000000001L817.9999999999998,402.9000000000001L818.0999999999998,404.0000000000001L818.6999999999998,404.8000000000001L820.1999999999998,406.0000000000001L820.6999999999998,406.7000000000001L820.8999999999999,407.1000000000001L820.9999999999999,409.1000000000001L821.0999999999999,409.80000000000007L821.0999999999999,409.9000000000001L816.1999999999999,411.1000000000001L815.4999999999999,411.50000000000006L814.2999999999998,412.70000000000005L814.3999999999999,413.1L814.9999999999999,413.5L815.0999999999999,414.7L814.1999999999999,420.09999999999997L814.1999999999999,420.59999999999997L814.0999999999999,423.2L814.1999999999999,426.2L815.4999999999999,430.5L818.0999999999999,432.1L818.6999999999999,433.40000000000003L819.3,434.6L819.4,434.8L819.6999999999999,438.8L817.4,436L816.1,435L813.8000000000001,434.6L811.3000000000001,434.20000000000005L803.2,430.1L799.9000000000001,429.40000000000003L796.6000000000001,429.70000000000005L792.0000000000001,431.6L788.5000000000001,433L785.3000000000001,433.2L776.2,431.8L774.3000000000001,430.6L773.9000000000001,433.3L773.9000000000001,435.5L773.2,437L772.6,437.5L772,437.9L770.4,438.4L768.6,437.9L766.1,437.9L763.6,438.59999999999997L761.7,439.99999999999994L760.6,442.3999999999999L760.5,442.7999999999999L760.2,444.3999999999999L759.7,445.3999999999999L759.4000000000001,446.0999999999999L757.2,447.8999999999999L753.6,448.49999999999994L750.9,446.79999999999995L750.4,446.29999999999995L748.3,444.49999999999994L744.6999999999999,443.09999999999997L738.0999999999999,443.49999999999994L722.8999999999999,444.29999999999995L719.0999999999999,443.9L711.0999999999999,443L710.9999999999999,442.9L709.9999999999999,441.7L702.5999999999999,433.09999999999997L701.1999999999999,428.99999999999994L700.9,423.19999999999993L699.5,416.99999999999994L697.7,412.79999999999995L697.1,410.49999999999994L696.9,408.8999999999999L697.1,407.8999999999999L697.7,405.7999999999999L698.5,404.2999999999999L699.2,402.0999999999999L699.5,396.8999999999999L690.1,382.49999999999994L685.4,376.69999999999993L683.6,375.29999999999995L682.4,374.49999999999994L680.6,374.19999999999993L667.4,377.29999999999995L652.6999999999999,378.49999999999994L649.4999999999999,377.09999999999997L641.6999999999999,377.7L638.4999999999999,377.4L626.2999999999998,381.7L624.1999999999998,381.59999999999997L623.0999999999998,381.4L622.7999999999998,380.9L621.5999999999998,379.9L619.5999999999998,379L611.0999999999998,376.3L606.2999999999998,372.90000000000003L603.1999999999998,371.50000000000006L598.9999999999998,371.40000000000003L595.4999999999998,372.1L582.4999999999998,378.3L580.5999999999998,379.7L579.5999999999998,380.9L579.0999999999998,381.79999999999995L578.5999999999998,382.99999999999994L576.7999999999998,386.09999999999997L572.2999999999998,388.29999999999995L564.9999999999999,393.99999999999994L562.8999999999999,394.69999999999993L560.6999999999998,394.8999999999999L559.5999999999998,394.3999999999999L557.8999999999997,393.19999999999993L553.2999999999997,389.3999999999999L557.8999999999997,383.49999999999994L563.0999999999998,373.99999999999994L564.3999999999997,370.59999999999997L564.9999999999998,368.7L564.7999999999997,365.2L564.9999999999998,363L565.9999999999998,361.4L569.4999999999998,358L571.7999999999997,355L572.0999999999997,353.2L571.0999999999997,351.7L567.5999999999997,349.2L563.5999999999997,344.09999999999997L562.6999999999997,342.49999999999994L562.0999999999997,340.69999999999993L561.7999999999997,339.19999999999993L561.1999999999997,337.49999999999994L558.5999999999997,333.3999999999999L556.5999999999997,329.49999999999994L555.0999999999997,328.3999999999999L553.2999999999997,328.99999999999994L551.4999999999998,330.19999999999993L548.0999999999998,330.5999999999999L546.0999999999998,331.3999999999999L544.4999999999998,332.69999999999993L542.7999999999997,333.29999999999995L541.0999999999997,332.79999999999995L538.9999999999997,331.4L535.2999999999996,327.79999999999995L532.0999999999996,321.29999999999995L528.5999999999996,309.49999999999994L527.4999999999995,303.19999999999993L527.5999999999996,301.8999999999999L528.4999999999995,298.5999999999999L529.3999999999995,295.9999999999999L540.4999999999995,298.1999999999999L541.5999999999996,297.59999999999985L543.0999999999996,297.1999999999999L543.3999999999995,296.4999999999999L546.3999999999995,293.89999999999986L546.8999999999995,293.39999999999986L547.2999999999995,292.59999999999985L547.7999999999995,290.6999999999999L547.6999999999995,288.39999999999986L547.0999999999995,285.4999999999999L545.9999999999994,283.0999999999999L545.0999999999995,281.5999999999999L543.5999999999995,279.8999999999999L542.2999999999995,278.19999999999993L541.2999999999995,276.3999999999999L540.8999999999995,274.49999999999994L540.7999999999995,272.79999999999995L540.9999999999995,269.29999999999995L541.2999999999995,267.09999999999997L541.9999999999995,264.59999999999997L543.4999999999995,262.59999999999997L545.4999999999995,260.99999999999994L558.1999999999996,254.59999999999994L559.4999999999995,254.39999999999995L560.5999999999996,254.49999999999994L563.4999999999995,256.29999999999995L565.0999999999996,256.9L568.6999999999996,257.59999999999997L571.7999999999996,258.79999999999995L573.6999999999996,259.19999999999993L578.8999999999996,258.49999999999994L584.2999999999996,264.8999999999999L585.5999999999996,268.2999999999999L585.7999999999996,269.5999999999999L586.3999999999996,271.2999999999999L587.1999999999996,271.2999999999999L589.5999999999996,269.5999999999999L595.3999999999995,267.9999999999999L599.7999999999995,265.89999999999986L601.3999999999995,265.4999999999999L602.4999999999995,265.6999999999999L609.2999999999995,270.39999999999986L611.7999999999995,271.59999999999985L614.2999999999995,272.29999999999984L617.7999999999995,272.29999999999984L620.6999999999995,271.39999999999986L625.9999999999994,267.29999999999984L628.9999999999994,265.49999999999983L632.7999999999994,264.3999999999998L634.7999999999994,263.3999999999998L636.0999999999993,262.0999999999998L636.5999999999993,260.8999999999998L637.8999999999993,259.0999999999998L654.9999999999993,252.1999999999998L662.5999999999993,245.9999999999998Z" class="sm_state sm_state_AT6" opacity="1" stroke-opacity="1" stroke-width="1.875" stroke-linejoin="round" transform="matrix(1,0,0,1,0,0)" style="-webkit-tap-highlight-color: rgba(0, 0, 0, 0); opacity: 1; cursor: pointer; stroke-opacity: 1; stroke-linejoin: round; fill-opacity: 1;" fill-opacity="1"/><path fill="#ffffff" stroke="#000000" d="M123.4,333.7L131.1,332.7L133.7,331.7L139,328.4L141.3,326.29999999999995L143.5,323.4L146.1,318.09999999999997L146.79999999999998,316.99999999999994L148.1,316.09999999999997L150.6,315.29999999999995L151.6,314.59999999999997L153.6,311.9L155.29999999999998,308.4L156.39999999999998,304.4L156.39999999999998,300.59999999999997L155.89999999999998,298.4L155.2,296.9L154.2,295.7L152.5,294.8L153.7,287.8L153.89999999999998,286.2L153.09999999999997,284.2L152.09999999999997,282.2L151.89999999999998,280.7L153.7,280L155.7,279.6L156.6,279.3L157,279.6L157.5,281.3L157.4,282L156.8,282.8L156.4,283.90000000000003L156.6,285.40000000000003L157.2,286.3L158.2,286.90000000000003L160,287.8L165.1,288.6L166.5,288.3L168,287.1L170.5,283.70000000000005L172.1,282.6L175,282.6L190.7,288.6L191.2,289.1L191.6,290L192.2,290.9L193.2,291.2L196.7,290.8L201.5,288.6L203.2,288.1L204.89999999999998,288.20000000000005L206.09999999999997,288.90000000000003L208.89999999999998,291.00000000000006L207.89999999999998,292.20000000000005L203.99999999999997,294.80000000000007L204.79999999999998,296.20000000000005L210.99999999999997,299.1L216.89999999999998,305.5L217.29999999999998,306.3L217.29999999999998,307.5L217.1,308.7L216.7,309.5L216.39999999999998,309.5L217.59999999999997,311.9L219.29999999999995,312.9L231.69999999999996,313.09999999999997L233.99999999999997,312.4L241.79999999999998,307L244.79999999999998,306.1L247.39999999999998,307.20000000000005L247.09999999999997,312.00000000000006L249.99999999999997,312.30000000000007L252.59999999999997,311.1000000000001L254.29999999999995,309.30000000000007L255.79999999999995,307.1000000000001L258.09999999999997,305.00000000000006L260.4,304.30000000000007L265.5,304.20000000000005L267.5,303.30000000000007L268.5,301.6000000000001L268,300.30000000000007L266.7,299.4000000000001L265.3,299.0000000000001L270.90000000000003,292.5000000000001L273.6,291.9000000000001L276.5,292.30000000000007L279.2,293.1000000000001L284.8,292.2000000000001L287.40000000000003,291.2000000000001L289.6,288.8000000000001L290.20000000000005,287.10000000000014L291.1,283.0000000000001L291.90000000000003,281.2000000000001L295.3,278.3000000000001L295.7,277.8000000000001L297.9,277.8000000000001L303.09999999999997,278.90000000000015L312.79999999999995,278.90000000000015L319.49999999999994,280.3000000000001L320.69999999999993,279.90000000000015L321.8999999999999,276.90000000000015L323.2999999999999,276.10000000000014L333.2999999999999,274.0000000000001L360.6999999999999,275.2000000000001L361.59999999999985,275.0000000000001L364.99999999999983,270.7000000000001L365.3999999999998,269.5000000000001L365.5999999999998,267.9000000000001L365.3999999999998,263.2000000000001L364.99999999999983,262.2000000000001L364.3999999999998,261.8000000000001L363.49999999999983,260.8000000000001L362.59999999999985,259.60000000000014L362.1999999999999,258.70000000000016L361.9999999999999,257.20000000000016L363.7999999999999,256.40000000000015L366.6999999999999,254.10000000000014L367.6999999999999,253.40000000000015L369.4999999999999,252.60000000000014L369.7999999999999,252.60000000000014L369.3999999999999,253.40000000000015L369.0999999999999,255.30000000000015L368.69999999999993,256.70000000000016L367.8999999999999,257.70000000000016L367.49999999999994,259.00000000000017L368.19999999999993,260.90000000000015L369.3999999999999,262.00000000000017L370.69999999999993,261.8000000000002L373.29999999999995,260.4000000000002L375.9,260.0000000000002L382.79999999999995,261.5000000000002L384.79999999999995,261.2000000000002L389.49999999999994,259.4000000000002L391.49999999999994,259.7000000000002L391.99999999999994,260.80000000000024L393.29999999999995,264.5000000000002L393.9,266.0000000000002L394.9,267.10000000000025L398.4,270.0000000000002L400.09999999999997,270.80000000000024L402.49999999999994,270.90000000000026L405.09999999999997,270.40000000000026L406.9,269.60000000000025L408.09999999999997,268.60000000000025L411.09999999999997,273.90000000000026L413.59999999999997,276.2000000000003L417.79999999999995,279.0000000000003L418.9,280.2000000000003L419.29999999999995,281.10000000000025L419.19999999999993,281.90000000000026L418.5999999999999,283.30000000000024L418.7999999999999,284.7000000000002L419.1999999999999,286.80000000000024L421.4999999999999,292.7000000000002L421.7999999999999,293.80000000000024L421.5999999999999,294.5000000000002L420.9999999999999,295.80000000000024L420.1999999999999,297.2000000000002L417.7999999999999,300.2000000000002L416.5999999999999,302.30000000000024L414.0999999999999,307.80000000000024L413.19999999999993,309.10000000000025L412.29999999999995,310.2000000000003L411.19999999999993,311.10000000000025L409.99999999999994,311.90000000000026L408.69999999999993,312.5000000000003L402.79999999999995,313.1000000000003L401.59999999999997,313.4000000000003L400.7,313.8000000000003L400,314.7000000000003L399.2,316.3000000000003L398.09999999999997,319.6000000000003L396.9,321.5000000000003L395.4,322.90000000000026L393.9,323.80000000000024L391.59999999999997,324.60000000000025L387.7,325.2000000000003L385.9,325.10000000000025L384.29999999999995,324.60000000000025L381.69999999999993,323.10000000000025L380.19999999999993,322.80000000000024L378.49999999999994,323.0000000000002L374.29999999999995,325.60000000000025L360.99999999999994,330.40000000000026L357.29999999999995,330.30000000000024L355.69999999999993,330.60000000000025L352.3999999999999,332.40000000000026L352.5999999999999,335.90000000000026L350.9999999999999,342.80000000000024L350.6999999999999,345.40000000000026L350.6999999999999,348.60000000000025L350.9999999999999,350.5000000000002L351.5999999999999,352.30000000000024L352.2999999999999,353.40000000000026L354.2999999999999,355.10000000000025L355.1999999999999,356.0000000000002L356.09999999999985,358.4000000000002L356.59999999999985,360.2000000000002L356.89999999999986,366.80000000000024L356.79999999999984,367.5000000000002L356.79999999999984,367.60000000000025L354.79999999999984,368.0000000000002L342.6999999999998,374.30000000000024L334.1999999999998,374.7000000000002L328.8999999999998,376.6000000000002L323.8999999999998,379.3000000000002L319.7999999999998,382.6000000000002L314.2999999999998,383.4000000000002L312.9999999999998,384.3000000000002L310.69999999999976,386.20000000000016L309.2999999999998,386.50000000000017L307.0999999999998,385.70000000000016L303.1999999999998,382.8000000000002L300.99999999999983,382.6000000000002L300.09999999999985,382.7000000000002L299.1999999999999,382.6000000000002L298.9999999999999,382.6000000000002L298.89999999999986,382.6000000000002L292.79999999999984,381.3000000000002L289.99999999999983,381.6000000000002L286.49999999999983,382.6000000000002L285.29999999999984,383.2000000000002L284.1999999999998,383.4000000000002L283.0999999999998,383.2000000000002L282.0999999999998,382.6000000000002L281.4999999999998,381.8000000000002L280.7999999999998,381.1000000000002L280.0999999999998,380.7000000000002L277.9999999999998,380.2000000000002L276.7999999999998,380.4000000000002L275.69999999999976,381.2000000000002L274.7999999999998,382.6000000000002L270.69999999999976,386.6000000000002L267.09999999999974,386.4000000000002L263.39999999999975,384.6000000000002L259.09999999999974,383.6000000000002L250.79999999999973,385.00000000000017L242.49999999999972,387.70000000000016L240.39999999999972,389.00000000000017L232.69999999999973,396.70000000000016L231.69999999999973,398.8000000000002L230.39999999999972,405.00000000000017L228.19999999999973,410.3000000000002L228.09999999999974,411.00000000000017L228.19999999999973,412.8000000000002L227.99999999999974,413.70000000000016L227.49999999999974,414.3000000000002L226.19999999999973,414.8000000000002L225.69999999999973,415.3000000000002L222.99999999999974,419.9000000000002L221.39999999999975,421.7000000000002L219.69999999999976,421.9000000000002L217.59999999999977,421.2000000000002L213.49999999999977,420.80000000000024L211.39999999999978,421.10000000000025L207.49999999999977,422.40000000000026L206.29999999999978,422.5000000000003L205.0999999999998,422.0000000000003L202.9999999999998,420.3000000000003L201.9999999999998,419.7000000000003L200.6999999999998,419.7000000000003L198.4999999999998,420.40000000000026L197.2999999999998,420.30000000000024L193.8999999999998,418.40000000000026L192.4999999999998,417.90000000000026L189.9999999999998,418.7000000000003L188.6999999999998,418.60000000000025L187.9999999999998,417.10000000000025L188.4999999999998,416.30000000000024L191.1999999999998,414.10000000000025L191.79999999999978,412.90000000000026L190.5999999999998,411.10000000000025L181.4999999999998,405.7000000000003L179.6999999999998,405.2000000000003L177.4999999999998,405.40000000000026L165.3999999999998,408.80000000000024L160.4999999999998,408.2000000000002L156.5999999999998,405.1000000000002L156.29999999999978,401.3000000000002L157.79999999999978,395.4000000000002L157.1999999999998,392.5000000000002L156.0999999999998,391.2000000000002L152.0999999999998,388.0000000000002L149.5999999999998,383.9000000000002L148.29999999999978,382.6000000000002L147.6999999999998,382.2000000000002L146.9999999999998,382.1000000000002L146.3999999999998,382.2000000000002L142.8999999999998,384.2000000000002L139.8999999999998,387.6000000000002L137.7999999999998,391.6000000000002L137.7999999999998,394.9000000000002L134.7999999999998,395.0000000000002L132.4999999999998,394.4000000000002L130.5999999999998,394.8000000000002L128.6999999999998,397.9000000000002L128.1999999999998,400.1000000000002L128.0999999999998,401.50000000000017L127.7999999999998,402.90000000000015L126.4999999999998,404.60000000000014L121.2999999999998,407.3000000000001L118.2999999999998,408.2000000000001L117.39999999999979,408.1000000000001L117.2999999999998,407.6000000000001L115.1999999999998,401.9000000000001L112.4999999999998,397.5000000000001L112.1999999999998,395.7000000000001L112.59999999999981,394.3000000000001L114.09999999999981,392.3000000000001L115.59999999999981,391.0000000000001L116.8999999999998,389.2000000000001L117.59999999999981,387.1000000000001L117.99999999999982,384.00000000000006L117.89999999999982,382.1000000000001L117.49999999999982,379.7000000000001L117.39999999999982,377.6000000000001L117.59999999999982,374.9000000000001L118.99999999999983,367.9000000000001L120.19999999999983,364.6000000000001L124.79999999999983,357.6000000000001L126.59999999999982,353.2000000000001L126.89999999999982,348.3000000000001L126.79999999999983,346.60000000000014L125.29999999999983,338.70000000000016L123.39999999999982,333.70000000000016ZM365.20000000000005,369.7L368.50000000000006,367.9L379.1000000000001,363.09999999999997L386.2000000000001,356.2L388.2000000000001,355.3L390.7000000000001,354.90000000000003L393.5000000000001,354.90000000000003L397.7000000000001,354.1L400.8000000000001,354.20000000000005L404.3000000000001,355.40000000000003L407.5000000000001,355.6L409.8000000000001,356.20000000000005L411.8000000000001,357.30000000000007L416.5000000000001,361.80000000000007L416.8000000000001,365.20000000000005L417.8000000000001,366.50000000000006L419.3000000000001,367.80000000000007L429.60000000000014,371.30000000000007L430.60000000000014,372.6000000000001L430.5000000000001,374.50000000000006L429.0000000000001,378.1000000000001L428.7000000000001,379.4000000000001L428.5000000000001,380.7000000000001L428.5000000000001,381.4000000000001L428.60000000000014,382.2000000000001L429.0000000000001,383.9000000000001L429.8000000000001,385.4000000000001L431.0000000000001,387.0000000000001L432.0000000000001,389.0000000000001L434.4000000000001,391.2000000000001L435.6000000000001,392.1000000000001L437.1000000000001,393.7000000000001L438.00000000000006,395.6000000000001L438.6000000000001,398.00000000000006L438.9000000000001,400.30000000000007L439.7000000000001,403.00000000000006L440.9000000000001,404.80000000000007L446.4000000000001,410.6000000000001L453.6000000000001,420.6000000000001L454.30000000000007,422.00000000000006L454.20000000000005,422.6000000000001L454.1,422.9000000000001L453.90000000000003,423.4000000000001L453.50000000000006,423.80000000000007L453.1000000000001,423.9000000000001L452.1000000000001,423.7000000000001L447.9000000000001,420.5000000000001L446.6000000000001,420.0000000000001L445.2000000000001,420.2000000000001L440.4000000000001,422.3000000000001L429.80000000000007,423.90000000000015L427.20000000000005,425.20000000000016L426.90000000000003,428.20000000000016L426.3,430.3000000000002L425.40000000000003,432.8000000000002L421.50000000000006,440.6000000000002L420.90000000000003,441.9000000000002L420.70000000000005,441.8000000000002L414.80000000000007,441.20000000000016L407.9000000000001,442.20000000000016L406.1000000000001,442.00000000000017L404.2000000000001,441.00000000000017L400.5000000000001,438.50000000000017L396.9000000000001,437.90000000000015L394.0000000000001,437.40000000000015L389.2000000000001,435.40000000000015L385.1000000000001,431.70000000000016L382.80000000000007,426.20000000000016L381.80000000000007,422.40000000000015L379.80000000000007,421.10000000000014L377.30000000000007,420.70000000000016L374.80000000000007,419.8000000000002L373.70000000000005,419.00000000000017L373.00000000000006,418.3000000000002L372.70000000000005,417.1000000000002L372.70000000000005,414.8000000000002L373.00000000000006,412.8000000000002L373.50000000000006,411.6000000000002L373.80000000000007,410.4000000000002L373.80000000000007,408.2000000000002L372.70000000000005,404.4000000000002L370.80000000000007,403.1000000000002L365.80000000000007,402.9000000000002L364.20000000000005,402.3000000000002L363.40000000000003,401.50000000000017L362.8,400.40000000000015L361.40000000000003,399.00000000000017L360.1,398.3000000000002L357.3,397.8000000000002L356,397.3000000000002L357.8,395.6000000000002L357.8,394.00000000000017L357,392.3000000000002L356.2,390.4000000000002L355.5,386.4000000000002L355,384.4000000000002L354.2,382.6000000000002L355.4,379.6000000000002L362.59999999999997,375.50000000000017L365.2,372.1000000000002L365.2,369.7000000000002Z" class="sm_state sm_state_AT7" opacity="1" stroke-opacity="1" stroke-width="1.875" stroke-linejoin="round" transform="matrix(1,0,0,1,0,0)" style="-webkit-tap-highlight-color: rgba(0, 0, 0, 0); opacity: 1; cursor: pointer; stroke-opacity: 1; stroke-linejoin: round; fill-opacity: 1;" fill-opacity="1"/><path fill="#ffffff" stroke="#000000" d="M442,208.1L441.7,206.2L439.9,202.2L431.5,193.39999999999998L430.4,191.59999999999997L429.4,189.49999999999997L428.79999999999995,187.09999999999997L428.99999999999994,184.69999999999996L429.69999999999993,183.49999999999997L430.49999999999994,183.19999999999996L431.29999999999995,183.19999999999996L431.99999999999994,182.89999999999995L433.69999999999993,180.19999999999996L434.19999999999993,179.59999999999997L438.8999999999999,176.29999999999995L440.49999999999994,174.49999999999994L442.59999999999997,171.09999999999994L443.7,169.89999999999995L445.5,168.89999999999995L452.1,167.59999999999994L452,167.19999999999993L453.8,165.69999999999993L457.7,163.49999999999994L462.09999999999997,159.29999999999995L463.99999999999994,157.89999999999995L476.3999999999999,152.99999999999994L492.7999999999999,150.09999999999994L496.7999999999999,147.89999999999995L508.3999999999999,137.59999999999994L510.0999999999999,134.79999999999993L510.7999999999999,130.99999999999991L510.9999999999999,130.0999999999999L511.5999999999999,129.1999999999999L512.0999999999999,127.8999999999999L512.3,126.09999999999991L512.0999999999999,120.99999999999991L512.3,119.29999999999991L512.9,117.69999999999992L514.5,114.29999999999991L514.8,112.49999999999991L514.5999999999999,110.89999999999992L513.4999999999999,109.19999999999992L512.9999999999999,105.99999999999991L512.5999999999999,105.09999999999991L512.5999999999999,104.49999999999991L513.1999999999999,103.19999999999992L514.3,102.19999999999992L518.1999999999999,100.79999999999991L522.1999999999999,100.19999999999992L534.4999999999999,103.69999999999992L536.5999999999999,104.79999999999991L538.4999999999999,106.29999999999991L540.3999999999999,109.09999999999991L545.1999999999998,111.29999999999991L545.4999999999998,111.59999999999991L546.5999999999998,106.79999999999991L547.5999999999998,104.69999999999992L547.9999999999998,104.79999999999991L550.4999999999998,104.3999999999999L551.3999999999997,103.9999999999999L552.3999999999997,102.9999999999999L552.9999999999998,102.1999999999999L554.9999999999998,97.6999999999999L555.6999999999998,95.2999999999999L556.0999999999998,92.6999999999999L556.1999999999998,89.6999999999999L555.5999999999998,83.8999999999999L555.8999999999997,81.6999999999999L557.4999999999998,80.1999999999999L555.9999999999998,79.4999999999999L555.3999999999997,78.8999999999999L554.0999999999998,76.3999999999999L553.4999999999998,76.6999999999999L553.7999999999997,74.8999999999999L557.2999999999997,67.3999999999999L562.0999999999997,68.6999999999999L564.3999999999996,69.8999999999999L566.5999999999997,71.59999999999991L569.1999999999997,73.79999999999991L571.4999999999997,75.09999999999991L571.8999999999996,75.29999999999991L573.9999999999997,76.49999999999991L574.3999999999996,76.69999999999992L577.1999999999996,78.19999999999992L578.1999999999996,79.39999999999992L580.1999999999996,82.39999999999992L580.9999999999995,83.89999999999992L581.5999999999996,84.49999999999991L582.3999999999995,84.79999999999991L583.0999999999996,85.29999999999991L583.3999999999995,86.3999999999999L583.1999999999995,87.3999999999999L583.1999999999995,87.59999999999991L582.6999999999995,87.6999999999999L582.1999999999995,87.59999999999991L582.0999999999995,87.59999999999991L581.6999999999995,87.8999999999999L580.8999999999995,89.59999999999991L580.7999999999995,89.59999999999991L580.2999999999995,89.79999999999991L579.9999999999995,90.29999999999991L580.5999999999996,92.79999999999991L581.0999999999996,93.79999999999991L583.1999999999996,96.3999999999999L584.1999999999996,97.1999999999999L588.1999999999996,98.9999999999999L605.0999999999996,100.8999999999999L614.2999999999996,104.09999999999991L614.6999999999996,104.1999999999999L615.0999999999996,104.3999999999999L616.4999999999995,104.8999999999999L616.7999999999995,104.9999999999999L616.8999999999995,104.9999999999999L618.0999999999996,104.8999999999999L618.9999999999995,104.4999999999999L621.3999999999995,102.5999999999999L621.6999999999995,102.4999999999999L622.9999999999994,101.8999999999999L625.7999999999994,100.6999999999999L627.5999999999993,99.8999999999999L628.4999999999993,98.9999999999999L629.4999999999993,97.9999999999999L632.1999999999994,90.8999999999999L632.5999999999993,90.59999999999991L633.8999999999993,89.6999999999999L636.7999999999993,92.9999999999999L641.4999999999993,95.4999999999999L642.8999999999993,95.8999999999999L644.6999999999992,95.4999999999999L645.0999999999992,95.2999999999999L648.2999999999993,93.7999999999999L649.7999999999993,93.5999999999999L650.0999999999992,93.5999999999999L650.8999999999992,94.2999999999999L650.9999999999992,95.39999999999989L650.9999999999992,96.5999999999999L651.3999999999992,97.39999999999989L652.2999999999992,97.49999999999989L654.1999999999991,96.89999999999989L654.8999999999992,96.99999999999989L656.1999999999991,98.69999999999989L656.8999999999992,100.39999999999989L657.8999999999992,101.5999999999999L659.7999999999992,101.69999999999989L661.6999999999991,99.89999999999989L661.8999999999992,100.39999999999989L664.0999999999992,102.49999999999989L671.5999999999992,104.19999999999989L675.4999999999992,105.89999999999989L679.2999999999992,107.89999999999989L683.6999999999991,108.49999999999989L685.5999999999991,109.19999999999989L687.2999999999992,110.5999999999999L688.4999999999992,112.5999999999999L688.6999999999992,114.39999999999989L688.5999999999992,115.19999999999989L688.1999999999992,115.49999999999989L685.4999999999992,115.29999999999988L684.9999999999992,115.39999999999988L684.7999999999992,115.69999999999987L684.6999999999991,116.39999999999988L684.6999999999991,117.99999999999987L684.4999999999991,119.09999999999987L684.4999999999991,120.59999999999987L684.9999999999991,122.49999999999987L687.6999999999991,126.29999999999987L690.6999999999991,127.29999999999987L691.2999999999992,133.09999999999988L693.5999999999991,134.8999999999999L694.1999999999991,136.4999999999999L695.5999999999991,145.2999999999999L694.6999999999991,160.7999999999999L694.6999999999991,164.7999999999999L692.8999999999992,162.5999999999999L691.3999999999992,161.7999999999999L690.0999999999992,161.3999999999999L684.1999999999992,161.6999999999999L681.9999999999992,162.6999999999999L680.2999999999992,164.3999999999999L678.4999999999992,166.8999999999999L676.8999999999992,168.2999999999999L659.7999999999992,172.3999999999999L657.2999999999992,171.6999999999999L655.2999999999992,169.7999999999999L651.9999999999992,165.0999999999999L650.4999999999992,163.2999999999999L648.6999999999992,162.0999999999999L646.5999999999992,161.39999999999992L641.2999999999993,161.29999999999993L639.6999999999992,162.59999999999994L638.8999999999993,162.99999999999994L638.0999999999993,163.69999999999993L637.6999999999994,164.09999999999994L637.4999999999993,164.49999999999994L637.2999999999993,164.89999999999995L637.0999999999992,165.99999999999994L636.3999999999992,173.09999999999994L636.0999999999992,174.69999999999993L635.4999999999992,176.19999999999993L635.1999999999992,177.19999999999993L635.7999999999993,182.19999999999993L635.9999999999993,182.89999999999992L636.2999999999993,183.39999999999992L636.4999999999993,183.89999999999992L636.4999999999993,184.5999999999999L635.7999999999993,185.6999999999999L634.3999999999993,187.2999999999999L634.2999999999993,187.6999999999999L634.1999999999992,188.0999999999999L634.1999999999992,188.99999999999991L634.0999999999992,189.5999999999999L632.3999999999992,192.7999999999999L631.7999999999992,193.2999999999999L631.2999999999992,193.6999999999999L630.3999999999992,193.8999999999999L630.1999999999991,194.6999999999999L632.3999999999992,197.2999999999999L651.5999999999992,211.8999999999999L657.7999999999993,214.9999999999999L661.5999999999992,216.09999999999988L664.1999999999992,217.59999999999988L666.6999999999992,219.59999999999988L667.8999999999993,221.09999999999988L668.7999999999993,222.3999999999999L668.6999999999992,225.7999999999999L666.5999999999992,228.7999999999999L664.9999999999992,235.3999999999999L664.8999999999992,239.4999999999999L664.6999999999991,241.69999999999987L662.5999999999991,245.9999999999999L654.9999999999991,252.19999999999987L637.8999999999991,259.09999999999985L636.5999999999991,260.89999999999986L636.0999999999991,262.09999999999985L634.7999999999992,263.39999999999986L632.7999999999992,264.39999999999986L628.9999999999992,265.4999999999999L625.9999999999992,267.2999999999999L620.6999999999992,271.3999999999999L617.7999999999993,272.2999999999999L614.2999999999993,272.2999999999999L611.7999999999993,271.5999999999999L609.2999999999993,270.3999999999999L602.4999999999993,265.69999999999993L601.3999999999993,265.49999999999994L599.7999999999993,265.8999999999999L595.3999999999993,267.99999999999994L589.5999999999993,269.59999999999997L587.1999999999994,271.29999999999995L586.3999999999994,271.29999999999995L585.7999999999994,269.59999999999997L585.5999999999993,268.29999999999995L584.2999999999994,264.9L578.8999999999994,258.5L573.6999999999994,259.2L571.7999999999994,258.8L568.6999999999994,257.6L565.0999999999993,256.90000000000003L563.4999999999993,256.3L560.5999999999993,254.5L559.4999999999993,254.4L558.1999999999994,254.6L545.4999999999993,261L543.4999999999993,262.6L541.9999999999993,264.6L541.2999999999993,267.1L540.9999999999993,269.3L540.7999999999993,272.8L540.8999999999993,274.5L541.2999999999993,276.4L542.2999999999993,278.2L543.5999999999992,279.9L545.0999999999992,281.59999999999997L545.9999999999992,283.09999999999997L547.0999999999992,285.49999999999994L547.6999999999992,288.3999999999999L547.7999999999993,290.69999999999993L547.2999999999993,292.5999999999999L546.8999999999993,293.3999999999999L546.3999999999993,293.8999999999999L543.3999999999993,296.49999999999994L543.0999999999993,297.19999999999993L541.5999999999993,297.5999999999999L540.4999999999993,298.19999999999993L529.3999999999993,295.99999999999994L522.5999999999993,291.59999999999997L518.3999999999993,287.29999999999995L517.3999999999993,284.9L517.1999999999992,282.2L517.8999999999993,279.9L519.6999999999992,276.79999999999995L520.3999999999993,275.4L520.6999999999992,273.59999999999997L520.3999999999993,272.09999999999997L518.3999999999993,268.59999999999997L522.6999999999992,255.09999999999997L522.1999999999992,253.59999999999997L521.2999999999993,251.99999999999997L518.2999999999993,251.59999999999997L515.7999999999993,250.49999999999997L514.6999999999992,249.89999999999998L514.0999999999992,249.29999999999998L513.6999999999992,248.7L513.0999999999992,247.29999999999998L513.2999999999993,246.49999999999997L514.0999999999992,245.89999999999998L518.7999999999993,245.59999999999997L520.6999999999992,245.29999999999995L522.1999999999992,243.39999999999995L519.3999999999993,240.89999999999995L497.8999999999993,236.09999999999994L495.9999999999993,234.79999999999993L494.8999999999993,233.29999999999993L494.3999999999993,231.69999999999993L492.8999999999993,225.19999999999993L492.5999999999993,222.89999999999992L492.3999999999993,220.5999999999999L492.6999999999993,215.5999999999999L492.9999999999993,213.49999999999991L493.3999999999993,211.99999999999991L493.7999999999993,211.0999999999999L494.49999999999926,210.5999999999999L495.2999999999993,210.39999999999992L498.49999999999926,211.39999999999992L500.19999999999925,211.49999999999991L501.89999999999924,211.0999999999999L502.99999999999926,209.7999999999999L503.0999999999993,208.3999999999999L502.0999999999993,207.1999999999999L500.99999999999926,206.3999999999999L499.7999999999993,205.7999999999999L496.19999999999925,203.1999999999999L488.0999999999992,206.99999999999991L481.19999999999925,207.79999999999993L476.69999999999925,207.19999999999993L471.99999999999926,205.59999999999994L471.39999999999924,205.29999999999993L470.7999999999992,204.89999999999992L467.2999999999992,201.19999999999993L464.39999999999924,199.49999999999994L461.39999999999924,198.99999999999994L456.2999999999992,199.29999999999995L454.0999999999992,199.99999999999994L452.69999999999925,201.19999999999993L451.7999999999993,203.89999999999992L451.3999999999993,204.5999999999999L449.9999999999993,205.5999999999999L444.3999999999993,207.0999999999999L441.9999999999993,208.0999999999999Z" class="sm_state sm_state_AT4" opacity="1" stroke-opacity="1" stroke-width="1.875" stroke-linejoin="round" transform="matrix(1,0,0,1,0,0)" style="-webkit-tap-highlight-color: rgba(0, 0, 0, 0); opacity: 1; cursor: pointer; stroke-opacity: 1; stroke-linejoin: round; fill-opacity: 1;" fill-opacity="1"/><path fill="#ffffff" stroke="#000000" d="M408.1,268.6L412.20000000000005,264.8L414.50000000000006,263.7L418.70000000000005,262.7L423.00000000000006,262.7L429.70000000000005,264.4L431.70000000000005,264.09999999999997L430.50000000000006,267.2L432.40000000000003,269.5L435.50000000000006,271.6L437.80000000000007,273.90000000000003L434.6000000000001,275.50000000000006L433.1000000000001,279.6000000000001L433.80000000000007,283.9000000000001L436.70000000000005,286.30000000000007L438.50000000000006,286.6000000000001L439.70000000000005,287.00000000000006L440.70000000000005,287.80000000000007L446.1,293.9000000000001L451.90000000000003,298.30000000000007L453.3,298.80000000000007L454.3,298.50000000000006L455.2,297.90000000000003L456.5,297.90000000000003L457.6,298.50000000000006L458.3,299.20000000000005L459,299.70000000000005L460.3,299.6L461.1,298.90000000000003L464.5,294.8L464.5,293.40000000000003L464.2,292.3L463.8,291.40000000000003L463.6,290.40000000000003L463.5,289.3L463.5,286.3L463.7,285.8L464.9,282.90000000000003L465,282.70000000000005L464.8,282.80000000000007L464.7,278.80000000000007L465,278.9000000000001L466.9,276.4000000000001L467,275.9000000000001L468.4,272.4000000000001L468.7,272.0000000000001L468.9,269.8000000000001L469,267.7000000000001L468.7,265.4000000000001L467.7,262.9000000000001L465.4,258.9000000000001L463.9,257.1000000000001L462.5,256.00000000000006L460.6,255.70000000000005L457.6,257.00000000000006L455.8,257.30000000000007L449.2,256.1000000000001L447.2,254.10000000000008L449.4,250.60000000000008L449.5,250.60000000000008L450.2,249.4000000000001L450.4,248.2000000000001L450.5,247.1000000000001L450.7,245.90000000000012L451.4,244.5000000000001L459.09999999999997,232.2000000000001L458.49999999999994,231.6000000000001L455.8999999999999,227.7000000000001L451.8999999999999,218.3000000000001L449.8999999999999,216.4000000000001L448.8999999999999,215.8000000000001L446.49999999999994,213.4000000000001L443.69999999999993,211.60000000000008L442.69999999999993,210.20000000000007L442.0999999999999,208.40000000000006L441.9999999999999,208.10000000000005L444.39999999999986,207.10000000000005L449.9999999999999,205.60000000000005L451.39999999999986,204.60000000000005L451.79999999999984,203.90000000000006L452.6999999999998,201.20000000000007L454.0999999999998,200.00000000000009L456.2999999999998,199.3000000000001L461.3999999999998,199.00000000000009L464.3999999999998,199.50000000000009L467.2999999999998,201.20000000000007L470.7999999999998,204.90000000000006L471.3999999999998,205.30000000000007L471.99999999999983,205.60000000000008L476.6999999999998,207.20000000000007L481.1999999999998,207.80000000000007L488.0999999999998,207.00000000000006L496.1999999999998,203.20000000000005L499.79999999999984,205.80000000000004L500.99999999999983,206.40000000000003L502.09999999999985,207.20000000000005L503.09999999999985,208.40000000000003L502.99999999999983,209.80000000000004L501.8999999999998,211.10000000000005L500.1999999999998,211.50000000000006L498.49999999999983,211.40000000000006L495.29999999999984,210.40000000000006L494.49999999999983,210.60000000000005L493.79999999999984,211.10000000000005L493.39999999999986,212.00000000000006L492.9999999999999,213.50000000000006L492.6999999999999,215.60000000000005L492.39999999999986,220.60000000000005L492.59999999999985,222.90000000000006L492.89999999999986,225.20000000000007L494.39999999999986,231.70000000000007L494.89999999999986,233.30000000000007L495.9999999999999,234.80000000000007L497.89999999999986,236.10000000000008L519.3999999999999,240.9000000000001L522.1999999999998,243.4000000000001L520.6999999999998,245.3000000000001L518.7999999999998,245.6000000000001L514.0999999999998,245.90000000000012L513.2999999999998,246.5000000000001L513.0999999999998,247.30000000000013L513.6999999999998,248.70000000000013L514.0999999999998,249.30000000000013L514.6999999999998,249.90000000000012L515.7999999999998,250.5000000000001L518.2999999999998,251.6000000000001L521.2999999999998,252.0000000000001L522.1999999999998,253.6000000000001L522.6999999999998,255.1000000000001L518.3999999999999,268.60000000000014L520.3999999999999,272.10000000000014L520.6999999999998,273.60000000000014L520.3999999999999,275.40000000000015L519.6999999999998,276.8000000000001L517.8999999999999,279.90000000000015L517.1999999999998,282.20000000000016L517.3999999999999,284.90000000000015L518.3999999999999,287.3000000000001L522.5999999999999,291.60000000000014L529.3999999999999,296.0000000000001L528.4999999999999,298.60000000000014L527.5999999999999,301.90000000000015L527.4999999999999,303.20000000000016L528.5999999999999,309.50000000000017L532.0999999999999,321.3000000000002L535.3,327.8000000000002L539,331.4000000000002L541.1,332.8000000000002L542.8000000000001,333.3000000000002L544.5000000000001,332.70000000000016L546.1000000000001,331.40000000000015L548.1000000000001,330.60000000000014L551.5000000000001,330.20000000000016L553.3000000000001,329.00000000000017L555.1,328.40000000000015L556.6,329.50000000000017L558.6,333.40000000000015L561.2,337.50000000000017L561.8000000000001,339.20000000000016L562.1,340.70000000000016L562.7,342.50000000000017L563.6,344.1000000000002L567.6,349.2000000000002L571.1,351.7000000000002L572.1,353.2000000000002L571.8000000000001,355.0000000000002L569.5000000000001,358.0000000000002L566.0000000000001,361.4000000000002L565.0000000000001,363.0000000000002L564.8000000000001,365.2000000000002L565.0000000000001,368.7000000000002L564.4000000000001,370.6000000000002L563.1000000000001,374.00000000000017L557.9000000000001,383.50000000000017L553.3000000000001,389.40000000000015L549.9000000000001,384.8000000000001L539.6000000000001,376.8000000000001L535.4000000000001,374.60000000000014L532.4000000000001,373.70000000000016L527.1000000000001,373.20000000000016L515.1000000000001,370.70000000000016L512.5000000000001,370.50000000000017L501.5000000000001,367.6000000000002L496.8000000000001,366.1000000000002L494.60000000000014,366.3000000000002L492.8000000000001,366.70000000000016L489.8000000000001,369.60000000000014L487.10000000000014,371.8000000000001L480.8000000000001,374.8000000000001L476.10000000000014,375.90000000000015L467.20000000000016,376.40000000000015L463.60000000000014,376.00000000000017L461.40000000000015,375.40000000000015L459.40000000000015,374.3000000000001L449.90000000000015,368.10000000000014L444.10000000000014,366.3000000000001L440.3000000000001,365.8000000000001L433.0000000000001,364.0000000000001L427.5000000000001,361.3000000000001L422.8000000000001,358.3000000000001L421.3000000000001,357.60000000000014L420.2000000000001,357.5000000000001L419.6000000000001,357.8000000000001L419.30000000000007,358.3000000000001L419.1000000000001,358.7000000000001L419.00000000000006,359.3000000000001L418.80000000000007,359.8000000000001L418.4000000000001,360.40000000000015L418.0000000000001,360.8000000000001L416.5000000000001,361.8000000000001L411.8000000000001,357.3000000000001L409.8000000000001,356.2000000000001L407.5000000000001,355.6000000000001L404.3000000000001,355.4000000000001L400.8000000000001,354.2000000000001L397.7000000000001,354.1000000000001L393.5000000000001,354.9000000000001L390.7000000000001,354.9000000000001L388.2000000000001,355.30000000000007L386.2000000000001,356.20000000000005L379.1000000000001,363.1L368.50000000000006,367.90000000000003L365.20000000000005,369.70000000000005L365.20000000000005,367.50000000000006L362.40000000000003,366.50000000000006L356.8,367.6000000000001L356.8,367.50000000000006L356.90000000000003,366.80000000000007L356.6,360.20000000000005L356.1,358.40000000000003L355.20000000000005,356.00000000000006L354.30000000000007,355.1000000000001L352.30000000000007,353.4000000000001L351.6000000000001,352.30000000000007L351.00000000000006,350.50000000000006L350.70000000000005,348.6000000000001L350.70000000000005,345.4000000000001L351.00000000000006,342.80000000000007L352.6000000000001,335.9000000000001L352.4000000000001,332.4000000000001L355.7000000000001,330.6000000000001L357.3000000000001,330.30000000000007L361.0000000000001,330.4000000000001L374.3000000000001,325.6000000000001L378.5000000000001,323.00000000000006L380.2000000000001,322.80000000000007L381.7000000000001,323.1000000000001L384.3000000000001,324.6000000000001L385.90000000000015,325.1000000000001L387.70000000000016,325.2000000000001L391.60000000000014,324.6000000000001L393.90000000000015,323.80000000000007L395.40000000000015,322.9000000000001L396.90000000000015,321.5000000000001L398.10000000000014,319.60000000000014L399.20000000000016,316.3000000000001L400.00000000000017,314.7000000000001L400.70000000000016,313.8000000000001L401.60000000000014,313.40000000000015L402.8000000000001,313.10000000000014L408.7000000000001,312.5000000000001L410.0000000000001,311.9000000000001L411.2000000000001,311.1000000000001L412.3000000000001,310.2000000000001L413.2000000000001,309.1000000000001L414.1000000000001,307.80000000000007L416.6000000000001,302.30000000000007L417.80000000000007,300.20000000000005L420.20000000000005,297.20000000000005L421.00000000000006,295.80000000000007L421.6000000000001,294.50000000000006L421.80000000000007,293.80000000000007L421.50000000000006,292.70000000000005L419.20000000000005,286.80000000000007L418.80000000000007,284.70000000000005L418.6000000000001,283.30000000000007L419.2000000000001,281.9000000000001L419.3000000000001,281.1000000000001L418.90000000000015,280.2000000000001L417.8000000000001,279.0000000000001L413.60000000000014,276.2000000000001L411.10000000000014,273.9000000000001L408.10000000000014,268.6000000000001Z" class="sm_state sm_state_AT5" opacity="1" stroke-opacity="1" stroke-width="1.875" stroke-linejoin="round" transform="matrix(1,0,0,1,0,0)" style="-webkit-tap-highlight-color: rgba(0, 0, 0, 0); opacity: 1; cursor: pointer; stroke-opacity: 1; stroke-linejoin: round; fill-opacity: 1;" fill-opacity="1"/><path fill="#ffffff" stroke="#000000" d="M420.9,441.9L421.5,440.59999999999997L425.4,432.79999999999995L426.29999999999995,430.29999999999995L426.9,428.19999999999993L427.2,425.19999999999993L429.8,423.8999999999999L440.40000000000003,422.2999999999999L445.20000000000005,420.1999999999999L446.6,419.9999999999999L447.90000000000003,420.4999999999999L452.1,423.6999999999999L453.1,423.89999999999986L453.5,423.79999999999984L453.9,423.39999999999986L454.09999999999997,422.89999999999986L454.2,422.59999999999985L454.3,421.99999999999983L453.6,420.59999999999985L446.40000000000003,410.59999999999985L440.90000000000003,404.79999999999984L439.70000000000005,402.99999999999983L438.90000000000003,400.29999999999984L438.6,397.99999999999983L438,395.59999999999985L437.1,393.6999999999999L435.6,392.09999999999985L434.40000000000003,391.1999999999999L432.00000000000006,388.9999999999999L431.00000000000006,386.9999999999999L429.80000000000007,385.39999999999986L429.00000000000006,383.89999999999986L428.6000000000001,382.1999999999999L428.50000000000006,381.39999999999986L428.50000000000006,380.6999999999999L428.70000000000005,379.39999999999986L429.00000000000006,378.09999999999985L430.50000000000006,374.49999999999983L430.6000000000001,372.59999999999985L429.6000000000001,371.29999999999984L419.30000000000007,367.79999999999984L417.80000000000007,366.49999999999983L416.80000000000007,365.1999999999998L416.50000000000006,361.79999999999984L418.00000000000006,360.79999999999984L418.40000000000003,360.39999999999986L418.8,359.79999999999984L419,359.29999999999984L419.1,358.6999999999998L419.3,358.29999999999984L419.6,357.79999999999984L420.20000000000005,357.49999999999983L421.30000000000007,357.59999999999985L422.80000000000007,358.29999999999984L427.50000000000006,361.29999999999984L433.00000000000006,363.99999999999983L440.30000000000007,365.79999999999984L444.1000000000001,366.29999999999984L449.9000000000001,368.09999999999985L459.4000000000001,374.29999999999984L461.4000000000001,375.39999999999986L463.6000000000001,375.9999999999999L467.2000000000001,376.39999999999986L476.1000000000001,375.89999999999986L480.80000000000007,374.79999999999984L487.1000000000001,371.79999999999984L489.80000000000007,369.59999999999985L492.80000000000007,366.6999999999999L494.6000000000001,366.2999999999999L496.80000000000007,366.0999999999999L501.50000000000006,367.5999999999999L512.5,370.4999999999999L515.1,370.6999999999999L527.1,373.1999999999999L532.4,373.6999999999999L535.4,374.59999999999985L539.6,376.79999999999984L549.9,384.79999999999984L553.3,389.39999999999986L557.9,393.1999999999999L559.6,394.39999999999986L560.7,394.89999999999986L562.9000000000001,394.6999999999999L565.0000000000001,393.9999999999999L572.3000000000001,388.2999999999999L576.8000000000001,386.0999999999999L578.6,382.9999999999999L579.1,381.7999999999999L579.6,380.8999999999999L580.6,379.69999999999993L582.5,378.29999999999995L595.5,372.09999999999997L599,371.4L603.2,371.5L606.3000000000001,372.9L611.1,376.29999999999995L619.6,378.99999999999994L621.6,379.8999999999999L622.8000000000001,380.8999999999999L623.1,381.3999999999999L624.2,381.5999999999999L626.3000000000001,381.69999999999993L638.5000000000001,377.3999999999999L641.7000000000002,377.69999999999993L649.5000000000001,377.0999999999999L652.7000000000002,378.4999999999999L667.4000000000002,377.2999999999999L680.6000000000003,374.1999999999999L682.4000000000002,374.4999999999999L683.6000000000003,375.2999999999999L685.4000000000002,376.6999999999999L690.1000000000003,382.4999999999999L699.5000000000002,396.89999999999986L699.2000000000003,402.09999999999985L698.5000000000002,404.29999999999984L697.7000000000003,405.79999999999984L697.1000000000003,407.89999999999986L696.9000000000002,408.89999999999986L697.1000000000003,410.4999999999999L697.7000000000003,412.7999999999999L699.5000000000002,416.9999999999999L700.9000000000002,423.1999999999999L701.2000000000002,428.9999999999999L702.6000000000001,433.0999999999999L710.0000000000001,441.69999999999993L711.0000000000001,442.8999999999999L711.1000000000001,442.99999999999994L708.7000000000002,442.79999999999995L705.9000000000002,442.4L699.0000000000002,444.7L694.6000000000003,451L692.3000000000003,447.7L690.6000000000003,447.4L688.9000000000002,448.4L686.3000000000002,450.09999999999997L685.9000000000002,450.09999999999997L683.8000000000002,450.4L682.2000000000002,450.2L680.7000000000002,450.8L678.7000000000002,453.8L677.3000000000002,456.7L676.4000000000002,459.5L675.5000000000002,462.1L674.2000000000003,465L673.3000000000003,467.2L672.6000000000003,467.8L670.0000000000002,469L666.9000000000002,469.5L665.9000000000002,468.8L663.9000000000002,469.7L663.2000000000002,470.5L662.6000000000001,471.7L661.2000000000002,473.4L660.3000000000002,475.5L659.5000000000002,475.3L658.7000000000003,475.2L658.2000000000003,475.4L655.8000000000003,477.9L654.6000000000003,478.7L653.4000000000002,479L650.8000000000002,479.2L649.6000000000001,479.7L647.9000000000001,482.3L646.9000000000001,485.6L646.3000000000001,487.1L645.8000000000001,488.5L643.7,489.4L642.1,487.7L640.8000000000001,484.7L639.1,482.5L635,483.5L633,483.2L631.4,482.4L629.4,481.5L628.6999999999999,480.7L628.3,479.7L627.6999999999999,478.9L626.4999999999999,478.59999999999997L622.4999999999999,479.49999999999994L608.1999999999999,479.09999999999997L597.1999999999999,478.7L596.9,478.7L595.6999999999999,478.3L588.9999999999999,472.5L587.1999999999999,471.7L585.3,471.09999999999997L583.1999999999999,470.99999999999994L581.0999999999999,471.3999999999999L579.0999999999999,471.69999999999993L577.1999999999999,471.49999999999994L566.3,466.29999999999995L562.6999999999999,465.69999999999993L554.9999999999999,466.99999999999994L553.2999999999998,466.99999999999994L545.4999999999999,465.09999999999997L543.5999999999999,464.99999999999994L541.8,465.29999999999995L540,465.09999999999997L525.6,460.4L520.5,460.2L519.6,459.59999999999997L517.9,457.7L517.1,457.4L509.8,457.9L504.6,457L492.5,459.6L487.6,459.3L485.1,458.3L477.6,453.7L467.8,451.4L439.90000000000003,449.4L433.1,444.9L430.1,443.9L429.1,443.59999999999997L428.20000000000005,443.7L426.30000000000007,444.5L425.1000000000001,444.5L424.00000000000006,444L421.90000000000003,442.4L420.90000000000003,441.9Z" class="sm_state sm_state_AT2" opacity="1" stroke-opacity="1" stroke-width="1.875" stroke-linejoin="round" transform="matrix(1,0,0,1,0,0)" style="-webkit-tap-highlight-color: rgba(0, 0, 0, 0); opacity: 1; cursor: pointer; stroke-opacity: 1; stroke-linejoin: round; fill-opacity: 1;" fill-opacity="1"/><path fill="#ffffff" stroke="#000000" d="M661.7,99.9L661.8000000000001,99.80000000000001L662.2,99.30000000000001L662.8000000000001,94.70000000000002L662.8000000000001,89.10000000000002L663.2,84.30000000000003L665.4000000000001,80.60000000000002L667.0000000000001,79.20000000000002L667.1000000000001,79.10000000000002L671.7000000000002,75.10000000000002L672.3000000000002,71.60000000000002L673.5000000000002,69.50000000000003L674.0000000000002,67.30000000000003L674.7000000000003,65.60000000000002L675.8000000000003,65.10000000000002L676.4000000000003,64.90000000000002L676.5000000000003,64.90000000000002L676.7000000000004,64.90000000000002L682.7000000000004,65.80000000000003L688.9000000000004,68.30000000000003L691.3000000000004,68.10000000000002L691.4000000000004,67.90000000000002L692.6000000000005,64.90000000000002L692.4000000000004,64.60000000000002L691.9000000000004,63.40000000000002L691.3000000000004,62.00000000000002L691.1000000000004,60.80000000000002L691.3000000000004,59.600000000000016L692.2000000000004,57.30000000000002L694.7000000000004,45.90000000000002L694.7000000000004,40.90000000000002L694.2000000000004,35.40000000000002L694.3000000000004,30.20000000000002L695.9000000000004,26.40000000000002L695.8000000000004,25.40000000000002L695.8000000000004,24.60000000000002L696.0000000000005,23.90000000000002L696.3000000000004,23.60000000000002L698.4000000000004,23.40000000000002L699.0000000000005,23.30000000000002L705.6000000000005,25.60000000000002L706.7000000000005,25.70000000000002L707.3000000000005,25.70000000000002L714.9000000000005,26.300000000000022L715.7000000000005,28.900000000000023L716.2000000000005,31.400000000000023L716.2000000000005,33.800000000000026L715.4000000000005,36.40000000000003L717.8000000000005,36.50000000000003L726.9000000000005,34.00000000000003L727.5000000000006,33.60000000000003L728.7000000000006,32.20000000000003L729.1000000000006,31.60000000000003L729.5000000000006,30.70000000000003L729.8000000000005,28.20000000000003L730.3000000000005,27.500000000000032L731.2000000000005,27.500000000000032L731.8000000000005,28.20000000000003L731.9000000000005,28.300000000000033L732.3000000000005,29.100000000000033L732.9000000000005,29.600000000000033L738.5000000000006,29.600000000000033L741.1000000000006,30.400000000000034L746.9000000000005,33.30000000000003L748.7000000000005,33.900000000000034L749.6000000000005,34.20000000000003L752.2000000000005,35.10000000000003L754.7000000000005,36.60000000000003L758.9000000000005,40.20000000000003L759.7000000000005,40.900000000000034L760.6000000000005,41.70000000000003L763.3000000000005,42.80000000000003L770.4000000000005,45.500000000000036L779.7000000000005,50.80000000000003L782.4000000000005,51.400000000000034L785.1000000000006,51.400000000000034L786.7000000000006,50.900000000000034L787.1000000000006,50.80000000000003L790.3000000000006,49.10000000000003L790.9000000000007,48.80000000000003L791.1000000000007,48.70000000000003L791.4000000000007,48.50000000000003L792.4000000000007,48.300000000000026L794.9000000000007,48.200000000000024L796.0000000000007,48.200000000000024L796.7000000000007,48.800000000000026L796.8000000000008,48.90000000000003L797.2000000000007,51.00000000000003L797.8000000000008,51.90000000000003L798.6000000000007,52.300000000000026L800.9000000000007,52.40000000000003L802.2000000000006,53.40000000000003L803.1000000000006,53.800000000000026L804.1000000000006,53.700000000000024L802.9000000000005,55.40000000000003L804.4000000000005,55.00000000000003L805.7000000000005,55.10000000000003L806.6000000000005,55.90000000000003L806.7000000000005,57.800000000000026L808.7000000000005,57.300000000000026L809.4000000000005,58.00000000000003L809.4000000000005,59.300000000000026L809.5000000000006,60.200000000000024L821.5000000000006,68.90000000000002L823.0000000000006,69.60000000000002L823.3000000000005,69.70000000000002L824.7000000000005,70.30000000000001L824.9000000000005,70.4L827.8000000000005,71.7L828.8000000000005,71.60000000000001L837.8000000000005,71.10000000000001L838.9000000000005,71.00000000000001L844.3000000000005,71.80000000000001L851.0000000000006,72.80000000000001L855.5000000000006,73.50000000000001L855.7000000000006,73.40000000000002L858.1000000000006,73.00000000000001L859.7000000000006,74.30000000000001L860.4000000000007,74.50000000000001L862.3000000000006,73.90000000000002L863.6000000000006,72.70000000000002L863.6000000000006,72.60000000000002L869.6000000000006,62.300000000000026L871.7000000000006,60.90000000000003L873.3000000000006,61.200000000000024L875.1000000000006,61.50000000000002L876.3000000000006,61.40000000000002L878.3000000000006,60.60000000000002L878.5000000000007,60.50000000000002L879.6000000000007,60.30000000000002L880.0000000000007,60.50000000000002L880.7000000000007,60.700000000000024L882.7000000000007,62.00000000000002L885.0000000000007,62.700000000000024L889.8000000000006,64.10000000000002L892.1000000000006,64.30000000000003L893.8000000000006,65.10000000000002L894.3000000000006,65.30000000000003L895.3000000000006,67.50000000000003L895.7000000000006,70.00000000000003L896.6000000000006,72.20000000000003L898.1000000000006,73.30000000000003L899.0000000000006,73.40000000000002L899.9000000000005,73.60000000000002L900.0000000000006,73.60000000000002L904.6000000000006,73.40000000000002L906.4000000000005,74.10000000000002L907.4000000000005,74.70000000000002L910.7000000000005,76.90000000000002L912.9000000000005,77.80000000000003L914.8000000000005,77.50000000000003L915.2000000000005,77.50000000000003L919.8000000000005,75.80000000000003L921.7000000000005,76.00000000000003L921.8000000000005,76.00000000000003L924.5000000000006,80.00000000000003L926.2000000000006,91.90000000000003L927.6000000000006,93.60000000000004L927.7000000000006,93.60000000000004L930.3000000000006,96.70000000000003L931.4000000000007,105.10000000000004L930.8000000000006,107.40000000000003L930.5000000000007,108.30000000000004L928.6000000000007,110.40000000000003L926.6000000000007,112.00000000000003L925.7000000000007,113.70000000000003L925.1000000000007,116.10000000000004L922.0000000000007,120.60000000000004L920.8000000000006,123.00000000000004L920.3000000000006,125.60000000000004L919.2000000000006,135.20000000000005L918.9000000000007,136.30000000000004L918.6000000000007,136.80000000000004L918.4000000000007,137.60000000000005L918.3000000000006,139.60000000000005L918.7000000000006,140.70000000000005L919.6000000000006,141.30000000000004L922.0000000000006,141.50000000000003L922.7000000000006,141.90000000000003L924.0000000000006,142.90000000000003L925.2000000000006,144.30000000000004L925.7000000000006,145.70000000000005L925.4000000000007,146.50000000000006L925.0000000000007,147.60000000000005L924.8000000000006,148.50000000000006L925.3000000000006,148.80000000000007L925.6000000000006,149.20000000000007L926.0000000000006,150.10000000000008L926.4000000000005,151.10000000000008L926.5000000000006,152.00000000000009L926.9000000000005,153.00000000000009L927.8000000000005,153.60000000000008L928.9000000000005,154.10000000000008L930.2000000000005,155.30000000000007L931.0000000000005,155.60000000000008L931.4000000000004,156.20000000000007L931.5000000000005,157.00000000000009L931.4000000000004,159.00000000000009L931.4000000000004,159.9000000000001L933.3000000000004,166.3000000000001L933.9000000000004,169.50000000000009L933.9000000000004,173.4000000000001L934.7000000000004,176.2000000000001L937.7000000000004,179.5000000000001L939.4000000000004,180.5000000000001L941.3000000000004,180.80000000000013L942.5000000000005,181.60000000000014L944.3000000000004,184.90000000000015L942.8000000000004,186.40000000000015L942.0000000000005,186.80000000000015L941.0000000000005,187.10000000000016L939.6000000000005,186.80000000000015L938.5000000000005,186.10000000000016L937.3000000000004,185.50000000000017L936.4000000000004,185.90000000000018L934.8000000000004,187.50000000000017L934.4000000000004,190.20000000000016L934.5000000000005,191.40000000000015L934.8000000000004,192.80000000000015L934.7000000000004,194.30000000000015L933.8000000000004,195.90000000000015L932.4000000000004,196.80000000000015L930.5000000000005,195.80000000000015L926.8000000000004,193.00000000000014L925.0000000000005,192.10000000000014L922.5000000000005,192.40000000000015L919.8000000000004,193.70000000000016L914.9000000000004,197.30000000000015L909.9000000000004,199.60000000000016L908.5000000000005,199.40000000000018L907.1000000000005,199.7000000000002L904.6000000000005,200.90000000000018L901.6000000000005,203.30000000000018L900.0000000000005,207.80000000000018L898.8000000000004,210.00000000000017L897.1000000000004,211.60000000000016L893.0000000000003,214.50000000000017L890.7000000000004,216.90000000000018L886.0000000000003,219.2000000000002L877.6000000000004,216.5000000000002L873.5000000000003,216.7000000000002L870.0000000000003,217.80000000000018L864.3000000000003,222.30000000000018L862.4000000000003,224.30000000000018L860.6000000000004,227.80000000000018L860.3000000000004,234.7000000000002L859.9000000000004,236.7000000000002L859.2000000000004,238.30000000000018L857.7000000000004,240.00000000000017L856.3000000000004,241.20000000000016L852.2000000000004,241.70000000000016L852.2000000000004,252.50000000000017L853.1000000000004,254.70000000000016L854.9000000000003,257.8000000000002L859.0000000000003,262.6000000000002L862.5000000000003,268.00000000000017L858.5000000000003,275.70000000000016L857.8000000000003,276.8000000000002L856.6000000000003,278.9000000000002L856.0000000000002,280.9000000000002L855.6000000000003,284.8000000000002L856.0000000000002,287.3000000000002L856.6000000000003,289.4000000000002L856.6000000000003,291.6000000000002L856.3000000000003,293.4000000000002L850.1000000000003,300.1000000000002L848.2000000000003,301.6000000000002L845.2000000000003,303.2000000000002L842.2000000000003,303.80000000000024L835.3000000000003,303.60000000000025L831.2000000000003,300.10000000000025L829.9000000000003,297.5000000000002L829.2000000000003,295.60000000000025L829.0000000000002,294.80000000000024L828.9000000000002,293.60000000000025L828.6000000000003,292.30000000000024L828.2000000000003,291.40000000000026L827.8000000000003,290.90000000000026L827.3000000000003,290.7000000000003L824.5000000000003,292.10000000000025L823.3000000000003,292.5000000000002L822.4000000000003,292.5000000000002L821.5000000000003,292.10000000000025L820.4000000000003,291.0000000000002L817.5000000000003,289.4000000000002L807.7000000000004,287.7000000000002L806.3000000000004,283.7000000000002L804.8000000000004,280.9000000000002L801.7000000000004,278.5000000000002L798.8000000000004,278.5000000000002L797.9000000000004,278.30000000000024L797.2000000000004,277.90000000000026L796.9000000000004,276.80000000000024L797.0000000000005,276.0000000000002L797.5000000000005,274.30000000000024L797.7000000000005,273.0000000000002L797.6000000000005,271.80000000000024L797.4000000000004,270.80000000000024L797.3000000000004,270.30000000000024L796.5000000000005,268.90000000000026L795.9000000000004,268.2000000000003L795.0000000000005,267.60000000000025L793.5000000000005,267.90000000000026L789.5000000000005,270.10000000000025L788.2000000000005,270.2000000000003L787.1000000000005,269.40000000000026L786.2000000000005,267.10000000000025L785.7000000000005,265.10000000000025L785.0000000000005,260.0000000000002L784.5000000000005,258.7000000000002L783.6000000000005,257.9000000000002L782.1000000000005,257.6000000000002L781.1000000000005,257.8000000000002L779.9000000000004,257.8000000000002L778.6000000000005,257.50000000000017L776.3000000000005,256.3000000000002L774.6000000000005,255.2000000000002L773.2000000000005,253.2000000000002L770.7000000000005,250.5000000000002L762.7000000000005,249.8000000000002L758.1000000000005,246.5000000000002L748.2000000000005,241.7000000000002L743.2000000000005,237.0000000000002L741.3000000000005,236.2000000000002L738.9000000000005,236.0000000000002L731.6000000000006,237.8000000000002L730.8000000000006,237.9000000000002L725.9000000000007,237.1000000000002L722.6000000000007,241.30000000000018L721.9000000000007,242.6000000000002L720.8000000000006,244.0000000000002L719.5000000000007,244.8000000000002L714.9000000000007,245.8000000000002L708.8000000000006,248.20000000000022L705.2000000000006,249.3000000000002L704.0000000000006,249.3000000000002L702.0000000000006,248.9000000000002L700.2000000000006,249.0000000000002L697.8000000000006,249.6000000000002L693.0000000000007,251.7000000000002L690.1000000000007,253.5000000000002L687.1000000000007,254.2000000000002L684.6000000000007,253.90000000000018L681.0000000000007,250.90000000000018L679.9000000000007,249.7000000000002L679.2000000000006,249.30000000000018L666.8000000000006,249.40000000000018L662.6000000000006,246.00000000000017L664.7000000000006,241.70000000000016L664.9000000000007,239.50000000000017L665.0000000000007,235.40000000000018L666.6000000000007,228.80000000000018L668.7000000000007,225.80000000000018L668.8000000000008,222.40000000000018L667.9000000000008,221.10000000000016L666.7000000000007,219.60000000000016L664.2000000000007,217.60000000000016L661.6000000000007,216.10000000000016L657.8000000000008,215.00000000000017L651.6000000000007,211.90000000000018L632.4000000000007,197.30000000000018L630.2000000000006,194.7000000000002L630.4000000000007,193.90000000000018L631.3000000000006,193.7000000000002L631.8000000000006,193.30000000000018L632.4000000000007,192.80000000000018L634.1000000000007,189.6000000000002L634.2000000000007,189.0000000000002L634.2000000000007,188.1000000000002L634.3000000000008,187.7000000000002L634.4000000000008,187.30000000000018L635.8000000000008,185.7000000000002L636.5000000000008,184.6000000000002L636.5000000000008,183.9000000000002L636.3000000000008,183.4000000000002L636.0000000000008,182.9000000000002L635.8000000000008,182.20000000000022L635.2000000000007,177.20000000000022L635.5000000000007,176.20000000000022L636.1000000000007,174.70000000000022L636.4000000000007,173.10000000000022L637.1000000000007,166.00000000000023L637.3000000000008,164.90000000000023L637.5000000000008,164.50000000000023L637.7000000000008,164.10000000000022L638.1000000000008,163.70000000000022L638.9000000000008,163.00000000000023L639.7000000000007,162.60000000000022L641.3000000000008,161.3000000000002L646.6000000000007,161.4000000000002L648.7000000000007,162.1000000000002L650.5000000000007,163.30000000000018L652.0000000000007,165.1000000000002L655.3000000000006,169.80000000000018L657.3000000000006,171.7000000000002L659.8000000000006,172.40000000000018L676.9000000000007,168.30000000000018L678.5000000000007,166.90000000000018L680.3000000000006,164.40000000000018L682.0000000000007,162.7000000000002L684.2000000000007,161.7000000000002L690.1000000000007,161.40000000000018L691.4000000000007,161.80000000000018L692.9000000000007,162.6000000000002L694.7000000000006,164.80000000000018L694.7000000000006,160.80000000000018L695.6000000000006,145.30000000000018L694.2000000000006,136.50000000000017L693.6000000000006,134.90000000000018L691.3000000000006,133.10000000000016L690.7000000000006,127.30000000000017L687.7000000000006,126.30000000000017L685.0000000000006,122.50000000000017L684.5000000000006,120.60000000000016L684.5000000000006,119.10000000000016L684.7000000000006,118.00000000000017L684.7000000000006,116.40000000000018L684.8000000000006,115.70000000000017L685.0000000000007,115.40000000000018L685.5000000000007,115.30000000000018L688.2000000000007,115.50000000000018L688.6000000000007,115.20000000000019L688.7000000000007,114.40000000000019L688.5000000000007,112.6000000000002L687.3000000000006,110.6000000000002L685.6000000000006,109.20000000000019L683.7000000000006,108.50000000000018L679.3000000000006,107.90000000000019L675.5000000000007,105.90000000000019L671.6000000000007,104.20000000000019L664.1000000000007,102.50000000000018L661.9000000000007,100.40000000000019L661.7000000000006,99.90000000000019ZM875.2,153.4L874.8000000000001,152.9L871.6,147.20000000000002L870.9,146.3L867.1999999999999,146L866.8,147.4L865.8,148.20000000000002L863.8,148.8L859.5,150.8L851.5,156L850.9,157L849.5,158.3L848.5,159L847,159.4L845.4,159.6L842.5,158.2L841.6,159.1L840.8000000000001,160.29999999999998L840.5000000000001,160.89999999999998L840.1000000000001,162.29999999999998L840.1000000000001,163.89999999999998L841.1000000000001,165.49999999999997L842.0000000000001,166.49999999999997L842.5000000000001,167.69999999999996L842.8000000000001,168.79999999999995L841.8000000000001,173.89999999999995L842.8000000000001,175.59999999999994L843.5000000000001,176.39999999999995L844.0000000000001,177.59999999999994L845.4000000000001,178.39999999999995L852.7,178.99999999999994L855.9000000000001,178.39999999999995L859.0000000000001,178.39999999999995L860.6000000000001,179.49999999999994L862.8000000000002,180.49999999999994L863.9000000000002,180.79999999999995L866.6000000000003,180.79999999999995L867.8000000000003,179.99999999999994L868.4000000000003,179.29999999999995L868.8000000000003,178.39999999999995L869.2000000000003,177.79999999999995L870.2000000000003,176.89999999999995L871.9000000000003,176.39999999999995L877.5000000000003,176.09999999999994L885.8000000000003,177.69999999999993L883.2000000000003,172.19999999999993L882.4000000000003,169.69999999999993L883.0000000000003,164.79999999999993L883.9000000000003,161.09999999999994L884.0000000000003,160.49999999999994L883.8000000000003,160.09999999999994L883.5000000000003,159.39999999999995L882.6000000000004,158.49999999999994L882.1000000000004,156.19999999999993L881.8000000000004,154.89999999999992L880.5000000000005,153.49999999999991L879.9000000000004,151.99999999999991L878.6000000000005,150.89999999999992L876.4000000000004,151.29999999999993L875.6000000000005,152.59999999999994L875.3000000000005,153.39999999999995L875.2000000000005,153.39999999999995Z" class="sm_state sm_state_AT3" opacity="1" stroke-opacity="1" stroke-width="1.875" stroke-linejoin="round" transform="matrix(1,0,0,1,0,0)" style="-webkit-tap-highlight-color: rgba(0, 0, 0, 0); opacity: 1; cursor: pointer; stroke-opacity: 1; stroke-linejoin: round; fill-opacity: 1;" fill-opacity="1"/><path fill="#ffffff" stroke="#000000" d="M835.3,303.6L842.1999999999999,303.8L845.1999999999999,303.2L848.1999999999999,301.59999999999997L850.0999999999999,300.09999999999997L856.3,293.4L856.5999999999999,291.59999999999997L856.5999999999999,289.4L855.9999999999999,287.29999999999995L855.5999999999999,284.79999999999995L855.9999999999999,280.9L856.5999999999999,278.9L857.8,276.79999999999995L858.5,275.69999999999993L862.5,267.99999999999994L859,262.59999999999997L854.9,257.79999999999995L853.1,254.69999999999996L852.2,252.49999999999997L852.2,241.69999999999996L856.3000000000001,241.19999999999996L857.7,239.99999999999997L859.2,238.29999999999998L859.9000000000001,236.7L860.3000000000001,234.7L860.6,227.79999999999998L862.4,224.29999999999998L864.3,222.29999999999998L870,217.79999999999998L873.5,216.7L877.6,216.5L886,219.2L890.7,216.89999999999998L893,214.49999999999997L897.1,211.59999999999997L898.8000000000001,209.99999999999997L900.0000000000001,207.79999999999998L901.6000000000001,203.29999999999998L904.6000000000001,200.89999999999998L907.1000000000001,199.7L908.5000000000001,199.39999999999998L909.9000000000001,199.59999999999997L914.9000000000001,197.29999999999995L919.8000000000001,193.69999999999996L922.5000000000001,192.39999999999995L925.0000000000001,192.09999999999994L926.8000000000001,192.99999999999994L930.5000000000001,195.79999999999995L932.4000000000001,196.79999999999995L933.8000000000001,195.89999999999995L934.7,194.29999999999995L934.8000000000001,192.79999999999995L934.5000000000001,191.39999999999995L934.4000000000001,190.19999999999996L934.8000000000001,187.49999999999997L936.4000000000001,185.89999999999998L937.3000000000001,185.49999999999997L938.5000000000001,186.09999999999997L939.6000000000001,186.79999999999995L941.0000000000001,187.09999999999997L942.0000000000001,186.79999999999995L942.8000000000001,186.39999999999995L944.3000000000001,184.89999999999995L944.9000000000001,185.89999999999995L946.4000000000001,187.59999999999994L945.2,189.09999999999994L944.6,190.89999999999995L943.9,194.19999999999996L944.4,194.49999999999997L945.8,195.69999999999996L945.1999999999999,198.59999999999997L947.9,200.09999999999997L951.8,201.49999999999997L954.5,203.99999999999997L947.1,210.29999999999998L948.3000000000001,211.7L948.3000000000001,212.79999999999998L947.7,213.99999999999997L947.4000000000001,215.49999999999997L947.1000000000001,215.79999999999998L946.0000000000001,216.49999999999997L945.7000000000002,216.99999999999997L945.8000000000002,217.79999999999998L946.4000000000002,218.2L947.0000000000002,218.39999999999998L947.3000000000002,218.7L946.8000000000002,221.89999999999998L946.1000000000001,224.2L944.9000000000001,226L943.0000000000001,227.6L938.8000000000001,228.5L937.3000000000001,229.3L937.4000000000001,231.20000000000002L938.1000000000001,232.00000000000003L940.6000000000001,233.20000000000002L941.6000000000001,233.9L942.7000000000002,237.20000000000002L943.5000000000001,238.3L941.7000000000002,240.3L941.9000000000002,243.4L942.7000000000002,247L942.9000000000002,252.8L943.5000000000002,254.5L944.5000000000002,255.9L945.8000000000002,256.7L943.4000000000002,257.9L934.7000000000002,259.09999999999997L925.3000000000002,261.4L920.7000000000002,260.59999999999997L919.0000000000001,255.99999999999997L917.4000000000001,257.29999999999995L915.1000000000001,260.99999999999994L913.8000000000002,262.29999999999995L912.7000000000002,262.59999999999997L906.0000000000001,261.49999999999994L904.7000000000002,260.69999999999993L903.4000000000002,259.3999999999999L903.1000000000003,258.7999999999999L902.5000000000002,257.4999999999999L902.0000000000002,255.69999999999987L901.4000000000002,254.09999999999988L899.9000000000002,252.9999999999999L890.4000000000002,249.2999999999999L885.4000000000002,248.5999999999999L881.0000000000002,250.5999999999999L880.3000000000002,252.2999999999999L880.5000000000002,254.6999999999999L879.8000000000002,256.19999999999993L878.8000000000002,257.19999999999993L874.1000000000001,259.69999999999993L872.6000000000001,260.99999999999994L871.8000000000002,261.49999999999994L871.3000000000002,261.3999999999999L870.7000000000002,260.7999999999999L870.0000000000001,259.8999999999999L869.1000000000001,260.7999999999999L867.3000000000002,263.7999999999999L866.3000000000002,265.0999999999999L868.4000000000002,266.2999999999999L875.1000000000003,269.0999999999999L878.4000000000002,268.2999999999999L884.2000000000002,270.6999999999999L886.3000000000002,271.4999999999999L890.2000000000002,270.89999999999986L892.8000000000002,272.09999999999985L894.9000000000002,274.89999999999986L895.9000000000002,278.39999999999986L895.2000000000002,281.89999999999986L897.2000000000002,282.9999999999999L898.9000000000002,284.6999999999999L899.8000000000002,286.89999999999986L899.7000000000002,289.59999999999985L898.4000000000002,291.89999999999986L894.9000000000002,293.29999999999984L893.6000000000003,294.79999999999984L894.1000000000003,301.89999999999986L892.4000000000002,303.1999999999999L887.9000000000002,306.6999999999999L875.1000000000003,312.59999999999985L873.7000000000003,310.29999999999984L872.1000000000003,309.09999999999985L870.6000000000003,309.59999999999985L869.4000000000002,311.79999999999984L869.7000000000002,318.49999999999983L869.4000000000002,318.99999999999983L868.8000000000002,319.3999999999998L868.3000000000002,319.7999999999998L868.3000000000002,320.8999999999998L868.6000000000001,321.49999999999983L869.1000000000001,321.79999999999984L869.7000000000002,321.99999999999983L870.0000000000001,322.3999999999998L873.6000000000001,329.99999999999983L874.1000000000001,332.8999999999998L873.3000000000002,335.1999999999998L871.6000000000001,336.79999999999984L867.9000000000001,338.79999999999984L868.3000000000001,341.89999999999986L866.5000000000001,345.6999999999999L866.9000000000001,348.59999999999985L867.6000000000001,349.1999999999999L868.5000000000001,349.1999999999999L869.5000000000001,349.2999999999999L870.3000000000001,350.3999999999999L870.4000000000001,351.8999999999999L869.4000000000001,354.8999999999999L869.4000000000001,355.8999999999999L871.0000000000001,356.8999999999999L875.0000000000001,354.99999999999994L876.9000000000001,355.19999999999993L878.4000000000001,357.29999999999995L877.8000000000001,359.4L875.1,363L872.6,364.6L871.8000000000001,367.1L872.7,369.40000000000003L875.1,370.20000000000005L876.5,370.90000000000003L876.9,371.8L876.5,372.8L875.1,373.7L869.8000000000001,375.8L868.3000000000001,377.2L871.7,377.59999999999997L873.4000000000001,378.2L875.1000000000001,379.8L875.6000000000001,381.7L873.4000000000001,382.2L870.3000000000001,382.2L868.3000000000001,382.59999999999997L867.8000000000001,383.09999999999997L867.2,383.2L866.6,383.09999999999997L865.9,382.59999999999997L863.9,380.99999999999994L861.4,380.69999999999993L856.5,381.29999999999995L852.1,380.4L850.4,380.59999999999997L849.3,382.59999999999997L848.8,385.2L847.8,386L846.5999999999999,386.3L845.3999999999999,387.3L845.0999999999999,388.40000000000003L845.1999999999999,389.40000000000003L845.1999999999999,390.40000000000003L844.4,391.70000000000005L843.5,392.30000000000007L841.1,393.4000000000001L838,395.6000000000001L836.6,397.1000000000001L832.3000000000001,403.00000000000006L830.8000000000001,404.50000000000006L828.9000000000001,405.30000000000007L824.0000000000001,408.30000000000007L821.5000000000001,409.70000000000005L821.1000000000001,409.90000000000003L821.1000000000001,409.8L821.0000000000001,409.1L820.9000000000001,407.1L820.7,406.70000000000005L820.2,406.00000000000006L818.7,404.80000000000007L818.1,404.00000000000006L818,402.90000000000003L818.5,400.00000000000006L818.6,398.20000000000005L819,396.50000000000006L819.9,394.90000000000003L824.1999999999999,391.1L829.9,383.5L833.1,378.9L833.9,377L834,375.9L833.7,374.4L829.4000000000001,368.9L828.3000000000001,366.9L827.9000000000001,364.5L827.7,362.7L829,357.2L829,352.5L825.7,339.8L825.6,337L824.6,330.4L823.5,325.5L822.2,321.1L820.1,316.1L819.9,314.6L820.3,313.1L822.0999999999999,310.6L823.3,309.40000000000003L824.8,309.20000000000005L825.4,310.20000000000005L825.8,311.40000000000003L826.1999999999999,312.1L828.4,310.90000000000003L835.3,303.6Z" class="sm_state sm_state_AT1" opacity="1" stroke-opacity="1" stroke-width="1.875" stroke-linejoin="round" transform="matrix(1,0,0,1,0,0)" style="-webkit-tap-highlight-color: rgba(0, 0, 0, 0); opacity: 1; cursor: pointer; stroke-opacity: 1; stroke-linejoin: round; fill-opacity: 1;" fill-opacity="1"/><path fill="#ffffff" stroke="#000000" d="M123.4,333.7L125.30000000000001,338.7L126.80000000000001,346.59999999999997L126.9,348.29999999999995L126.60000000000001,353.19999999999993L124.80000000000001,357.5999999999999L120.20000000000002,364.5999999999999L119.00000000000001,367.8999999999999L117.60000000000001,374.8999999999999L117.4,377.5999999999999L117.5,379.69999999999993L117.9,382.0999999999999L118,383.9999999999999L117.6,387.0999999999999L116.89999999999999,389.19999999999993L115.6,390.99999999999994L114.1,392.29999999999995L112.6,394.29999999999995L112.19999999999999,395.69999999999993L112.49999999999999,397.49999999999994L115.19999999999999,401.8999999999999L117.29999999999998,407.5999999999999L117.39999999999998,408.0999999999999L115.79999999999998,408.0999999999999L110.59999999999998,406.3999999999999L107.99999999999999,404.8999999999999L103.39999999999999,400.49999999999994L90.6,396.29999999999995L87.6,394.09999999999997L86.1,391.9L85.89999999999999,390.29999999999995L86.3,388.4L86.6,384.29999999999995L87.1,382.59999999999997L87.1,381.59999999999997L86.6,381.09999999999997L85.89999999999999,381.09999999999997L85.39999999999999,380.7L85.6,378.7L63.099999999999994,371.59999999999997L61.099999999999994,371.29999999999995L54.8,371.99999999999994L52.599999999999994,371.49999999999994L53.49999999999999,370.3999999999999L55.49999999999999,367.7999999999999L55.89999999999999,367.2999999999999L56.69999999999999,362.6999999999999L56.499999999999986,361.9999999999999L55.999999999999986,359.9999999999999L55.499999999999986,358.2999999999999L52.69999999999999,354.2999999999999L50.89999999999999,353.1999999999999L49.099999999999994,352.1999999999999L49.099999999999994,350.6999999999999L50.3,347.9999999999999L50.4,346.7999999999999L49.4,344.2999999999999L48.3,342.7999999999999L47.699999999999996,341.2999999999999L48.099999999999994,340.2999999999999L48.49999999999999,338.7999999999999L46.99999999999999,337.3999999999999L46.49999999999999,336.99999999999994L45.49999999999999,335.3999999999999L49.29999999999999,328.7999999999999L53.39999999999999,323.8999999999999L53.79999999999999,322.69999999999993L54.39999999999999,319.5999999999999L54.99999999999999,317.9999999999999L59.599999999999994,312.1999999999999L60.8,309.4999999999999L60.9,302.0999999999999L57.4,298.9999999999999L53,296.9999999999999L49.5,291.6999999999999L49.3,290.59999999999985L48.599999999999994,287.49999999999983L48.89999999999999,287.6999999999998L49.39999999999999,287.79999999999984L56.39999999999999,289.6999999999998L63.99999999999999,289.5999999999998L67.19999999999999,288.0999999999998L68.99999999999999,285.3999999999998L70.39999999999999,282.0999999999998L72.99999999999999,279.0999999999998L74.79999999999998,278.1999999999998L76.59999999999998,277.99999999999983L78.19999999999997,278.59999999999985L79.59999999999998,280.09999999999985L79.99999999999999,282.1999999999999L79.79999999999998,284.39999999999986L80.29999999999998,286.1999999999999L82.69999999999999,287.4999999999999L83.6,287.39999999999986L85.1,286.4999999999999L85.69999999999999,286.2999999999999L89.29999999999998,287.5999999999999L92.79999999999998,287.8999999999999L94.59999999999998,287.5999999999999L96.09999999999998,286.3999999999999L96.39999999999998,289.2999999999999L97.69999999999997,290.9999999999999L99.19999999999997,292.4999999999999L100.19999999999997,294.7999999999999L100.19999999999997,295.3999999999999L100.29999999999997,295.8999999999999L100.49999999999997,296.8999999999999L101.79999999999997,297.69999999999993L102.79999999999997,297.29999999999995L103.89999999999996,296.29999999999995L105.19999999999996,295.69999999999993L111.09999999999997,304.29999999999995L112.09999999999997,306.4L111.59999999999997,308.29999999999995L108.89999999999996,310.4L110.19999999999996,311.9L110.49999999999996,313.7L110.59999999999995,315.59999999999997L111.19999999999995,317.29999999999995L112.39999999999995,318.4L113.19999999999995,318.4L114.09999999999995,317.7L115.69999999999995,317L116.29999999999994,317L117.49999999999994,317.8L118.09999999999994,317.8L118.59999999999994,317.40000000000003L119.99999999999994,315.8L125.29999999999994,314.90000000000003L127.49999999999994,316.1L127.39999999999995,319.20000000000005L125.19999999999995,325.70000000000005L125.49999999999994,326.90000000000003L125.59999999999994,328.00000000000006L125.29999999999994,329.1000000000001L124.69999999999995,329.7000000000001L123.09999999999995,330.2000000000001L122.59999999999995,330.5000000000001L121.49999999999996,332.5000000000001L121.09999999999995,333.60000000000014L121.59999999999995,333.90000000000015L123.39999999999995,333.70000000000016Z" class="sm_state sm_state_AT8" opacity="1" stroke-opacity="1" stroke-width="1.875" stroke-linejoin="round" transform="matrix(1,0,0,1,0,0)" style="-webkit-tap-highlight-color: rgba(0, 0, 0, 0); opacity: 1; cursor: pointer; stroke-opacity: 1; stroke-linejoin: round; fill-opacity: 1;" fill-opacity="1"/><path fill="#ffffff" stroke="#000000" d="M875.2,153.4L875.3000000000001,153.4L875.6,152.6L876.4,151.29999999999998L878.6,150.89999999999998L879.9,151.99999999999997L880.5,153.49999999999997L881.8,154.89999999999998L882.0999999999999,156.2L882.5999999999999,158.5L883.4999999999999,159.4L883.7999999999998,160.1L883.9999999999999,160.5L883.8999999999999,161.1L882.9999999999999,164.79999999999998L882.3999999999999,169.7L883.1999999999998,172.2L885.7999999999998,177.7L877.4999999999999,176.1L871.8999999999999,176.4L870.1999999999998,176.9L869.1999999999998,177.8L868.7999999999998,178.4L868.3999999999999,179.3L867.7999999999998,180L866.5999999999998,180.8L863.8999999999997,180.8L862.7999999999997,180.5L860.5999999999997,179.5L858.9999999999997,178.4L855.8999999999996,178.4L852.6999999999996,179L845.3999999999996,178.4L843.9999999999997,177.6L843.4999999999997,176.4L842.7999999999996,175.6L841.7999999999996,173.9L842.7999999999996,168.8L842.4999999999997,167.70000000000002L841.9999999999997,166.50000000000003L841.0999999999997,165.50000000000003L840.0999999999997,163.90000000000003L840.0999999999997,162.30000000000004L840.4999999999997,160.90000000000003L840.7999999999996,160.30000000000004L841.5999999999996,159.10000000000005L842.4999999999995,158.20000000000005L845.3999999999995,159.60000000000005L846.9999999999995,159.40000000000006L848.4999999999995,159.00000000000006L849.4999999999995,158.30000000000007L850.8999999999995,157.00000000000006L851.4999999999995,156.00000000000006L859.4999999999995,150.80000000000007L863.7999999999995,148.80000000000007L865.7999999999995,148.20000000000007L866.7999999999995,147.40000000000006L867.1999999999995,146.00000000000006L870.8999999999995,146.30000000000007L871.5999999999996,147.20000000000007L874.7999999999996,152.90000000000006L875.1999999999996,153.40000000000006Z" class="sm_state sm_state_AT9" opacity="1" stroke-opacity="1" stroke-width="1.875" stroke-linejoin="round" transform="matrix(1,0,0,1,0,0)" style="-webkit-tap-highlight-color: rgba(0, 0, 0, 0); opacity: 1; cursor: pointer; stroke-opacity: 1; stroke-linejoin: round; fill-opacity: 1;" fill-opacity="1"/><circle cx="0" cy="0" r="0" fill="none" stroke="#000" style="-webkit-tap-highlight-color: rgba(0, 0, 0, 0);" stroke-width="1"/><text x="886.5" y="297.5" text-anchor="middle" font="10px &quot;Arial&quot;" stroke="none" fill="#ffffff" style="-webkit-tap-highlight-color: rgba(0, 0, 0, 0); text-anchor: middle; font: bold 16px Arial; cursor: pointer; opacity: 1; display: none;" stroke-width="0" font-size="16px" font-weight="bold" font-family="Arial" opacity="1" transform="matrix(1,0,0,1,0,0)" class="sm_label sm_label_AT1"><tspan dy="5.5" style="-webkit-tap-highlight-color: rgba(0, 0, 0, 0);">Burgenland</tspan></text><text x="564" y="423" text-anchor="middle" font="10px &quot;Arial&quot;" stroke="none" fill="#ffffff" style="-webkit-tap-highlight-color: rgba(0, 0, 0, 0); text-anchor: middle; font: bold 16px Arial; cursor: pointer; opacity: 1; display: none;" stroke-width="0" font-size="16px" font-weight="bold" font-family="Arial" opacity="1" transform="matrix(1,0,0,1,0,0)" class="sm_label sm_label_AT2"><tspan dy="5.5" style="-webkit-tap-highlight-color: rgba(0, 0, 0, 0);">Krnten</tspan></text><text x="787" y="163.5" text-anchor="middle" font="10px &quot;Arial&quot;" stroke="none" fill="#ffffff" style="-webkit-tap-highlight-color: rgba(0, 0, 0, 0); text-anchor: middle; font: bold 16px Arial; cursor: pointer; opacity: 1; display: none;" stroke-width="0" font-size="16px" font-weight="bold" font-family="Arial" opacity="1" transform="matrix(1,0,0,1,0,0)" class="sm_label sm_label_AT3"><tspan dy="5.5" style="-webkit-tap-highlight-color: rgba(0, 0, 0, 0);">Niedersterreich</tspan></text><text x="562.5" y="182.5" text-anchor="middle" font="10px &quot;Arial&quot;" stroke="none" fill="#ffffff" style="-webkit-tap-highlight-color: rgba(0, 0, 0, 0); text-anchor: middle; font: bold 16px Arial; cursor: pointer; opacity: 1; display: none;" stroke-width="0" font-size="16px" font-weight="bold" font-family="Arial" opacity="1" transform="matrix(1,0,0,1,0,0)" class="sm_label sm_label_AT4"><tspan dy="5.5" style="-webkit-tap-highlight-color: rgba(0, 0, 0, 0);">Obersterreich</tspan></text><text x="461.5" y="294" text-anchor="middle" font="10px &quot;Arial&quot;" stroke="none" fill="#ffffff" style="-webkit-tap-highlight-color: rgba(0, 0, 0, 0); text-anchor: middle; font: bold 16px Arial; cursor: pointer; opacity: 1; display: none;" stroke-width="0" font-size="16px" font-weight="bold" font-family="Arial" opacity="1" transform="matrix(1,0,0,1,0,0)" class="sm_label sm_label_AT5"><tspan dy="5.5" style="-webkit-tap-highlight-color: rgba(0, 0, 0, 0);">Salzburg</tspan></text><text x="681" y="342" text-anchor="middle" font="10px &quot;Arial&quot;" stroke="none" fill="#ffffff" style="-webkit-tap-highlight-color: rgba(0, 0, 0, 0); text-anchor: middle; font: bold 16px Arial; cursor: pointer; opacity: 1; display: none;" stroke-width="0" font-size="16px" font-weight="bold" font-family="Arial" opacity="1" transform="matrix(1,0,0,1,0,0)" class="sm_label sm_label_AT6"><tspan dy="5.5" style="-webkit-tap-highlight-color: rgba(0, 0, 0, 0);">Steiermark</tspan></text><text x="283" y="347.5" text-anchor="middle" font="10px &quot;Arial&quot;" stroke="none" fill="#ffffff" style="-webkit-tap-highlight-color: rgba(0, 0, 0, 0); text-anchor: middle; font: bold 16px Arial; cursor: pointer; opacity: 1; display: none;" stroke-width="0" font-size="16px" font-weight="bold" font-family="Arial" opacity="1" transform="matrix(1,0,0,1,0,0)" class="sm_label sm_label_AT7"><tspan dy="5.5" style="-webkit-tap-highlight-color: rgba(0, 0, 0, 0);">Tirol</tspan></text><text x="86" y="343" text-anchor="middle" font="10px &quot;Arial&quot;" stroke="none" fill="#ffffff" style="-webkit-tap-highlight-color: rgba(0, 0, 0, 0); text-anchor: middle; font: bold 16px Arial; cursor: pointer; opacity: 1; display: none;" stroke-width="0" font-size="16px" font-weight="bold" font-family="Arial" opacity="1" transform="matrix(1,0,0,1,0,0)" class="sm_label sm_label_AT8"><tspan dy="5.5" style="-webkit-tap-highlight-color: rgba(0, 0, 0, 0);">Vorarlberg</tspan></text><text x="863" y="163.5" text-anchor="middle" font="10px &quot;Arial&quot;" stroke="none" fill="#ffffff" style="-webkit-tap-highlight-color: rgba(0, 0, 0, 0); text-anchor: middle; font: bold 16px Arial; cursor: pointer; opacity: 1; display: none;" stroke-width="0" font-size="16px" font-weight="bold" font-family="Arial" opacity="1" transform="matrix(1,0,0,1,0,0)" class="sm_label sm_label_AT9"><tspan dy="5.5" style="-webkit-tap-highlight-color: rgba(0, 0, 0, 0);">Wien</tspan></text><circle cx="0" cy="0" r="0" fill="none" stroke="#000" style="-webkit-tap-highlight-color: rgba(0, 0, 0, 0);" stroke-width="1"/><circle cx="861.4611288944267" cy="169.20847635645563" r="17.5" fill="#000000" stroke="#ffffff" stroke-width="2" opacity="0.8" transform="matrix(1,0,0,1,0,0)" class="sm_location sm_location_0" style="-webkit-tap-highlight-color: rgba(0, 0, 0, 0); opacity: 0.8; cursor: pointer;"/><circle cx="268.33420689437975" cy="334.50006117395566" r="11.5" fill="#000000" stroke="#ffffff" stroke-width="2" opacity="0.8" transform="matrix(1,0,0,1,0,0)" class="sm_location sm_location_1" style="-webkit-tap-highlight-color: rgba(0, 0, 0, 0); opacity: 0.8; cursor: pointer;"/><circle cx="465.4755531415571" cy="240.228137513151" r="11.5" fill="#000000" stroke="#ffffff" stroke-width="2" opacity="0.8" transform="matrix(1,0,0,1,0,0)" class="sm_location sm_location_2" style="-webkit-tap-highlight-color: rgba(0, 0, 0, 0); opacity: 0.8; cursor: pointer;"/><circle cx="751.2030959447528" cy="369.48918104483346" r="11.5" fill="#000000" stroke="#ffffff" stroke-width="2" opacity="0.8" transform="matrix(1,0,0,1,0,0)" class="sm_location sm_location_3" style="-webkit-tap-highlight-color: rgba(0, 0, 0, 0); opacity: 0.8; cursor: pointer;"/><circle cx="613.4206083778504" cy="150.0745182824969" r="11.5" fill="#000000" stroke="#ffffff" stroke-width="2" opacity="0.8" transform="matrix(1,0,0,1,0,0)" class="sm_location sm_location_4" style="-webkit-tap-highlight-color: rgba(0, 0, 0, 0); opacity: 0.8; cursor: pointer;"/><circle cx="616.7400117950366" cy="446.5634736914813" r="11.5" fill="#000000" stroke="#ffffff" stroke-width="2" opacity="0.8" transform="matrix(1,0,0,1,0,0)" class="sm_location sm_location_5" style="-webkit-tap-highlight-color: rgba(0, 0, 0, 0); opacity: 0.8; cursor: pointer;"/><circle cx="561.5357112750324" cy="449.5495459093841" r="11.5" fill="#000000" stroke="#ffffff" stroke-width="2" opacity="0.8" transform="matrix(1,0,0,1,0,0)" class="sm_location sm_location_6" style="-webkit-tap-highlight-color: rgba(0, 0, 0, 0); opacity: 0.8; cursor: pointer;"/><circle cx="0" cy="0" r="0" fill="none" stroke="#000" style="-webkit-tap-highlight-color: rgba(0, 0, 0, 0);" stroke-width="1"/><desc style="-webkit-tap-highlight-color: rgba(0, 0, 0, 0);">Created with Raphal 2.1.0</desc><defs style="-webkit-tap-highlight-color: rgba(0, 0, 0, 0);"/></svg>