<?xml version="1.0" encoding="UTF-8" standalone="no"?>
<!DOCTYPE svg PUBLIC "-//W3C//DTD SVG 1.1//EN" "http://www.w3.org/Graphics/SVG/1.1/DTD/svg11.dtd">
<!-- Generated by Microsoft Visio, SVG Export Flag_of_Slovakia_v3.svg Page-1 -->
<svg xmlns="http://www.w3.org/2000/svg" xmlns:xlink="http://www.w3.org/1999/xlink" xmlns:ev="http://www.w3.org/2001/xml-events"
		xmlns:v="http://schemas.microsoft.com/visio/2003/SVGExtensions/" width="10in" height="6.875in" viewBox="0 0 720 495"
		xml:space="preserve" color-interpolation-filters="sRGB" class="st4">
	<v:documentProperties v:langID="1033" v:viewMarkup="false">
		<v:userDefs>
			<v:ud v:nameU="msvNoAutoConnect" v:val="VT0(1):26"/>
		</v:userDefs>
	</v:documentProperties>

	<style type="text/css">
	<![CDATA[
		.st1 {fill:#254aa5;stroke:#000000;stroke-linecap:butt;stroke-width:2.25}
		.st2 {fill:#ffffff;stroke:#000000;stroke-linecap:butt;stroke-width:2.25}
		.st3 {fill:#ed1c24;stroke:#000000;stroke-linecap:butt;stroke-width:2.25}
		.st4 {fill:none;fill-rule:evenodd;font-size:12px;overflow:visible;stroke-linecap:square;stroke-miterlimit:3}
	]]>
	</style>

	<g v:mID="0" v:index="1" v:groupContext="foregroundPage">
		<title>Page-1</title>
		<v:pageProperties v:drawingScale="1" v:pageScale="1" v:drawingUnits="19" v:shadowOffsetX="9" v:shadowOffsetY="-9"/>
		<g id="group1-1" transform="translate(21.5526,-18.4737)" v:mID="1" v:groupContext="group">
			<title>Flag of Slovakia</title>
			<g id="shape2-2" v:mID="2" v:groupContext="shape" transform="translate(0,-150)">
				<title>Sheet.2</title>
				<rect x="0" y="345" width="675" height="150" class="st1"/>
			</g>
			<g id="shape3-4" v:mID="3" v:groupContext="shape" transform="translate(0,-300)">
				<title>Sheet.3</title>
				<rect x="0" y="345" width="675" height="150" class="st2"/>
			</g>
			<g id="shape4-6" v:mID="4" v:groupContext="shape">
				<title>Sheet.4</title>
				<rect x="0" y="345" width="675" height="150" class="st3"/>
			</g>
			<g id="group5-8" transform="translate(105.745,-105.015)" v:mID="5" v:groupContext="group">
				<title>Sheet.5</title>
				<g id="shape6-9" v:mID="6" v:groupContext="shape">
					<title>Sheet.6</title>
					<path d="M96.75 495 L93.82 493.6 C74.87 484.47 51.6 470.8 32.85 450 C14.1 429.2 0 401.02 0 364.32 C0 294.12 3.39
								 261.81 3.39 261.81 L4.02 255.76 L189.48 255.76 L190.11 261.81 C190.11 261.81 193.51 294.13 193.51
								 364.32 C193.51 401.02 179.41 429.2 160.65 450 C141.9 470.8 118.63 484.47 99.68 493.6 L96.75 495
								 Z" class="st2"/>
				</g>
				<g id="shape7-11" v:mID="7" v:groupContext="shape" transform="translate(6.75525,-7.485)">
					<title>Sheet.7</title>
					<path d="M90 495 C52.96 477.18 0 441.79 0 371.81 C0 301.83 3.34 270 3.34 270 L176.65 270 C176.65 270 180 301.83
								 180 371.81 C180 441.79 127.03 477.18 90 495 Z" class="st3"/>
				</g>
				<g id="shape8-13" v:mID="8" v:groupContext="shape" transform="translate(41.8252,-93.975)">
					<title>Sheet.8</title>
					<path d="M62.85 439.95 C72.87 440.11 92.44 440.5 109.85 434.68 C109.85 434.68 109.39 440.91 109.39 448.17 C109.39
								 455.42 109.85 461.65 109.85 461.65 C93.88 456.31 74.14 456.2 62.85 456.34 L62.85 495 L47.01 495
								 L47.01 456.34 C35.71 456.19 15.98 456.31 0 461.65 C0 461.65 0.46 455.43 0.46 448.17 C0.46 440.91
								 0 434.68 0 434.68 C17.42 440.5 36.98 440.11 47.01 439.95 L47.01 415.67 C37.87 415.6 24.7 416.03
								 9.81 421.01 C9.81 421.01 10.28 414.79 10.28 407.53 C10.28 400.27 9.81 394.04 9.81 394.04 C24.68
								 399.01 37.83 399.46 46.96 399.37 C46.5 384 42.01 364.63 42.01 364.63 C42.01 364.63 51.24 365.35
								 54.93 365.35 C58.62 365.35 67.84 364.63 67.84 364.63 C67.84 364.63 63.36 384 62.89 399.37 C72.02
								 399.45 85.18 399.01 100.05 394.04 C100.05 394.04 99.58 400.27 99.58 407.53 C99.58 414.78 100.05
								 421.01 100.05 421.01 C85.15 416.03 71.98 415.6 62.85 415.67 L62.85 439.95 Z" class="st2"/>
				</g>
				<g id="shape9-15" v:mID="9" v:groupContext="shape" transform="translate(24.6652,-7.485)">
					<title>Sheet.9</title>
					<path d="M72.09 404.32 C53.44 404.32 43.45 430.17 43.45 430.17 C43.45 430.17 37.9 417.91 22.69 417.91 C12.39
								 417.91 4.82 427.06 0 435.54 C18.73 465.31 48.6 483.69 72.08 495 C95.57 483.7 125.45 465.31 144.18
								 435.54 C139.36 427.06 131.79 417.91 121.49 417.91 A22.89 22.89 -180 0 0 100.72 430.17 C100.72 430.17
								 90.73 404.32 72.08 404.32 L72.09 404.32 Z" class="st1"/>
				</g>
			</g>
		</g>
	</g>
</svg>
