<?xml version="1.0" encoding="UTF-8" standalone="no"?>
<svg
   xmlns:dc="http://purl.org/dc/elements/1.1/"
   xmlns:cc="http://creativecommons.org/ns#"
   xmlns:rdf="http://www.w3.org/1999/02/22-rdf-syntax-ns#"
   xmlns:svg="http://www.w3.org/2000/svg"
   xmlns="http://www.w3.org/2000/svg"
   xmlns:xlink="http://www.w3.org/1999/xlink"
   width="500"
   height="230"
   viewBox="0 0 132.29166 60.854168"
   version="1.1"
   id="svg8">
  <defs
     id="defs2">
    <linearGradient
       id="linearGradient1213">
      <stop
         style="stop-color:#09c1f4;stop-opacity:1"
         offset="0"
         id="stop1209" />
      <stop
         style="stop-color:#008bce;stop-opacity:1"
         offset="1"
         id="stop1211" />
    </linearGradient>
    <linearGradient
       xlink:href="#linearGradient1213"
       id="linearGradient1215"
       x1="87.747169"
       y1="48.896263"
       x2="87.747169"
       y2="77.81144"
       gradientUnits="userSpaceOnUse"
       gradientTransform="matrix(0.83104933,0,0,0.83104933,-18.202174,-39.323287)" />
  </defs>
  <metadata
     id="metadata5">
    <rdf:RDF>
      <cc:Work
         rdf:about="">
        <dc:format>image/svg+xml</dc:format>
        <dc:type
           rdf:resource="http://purl.org/dc/dcmitype/StillImage" />
        <dc:title></dc:title>
      </cc:Work>
    </rdf:RDF>
  </metadata>
  <g
     id="layer1">
    <path
       style="font-style:normal;font-variant:normal;font-weight:normal;font-stretch:normal;font-size:23.5512px;line-height:1.25;font-family:'Fertigo Pro';-inkscape-font-specification:'Fertigo Pro';fill:#005ab5;fill-opacity:1;stroke:none;stroke-width:0.219882px;stroke-linecap:butt;stroke-linejoin:miter;stroke-opacity:1"
       d="m 52.866768,13.860623 c -1.996846,1.491504 -3.587325,3.144104 -4.996268,4.705319 -3.275349,3.629333 -5.213403,7.220994 -6.154201,10.784565 -0.694772,2.631675 -0.845674,5.248033 -0.58965,7.852926 -2.055422,-3.07769 -3.258963,-7.072578 -3.258963,-11.347473 0,-11.671697 7.494336,-24.344055 23.323175,-24.344055 6.113447,0 11.693079,1.868469 17.35496,3.298227 -11.017644,-1.1371032 -22.507412,6.6815 -25.679053,9.050491 z"
       id="path918" />
    <g
       aria-label="VAN AIR"
       id="text849"
       style="font-style:normal;font-variant:normal;font-weight:normal;font-stretch:normal;font-size:23.5512px;line-height:1.25;font-family:'Fertigo Pro';-inkscape-font-specification:'Fertigo Pro';fill:#005ab5;fill-opacity:1;stroke-width:0.588782"
       transform="matrix(0.83104933,0,0,0.83104933,-18.202174,-39.323287)">
      <path
         d="m 29.510007,110.55564 c 0.824292,2.70839 3.650436,2.82615 3.650436,2.82615 0,0 0.306166,-1.24822 0.682985,-2.30802 l 4.074358,-11.304577 c 0.871394,-2.425774 1.76634,-3.038105 1.76634,-3.038105 v -0.117756 c 0,0 -0.329717,-0.259064 -1.083356,-0.259064 -1.789891,0 -1.554379,0.847844 -4.474728,9.750202 l -1.389521,4.21566 h -0.0942 c -1.436624,-3.60333 -3.603334,-9.63244 -4.262768,-12.435033 -0.235512,-1.012702 -1.154009,-1.530829 -1.978301,-1.530829 -1.601481,0 -2.143159,0.306166 -2.143159,0.306166 0,0 0.447473,0.612331 1.130458,2.072506 1.201111,2.59063 3.226514,8.85525 4.12146,11.8227 z"
         style="font-style:normal;font-variant:normal;font-weight:normal;font-stretch:normal;font-family:'Fertigo Pro';-inkscape-font-specification:'Fertigo Pro';fill:#005ab5;fill-opacity:1;stroke-width:0.588782"
         id="path892" />
      <path
         d="m 36.642778,113.02852 c 0,0 0.447473,0.23551 0.847844,0.23551 1.836993,0 1.719237,-1.38952 3.132309,-5.67584 0.989151,-0.0471 2.190262,-0.0942 3.391373,-0.0942 0.800741,0 1.625033,0.0236 2.35512,0.0471 0.565229,1.71924 1.012702,3.25006 1.318868,4.30987 0.282614,1.0127 1.130457,1.41307 2.16671,1.41307 0.824292,0 1.719238,-0.23551 1.719238,-0.23551 v -0.11776 c -0.282615,-0.1413 -0.423922,-0.42392 -1.083355,-1.90764 -1.17756,-2.61419 -3.273617,-8.94946 -4.168563,-11.916912 -0.824292,-2.755491 -3.226514,-2.849696 -3.226514,-2.849696 l -4.922201,13.730348 c -0.871395,2.44933 -1.530829,2.9439 -1.530829,2.9439 z m 4.356973,-6.73564 c 0.58878,-1.86055 1.295316,-4.16857 2.308017,-7.088916 h 0.117756 c 0.753639,1.931196 1.672136,4.592486 2.519979,7.088916 -0.77719,0.0236 -1.601482,0.0471 -2.425774,0.0471 -0.894946,0 -1.76634,-0.0236 -2.519978,-0.0471 z"
         style="font-style:normal;font-variant:normal;font-weight:normal;font-stretch:normal;font-family:'Fertigo Pro';-inkscape-font-specification:'Fertigo Pro';fill:#005ab5;fill-opacity:1;stroke-width:0.588782"
         id="path894" />
      <path
         d="m 52.879969,113.00497 c 0,0 0.541677,0.23551 1.036253,0.23551 0.824292,0 0.871394,-0.32972 0.871394,-1.60148 0,-3.8624 -0.211961,-7.39508 -0.211961,-11.06907 l 0.0942,-0.0942 c 0.117756,0.44747 1.012702,1.60148 2.237364,3.08521 l 4.663138,5.58163 c 1.083355,1.29532 2.001852,2.47288 2.590632,3.39137 0.306166,0.47103 0.753638,0.63589 1.106906,0.63589 0.635883,0 1.154009,-0.14131 1.154009,-0.14131 -0.188409,-0.84784 -0.211961,-3.46203 -0.211961,-6.09976 0,-3.69754 0.117756,-6.42948 0.117756,-9.279175 0,-0.847844 -0.07065,-1.342419 -1.083355,-1.342419 -0.471024,0 -0.871394,0.211961 -0.871394,0.211961 0,0 0.117756,0.211961 0.235512,2.496427 0.117756,2.425776 0.09421,7.701246 0.188409,9.561786 l -0.0942,0.0942 c -0.235512,-0.49458 -1.154009,-1.67214 -2.355121,-3.13231 l -4.568933,-5.51098 c -0.98915,-1.177564 -1.860544,-2.331573 -2.496427,-3.273621 -0.235512,-0.353268 -0.730087,-0.400371 -1.224662,-0.400371 -0.494575,0 -0.918497,0.09421 -1.201111,0.18841 0,0 0.117756,0.18841 0.235512,2.472876 0.0471,1.130456 0.141307,6.076206 0.141307,7.489286 0,5.86425 -0.353268,6.50013 -0.353268,6.50013 z"
         style="font-style:normal;font-variant:normal;font-weight:normal;font-stretch:normal;font-family:'Fertigo Pro';-inkscape-font-specification:'Fertigo Pro';fill:#005ab5;fill-opacity:1;stroke-width:0.588782"
         id="path896" />
      <path
         d="m 69.976059,113.02852 c 0,0 0.447473,0.23551 0.847843,0.23551 1.836994,0 1.719238,-1.38952 3.13231,-5.67584 0.98915,-0.0471 2.190262,-0.0942 3.391373,-0.0942 0.800741,0 1.625033,0.0236 2.35512,0.0471 0.565229,1.71924 1.012702,3.25006 1.318867,4.30987 0.282615,1.0127 1.130458,1.41307 2.166711,1.41307 0.824292,0 1.719237,-0.23551 1.719237,-0.23551 v -0.11776 c -0.282614,-0.1413 -0.423921,-0.42392 -1.083355,-1.90764 -1.17756,-2.61419 -3.273617,-8.94946 -4.168563,-11.916912 -0.824292,-2.755491 -3.226514,-2.849696 -3.226514,-2.849696 l -4.922201,13.730348 c -0.871394,2.44933 -1.530828,2.9439 -1.530828,2.9439 z m 4.356972,-6.73564 c 0.58878,-1.86055 1.295316,-4.16857 2.308018,-7.088916 h 0.117756 c 0.753638,1.931196 1.672135,4.592486 2.519978,7.088916 -0.777189,0.0236 -1.601481,0.0471 -2.425773,0.0471 -0.894946,0 -1.76634,-0.0236 -2.519979,-0.0471 z"
         style="font-style:normal;font-variant:normal;font-weight:normal;font-stretch:normal;font-family:'Fertigo Pro';-inkscape-font-specification:'Fertigo Pro';fill:#005ab5;fill-opacity:1;stroke-width:0.588782"
         id="path898" />
      <path
         d="m 86.362229,111.61545 c 0,1.27176 0.706535,1.60148 1.530825,1.60148 0.49458,0 0.98915,-0.14131 1.57793,-0.23551 -0.40037,-3.13231 -0.40037,-6.17042 -0.40037,-9.25563 0,-1.9783 0.0942,-3.909495 0.0942,-5.958449 0,-0.918497 -0.80074,-1.460175 -1.86055,-1.460175 -0.37682,0 -0.89494,0.09421 -1.295313,0.211961 0,0 0.117756,0.211961 0.235512,2.496427 0.07065,1.507276 0.117756,3.391376 0.117756,5.346126 z"
         style="font-style:normal;font-variant:normal;font-weight:normal;font-stretch:normal;font-family:'Fertigo Pro';-inkscape-font-specification:'Fertigo Pro';fill:#005ab5;fill-opacity:1;stroke-width:0.588782"
         id="path900" />
      <path
         d="m 92.731493,113.02852 c 0.58878,0.0942 1.10691,0.23551 1.60148,0.23551 0.8243,0 1.53083,-0.32972 1.53083,-1.60148 0,-2.59063 -0.11775,-5.72294 -0.11775,-6.28817 l 0.32971,0.0942 c 2.04896,0.58878 3.8624,7.70125 7.583487,7.70125 0.68298,0 2.07251,-0.30617 2.07251,-0.30617 v -0.16486 c -1.97831,-1.13046 -5.958457,-7.06536 -5.958457,-7.06536 v -0.11775 c 0,0 3.815297,-0.56523 3.815297,-4.7338 0,-2.355116 -2.02541,-4.239212 -6.099757,-4.239212 h -2.92035 c -0.9656,0 -1.8841,-0.0471 -1.8841,-0.0471 0,0 0.11776,0.235512 0.23551,2.519978 0.0707,1.507274 0.11776,5.534534 0.11776,7.489284 0,5.86425 -0.30617,6.52368 -0.30617,6.52368 z m 3.01456,-8.7846 c 0,-1.74279 0.0236,-4.474727 0.0942,-6.453028 h 0.73009 c 3.13231,0 4.239207,1.601481 4.239207,3.485578 0,2.37867 -1.365957,3.22651 -3.038097,3.22651 -0.65943,0 -1.34242,-0.0236 -2.0254,-0.25906 z"
         style="font-style:normal;font-variant:normal;font-weight:normal;font-stretch:normal;font-family:'Fertigo Pro';-inkscape-font-specification:'Fertigo Pro';fill:#005ab5;fill-opacity:1;stroke-width:0.588782"
         id="path902" />
    </g>
    <path
       id="path905"
       style="font-style:normal;font-variant:normal;font-weight:normal;font-stretch:normal;font-size:23.5512px;line-height:1.25;font-family:'Fertigo Pro';-inkscape-font-specification:'Fertigo Pro';fill:#fdd82c;fill-opacity:1;stroke-width:0.489308"
       d="m 83.952674,40.712828 c 0,0 -1.383763,0.195404 -4.378309,0.195404 h -3.601423 c 0,0 0.0556,0.156875 -0.361173,2.055379 -0.215508,0.939464 -1.251347,5.049346 -1.569663,6.223686 -1.32102,4.87348 -1.685187,5.421889 -1.685187,5.421889 h 4.39e-4 l 6.882472,0.09749 c 1.428766,0 1.891056,-0.117342 2.230598,-1.369967 0.04247,-0.156578 0.09009,-0.332695 0.128837,-0.547985 -0.558273,0.254434 -1.456697,0.391601 -2.739505,0.430744 l -3.608293,0.09792 c 0.304006,-1.193901 0.532056,-2.250778 0.818543,-3.307676 l 0.551852,-2.035624 c 0,0 1.964393,0.117241 2.982147,0.117241 1.017754,0 1.278598,-0.528231 1.567087,-1.448126 0,0 -0.405601,0.195831 -1.208061,0.195831 h -3.013927 c 0.544837,-1.937649 1.126681,-4.012608 1.344199,-4.815068 0,0 1.304543,0.313075 3.633633,0.313075 1.409203,0 1.648363,-0.665167 2.025742,-1.624206 z m 23.541526,3.816583 c -3.386,0 -5.87816,2.622636 -6.63682,5.421461 -0.68969,2.544388 0.3412,4.951634 3.62933,4.951634 3.36643,0 5.92579,-2.798957 6.71628,-5.715209 0.64193,-2.368242 -0.42066,-4.657886 -3.70879,-4.657886 z m 11.91184,0 c -2.38782,0 -3.57051,1.546044 -3.57051,1.546044 l -0.0872,-0.03908 c 0.0408,-0.07829 0.0921,-0.195823 0.12926,-0.332829 0.16446,-0.606733 -0.39319,-1.076218 -1.29352,-1.076218 -0.31315,0 -0.64739,0.07821 -1.00665,0.176077 0.11027,1.037323 -0.43064,3.248846 -0.92934,5.088632 -1.05576,3.89487 -1.63982,5.832762 -2.15974,7.750833 -0.32893,1.213482 0.0613,1.506963 0.78547,1.506963 0.41103,0 0.9127,-0.117547 1.42323,-0.195832 0,0 -0.0711,-1.037114 0.53896,-3.287921 0.0796,-0.293575 0.16463,-0.606922 0.27443,-0.939649 0.3168,0.05875 0.58023,0.09792 0.9521,0.09792 3.89487,0 6.42791,-2.485599 7.33513,-5.832451 0.67375,-2.485669 -0.16042,-4.462484 -2.39165,-4.462484 z m 9.10963,0 c -2.85754,0 -5.38119,2.739824 -6.11331,5.440786 h -4.4e-4 c -0.77988,2.877116 0.60082,4.932309 3.2235,4.932309 3.28814,0 4.6274,-2.485695 4.6274,-2.485695 l -0.0713,-0.09792 c 0,0 -1.77017,1.115729 -3.3751,1.115729 -2.01593,0 -2.67698,-1.604909 -2.04035,-3.953579 l 0.0889,-0.03908 c 0,0 0.86909,0.547987 2.00428,0.547987 1.72235,0 3.96846,-0.704552 4.49898,-2.661772 0.36076,-1.330909 -0.25904,-2.798768 -2.84257,-2.798768 z m -42.738236,0.09792 c -0.313156,0 -0.65269,0.09778 -1.006642,0.176077 0.144686,0.332727 0.04072,1.076411 -0.1181,1.878872 -0.195904,0.939469 -0.47177,1.957126 -0.599095,2.42686 -0.270565,0.998181 -0.542892,1.859493 -0.765719,2.681526 -0.43503,1.604915 -0.334836,3.111844 2.20955,3.111844 2.387805,0 3.587682,-1.683041 3.587682,-1.683041 l 0.09277,0.01933 c 0,0 -0.05144,0.117784 -0.0674,0.176506 -0.275875,1.017754 0.445176,1.389292 1.208495,1.389292 1.683207,0 2.501583,-1.213213 2.501583,-1.213213 l -0.06225,-0.05884 c 0,0 -0.426669,0.273993 -0.818119,0.273993 -0.919888,0 -0.639085,-1.252735 -0.426876,-2.035624 0.599494,-2.211655 1.249624,-4.031738 1.74832,-5.871532 0.21751,-0.802452 -0.418725,-1.27205 -1.338621,-1.27205 -0.313156,0 -0.647388,0.07821 -1.006642,0.176077 0,0 0.07903,0.430714 -0.144727,1.761632 -0.126935,0.685024 -0.379649,1.761486 -0.724501,3.033681 -0.456238,1.683208 -1.63194,4.070818 -3.471725,4.070821 -1.526629,0 -1.262007,-1.409261 -0.832288,-2.994603 0.530534,-1.957221 0.912734,-3.151247 1.358375,-4.795312 0.212209,-0.782883 -0.443265,-1.252296 -1.324019,-1.252296 z m 10.900475,0 c -0.313156,0 -0.647396,0.07821 -1.00665,0.176077 0.05709,0.07828 0.186712,1.115475 -0.890262,5.088632 -0.291789,1.076475 -0.702502,2.231259 -1.020819,3.40559 -0.328921,1.213473 0.100391,1.506963 0.824559,1.506963 0.411012,0 0.912259,-0.117119 1.422789,-0.195403 -0.03382,-0.01961 -0.253652,-0.724435 0.791483,-4.580155 0.58889,-2.17252 1.449068,-3.757745 2.975706,-3.757745 0.450155,0 0.875785,0.234831 1.417215,0.547987 l 0.10865,-0.03908 c 0.26799,-0.411019 0.49483,-0.959129 0.61154,-1.389721 0.11672,-0.430584 0.011,-0.763144 -0.7524,-0.763144 -1.0569,0 -2.613953,0.76306 -3.496211,1.996113 l -0.07305,-0.01933 c 0,0 0.253678,-0.430909 0.333259,-0.724493 0.217519,-0.80246 -0.345533,-1.252295 -1.245851,-1.252295 z m 10.356771,0.802225 c 1.87893,0 2.24181,2.055244 1.68476,4.110327 -0.6048,2.231227 -2.05104,4.462486 -3.79296,4.462486 -1.85936,0 -2.19063,-2.172661 -1.59113,-4.384325 0.56766,-2.094226 1.95741,-4.188488 3.69933,-4.188488 z m 20.98239,0 c 1.11563,0 1.26674,0.958975 1.01739,1.878873 -0.32892,1.21348 -1.42071,1.702795 -2.30146,1.702795 -0.82203,0 -1.73536,-0.313248 -1.69292,-0.469826 0.20161,-0.743748 1.58737,-3.111842 2.97699,-3.111842 z m -9.81179,0.352582 c 1.35048,0 1.60982,1.859187 1.12174,3.659829 -0.5995,2.211665 -2.22758,4.462484 -4.34138,4.462484 -0.72417,0 -1.27943,-0.1177 -1.14149,-0.626577 l 0.66307,-2.446185 c 0.24935,-0.919895 0.49858,-1.839923 0.82456,-2.681527 0.57935,-1.487487 1.69916,-2.368024 2.8735,-2.368024 z" />
    <path
       style="font-style:normal;font-variant:normal;font-weight:normal;font-stretch:normal;font-size:23.5512px;line-height:1.25;font-family:'Fertigo Pro';-inkscape-font-specification:'Fertigo Pro';fill:#5adff6;fill-opacity:1;stroke:none;stroke-width:0.219882px;stroke-linecap:butt;stroke-linejoin:miter;stroke-opacity:1"
       d="m 37.867685,25.85596 c 0,-11.671697 7.494335,-24.344055 23.323176,-24.344055 6.113447,0 11.693079,1.868469 17.35496,3.298227 10.200819,2.5759504 20.264128,4.1104124 26.012799,1.7472737 -1.98727,5.0168023 -10.81867,12.6235723 -23.06795,12.6235723 -4.828297,0 -8.924706,-1.296475 -12.99659,-2.591466 C 63.939096,15.14088 59.241792,13.66335 52.866768,13.860623 44.675536,14.114098 39.138235,20.212937 37.867685,25.85596 Z"
       id="path918-9" />
    <path
       id="path918-4"
       style="font-style:normal;font-variant:normal;font-weight:normal;font-stretch:normal;font-size:23.5512px;line-height:1.25;font-family:'Fertigo Pro';-inkscape-font-specification:'Fertigo Pro';fill:url(#linearGradient1215);fill-opacity:1;stroke:none;stroke-width:0.219882px;stroke-linecap:butt;stroke-linejoin:miter;stroke-opacity:1"
       d="m 61.191046,1.5120263 c -15.82884,0 -23.323361,12.6720537 -23.323361,24.3437497 C 39.138237,20.212753 44.675656,14.114098 52.866887,13.860623 56.038527,11.491632 67.528177,3.6731502 78.545821,4.8102533 77.838083,4.6315329 77.131525,4.4458956 76.425158,4.257972 71.480589,2.942509 66.540317,1.5120263 61.191046,1.5120263 Z" />
    <path
       style="fill:#fdd82c;fill-opacity:1;stroke:none;stroke-width:0.219882px;stroke-linecap:butt;stroke-linejoin:miter;stroke-opacity:1"
       d="m 41.126647,37.203433 c -0.989864,-1.665975 -1.806173,-3.31234 -1.806173,-4.947343 0,-7.682784 6.914788,-11.852075 11.936442,-11.740116 5.479264,0.122163 9.360322,1.945253 13.74261,3.258963 4.056759,1.216123 8.01651,2.614732 12.603944,2.355875 2.390654,-0.134898 4.705359,-0.466095 6.989095,-1.02088 -5.066197,6.372809 -11.121746,9.839461 -17.472749,9.855417 -3.240337,0.0081 -6.463365,-0.628575 -9.659093,-1.727642 -2.813522,-0.96762 -5.776965,-1.531321 -9.03086,-1.531321 -4.057579,0 -6.899139,1.775086 -7.303216,5.497047 z"
       id="path961" />
    <path
       id="path918-2"
       style="font-style:normal;font-variant:normal;font-weight:normal;font-stretch:normal;font-size:23.5512px;line-height:1.25;font-family:'Fertigo Pro';-inkscape-font-specification:'Fertigo Pro';fill:#c9ac05;fill-opacity:1;stroke:none;stroke-width:0.219882px;stroke-linecap:butt;stroke-linejoin:miter;stroke-opacity:1"
       d="m 44.899608,22.381472 c -3.082027,1.912802 -5.579072,5.258438 -5.579072,9.874498 0,1.635001 0.816432,3.281364 1.806295,4.94734 -0.256023,-2.604894 -0.105129,-5.220939 0.589645,-7.852615 0.609925,-2.310287 1.642253,-4.632711 3.183132,-6.969223 z" />
  </g>
</svg>
