<?xml version="1.0" encoding="UTF-8" standalone="no"?>
<!-- Created with Inkscape (http://www.inkscape.org/) -->

<svg
   version="1.1"
   id="svg2"
   width="718.63843"
   height="174.95457"
   viewBox="0 0 718.63843 174.95457"
   sodipodi:docname="logo.svg"
   inkscape:version="1.2.1 (9c6d41e410, 2022-07-14)"
   xmlns:inkscape="http://www.inkscape.org/namespaces/inkscape"
   xmlns:sodipodi="http://sodipodi.sourceforge.net/DTD/sodipodi-0.dtd"
   xmlns="http://www.w3.org/2000/svg"
   xmlns:svg="http://www.w3.org/2000/svg">
  <defs
     id="defs6">
    <clipPath
       clipPathUnits="userSpaceOnUse"
       id="clipPath16">
      <path
         d="M 0,0 H 737.00787 V 737.00787 H 0 Z"
         id="path14" />
    </clipPath>
    <clipPath
       clipPathUnits="userSpaceOnUse"
       id="clipPath32">
      <path
         d="m 58.39388,-141.73245 v 83.62204 h 83.62203 v -83.62204 z"
         id="path30" />
    </clipPath>
    <clipPath
       clipPathUnits="userSpaceOnUse"
       id="clipPath76">
      <path
         d="M -269.29134,14.64368 V 128.73816 H 325.98425 V 14.64368 Z"
         id="path74" />
    </clipPath>
  </defs>
  <sodipodi:namedview
     id="namedview4"
     pagecolor="#ffffff"
     bordercolor="#666666"
     borderopacity="1.0"
     inkscape:showpageshadow="2"
     inkscape:pageopacity="0.0"
     inkscape:pagecheckerboard="0"
     inkscape:deskcolor="#d1d1d1"
     showgrid="false"
     inkscape:zoom="0.43910662"
     inkscape:cx="505.57198"
     inkscape:cy="91.09405"
     inkscape:window-width="1920"
     inkscape:window-height="1017"
     inkscape:window-x="1912"
     inkscape:window-y="-8"
     inkscape:window-maximized="1"
     inkscape:current-layer="g70"
     showguides="true" />
  <g
     id="g8"
     inkscape:groupmode="layer"
     inkscape:label="CS_CARGO_MANUAL - CZ"
     transform="matrix(1.3333333,0,0,-1.3333333,-139.3285,424.17359)">
    <g
       id="g10">
      <g
         id="g12"
         clip-path="url(#clipPath16)">
        <g
           id="g18"
           transform="matrix(1,0,0,-1,-226.77165,368.50394)">
          <g
             id="g22"
             transform="translate(595.30315,-0.97244)">
            <g
               id="g40"
               transform="matrix(1,0,0,-1,-368.53149,369.47638)">
              <g
                 id="g70"
                 transform="matrix(1,0,0,-1,368.50394,351.96651)">
                <g
                   id="g72"
                   clip-path="url(#clipPath76)"
                   transform="translate(-22.94721,15.700723)">
                  <g
                     id="g78"
                     transform="matrix(1,0,0,-1,-269.29134,309.86006)">
                    <path
                       d="M 0,158.74002 H 595.276 V 0 H 0 v 158.74002"
                       style="fill:#173c7c;fill-opacity:1;fill-rule:nonzero;stroke:none"
                       id="path80" />
                    <path
                       d="m 192.50299,67.47803 v 0.16498 c 0,16.29901 12.52199,29.64303 30.48401,29.64303 11.022,0 17.621,-3.59601 23.04698,-8.84402 l -8.183,-9.25202 c -4.509,4.01602 -9.10598,6.47302 -14.94699,6.47302 -9.86099,0 -16.95001,-8.02798 -16.95001,-17.85098 v -0.16903 c 0,-9.82499 6.92401,-18.01798 16.95001,-18.01798 6.678,0 10.771,2.62302 15.36801,6.72199 l 8.18299,-8.10999 c -6.017,-6.30801 -12.69699,-10.23804 -23.967,-10.23804 -17.209,0 -29.985,13.02304 -29.985,29.47904"
                       style="fill:#ffffff;fill-opacity:1;fill-rule:nonzero;stroke:none"
                       id="path82" />
                    <path
                       d="m 399.14697,67.47803 v 0.16498 c 0,16.29901 12.95102,29.64303 30.66104,29.64303 10.52097,0 16.86496,-2.78503 22.96299,-7.85702 l -8.10501,-9.585 c -4.512,3.684 -8.51401,5.819 -15.284,5.819 -9.353,0 -16.78903,-8.11199 -16.78903,-17.85098 v -0.16903 c 0,-10.478 7.35202,-18.18 17.70605,-18.18 4.67597,0 8.85401,1.14502 12.11698,3.44101 v 7.21802 h -12.44703 v 10.40698 h 24.892 V 47.095 c -6.01797,-5.004 -14.28399,-9.09601 -24.96795,-9.09601 -18.21402,0 -30.74604,12.53205 -30.74604,29.47904"
                       style="fill:#ffffff;fill-opacity:1;fill-rule:nonzero;stroke:none"
                       id="path84" />
                    <path
                       d="M 293.79697,96.71405 H 277.58899 L 253.515,38.98505 h 14.312 l 17.70501,43.56097 17.698,-43.56097 H 317.867 l -24.07003,57.729"
                       style="fill:#ffffff;fill-opacity:1;fill-rule:nonzero;stroke:none"
                       id="path86" />
                    <path
                       d="m 369.15601,59.45203 c 7.42797,2.70401 12.52996,8.518 12.52996,17.77197 v 0.16601 c 0,5.40403 -1.75701,9.90802 -5.014,13.103 -3.84497,3.76502 -9.60996,5.80701 -17.04297,5.80701 H 332.90598 V 38.98505 h 12.85998 V 84.923 h 12.78302 c 6.26303,0 10.10501,-2.78497 10.10501,-8.19198 v -0.16098 c 0,-4.82904 -3.59198,-8.10904 -9.86099,-8.10904 h -2.88998 V 57.28299 L 368.39301,38.98505 H 383.435 l -14.27899,20.46698"
                       style="fill:#ffffff;fill-opacity:1;fill-rule:nonzero;stroke:none"
                       id="path88" />
                    <path
                       d="m 500.71899,49.53003 c -10.21899,0 -18.49798,8.12399 -18.49798,18.13901 0,10.01696 8.27899,18.13696 18.49798,18.13696 10.21601,0 18.49598,-8.12 18.49598,-18.13696 0,-10.01502 -8.27997,-18.13901 -18.49598,-18.13901 z m 0,47.98599 c -16.81103,0 -30.43701,-13.36401 -30.43701,-29.84698 0,-16.48102 13.62598,-29.84503 30.43701,-29.84503 16.80799,0 30.43702,13.36401 30.43702,29.84503 0,16.48297 -13.62903,29.84698 -30.43702,29.84698"
                       style="fill:#ffffff;fill-opacity:1;fill-rule:nonzero;stroke:none"
                       id="path90" />
                    <path
                       d="m 64.41658,67.47803 v 0.16498 c 0,16.29901 12.5258,29.64303 30.4868,29.64303 11.0306,0 17.62361,-3.59601 23.04559,-8.84402 L 109.77199,79.19 c -4.51401,4.01602 -9.10201,6.47302 -14.9541,6.47302 -9.84961,0 -16.9531,-8.02798 -16.9531,-17.85098 v -0.16903 c 0,-9.82499 6.93799,-18.01798 16.9531,-18.01798 6.68209,0 10.7751,2.62302 15.36709,6.72199 L 118.37,48.23703 c -6.00902,-6.30801 -12.68601,-10.23804 -23.96662,-10.23804 -17.2056,0 -29.9868,13.02304 -29.9868,29.47904"
                       style="fill:#57c035;fill-opacity:1;fill-rule:nonzero;stroke:none"
                       id="path92" />
                    <path
                       d="m 500.30896,109.233 c 23.62097,0 42.75806,-18.655 42.75806,-41.49197 H 555.159 c 0,30.30798 -24.00702,53.17599 -54.85004,53.17599 V 109.233"
                       style="fill:#57c035;fill-opacity:1;fill-rule:nonzero;stroke:none"
                       id="path94" />
                    <path
                       d="m 167.673,70.78601 c -3.25701,1.09003 -8.31102,2.13699 -14.63902,3.314 -3.27199,0.609 -8.45,1.46603 -8.45,5.85803 0,3.12698 3.09301,5.83096 8.782,5.83096 3.94901,0 7.13002,-0.94296 9.61101,-2.29397 2.183,-1.18097 3.74399,-2.64402 5.43101,-4.29099 l 8.28199,9.35397 c -4.83901,4.025 -11.728,8.45502 -22.87801,8.45502 -9.914,0 -22.92598,-4.28903 -22.92598,-18.28705 0,-10.76693 12.12398,-14.37799 15.60599,-15.15298 3.067,-0.68201 5.51301,-1.04697 8.617,-1.54401 4.208,-0.67496 10.084,-1.40497 10.084,-6.26095 0,-3.904 -4.582,-6.29404 -10.27101,-6.29404 -4.601,0 -7.461,0.28204 -11.711,2.22003 -2.74699,1.25201 -5.253,3.13699 -6.81599,4.66296 l -8.301,-8.13998 C 131.89099,44.06799 139.64998,38.16 153.067,38.16 c 8.04498,0 16.33298,1.67002 21.534,7.56803 3.00499,3.42798 4.00999,7.46496 4.00999,11.52899 0,6.125 -4.29199,11.302 -10.93799,13.52899"
                       style="fill:#57c035;fill-opacity:1;fill-rule:nonzero;stroke:none"
                       id="path96" />
                    <path
                       d="m 192.50299,226.21732 v 0.16499 c 0,16.29982 12.52199,29.6436 30.48401,29.6436 11.022,0 17.621,-3.59569 23.04698,-8.84378 l -8.183,-9.25189 c -4.509,4.01558 -9.10598,6.47258 -14.94699,6.47258 -9.86099,0 -16.95001,-8.02829 -16.95001,-17.8516 v -0.16891 c 0,-9.82428 6.92401,-18.01828 16.95001,-18.01828 6.678,0 10.771,2.62297 15.36801,6.72198 l 8.18299,-8.10899 c -6.017,-6.30899 -12.69699,-10.239 -23.967,-10.239 -17.209,0 -29.985,13.02399 -29.985,29.4793"
                       style="fill:#173c7c;fill-opacity:1;fill-rule:nonzero;stroke:none"
                       id="path98" />
                    <path
                       d="m 399.14697,226.21732 v 0.16499 c 0,16.29982 12.95102,29.6436 30.66104,29.6436 10.52097,0 16.86496,-2.78519 22.96299,-7.8575 l -8.10501,-9.58488 c -4.512,3.68448 -8.51401,5.81929 -15.284,5.81929 -9.353,0 -16.78903,-8.11231 -16.78903,-17.8516 v -0.16891 c 0,-10.47829 7.35202,-18.1803 17.70605,-18.1803 4.67597,0 8.85401,1.14601 12.11698,3.442 v 7.217 h -12.44703 v 10.408 h 24.892 v -23.435 c -6.01797,-5.00399 -14.28399,-9.09599 -24.96795,-9.09599 -18.21402,0 -30.74604,12.53301 -30.74604,29.4793"
                       style="fill:#173c7c;fill-opacity:1;fill-rule:nonzero;stroke:none"
                       id="path100" />
                    <path
                       d="M 293.79697,255.45363 H 277.58899 L 253.515,197.72502 h 14.312 l 17.70501,43.56061 17.698,-43.56061 H 317.867 l -24.07003,57.72861"
                       style="fill:#173c7c;fill-opacity:1;fill-rule:nonzero;stroke:none"
                       id="path102" />
                    <path
                       d="m 369.15601,218.19102 c 7.42797,2.70501 12.52996,8.51841 12.52996,17.77239 v 0.166 c 0,5.40431 -1.75701,9.9082 -5.014,13.10352 -3.84497,3.7646 -9.60996,5.80659 -17.04297,5.80659 h -26.72302 v -57.3145 h 12.85998 v 45.93761 h 12.78302 c 6.26303,0 10.10501,-2.7852 10.10501,-8.19141 v -0.16121 c 0,-4.8291 -3.59198,-8.1093 -9.86099,-8.1093 h -2.88998 v -11.17869 l 12.48999,-18.297 H 383.435 l -14.27899,20.466"
                       style="fill:#173c7c;fill-opacity:1;fill-rule:nonzero;stroke:none"
                       id="path104" />
                    <path
                       d="m 500.71899,208.27002 c -10.21899,0 -18.49798,8.12401 -18.49798,18.1387 0,10.01659 8.27899,18.13671 18.49798,18.13671 10.21601,0 18.49598,-8.12012 18.49598,-18.13671 0,-10.01469 -8.27997,-18.1387 -18.49598,-18.1387 z m 0,47.98541 c -16.81103,0 -30.43701,-13.36331 -30.43701,-29.84671 0,-16.4817 13.62598,-29.8457 30.43701,-29.8457 16.80799,0 30.43702,13.364 30.43702,29.8457 0,16.4834 -13.62903,29.84671 -30.43702,29.84671"
                       style="fill:#173c7c;fill-opacity:1;fill-rule:nonzero;stroke:none"
                       id="path106" />
                    <path
                       d="m 64.41658,226.21732 v 0.16499 c 0,16.29982 12.5258,29.6436 30.4868,29.6436 11.0306,0 17.62361,-3.59569 23.04559,-8.84378 l -8.17698,-9.25189 c -4.51401,4.01558 -9.10201,6.47258 -14.9541,6.47258 -9.84961,0 -16.9531,-8.02829 -16.9531,-17.8516 v -0.16891 c 0,-9.82428 6.93799,-18.01828 16.9531,-18.01828 6.68209,0 10.7751,2.62297 15.36709,6.72198 l 8.18502,-8.10899 c -6.00902,-6.30899 -12.68601,-10.239 -23.96662,-10.239 -17.2056,0 -29.9868,13.02399 -29.9868,29.4793"
                       style="fill:#57c035;fill-opacity:1;fill-rule:nonzero;stroke:none"
                       id="path108" />
                    <path
                       d="m 500.30896,267.97311 c 23.62097,0 42.75806,-18.65528 42.75806,-41.49218 H 555.159 c 0,30.30771 -24.00702,53.17578 -54.85004,53.17578 v -11.6836"
                       style="fill:#57c035;fill-opacity:1;fill-rule:nonzero;stroke:none"
                       id="path110" />
                    <path
                       d="m 167.673,229.52592 c -3.25701,1.08979 -8.31102,2.13671 -14.63902,3.31339 -3.27199,0.60941 -8.45,1.46681 -8.45,5.85841 0,3.127 3.09301,5.8311 8.782,5.8311 3.94901,0 7.13002,-0.9434 9.61101,-2.294 2.183,-1.1816 3.74399,-2.64452 5.43101,-4.291 l 8.28199,9.3535 c -4.83901,4.02539 -11.728,8.45511 -22.87801,8.45511 -9.914,0 -22.92598,-4.28901 -22.92598,-18.28711 0,-10.7666 12.12398,-14.3783 15.60599,-15.1523 3.067,-0.683 5.51301,-1.047 8.617,-1.54399 4.208,-0.67501 10.084,-1.40601 10.084,-6.26201 0,-3.903 -4.582,-6.29399 -10.27101,-6.29399 -4.601,0 -7.461,0.28198 -11.711,2.22099 -2.74699,1.25202 -5.253,3.136 -6.81599,4.66298 l -8.301,-8.14098 c 3.797,-4.14801 11.55599,-10.057 24.97301,-10.057 8.04498,0 16.33298,1.67 21.534,7.56799 3.00499,3.429 4.00999,7.46602 4.00999,11.52899 0,6.12502 -4.29199,11.30232 -10.93799,13.52992"
                       style="fill:#57c035;fill-opacity:1;fill-rule:nonzero;stroke:none"
                       id="path112" />
                    <g
                       id="g114"
                       transform="translate(-99.2126,-42.10645)">
                      <text
                         xml:space="preserve"
                         transform="matrix(1,0,0,-1,99.26628,359.55035)"
                         style="font-variant:normal;font-weight:normal;font-size:8px;font-family:AkzidenzGroteskBECE;-inkscape-font-specification:AkzidenzGroteskBECE-Regular;writing-mode:lr-tb;fill:#173c7c;fill-opacity:1;fill-rule:nonzero;stroke:none"
                         id="text118"><tspan
                           x="0"
                           y="0"
                           id="tspan116">A</tspan></text>
                      <text
                         xml:space="preserve"
                         transform="matrix(1,0,0,-1,99.26628,209.20746)"
                         style="font-variant:normal;font-weight:normal;font-size:8px;font-family:AkzidenzGroteskBECE;-inkscape-font-specification:AkzidenzGroteskBECE-Regular;writing-mode:lr-tb;fill:#173c7c;fill-opacity:1;fill-rule:nonzero;stroke:none"
                         id="text122"><tspan
                           x="0"
                           y="0"
                           id="tspan120">B</tspan></text>
                    </g>
                  </g>
                </g>
              </g>
            </g>
          </g>
        </g>
      </g>
    </g>
  </g>
</svg>
