<?xml version="1.0" encoding="UTF-8" standalone="no"?>
<svg
   viewBox="0 0 1459.8 720.10865"
   version="1.1"
   id="svg21"
   width="1459.7999"
   height="720.10864"
   xmlns="http://www.w3.org/2000/svg"
   xmlns:svg="http://www.w3.org/2000/svg">
  <defs
     id="defs1">
    <style
       id="style1">.cls-1{fill:#fbba00;}.cls-2{fill:#1a3682;}.cls-3{fill:#1c1c1b;}</style>
  </defs>
  <g
     id="Hgrund"
     transform="scale(10,7.583284)">
    <rect
       class="cls-1"
       width="145.98"
       height="94.959999"
       id="rect1"
       x="0"
       y="0" />
  </g>
  <g
     id="DAC_Logo"
     transform="matrix(10,0,0,10,0,-205.15136)">
    <path
       class="cls-2"
       d="m 23.6,43.76 h 2.67 c 3.73,0 4.92,2.52 4.92,6.46 0,4.33 -2.07,5.86 -4.25,5.86 H 23.6 Z m -3.75,15.93 h 7.35 c 5.21,0 7.74,-4.21 7.74,-9.88 0,-6.48 -3.32,-9.66 -7.74,-9.66 h -7.35 z"
       id="path1" />
    <path
       class="cls-2"
       d="m 41.87,45 h 0.05 l 2.15,7.17 h -4.42 z m -8.34,14.69 h 3.8 l 1.34,-4.35 h 6.38 l 1.29,4.35 h 3.89 L 43.85,40.15 H 40 Z"
       id="path2" />
    <path
       class="cls-2"
       d="M 61.27,46.72 A 3.85,3.85 0 0 0 57.54,43.3 c -3.36,0 -4.63,3.28 -4.63,6.7 0,3.26 1.27,6.54 4.63,6.54 2.3,0 3.59,-1.8 3.87,-4.37 H 65 c -0.38,4.87 -3.32,8 -7.5,8 -5.28,0 -8.38,-4.52 -8.38,-10.16 0,-5.8 3.1,-10.31 8.38,-10.31 3.75,0 6.91,2.51 7.36,7 z"
       id="path3" />
    <polygon
       class="cls-2"
       points="77.01,59.69 77.01,51.26 70.11,51.26 70.11,59.69 66.35,59.69 66.35,40.15 70.11,40.15 70.11,47.65 77.01,47.65 77.01,40.15 80.76,40.15 80.76,59.69 "
       id="polygon3" />
    <path
       class="cls-2"
       d="m 85.36,53.21 c 0,2.6 1.77,3.61 3.78,3.61 1.31,0 3.32,-0.44 3.32,-2.44 0,-2 -2.56,-2.46 -5.07,-3.23 -2.51,-0.77 -5.08,-1.89 -5.08,-5.55 0,-4 3.29,-5.91 6.37,-5.91 3.56,0 6.84,1.77 6.84,6.29 h -3.63 c -0.12,-2.35 -1.58,-3 -3.37,-3 -1.2,0 -2.58,0.58 -2.58,2.22 0,1.64 0.81,1.7 5.09,3 1.24,0.35 5.06,1.26 5.06,5.69 0,3.59 -2.46,6.27 -7.1,6.27 -3.77,0 -7.31,-2.14 -7.26,-6.95 z"
       id="path4" />
    <polygon
       class="cls-2"
       points="101.11,51.29 101.11,56.08 110.31,56.08 110.31,59.69 97.36,59.69 97.36,40.15 110.11,40.15 110.11,43.76 101.11,43.76 101.11,47.95 109.37,47.95 109.37,51.29 "
       id="polygon4" />
    <path
       class="cls-2"
       d="m 115.2,43.49 h 4.11 c 1.67,0 2.58,0.82 2.58,2.71 0,1.89 -0.89,2.8 -2.58,2.8 h -4.11 z m -3.75,16.2 h 3.75 v -7.63 h 3.8 c 1.89,0 2.58,0.9 2.84,2.95 a 25.59,25.59 0 0 0 0.6,4.68 h 3.75 c -0.67,-1.09 -0.64,-3.39 -0.71,-4.62 -0.12,-2 -0.65,-4 -2.49,-4.57 v -0.06 c 1.89,-0.87 2.7,-2.6 2.7,-4.9 0,-2.95 -1.93,-5.39 -5,-5.39 h -9.2 z"
       id="path5" />
    <rect
       class="cls-3"
       x="19.84"
       y="64.68"
       width="1.8"
       height="8.1899996"
       id="rect5" />
    <path
       class="cls-3"
       d="m 23.09,66.94 h 1.55 v 0.83 0 a 2.13,2.13 0 0 1 1.82,-1 c 1.73,0 2.16,1 2.16,2.44 v 3.65 H 27 v -3.34 c 0,-1 -0.28,-1.45 -1,-1.45 -0.72,0 -1.26,0.49 -1.26,1.69 v 3.11 h -1.65 z"
       id="path6" />
    <path
       class="cls-3"
       d="m 32,66.94 h 1.19 V 68 H 32 v 3 c 0,0.55 0.14,0.68 0.69,0.68 a 2.81,2.81 0 0 0 0.5,0 v 1.27 a 5.7,5.7 0 0 1 -0.95,0.06 c -1,0 -1.87,-0.23 -1.87,-1.41 V 68 h -1 v -1.06 h 1 V 65.17 H 32 Z"
       id="path7" />
    <path
       class="cls-3"
       d="M 35.31,69.27 A 1.28,1.28 0 0 1 36.66,68 c 0.79,0 1.15,0.44 1.3,1.26 z m 4.28,1 c 0.11,-1.82 -0.86,-3.52 -2.88,-3.52 a 3,3 0 0 0 -3,3.13 2.9,2.9 0 0 0 3,3.12 2.68,2.68 0 0 0 2.78,-2 h -1.44 a 1.34,1.34 0 0 1 -1.29,0.76 c -0.9,0 -1.41,-0.47 -1.45,-1.5 z"
       id="path8" />
    <rect
       class="cls-3"
       x="40.630001"
       y="64.68"
       width="1.63"
       height="8.1899996"
       id="rect8" />
    <rect
       class="cls-3"
       x="43.59"
       y="64.68"
       width="1.63"
       height="8.1899996"
       id="rect9" />
    <path
       class="cls-3"
       d="m 46.55,66.94 h 1.63 v 5.93 H 46.55 Z M 48.18,66 h -1.63 v -1.32 h 1.63 z"
       id="path9" />
    <path
       class="cls-3"
       d="m 52.23,71.47 c -1,0 -1.32,-0.93 -1.32,-1.78 0,-0.85 0.4,-1.69 1.32,-1.69 0.92,0 1.39,0.86 1.39,1.82 a 1.46,1.46 0 0 1 -1.39,1.64 m 2.94,-4.53 h -1.55 v 0.79 0 a 1.86,1.86 0 0 0 -1.77,-1 2.65,2.65 0 0 0 -2.55,2.94 c 0,1.63 0.76,3 2.54,3 a 2,2 0 0 0 1.78,-0.92 v 0 0.78 c 0,0.85 -0.4,1.47 -1.31,1.47 A 1.09,1.09 0 0 1 51.1,73.17 h -1.62 c 0.08,1.36 1.44,1.91 2.61,1.91 2.73,0 3.08,-1.65 3.08,-2.63 z"
       id="path10" />
    <path
       class="cls-3"
       d="M 57.82,69.27 A 1.28,1.28 0 0 1 59.17,68 c 0.8,0 1.15,0.44 1.3,1.26 z m 4.28,1 c 0.12,-1.82 -0.86,-3.52 -2.88,-3.52 a 3,3 0 0 0 -3,3.13 2.9,2.9 0 0 0 3,3.12 2.68,2.68 0 0 0 2.78,-2 h -1.44 a 1.34,1.34 0 0 1 -1.28,0.76 c -0.91,0 -1.41,-0.47 -1.46,-1.5 z"
       id="path11" />
    <path
       class="cls-3"
       d="m 63.07,66.94 h 1.54 v 0.83 0 a 2.1,2.1 0 0 1 1.81,-1 c 1.73,0 2.17,1 2.17,2.44 v 3.65 H 67 v -3.34 c 0,-1 -0.29,-1.45 -1,-1.45 -0.71,0 -1.27,0.49 -1.27,1.69 v 3.11 h -1.66 z"
       id="path12" />
    <path
       class="cls-3"
       d="m 71.94,66.94 h 1.19 V 68 h -1.19 v 3 c 0,0.55 0.13,0.68 0.68,0.68 a 2.85,2.85 0 0 0 0.51,0 v 1.27 a 5.77,5.77 0 0 1 -0.95,0.06 c -1,0 -1.87,-0.23 -1.87,-1.41 V 68 h -1 v -1.06 h 1 v -1.77 h 1.63 z"
       id="path13" />
    <polygon
       class="cls-3"
       points="79.07,64.69 79.07,71.36 83.07,71.36 83.07,72.87 77.27,72.87 77.27,64.69 "
       id="polygon13" />
    <path
       class="cls-3"
       d="m 85.35,69.91 c 0,-1 0.33,-1.9 1.43,-1.9 1.1,0 1.45,0.95 1.45,1.9 0,0.95 -0.33,1.89 -1.45,1.89 -1.12,0 -1.43,-1 -1.43,-1.89 m -1.63,0 a 3.07,3.07 0 1 0 3.06,-3.13 2.91,2.91 0 0 0 -3.06,3.13"
       id="path14" />
    <path
       class="cls-3"
       d="m 93.68,71.47 c -1,0 -1.32,-0.93 -1.32,-1.78 0,-0.85 0.4,-1.69 1.32,-1.69 0.92,0 1.39,0.86 1.39,1.82 a 1.46,1.46 0 0 1 -1.39,1.64 m 2.94,-4.53 h -1.55 v 0.79 0 a 1.86,1.86 0 0 0 -1.77,-1 2.65,2.65 0 0 0 -2.55,2.94 c 0,1.63 0.76,3 2.54,3 a 2,2 0 0 0 1.78,-0.92 v 0 0.78 c 0,0.85 -0.4,1.47 -1.31,1.47 a 1.11,1.11 0 0 1 -1.22,-0.82 h -1.61 c 0.08,1.36 1.44,1.91 2.61,1.91 2.74,0 3.08,-1.65 3.08,-2.63 z"
       id="path15" />
    <path
       class="cls-3"
       d="m 98,66.94 h 1.6 v 5.93 H 98 Z M 99.6,66 H 98 v -1.32 h 1.6 z"
       id="path16" />
    <path
       class="cls-3"
       d="m 102.15,70.94 c 0,0.71 0.61,1 1.25,1 0.47,0 1.07,-0.18 1.07,-0.76 0,-0.58 -0.68,-0.66 -1.85,-0.91 -0.94,-0.21 -1.88,-0.54 -1.88,-1.58 0,-1.52 1.31,-1.91 2.58,-1.91 1.27,0 2.49,0.44 2.62,1.89 h -1.55 c 0,-0.63 -0.53,-0.8 -1.11,-0.8 -0.37,0 -0.91,0.07 -0.91,0.55 0,0.48 0.92,0.67 1.85,0.88 0.93,0.21 1.88,0.57 1.88,1.67 0,1.56 -1.36,2.06 -2.71,2.06 -1.35,0 -2.72,-0.51 -2.79,-2.09 z"
       id="path17" />
    <path
       class="cls-3"
       d="m 109.05,66.94 h 1.2 V 68 h -1.2 v 3 c 0,0.55 0.14,0.68 0.69,0.68 a 3,3 0 0 0 0.51,0 v 1.27 a 5.89,5.89 0 0 1 -1,0.06 c -1,0 -1.87,-0.23 -1.87,-1.41 V 68 h -1 v -1.06 h 1 v -1.77 h 1.63 z"
       id="path18" />
    <path
       class="cls-3"
       d="m 111.43,66.94 h 1.62 v 5.93 h -1.62 z m 1.63,-0.91 h -1.63 v -1.35 h 1.63 z"
       id="path19" />
    <path
       class="cls-3"
       d="M 118.22,69 A 1.12,1.12 0 0 0 117,68 c -1,0 -1.38,1 -1.38,1.93 0,0.93 0.38,1.87 1.38,1.87 a 1.26,1.26 0 0 0 1.3,-1.2 h 1.57 A 2.66,2.66 0 0 1 117,73 a 2.87,2.87 0 0 1 -3,-3 2.94,2.94 0 0 1 3,-3.21 2.51,2.51 0 0 1 2.81,2.21 z"
       id="path20" />
    <path
       class="cls-3"
       d="m 122.19,70.94 c 0,0.71 0.61,1 1.25,1 0.47,0 1.07,-0.18 1.07,-0.76 0,-0.58 -0.68,-0.66 -1.85,-0.91 -0.94,-0.21 -1.88,-0.54 -1.88,-1.58 0,-1.52 1.31,-1.91 2.58,-1.91 1.27,0 2.49,0.44 2.62,1.89 h -1.55 c -0.05,-0.63 -0.53,-0.8 -1.11,-0.8 -0.37,0 -0.91,0.07 -0.91,0.55 0,0.48 0.92,0.67 1.85,0.88 0.93,0.21 1.88,0.57 1.88,1.67 0,1.56 -1.36,2.06 -2.71,2.06 -1.35,0 -2.72,-0.51 -2.79,-2.09 z"
       id="path21" />
  </g>
</svg>
