<?xml version="1.0" encoding="UTF-8"?>
<!DOCTYPE svg PUBLIC "-//W3C//DTD SVG 1.1//EN" "http://www.w3.org/Graphics/SVG/1.1/DTD/svg11.dtd">
<!-- Creator: CorelDRAW -->
<svg xmlns="http://www.w3.org/2000/svg" xml:space="preserve" width="164mm" height="38mm" style="shape-rendering:geometricPrecision; text-rendering:geometricPrecision; image-rendering:optimizeQuality; fill-rule:evenodd; clip-rule:evenodd"
viewBox="0 0 164 38"
 xmlns:xlink="http://www.w3.org/1999/xlink">
 <defs>
  <style type="text/css">
   <![CDATA[
    .fil1 {fill:#0093DD;fill-rule:nonzero}
    .fil0 {fill:#073464;fill-rule:nonzero}
   ]]>
  </style>
 </defs>
 <g id="Vrstva_x0020_1">
  <metadata id="CorelCorpID_0Corel-Layer"/>
  <g id="_40821360">
   <polygon id="_40821576" class="fil0" points="7.3231,2.9342 7.3259,8.6232 12.2584,8.6232 12.2584,33.9757 32.3061,33.9757 34.0219,24.2367 22.0013,24.2367 21.9984,12.6769 36.0618,12.6769 37.7826,2.9342 "/>
   <polygon id="_40821456" class="fil1" points="42.0872,2.9342 40.3704,12.6769 53.0955,12.6769 53.0955,24.2367 38.3304,24.2367 36.6135,33.9757 62.8357,33.9757 62.8357,2.9342 "/>
   <path id="_40821384" class="fil1" d="M146.241 24.6708c-2.4212,0 -3.1833,-1.5506 -3.1833,-4.1079 0,-2.4216 0.6801,-4.2444 3.1288,-4.2444 2.5033,0 3.102,1.8228 3.102,4.2172 0,2.5304 -0.5987,4.1351 -3.0475,4.1351zm-0.2177 3.6187l0 0c4.5709,0 7.8899,-2.6933 7.8899,-7.7538 0,-4.843 -2.3668,-7.8087 -7.6446,-7.8087 -4.7074,0 -7.7818,3.0202 -7.7818,7.9444 0,4.6526 2.6389,7.6181 7.5365,7.6181zm-17.6575 -3.5367l0 0c-2.0133,0 -3.3735,-0.925 -3.3735,-4.1355 0,-2.5576 1.1149,-4.1629 3.7001,-4.1629 0.7613,0 1.3325,0.1361 1.8224,0.2722l0 7.7813c-0.7345,0.2177 -1.3877,0.2449 -2.149,0.2449zm-0.7076 9.2229l0 0c3.2652,0 7.4,-1.5231 7.4,-5.8763l0 -14.6107c-2.4212,-0.4895 -4.1348,-0.7617 -6.339,-0.7617 -4.4889,0 -8.2441,2.8024 -8.2441,7.8903 0,6.7748 4.0542,7.5909 7.6454,7.5909 0.8709,0 1.7956,-0.3269 2.4219,-0.762l0 0.299c0,2.1498 -1.3064,2.4219 -3.4823,2.4219 -1.0887,0 -3.0207,-0.2721 -4.8431,-0.6532l-0.7076 3.5643c1.7142,0.4624 3.8364,0.8975 6.1488,0.8975zm-18.3652 -6.0128l0 0 4.5434 0 0 -10.0663c0.5988,-0.6531 1.9589,-1.2789 3.2922,-1.2789 0.8165,0 1.1155,0 1.9864,0.1632l0.5987 -3.7273c-0.6263,-0.1905 -1.2243,-0.2449 -2.0408,-0.2449 -1.7136,0 -3.1013,1.333 -3.8365,2.2853l0 -1.986 -4.5434 0 0 14.8549zm-12.352 -3.2645l0 0c-0.8165,0 -1.6599,-0.3811 -1.6599,-1.2516 0,-1.0883 0.9798,-1.5238 2.3124,-1.551l2.231 -0.0544 0 2.3399c-0.9791,0.2721 -2.0126,0.5171 -2.8835,0.5171zm-0.9522 3.5098l0 0c1.6322,0 3.1832,-0.8437 4.2712,-1.687 0.4079,1.2788 2.313,1.5782 4.1086,1.5782 0.3535,0 0.707,0 1.0611,-0.0272l0.1633 -3.4286c-0.8433,-0.0269 -1.3332,-0.1357 -1.3332,-0.6253l0 -6.6115c0,-3.3466 -1.8501,-4.6526 -6.4479,-4.6526 -2.3675,0 -4.3263,0.5442 -6.0131,1.1972l0.8978 3.2921c1.3877,-0.3266 2.9656,-0.653 4.4346,-0.653 1.85,0 2.6933,0.3807 2.6933,1.6869l0 0.925 -2.5845 0c-2.9386,0 -6.3665,0.7617 -6.3665,4.5162 0,2.9659 1.85,4.4896 5.1153,4.4896zm-12.9777 0.0269l0 0c2.4756,0 4.081,-0.2449 5.9311,-0.925l-0.9798 -3.4823c-1.469,0.3807 -2.5845,0.544 -4.4614,0.544 -3.8909,0 -6.4486,-2.1494 -6.4486,-6.176 0,-4.0269 2.4213,-5.9857 5.9043,-5.9313 2.1221,0.0272 2.8835,0.2177 4.7067,0.7075l1.2243 -3.3466c-1.4421,-0.653 -3.1288,-1.17 -5.9855,-1.17 -6.9921,0 -10.5568,3.3194 -10.5568,10.0125 0,6.3121 3.6188,9.7672 10.6657,9.7672z"/>
  </g>
 </g>
</svg>
