<?xml version="1.0" encoding="UTF-8" standalone="no"?>
<!-- Created with Inkscape (http://www.inkscape.org/) -->

<svg
   xmlns:dc="http://purl.org/dc/elements/1.1/"
   xmlns:cc="http://creativecommons.org/ns#"
   xmlns:rdf="http://www.w3.org/1999/02/22-rdf-syntax-ns#"
   xmlns:svg="http://www.w3.org/2000/svg"
   xmlns="http://www.w3.org/2000/svg"
   version="1.1"
   width="1024"
   height="455"
   id="svg4415">
  <defs
     id="defs4417" />
  <metadata
     id="metadata4420">
    <rdf:RDF>
      <cc:Work
         rdf:about="">
        <dc:format>image/svg+xml</dc:format>
        <dc:type
           rdf:resource="http://purl.org/dc/dcmitype/StillImage" />
        <dc:title></dc:title>
      </cc:Work>
    </rdf:RDF>
  </metadata>
  <g
     transform="translate(0,-313)"
     id="layer1">
    <g
       transform="matrix(4.6992259,0,0,-4.6992259,-4559.3489,1981.1825)"
       id="g3612"
       style="fill:#00305c;fill-opacity:1">
      <path
         d="m 977.956,262.508 11.529,0 0,-3.334 -18.085,0 0,3.334 11.217,8.056 -10.927,0 0,3.333 17.571,0 0,-3.333 -11.305,-8.056"
         id="path3558"
         style="fill:#00305c;fill-opacity:1;fill-rule:nonzero;stroke:none" />
      <path
         d="m 998.181,263.875 c 0.023,-0.109 0.023,-0.198 0.023,-0.242 -0.023,-1.28 0.311,-1.39 4.46,-1.39 1.249,0 1.985,0.022 3.122,0.089 1.539,0.087 1.918,0.33 1.918,1.213 0,1.147 -0.446,1.368 -2.832,1.368 -0.892,0 -2.877,0.022 -4.528,0.045 -3.457,0.045 -4.392,0.176 -5.374,0.772 -0.914,0.552 -1.36,1.699 -1.36,3.575 0,2.716 0.78,3.864 2.943,4.348 0.58,0.133 1.583,0.221 3.145,0.31 1.404,0.065 2.297,0.087 2.832,0.087 0,0 0.401,0 1.226,-0.022 l 1.227,0 1.227,-0.022 c 1.895,-0.021 2.742,-0.132 3.478,-0.485 1.114,-0.53 1.717,-1.391 1.873,-2.627 0.067,-0.398 0.067,-0.595 0.09,-1.501 l -4.438,0 c -0.044,0.618 -0.157,0.906 -0.513,1.127 -0.423,0.264 -0.914,0.308 -3.411,0.308 -0.625,0 -1.317,-0.022 -2.655,-0.087 -1.471,-0.068 -1.672,-0.09 -2.006,-0.31 -0.312,-0.177 -0.447,-0.442 -0.447,-0.905 0,-0.795 0.469,-1.191 1.517,-1.214 0.09,0 0.491,-0.022 1.093,-0.022 l 1.003,-0.022 c 3.256,-0.044 2.364,-0.044 3.01,-0.044 l 1.986,0 c 4.258,0 5.485,-1.014 5.485,-4.48 0,-2.584 -0.825,-3.818 -2.943,-4.305 -0.714,-0.153 -2.007,-0.265 -3.836,-0.33 -1.539,-0.065 -2.855,-0.089 -3.835,-0.089 -3.101,0 -4.906,0.154 -5.91,0.486 -1.583,0.551 -2.03,1.325 -2.03,3.642 l 0,0.727 4.46,0"
         id="path3560"
         style="fill:#00305c;fill-opacity:1;fill-rule:nonzero;stroke:none" />
      <path
         d="m 1021.329,263.875 c 0.021,-0.109 0.021,-0.198 0.021,-0.242 -0.021,-1.28 0.313,-1.39 4.46,-1.39 1.248,0 1.985,0.022 3.121,0.089 1.54,0.087 1.918,0.33 1.918,1.213 0,1.147 -0.445,1.368 -2.831,1.368 -0.891,0 -2.877,0.022 -4.526,0.045 -3.457,0.045 -4.394,0.176 -5.374,0.772 -0.915,0.552 -1.362,1.699 -1.362,3.575 0,2.716 0.782,3.864 2.944,4.348 0.581,0.133 1.584,0.221 3.144,0.31 1.406,0.065 2.297,0.087 2.832,0.087 0,0 0.402,0 1.228,-0.022 l 1.226,0 1.226,-0.022 c 1.896,-0.021 2.742,-0.132 3.479,-0.485 1.116,-0.53 1.717,-1.391 1.873,-2.627 0.068,-0.398 0.068,-0.595 0.089,-1.501 l -4.437,0 c -0.044,0.618 -0.156,0.906 -0.514,1.127 -0.423,0.264 -0.915,0.308 -3.411,0.308 -0.625,0 -1.316,-0.022 -2.654,-0.087 -1.472,-0.068 -1.672,-0.09 -2.006,-0.31 -0.313,-0.177 -0.446,-0.442 -0.446,-0.905 0,-0.795 0.468,-1.191 1.515,-1.214 0.089,0 0.491,-0.022 1.094,-0.022 l 1.004,-0.022 c 3.255,-0.044 2.362,-0.044 3.01,-0.044 l 1.983,0 c 4.261,0 5.487,-1.014 5.487,-4.48 0,-2.584 -0.826,-3.818 -2.943,-4.305 -0.715,-0.153 -2.008,-0.265 -3.837,-0.33 -1.538,-0.065 -2.853,-0.089 -3.836,-0.089 -3.098,0 -4.905,0.154 -5.908,0.486 -1.583,0.551 -2.029,1.325 -2.029,3.642 l 0,0.727 4.46,0"
         id="path3562"
         style="fill:#00305c;fill-opacity:1;fill-rule:nonzero;stroke:none" />
      <path
         d="m 1044.743,268.356 2.32,0 6.109,5.541 6.267,0 -8.518,-7.285 9.431,-7.438 -6.644,0 -6.645,5.607 -2.32,0 0,-5.607 -4.526,0 0,14.723 4.526,0 0,-5.541"
         id="path3564"
         style="fill:#00305c;fill-opacity:1;fill-rule:nonzero;stroke:none" />
      <path
         d="m 1089.321,264.803 c 0,-0.419 0.022,-0.795 0.022,-0.95 0,-2.582 -0.624,-3.751 -2.275,-4.325 -0.735,-0.264 -2.119,-0.419 -3.924,-0.463 l -0.713,-0.021 -0.693,0 -0.712,-0.024 c 0,0 -0.379,0 -1.16,0.024 l -1.182,0 c -0.803,0.021 -1.181,0.021 -1.181,0.021 -3.548,0.044 -4.818,0.352 -5.8,1.368 -1.048,1.081 -1.382,2.78 -1.382,6.841 0,2.474 0.198,3.576 0.824,4.57 1.161,1.831 2.633,2.206 8.832,2.206 1.115,0 3.345,-0.044 4.193,-0.087 2.72,-0.155 3.746,-0.597 4.46,-1.988 0.378,-0.749 0.512,-1.522 0.512,-3.265 l -4.369,0 c -0.046,1.611 -0.336,1.743 -3.704,1.743 l -1.07,0 c -2.565,-0.022 -2.675,-0.022 -3.3,-0.11 -1.562,-0.22 -1.807,-0.773 -1.807,-4.061 0,-3.444 0.29,-3.643 5.151,-3.643 l 1.049,0 0.536,0.023 c 1.605,0 1.827,0.022 2.251,0.154 0.737,0.267 0.982,0.773 0.982,1.987 l 4.46,0"
         id="path3566"
         style="fill:#00305c;fill-opacity:1;fill-rule:nonzero;stroke:none" />
      <path
         d="m 1103.771,270.741 -3.189,-5.828 6.378,0 -3.189,5.828 m -4.772,-8.895 -1.472,-2.672 -5.041,0 8.296,14.723 6.111,0 8.116,-14.723 -4.995,0 -1.404,2.672 -9.611,0"
         id="path3568"
         style="fill:#00305c;fill-opacity:1;fill-rule:nonzero;stroke:none" />
      <path
         d="m 1129.862,266.525 0.735,0 c 1.761,0 2.141,0.33 2.141,1.876 0,1.678 -0.313,1.92 -2.543,1.92 l -7.179,0 0,-3.796 6.846,0 m -11.374,7.372 13.848,0 c 3.657,0 4.973,-1.236 4.973,-4.657 0,-2.715 -0.557,-3.62 -2.609,-4.237 -0.133,-0.045 -0.334,-0.09 -0.602,-0.178 0.223,-0.044 0.423,-0.089 0.535,-0.111 1.963,-0.308 2.497,-0.926 2.497,-2.89 l 0,-2.65 -4.593,0 0,1.413 c 0,1.986 -0.312,2.362 -1.962,2.362 l -7.559,0 0,-3.775 -4.528,0 0,14.723"
         id="path3570"
         style="fill:#00305c;fill-opacity:1;fill-rule:nonzero;stroke:none" />
      <path
         d="m 1151.048,267.473 10.19,0 c -0.022,-0.662 -0.022,-1.058 -0.022,-1.501 0,-0.264 0,-0.749 0.022,-1.302 0.068,-2.892 -0.556,-4.458 -2.049,-5.164 -0.849,-0.419 -1.495,-0.486 -4.305,-0.486 -1.093,0 -2.52,0 -3.322,0.024 -3.791,0.021 -2.677,0.021 -3.345,0.043 -3.346,0.109 -4.684,0.596 -5.553,2.008 -0.647,1.037 -0.826,2.184 -0.826,5.253 0,1.237 0.067,2.604 0.179,3.598 0.223,2.007 1.494,3.464 3.366,3.796 0.715,0.132 1.562,0.199 2.543,0.243 1.851,0.043 3.345,0.065 3.992,0.065 2.699,0 4.549,-0.065 5.663,-0.198 1.987,-0.221 3.257,-1.368 3.526,-3.133 0.087,-0.487 0.087,-0.752 0.087,-1.855 l -4.414,0 c -0.068,0.928 -0.223,1.236 -0.759,1.435 -0.579,0.221 -0.713,0.221 -3.701,0.221 l -2.967,0 c -2.698,0 -2.944,-0.353 -2.944,-4.15 0,-3.509 0.358,-3.841 4.26,-3.841 l 3.858,0 c 1.672,0.022 2.275,0.464 2.275,1.679 0,0.065 -0.022,0.307 -0.022,0.506 l -5.732,0 0,2.759"
         id="path3572"
         style="fill:#00305c;fill-opacity:1;fill-rule:nonzero;stroke:none" />
      <path
         d="m 1174.975,270.431 c -2.497,-0.022 -2.942,-0.066 -3.545,-0.308 -0.825,-0.375 -1.114,-1.193 -1.114,-3.201 0,-4.084 0.2,-4.283 4.592,-4.283 6.668,0 6.646,0 6.646,4.151 0,3.31 -0.38,3.663 -3.902,3.663 -1.003,0 -1.227,0 -2.677,-0.022 m -1.493,3.597 1.069,0 c 0.715,0.022 1.07,0.022 1.07,0.022 0,0 1.028,0 2.41,-0.022 2.386,0 2.475,0 3.233,-0.043 2.252,-0.154 3.501,-0.816 4.238,-2.317 0.468,-0.973 0.623,-2.207 0.623,-4.835 0,-3.023 -0.089,-3.972 -0.468,-4.922 -0.647,-1.588 -1.896,-2.361 -4.304,-2.647 -0.914,-0.112 -1.537,-0.133 -3.591,-0.199 -1.359,-0.021 -2.05,-0.045 -2.653,-0.045 -1.472,0 -3.167,0.045 -4.103,0.132 -2.341,0.177 -3.546,0.706 -4.37,1.921 -0.714,1.059 -0.893,2.075 -0.893,4.877 0,1.237 0.046,2.847 0.112,3.731 0.157,2.427 1.428,3.84 3.768,4.15 0.759,0.088 1.695,0.154 2.787,0.175 l 1.072,0.022"
         id="path3574"
         style="fill:#00305c;fill-opacity:1;fill-rule:nonzero;stroke:none" />
      <path
         d="m 971.615,280.492 214.295,0 0,3.4356 -214.295,0 0,-3.4356 z"
         id="path3576"
         style="fill:#00305c;fill-opacity:1;fill-rule:nonzero;stroke:none" />
      <path
         d="m 1182.817,353.499 c -118.628,-5.583 -202.828,-19.621 -202.828,-36.066 0,-10.294 33.042,-19.641 86.808,-26.567 -17.93,6.284 -27.973,13.235 -27.973,20.555 0,17.529 57.146,32.978 143.993,42.078"
         id="path3578"
         style="fill:#00305c;fill-opacity:1;fill-rule:nonzero;stroke:none" />
    </g>
  </g>
</svg>
