<?xml version="1.0" encoding="utf-8"?>
<!-- Generator: Adobe Illustrator 19.0.1, SVG Export Plug-In . SVG Version: 6.00 Build 0)  -->
<svg version="1.1" id="Artwork" xmlns="http://www.w3.org/2000/svg" xmlns:xlink="http://www.w3.org/1999/xlink" x="0px" y="0px"
	 viewBox="0 0 187.09 39.57" enable-background="new 0 0 187.09 39.57" xml:space="preserve">
<polygon fill="#ED1B34" points="50.88,1.42 35.83,38.05 103.91,38.05 118.96,1.42 "/>
<g>
	<path fill-rule="evenodd" clip-rule="evenodd" fill="#231F20" d="M1.42,26.78h3.23l1.21-5.75h3.05c1.28,0,2.12,0.35,2.12,1.77
		c0,0.99-0.17,2-0.17,2.99c0,0.33,0.06,0.64,0.14,0.99h3.15c-0.17-0.43-0.21-1.05-0.21-1.71c0-0.9,0.11-1.89,0.11-2.55
		c0-1.15-0.31-2.22-1.53-2.59v-0.04c1.98-0.29,3.38-1.96,3.38-3.95c0-2.84-1.73-3.89-4.39-3.85H4.51L1.42,26.78z M7.23,14.59h3.07
		c1.28,0,2.39,0.23,2.39,1.81c0,1.65-1.63,2.31-3.34,2.33H6.36L7.23,14.59z"/>
	<path fill-rule="evenodd" clip-rule="evenodd" fill="#231F20" d="M22.88,22.7c-0.33,1.15-0.93,2.41-2.74,2.41
		c-0.84,0-1.61-0.39-1.61-1.2c0-1.34,1.05-1.61,2.16-1.73c0.84-0.06,1.73-0.08,2.47-0.52L22.88,22.7z M19.73,19.36
		c0.19-1.07,1.11-1.57,2.16-1.57c0.74,0,1.85,0.25,1.85,1.3c0,1.36-1.3,1.21-4.06,1.55c-2.53,0.31-4.08,1.59-4.08,3.62
		c0,1.49,1.13,2.8,3.46,2.8c1.19,0,2.45-0.43,3.25-1.34v1.05h2.93c-0.06-0.19-0.1-0.43-0.1-0.62c0-0.41,0.04-1.07,0.15-1.44
		l0.95-4.29c0.12-0.66,0.23-1.34,0.23-1.79c0.04-2.39-2.53-2.8-4.43-2.8c-2.41,0-4.68,0.84-5.05,3.52H19.73z"/>
	<path fill-rule="evenodd" clip-rule="evenodd" fill="#231F20" d="M27.12,26.78h2.95l2.27-10.65h-2.95L27.12,26.78z M33.2,12.07
		h-2.95l-0.54,2.41h2.95L33.2,12.07z"/>
	<polygon fill="#231F20" points="32.45,26.78 35.38,26.78 38.51,12.07 35.58,12.07 	"/>
	<path fill="#FFFFFF" d="M62.11,16.5c0.08-3.58-2.49-5.46-5.89-5.46c-4.96,0-8.03,4.14-8.03,8.9c0,4.14,2.41,6.51,6.53,6.51
		c3.19,0,5.42-1.55,6.74-5.65h-3.23c-0.29,1.55-1.67,2.92-3.46,2.92c-2.35,0-3.34-1.77-3.34-3.79c0-2.82,1.5-6.18,4.82-6.18
		c1.55,0,2.64,0.93,2.64,2.74H62.11z"/>
	<path fill-rule="evenodd" clip-rule="evenodd" fill="#FFFFFF" d="M69.41,22.02c-0.33,1.15-0.93,2.41-2.74,2.41
		c-0.84,0-1.61-0.39-1.61-1.2c0-1.34,1.05-1.61,2.16-1.73c0.85-0.06,1.73-0.08,2.47-0.52L69.41,22.02z M66.26,18.68
		c0.19-1.07,1.11-1.57,2.16-1.57c0.74,0,1.85,0.25,1.85,1.3c0,1.36-1.3,1.21-4.06,1.55c-2.53,0.31-4.08,1.59-4.08,3.62
		c0,1.48,1.13,2.8,3.46,2.8c1.19,0,2.45-0.43,3.25-1.34v1.05h2.93c-0.06-0.19-0.1-0.43-0.1-0.62c0-0.41,0.04-1.07,0.15-1.44
		l0.95-4.28c0.12-0.66,0.23-1.34,0.23-1.79c0.04-2.39-2.53-2.8-4.43-2.8c-2.41,0-4.68,0.84-5.05,3.52H66.26z"/>
	<path fill="#FFFFFF" d="M73.96,26.1h2.93l0.99-4.72c0.39-1.81,1.19-3.5,3.44-3.5c0.41,0,0.82,0.11,1.23,0.19l0.6-2.84
		c-0.31-0.04-0.6-0.06-0.91-0.06c-1.57,0-3.01,0.78-3.67,2.24l-0.04-0.04l0.43-1.92h-2.78L73.96,26.1z"/>
	<path fill-rule="evenodd" clip-rule="evenodd" fill="#FFFFFF" d="M88.48,17.37c1.42,0,2.1,0.97,2.1,2.31
		c0,1.81-1.01,4.06-3.11,4.06c-1.36,0-1.98-1.09-1.98-2.35C85.49,19.67,86.52,17.37,88.48,17.37 M94.37,15.45h-2.8l-0.33,1.63H91.2
		c-0.6-1.4-1.79-1.92-3.25-1.92c-3.42,0-5.38,3.32-5.38,6.43c0,2.61,1.57,4.35,4.1,4.35c1.19,0,2.16-0.49,2.93-1.5l0.04,0.04
		c-0.58,2.08-1.11,3.71-2.97,3.71c-0.95,0-1.96-0.45-1.92-1.53h-2.93c0,2.55,2.39,3.48,4.55,3.48c3.52,0,5.15-1.36,5.87-4.59
		L94.37,15.45z"/>
	<path fill-rule="evenodd" clip-rule="evenodd" fill="#FFFFFF" d="M95,21.8c0,3.05,1.92,4.59,4.88,4.59c3.87,0,6.2-2.97,6.2-6.71
		c0-3.07-2.04-4.51-4.96-4.51C97.33,15.16,95,18.19,95,21.8 M97.93,21.8c0-1.79,0.95-4.43,3.09-4.43c1.52,0,2.14,0.93,2.14,2.35
		c0,1.79-0.95,4.47-3.13,4.47C98.65,24.18,97.93,23.05,97.93,21.8"/>
	<path fill="#231F20" d="M126.15,15.12c-0.49-0.46-1.13-0.69-1.91-0.69c-0.83,0-1.55,0.19-2.16,0.57c-0.62,0.38-1.12,0.87-1.51,1.47
		c-0.39,0.6-0.68,1.27-0.88,2.01c-0.19,0.74-0.29,1.46-0.29,2.16c0,0.51,0.06,1,0.19,1.45c0.13,0.45,0.33,0.86,0.6,1.21
		c0.27,0.35,0.61,0.63,1.03,0.84c0.42,0.21,0.93,0.31,1.52,0.31c0.44,0,0.86-0.08,1.25-0.24c0.39-0.16,0.74-0.37,1.04-0.64
		c0.3-0.27,0.56-0.58,0.76-0.94c0.21-0.36,0.34-0.73,0.41-1.12h3.25c-0.33,1.03-0.72,1.91-1.17,2.63c-0.45,0.72-0.95,1.3-1.51,1.74
		c-0.56,0.45-1.18,0.77-1.86,0.97c-0.68,0.2-1.42,0.3-2.22,0.3c-2.1,0-3.71-0.56-4.85-1.67c-1.14-1.12-1.71-2.73-1.71-4.84
		c0-1.2,0.19-2.34,0.56-3.41c0.37-1.07,0.91-2.02,1.6-2.84c0.7-0.82,1.54-1.47,2.54-1.95c1-0.48,2.12-0.72,3.36-0.72
		c0.86,0,1.65,0.12,2.38,0.35c0.73,0.24,1.36,0.58,1.89,1.04c0.53,0.46,0.94,1.03,1.23,1.72c0.29,0.68,0.43,1.47,0.41,2.37h-3.25
		C126.88,16.27,126.64,15.58,126.15,15.12"/>
	<path fill="#231F20" d="M132.18,17.68c0.32-0.45,0.7-0.81,1.16-1.09c0.45-0.28,0.96-0.47,1.53-0.59c0.57-0.12,1.15-0.17,1.76-0.17
		c0.48,0,0.99,0.03,1.51,0.1c0.52,0.07,1.01,0.2,1.45,0.4c0.44,0.2,0.8,0.48,1.09,0.85c0.28,0.37,0.42,0.85,0.4,1.46
		c0,0.51-0.08,1.11-0.23,1.8l-0.95,4.3c-0.05,0.19-0.09,0.43-0.11,0.71c-0.02,0.28-0.03,0.53-0.03,0.73c0,0.18,0.03,0.39,0.1,0.62
		h-2.94v-1.05c-0.4,0.45-0.89,0.79-1.47,1c-0.58,0.21-1.18,0.32-1.8,0.32c-0.58,0-1.08-0.07-1.52-0.23
		c-0.43-0.15-0.8-0.35-1.08-0.61c-0.29-0.25-0.5-0.55-0.64-0.89c-0.14-0.34-0.21-0.69-0.21-1.07c0-1.04,0.35-1.86,1.06-2.48
		c0.71-0.62,1.71-1.01,3.01-1.16c0.69-0.08,1.29-0.15,1.8-0.19c0.51-0.04,0.93-0.11,1.27-0.2c0.34-0.09,0.59-0.22,0.75-0.39
		c0.17-0.17,0.25-0.43,0.25-0.78c0-0.27-0.06-0.5-0.19-0.66c-0.12-0.17-0.28-0.3-0.46-0.39c-0.19-0.09-0.38-0.16-0.6-0.19
		c-0.21-0.03-0.42-0.05-0.61-0.05c-0.52,0-0.99,0.13-1.41,0.38c-0.41,0.25-0.67,0.65-0.77,1.19h-2.75
		C131.65,18.69,131.86,18.13,132.18,17.68 M136.56,22.09c-0.43,0.05-0.86,0.09-1.28,0.11c-0.27,0.03-0.54,0.07-0.8,0.13
		c-0.26,0.06-0.49,0.15-0.7,0.28c-0.2,0.12-0.36,0.29-0.48,0.5c-0.12,0.21-0.19,0.49-0.19,0.82c0,0.4,0.16,0.7,0.48,0.9
		c0.33,0.2,0.7,0.3,1.13,0.3c0.45,0,0.84-0.07,1.15-0.22c0.31-0.15,0.57-0.33,0.78-0.56c0.21-0.23,0.38-0.49,0.51-0.78
		c0.13-0.29,0.23-0.58,0.31-0.87l0.29-1.03C137.39,21.9,136.99,22.04,136.56,22.09"/>
	<path fill="#231F20" d="M146.57,16.12l-0.43,1.92l0.04,0.04c0.33-0.74,0.83-1.31,1.5-1.69c0.67-0.38,1.39-0.57,2.18-0.57
		c0.3,0,0.6,0.02,0.91,0.06l-0.6,2.85c-0.21-0.04-0.41-0.08-0.62-0.13c-0.21-0.04-0.41-0.06-0.62-0.06c-0.56,0-1.04,0.09-1.44,0.29
		c-0.39,0.19-0.72,0.46-0.99,0.79c-0.27,0.33-0.48,0.7-0.64,1.13c-0.16,0.42-0.29,0.86-0.38,1.31l-0.99,4.74h-2.92l2.21-10.69
		H146.57z"/>
	<path fill="#231F20" d="M154.67,16.12l-0.43,1.92l0.04,0.04c0.33-0.74,0.83-1.31,1.5-1.69c0.67-0.38,1.39-0.57,2.18-0.57
		c0.3,0,0.6,0.02,0.91,0.06l-0.6,2.85c-0.21-0.04-0.42-0.08-0.62-0.13c-0.21-0.04-0.41-0.06-0.62-0.06c-0.56,0-1.04,0.09-1.43,0.29
		c-0.39,0.19-0.72,0.46-0.99,0.79c-0.27,0.33-0.48,0.7-0.64,1.13c-0.16,0.42-0.29,0.86-0.38,1.31l-0.99,4.74h-2.92l2.21-10.69
		H154.67z"/>
	<path fill="#231F20" d="M162.98,16.12l-2.28,10.69h-2.93l2.25-10.69H162.98z M160.36,14.47l0.54-2.42h2.96l-0.54,2.42H160.36z"/>
	<path fill="#231F20" d="M166.29,22.36v0.17v0.27c0,0.62,0.19,1.12,0.58,1.51c0.38,0.38,0.98,0.58,1.78,0.58
		c0.29,0,0.55-0.05,0.77-0.13c0.23-0.09,0.43-0.2,0.6-0.34c0.17-0.14,0.32-0.3,0.45-0.48c0.13-0.18,0.25-0.35,0.36-0.52h2.94
		c-0.24,0.61-0.51,1.14-0.83,1.59c-0.32,0.46-0.7,0.84-1.14,1.15c-0.44,0.31-0.96,0.54-1.54,0.69c-0.59,0.15-1.27,0.23-2.04,0.23
		c-0.72,0-1.37-0.1-1.95-0.29c-0.59-0.19-1.09-0.49-1.5-0.88c-0.41-0.39-0.73-0.88-0.96-1.46c-0.23-0.58-0.34-1.25-0.34-2.03
		c0-0.86,0.14-1.68,0.41-2.47c0.27-0.79,0.66-1.5,1.17-2.11c0.5-0.61,1.12-1.1,1.85-1.47c0.73-0.36,1.55-0.55,2.46-0.55
		c0.75,0,1.43,0.1,2.04,0.29c0.61,0.19,1.14,0.48,1.57,0.88c0.43,0.39,0.77,0.88,1.01,1.47c0.24,0.59,0.36,1.27,0.36,2.04
		c0,0.52-0.06,1.08-0.17,1.67h-7.88C166.29,22.25,166.29,22.31,166.29,22.36 M171.45,19.5c-0.05-0.27-0.14-0.51-0.28-0.73
		c-0.14-0.22-0.34-0.4-0.6-0.53c-0.26-0.13-0.61-0.2-1.04-0.2c-0.41,0-0.78,0.06-1.09,0.19c-0.32,0.13-0.59,0.29-0.83,0.5
		c-0.23,0.21-0.43,0.45-0.59,0.72c-0.16,0.28-0.29,0.56-0.4,0.87h4.9C171.52,20.04,171.5,19.77,171.45,19.5"/>
	<path fill="#231F20" d="M179.67,16.12l-0.43,1.92l0.04,0.04c0.33-0.74,0.83-1.31,1.5-1.69c0.67-0.38,1.39-0.57,2.18-0.57
		c0.3,0,0.6,0.02,0.91,0.06l-0.6,2.85c-0.21-0.04-0.41-0.08-0.62-0.13c-0.21-0.04-0.41-0.06-0.62-0.06c-0.56,0-1.04,0.09-1.44,0.29
		c-0.39,0.19-0.72,0.46-0.99,0.79c-0.27,0.33-0.48,0.7-0.64,1.13c-0.16,0.42-0.29,0.86-0.38,1.31l-0.99,4.74h-2.92l2.21-10.69
		H179.67z"/>
	<path fill-rule="evenodd" clip-rule="evenodd" fill="#231F20" d="M179.83,37.99h3.3c0.46,0,1.28-0.07,1.78-0.5
		c0.65-0.56,0.76-1.16,0.76-1.54c0-0.87-0.44-1.52-0.87-1.85c0.53-0.44,0.69-1.06,0.69-1.51c0-0.3-0.14-1.92-2.64-1.92h-3.02V37.99z
		 M181.34,31.93h1.78c0.52,0,0.93,0.2,0.93,0.83c0,0.58-0.37,0.83-1.01,0.83h-1.71V31.93z M181.34,34.85h2.05
		c0.28,0,0.85,0.04,0.85,0.86c0,1-0.68,1.02-1.13,1.02h-1.76V34.85z"/>
	<path fill-rule="evenodd" clip-rule="evenodd" fill="#231F20" d="M172.47,37.99h3.3c0.46,0,1.27-0.07,1.78-0.5
		c0.65-0.56,0.76-1.16,0.76-1.54c0-0.87-0.44-1.52-0.87-1.85c0.53-0.44,0.69-1.06,0.69-1.51c0-0.3-0.14-1.92-2.64-1.92h-3.02V37.99z
		 M173.98,31.93h1.79c0.52,0,0.93,0.2,0.93,0.83c0,0.58-0.37,0.83-1.01,0.83h-1.71V31.93z M173.98,34.85h2.05
		c0.28,0,0.85,0.04,0.85,0.86c0,1-0.68,1.02-1.13,1.02h-1.77V34.85z"/>
	<polygon fill-rule="evenodd" clip-rule="evenodd" fill="#231F20" points="166.49,33.19 168.82,30.65 170.5,30.65 168.18,33.19 	"/>
	<path fill="#231F20" d="M170.15,31.93l-1.03,1.16c0.22,0.36,0.32,0.76,0.32,1.19c0,0.62-0.25,1.21-0.69,1.66
		c-0.44,0.44-1.03,0.68-1.66,0.68c-0.62,0-1.21-0.25-1.66-0.68c-0.44-0.44-0.68-1.03-0.68-1.66c0-1.2,0.89-2.2,2.05-2.34l1.25-1.39
		c-0.32-0.08-0.62-0.13-0.96-0.13c-2.13,0-3.86,1.73-3.86,3.86c0,1.03,0.4,2,1.13,2.73s1.7,1.13,2.73,1.13c1.03,0,2-0.4,2.73-1.13
		c0.73-0.73,1.13-1.7,1.13-2.73C170.94,33.42,170.68,32.61,170.15,31.93"/>
	<polygon fill="#231F20" points="114.51,38.05 114.51,31.9 115.71,31.9 117.41,36.66 119.17,31.9 120.25,31.9 120.25,38.05 
		119.43,38.05 119.43,33.05 117.74,37.64 116.9,37.64 115.25,33.04 115.25,38.05 	"/>
	<path fill="#231F20" d="M125.41,37.9c-0.55,0.17-1.02,0.25-1.41,0.25c-0.66,0-1.21-0.22-1.63-0.66c-0.42-0.44-0.63-1.01-0.63-1.72
		c0-0.68,0.19-1.24,0.56-1.68c0.37-0.44,0.84-0.66,1.42-0.66c0.54,0,0.97,0.19,1.26,0.58c0.3,0.39,0.45,0.94,0.45,1.65l-0.01,0.25
		h-2.84c0.12,1.07,0.64,1.61,1.57,1.61c0.34,0,0.76-0.09,1.25-0.27V37.9z M122.62,35.31h1.99c0-0.84-0.31-1.26-0.94-1.26
		C123.04,34.05,122.69,34.47,122.62,35.31"/>
	<path fill="#231F20" d="M127.1,38.05v-4.51h0.82v0.85c0.4-0.63,0.91-0.95,1.54-0.95c0.6,0,1.01,0.32,1.23,0.95
		c0.39-0.63,0.89-0.95,1.51-0.95c0.4,0,0.71,0.12,0.92,0.35c0.22,0.23,0.33,0.56,0.33,0.98v3.28h-0.82V34.9
		c0-0.52-0.2-0.77-0.61-0.77c-0.42,0-0.87,0.3-1.33,0.9v3.02h-0.82V34.9c0-0.52-0.21-0.78-0.62-0.78c-0.41,0-0.85,0.3-1.32,0.9v3.02
		H127.1z"/>
	<path fill="#231F20" d="M135.29,38.1v-6.61h0.82v2.89c0.34-0.63,0.84-0.95,1.51-0.95c0.54,0,0.97,0.2,1.28,0.6
		c0.31,0.39,0.47,0.94,0.47,1.62c0,0.75-0.18,1.35-0.53,1.81c-0.35,0.46-0.82,0.69-1.39,0.69c-0.53,0-0.98-0.21-1.33-0.62l-0.1,0.56
		H135.29z M136.11,36.97c0.42,0.38,0.82,0.56,1.2,0.56c0.79,0,1.18-0.6,1.18-1.8c0-1.06-0.35-1.59-1.05-1.59
		c-0.46,0-0.9,0.25-1.34,0.74V36.97z"/>
	<path fill="#231F20" d="M144.2,37.9c-0.55,0.17-1.02,0.25-1.41,0.25c-0.66,0-1.21-0.22-1.63-0.66c-0.42-0.44-0.63-1.01-0.63-1.72
		c0-0.68,0.19-1.24,0.56-1.68c0.37-0.44,0.84-0.66,1.42-0.66c0.54,0,0.97,0.19,1.26,0.58c0.3,0.39,0.45,0.94,0.45,1.65l-0.01,0.25
		h-2.84c0.12,1.07,0.64,1.61,1.57,1.61c0.34,0,0.76-0.09,1.25-0.27V37.9z M141.41,35.31h1.99c0-0.84-0.31-1.26-0.94-1.26
		C141.83,34.05,141.48,34.47,141.41,35.31"/>
	<path fill="#231F20" d="M145.89,38.05v-4.51h0.82v0.85c0.32-0.63,0.79-0.95,1.41-0.95c0.08,0,0.17,0.01,0.26,0.02v0.76
		c-0.14-0.05-0.27-0.07-0.37-0.07c-0.52,0-0.95,0.31-1.3,0.92v2.97H145.89z"/>
	<path fill="#231F20" d="M153.48,38.15c-0.64,0-1.16-0.21-1.55-0.64c-0.38-0.43-0.58-1-0.58-1.72c0-0.73,0.19-1.3,0.58-1.72
		c0.38-0.42,0.91-0.64,1.57-0.64c0.66,0,1.19,0.21,1.57,0.64c0.38,0.42,0.58,0.99,0.58,1.71c0,0.74-0.19,1.31-0.58,1.73
		C154.69,37.94,154.15,38.15,153.48,38.15 M153.49,37.54c0.87,0,1.3-0.58,1.3-1.75c0-1.15-0.43-1.73-1.28-1.73
		c-0.85,0-1.28,0.58-1.28,1.74C152.23,36.96,152.65,37.54,153.49,37.54"/>
	<path fill="#231F20" d="M158.17,34.16v3.89h-0.82v-3.89h-0.64v-0.62h0.64V33c0-1.07,0.49-1.61,1.47-1.61
		c0.27,0,0.58,0.05,0.94,0.14v0.65c-0.37-0.11-0.66-0.17-0.88-0.17c-0.27,0-0.45,0.06-0.55,0.19c-0.1,0.13-0.15,0.37-0.15,0.72v0.63
		h1.13v0.62H158.17z"/>
</g>
</svg>
