<svg fill="none" xmlns="http://www.w3.org/2000/svg" viewBox="0 0 280 32.77"><path d="M181.195 10.939c-4.578 0-6.791 1.751-6.975 5.039h4.517c.061-.86.553-1.505 2.458-1.505 1.69 0 2.489.552 2.489 1.382 0 .738-.461 1.014-1.598 1.137l-2.95.307c-3.994.43-5.807 2.09-5.807 5.1 0 2.797 1.721 4.948 5.377 4.948 2.489 0 3.964-.8 5.254-2.397v1.936h4.241v-10.17c0-4.272-2.489-5.777-7.006-5.777Zm2.581 9.925c0 1.69-1.598 2.95-4.056 2.95-1.198 0-1.905-.554-1.905-1.599 0-.799.492-1.474 2.058-1.69l2.674-.368c.461-.062.952-.154 1.229-.246v.953Zm-17.514-3.688c3.933.523 5.899 1.752 5.899 4.978 0 3.257-2.304 5.193-7.19 5.193-5.315 0-7.19-2.12-7.282-5.224h4.578c.124 1.137.922 1.69 2.704 1.69 1.813 0 2.551-.43 2.551-1.29 0-.8-.615-1.168-2.213-1.383l-1.628-.215c-3.411-.461-5.377-1.782-5.377-4.855 0-2.95 2.181-5.131 6.76-5.131 4.24 0 6.514 1.69 6.729 5.039h-4.517c-.154-.891-.646-1.444-2.212-1.444-1.537 0-2.121.522-2.121 1.198 0 .676.369 1.045 1.69 1.23l1.629.214ZM150.39 10.94c4.026 0 6.084 1.782 6.084 6.882v9.065h-4.639v-8.85c0-2.058-.891-2.98-2.827-2.98-1.752 0-2.796.922-2.796 2.98v8.85h-4.64V11.4h4.363v1.782c.645-1.199 1.967-2.243 4.455-2.243Zm-17.734 0c-4.578 0-6.79 1.751-6.975 5.039h4.517c.062-.86.553-1.506 2.458-1.506 1.69 0 2.489.553 2.489 1.383 0 .738-.461 1.014-1.598 1.137l-2.949.307c-3.995.43-5.808 2.09-5.808 5.1 0 2.797 1.721 4.948 5.377 4.948 2.489 0 3.964-.8 5.255-2.397v1.936h4.24v-10.17c0-4.272-2.489-5.777-7.006-5.777Zm2.581 9.924c0 1.69-1.598 2.95-4.056 2.95-1.198 0-1.905-.553-1.905-1.598 0-.799.492-1.474 2.059-1.69l2.673-.368c.461-.062.953-.154 1.229-.246v.952Zm-17.821-9.924c3.933 0 5.992 1.782 5.992 6.882v9.065h-4.64v-8.85c0-2.058-.891-2.98-2.827-2.98-1.751 0-2.796.922-2.796 2.98v8.85h-4.64V5.408h4.671v7.497c.799-1.137 2.058-1.966 4.24-1.966Zm-13.806.46h3.534v3.78h-3.534V21.2c0 1.66.86 2.09 2.212 2.09.553 0 1.322-.092 1.322-.092v3.717s-1.076.246-2.213.246c-3.718 0-5.96-1.69-5.96-5.438v-6.545h-2.336v-3.78h2.335V6.884h4.64V11.4Zm-16.224-.583c0-3.749 2.367-5.746 6.084-5.746 1.199 0 1.967.184 1.967.184v3.749s-.645-.061-1.198-.061c-1.445 0-2.213.491-2.213 1.843v.615h3.411v3.779h-3.41v11.707h-4.64V15.179H85.05v-3.78h2.335v-.583Zm-8.204.584h4.64v15.486H79.46v-1.782c-.645 1.198-1.966 2.243-4.394 2.243-3.963 0-6.022-1.783-6.022-6.883V11.4h4.64v8.849c0 2.059.89 2.98 2.765 2.98 1.69 0 2.734-.921 2.734-2.98v-8.85ZM58.75 22.553h9.249v4.333H53.77V5.377h4.978v17.176ZM16.132 0C7.21 0 0 7.21 0 16.131s7.21 16.132 16.131 16.132 16.132-7.21 16.132-16.132C32.263 7.211 25.053 0 16.132 0Zm0 31.295C7.758 31.295.967 24.504.967 16.131.968 7.76 7.759.968 16.13.968c8.373 0 15.164 6.791 15.164 15.163 0 8.373-6.791 15.164-15.164 15.164Zm6.254-18.371c-.122 0-.225.003-.283.01a9.043 9.043 0 0 1-.317.516c2.31 0 4.407.19 6.726.606l-.654.632c-2.094-.37-3.833-.52-6.049-.52-.323 0-.39 0-.468.004a8.252 8.252 0 0 1-.425.552c.196-.013.577-.02 1.103-.02 1.822 0 3.526.136 5.374.433l-.655.635a31.95 31.95 0 0 0-4.668-.345c-.548 0-1.17.02-1.729.052-.126.145-.455.5-.555.61a24.115 24.115 0 0 1 2.52-.114c1.377 0 2.693.09 3.939.275l-.655.629a25.136 25.136 0 0 0-2.916-.175c-2.455 0-4.39.533-6.391 1.755 1.906 2.046 5.03 3.34 8.055 3.34h.284l-1.058 1.022c-4.365-.82-8.958-2.74-12.84-5.368-3.731-2.52-5.038-3.265-7.95-4.552l-.02-.748 1.97.845.672-.532 6.435 2.948-.419.335-3.303-1.435-.326.255 1.716.958c1.448.807 2.552 1.168 3.571 1.168 2.23 0 4.23-1.58 5.52-4.358.97-.126 2.006-.184 3.251-.184 2.555 0 5.036.245 7.845.77l-.683.662c-1.749-.365-4.72-.661-6.617-.661ZM201.95 16.13c0-4.27 1.69-6.79 5.685-6.79 3.226 0 4.701 1.168 5.316 3.349h5.161c-.706-4.578-3.748-7.774-10.477-7.774-7.836 0-10.847 4.763-10.847 11.215 0 6.453 3.011 11.216 10.847 11.216 6.729 0 9.771-3.196 10.477-7.774h-5.161c-.615 2.182-2.09 3.35-5.316 3.35-3.995 0-5.685-2.52-5.685-6.792Zm27.47 4.732c0 1.69-1.598 2.95-4.056 2.95-1.199 0-1.905-.553-1.905-1.598 0-.799.491-1.475 2.058-1.69l2.674-.369c.46-.06.952-.153 1.229-.245v.952Zm.184 6.023h4.24v-10.17c0-4.272-2.489-5.777-7.006-5.777-4.578 0-6.79 1.75-6.974 5.039h4.516c.062-.86.553-1.506 2.458-1.506 1.69 0 2.489.553 2.489 1.383 0 .737-.461 1.014-1.597 1.137l-2.95.307c-3.995.43-5.808 2.09-5.808 5.1 0 2.796 1.721 4.948 5.377 4.948 2.489 0 3.964-.799 5.255-2.397v1.936Zm13.735-11.553c.614 0 1.259.03 1.966.123V11a8.143 8.143 0 0 0-.86-.061c-2.336 0-3.626 1.044-4.241 2.243h-.03V11.4h-4.363v15.486h4.639V18.16c0-1.997 1.229-2.827 2.889-2.827Zm14.178 2.98c0 2.12-1.229 3.257-3.472 3.257-2.274 0-3.472-1.137-3.472-3.257s1.198-3.257 3.472-3.257c2.243 0 3.472 1.137 3.472 3.257Zm4.517 7.251V11.4h-4.364v1.229c-.983-1.045-2.458-1.69-4.547-1.69-4.977 0-7.221 2.857-7.221 7.343 0 4.548 2.244 7.406 7.221 7.406 1.905 0 3.318-.553 4.271-1.414v1.506c0 2.181-1.045 3.072-3.411 3.072-2.243 0-3.195-.614-3.379-2.12h-4.517c.307 4.056 2.735 6.023 7.896 6.023 5.531 0 8.051-2.305 8.051-7.19Zm13.265-6.421c0 2.519-1.106 4.086-3.626 4.086-2.519 0-3.626-1.567-3.626-4.086 0-2.52 1.107-4.087 3.626-4.087 2.52 0 3.626 1.567 3.626 4.087Zm4.701 0c0-4.947-2.427-8.204-8.327-8.204-5.899 0-8.327 3.257-8.327 8.204 0 4.947 2.428 8.204 8.327 8.204 5.9 0 8.327-3.258 8.327-8.204Z" fill="#05164D" style="--darkreader-inline-fill: var(--darkreader-background-05164d, #04123e);" data-darkreader-inline-fill=""/></svg>