<?xml version="1.0" encoding="utf-8"?>
<!-- Generator: Adobe Illustrator 26.0.2, SVG Export Plug-In . SVG Version: 6.00 Build 0)  -->
<svg version="1.1" id="Google_Cloud_logo" xmlns="http://www.w3.org/2000/svg" xmlns:xlink="http://www.w3.org/1999/xlink" x="0px"
	 y="0px" viewBox="0 0 138.4 24" style="enable-background:new 0 0 138.4 24;" xml:space="preserve">
<style type="text/css">
	.st0{fill:#5F6368;}
	.st1{fill:#4285F4;}
	.st2{fill:#EA4335;}
	.st3{fill:#FBBC04;}
	.st4{fill:#34A853;}
</style>
<path class="st0" d="M89.8,18.6c-4.6,0.1-8.4-3.5-8.6-8.2c0-0.2,0-0.3,0-0.5c-0.1-2.3,0.8-4.5,2.4-6.1c1.6-1.6,3.8-2.5,6.1-2.5
	c2.3-0.1,4.5,0.9,6,2.7l-1.5,1.5c-1.1-1.4-2.8-2.2-4.5-2.1c-1.7,0-3.4,0.6-4.6,1.8c-1.2,1.3-1.9,3-1.8,4.7c-0.1,1.8,0.6,3.5,1.8,4.7
	c1.2,1.2,2.9,1.9,4.6,1.8c1.9,0,3.8-0.9,5-2.4l1.5,1.5c-0.8,0.9-1.8,1.7-2.9,2.2C92.3,18.4,91,18.6,89.8,18.6z M100.1,1.8v16.5H98
	V1.8H100.1z M101.9,12.6c0-1.6,0.5-3.1,1.6-4.3c1.1-1.1,2.6-1.7,4.2-1.7c1.6,0,3.1,0.6,4.1,1.7c1.1,1.2,1.7,2.7,1.7,4.3
	c0.1,1.6-0.5,3.2-1.7,4.3c-1.1,1.1-2.6,1.7-4.1,1.7c-1.6,0-3.1-0.6-4.2-1.7C102.5,15.8,101.9,14.2,101.9,12.6z M104.1,12.6
	c0,1.1,0.3,2.1,1.1,2.9c1.4,1.4,3.6,1.5,5.1,0.2c0.1,0,0.1-0.1,0.2-0.2c0.7-0.8,1.1-1.9,1.1-2.9c0-1.1-0.3-2.1-1.1-2.9
	c-1.3-1.4-3.6-1.5-5-0.2c-0.1,0.1-0.1,0.1-0.2,0.2C104.4,10.5,104,11.5,104.1,12.6z M125.2,18.3h-2v-1.6h-0.1
	c-0.4,0.6-0.9,1.1-1.5,1.4c-0.6,0.4-1.4,0.5-2.1,0.5c-1.2,0.1-2.3-0.4-3.2-1.2c-0.8-0.9-1.2-2.1-1.1-3.4V7h2.1v6.9
	c-0.2,1.4,0.8,2.6,2.2,2.8c0.2,0,0.4,0,0.6,0c0.8,0,1.6-0.4,2.1-1c0.6-0.7,0.9-1.6,0.8-2.4V7h2.1L125.2,18.3z M132.4,18.6
	c-1.5,0-2.8-0.6-3.8-1.7c-1.1-1.2-1.6-2.7-1.6-4.3c0-1.6,0.5-3.1,1.6-4.2c0.9-1.1,2.3-1.8,3.8-1.8c0.8,0,1.6,0.2,2.3,0.5
	c0.6,0.3,1.2,0.8,1.6,1.4h0.1l0-1.5V1.8h2.1v16.5h-2v-1.6h-0.1c-0.4,0.6-0.9,1.1-1.6,1.4C134,18.5,133.2,18.6,132.4,18.6z
	 M132.7,16.7c1,0,1.9-0.4,2.6-1.1c0.7-0.8,1.1-1.9,1-2.9c0-1.1-0.3-2.1-1-2.9c-0.6-0.8-1.6-1.2-2.6-1.1c-1,0-1.9,0.4-2.6,1.1
	c-0.7,0.8-1,1.9-1,2.9c-0.1,1.1,0.3,2.1,1,2.9C130.8,16.3,131.8,16.7,132.7,16.7z"/>
<g id="_75x24px">
	<path class="st1" d="M9.5,18.6c-5.2,0-9.4-4.1-9.5-9.3C0.1,4.1,4.3,0,9.5,0c2.4,0,4.7,0.9,6.4,2.6l-1.8,1.8
		c-1.2-1.2-2.9-1.8-4.6-1.8c-3.7,0-6.7,3-6.7,6.7c0,0,0,0.1,0,0.1c0,3.7,2.9,6.7,6.6,6.8c0,0,0.1,0,0.1,0c1.8,0.1,3.5-0.6,4.7-1.9
		c0.8-0.9,1.3-2,1.4-3.2H9.5V8.5h8.6c0.1,0.5,0.1,1.1,0.1,1.6c0.1,2.2-0.7,4.3-2.2,5.9C14.3,17.8,11.9,18.7,9.5,18.6z"/>
	<path class="st2" d="M31.5,12.6c0.1,3.3-2.4,6-5.7,6.2c-3.3,0.1-6-2.4-6.2-5.7c0-0.2,0-0.3,0-0.5c-0.1-3.3,2.4-6,5.7-6.2
		c3.3-0.1,6,2.4,6.2,5.7C31.5,12.3,31.5,12.5,31.5,12.6z M28.9,12.6c0.2-1.8-1.2-3.5-3-3.7c-1.8-0.2-3.5,1.2-3.7,3
		c0,0.2,0,0.4,0,0.6c-0.2,1.8,1.2,3.5,3,3.7c1.8,0.2,3.5-1.2,3.7-3C28.9,13,28.9,12.8,28.9,12.6z"/>
	<path class="st3" d="M44.8,12.6c0.1,3.3-2.4,6-5.7,6.2c-3.3,0.1-6-2.4-6.2-5.7c0-0.2,0-0.3,0-0.5c-0.1-3.3,2.4-6,5.7-6.2
		c3.3-0.1,6,2.4,6.2,5.7C44.8,12.3,44.8,12.5,44.8,12.6z M42.2,12.6c0.1-1.8-1.2-3.5-3.1-3.6c-1.8-0.1-3.5,1.2-3.6,3.1
		c0,0.2,0,0.3,0,0.5c-0.1,1.8,1.2,3.5,3.1,3.6c1.8,0.1,3.5-1.2,3.6-3.1C42.2,13,42.2,12.8,42.2,12.6z"/>
	<path class="st1" d="M57.8,7v10.8c0,4.4-2.6,6.2-5.7,6.2c-2.3,0-4.4-1.4-5.3-3.5l2.3-1c0.5,1.3,1.7,2.1,3,2.1c2,0,3.2-1.2,3.2-3.5
		v-0.9h-0.1c-0.8,0.9-2,1.4-3.2,1.4c-3.3,0-6-2.7-6-6s2.7-6,6-6c1.2,0,2.4,0.5,3.2,1.4h0.1V7H57.8z M55.5,12.7
		c0.2-1.9-1.2-3.5-3.1-3.7c0,0-0.1,0-0.1,0c-1.9,0.1-3.4,1.7-3.4,3.6c0,0,0,0,0,0.1c-0.1,1.9,1.4,3.5,3.3,3.6c0,0,0,0,0.1,0
		c1.8-0.1,3.3-1.6,3.2-3.5C55.5,12.8,55.5,12.7,55.5,12.7L55.5,12.7z"/>
	<path class="st4" d="M62.4,0.6v17.6h-2.6V0.6H62.4z"/>
	<path class="st2" d="M72.8,14.6l2.1,1.4c-1.1,1.7-3,2.7-5,2.7c-3.2,0-5.8-2.5-5.9-5.7c0-0.1,0-0.2,0-0.3c-0.3-3,2-5.7,5-6
		c2.6-0.2,4.9,1.4,5.7,3.8l0.3,0.7l-8,3.3c0.5,1.1,1.7,1.9,2.9,1.8C71.1,16.3,72.2,15.6,72.8,14.6z M66.5,12.4l5.4-2.2
		c-0.4-0.8-1.3-1.3-2.2-1.2C67.8,9.1,66.4,10.6,66.5,12.4C66.5,12.4,66.5,12.4,66.5,12.4z"/>
</g>
</svg>
